<svg width="142" height="30" viewBox="0 0 142 30" fill="none" xmlns="http://www.w3.org/2000/svg">
<g clip-path="url(#clip0_6416_9221)">
<path d="M0 0L8.57143 14.8529L17.1521 0H0Z" fill="#FF5000"/>
<path d="M17.1521 0L25.7235 14.8529L34.3042 0H17.1521Z" fill="#FF5000"/>
<path d="M34.3042 29.6873L25.7327 14.8345L17.1521 29.6873H34.3042Z" fill="#FF5000"/>
<path d="M17.1521 29.6873L8.58063 14.8345L0 29.6873H17.1521Z" fill="#FF5000"/>
<path d="M17.1521 0L8.58063 14.8345L17.1521 29.6873L25.7327 14.8345L17.1521 0Z" fill="#9632A5"/>
<path d="M52.7899 5.13182C52.7163 4.6168 52.2932 3.7523 50.9689 3.7523C50.0584 3.7523 49.4698 4.3317 49.4698 4.92949C49.4698 5.4629 49.8009 5.84917 50.555 5.98712L52.0265 6.26303C54.1142 6.64929 55.1994 7.99203 55.1994 9.55548C55.1994 11.2753 53.7647 13.0227 51.1528 13.0227C48.1179 13.0227 46.8119 11.0546 46.6556 9.5095L48.8996 8.96689C48.9916 9.97854 49.6721 10.8522 51.1804 10.8522C52.1369 10.8522 52.7255 10.3924 52.7255 9.71183C52.7255 9.15083 52.2748 8.75536 51.5483 8.60821L50.0492 8.32311C48.1822 7.96444 47.0602 6.73206 47.0602 5.10423C47.0602 3.03494 48.8812 1.58185 50.9873 1.58185C53.7279 1.58185 54.758 3.21888 54.9879 4.50643L52.7899 5.12262V5.13182Z" fill="black"/>
<path d="M56.3398 12.8019V5.10422H58.5839V5.98711C58.9793 5.30655 59.9634 4.8743 60.8003 4.8743C61.8947 4.8743 62.6856 5.32494 63.0811 6.08828C63.6881 5.22378 64.4238 4.8743 65.4631 4.8743C66.9254 4.8743 68.3049 5.7296 68.3049 7.81728V12.8019H66.0333V8.3415C66.0333 7.61495 65.6378 7.04475 64.8101 7.04475C63.9824 7.04475 63.5226 7.67933 63.5226 8.35989V12.8019H61.205V8.3415C61.205 7.61495 60.8187 7.04475 59.9634 7.04475C59.1081 7.04475 58.6942 7.67933 58.6942 8.36909V12.8019H56.3398Z" fill="black"/>
<path d="M70.9168 1.37033C71.6893 1.37033 72.3055 1.98652 72.3055 2.74066C72.3055 3.49479 71.6893 4.12018 70.9168 4.12018C70.1443 4.12018 69.5557 3.49479 69.5557 2.74066C69.5557 1.98652 70.1811 1.37033 70.9168 1.37033ZM69.758 5.09504H72.1124V12.7928H69.758V5.10424V5.09504Z" fill="black"/>
<path d="M75.9382 1.59103H73.5839V12.8019H75.9382V1.59103Z" fill="black"/>
<path d="M84.5372 10.5855C84.1601 11.9191 82.937 13.0319 80.9872 13.0319C78.8628 13.0319 76.9774 11.5144 76.9774 8.93009C76.9774 6.34579 78.8168 4.8743 80.8217 4.8743C83.2037 4.8743 84.6752 6.34579 84.6752 8.81973C84.6752 9.15082 84.6476 9.50029 84.6292 9.55548H79.2766C79.3226 10.42 80.1135 11.0362 81.024 11.0362C81.8701 11.0362 82.3484 10.6315 82.5691 10.0337L84.5464 10.5947L84.5372 10.5855ZM82.3943 8.0288C82.3667 7.44021 81.9713 6.72286 80.8493 6.72286C79.856 6.72286 79.3686 7.4494 79.3226 8.0288H82.3943Z" fill="black"/>
<path d="M87.4251 12.6456C87.5722 13.3906 88.1976 13.924 89.0713 13.924C90.2485 13.924 90.975 13.3538 90.975 11.9559V11.6064C90.6899 12.0202 90.0278 12.4709 88.915 12.4709C86.8733 12.4709 85.3374 10.8614 85.3374 8.71858C85.3374 6.68608 86.8089 4.96628 88.915 4.96628C90.1657 4.96628 90.8371 5.51809 91.0486 5.92275V5.10423H93.2926V11.8363C93.2926 14.0527 92.0511 15.9657 89.1817 15.9657C86.9652 15.9657 85.5581 14.6045 85.3374 13.225L87.4159 12.6456H87.4251ZM90.9934 8.71858C90.9934 7.67014 90.2393 7.01717 89.3472 7.01717C88.4551 7.01717 87.6918 7.67014 87.6918 8.71858C87.6918 9.76701 88.4091 10.4292 89.3472 10.4292C90.2853 10.4292 90.9934 9.77621 90.9934 8.71858Z" fill="black"/>
<path d="M100.218 11.8087C99.8867 12.5444 99.1049 13.0043 98.1485 13.0043C95.8952 13.0043 94.3318 11.2937 94.3318 8.92088C94.3318 6.5481 95.7941 4.86508 98.0749 4.86508C99.4544 4.86508 100.061 5.62842 100.209 5.9779V5.095H102.489V11.4132C102.489 12.1214 102.535 12.618 102.554 12.7927H100.291C100.273 12.6272 100.236 12.2041 100.236 11.8822V11.8087H100.218ZM98.452 10.981C99.3992 10.981 100.209 10.236 100.209 8.93927C100.209 7.64252 99.4268 6.90677 98.452 6.90677C97.4771 6.90677 96.6954 7.60573 96.6954 8.93927C96.6954 10.2084 97.4863 10.981 98.452 10.981Z" fill="black"/>
<path d="M106.904 5.1042H108.394V7.16429H106.904V10.0429C106.904 10.6775 107.244 10.843 107.759 10.843C107.998 10.843 108.237 10.797 108.375 10.7602V12.71C108.283 12.7559 107.897 12.9215 107.152 12.9215C105.561 12.9215 104.586 11.9742 104.586 10.4475V7.15509H103.234V5.095H103.621C104.43 5.095 104.816 4.55239 104.816 3.84424V2.85098H106.922V5.095L106.904 5.1042Z" fill="black"/>
<path d="M116.505 10.5855C116.128 11.9191 114.914 13.0319 112.955 13.0319C110.831 13.0319 108.946 11.5144 108.946 8.93009C108.946 6.34579 110.785 4.8743 112.79 4.8743C115.172 4.8743 116.643 6.34579 116.643 8.81973C116.643 9.15082 116.607 9.50029 116.597 9.55548H111.236C111.282 10.42 112.072 11.0362 112.983 11.0362C113.838 11.0362 114.316 10.6315 114.537 10.0337L116.505 10.5947V10.5855ZM114.362 8.0288C114.326 7.44021 113.93 6.72286 112.817 6.72286C111.833 6.72286 111.337 7.4494 111.282 8.0288H114.362Z" fill="black"/>
<path d="M51.8793 25.4568H48.3385L47.4924 27.6916H46.306L49.4881 19.6996H50.7573L53.9394 27.6916H52.7438L51.8793 25.4568ZM48.734 24.4267H51.4838L50.0951 20.84L48.734 24.4267Z" fill="black"/>
<path d="M55.2362 25.9442C55.3006 26.5052 55.7328 26.9558 56.4962 26.9558C57.094 26.9558 57.4159 26.6155 57.4159 26.2293C57.4159 25.889 57.1675 25.6315 56.7169 25.5303L55.7972 25.328C54.9511 25.1441 54.4453 24.5739 54.4453 23.8105C54.4453 22.8816 55.3098 22.0999 56.3674 22.0999C57.8573 22.0999 58.3171 23.0656 58.4275 23.553L57.4894 23.9025C57.4434 23.6174 57.2227 23.0012 56.3582 23.0012C55.8156 23.0012 55.4569 23.3507 55.4569 23.7277C55.4569 24.0496 55.6593 24.2888 56.0731 24.3807L56.956 24.5739C57.9401 24.7854 58.4551 25.3832 58.4551 26.1833C58.4551 26.9834 57.8113 27.8663 56.4686 27.8663C54.9787 27.8663 54.3533 26.9098 54.2614 26.2937L55.2178 25.9534L55.2362 25.9442Z" fill="black"/>
<path d="M60.1565 25.9442C60.2209 26.5052 60.6531 26.9558 61.4165 26.9558C62.0143 26.9558 62.3361 26.6155 62.3361 26.2293C62.3361 25.889 62.0878 25.6315 61.6372 25.5303L60.7175 25.328C59.8714 25.1441 59.3656 24.5739 59.3656 23.8105C59.3656 22.8816 60.2301 22.0999 61.2877 22.0999C62.7776 22.0999 63.2374 23.0656 63.3478 23.553L62.4097 23.9025C62.3637 23.6174 62.143 23.0012 61.2785 23.0012C60.7359 23.0012 60.3772 23.3507 60.3772 23.7277C60.3772 24.0496 60.5796 24.2888 60.9934 24.3807L61.8763 24.5739C62.8604 24.7854 63.3754 25.3832 63.3754 26.1833C63.3754 26.9834 62.7316 27.8663 61.3889 27.8663C59.899 27.8663 59.2736 26.9098 59.1816 26.2937L60.1381 25.9534L60.1565 25.9442Z" fill="black"/>
<path d="M69.3534 26.1465C69.0499 27.103 68.1854 27.8571 66.9162 27.8571C65.4631 27.8571 64.1848 26.7995 64.1848 24.9601C64.1848 23.2587 65.4171 22.0999 66.7783 22.0999C68.4429 22.0999 69.381 23.2495 69.381 24.9417C69.381 25.0797 69.3718 25.2084 69.3626 25.282H65.2792C65.2976 26.2477 65.9965 26.9282 66.9162 26.9282C67.8359 26.9282 68.2314 26.4408 68.4337 25.8338L69.3442 26.1465H69.3534ZM68.2865 24.4175C68.2681 23.645 67.7531 23.0288 66.7966 23.0288C65.9046 23.0288 65.3619 23.7186 65.316 24.4175H68.2773H68.2865Z" fill="black"/>
<path d="M71.9928 22.2655H73.1608V23.2219H71.9928V26.0362C71.9928 26.5328 72.1951 26.7811 72.7469 26.7811C72.8849 26.7811 73.0688 26.7535 73.1608 26.7351V27.6364C73.0688 27.6732 72.8021 27.7376 72.4434 27.7376C71.5238 27.7376 70.9352 27.1766 70.9352 26.1925V23.2127H69.8959V22.2563H70.1902C70.7788 22.2563 71.0271 21.8976 71.0271 21.4194V20.5365H71.9928V22.2471V22.2655Z" fill="black"/>
<path d="M84.7028 27.6916V21.4745L81.9714 27.6916H80.9597L78.2559 21.4745V27.6916H77.1614V19.6996H78.6605L81.4747 26.2017L84.3166 19.6996H85.7972V27.6916H84.7028Z" fill="black"/>
<path d="M88.8413 24.5923L90.3036 24.3807C90.6347 24.3348 90.7174 24.1692 90.7174 23.9761C90.7174 23.4427 90.368 23.0104 89.5495 23.0104C88.8045 23.0104 88.3907 23.4703 88.3263 24.1048L87.3146 23.8657C87.425 22.8265 88.3631 22.1091 89.5311 22.1091C91.1497 22.1091 91.7843 23.038 91.7843 24.0956V26.8087C91.7843 27.2869 91.8303 27.5628 91.8487 27.7008H90.8094C90.791 27.5628 90.7542 27.3605 90.7542 26.965C90.5151 27.3513 89.9725 27.8663 89.0068 27.8663C87.9032 27.8663 87.1951 27.103 87.1951 26.2385C87.1951 25.2728 87.9032 24.7302 88.8413 24.5923ZM90.7266 25.3648V25.1165L89.0712 25.3648C88.6206 25.4292 88.2803 25.6959 88.2803 26.1741C88.2803 26.5788 88.6206 26.965 89.1632 26.965C90.0277 26.965 90.7266 26.5512 90.7266 25.3648Z" fill="black"/>
<path d="M94.3227 27.6916H93.2651V22.2747H94.3043V23.0564C94.6998 22.385 95.3436 22.1183 95.9689 22.1183C97.2657 22.1183 97.9095 23.0564 97.9095 24.2612V27.7008H96.8518V24.4451C96.8518 23.691 96.5391 23.084 95.5919 23.084C94.755 23.084 94.3319 23.7462 94.3319 24.5739V27.71L94.3227 27.6916Z" fill="black"/>
<path d="M100.733 24.5923L102.195 24.3807C102.517 24.3348 102.609 24.1692 102.609 23.9761C102.609 23.4427 102.259 23.0104 101.441 23.0104C100.696 23.0104 100.282 23.4703 100.209 24.1048L99.1969 23.8657C99.3073 22.8265 100.245 22.1091 101.413 22.1091C103.032 22.1091 103.667 23.038 103.667 24.0956V26.8087C103.667 27.2869 103.713 27.5628 103.731 27.7008H102.692C102.673 27.5628 102.637 27.3605 102.637 26.965C102.397 27.3513 101.864 27.8663 100.889 27.8663C99.7855 27.8663 99.0774 27.103 99.0774 26.2385C99.0774 25.2728 99.7855 24.7302 100.724 24.5923H100.733ZM102.618 25.3648V25.1165L100.963 25.3648C100.512 25.4292 100.172 25.6959 100.172 26.1741C100.172 26.5788 100.512 26.965 101.055 26.965C101.919 26.965 102.618 26.5512 102.618 25.3648Z" fill="black"/>
<path d="M105.782 27.7468C105.865 28.5009 106.435 29.0803 107.263 29.0803C108.403 29.0803 108.918 28.4917 108.918 27.3237V26.542C108.66 27.0386 108.072 27.4341 107.263 27.4341C105.819 27.4341 104.77 26.3396 104.77 24.813C104.77 23.2863 105.773 22.1735 107.263 22.1735C108.099 22.1735 108.66 22.4862 108.927 23.0288V22.2747H109.976V27.2869C109.976 28.6572 109.295 30 107.263 30C105.911 30 104.899 29.1447 104.761 27.9859L105.791 27.7468H105.782ZM108.964 24.8038C108.964 23.7553 108.329 23.0656 107.419 23.0656C106.508 23.0656 105.855 23.7553 105.855 24.8038C105.855 25.8522 106.462 26.542 107.419 26.542C108.375 26.542 108.964 25.8522 108.964 24.8038Z" fill="black"/>
<path d="M116.211 26.1465C115.908 27.103 115.043 27.8571 113.774 27.8571C112.321 27.8571 111.042 26.7995 111.042 24.9601C111.042 23.2587 112.275 22.0999 113.636 22.0999C115.301 22.0999 116.239 23.2495 116.239 24.9417C116.239 25.0797 116.229 25.2084 116.22 25.282H112.137C112.155 26.2477 112.854 26.9282 113.774 26.9282C114.694 26.9282 115.089 26.4408 115.291 25.8338L116.202 26.1465H116.211ZM115.144 24.4175C115.126 23.645 114.611 23.0288 113.654 23.0288C112.762 23.0288 112.22 23.7186 112.174 24.4175H115.135H115.144Z" fill="black"/>
<path d="M117.434 27.6916V22.2747H118.446V23.0012C118.786 22.4034 119.457 22.1183 120.092 22.1183C120.773 22.1183 121.426 22.4494 121.711 23.1484C122.143 22.3666 122.842 22.1183 123.522 22.1183C124.47 22.1183 125.389 22.7621 125.389 24.1784V27.6916H124.341V24.2888C124.341 23.5806 123.992 23.0472 123.191 23.0472C122.446 23.0472 121.941 23.6358 121.941 24.4083V27.6916H120.883V24.2888C120.883 23.5898 120.543 23.0472 119.733 23.0472C118.979 23.0472 118.473 23.6082 118.473 24.4175V27.6824H117.425L117.434 27.6916Z" fill="black"/>
<path d="M131.643 26.1465C131.34 27.103 130.475 27.8571 129.206 27.8571C127.753 27.8571 126.475 26.7995 126.475 24.9601C126.475 23.2587 127.707 22.0999 129.068 22.0999C130.733 22.0999 131.671 23.2495 131.671 24.9417C131.671 25.0797 131.662 25.2084 131.653 25.282H127.569C127.588 26.2477 128.287 26.9282 129.206 26.9282C130.126 26.9282 130.521 26.4408 130.724 25.8338L131.634 26.1465H131.643ZM130.577 24.4175C130.558 23.645 130.043 23.0288 129.087 23.0288C128.195 23.0288 127.652 23.7186 127.606 24.4175H130.567H130.577Z" fill="black"/>
<path d="M133.915 27.6916H132.857V22.2747H133.896V23.0564C134.292 22.385 134.936 22.1183 135.561 22.1183C136.858 22.1183 137.502 23.0564 137.502 24.2612V27.7008H136.444V24.4451C136.444 23.691 136.131 23.084 135.184 23.084C134.347 23.084 133.924 23.7462 133.924 24.5739V27.71L133.915 27.6916Z" fill="black"/>
<path d="M140.435 22.2655H141.603V23.2219H140.435V26.0362C140.435 26.5328 140.638 26.7811 141.19 26.7811C141.327 26.7811 141.521 26.7535 141.603 26.7351V27.6364C141.511 27.6732 141.245 27.7376 140.886 27.7376C139.966 27.7376 139.378 27.1766 139.378 26.1925V23.2127H138.339V22.2563H138.633C139.221 22.2563 139.47 21.8976 139.47 21.4194V20.5365H140.435V22.2471V22.2655Z" fill="black"/>
</g>
<defs>
<clipPath id="clip0_6416_9221">
<rect width="141.613" height="30" fill="white"/>
</clipPath>
</defs>
</svg>
