<svg width="560" height="85" viewBox="0 0 560 85" fill="none" xmlns="http://www.w3.org/2000/svg">
<g clip-path="url(#clip0_6320_1505)">
<path d="M179.577 21.2073C174.086 21.2073 169.401 23.3638 165.889 27.1376V22.5551H149.053V67.9295H165.889V45.9136C165.889 39.5323 168.86 36.2094 173.364 36.2094C177.234 36.2094 179.759 39.0865 179.759 43.3994V67.9295H196.689V39.807C196.689 28.304 189.847 21.2073 179.582 21.2073H179.577Z" fill="#201D1D"/>
<path d="M414.432 31.5386V22.555H397.596V67.9295H414.432V54.1818C414.432 43.3112 420.286 39.6255 429.471 39.6255H432.801V22.2854C431.632 22.0159 430.91 22.0159 429.559 22.0159C421.995 22.0159 417.315 26.0593 414.432 31.5386Z" fill="#201D1D"/>
<path d="M487.948 21.2073C482.452 21.2073 477.772 23.3638 474.26 27.1376V22.5551H457.424V67.9295H474.26V45.9136C474.26 39.5323 477.231 36.2094 481.735 36.2094C485.605 36.2094 488.13 39.0865 488.13 43.3994V67.9295H505.06V39.807C505.06 28.304 498.218 21.2073 487.953 21.2073H487.948Z" fill="#201D1D"/>
<path d="M453.352 22.5549H436.516V67.9294H453.352V22.5549Z" fill="#201D1D"/>
<path d="M444.937 18.5064C450.058 18.5064 454.209 14.3636 454.209 9.25322C454.209 4.14281 450.058 0 444.937 0C439.816 0 435.664 4.14281 435.664 9.25322C435.664 14.3636 439.816 18.5064 444.937 18.5064Z" fill="#201D1D"/>
<path d="M275.878 83.5901H258.039L265.374 66.6025L246.361 22.6018H264.288L273.977 46.7276L284.387 22.6018H302.314L275.873 83.5901H275.878Z" fill="#201D1D"/>
<path d="M225.078 21.2073C211.483 21.2073 200.314 30.9115 200.314 45.2864C200.314 59.6613 211.478 69.2774 225.078 69.2774C236.143 69.2774 245.55 62.4969 248.35 51.9373H232.195C230.782 54.7003 228.361 56.3385 225.083 56.3385C220.761 56.3385 217.878 53.6428 216.797 49.3299H248.761V46.1832C248.672 30.191 238.584 21.2021 225.078 21.2021V21.2073ZM216.974 40.0766C218.236 36.4842 221.296 34.3277 225.078 34.3277C228.408 34.3277 231.291 36.2146 232.46 40.0766H216.974Z" fill="#201D1D"/>
<path d="M327.009 10.5129H310.173V22.5551H303.238V35.6755H310.173V51.1286C310.173 62.5383 316.656 69.2773 328.542 69.2773C332.563 69.2773 336.667 68.4376 339.077 67.4993V53.2851C337.544 54.0938 334.303 54.721 332.412 54.721C328.989 54.721 327.009 53.1918 327.009 49.2417V35.6755H339.077V22.5551H327.009V10.5129Z" fill="#201D1D"/>
<path d="M559.911 22.5551H543.251V25.7898C540.191 22.8246 535.869 21.2073 530.197 21.2073C517.683 21.2073 508.316 30.1909 508.316 43.1299C508.316 56.0688 517.683 65.3221 530.197 65.3221C535.869 65.3221 540.191 63.7047 543.251 60.7395V62.7146C543.251 69.1478 538.711 72.0248 533.256 72.0559C529.755 72.0352 526.675 71.1073 525.163 67.9969H509.283C511.215 79.3081 521.147 84.9949 533.256 84.9949C548.113 84.9949 559.999 77.2709 559.999 63.3418L559.911 22.5499V22.5551ZM534.114 52.3416C528.992 52.3416 524.841 48.1997 524.841 43.0884C524.841 37.9771 528.992 33.8352 534.114 33.8352C539.236 33.8352 543.386 37.9771 543.386 43.0884C543.386 48.1997 539.236 52.3416 534.114 52.3416Z" fill="#201D1D"/>
<path d="M120.273 21.2954C106.408 21.2954 94.793 30.9115 94.793 45.2864C94.793 59.6613 106.408 69.1892 120.273 69.1892C134.138 69.1892 145.754 59.5731 145.754 45.2864C145.754 30.9996 134.138 21.2954 120.273 21.2954ZM120.273 54.4981C115.151 54.4981 111.001 50.3562 111.001 45.2449C111.001 40.1336 115.151 35.9917 120.273 35.9917C125.395 35.9917 129.546 40.1336 129.546 45.2449C129.546 50.3562 125.395 54.4981 120.273 54.4981Z" fill="#201D1D"/>
<path d="M368.33 21.2954C354.465 21.2954 342.85 30.9115 342.85 45.2864C342.85 59.6613 354.465 69.1892 368.33 69.1892C382.195 69.1892 393.81 59.5731 393.81 45.2864C393.81 30.9996 382.195 21.2954 368.33 21.2954ZM368.33 54.4981C363.208 54.4981 359.057 50.3562 359.057 45.2449C359.057 40.1336 363.208 35.9917 368.33 35.9917C373.452 35.9917 377.603 40.1336 377.603 45.2449C377.603 50.3562 373.452 54.4981 368.33 54.4981Z" fill="#201D1D"/>
<path d="M18.7418 7.698H37.391L45.9467 41.4969L54.5077 7.698H73.1569L90.0035 67.9294H72.2582L62.7985 33.5915L54.1493 67.9294H37.7546L29.1053 33.5915L19.6457 67.9294H1.90039L18.7418 7.698Z" fill="#201D1D"/>
<path d="M0 46.0068H91.9004V59.5886H0V46.0068Z" fill="#201D1D"/>
</g>
<defs>
<clipPath id="clip0_6320_1505">
<rect width="560" height="85" fill="white"/>
</clipPath>
</defs>
</svg>
