<svg width="18" height="18" viewBox="0 0 18 18" fill="none" xmlns="http://www.w3.org/2000/svg">
<path d="M5.25 12.75H7.5C7.7125 12.75 7.89062 12.8219 8.03438 12.9656C8.17813 13.1094 8.25 13.2875 8.25 13.5C8.25 13.7125 8.17813 13.8906 8.03438 14.0344C7.89062 14.1781 7.7125 14.25 7.5 14.25H4.5C4.2875 14.25 4.10938 14.1781 3.96563 14.0344C3.82188 13.8906 3.75 13.7125 3.75 13.5V10.5C3.75 10.2875 3.82188 10.1094 3.96563 9.96563C4.10938 9.82188 4.2875 9.75 4.5 9.75C4.7125 9.75 4.89062 9.82188 5.03438 9.96563C5.17813 10.1094 5.25 10.2875 5.25 10.5V12.75ZM12.75 5.25H10.5C10.2875 5.25 10.1094 5.17813 9.96563 5.03438C9.82188 4.89062 9.75 4.7125 9.75 4.5C9.75 4.2875 9.82188 4.10938 9.96563 3.96563C10.1094 3.82188 10.2875 3.75 10.5 3.75H13.5C13.7125 3.75 13.8906 3.82188 14.0344 3.96563C14.1781 4.10938 14.25 4.2875 14.25 4.5V7.5C14.25 7.7125 14.1781 7.89062 14.0344 8.03438C13.8906 8.17813 13.7125 8.25 13.5 8.25C13.2875 8.25 13.1094 8.17813 12.9656 8.03438C12.8219 7.89062 12.75 7.7125 12.75 7.5V5.25Z" fill="#030B0D" fill-opacity="0.61"/>
</svg>
