<svg width="32" height="32" viewBox="0 0 32 32" fill="none" xmlns="http://www.w3.org/2000/svg">
<g id="mv.profile-source">
<g clip-path="url(#clip0_13041_341)">
<path id="Vector" d="M0 16C0 7.16344 7.16344 0 16 0C24.8366 0 32 7.16344 32 16C32 24.8366 24.8366 32 16 32C7.16344 32 0 24.8366 0 16Z" fill="#4196FD"/>
<g id="Vector_2" filter="url(#filter0_d_13041_341)">
<path d="M8.53329 24C8.01996 24 7.58051 23.8172 7.21496 23.4517C6.8494 23.0861 6.66663 22.6467 6.66663 22.1333V11.8667C6.66663 11.3533 6.8494 10.9139 7.21496 10.5483C7.58051 10.1828 8.01996 10 8.53329 10H12.2666V8.13333C12.2666 7.62 12.4494 7.18055 12.815 6.815C13.1805 6.44944 13.62 6.26666 14.1333 6.26666H17.8666C18.38 6.26666 18.8194 6.44944 19.185 6.815C19.5505 7.18055 19.7333 7.62 19.7333 8.13333V10H23.4666C23.98 10 24.4194 10.1828 24.785 10.5483C25.1505 10.9139 25.3333 11.3533 25.3333 11.8667V22.1333C25.3333 22.6467 25.1505 23.0861 24.785 23.4517C24.4194 23.8172 23.98 24 23.4666 24H8.53329ZM14.1333 10H17.8666V8.13333H14.1333V10Z" fill="#D0E3FE"/>
</g>
</g>
</g>
<defs>
<filter id="filter0_d_13041_341" x="4.66663" y="5.26666" width="22.6666" height="21.7333" filterUnits="userSpaceOnUse" color-interpolation-filters="sRGB">
<feFlood flood-opacity="0" result="BackgroundImageFix"/>
<feColorMatrix in="SourceAlpha" type="matrix" values="0 0 0 0 0 0 0 0 0 0 0 0 0 0 0 0 0 0 127 0" result="hardAlpha"/>
<feOffset dy="1"/>
<feGaussianBlur stdDeviation="1"/>
<feComposite in2="hardAlpha" operator="out"/>
<feColorMatrix type="matrix" values="0 0 0 0 0 0 0 0 0 0 0 0 0 0 0 0 0 0 0.16 0"/>
<feBlend mode="normal" in2="BackgroundImageFix" result="effect1_dropShadow_13041_341"/>
<feBlend mode="normal" in="SourceGraphic" in2="effect1_dropShadow_13041_341" result="shape"/>
</filter>
<clipPath id="clip0_13041_341">
<path d="M0 16C0 7.16344 7.16344 0 16 0C24.8366 0 32 7.16344 32 16C32 24.8366 24.8366 32 16 32C7.16344 32 0 24.8366 0 16Z" fill="white"/>
</clipPath>
</defs>
</svg>
