<svg width="24" height="24" viewBox="0 0 24 24" fill="none" xmlns="http://www.w3.org/2000/svg">
<g clip-path="url(#clip0_10137_35752)">
<rect width="24" height="24" fill="#68BEF6"/>
<g filter="url(#filter0_d_10137_35752)">
<path d="M4.99383 11.8959C4.99383 11.8959 10.9938 9.43349 13.0747 8.56642C13.8724 8.21962 16.5776 7.10976 16.5776 7.10976C16.5776 7.10976 17.8262 6.62424 17.7221 7.80341C17.6874 8.28898 17.41 9.98837 17.1325 11.8265C16.7163 14.4277 16.2655 17.2716 16.2655 17.2716C16.2655 17.2716 16.1961 18.0693 15.6065 18.208C15.0169 18.3468 14.0458 17.7225 13.8724 17.5837C13.7337 17.4797 11.2713 15.919 10.3695 15.156C10.1268 14.9479 9.84932 14.5318 10.4042 14.0462C11.6528 12.9017 13.1441 11.4797 14.0458 10.578C14.462 10.1618 14.8782 9.19071 13.1441 10.3699C10.6817 12.0693 8.25394 13.6647 8.25394 13.6647C8.25394 13.6647 7.69901 14.0115 6.65857 13.6993C5.61807 13.3872 4.4042 12.971 4.4042 12.971C4.4042 12.971 3.57188 12.4508 4.99383 11.8959Z" fill="#F1F6FF"/>
</g>
</g>
<defs>
<filter id="filter0_d_10137_35752" x="0.162109" y="4.01074" width="21.5664" height="19.2173" filterUnits="userSpaceOnUse" color-interpolation-filters="sRGB">
<feFlood flood-opacity="0" result="BackgroundImageFix"/>
<feColorMatrix in="SourceAlpha" type="matrix" values="0 0 0 0 0 0 0 0 0 0 0 0 0 0 0 0 0 0 127 0" result="hardAlpha"/>
<feOffset dy="1"/>
<feGaussianBlur stdDeviation="2"/>
<feComposite in2="hardAlpha" operator="out"/>
<feColorMatrix type="matrix" values="0 0 0 0 0 0 0 0 0 0 0 0 0 0 0 0 0 0 0.08 0"/>
<feBlend mode="normal" in2="BackgroundImageFix" result="effect1_dropShadow_10137_35752"/>
<feBlend mode="normal" in="SourceGraphic" in2="effect1_dropShadow_10137_35752" result="shape"/>
</filter>
<clipPath id="clip0_10137_35752">
<path d="M0 12C0 5.37258 5.37258 0 12 0C18.6274 0 24 5.37258 24 12C24 18.6274 18.6274 24 12 24C5.37258 24 0 18.6274 0 12Z" fill="white"/>
</clipPath>
</defs>
</svg>
