<svg width="24" height="24" viewBox="0 0 24 24" fill="none" xmlns="http://www.w3.org/2000/svg">
<g clip-path="url(#clip0_10137_35750)">
<rect width="24" height="24" fill="#08D1A0"/>
<g filter="url(#filter0_d_10137_35750)">
<path fill-rule="evenodd" clip-rule="evenodd" d="M7 5C7 4.44772 7.44772 4 8 4H16C16.5523 4 17 4.44772 17 5V19C17 19.5523 16.5523 20 16 20H13V18H11V20H8C7.44772 20 7 19.5523 7 19V5ZM9 16H11V14H9V16ZM9 12H11V10H9V12ZM9 8H11V6H9V8ZM13 16H15V14H13V16ZM13 12H15V10H13V12ZM13 8H15V6H13V8Z" fill="#DFFBEF"/>
</g>
</g>
<defs>
<filter id="filter0_d_10137_35750" x="5" y="3" width="14" height="20" filterUnits="userSpaceOnUse" color-interpolation-filters="sRGB">
<feFlood flood-opacity="0" result="BackgroundImageFix"/>
<feColorMatrix in="SourceAlpha" type="matrix" values="0 0 0 0 0 0 0 0 0 0 0 0 0 0 0 0 0 0 127 0" result="hardAlpha"/>
<feOffset dy="1"/>
<feGaussianBlur stdDeviation="1"/>
<feComposite in2="hardAlpha" operator="out"/>
<feColorMatrix type="matrix" values="0 0 0 0 0 0 0 0 0 0 0 0 0 0 0 0 0 0 0.16 0"/>
<feBlend mode="normal" in2="BackgroundImageFix" result="effect1_dropShadow_10137_35750"/>
<feBlend mode="normal" in="SourceGraphic" in2="effect1_dropShadow_10137_35750" result="shape"/>
</filter>
<clipPath id="clip0_10137_35750">
<path d="M0 12C0 5.37258 5.37258 0 12 0C18.6274 0 24 5.37258 24 12C24 18.6274 18.6274 24 12 24C5.37258 24 0 18.6274 0 12Z" fill="white"/>
</clipPath>
</defs>
</svg>
