<svg width="18" height="18" viewBox="0 0 18 18" fill="none" xmlns="http://www.w3.org/2000/svg">
<path d="M2.06248 13.3129C1.89998 13.1504 1.81873 12.9629 1.81873 12.7504C1.81873 12.5379 1.89998 12.3504 2.06248 12.1879L6.05623 8.19414C6.34373 7.90664 6.69998 7.76289 7.12498 7.76289C7.54998 7.76289 7.90623 7.90664 8.19373 8.19414L10.125 10.1254L14.925 4.70664C15.0625 4.54414 15.2406 4.46289 15.4594 4.46289C15.6781 4.46289 15.8625 4.53789 16.0125 4.68789C16.15 4.82539 16.2219 4.99102 16.2281 5.18477C16.2344 5.37852 16.1687 5.55039 16.0312 5.70039L11.175 11.1754C10.8875 11.5004 10.5312 11.6723 10.1062 11.691C9.68123 11.7098 9.31248 11.5629 8.99998 11.2504L7.12498 9.37539L3.18748 13.3129C3.02498 13.4754 2.83748 13.5566 2.62498 13.5566C2.41248 13.5566 2.22498 13.4754 2.06248 13.3129Z" fill="#030B0D" fill-opacity="0.61"/>
</svg>
