<svg width="18" height="18" viewBox="0 0 18 18" fill="none" xmlns="http://www.w3.org/2000/svg">
<path d="M5.25 14.25V13.5H4.5C4.2875 13.5 4.10938 13.4281 3.96563 13.2844C3.82188 13.1406 3.75 12.9625 3.75 12.75V5.25C3.75 5.0375 3.82188 4.85938 3.96563 4.71563C4.10938 4.57188 4.2875 4.5 4.5 4.5H5.25V3.75C5.25 3.5375 5.32188 3.35938 5.46563 3.21563C5.60938 3.07188 5.7875 3 6 3C6.2125 3 6.39062 3.07188 6.53438 3.21563C6.67813 3.35938 6.75 3.5375 6.75 3.75V4.5H7.5C7.7125 4.5 7.89062 4.57188 8.03438 4.71563C8.17813 4.85938 8.25 5.0375 8.25 5.25V12.75C8.25 12.9625 8.17813 13.1406 8.03438 13.2844C7.89062 13.4281 7.7125 13.5 7.5 13.5H6.75V14.25C6.75 14.4625 6.67813 14.6406 6.53438 14.7844C6.39062 14.9281 6.2125 15 6 15C5.7875 15 5.60938 14.9281 5.46563 14.7844C5.32188 14.6406 5.25 14.4625 5.25 14.25ZM11.25 14.25V11.25H10.5C10.2875 11.25 10.1094 11.1781 9.96563 11.0344C9.82188 10.8906 9.75 10.7125 9.75 10.5V6.75C9.75 6.5375 9.82188 6.35938 9.96563 6.21563C10.1094 6.07188 10.2875 6 10.5 6H11.25V3.75C11.25 3.5375 11.3219 3.35938 11.4656 3.21563C11.6094 3.07188 11.7875 3 12 3C12.2125 3 12.3906 3.07188 12.5344 3.21563C12.6781 3.35938 12.75 3.5375 12.75 3.75V6H13.5C13.7125 6 13.8906 6.07188 14.0344 6.21563C14.1781 6.35938 14.25 6.5375 14.25 6.75V10.5C14.25 10.7125 14.1781 10.8906 14.0344 11.0344C13.8906 11.1781 13.7125 11.25 13.5 11.25H12.75V14.25C12.75 14.4625 12.6781 14.6406 12.5344 14.7844C12.3906 14.9281 12.2125 15 12 15C11.7875 15 11.6094 14.9281 11.4656 14.7844C11.3219 14.6406 11.25 14.4625 11.25 14.25Z" fill="#030B0D" fill-opacity="0.61"/>
</svg>
