<svg width="128" height="14" viewBox="0 0 128 14" fill="none" xmlns="http://www.w3.org/2000/svg">
<path d="M0.888672 13.7891V3.57617H2.31055V4.7793H2.43359C2.69336 4.31445 3.19238 3.48047 4.56641 3.48047C6.36426 3.48047 7.68359 4.88867 7.68359 7.30859C7.68359 9.70117 6.37793 11.1436 4.58008 11.1504C3.2334 11.1436 2.7002 10.3232 2.43359 9.83789H2.35156V13.7891H0.888672ZM2.32422 7.28125C2.32422 8.83984 3.00781 9.89941 4.25195 9.90625C5.53711 9.89941 6.20703 8.77148 6.20703 7.28125C6.20703 5.81836 5.55762 4.71777 4.25195 4.72461C2.99414 4.71777 2.32422 5.73633 2.32422 7.28125ZM12.3137 11.1504C10.2083 11.1504 8.83425 9.61914 8.84109 7.32227C8.83425 5.01172 10.2083 3.48047 12.3137 3.48047C14.4055 3.48047 15.7727 5.01172 15.7727 7.32227C15.7727 9.61914 14.4055 11.1504 12.3137 11.1504ZM10.304 7.32227C10.304 8.7373 10.9534 9.93359 12.3137 9.93359C13.6536 9.93359 14.2962 8.7373 14.2962 7.32227C14.2962 5.90039 13.6536 4.69043 12.3137 4.68359C10.9534 4.69043 10.304 5.90039 10.304 7.32227ZM18.6119 11L16.438 3.57617H17.9419L19.3912 9.01758H19.4732L20.9224 3.57617H22.4263L23.8619 8.99023H23.9439L25.3794 3.57617H26.8833L24.7095 11H23.2193L21.7154 5.6543H21.606L20.1158 11H18.6119ZM31.0897 11.1504C28.9022 11.1504 27.5555 9.63965 27.5623 7.33594C27.5555 5.05273 28.9227 3.48047 30.994 3.48047C32.6824 3.48047 34.2889 4.52637 34.2889 7.21289V7.73242H29.0115C29.0526 9.14746 29.8865 9.94727 31.1033 9.94727C31.9305 9.94727 32.4705 9.5918 32.7166 9.14062H34.1932C33.8651 10.3438 32.7235 11.1504 31.0897 11.1504ZM29.0184 6.63867H32.8533C32.8533 5.51074 32.1219 4.67676 31.0076 4.68359C29.8387 4.67676 29.0799 5.59277 29.0184 6.63867ZM35.7745 11V3.57617H37.1827V4.75195H37.2647C37.5382 3.95898 38.2833 3.45996 39.1515 3.4668C39.3292 3.45996 39.6163 3.48047 39.7667 3.49414V4.88867C39.6436 4.86133 39.3018 4.7998 39.0011 4.80664C37.9893 4.7998 37.2374 5.50391 37.2374 6.47461V11H35.7745ZM43.85 11.1504C41.6625 11.1504 40.3158 9.63965 40.3226 7.33594C40.3158 5.05273 41.683 3.48047 43.7543 3.48047C45.4427 3.48047 47.0492 4.52637 47.0492 7.21289V7.73242H41.7718C41.8129 9.14746 42.6468 9.94727 43.8636 9.94727C44.6908 9.94727 45.2308 9.5918 45.4769 9.14062H46.9535C46.6254 10.3438 45.4838 11.1504 43.85 11.1504ZM41.7787 6.63867H45.6136C45.6136 5.51074 44.8822 4.67676 43.7679 4.68359C42.599 4.67676 41.8402 5.59277 41.7787 6.63867ZM51.3102 11.1504C49.5192 11.1436 48.2067 9.70117 48.2067 7.30859C48.2067 4.88867 49.5397 3.48047 51.3239 3.48047C52.7047 3.48047 53.2038 4.31445 53.4704 4.7793H53.5387V1.10156H55.0016V11H53.5797V9.83789H53.4704C53.1969 10.3232 52.6637 11.1436 51.3102 11.1504ZM49.6969 7.28125C49.6901 8.77148 50.36 9.89941 51.6383 9.90625C52.8825 9.89941 53.5797 8.83984 53.5797 7.28125C53.5797 5.73633 52.8961 4.71777 51.6383 4.72461C50.3463 4.71777 49.6901 5.81836 49.6969 7.28125ZM60.5158 11V1.10156H61.965V4.7793H62.0471C62.3137 4.31445 62.8058 3.48047 64.1799 3.48047C65.9777 3.48047 67.3039 4.88867 67.3107 7.30859C67.3039 9.70117 65.9914 11.1436 64.1935 11.1504C62.8469 11.1436 62.3205 10.3232 62.0471 9.83789H61.9377V11H60.5158ZM61.9377 7.28125C61.9377 8.83984 62.6349 9.89941 63.8654 9.90625C65.1506 9.89941 65.8205 8.77148 65.8205 7.28125C65.8205 5.81836 65.1711 4.71777 63.8654 4.72461C62.6144 4.71777 61.9377 5.73633 61.9377 7.28125ZM69.4389 13.7891C69.1381 13.7822 68.8442 13.7754 68.6596 13.748V12.5312C68.8237 12.5449 69.1108 12.5518 69.3159 12.5586C69.7671 12.5518 70.143 12.5244 70.4917 11.5879L70.6694 11.0957L67.9487 3.57617H69.5073L71.3803 9.33203H71.4624L73.3354 3.57617H74.9077L71.8452 11.9844C71.4145 13.1602 70.6626 13.7822 69.4389 13.7891ZM83.252 7.56836H85.0156L85.7676 8.53223C86.2393 7.98535 86.5127 7.14453 86.5059 6.05078C86.5127 3.93164 85.501 2.79004 83.9766 2.7832C82.4385 2.79004 81.4336 3.93164 81.4336 6.05078C81.4336 8.16309 82.4385 9.31152 83.9766 9.31836C84.1748 9.31836 84.3662 9.29785 84.544 9.25684L83.252 7.56836ZM79.3418 6.05078C79.3418 2.81738 81.3379 0.964844 83.9766 0.964844C86.5947 0.964844 88.5977 2.81738 88.5977 6.05078C88.5977 7.82129 87.9961 9.1748 87.0254 10.043L88.4336 11.8203H86.5059L85.7129 10.8359C85.1797 11.0342 84.5918 11.1367 83.9766 11.1367C81.3379 11.1367 79.3418 9.27051 79.3418 6.05078ZM94.8411 7.8418V3.57617H96.8645V11H94.9231V9.66016H94.8411C94.5061 10.5215 93.7063 11.0957 92.5852 11.0957C91.1018 11.0957 90.0833 10.043 90.0833 8.30664V3.57617H92.1067V7.95117C92.1067 8.83301 92.6126 9.37988 93.4055 9.38672C94.1438 9.37988 94.8411 8.85352 94.8411 7.8418ZM98.1177 8.92188C98.1246 7.26758 99.4507 6.72754 100.879 6.63867C101.413 6.60449 102.411 6.55664 102.725 6.54297V5.94141C102.718 5.31934 102.294 4.96387 101.536 4.95703C100.845 4.96387 100.415 5.27148 100.305 5.77734H98.3775C98.5005 4.49219 99.6216 3.48047 101.59 3.48047C103.211 3.48047 104.742 4.20508 104.735 5.99609V11H102.821V9.97461H102.766C102.404 10.6582 101.693 11.1436 100.592 11.1367C99.1705 11.1436 98.1246 10.3916 98.1177 8.92188ZM100.059 8.86719C100.059 9.43457 100.517 9.73535 101.167 9.74219C102.089 9.73535 102.732 9.13379 102.725 8.34766V7.80762C102.418 7.82129 101.549 7.86914 101.208 7.89648C100.503 7.95801 100.059 8.29297 100.059 8.86719ZM108.34 6.70703V11H106.316V3.57617H108.244V4.875H108.326C108.661 4.02051 109.454 3.48047 110.555 3.48047C112.106 3.48047 113.118 4.54004 113.111 6.26953V11H111.101V6.625C111.095 5.70898 110.602 5.16211 109.762 5.16211C108.921 5.16211 108.34 5.72949 108.34 6.70703ZM118.63 3.57617V5.09375H117.235V8.7168C117.229 9.31152 117.523 9.45508 117.933 9.46875C118.138 9.46875 118.493 9.44824 118.739 9.42773V11.0273C118.521 11.0615 118.158 11.1025 117.659 11.0957C116.196 11.1025 115.198 10.4463 115.212 9.00391V5.09375H114.187V3.57617H115.212V1.79883H117.235V3.57617H118.63ZM119.938 11V3.57617H121.961V11H119.938ZM119.842 1.58008C119.842 1.00586 120.341 0.547852 120.95 0.541016C121.551 0.547852 122.05 1.00586 122.043 1.58008C122.05 2.14062 121.551 2.60547 120.95 2.60547C120.341 2.60547 119.842 2.14062 119.842 1.58008ZM127.48 3.57617V5.09375H126.086V8.7168C126.079 9.31152 126.373 9.45508 126.783 9.46875C126.988 9.46875 127.343 9.44824 127.59 9.42773V11.0273C127.371 11.0615 127.008 11.1025 126.509 11.0957C125.047 11.1025 124.048 10.4463 124.062 9.00391V5.09375H123.037V3.57617H124.062V1.79883H126.086V3.57617H127.48Z" fill="#021215" fill-opacity="0.21"/>
</svg>
