<svg width="500" height="500" viewBox="0 0 500 500" fill="none" xmlns="http://www.w3.org/2000/svg">
<rect width="500" height="500" fill="#E1002A"/>
<path d="M203.788 159.28C190.033 161.8 169.633 173.951 169.695 195.424C169.747 214.917 186.146 226.737 186.197 252.305C186.28 271.528 175.386 284.468 163.6 291.653C168.368 291.239 173.572 290.969 179.314 290.959C191.36 290.928 198.616 292.047 199.061 292.12L260.8 218.463C245.15 195.757 225.892 175.766 203.788 159.28Z" fill="white"/>
<path d="M256.121 359.08C263.892 347.255 264.865 328.418 265.527 309.227C266.252 291.339 270.07 277.868 294.532 277.784C299.954 277.763 305.117 278.503 314.461 278.472C350.295 278.316 373.691 266.241 388.24 258.312C358.511 239.767 315.113 220.805 261.264 218.68C257.746 228.369 230.47 302.632 228.4 308.623C228.71 308.988 233.491 314.228 239.462 324.459C246.274 335.338 251.861 346.956 256.121 359.08Z" fill="white"/>
<path d="M125.378 298.31C122.249 298.331 120.7 296.311 120.264 292.792C119.869 289.304 104.39 151.408 102.072 130.534C101.75 127.483 100.97 121.892 100.96 119.893C100.96 116.687 103.101 115 105.638 115C112.977 114.969 152.956 124.089 195.378 153.043C183.153 156.395 161.043 168.774 161.147 194.406C161.22 217.092 177.904 229.575 177.987 252.334C178.122 289.346 134.432 298.3 125.378 298.31ZM259.692 368.773C260.357 370.491 260.981 371.928 261.615 372.937C262.592 374.551 263.86 375.29 265.419 375.28C266.646 375.204 267.847 374.889 268.954 374.353C272.218 372.896 401.49 314.312 420.98 305.556C423.808 304.234 429.161 301.902 430.929 300.892C432.758 299.882 433.6 298.393 433.6 296.884C433.586 296.007 433.327 295.152 432.852 294.416C430.409 290.574 417.904 277.654 396.989 263.537C380.398 272.428 354.473 286.191 315.908 286.347C306.448 286.347 304.317 285.744 297.862 285.764C279.037 285.827 274.338 293.677 273.642 309.741C273.538 312.771 273.475 316.852 273.299 321.34C272.706 335.707 270.96 355.509 259.681 368.773H259.692Z" fill="white"/>
</svg>
