<svg width="500" height="500" viewBox="0 0 500 500" fill="none" xmlns="http://www.w3.org/2000/svg">
<g clip-path="url(#clip0_30_10)">
<rect width="500" height="500" fill="white"/>
<g clip-path="url(#clip1_30_10)">
<path d="M0 0H500V500H0V0Z" fill="#093185"/>
<path d="M65.0638 236.75V275C65.0638 284.35 73.5104 292 83.834 292H107.723V279.42H90.8302C89.6893 279.467 88.5509 279.28 87.4851 278.872C86.4194 278.463 85.4489 277.842 84.6336 277.045C83.8182 276.249 83.1752 275.295 82.7442 274.241C82.3132 273.188 82.1034 272.057 82.1277 270.92V236.75H107.723V224H82.1277V190L65.0638 198.755V224H52.6072L48 236.75H65.0638ZM119.668 236.75L132.466 224H165.058C176.917 224 184.511 233.52 184.511 245.25V270.75C184.511 276.386 182.263 281.791 178.263 285.776C174.263 289.761 168.838 292 163.181 292H137.585C131.928 292 126.503 289.761 122.503 285.776C118.503 281.791 116.255 276.386 116.255 270.75C116.255 265.114 118.503 259.709 122.503 255.724C126.503 251.739 131.928 249.5 137.585 249.5H167.447V240.915C167.447 238.535 165.058 236.75 162.754 236.75H119.668ZM140.998 262.25C136.732 262.25 133.319 266.075 133.319 270.75C133.319 275.425 136.732 279.25 140.998 279.25H158.659C165.058 279.25 167.447 275.34 167.447 268.285V262.25H140.998ZM307.37 236.75L320.168 224H352.76C364.619 224 372.213 233.52 372.213 245.25V270.75C372.213 276.386 369.966 281.791 365.965 285.776C361.965 289.761 356.54 292 350.883 292H325.287C319.63 292 314.205 289.761 310.205 285.776C306.205 281.791 303.957 276.386 303.957 270.75C303.957 265.114 306.205 259.709 310.205 255.724C314.205 251.739 319.63 249.5 325.287 249.5H355.149V240.915C355.149 238.535 352.76 236.75 350.456 236.75H307.37ZM328.7 262.25C324.434 262.25 321.021 266.075 321.021 270.75C321.021 275.425 324.434 279.25 328.7 279.25H346.361C352.76 279.25 355.149 275.34 355.149 268.285V262.25H328.7ZM406.34 224C399.552 224 393.042 226.687 388.242 231.469C383.441 236.251 380.745 242.737 380.745 249.5V292H397.809V247.8C397.809 241.68 402.757 236.75 408.9 236.75H420.845C426.988 236.75 431.936 241.68 431.936 247.8V292H449V249.5C449 242.737 446.303 236.251 441.503 231.469C436.703 226.687 430.193 224 423.404 224H406.34ZM244.234 190H227.17V292H244.234V236.75H268.977C274.608 236.75 278.362 241.85 278.362 246.355V292H295.426V239.555C295.426 232.585 289.112 224 280.239 224H244.234V190ZM193.043 233.35L210.106 224V292H193.043V233.35Z" fill="white"/>
<path d="M190 200.2L207 190V224H190V200.2Z" fill="#ED1B23"/>
</g>
</g>
<defs>
<clipPath id="clip0_30_10">
<rect width="500" height="500" fill="white"/>
</clipPath>
<clipPath id="clip1_30_10">
<rect width="500" height="500" fill="white"/>
</clipPath>
</defs>
</svg>
