<svg width="500" height="500" viewBox="0 0 500 500" fill="none" xmlns="http://www.w3.org/2000/svg">
<rect width="500" height="500" fill="#295DA4"/>
<path d="M442 249.994C442 260.824 437.033 271.547 427.385 281.552C417.736 291.557 403.593 300.647 385.764 308.304C367.936 315.963 346.769 322.036 323.475 326.181C300.18 330.324 275.214 332.458 250 332.458C199.078 332.458 150.243 323.77 114.235 308.304C78.2285 292.84 58 271.865 58 249.994C58 228.124 78.2285 207.149 114.235 191.684C150.243 176.219 199.078 167.531 250 167.531C300.922 167.531 349.757 176.219 385.764 191.684C421.772 207.149 442 228.124 442 249.994ZM260.993 255.326C260.855 255.429 260.788 255.396 260.79 255.226C260.852 247.65 260.87 240.772 260.842 234.591C260.838 234.069 261.058 233.626 261.392 233.265C266.502 227.738 271.096 221.499 274.486 214.732C276.513 210.687 277.838 206.806 278.458 203.09C279.959 194.092 277.462 186.092 270.189 180.362C265.383 176.576 259.269 174.316 253.091 173.086C247.522 171.975 241.726 171.444 235.702 171.492C219.454 171.62 203.057 174.851 187.248 179.795C166.983 186.13 147.82 194.987 129.763 206.367C118.007 213.777 106.743 222.467 97.2753 232.296C90.7964 239.019 84.9806 246.508 81.0402 254.766C75.884 265.577 74.8774 278.064 84.5477 286.838C91.851 293.46 102.73 295.824 112.315 296.538C118.917 297.034 125.922 296.891 133.329 296.112C152.961 294.045 173.36 288.02 192.009 280.005C193.12 279.526 193.072 279.32 191.865 279.387C191.366 279.412 190.816 279.453 190.216 279.51C190.149 279.516 190.08 279.507 190.018 279.479C189.956 279.453 189.9 279.411 189.858 279.358C189.816 279.304 189.789 279.242 189.777 279.174C189.766 279.107 189.772 279.039 189.794 278.974L209.746 220.558C209.795 220.412 209.889 220.286 210.014 220.196C210.138 220.107 210.29 220.059 210.443 220.06L222.366 220.084C222.635 220.084 222.774 220.217 222.786 220.486L224.022 249.586C224.032 249.808 224.079 249.816 224.164 249.614L236.462 220.51C236.518 220.377 236.612 220.263 236.732 220.184C236.853 220.104 236.994 220.062 237.138 220.064L248.77 220.08C248.853 220.08 248.932 220.113 248.991 220.172C249.05 220.23 249.083 220.31 249.083 220.392V278.885C249.083 279.226 249.254 279.396 249.594 279.396L261.395 279.404C261.486 279.404 261.576 279.377 261.653 279.326C261.73 279.274 261.791 279.201 261.827 279.116C265.923 269.471 269.937 259.947 273.872 250.541C273.952 250.348 274.095 250.244 274.301 250.228C274.335 250.226 274.37 250.23 274.402 250.242C274.434 250.254 274.464 250.272 274.488 250.296C274.514 250.32 274.533 250.349 274.545 250.382C274.558 250.414 274.564 250.448 274.562 250.482C274.521 251.297 274.515 252.074 274.545 252.812C274.868 261.23 275.243 269.98 275.672 279.06C275.675 279.15 275.714 279.237 275.78 279.299C275.846 279.362 275.934 279.396 276.026 279.396H288.21C288.273 279.398 288.333 279.377 288.383 279.341C288.434 279.305 288.472 279.254 288.492 279.194L308.558 220.482C308.57 220.445 308.573 220.406 308.567 220.367C308.562 220.328 308.547 220.292 308.524 220.259C308.501 220.227 308.471 220.202 308.436 220.184C308.402 220.166 308.363 220.156 308.324 220.156L296.414 220.152C296.314 220.152 296.216 220.184 296.135 220.241C296.054 220.3 295.992 220.382 295.96 220.475C292.347 230.891 288.706 241.346 285.04 251.84C284.907 252.213 284.739 252.586 284.535 252.959C284.368 253.264 284.277 253.242 284.264 252.894C284.177 250.75 284.466 248.624 284.463 246.446C284.458 237.816 284.453 229.168 284.448 220.499C284.448 220.41 284.414 220.325 284.351 220.263C284.289 220.199 284.205 220.163 284.116 220.163L274.86 220.145C274.721 220.145 274.583 220.188 274.468 220.268C274.353 220.348 274.265 220.461 274.215 220.592C269.525 232.971 265.278 244.31 261.477 254.608C261.356 254.936 261.195 255.174 260.993 255.326ZM332.357 253.866L328.3 279.143C328.295 279.176 328.298 279.209 328.306 279.242C328.316 279.274 328.332 279.304 328.354 279.329C328.376 279.354 328.402 279.375 328.433 279.389C328.463 279.404 328.497 279.411 328.53 279.411L339.791 279.396C339.843 279.396 339.892 279.378 339.932 279.344C339.971 279.31 339.999 279.263 340.007 279.212L349.674 220.49C349.71 220.264 349.616 220.152 349.389 220.152H337.984C337.918 220.152 337.853 220.176 337.804 220.22C337.754 220.263 337.72 220.323 337.709 220.39L334.146 242.564C334.132 242.652 334.086 242.733 334.019 242.79C333.951 242.849 333.864 242.88 333.776 242.88H323.027C322.986 242.88 322.946 242.871 322.908 242.854C322.872 242.837 322.839 242.812 322.814 242.782C322.787 242.751 322.768 242.715 322.757 242.676C322.746 242.637 322.745 242.597 322.752 242.558L326.39 220.486C326.397 220.445 326.394 220.403 326.384 220.364C326.373 220.324 326.354 220.288 326.326 220.256C326.3 220.224 326.266 220.199 326.229 220.182C326.19 220.164 326.15 220.156 326.108 220.156H314.714C314.642 220.156 314.572 220.181 314.517 220.228C314.463 220.275 314.426 220.34 314.415 220.41L310.893 242.406C310.871 242.544 310.8 242.67 310.694 242.762C310.586 242.853 310.45 242.902 310.31 242.901L303.353 242.849C303.308 242.849 303.262 242.861 303.222 242.884C303.183 242.907 303.15 242.94 303.128 242.98C303.106 243.021 303.095 243.066 303.096 243.112C303.098 243.158 303.112 243.202 303.136 243.24C305.111 246.333 307.06 249.352 308.984 252.299C309.478 253.055 309.083 253.732 308.96 254.516C307.642 262.646 306.342 270.838 305.061 279.094C305.055 279.132 305.057 279.171 305.067 279.208C305.078 279.244 305.097 279.279 305.122 279.308C305.147 279.336 305.178 279.359 305.213 279.376C305.248 279.392 305.286 279.4 305.325 279.4L316.499 279.407C316.553 279.407 316.605 279.388 316.646 279.353C316.686 279.318 316.714 279.27 316.724 279.219L320.903 253.784C320.928 253.635 321.017 253.56 321.168 253.56L332.103 253.568C332.14 253.568 332.177 253.575 332.211 253.59C332.244 253.606 332.274 253.63 332.298 253.658C332.322 253.686 332.34 253.72 332.351 253.756C332.361 253.792 332.363 253.829 332.357 253.866ZM367.744 220.149C367.68 220.149 367.618 220.168 367.565 220.203C367.512 220.239 367.472 220.289 367.448 220.348L352.196 259.215C352.173 259.275 352.132 259.325 352.079 259.362C352.026 259.398 351.964 259.418 351.9 259.418L345.339 259.394C345.282 259.394 345.227 259.408 345.178 259.436C345.13 259.464 345.089 259.505 345.062 259.554C345.034 259.604 345.02 259.659 345.021 259.715C345.022 259.772 345.038 259.827 345.068 259.875L349.179 266.538C349.205 266.58 349.221 266.627 349.224 266.676C349.229 266.726 349.222 266.775 349.203 266.82L344.394 278.981C344.375 279.029 344.368 279.081 344.374 279.132C344.379 279.184 344.398 279.233 344.427 279.276C344.456 279.318 344.495 279.354 344.541 279.378C344.586 279.402 344.638 279.414 344.69 279.414L356.524 279.396C356.586 279.396 356.648 279.378 356.699 279.344C356.752 279.309 356.792 279.258 356.816 279.201L360.406 270.317C360.429 270.258 360.47 270.209 360.521 270.173C360.573 270.137 360.635 270.118 360.698 270.118L371.646 270.125C371.726 270.125 371.802 270.155 371.861 270.209C371.92 270.263 371.956 270.338 371.962 270.417L372.632 279.108C372.638 279.188 372.674 279.262 372.732 279.316C372.791 279.37 372.868 279.4 372.948 279.4H384.285C384.328 279.4 384.371 279.392 384.411 279.374C384.452 279.357 384.486 279.332 384.516 279.299C384.546 279.268 384.569 279.23 384.584 279.189C384.598 279.147 384.604 279.104 384.6 279.06L380.186 220.451C380.18 220.372 380.145 220.299 380.086 220.245C380.028 220.191 379.953 220.16 379.874 220.16L367.744 220.149ZM237.533 244.254C237.534 244.223 237.524 244.192 237.504 244.168C237.484 244.144 237.456 244.128 237.425 244.122C237.395 244.118 237.363 244.124 237.336 244.139C237.31 244.155 237.29 244.18 237.279 244.21L232.168 257.926C232.156 257.952 232.155 257.982 232.162 258.01C232.169 258.038 232.185 258.063 232.208 258.081C232.23 258.098 232.258 258.107 232.287 258.107C232.316 258.107 232.344 258.099 232.367 258.081L237.406 254.471L237.446 254.426L237.461 254.368L237.533 244.254ZM204.171 274.247L204.17 274.307L204.201 274.358L204.256 274.382L204.315 274.371L213.809 269.424L213.849 269.387L213.864 269.334L213.872 247.002C213.87 246.978 213.845 246.939 213.845 246.939C213.845 246.939 213.808 246.91 213.784 246.906L213.717 246.918L213.672 246.971L204.171 274.247Z" fill="white"/>
<path d="M260.994 255.328C261.196 255.176 261.357 254.938 261.478 254.61C265.281 244.31 269.526 232.972 274.216 220.594C274.266 220.463 274.354 220.35 274.469 220.27C274.586 220.19 274.722 220.147 274.863 220.147L284.117 220.164C284.206 220.165 284.29 220.201 284.352 220.264C284.415 220.327 284.45 220.412 284.45 220.501C284.454 229.169 284.459 237.818 284.464 246.448C284.468 248.626 284.178 250.752 284.265 252.895C284.278 253.243 284.369 253.265 284.536 252.961C284.74 252.588 284.908 252.214 285.041 251.84C288.707 241.348 292.348 230.893 295.961 220.477C295.994 220.382 296.055 220.301 296.136 220.243C296.218 220.186 296.315 220.154 296.415 220.154L308.325 220.158C308.364 220.158 308.403 220.168 308.438 220.186C308.472 220.204 308.502 220.229 308.525 220.261C308.548 220.292 308.564 220.33 308.57 220.368C308.574 220.408 308.571 220.447 308.559 220.484L288.494 279.196C288.473 279.256 288.435 279.306 288.384 279.343C288.334 279.379 288.274 279.398 288.212 279.398H276.027C275.936 279.398 275.847 279.364 275.782 279.301C275.716 279.238 275.676 279.152 275.673 279.062C275.244 269.981 274.869 261.232 274.546 252.814C274.516 252.076 274.522 251.299 274.564 250.484C274.565 250.45 274.559 250.415 274.546 250.384C274.534 250.351 274.515 250.322 274.49 250.298C274.466 250.274 274.436 250.255 274.403 250.244C274.371 250.232 274.337 250.228 274.302 250.23C274.096 250.246 273.953 250.35 273.873 250.542C269.938 259.948 265.924 269.473 261.828 279.116C261.792 279.203 261.731 279.276 261.654 279.328C261.578 279.378 261.488 279.406 261.396 279.406L249.596 279.398C249.255 279.398 249.084 279.228 249.084 278.887V220.394C249.084 220.312 249.051 220.232 248.992 220.174C248.934 220.115 248.854 220.082 248.771 220.082L237.14 220.064C236.996 220.063 236.854 220.105 236.734 220.186C236.613 220.265 236.519 220.378 236.463 220.511L224.165 249.614C224.08 249.818 224.033 249.81 224.024 249.587L222.788 220.487C222.776 220.219 222.636 220.085 222.368 220.085L210.444 220.061C210.291 220.061 210.141 220.108 210.015 220.198C209.89 220.288 209.796 220.414 209.747 220.56L189.795 278.976C189.773 279.041 189.767 279.109 189.778 279.176C189.79 279.242 189.818 279.306 189.86 279.36C189.902 279.413 189.957 279.455 190.019 279.481C190.082 279.508 190.15 279.518 190.217 279.512C190.817 279.455 191.367 279.414 191.866 279.389C193.073 279.322 193.121 279.528 192.011 280.007C173.361 288.022 152.962 294.047 133.33 296.114C125.923 296.893 118.919 297.035 112.316 296.54C102.732 295.826 91.8524 293.462 84.5491 286.84C74.8787 278.065 75.8853 265.578 81.0417 254.767C84.9819 246.509 90.7978 239.021 97.2766 232.297C106.744 222.469 118.008 213.779 129.764 206.369C147.822 194.988 166.984 186.131 187.25 179.797C203.058 174.853 219.455 171.62 235.704 171.493C241.727 171.445 247.523 171.977 253.094 173.088C259.27 174.318 265.384 176.578 270.19 180.364C277.463 186.094 279.96 194.094 278.459 203.092C277.839 206.808 276.515 210.689 274.488 214.733C271.097 221.501 266.505 227.74 261.393 233.267C261.059 233.627 260.84 234.071 260.843 234.593C260.871 240.774 260.853 247.652 260.792 255.228C260.789 255.397 260.856 255.431 260.994 255.328ZM111.794 249.306C117.287 252.161 123.055 255.136 128.861 258.175C130.589 259.08 131.585 259.65 131.849 259.886C134.418 262.164 133.773 266.087 130.708 267.533C129.999 267.868 129.013 268.033 127.751 268.031C118.373 268.006 108.932 267.997 99.4306 268.003C99.3152 268.003 99.2026 268.038 99.1077 268.103C99.0127 268.166 98.9397 268.258 98.8981 268.364L94.6934 278.969C94.556 279.314 94.6739 279.488 95.0471 279.488C106.047 279.492 117.229 279.485 128.593 279.463C135.384 279.454 141.282 275.863 143.92 269.618C147.119 262.033 143.831 252.954 136.548 249.137C130.31 245.867 123.843 242.491 117.146 239.01C114.477 237.623 114.185 234.318 116.686 232.624C117.153 232.306 118.019 232.136 119.283 232.116C128.982 231.962 138.176 231.946 146.865 232.064C147.424 232.07 147.833 232.013 148.077 231.445C149.642 227.818 151.169 224.166 152.66 220.49C152.687 220.424 152.688 220.35 152.662 220.283C152.636 220.217 152.584 220.163 152.519 220.134C152.428 220.092 152.33 220.072 152.228 220.072C141.447 220.072 130.727 220.072 120.066 220.072C115.717 220.072 111.866 221.012 108.534 223.974C100.217 231.356 102.024 244.229 111.794 249.306ZM162.41 270.43C162.435 270.367 162.478 270.314 162.533 270.276C162.59 270.239 162.654 270.22 162.722 270.22H173.488C173.572 270.22 173.655 270.251 173.717 270.308C173.78 270.366 173.818 270.444 173.824 270.529L174.56 279.186C174.567 279.27 174.605 279.349 174.668 279.406C174.73 279.463 174.812 279.494 174.897 279.494L186.318 279.485C186.365 279.485 186.411 279.475 186.453 279.457C186.496 279.438 186.534 279.412 186.566 279.378C186.597 279.343 186.621 279.304 186.636 279.26C186.652 279.216 186.658 279.17 186.656 279.124L182.237 220.391C182.231 220.306 182.193 220.226 182.13 220.169C182.068 220.11 181.986 220.079 181.901 220.079L169.692 220.068C169.624 220.068 169.558 220.088 169.503 220.127C169.448 220.164 169.404 220.218 169.379 220.282L154.124 259.141C154.098 259.205 154.055 259.26 153.999 259.298C153.942 259.337 153.875 259.357 153.807 259.357L147.208 259.316C147.148 259.315 147.088 259.331 147.036 259.361C146.984 259.392 146.94 259.435 146.912 259.488C146.882 259.541 146.867 259.601 146.868 259.661C146.87 259.721 146.888 259.78 146.92 259.831L151.086 266.533C151.114 266.578 151.132 266.629 151.137 266.681C151.142 266.734 151.133 266.786 151.114 266.836L146.264 279.035C146.243 279.085 146.236 279.14 146.242 279.196C146.248 279.25 146.267 279.302 146.298 279.347C146.328 279.392 146.37 279.43 146.418 279.456C146.468 279.481 146.522 279.494 146.576 279.494L158.513 279.491C158.58 279.492 158.646 279.472 158.702 279.434C158.758 279.397 158.801 279.344 158.826 279.282L162.41 270.43Z" fill="#295DA4"/>
<path d="M128.861 258.173C123.056 255.132 117.288 252.158 111.795 249.303C102.025 244.226 100.218 231.353 108.535 223.971C111.867 221.01 115.718 220.068 120.067 220.068C130.727 220.068 141.448 220.068 152.228 220.068C152.331 220.068 152.428 220.09 152.52 220.131C152.585 220.16 152.637 220.214 152.663 220.281C152.69 220.348 152.688 220.422 152.661 220.488C151.169 224.164 149.643 227.816 148.078 231.443C147.834 232.01 147.425 232.068 146.865 232.061C138.177 231.942 128.983 231.959 119.284 232.113C118.02 232.133 117.154 232.304 116.687 232.622C114.186 234.315 114.478 237.62 117.147 239.008C123.843 242.488 130.311 245.865 136.55 249.135C143.832 252.951 147.119 262.03 143.921 269.615C141.284 275.861 135.384 279.45 128.593 279.461C117.23 279.482 106.048 279.49 95.048 279.485C94.6747 279.485 94.5567 279.312 94.6941 278.967L98.8989 268.361C98.9404 268.256 99.0135 268.164 99.1084 268.1C99.2035 268.036 99.316 268.001 99.4314 268.001C108.933 267.994 118.373 268.004 127.752 268.029C129.014 268.031 129.999 267.864 130.709 267.531C133.774 266.084 134.42 262.161 131.85 259.883C131.586 259.648 130.59 259.078 128.861 258.173Z" fill="white"/>
<path d="M162.406 270.424L158.823 279.277C158.798 279.339 158.755 279.392 158.698 279.429C158.643 279.466 158.577 279.487 158.51 279.487L146.572 279.489C146.518 279.489 146.464 279.476 146.415 279.451C146.367 279.424 146.325 279.387 146.295 279.343C146.264 279.297 146.244 279.244 146.238 279.19C146.232 279.135 146.24 279.08 146.26 279.029L151.11 266.83C151.13 266.782 151.138 266.728 151.133 266.677C151.128 266.624 151.11 266.573 151.083 266.528L146.917 259.826C146.884 259.775 146.866 259.717 146.865 259.655C146.864 259.595 146.878 259.535 146.908 259.483C146.937 259.43 146.98 259.387 147.033 259.357C147.084 259.325 147.144 259.31 147.204 259.311L153.803 259.352C153.872 259.353 153.939 259.331 153.995 259.293C154.052 259.255 154.095 259.199 154.12 259.136L169.376 220.276C169.401 220.214 169.444 220.16 169.499 220.121C169.556 220.083 169.62 220.062 169.689 220.062L181.898 220.073C181.983 220.073 182.064 220.106 182.127 220.163C182.189 220.221 182.228 220.301 182.234 220.385L186.652 279.118C186.654 279.165 186.649 279.211 186.633 279.255C186.619 279.298 186.593 279.339 186.562 279.373C186.531 279.406 186.492 279.433 186.449 279.452C186.407 279.47 186.362 279.479 186.315 279.479L174.893 279.489C174.808 279.49 174.726 279.458 174.664 279.401C174.602 279.344 174.563 279.265 174.556 279.181L173.82 270.524C173.814 270.439 173.776 270.361 173.714 270.303C173.651 270.245 173.57 270.214 173.485 270.214H162.718C162.651 270.214 162.586 270.235 162.53 270.272C162.474 270.309 162.431 270.362 162.406 270.424ZM166.875 259.201L166.866 259.259L166.887 259.313L166.931 259.353L166.989 259.366L172.729 259.335L172.778 259.325L172.817 259.297L172.842 259.253L172.848 259.204L171.891 247.109C171.89 247.081 171.878 247.054 171.86 247.034C171.841 247.013 171.815 246.999 171.788 246.995C171.76 246.991 171.733 246.997 171.709 247.011C171.685 247.025 171.667 247.048 171.657 247.075L166.875 259.201Z" fill="white"/>
<path d="M332.359 253.865C332.365 253.829 332.362 253.791 332.353 253.755C332.342 253.719 332.325 253.686 332.301 253.658C332.276 253.629 332.246 253.606 332.212 253.59C332.179 253.575 332.141 253.566 332.104 253.566L321.17 253.56C321.019 253.56 320.931 253.635 320.906 253.784L316.725 279.218C316.715 279.27 316.689 279.318 316.647 279.353C316.606 279.388 316.555 279.407 316.502 279.407L305.326 279.4C305.288 279.4 305.249 279.392 305.215 279.375C305.18 279.359 305.149 279.336 305.123 279.306C305.098 279.278 305.079 279.244 305.069 279.207C305.059 279.171 305.056 279.131 305.062 279.094C306.345 270.838 307.645 262.644 308.961 254.514C309.085 253.732 309.479 253.055 308.985 252.299C307.061 249.352 305.113 246.332 303.139 243.24C303.113 243.202 303.099 243.158 303.098 243.111C303.097 243.065 303.107 243.02 303.129 242.98C303.152 242.939 303.184 242.907 303.224 242.883C303.263 242.86 303.309 242.848 303.355 242.849L310.311 242.901C310.451 242.901 310.587 242.852 310.695 242.762C310.802 242.67 310.873 242.544 310.895 242.405L314.416 220.409C314.427 220.338 314.464 220.274 314.518 220.228C314.573 220.181 314.643 220.155 314.715 220.155H326.11C326.151 220.155 326.193 220.164 326.23 220.181C326.267 220.199 326.301 220.224 326.329 220.256C326.355 220.287 326.374 220.324 326.385 220.364C326.397 220.403 326.398 220.445 326.391 220.485L322.754 242.556C322.747 242.596 322.748 242.637 322.759 242.675C322.769 242.715 322.789 242.751 322.815 242.781C322.841 242.812 322.874 242.837 322.911 242.854C322.947 242.871 322.988 242.879 323.029 242.879H333.777C333.866 242.88 333.952 242.848 334.021 242.79C334.088 242.733 334.133 242.652 334.148 242.564L337.711 220.389C337.721 220.323 337.755 220.263 337.805 220.22C337.856 220.176 337.919 220.152 337.985 220.152H349.39C349.617 220.152 349.712 220.264 349.676 220.488L340.009 279.21C340 279.263 339.974 279.31 339.934 279.344C339.895 279.377 339.844 279.396 339.793 279.396L328.532 279.41C328.498 279.41 328.465 279.402 328.435 279.389C328.405 279.375 328.377 279.354 328.355 279.329C328.334 279.303 328.317 279.274 328.309 279.242C328.299 279.209 328.297 279.176 328.301 279.142L332.359 253.865Z" fill="#295DA4"/>
<path d="M367.743 220.148L379.872 220.159C379.951 220.159 380.028 220.19 380.086 220.244C380.143 220.298 380.179 220.372 380.185 220.451L384.599 279.06C384.603 279.103 384.597 279.148 384.582 279.188C384.568 279.229 384.545 279.268 384.516 279.299C384.486 279.331 384.45 279.356 384.411 279.374C384.37 279.391 384.327 279.4 384.283 279.4H372.947C372.868 279.4 372.79 279.37 372.732 279.316C372.673 279.262 372.637 279.187 372.631 279.108L371.962 270.416C371.955 270.337 371.919 270.263 371.861 270.209C371.802 270.155 371.725 270.125 371.645 270.125L360.697 270.118C360.634 270.119 360.573 270.137 360.521 270.173C360.468 270.209 360.429 270.258 360.405 270.317L356.815 279.2C356.791 279.258 356.751 279.308 356.699 279.343C356.647 279.378 356.586 279.396 356.523 279.396L344.688 279.414C344.637 279.414 344.586 279.402 344.541 279.378C344.494 279.354 344.455 279.318 344.425 279.276C344.397 279.233 344.379 279.184 344.373 279.132C344.367 279.08 344.374 279.029 344.393 278.981L349.203 266.82C349.221 266.774 349.228 266.725 349.224 266.676C349.219 266.628 349.204 266.58 349.179 266.538L345.066 259.874C345.037 259.826 345.021 259.771 345.021 259.715C345.019 259.658 345.034 259.603 345.061 259.554C345.089 259.505 345.129 259.464 345.178 259.435C345.226 259.408 345.282 259.393 345.337 259.393L351.899 259.417C351.964 259.417 352.026 259.398 352.079 259.362C352.132 259.326 352.171 259.274 352.194 259.214L367.447 220.348C367.47 220.289 367.511 220.238 367.564 220.202C367.617 220.168 367.679 220.148 367.743 220.148ZM364.864 259.132C364.851 259.165 364.845 259.201 364.848 259.236C364.853 259.272 364.865 259.307 364.885 259.336C364.905 259.366 364.932 259.39 364.963 259.406C364.996 259.423 365.031 259.432 365.067 259.43L370.745 259.403C370.775 259.403 370.804 259.397 370.831 259.385C370.858 259.372 370.882 259.355 370.902 259.333C370.923 259.31 370.937 259.285 370.947 259.258C370.956 259.229 370.961 259.199 370.959 259.17L369.993 247.288C369.988 247.238 369.967 247.194 369.935 247.159C369.901 247.123 369.857 247.1 369.809 247.093C369.761 247.086 369.713 247.096 369.671 247.12C369.628 247.144 369.595 247.181 369.577 247.225L364.864 259.132Z" fill="#295DA4"/>
<path d="M237.534 244.257L237.462 254.37L237.447 254.428L237.407 254.473L232.367 258.083C232.344 258.101 232.317 258.111 232.288 258.109C232.259 258.109 232.232 258.1 232.209 258.083C232.186 258.065 232.169 258.04 232.162 258.012C232.155 257.985 232.157 257.956 232.168 257.928L237.28 244.212C237.29 244.182 237.31 244.157 237.338 244.141C237.364 244.126 237.395 244.12 237.426 244.125C237.458 244.131 237.485 244.146 237.504 244.17C237.525 244.194 237.534 244.225 237.534 244.257Z" fill="#295DA4"/>
<path d="M204.173 274.25L213.675 246.974L213.719 246.921L213.786 246.909C213.81 246.913 213.848 246.942 213.848 246.942C213.848 246.942 213.873 246.981 213.874 247.005L213.867 269.337L213.852 269.39L213.813 269.427L204.317 274.374L204.258 274.385L204.204 274.361L204.172 274.31L204.173 274.25Z" fill="#295DA4"/>
<path d="M166.876 259.207L171.658 247.081C171.666 247.054 171.686 247.032 171.708 247.017C171.732 247.003 171.761 246.997 171.789 247.002C171.816 247.005 171.842 247.018 171.861 247.039C171.879 247.06 171.89 247.087 171.891 247.114L172.85 259.21L172.844 259.26L172.818 259.302L172.778 259.33L172.73 259.341L166.989 259.371L166.932 259.358L166.888 259.32L166.868 259.264L166.876 259.207Z" fill="#295DA4"/>
<path d="M364.866 259.135L369.579 247.227C369.598 247.183 369.63 247.145 369.672 247.121C369.714 247.097 369.764 247.089 369.812 247.096C369.86 247.102 369.903 247.126 369.936 247.161C369.97 247.196 369.99 247.241 369.995 247.289L370.96 259.172C370.962 259.202 370.959 259.231 370.949 259.259C370.94 259.287 370.924 259.313 370.905 259.335C370.884 259.357 370.86 259.375 370.833 259.387C370.806 259.399 370.776 259.405 370.748 259.406L365.069 259.433C365.033 259.433 364.997 259.425 364.966 259.408C364.934 259.391 364.907 259.367 364.887 259.339C364.866 259.309 364.854 259.274 364.851 259.239C364.847 259.203 364.852 259.167 364.866 259.135Z" fill="white"/>
</svg>
