<svg width="500" height="500" viewBox="0 0 500 500" fill="none" xmlns="http://www.w3.org/2000/svg">
<rect width="500" height="500" fill="white"/>
<path d="M140.441 136.11C133.616 124.072 143.287 112 154.434 112L344.708 112.137C360.416 112.137 364.6 126.885 358.29 137.036L324.028 196.3C318.506 207.309 304.754 206.897 298.683 196.711L265.553 139.025C256.43 123.558 243.569 123.215 234.138 139.025L201.659 195.134C197.098 203.639 204.232 216.192 215.686 216.192H405.893C419.062 216.192 425.442 230.836 420.126 240.199L325.846 403.414C319.672 415.692 302.181 414.972 295.356 403.551L261.952 346.654C255.093 334.547 264.387 320.486 275.568 320.486H346.458C357.089 320.486 363.366 309.443 357.261 298.742L326.154 243.971C317.992 230.082 304.925 229.327 296.351 243.354L203.58 403.071C197.578 415.246 183.071 415.555 176.177 403.86L80.5255 240.748C73.0146 227.338 83.5435 215.917 95.2385 215.917H161.121C177.412 215.917 181.905 230.39 175.491 240.851L141.401 299.977C136.36 308.997 144.351 320.589 155.428 320.589H224.192C234.721 320.589 241.614 310.952 235.544 300.183L140.441 136.11Z" fill="#E60013"/>
</svg>
