<svg width="500" height="500" viewBox="0 0 500 500" fill="none" xmlns="http://www.w3.org/2000/svg">
<rect width="500" height="500" fill="white"/>
<path d="M249.99 82C157.207 82 82 157.209 82 249.995C82 319.282 123.966 378.752 183.854 404.434V301.002C183.854 294.713 178.751 289.61 172.462 289.61H116.574C106.432 289.61 98.2215 281.389 98.2215 271.257V230.003H109.708V242.235C109.708 248.525 114.81 253.628 121.1 253.628H179.287C189.429 253.628 197.64 261.849 197.64 271.981V409.569C200.863 410.629 204.16 411.49 207.457 412.351V250.814C207.457 244.524 202.354 239.422 196.065 239.422H140.177C130.035 239.422 121.824 231.2 121.824 221.068V179.815H133.31V192.047C133.31 198.336 138.413 203.439 144.702 203.439H202.889C213.032 203.439 221.242 211.66 221.242 221.793V415.365C224.497 415.932 227.752 416.488 231.059 416.866V200.625C231.059 194.336 225.956 189.233 219.667 189.233H163.779C153.637 189.233 145.427 181.012 145.427 170.88V129.627H156.913V141.859C156.913 148.148 162.015 153.251 168.305 153.251H226.492C236.634 153.251 244.845 161.472 244.845 171.604V417.738C246.567 417.79 248.257 418 250 418C251.743 418 253.423 417.79 255.155 417.738V171.604C255.155 161.462 263.376 153.251 273.508 153.251H331.695C337.985 153.251 343.087 148.148 343.087 141.859V129.627H354.573V170.88C354.573 181.022 346.352 189.233 336.221 189.233H280.333C274.043 189.233 268.941 194.336 268.941 200.625V416.866C272.259 416.499 275.503 415.932 278.758 415.365V221.793C278.758 211.65 286.979 203.439 297.111 203.439H355.298C361.587 203.439 366.69 198.336 366.69 192.047V179.815H378.176V221.068C378.176 231.211 369.955 239.422 359.823 239.422H303.935C297.646 239.422 292.543 244.524 292.543 250.814V412.351C295.851 411.49 299.137 410.619 302.36 409.569V271.981C302.36 261.838 310.581 253.628 320.713 253.628H378.9C385.19 253.628 390.292 248.525 390.292 242.235V230.003H401.779V271.257C401.779 281.399 393.558 289.61 383.426 289.61H327.538C321.249 289.61 316.146 294.713 316.146 301.002V404.434C376.034 378.752 418 319.293 418 249.995C418 157.209 342.793 82 250.011 82H249.99Z" fill="#254AA5"/>
</svg>
