<svg width="500" height="500" viewBox="0 0 500 500" fill="none" xmlns="http://www.w3.org/2000/svg">
<rect width="500" height="500" fill="#FF0000"/>
<path d="M237.23 158.1H237.728L435.681 255.644C435.681 255.644 436.179 256.267 435.93 256.516C435.93 256.641 435.806 256.765 435.681 256.765L263.266 341.851C263.266 341.851 262.643 341.976 262.394 341.851C256.29 338.862 249.936 335.872 243.334 332.633C243.334 332.633 243.209 332.508 243.334 332.384L407.527 251.408C407.527 251.408 407.9 250.91 407.776 250.661C407.776 250.661 407.651 250.536 407.527 250.412L230.004 162.959C230.004 162.959 229.381 162.336 230.004 162.087L237.23 158.1Z" fill="white"/>
<path d="M139.937 206.061L214.808 169.311C214.808 169.311 215.182 169.311 215.307 169.311L374.018 247.42C374.018 247.42 374.516 247.919 374.267 248.292C374.267 248.292 374.142 248.542 374.018 248.542L324.561 272.959C324.561 272.959 324.187 272.959 324.062 272.959L173.075 198.586C173.075 198.586 172.701 198.586 172.452 198.586L157.129 206.31C157.129 206.31 156.631 206.808 156.88 207.182C156.88 207.307 157.004 207.431 157.129 207.431L306.123 280.932C306.123 280.932 306.622 281.43 306.372 281.804C306.372 281.804 306.248 282.053 306.123 282.053L223.404 322.54C223.404 322.54 223.03 322.54 222.906 322.54L64.3189 244.555C64.3189 244.555 63.8206 244.057 64.0698 243.683C64.0698 243.683 64.1943 243.434 64.3189 243.434L120.129 215.902C120.129 215.902 120.503 215.902 120.752 215.902L273.733 291.521C273.733 291.521 274.107 291.521 274.356 291.521L291.299 283.174C291.299 283.174 291.797 282.676 291.548 282.302C291.548 282.302 291.423 282.053 291.299 282.053L139.937 207.182C139.937 207.182 139.439 206.684 139.688 206.31C139.688 206.31 139.813 206.061 139.937 206.061Z" fill="white"/>
</svg>
