<svg width="500" height="500" viewBox="0 0 500 500" fill="none" xmlns="http://www.w3.org/2000/svg">
<rect width="500" height="500" fill="#021F59"/>
<path fill-rule="evenodd" clip-rule="evenodd" d="M189.73 229.021H209.88C215.757 229.021 220.543 233.723 220.543 239.6C220.543 245.477 215.757 250.178 209.88 250.178H209.796L220.543 271H215.17L204.591 250.178H193.928V271H189.73V250.011H181.838C181.833 255.394 179.759 260.57 176.045 264.468C172.331 268.366 167.261 270.688 161.884 270.953C156.507 271.219 151.233 269.408 147.153 265.895C143.073 262.382 140.499 257.435 139.964 252.078C139.428 246.721 140.971 241.363 144.275 237.111C147.578 232.86 152.389 230.04 157.712 229.236C163.036 228.431 168.465 229.703 172.877 232.788C177.289 235.874 180.347 240.536 181.419 245.813H189.73V229.021ZM193.928 245.813H208.873C212.651 245.813 215.757 243.042 215.757 239.516C215.757 236.074 212.651 233.219 208.873 233.219H193.928V245.813ZM96.5373 229.021H93.1789V271H97.3768V236.157L111.65 271H113.497L126.762 238.508V271H130.96V229.021H125.671L112.237 262.184L99.056 229.021H96.5373ZM67.7397 229.021L51.2 271H56.2375L62.6183 254.208H76.7232L82.7682 271H87.4698L71.9376 229.021H67.7397ZM75.2959 250.011H64.1295L69.8386 235.15L75.128 250.011H75.2959ZM160.849 266.634C169.916 266.634 177.221 259.162 177.221 250.011C177.221 240.859 169.916 233.471 160.849 233.471C151.782 233.471 144.393 240.859 144.393 250.011C144.393 259.246 151.782 266.634 160.849 266.634ZM230.366 229.021H227.512V271H252.699V266.802H231.709V250.011H248.501V245.813H231.709V233.219H252.699V229.021H230.366ZM266.972 229.021H280.573C286.282 229.021 290.9 234.059 290.9 240.103C290.9 246.232 286.282 251.186 280.573 251.186H269.49V271H266.972V229.021ZM269.49 248.667V231.54H280.405C284.687 231.54 288.213 235.402 288.213 240.103C288.213 244.805 284.687 248.667 280.405 248.667H269.49ZM305.005 229.021H307.691L322.972 271H320.117L313.4 251.27H298.876L292.159 271H289.472L305.089 229.021H305.005ZM299.883 248.751H312.477L306.684 231.96H305.844L299.883 248.751ZM343.961 271C349.67 271 354.792 268.313 358.234 264.031L356.387 262.1C353.364 265.795 348.831 268.145 343.961 268.145C334.726 268.145 327.337 260.002 327.337 250.011C327.337 239.936 334.81 231.876 343.961 231.876C348.579 231.876 352.777 233.975 355.715 237.249L357.898 235.486C356.175 233.471 354.038 231.851 351.634 230.736C349.229 229.62 346.612 229.035 343.961 229.021C333.298 229.021 324.651 238.424 324.651 250.011C324.651 261.597 333.298 271 343.961 271ZM450 264.031C446.474 268.313 441.352 271 435.727 271C425.064 271 416.417 261.597 416.417 250.011C416.417 238.424 425.064 229.021 435.727 229.021C441.184 229.021 446.054 231.54 449.58 235.486L447.481 237.249C446.005 235.583 444.197 234.244 442.173 233.319C440.148 232.393 437.953 231.902 435.727 231.876C426.492 231.876 419.019 240.02 419.019 250.011C419.019 260.085 426.576 268.145 435.727 268.145C440.597 268.145 444.962 265.795 448.069 262.1L450 264.031ZM370.24 229.021H367.721V271H370.24V229.021ZM378.636 229.021H400.465V231.54H381.154V248.919H398.786V251.438H381.154V271H378.636V229.021ZM410.204 229.021H407.685V271H410.204V229.021Z" fill="white"/>
</svg>
