<svg width="500" height="500" viewBox="0 0 500 500" fill="none" xmlns="http://www.w3.org/2000/svg">
<rect width="500" height="500" fill="white"/>
<path d="M143.343 248.875L99.8462 248.908L48.9199 299.912L92.4294 299.875L143.343 248.875Z" fill="#ED1A3B"/>
<path d="M195.474 235.497C189.085 233.163 185.207 231.169 183.839 229.51C182.401 227.855 181.693 225.398 181.693 222.134C181.693 219.591 182.328 217.699 183.601 216.442C184.871 215.192 186.746 214.566 189.228 214.566C191.509 214.566 193.774 215.029 194.753 215.954C195.736 216.884 196.891 219.038 196.891 222.429V226.623H233.839V222.753C233.839 214.971 232.615 212.526 230.174 209.279C227.725 206.031 222.741 203.34 215.201 201.203C207.67 199.069 198.558 198 187.856 198C178.072 198 169.722 198.975 162.813 200.932C155.896 202.886 150.887 205.601 147.791 209.066C144.695 212.53 143.139 218.01 143.139 225.509C143.139 230.71 144.232 234.977 146.419 238.327C148.602 241.677 151.358 244.294 154.688 246.191C158.017 248.083 164.799 251.13 175.034 255.315C185.276 259.468 191.702 262.429 194.311 264.202C196.854 265.975 198.128 269.747 198.128 275.51C198.128 278.131 197.464 280.105 196.125 281.431C194.786 282.762 192.746 283.426 190.006 283.426C187.267 283.426 184.416 282.906 183.339 281.857C182.262 280.813 179.997 278.458 179.997 274.789V262.879H143.139V269.28C143.139 279.146 145.338 282.455 148.033 286.28C150.846 290.269 155.548 293.55 163.349 296.126C171.135 298.706 180.55 300 191.575 300C201.613 300 210.422 298.882 217.99 296.642C225.55 294.402 230.661 291.633 233.299 288.324C235.936 285.023 237.263 279.883 237.263 272.909C237.263 263.318 234.88 256.368 230.117 252.051C225.358 247.739 213.809 242.218 195.47 235.493" fill="#002F67"/>
<path d="M306.065 244.715L274.678 198.016H248.541V299.991H277.229V252.947L308.686 299.991H334.757V198.016H306.065V244.715Z" fill="#002F67"/>
<path d="M345.984 226.401H373.219V299.991H409.377V226.401H435.997V198.016H345.984V226.401Z" fill="#002F67"/>
</svg>
