<svg width="500" height="500" viewBox="0 0 500 500" fill="none" xmlns="http://www.w3.org/2000/svg">
<rect width="500" height="500" fill="#F9FBFB"/>
<path d="M315.869 382.639C307.23 391.311 296.965 398.192 285.661 402.888C274.357 407.583 262.237 410 249.996 410C237.756 410 225.636 407.583 214.332 402.888C203.028 398.192 192.762 391.311 184.124 382.639L117.311 315.919C108.638 307.281 101.757 297.016 97.0616 285.711C92.3662 274.407 89.9492 262.287 89.9492 250.047C89.9492 237.807 92.3662 225.687 97.0616 214.383C101.757 203.079 108.638 192.813 117.311 184.175L184.124 117.361C192.762 108.689 203.028 101.808 214.332 97.1124C225.636 92.417 237.756 90 249.996 90C262.237 90 274.357 92.417 285.661 97.1124C296.965 101.808 307.23 108.689 315.869 117.361L382.682 184.175C391.354 192.813 398.236 203.079 402.931 214.383C407.626 225.687 410.043 237.807 410.043 250.047C410.043 262.287 407.626 274.407 402.931 285.711C398.236 297.016 391.354 307.281 382.682 315.919L315.869 382.733V382.639Z" fill="#ED1D24"/>
<path d="M212.356 344.149C207.65 344.149 202.945 339.444 202.945 334.738C202.945 331.633 204.545 330.033 206.051 328.434C207.65 326.928 210.756 325.328 212.356 325.328C217.061 325.328 221.766 330.033 221.766 334.738C221.766 339.444 217.061 344.149 212.356 344.149Z" fill="white"/>
<path d="M245.762 165.352C240.775 165.352 235.881 168.175 232.588 171.375C224.307 179.279 221.766 191.701 221.766 212.215C221.766 243.928 228.259 329.844 275.405 329.844C293.284 329.844 308.623 311.306 318.222 298.132C319.822 294.932 323.115 293.426 326.503 293.426C328.103 293.426 329.702 293.426 331.396 294.932C333.09 296.532 334.69 298.132 334.69 299.637C334.69 301.237 334.69 304.437 333.09 306.036C309.564 341.325 263.736 362.498 232.588 322.504C202.945 286.086 202.945 227.931 202.945 221.626C202.945 204.217 204.639 171.375 219.413 157.165C226.555 150.446 235.958 146.651 245.762 146.531H247.456C257.243 146.531 267.218 150.766 273.805 157.165C288.579 171.375 287.638 193.112 287.638 214.192C287.638 233.2 283.592 281.852 265.524 301.708C262.983 304.437 260.537 306.507 257.243 306.507C255.643 306.507 253.949 306.413 252.35 304.813C247.362 301.613 247.08 294.744 249.056 291.827C263.924 269.618 268.818 244.21 268.818 212.592C268.818 191.983 267.124 176.174 258.937 169.775C257.243 168.175 254.043 165.352 245.762 165.352Z" fill="#F0F3FA"/>
</svg>
