<svg width="500" height="500" viewBox="0 0 500 500" fill="none" xmlns="http://www.w3.org/2000/svg">
<rect width="500" height="500" fill="#203742"/>
<path d="M133.211 238.215C131.913 235.96 129.487 234.457 126.037 233.672L105.645 229.128C104.074 228.787 103.254 228.411 102.947 227.899C102.776 227.591 102.742 227.216 102.878 226.772L103.835 224.141H137.514L142.057 210H105.782C100.111 210 96.1491 210.717 93.3481 212.22C90.0006 214.031 87.7462 216.934 86.5165 221.067L84.672 226.806C83.6814 230.017 84.0571 233.467 85.6626 236.268C87.268 239.034 89.864 240.879 93.2115 241.63L112.716 245.968C113.843 246.208 114.56 246.583 114.868 247.061C115.073 247.369 115.107 247.71 115.004 248.12L114.048 251.058H80.1631L75.6201 265.165H110.325C118.01 265.165 122.041 264.755 125.559 262.398C129.18 259.939 130.649 256.011 132.015 251.502L133.655 245.968C134.577 242.962 134.406 240.264 133.176 238.18" fill="white"/>
<path d="M306.254 234.042C304.683 231.89 301.882 230.797 297.919 230.797H274.043C265.674 230.797 260.311 234.144 257.647 241.01L240.09 285.996H258.603L264.171 271.513H279.542L274.897 285.996H293.035L306.937 242.752C308.064 239.2 307.825 236.194 306.288 234.042M284.051 257.713H269.432L273.257 247.671C274.043 245.621 274.726 244.87 277.151 244.87H288.082L284.051 257.713Z" fill="white"/>
<path d="M393.597 244.938H419.728L424.374 230.797H389.327C381.198 230.797 376.723 233.7 374.366 240.566L363.47 274.622C362.445 277.696 362.684 280.565 364.187 282.649C365.758 284.835 368.491 285.996 372.112 285.996H396.262C402.034 285.996 404.459 285.655 407.055 284.425C410.198 282.956 412.008 280.633 413.443 276.125L418.738 259.524C419.523 257.099 419.387 255.186 418.396 253.751C417.337 252.316 415.424 251.565 412.828 251.565H395.647L391.274 265.194H398.823L397.116 270.523C396.706 271.65 396.364 271.855 394.964 271.855H382.462L390.421 247.022C391.001 245.28 391.889 244.972 393.529 244.972" fill="white"/>
<path d="M351.411 230.8L342.701 257.921L335.835 234.25C335.221 231.995 333.479 230.8 330.848 230.8H318.859L301.302 285.487L301.165 285.965H319.303L327.877 259.219L334.879 282.652C335.255 283.881 336.382 285.931 339.627 285.931H351.821L369.515 230.766H351.377L351.411 230.8Z" fill="white"/>
<path d="M248.222 233.672C246.855 231.793 244.259 230.802 240.912 230.802H163.271L164.944 225.576C165.354 224.21 166.311 224.141 167.916 224.141H194.389L198.932 210H167.574C161.87 210 157.908 210.717 155.107 212.22C151.759 214.031 149.505 216.934 148.275 221.067L134.1 265.165H181.511L186.054 251.058H156.849L158.967 244.397H229.469L227.761 249.692C227.488 250.58 227.044 251.058 225.677 251.058H193.398L182.194 285.967H218.572C225.643 285.967 228.854 285.455 231.86 283.918C234.388 282.586 236.061 280.297 237.291 276.437L239.955 268.103C240.809 265.541 241.458 262.638 239.682 260.486L237.769 258.334L240.775 256.25C243.952 254.2 244.874 253.005 246.104 249.077L248.802 240.606C249.69 237.805 249.485 235.414 248.222 233.706M221.305 269.811C220.656 271.689 219.665 271.792 218.128 271.792H204.875L206.993 265.165H222.808L221.305 269.811Z" fill="white"/>
</svg>
