<svg width="500" height="500" viewBox="0 0 500 500" fill="none" xmlns="http://www.w3.org/2000/svg">
<rect width="500" height="500" fill="#1428A0"/>
<path d="M433.143 276.393C437 276.393 437.5 273.5 437.5 269.607V258.929H433.143V250H455.357V268.232C455.357 269.402 455.357 270.25 455.143 272.259C454.054 283.384 444.143 287.304 433.036 287.304C421.929 287.304 412.018 283.384 410.938 272.259C410.714 270.25 410.714 269.402 410.714 268.241V240.804C410.714 239.741 410.821 237.839 410.938 236.777C412.348 225.339 421.821 221.732 433.036 221.732C444.143 221.732 454.161 225.339 455.25 236.777C455.42 238.277 455.357 239.554 455.357 241.062H437.5C437.5 236.643 438.625 232.357 433.143 232.357C428.518 232.357 428.571 235.929 428.571 239.955V269.598C428.571 273.643 428.777 276.393 433.143 276.393ZM383.929 223.214V268.58L371.946 223.214H348.214V285.714H366.071V238.509L379.107 285.714H401.786V223.214H383.929ZM321.429 223.312V269.232C321.429 273.062 321.366 276.116 316.991 276.116C312.616 276.116 312.5 273.062 312.5 269.232V223.304H294.687V267.83C294.58 269.009 294.687 271.268 294.804 271.911C295.902 283.527 305.286 287.295 316.991 287.295C328.687 287.295 338.062 283.527 339.179 271.911C339.179 271.268 339.286 269.009 339.286 267.83V223.304L321.429 223.312ZM270.304 272.196C270.625 271.125 270.839 269.196 270.196 267.705C267.116 259.777 245.562 256.134 242.804 243.598C242.236 240.881 242.2 238.079 242.696 235.348C244.393 225.384 253.205 221.741 263.937 221.741C272.536 221.741 284.429 223.884 284.429 237.17V241.455H269.25V237.705C269.25 234.384 267.116 232.134 263.616 232.134C259.795 232.134 258.527 234.277 258.098 236.205C257.926 237.274 257.963 238.365 258.205 239.42C259.902 246.598 282.937 250.348 285.491 263.196C285.804 264.491 286.339 268.018 285.598 273.268C284.116 283.554 275.089 287.304 264.143 287.304C252.679 287.304 242.062 283.125 242.062 269.527V264.812H258.312V270.705C258.312 274.018 260.536 276.268 264.357 276.268C268.393 276.268 269.777 274.232 270.304 272.196ZM204.5 285.714L214.286 227.768V285.714H232.143V223.214H204.509L196.375 272.036L188.232 223.214H160.714V285.714H178.571V227.768L188.232 285.714H204.5ZM117.098 285.714L125.589 227.768L133.875 285.714H150.339L139.08 223.214H111.786L100.527 285.714H117.098ZM74.8393 271.304C75.1607 270.143 75.366 268.268 74.7321 266.795C71.5446 258.937 49.7767 255.366 47.0178 243.116C46.375 240.08 46.4821 237.67 46.9107 234.946C48.6071 225.098 57.4196 221.536 68.3571 221.536C77.0714 221.536 89.2857 223.527 89.2857 236.723V241.071H73.7767V237.25C73.7767 234 71.6518 231.804 68.0357 231.804C64.2143 231.804 62.8392 234 62.4107 235.884C62.2428 236.929 62.2791 237.996 62.5178 239.027C64.3214 246.054 87.5803 249.821 90.125 262.5C90.4464 263.857 90.9732 267.214 90.2321 272.455C88.75 282.509 79.616 286.277 68.5714 286.277C57 286.277 44.6428 282.187 44.6428 268.687V264.071H62.5V269.937C62.5 273.187 65.0714 275.384 68.8839 275.384C72.9285 275.384 74.3035 273.286 74.8393 271.304Z" fill="white"/>
</svg>
