<svg width="500" height="500" viewBox="0 0 500 500" fill="none" xmlns="http://www.w3.org/2000/svg">
<rect width="500" height="500" fill="#0C8ED8"/>
<path d="M363.559 191.016V275.75C363.559 282.901 358.073 287.114 351.412 287.114C344.751 287.114 339.363 282.999 339.363 275.75V191.016H302.824V278.395C302.824 304.55 321.632 322.869 351.216 322.869C380.8 322.869 400 304.55 400 278.395C400 278.395 400 194.934 400 191.016H363.461H363.559Z" fill="white"/>
<path d="M124.539 191.016V321.889H161.078V191.016H124.539Z" fill="white"/>
<path d="M88 154.477V191.015H124.539V154.477H88Z" fill="#9ACA3C"/>
<path d="M232.49 278.787C236.996 282.509 234.743 287.799 229.551 287.799H192.228V321.889H237.583C279.706 321.889 284.016 275.946 262.367 257.53L234.841 234.118C230.334 230.297 232.098 225.105 237.485 225.105H271.281V191.016H229.649C187.526 191.016 183.216 236.958 204.865 255.375L232.392 278.787H232.49Z" fill="white"/>
</svg>
