<svg width="500" height="500" viewBox="0 0 500 500" fill="none" xmlns="http://www.w3.org/2000/svg">
<rect width="500" height="500" fill="#FF0000"/>
<path d="M251.193 147.869C282.723 130.848 314.861 128.045 347.605 139.455C366.207 145.926 382.011 156.322 395.019 170.641C448.81 229.801 430.112 323.311 357.84 356.415C322.859 372.444 287.294 371.092 251.146 352.363C250.251 351.884 249.348 351.884 248.437 352.363C206.248 375.016 158.522 371.924 120.505 343.471C48.424 289.584 62.9743 178.047 144.524 142.643C179.201 127.557 214.007 129.3 248.94 147.869C249.692 148.268 250.443 148.268 251.193 147.869ZM237.194 336.712C173.551 295.481 174.415 203.433 237.866 162.945C239.08 162.163 238.992 161.612 237.602 161.292C213.391 155.587 191.211 157.96 171.059 168.411C114.895 197.583 103.221 275.37 151.38 318.038C175.19 339.148 203.643 346.171 236.74 339.108C238.8 338.661 238.953 337.861 237.194 336.712ZM371.599 285.462C401.443 213.548 335.787 142.115 262.196 161.483C262.059 161.524 261.935 161.602 261.838 161.709C261.744 161.816 261.68 161.948 261.657 162.087C261.635 162.226 261.653 162.369 261.71 162.496C261.768 162.622 261.861 162.729 261.981 162.802C326.246 205.23 326.318 294.522 262.388 337.023C262.222 337.135 262.09 337.294 262.01 337.478C261.931 337.663 261.905 337.866 261.939 338.063C261.971 338.259 262.062 338.44 262.196 338.583C262.331 338.726 262.507 338.825 262.7 338.868C308.292 349.847 353.765 328.441 371.599 285.462ZM282.596 206.069C271.329 195.155 260.678 184.744 250.642 174.836C250.473 174.678 250.251 174.588 250.019 174.588C249.788 174.588 249.565 174.678 249.395 174.836L210.467 213.021C210.187 213.295 209.963 213.622 209.81 213.984C209.659 214.347 209.58 214.737 209.58 215.131V285.005C209.58 285.869 209.877 286.611 210.467 287.235L249.42 328.322C249.505 328.407 249.605 328.475 249.716 328.521C249.827 328.567 249.946 328.591 250.067 328.591C250.187 328.591 250.306 328.567 250.417 328.521C250.528 328.475 250.63 328.407 250.714 328.322L289.716 286.971C290.29 286.365 290.578 285.636 290.578 284.79L290.554 215.825C290.554 215.026 290.298 214.324 289.787 213.716C287.549 211.095 285.153 208.547 282.596 206.069Z" fill="white"/>
<path d="M237.857 162.946C174.406 203.432 173.543 295.48 237.186 336.711C238.944 337.861 238.792 338.66 236.73 339.107C203.634 346.171 175.182 339.147 151.37 318.037C103.213 275.369 114.887 197.584 171.05 168.411C191.202 157.959 213.383 155.586 237.594 161.291C238.984 161.611 239.072 162.162 237.857 162.946Z" fill="#FF0000"/>
<path d="M371.599 285.464C353.765 328.445 308.292 349.851 262.7 338.872C262.506 338.829 262.331 338.73 262.196 338.587C262.061 338.443 261.971 338.262 261.938 338.065C261.905 337.869 261.929 337.666 262.009 337.482C262.089 337.296 262.222 337.138 262.388 337.026C326.318 294.526 326.247 205.234 261.981 162.806C261.862 162.733 261.768 162.626 261.71 162.499C261.653 162.371 261.634 162.231 261.657 162.09C261.68 161.95 261.744 161.819 261.839 161.712C261.935 161.605 262.058 161.527 262.196 161.487C335.787 142.119 401.443 213.552 371.599 285.464Z" fill="#FF0000"/>
<path d="M282.598 206.067C285.154 208.543 287.552 211.092 289.79 213.713C290.3 214.321 290.556 215.024 290.556 215.823L290.581 284.788C290.581 285.634 290.292 286.361 289.717 286.969L250.717 328.318C250.633 328.403 250.531 328.472 250.42 328.518C250.309 328.564 250.19 328.589 250.07 328.589C249.949 328.589 249.83 328.564 249.719 328.518C249.608 328.472 249.508 328.403 249.422 328.318L210.47 287.233C209.878 286.609 209.583 285.865 209.583 285.003V215.128C209.583 214.733 209.661 214.343 209.813 213.982C209.966 213.619 210.189 213.291 210.47 213.019L249.398 174.832C249.567 174.674 249.791 174.586 250.022 174.586C250.254 174.586 250.476 174.674 250.645 174.832C260.681 184.741 271.332 195.152 282.598 206.067Z" fill="#FF0000"/>
</svg>
