<svg width="500" height="500" viewBox="0 0 500 500" fill="none" xmlns="http://www.w3.org/2000/svg">
<rect width="500" height="500" fill="white"/>
<path d="M42.1499 249.776L249.88 144.786C249.916 144.767 249.956 144.758 249.997 144.758C250.038 144.758 250.078 144.767 250.114 144.786L457.844 249.763C457.876 249.777 457.905 249.797 457.929 249.822C457.953 249.848 457.972 249.878 457.984 249.91C457.996 249.943 458.001 249.978 458 250.013C457.998 250.048 457.989 250.082 457.974 250.113C457.948 250.171 457.902 250.217 457.844 250.243L250.114 355.207C250.078 355.225 250.038 355.235 249.997 355.235C249.956 355.235 249.916 355.225 249.88 355.207L42.1499 250.23C42.0199 250.178 41.9679 250.022 42.0199 249.893C42.046 249.835 42.0922 249.802 42.1499 249.776ZM89.2987 249.724C89.2527 249.75 89.2145 249.788 89.1879 249.833C89.1614 249.879 89.1474 249.931 89.1474 249.983C89.1474 250.036 89.1614 250.088 89.1879 250.134C89.2145 250.179 89.2527 250.217 89.2987 250.243L249.867 333.114C249.907 333.136 249.951 333.148 249.997 333.148C250.043 333.148 250.088 333.136 250.127 333.114L410.695 250.243C410.741 250.217 410.78 250.179 410.806 250.134C410.833 250.088 410.847 250.036 410.847 249.983C410.847 249.931 410.833 249.879 410.806 249.833C410.78 249.788 410.741 249.75 410.695 249.724L250.127 166.866C250.088 166.843 250.043 166.831 249.997 166.831C249.951 166.831 249.907 166.843 249.867 166.866L89.2987 249.724Z" fill="#00A0E9"/>
<path d="M356.15 249.981C356.15 278.669 308.624 301.931 249.997 301.931C191.369 301.931 143.844 278.669 143.844 249.981C143.844 221.293 191.369 198.031 249.997 198.031C308.624 198.031 356.15 221.293 356.15 249.981ZM287.734 227.122C287.665 227.122 287.599 227.094 287.55 227.046C287.501 226.997 287.474 226.931 287.474 226.862V222.15C287.474 222.081 287.447 222.015 287.398 221.966C287.349 221.918 287.283 221.89 287.214 221.89H277.256C277.187 221.89 277.121 221.918 277.073 221.966C277.024 222.015 276.996 222.081 276.996 222.15V226.849C276.996 226.918 276.969 226.984 276.92 227.033C276.872 227.081 276.805 227.109 276.736 227.109H262.801C262.766 227.109 262.731 227.116 262.699 227.13C262.666 227.143 262.637 227.164 262.613 227.189C262.588 227.215 262.569 227.245 262.557 227.278C262.545 227.311 262.539 227.346 262.541 227.381V237.117C262.541 237.247 262.658 237.377 262.801 237.377H301.461C301.53 237.377 301.596 237.349 301.645 237.301C301.694 237.252 301.721 237.186 301.721 237.117V227.381C301.721 227.312 301.694 227.246 301.645 227.198C301.596 227.149 301.53 227.122 301.461 227.122H287.734ZM241.04 235.118C241.037 231.735 239.689 228.491 237.294 226.099C234.898 223.707 231.65 222.361 228.262 222.358H191.149C187.761 222.361 184.512 223.707 182.117 226.099C179.721 228.491 178.374 231.735 178.37 235.118V236.247C178.37 243.296 184.09 249.008 191.149 249.008H228.262C235.32 249.008 241.04 243.296 241.04 236.247V235.118ZM319.751 258.354C319.76 258.189 319.847 258.103 320.011 258.094H327.46C327.616 258.077 327.703 257.99 327.72 257.835V248.099C327.72 248.03 327.693 247.964 327.644 247.915C327.595 247.867 327.529 247.839 327.46 247.839H319.998C319.929 247.839 319.863 247.812 319.815 247.763C319.766 247.715 319.738 247.648 319.738 247.58V223.175C319.738 223.028 319.66 222.946 319.504 222.929H309.521C309.391 222.929 309.261 223.046 309.261 223.188V282.122C309.261 282.265 309.391 282.382 309.521 282.382H319.491C319.656 282.364 319.743 282.278 319.751 282.122V258.354ZM287.643 269.232C296.769 268.868 303.723 261.43 302.085 252.46C300.668 244.672 294.286 239.908 286.265 240.258C283.826 240.356 281.385 240.356 278.946 240.258C257.432 239.389 256.301 268.245 276.827 269.271C276.94 269.271 276.996 269.327 276.996 269.44V271.906C276.989 271.96 276.965 272.01 276.928 272.05C276.891 272.089 276.842 272.116 276.788 272.127H262.957C262.671 272.127 262.528 272.265 262.528 272.542V281.759C262.528 282.174 262.74 282.382 263.165 282.382H301.305C301.583 282.382 301.721 282.243 301.721 281.966V272.542C301.725 272.487 301.717 272.431 301.697 272.379C301.678 272.326 301.647 272.279 301.608 272.24C301.569 272.2 301.521 272.17 301.469 272.15C301.417 272.131 301.361 272.123 301.305 272.127H287.682C287.628 272.12 287.578 272.096 287.538 272.058C287.498 272.021 287.471 271.972 287.461 271.919V269.427C287.478 269.314 287.539 269.241 287.643 269.232ZM188.692 267.09C188.835 267.09 188.965 267.22 188.965 267.376V280.006C188.965 280.149 189.095 280.279 189.238 280.279H199.169C199.325 280.279 199.442 280.149 199.442 280.006V267.376C199.442 267.22 199.572 267.09 199.715 267.09H217.615C217.758 267.09 217.888 267.22 217.888 267.376V280.006C217.888 280.149 218.018 280.279 218.161 280.279H228.093C228.236 280.279 228.366 280.149 228.366 280.006V267.376C228.366 267.22 228.496 267.09 228.639 267.09H240.468C240.598 267.09 240.728 266.96 240.728 266.83V257.121C240.732 257.084 240.728 257.048 240.716 257.013C240.705 256.979 240.686 256.947 240.662 256.92C240.637 256.893 240.607 256.872 240.574 256.857C240.541 256.842 240.505 256.835 240.468 256.835H177.928C177.89 256.831 177.851 256.836 177.814 256.848C177.777 256.861 177.744 256.882 177.717 256.91C177.689 256.937 177.668 256.97 177.656 257.007C177.643 257.043 177.638 257.082 177.642 257.121V266.817C177.642 266.973 177.772 267.09 177.928 267.09H188.692Z" fill="#C9151E"/>
<path d="M230.601 235.768C230.594 237.242 230.004 238.653 228.959 239.694C227.914 240.735 226.5 241.321 225.024 241.324H194.359C192.885 241.317 191.474 240.73 190.432 239.689C189.39 238.649 188.802 237.24 188.795 235.768V235.431C188.795 232.367 191.278 229.875 194.359 229.875H225.037C228.105 229.875 230.601 232.367 230.601 235.431V235.768ZM292.829 254.993C292.829 257.719 290.619 259.926 287.902 259.926L276.541 259.952C275.231 259.952 273.974 259.432 273.048 258.507C272.121 257.582 271.601 256.327 271.601 255.019V254.526C271.601 251.8 273.798 249.593 276.515 249.593L287.889 249.567C290.619 249.567 292.829 251.774 292.829 254.5V254.993Z" fill="#C9151E"/>
</svg>
