<svg width="500" height="500" viewBox="0 0 500 500" fill="none" xmlns="http://www.w3.org/2000/svg">
<rect width="500" height="500" fill="white"/>
<path d="M372.888 321.188C351.038 321.188 337.806 317.705 330.001 309.9C318.345 298.244 318.358 280.004 318.371 265.348V261.217C318.307 248.239 318.244 233.533 329.95 221.813C340.068 211.695 358.525 210.526 371.528 210.526C385.663 210.526 403.178 211.81 413.169 221.813C424.507 233.151 424.456 248.405 424.418 263.162V267.662H359.605V295.753C359.605 299.083 363.113 304.053 372.786 304.053C382.675 304.053 386.196 299.617 386.196 295.829V276.216H424.278V277.805C424.278 295.27 420.02 303.024 413.144 309.9C401.856 321.188 380.057 321.188 372.888 321.188ZM383.603 251.913V236.634C383.603 233.596 380.413 229.084 371.604 229.084C364.321 229.084 359.605 232.046 359.605 236.634V251.913H383.603Z" fill="#005DA4"/>
<path d="M371.527 212.128C384.136 212.128 402.097 212.992 412.049 222.945C423.629 234.525 422.816 250.223 422.816 266.073H358.015V295.753C358.015 300.329 362.731 305.643 372.785 305.643C383.539 305.643 387.784 300.558 387.784 295.817V277.793H422.688C422.688 295.245 418.316 302.478 412.011 308.769C401.741 319.04 382.217 319.586 372.887 319.586C353.147 319.586 339.127 316.765 331.131 308.769C319.564 297.202 319.971 278.606 319.971 263.925C319.971 250.337 319.043 234.982 331.093 222.932C340.601 213.424 358.028 212.115 371.539 212.115M358.015 253.502H385.191V236.635C385.191 232.974 381.619 227.495 371.603 227.495C362.591 227.495 358.015 231.716 358.015 236.635V253.502ZM371.527 208.95C358.244 208.95 339.368 210.17 328.831 220.695C316.654 232.872 316.717 247.935 316.781 261.23V263.938V265.349C316.768 280.297 316.755 298.906 328.881 311.032C337.004 319.154 350.579 322.777 372.887 322.777C380.208 322.777 402.516 322.777 414.261 311.032C421.43 303.863 425.866 295.817 425.866 277.806V274.628H384.606V295.83C384.606 298.893 381.518 302.477 372.785 302.477C364.345 302.477 361.193 298.359 361.193 295.766V269.264H425.993V263.175C426.044 248.1 426.095 232.504 414.299 220.708C403.889 210.298 385.966 208.95 371.527 208.95ZM361.193 250.324V236.635C361.193 233.012 365.273 230.673 371.603 230.673C380.145 230.673 382.013 234.982 382.013 236.635V250.324H361.193Z" fill="#828282"/>
<path d="M222.959 320.87C221.434 320.87 219.896 320.806 218.383 320.679C203.232 319.459 195.555 311.845 194.233 296.745C193.165 284.72 192.542 238.363 195.809 226.999C198.821 216.487 208.202 211.149 223.684 211.149C227.141 211.149 230.281 211.403 232.62 211.606C243.742 212.522 251.801 216.843 258.245 221.407V167.601H299.111V319.078H258.245V309.9C247.237 317.082 235.086 320.87 222.959 320.87ZM246.22 231.88C241.187 231.88 235.289 234.13 235.289 240.46L235.149 289.461C235.149 299.541 244.721 300.049 246.64 300.049C250.924 300.049 258.118 298.677 258.118 289.461V240.46C258.118 232.999 250.669 231.88 246.22 231.88Z" fill="#005DA4"/>
<path d="M297.512 169.178V317.489H259.824V306.888C248.46 314.96 235.609 319.269 222.962 319.269C221.475 319.269 219.987 319.205 218.513 319.091C204.086 317.921 197.082 310.994 195.811 296.605C194.756 284.644 194.121 238.643 197.324 227.432C200.908 214.95 213.645 212.738 223.674 212.738C227.08 212.738 230.169 212.992 232.482 213.183C243.579 214.098 251.65 218.331 259.824 224.534V169.165H297.512M246.642 301.651C250.57 301.651 259.709 300.469 259.709 289.474V240.474C259.709 231.296 250.278 230.305 246.21 230.305C239.982 230.305 233.69 233.457 233.69 240.474C233.69 245.304 233.664 254.939 233.626 264.65C233.601 274.501 233.563 284.428 233.563 289.487C233.563 298.486 240.605 301.664 246.642 301.664M300.689 166H256.646V218.395C250.456 214.378 242.829 210.844 232.737 210.018C230.36 209.815 227.169 209.56 223.661 209.56C207.391 209.56 197.502 215.28 194.26 226.568C190.816 238.592 191.604 285.331 192.633 296.898C194.044 312.913 202.179 320.972 218.246 322.269C219.809 322.396 221.386 322.459 222.949 322.459C234.491 322.459 246.02 319.129 256.633 312.774V320.68H300.677V166.013L300.689 166ZM246.642 298.474C244.316 298.474 236.74 297.825 236.74 289.474L236.791 270.993L236.817 264.65C236.855 254.939 236.88 245.304 236.88 240.461C236.88 233.66 245.27 233.47 246.223 233.47C250.939 233.47 256.557 234.677 256.557 240.461V289.462C256.557 295.436 253.214 298.461 246.655 298.461L246.642 298.474Z" fill="#828282"/>
<path d="M124.362 320.781C109.617 320.781 96.4869 318.328 89.2289 314.222C79.8736 308.922 74.4842 297.291 75.8442 285.317L76.162 282.546H114.473L114.664 285.457C114.664 285.61 114.956 289.512 114.956 293.796C114.956 297.113 116.456 300.571 118.528 302.02C120.091 303.113 122.265 303.748 124.476 303.748C125.964 303.748 127.413 303.469 128.671 302.935C131.061 301.918 132.573 300.049 132.929 297.698C133.717 292.601 133.603 285.8 128.531 282.343C124.4 279.521 117.879 277.22 110.99 274.78C95.4446 269.263 77.8399 263.01 75.9586 247.451C74.7765 237.689 76.6323 229.758 81.4752 223.873C87.3731 216.716 97.3766 212.712 112.058 211.632C115.337 211.39 119.227 211.2 123.421 211.2C136.984 211.2 155.161 213.233 164.668 222.894C169.715 228.029 171.926 234.69 171.215 242.71L170.96 245.557H131.785L132.103 242.138C132.586 237.117 131.506 232.592 129.307 230.304C128.099 229.033 126.561 228.436 124.604 228.436C120.6 228.652 118.312 230.203 117.142 233.101C115.375 237.41 116.545 243.778 119.748 247.299C123.447 251.354 133.082 254.582 142.424 257.696C151.398 260.696 160.639 263.785 166.461 268.107C171.545 271.882 174.57 278.377 174.964 286.385C175.422 295.867 172.028 305.337 166.308 310.51C157.906 318.099 139.145 320.806 124.387 320.806L124.362 320.781Z" fill="#005DA4"/>
<path d="M123.408 212.764C137.326 212.764 154.537 214.861 163.524 223.987C168.239 228.767 170.286 235.008 169.612 242.545L169.485 243.944H133.513L133.666 242.266C134.187 236.711 132.979 231.83 130.437 229.186C128.95 227.636 127.005 226.822 124.577 226.822C124.323 226.822 124.069 226.822 123.815 226.847C118.857 227.127 116.633 230.063 115.654 232.466C113.646 237.385 114.917 244.35 118.552 248.342C122.531 252.714 132.394 256.006 141.94 259.197C150.762 262.146 159.888 265.196 165.494 269.366C170.197 272.861 172.993 278.924 173.362 286.436C173.794 295.474 170.604 304.448 165.227 309.316C157.816 316.015 140.873 319.193 124.374 319.205C110.722 319.205 97.3885 317.019 90.0161 312.85C81.2074 307.854 76.1485 296.859 77.4323 285.509L77.5848 284.148H112.985L113.087 285.572C113.087 285.737 113.366 289.576 113.366 293.796C113.366 297.66 115.108 301.575 117.612 303.329C119.506 304.651 121.984 305.338 124.463 305.338C126.128 305.338 127.793 305.033 129.28 304.397C132.191 303.151 134.034 300.863 134.492 297.94C135.356 292.398 135.178 284.962 129.433 281.034C125.149 278.111 118.527 275.772 111.51 273.281C96.397 267.917 79.2881 261.841 77.5212 247.261C76.39 237.944 78.1441 230.419 82.6946 224.877C88.2874 218.077 97.9351 214.251 112.171 213.209C115.425 212.967 119.277 212.776 123.421 212.776M123.408 209.586C119.684 209.586 115.819 209.738 111.917 210.018C96.7784 211.137 86.4062 215.331 80.2287 222.843C75.0935 229.085 73.1233 237.423 74.3562 247.63C76.3518 264.167 94.4523 270.586 110.43 276.255C117.243 278.67 123.687 280.945 127.628 283.64C132 286.64 132.064 292.792 131.339 297.431C130.984 299.745 129.331 300.902 128.022 301.461C126.967 301.906 125.734 302.147 124.45 302.147C122.556 302.147 120.726 301.626 119.417 300.711C118.018 299.732 116.518 296.974 116.518 293.783C116.518 289.449 116.239 285.483 116.226 285.318L116.137 283.907L115.934 280.945H74.7121L74.3943 283.78L74.2418 285.14C72.8182 297.737 78.5127 309.977 88.4145 315.595C95.9013 319.841 109.337 322.37 124.336 322.37C143.834 322.37 159.901 318.366 167.312 311.668C173.362 306.189 176.972 296.224 176.489 286.271C176.082 277.793 172.828 270.878 167.35 266.798C161.325 262.324 151.969 259.197 142.906 256.172C134.161 253.248 124.285 249.943 120.866 246.194C118.044 243.092 117.002 237.461 118.565 233.661C119.506 231.36 121.272 230.165 123.967 230.012C124.018 230.012 124.069 230.012 124.107 230.012C126.128 230.012 127.234 230.457 128.111 231.373C130.005 233.343 130.907 237.398 130.475 241.961L130.323 243.651L130.005 247.121H172.37L172.637 244.223L172.765 242.825C173.527 234.322 171.176 227.241 165.773 221.763C157.816 213.692 143.567 209.599 123.395 209.599L123.408 209.586Z" fill="#828282"/>
</svg>
