<svg width="500" height="500" viewBox="0 0 500 500" fill="none" xmlns="http://www.w3.org/2000/svg">
<rect width="500" height="500" fill="#00263E"/>
<path d="M86 166V329.902H110.585V264.341H159.756V239.756H110.585V190.585H176.146V166H86ZM331.854 166V329.902H356.439V264.341H405.61V239.756H356.439V190.585H422V166H331.854ZM196.798 228.611L204.42 236.232L184.341 249.18C179.534 253.146 175.602 258.066 172.792 263.628C169.983 269.191 168.357 275.276 168.019 281.498C167.68 287.721 168.635 293.946 170.824 299.781C173.013 305.615 176.388 310.933 180.736 315.397C185.189 319.958 190.505 323.588 196.374 326.076C202.243 328.565 208.548 329.862 214.923 329.893C221.297 329.923 227.614 328.686 233.507 326.254C239.399 323.822 244.75 320.243 249.247 315.725L266.211 296.139L298.663 329.902H323.659V321.707H316.857L276.127 278.929C280.47 271.307 283.093 263.03 284.732 258.277L285.387 256.146H307.268V239.756H266.293C266.293 246.804 264.654 256.966 262.605 264.751L238.101 239.019L248.591 228.611C253.716 223.488 257.207 216.961 258.622 209.855C260.037 202.748 259.312 195.382 256.54 188.687C253.768 181.992 249.073 176.27 243.048 172.244C237.024 168.218 229.941 166.069 222.695 166.069C215.449 166.069 208.366 168.218 202.341 172.244C196.317 176.27 191.621 181.992 188.849 188.687C186.077 195.382 185.353 202.748 186.768 209.855C188.183 216.961 191.673 223.488 196.798 228.611ZM223.76 223.694L214.418 215.499C213.013 214.252 211.869 212.739 211.054 211.047C210.239 209.354 209.768 207.517 209.669 205.641C209.57 203.766 209.844 201.889 210.477 200.12C211.109 198.352 212.086 196.726 213.352 195.339C214.659 193.909 216.255 192.774 218.034 192.007C219.812 191.241 221.733 190.86 223.67 190.891C225.606 190.922 227.514 191.364 229.268 192.187C231.021 193.01 232.579 194.196 233.84 195.666C238.757 201.403 238.347 210.172 232.775 215.335L223.76 223.694ZM216.712 251.557L249.247 283.108L233.676 301.711C231.342 304.019 228.552 305.814 225.485 306.982C222.418 308.15 219.141 308.666 215.864 308.496C212.586 308.327 209.38 307.475 206.45 305.997C203.52 304.518 200.93 302.444 198.847 299.908C194.306 294.458 192.073 287.45 192.624 280.378C193.175 273.305 196.467 266.728 201.797 262.047L216.712 251.475V251.557Z" fill="white"/>
</svg>
