<svg width="500" height="500" viewBox="0 0 500 500" fill="none" xmlns="http://www.w3.org/2000/svg">
<rect width="500" height="500" fill="white"/>
<path fill-rule="evenodd" clip-rule="evenodd" d="M171.238 188.749C172.226 169.775 183.393 121.746 210.767 86.6641C204.541 88.2453 198.315 90.0241 192.386 92.2971C181.416 100.895 161.948 136.372 156.809 223.535C150.88 204.363 144.358 151.492 160.664 107.911C137.649 122.371 118.462 142.168 104.729 165.624C101.765 178.965 109.078 218.692 161.454 289.45C144.654 278.579 105.619 242.015 90.3012 197.939C88.0282 204.561 86.3482 211.281 84.9647 218.198L90.8903 229.263C97.8079 236.181 106.212 268.005 184.381 319.196C163.925 314.65 111.252 292.217 82 253.281C82.5929 282.532 90.5976 310.005 104.334 333.723L106.508 335.795C118.561 342.018 150.979 358.626 243.972 348.25C225.788 357.539 172.819 373.351 126.174 363.469C131.313 369.102 136.847 374.339 142.678 379.281C142.678 379.281 152.801 380.068 156.809 380.068C170.546 380.068 197.722 385.21 281.228 343.309C267.096 358.725 220.847 393.314 172.226 398.848C197.652 412.148 226.06 418.714 254.744 417.921C266.207 416.438 298.819 391.93 336.273 306.349C335.285 326.114 323.228 377.205 293.384 412.485C300.005 410.706 306.527 408.532 312.753 406.161L315.022 404.283C319.173 395.287 345.266 364.754 350.602 271.662C356.729 290.834 363.252 344.099 346.649 387.977C371.127 370.97 390.664 347.784 403.275 320.777C402.089 302.198 389.736 264.744 345.958 205.747C375.6 227.164 399.138 255.948 414.245 289.252C415.925 282.038 417.209 274.725 418 267.116C412.268 251.008 388.551 218.791 323.129 175.902C341.906 180.151 387.958 199.422 418 232.824C415.085 204.175 404.803 176.768 388.155 153.271C369.675 145.662 331.431 139.337 263.539 146.946C280.042 138.448 324.809 124.81 367.798 129.554C362.461 124.415 356.927 119.671 350.998 115.224C333.012 112.754 293.68 118.09 226.184 151.789C253.11 125.656 286.555 107.228 323.031 98.4241C297.787 86.3668 269.935 80.7963 241.995 82.2171C226.381 92.7912 200.292 122.339 171.238 188.848V188.749ZM250 338.961C261.68 338.961 273.245 336.66 284.036 332.19C294.827 327.721 304.632 321.169 312.891 312.91C321.15 304.651 327.701 294.847 332.171 284.056C336.641 273.265 338.941 261.699 338.941 250.019C338.941 238.34 336.641 226.774 332.171 215.983C327.701 205.192 321.15 195.387 312.891 187.129C304.632 178.87 294.827 172.318 284.036 167.848C273.245 163.379 261.68 161.078 250 161.078C226.411 161.078 203.789 170.449 187.109 187.129C170.429 203.808 161.059 226.431 161.059 250.019C161.059 273.608 170.429 296.231 187.109 312.91C203.789 329.59 226.411 338.961 250 338.961Z" fill="#AD8F2B"/>
<path d="M269.76 289.524V210.465H300.197C305.929 210.465 310.672 211.453 314.527 213.133C318.282 214.912 321.148 217.382 323.124 220.446C325.002 223.51 325.99 227.067 325.99 230.921C325.99 234.182 325.298 236.851 324.014 239.222C322.828 241.495 321.148 243.373 319.072 244.757C316.997 246.14 314.625 247.128 312.056 247.721V248.611C315.052 248.808 317.951 249.753 320.489 251.358C323.026 252.963 325.121 255.179 326.583 257.801C328.263 260.568 329.054 263.928 329.054 267.98C329.054 272.032 328.065 275.787 326.089 279.048C324.112 282.31 321.148 284.78 317.096 286.658C313.143 288.634 308.004 289.524 301.976 289.524H269.76ZM284.583 277.566H299.604C304.842 277.566 308.597 276.578 310.969 274.601C313.242 272.625 314.428 269.957 314.428 266.893C314.463 264.629 313.848 262.401 312.657 260.475C311.467 258.549 309.749 257.004 307.708 256.022C305.302 254.885 302.659 254.343 300 254.441H284.583V277.566ZM284.583 244.065H298.418C300.889 244.065 303.162 243.67 305.138 242.78C307.115 241.792 308.696 240.507 309.783 238.827C310.969 237.147 311.562 235.171 311.562 232.898C311.608 231.468 311.339 230.046 310.776 228.731C310.212 227.416 309.368 226.241 308.301 225.288C306.127 223.312 302.964 222.324 298.715 222.324H284.583V244.065ZM180.818 210.465H199.002L215.407 260.47L232.701 210.465H249.995V289.524H235.171V239.618L219.656 289.326H211.157L195.642 239.519V289.524H180.818V210.465Z" fill="#AD8F2B"/>
</svg>
