<svg width="500" height="500" viewBox="0 0 500 500" fill="none" xmlns="http://www.w3.org/2000/svg">
<rect width="500" height="500" fill="#034496"/>
<path d="M276.158 278.995C259.851 278.995 249.338 266.165 249.338 250.023C249.338 233.881 259.851 221.051 276.158 221.051C282.78 221.051 288.326 223.12 292.714 226.68L289.816 231.315C288.078 234.461 286.257 238.186 284.684 242.407C283.831 240.929 282.598 239.704 281.114 238.86C279.63 238.017 277.948 237.584 276.241 237.606C269.95 237.606 265.893 243.07 265.893 250.023C265.893 256.893 270.032 262.44 276.241 262.44C282.532 262.44 286.588 256.893 286.588 250.023C286.588 248.781 286.505 247.622 286.257 246.546C288.3 240.211 291.167 234.172 294.783 228.583H294.866C297.314 226.129 300.233 224.197 303.449 222.902C306.664 221.607 310.108 220.978 313.574 221.051C329.881 221.051 340.394 233.881 340.394 250.023C340.394 266.165 329.881 278.995 313.574 278.995C306.951 278.995 301.157 276.843 296.852 273.201C297.763 271.794 298.839 270.138 299.915 268.234C301.654 265.171 303.475 261.446 305.047 257.307C306.703 260.37 309.766 262.44 313.574 262.44C319.782 262.44 323.838 256.893 323.838 250.023C323.838 243.07 319.782 237.606 313.574 237.606C307.282 237.606 303.226 243.07 303.226 250.023C303.226 251.016 303.309 252.01 303.475 252.92C301.295 259.697 298.174 266.134 294.204 272.042C289.325 276.624 282.85 279.119 276.158 278.995Z" fill="#27A018"/>
<path d="M421.184 245.967V257.804H431.614C431.035 260.205 429.71 262.108 427.641 263.598C425.654 264.923 423.254 265.751 420.439 265.751C415.969 265.751 412.658 264.261 410.175 261.612C407.774 258.797 406.615 254.99 406.615 250.023C406.615 245.139 407.691 241.248 410.009 238.517C412.327 235.785 415.39 234.378 419.529 234.378C425.571 234.378 429.379 236.613 431.035 241.248H447.259C446.431 234.957 443.451 230.073 438.402 226.431C433.435 222.872 427.061 221.051 419.363 221.051C415.435 220.818 411.501 221.388 407.801 222.726C404.101 224.064 400.712 226.141 397.841 228.832C392.626 234.047 390.06 241.166 390.06 250.023V221.051H373.504V256.066L356.617 221.051H340.393V278.995H356.948V244.063L373.835 278.995H390.06V250.023C390.06 258.88 392.543 265.916 397.51 271.131C402.476 276.346 409.098 278.995 417.376 278.995C421.267 278.995 424.826 278.25 428.137 276.843C431.366 275.436 433.932 273.284 435.587 270.469L437.243 277.754H448.004V245.967H421.184Z" fill="white"/>
<path fill-rule="evenodd" clip-rule="evenodd" d="M235.265 221.051H207.948V256.065L185.515 221.051H166.559V229.075C161.54 224.092 154.447 221.051 145.864 221.051C142.018 220.899 138.183 221.545 134.6 222.947C131.016 224.35 127.762 226.478 125.04 229.2C124.114 230.126 123.257 231.114 122.473 232.155L125.17 221.051H108.615L102.075 258.301L95.1217 221.051H80.7183L73.765 258.301L67.2255 221.051H50.6699L64.7422 278.995H81.1322L87.92 241.745L94.7078 278.995H111.098L117.141 254.114C118.891 268.279 129.751 278.995 145.864 278.995C154.447 278.995 161.54 275.954 166.559 270.971V278.995H183.115V244.063L205.548 278.995H224.504V262.44H235.265C247.599 262.44 257.615 254.162 257.615 241.248C257.615 228.335 247.516 221.051 235.265 221.051ZM224.504 234.709V247.705H234.023C238.741 247.705 241.059 245.387 241.059 241.248C241.059 237.027 238.576 234.709 234.023 234.709H224.504ZM133.447 250.023C133.447 256.893 138.331 262.44 145.864 262.44C153.397 262.44 158.28 256.893 158.28 250.023C158.28 243.07 153.397 237.606 145.864 237.606C138.331 237.606 133.447 243.07 133.447 250.023Z" fill="white"/>
</svg>
