<svg width="500" height="500" viewBox="0 0 500 500" fill="none" xmlns="http://www.w3.org/2000/svg">
<rect width="500" height="500" fill="white"/>
<path d="M240.447 230.982H257.359V238.249H257.552C260.74 232.82 267.911 229.444 274.264 229.444C291.976 229.444 293.428 242.345 293.428 250.032V284.144H276.006V258.434C276.006 251.155 276.834 243.786 267.304 243.786C260.745 243.786 257.869 249.311 257.869 255.16V284.144H240.459V230.982H240.447Z" fill="#595758"/>
<path d="M316.342 266.817C316.342 269.484 317.47 271.43 319.206 272.769C320.846 273.994 323.212 274.612 325.657 274.612C329.044 274.612 333.86 273.171 333.86 268.968C333.86 264.764 328.437 264.06 325.356 263.334C314.401 260.566 300.667 260.271 300.667 245.924C300.667 233.119 314.492 229.636 324.948 229.636C336.617 229.636 348.82 233.012 349.433 246.843H333.349C333.349 244.596 332.532 243.155 331.097 242.236C329.656 241.317 327.716 240.909 325.56 240.909C322.695 240.909 318.078 241.209 318.078 244.902C318.078 249.923 329.758 250.848 337.746 252.589C348.502 254.745 351.276 262.529 351.276 266.931C351.276 281.17 337.746 285.885 325.77 285.885C313.165 285.885 300.258 281.687 299.742 266.829H316.342V266.817Z" fill="#595758"/>
<path d="M383.017 272.257C391.107 272.257 393.671 264.275 393.671 257.513C393.671 250.75 391.107 242.666 383.017 242.666C374.927 242.666 372.465 250.756 372.465 257.513C372.465 264.269 374.916 272.257 383.017 272.257ZM383.017 229.34C399.509 229.34 411.082 241.532 411.082 257.507C411.082 273.482 399.503 285.577 383.017 285.577C366.531 285.577 355.055 273.488 355.055 257.507C355.055 241.526 366.526 229.34 383.017 229.34Z" fill="#595758"/>
<path d="M434 211H416.578V284.137H434V211Z" fill="#595758"/>
<path d="M108.859 211H128.76V238.066H151.782V211H171.547V284.143H151.782V255.295H128.76V284.143H108.859V211Z" fill="#595758"/>
<path d="M88.7376 211H66V236.971H88.7376V211Z" fill="#116FB5"/>
<path d="M88.7376 257.243H66V284.139H88.7376V257.243Z" fill="#159244"/>
<path d="M202.879 274.924C211.178 274.924 213.941 270.216 213.533 259.255C211.076 260.793 206.572 261.105 202.777 262.126C198.885 263.045 195.612 264.679 195.612 268.882C195.612 273.086 198.993 274.924 202.879 274.924ZM180.345 247.376C180.657 240.398 183.936 235.905 188.645 233.131C193.354 230.47 199.503 229.455 205.539 229.455C218.134 229.455 230.331 232.212 230.331 247.262V270.522C230.331 275.032 230.331 279.945 232.384 284.137H214.866C214.248 282.498 214.038 280.864 213.833 279.117C209.335 283.831 202.675 285.669 196.326 285.669C186.189 285.669 178.195 280.552 178.195 269.591C178.195 252.283 197.047 253.616 209.125 251.154C212.103 250.541 213.737 249.515 213.737 246.241C213.737 242.242 208.921 240.71 205.341 240.71C200.53 240.71 197.45 242.854 196.638 247.37H180.351L180.345 247.376Z" fill="#595758"/>
</svg>
