<svg width="500" height="500" viewBox="0 0 500 500" fill="none" xmlns="http://www.w3.org/2000/svg">
<rect width="500" height="500" fill="#1F59AD"/>
<path d="M89.7719 260.562C88.4707 257.611 84.8756 257.289 82.0854 257.302C77.4619 257.329 72.9054 257.315 68.416 257.262C61.7088 257.168 55.0954 254.659 51.5808 248.744C48.4955 243.512 48.1199 236.577 48.8979 230.594C49.3898 226.909 50.5747 223.793 52.4528 221.244C56.8393 215.315 64.0161 214 71.2599 214L105.896 214.027C105.956 214.032 106.013 214.058 106.056 214.099C106.1 214.14 106.129 214.195 106.138 214.255V228.649C106.139 228.689 106.132 228.73 106.115 228.767C106.099 228.804 106.075 228.837 106.044 228.863C106.015 228.894 105.979 228.917 105.939 228.931C105.9 228.945 105.857 228.949 105.816 228.944C95.2003 228.917 84.9516 228.917 75.0696 228.944C71.1794 228.944 67.7855 229.936 67.316 234.444C66.8599 238.844 68.6172 242.291 73.527 242.345L86.7 242.412C96.0902 242.425 104.984 245.363 107.935 255.276C109.017 258.907 109.366 263.035 108.982 267.658C108.552 272.662 106.902 277.41 103.24 280.791C98.5048 285.137 92.3207 285.969 86.1232 285.969H50.8833C50.7765 285.969 50.6742 285.926 50.5987 285.851C50.5232 285.775 50.4808 285.673 50.4808 285.566V271.347C50.4808 271.141 50.5837 271.039 50.7894 271.039C60.6356 271.065 71.4164 271.065 83.1317 271.039C84.428 271.03 85.7144 270.812 86.9415 270.395C90.9122 268.999 91.0865 263.553 89.7585 260.562M138.252 214.013H120.907C120.849 214.022 120.796 214.048 120.755 214.089C120.714 214.13 120.687 214.184 120.679 214.241V285.741C120.688 285.884 120.764 285.96 120.907 285.969H138.252C138.395 285.951 138.471 285.875 138.48 285.741V214.241C138.472 214.184 138.445 214.13 138.404 214.089C138.363 214.048 138.31 214.022 138.252 214.013ZM169.669 231.332V285.781C169.669 285.825 169.652 285.867 169.622 285.9C169.593 285.932 169.552 285.952 169.508 285.955H152.954C152.895 285.952 152.838 285.928 152.793 285.888C152.754 285.844 152.73 285.787 152.726 285.727V214.201C152.726 214.148 152.744 214.103 152.78 214.067C152.795 214.046 152.815 214.03 152.839 214.021C152.863 214.011 152.889 214.009 152.914 214.013H181.742C181.829 214.013 181.914 214.042 181.983 214.094C182.057 214.151 182.11 214.231 182.131 214.322L195.908 266.558C196.042 267.095 196.185 267.095 196.337 266.558L210.194 214.201L210.274 214.067L210.409 214.013H239.223C239.312 214.013 239.384 214.045 239.438 214.107C239.491 214.17 239.518 214.237 239.518 214.309V285.808L239.478 285.915L239.371 285.955H221.865L221.771 285.915L221.73 285.821V231.493C221.73 230.509 221.596 230.491 221.328 231.439L206.237 285.647C206.174 285.853 206.04 285.955 205.834 285.955H185.552C185.382 285.955 185.274 285.879 185.23 285.727L170.071 231.278C169.803 230.384 169.66 230.401 169.669 231.332ZM271.619 262.507L271.579 285.633C271.582 285.676 271.576 285.719 271.56 285.759C271.543 285.799 271.518 285.834 271.485 285.862C271.457 285.894 271.422 285.92 271.382 285.936C271.343 285.953 271.3 285.959 271.257 285.955H254.059L253.952 285.942L253.872 285.888L253.818 285.808L253.805 285.714L253.791 214.295C253.792 214.224 253.821 214.157 253.872 214.107C253.921 214.057 253.989 214.028 254.059 214.027H291.325C296.302 214.04 301.614 214.738 306 217.152C315.484 222.384 317.309 233.008 316.061 243.23C314.599 255.478 305.491 261.943 293.525 262.024C286.594 262.095 279.44 262.109 272.062 262.064C271.776 262.064 271.619 262.212 271.619 262.507ZM271.632 229.145L271.592 246.919C271.6 246.977 271.627 247.03 271.668 247.071C271.709 247.112 271.763 247.139 271.82 247.147L289.554 247.174C291.719 247.179 293.803 246.353 295.376 244.867C296.88 243.394 297.746 241.391 297.791 239.286V236.872C297.791 235.825 297.579 234.788 297.169 233.825C296.758 232.861 296.158 231.99 295.403 231.264C293.843 229.765 291.759 228.932 289.594 228.944L271.847 228.904C271.816 228.903 271.785 228.91 271.757 228.922C271.728 228.934 271.702 228.952 271.681 228.975C271.66 228.998 271.643 229.024 271.632 229.054C271.622 229.083 271.631 229.114 271.632 229.145ZM336.478 272.085L331.837 285.794L331.756 285.915L331.622 285.955H312.802C312.745 285.952 312.692 285.93 312.648 285.894C312.605 285.858 312.574 285.809 312.56 285.754V285.633L340.127 214.161L340.221 214.054L340.355 214.013H360.852C360.898 214.018 360.941 214.034 360.979 214.059C361.016 214.085 361.047 214.12 361.067 214.161L388.62 285.647C388.636 285.701 388.634 285.759 388.614 285.812C388.595 285.865 388.56 285.91 388.513 285.942L388.406 285.969H369.169L369.035 285.915L368.955 285.794L364.3 272.085C364.28 272.04 364.249 272.001 364.208 271.972C364.168 271.944 364.121 271.927 364.072 271.924H336.706L336.559 271.964L336.478 272.085ZM341.576 257.061V257.141C341.576 257.186 341.585 257.213 341.603 257.222L341.67 257.275L341.75 257.302H359.028C359.072 257.302 359.114 257.286 359.147 257.256C359.179 257.226 359.199 257.185 359.202 257.141V257.061L350.55 231.439C350.539 231.405 350.517 231.375 350.489 231.353C350.46 231.331 350.425 231.319 350.389 231.318C350.344 231.318 350.309 231.327 350.282 231.345L350.215 231.439L341.576 257.061ZM432.405 228.944C421.446 228.971 412.337 231.09 410.835 243.834C410.218 249.092 410.347 253.939 411.224 258.375C413.37 269.348 422.398 270.945 431.882 271.012C438.035 271.065 444.25 271.07 450.528 271.025C450.815 271.025 450.958 271.168 450.958 271.454L450.998 285.754C451 285.775 450.997 285.795 450.991 285.815C450.984 285.834 450.974 285.852 450.96 285.867C450.946 285.882 450.929 285.895 450.91 285.903C450.891 285.911 450.871 285.915 450.85 285.915C442.033 286.04 433.313 286.027 424.692 285.875C419.061 285.85 413.493 284.682 408.326 282.441C395.73 276.914 392.068 264.117 391.826 251.52C391.625 240.199 393.745 227.415 403.604 220.318C409.842 215.824 418.173 214.148 425.966 214.08C433.523 214 441.635 213.987 450.3 214.04C450.372 214.04 450.43 214.067 450.475 214.121C450.514 214.165 450.538 214.222 450.542 214.282L450.502 228.582C450.494 228.672 450.456 228.757 450.394 228.823C450.328 228.885 450.243 228.923 450.153 228.93L432.405 228.944Z" fill="white"/>
</svg>
