<svg width="500" height="500" viewBox="0 0 500 500" fill="none" xmlns="http://www.w3.org/2000/svg">
<rect width="500" height="500" fill="#0B5AA0"/>
<path fill-rule="evenodd" clip-rule="evenodd" d="M77.2133 256.262L48.6895 229H65.496L83.0109 245.847L100.648 229H150.001C154.618 229 158.64 231.923 160.293 236.141V229H172.247V256.604C172.247 258.827 174.022 260.708 176.033 260.708H197.098C199.109 260.708 201.235 258.599 201.235 256.498V229H219.938L241.948 256.848V229H253.543V237.892C255.204 229.464 263.722 229 265.497 229H295.56C300.413 229 304.549 231.809 305.852 237.42C307.033 231.687 310.941 229 316.03 229H348.112C353.08 229 357.574 232.518 358.877 237.534V229H377.817L399.004 256.962V229H447.999V238.242H410.355V245.497H445.271V253.917H410.355V261.758H447.999V271H394.387L370.122 239.056V271H358.877V262.336C357.688 267.132 353.666 270.642 348.943 271H315.924C310.583 271 307.041 267.841 305.974 262.686C305.616 267.841 301.601 271 296.154 271H264.902C259.113 271 254.846 268.305 253.543 262.108V271H238.162L213.066 239.178V258.949C213.066 266.09 208.921 271 202.293 271H170.814C165.846 271 161.816 267.368 160.635 262.458C159.454 268.313 153.893 271 148.568 271H120.394C113.888 271 107.618 267.718 107.618 259.763V247.37H120.166V256.262C120.166 258.713 121.933 260.708 124.188 260.708H145.14C147.029 260.235 148.568 258.477 148.568 256.376V243.624C148.568 241.515 147.029 239.765 145.14 239.292H106.674L88.9225 256.254V271H77.2052V256.254L77.2133 256.262ZM294.517 257.076C294.517 259.299 293.328 260.708 290.959 260.708H269.658C266.93 260.708 265.513 258.477 265.513 256.262V243.738H265.635C265.635 241.515 267.052 239.765 269.063 239.292H342.917C345.287 239.292 346.94 241.515 346.94 243.738V256.262C346.94 258.713 345.173 260.708 342.559 260.708H322.439C319.955 260.708 317.944 258.949 317.944 256.262V246.32H279.005V254.747H294.517V257.084V257.076Z" fill="white"/>
</svg>
