<svg width="500" height="500" viewBox="0 0 500 500" fill="none" xmlns="http://www.w3.org/2000/svg">
<rect width="500" height="500" fill="#F9FBFB"/>
<path d="M374.4 201.201V178.185L408 150.801V173.145L374.4 201.201ZM105.6 251.601C105.6 273.021 122.232 293.601 147.6 293.601C168.432 293.601 189.6 276.801 189.6 251.601C189.6 230.097 174.144 209.601 147.6 209.601C126.432 209.601 105.6 226.233 105.6 251.601ZM72 251.853C71.9999 231.779 79.9568 212.524 94.1274 198.306C108.298 184.088 127.526 176.067 147.6 176.001C162.542 176.001 177.148 180.428 189.575 188.724C202.002 197.02 211.692 208.813 217.421 222.612C223.15 236.411 224.662 251.599 221.765 266.257C218.869 280.915 211.693 294.386 201.146 304.969C190.598 315.552 177.151 322.772 162.503 325.717C147.854 328.663 132.662 327.201 118.843 321.518C105.025 315.835 93.2005 306.184 84.8632 293.785C76.526 281.386 72.0498 266.794 72 251.853ZM304.68 293.601C312.174 293.31 319.47 291.114 325.878 287.219C332.286 283.324 337.596 277.859 341.304 271.341L366 292.761C359.536 303.228 350.517 311.88 339.79 317.905C329.064 323.929 316.982 327.128 304.68 327.201C264.36 327.201 231.6 293.349 231.6 251.853C231.6 210.021 264.36 176.001 304.68 176.001C316.984 176.066 329.069 179.261 339.796 185.286C350.524 191.312 359.542 199.968 366 210.441L339.708 231.021C336.344 224.623 331.313 219.254 325.146 215.483C318.98 211.712 311.908 209.68 304.68 209.601C279.816 209.601 265.2 230.097 265.2 251.601C265.2 273.021 280.74 293.601 304.68 293.601ZM374.4 297.213V214.473L408 184.401V327.201L374.4 297.213Z" fill="#E31E30"/>
</svg>
