<svg width="500" height="500" viewBox="0 0 500 500" fill="none" xmlns="http://www.w3.org/2000/svg">
<rect width="500" height="500" fill="#F9FBFB"/>
<path d="M328.174 223.481V300.003H351.13V223.481H328.174ZM381.739 284.699V223.481H358.783V300.003H420V284.699H381.739ZM236.348 269.394H205.739V254.09H236.348V269.394ZM282.261 223.481C259.611 223.481 244 237.714 244 261.742C244 293.193 266.038 300.003 282.261 300.003C298.56 300.003 320.522 293.116 320.522 261.742C320.522 229.144 298.407 223.481 282.261 223.481ZM282.261 284.699C273.767 284.699 266.957 277.276 266.957 261.742C266.957 246.208 273.69 238.786 282.261 238.786C290.831 238.786 297.565 246.285 297.565 261.742C297.565 277.2 290.831 284.699 282.261 284.699Z" fill="#007B3D"/>
<path d="M179.722 198.383C167.62 196.62 155.292 199.341 145.057 206.036C130.977 215.524 127.84 232.665 127.84 232.665C146.052 208.484 172.375 215.218 172.375 215.218C172.375 215.218 175.13 213.152 177.655 207.413C178.924 204.569 179.601 201.497 179.645 198.383H179.722Z" fill="url(#paint0_radial_40_220)"/>
<path d="M141.844 177.569C131.225 183.885 123.218 193.793 119.27 205.5C113.913 221.799 121.872 237.256 121.872 237.256C121.489 206.724 146.359 195.399 146.359 195.399C146.359 195.399 147.2 192.108 145.746 185.987C144.981 182.926 143.68 180.095 141.92 177.569H141.844Z" fill="url(#paint1_radial_40_220)"/>
<path d="M99.527 185.068C95.0357 196.693 94.738 209.519 98.6852 221.34C102.635 231.446 110.185 239.732 119.882 244.602C101.21 220.881 113.837 196.317 113.837 196.317C113.837 196.317 112.536 193.103 107.715 189.201C105.311 187.256 102.519 185.848 99.527 185.068Z" fill="url(#paint2_radial_40_220)"/>
<path d="M70.9844 217.513C74.3597 229.4 81.8437 239.704 92.1044 246.591C106.337 255.85 122.866 251.718 122.866 251.718C93.7878 244.754 88.967 217.36 88.967 217.36C88.967 217.36 86.0591 215.829 79.8609 215.829C76.8 215.829 73.7392 216.365 70.9844 217.589V217.513Z" fill="url(#paint3_radial_40_220)"/>
<path d="M68 261.437C77.8687 268.653 90.029 272.027 102.205 270.925C112.907 269.332 122.625 263.79 129.447 255.391C102.435 268.324 82.0035 249.882 82.0035 249.882C82.0035 249.882 78.713 250.494 73.8922 254.397C71.4589 256.307 69.4519 258.705 68 261.437Z" fill="url(#paint4_radial_40_220)"/>
<path d="M169.544 251.794C162.351 249.193 155.005 247.356 155.464 243.913C155.847 240.928 159.29 238.786 166.254 238.786C174.365 238.786 182.323 241.847 188.369 244.219L196.021 229.909C190.664 227.614 177.655 223.481 164.8 223.481C144.751 223.481 131.742 232.052 131.742 245.367C131.742 261.742 147.506 266.334 160.056 270.466C167.708 272.991 174.442 274.904 174.442 278.883C174.442 284.24 166.024 285.005 162.581 284.699C152.709 284.01 143.909 279.036 137.558 275.516L129.217 289.749C139.971 296.234 152.244 299.771 164.8 300.003C185.078 300.003 198.087 292.427 198.087 276.817C198.087 260.747 182.247 256.309 169.544 251.718V251.794Z" fill="#007B3D"/>
<defs>
<radialGradient id="paint0_radial_40_220" cx="0" cy="0" r="1" gradientUnits="userSpaceOnUse" gradientTransform="translate(125.544 237.639) scale(51.4962 52.6369)">
<stop offset="0.6" stop-color="#FFCC00"/>
<stop offset="1" stop-color="#F9B000"/>
</radialGradient>
<radialGradient id="paint1_radial_40_220" cx="0" cy="0" r="1" gradientUnits="userSpaceOnUse" gradientTransform="translate(132.272 245.442) rotate(-38.97) scale(52.1986 52.4535)">
<stop offset="0.6" stop-color="#FFCC00"/>
<stop offset="1" stop-color="#F9B000"/>
</radialGradient>
<radialGradient id="paint2_radial_40_220" cx="0" cy="0" r="1" gradientUnits="userSpaceOnUse" gradientTransform="translate(124.502 243.844) rotate(-76.67) scale(52.5735 51.5448)">
<stop offset="0.6" stop-color="#FFCC00"/>
<stop offset="1" stop-color="#F9B000"/>
</radialGradient>
<radialGradient id="paint3_radial_40_220" cx="0" cy="0" r="1" gradientUnits="userSpaceOnUse" gradientTransform="translate(128.146 245.673) rotate(-113.833) scale(52.4524 51.691)">
<stop offset="0.6" stop-color="#FFCC00"/>
<stop offset="1" stop-color="#F9B000"/>
</radialGradient>
<radialGradient id="paint4_radial_40_220" cx="0" cy="0" r="1" gradientUnits="userSpaceOnUse" gradientTransform="translate(131.01 247.098) rotate(-152.11) scale(51.7462 52.3964)">
<stop offset="0.6" stop-color="#FFCC00"/>
<stop offset="1" stop-color="#F9B000"/>
</radialGradient>
</defs>
</svg>
