<svg width="500" height="500" viewBox="0 0 500 500" fill="none" xmlns="http://www.w3.org/2000/svg">
<rect width="500" height="500" fill="#003378"/>
<path d="M305.579 268.816C314.869 268.816 320.044 270.11 320.161 276.342C320.161 279.753 317.927 283.751 315.34 285.633C309.695 289.984 304.638 290.454 278.06 290.454H146.584L171.985 184.379H128.12C125.18 184.379 124.122 185.202 123.181 188.73L99.0731 288.102C94.4867 307.859 104.718 325.97 127.532 325.97H187.861C203.149 325.97 223.612 309.27 231.844 293.865C232.314 293.042 232.549 292.454 232.902 291.748C232.902 291.748 233.02 291.513 233.137 291.748C231.844 297.275 227.257 316.797 226.434 320.09C225.493 324.206 227.61 325.852 229.609 325.852H294.524C349.561 325.852 370.964 299.627 372.846 268.228C373.904 250.588 362.732 239.181 331.098 239.181H306.872C298.288 239.181 289.35 236.358 289.35 229.302C289.35 222.246 298.993 216.249 311.929 216.249H370.964C370.964 216.249 376.139 195.551 377.197 191.2C378.491 185.79 376.844 184.144 372.846 184.144H299.816C257.363 184.144 238.429 212.486 238.429 232.713C238.429 252.94 254.776 268.581 296.876 268.581H305.461L305.579 268.816Z" fill="white"/>
<path d="M334.273 166.857H451.756L391.309 197.903C391.309 197.903 393.779 187.79 394.484 184.732C395.19 181.557 394.249 179.087 389.663 178.146C385.194 177.206 334.273 166.857 334.273 166.857Z" fill="#E6003E"/>
</svg>
