<svg width="500" height="500" viewBox="0 0 500 500" fill="none" xmlns="http://www.w3.org/2000/svg">
<rect width="500" height="500" fill="white"/>
<path d="M199.676 230.704H188.217V288H199.676V230.704Z" fill="#1B2E4C"/>
<path d="M111.474 220.742V210.92H64V220.742H82.0073V287.999H93.4665V220.742H111.474Z" fill="#1B2E4C"/>
<path d="M199.676 208.709H188.217V220.987H199.676V208.709Z" fill="#1B2E4C"/>
<path d="M226.268 209.422H215.055V287.999H226.268V255.586C226.268 248.17 232.276 242.162 239.692 242.162C247.108 242.162 253.116 248.17 253.116 255.586V287.999H264.247V255.259C264.239 241.696 253.238 230.711 239.676 230.72C234.912 230.72 230.255 232.111 226.268 234.714V209.422Z" fill="#1B2E4C"/>
<path d="M372.251 229.68C358.688 229.68 347.695 240.672 347.695 254.235V286.976H359.294V254.235C359.294 247.458 365.097 241.957 372.251 241.957C379.405 241.957 385.208 247.458 385.208 254.235V286.976H396.806V254.235C396.806 240.672 385.814 229.68 372.251 229.68Z" fill="#1B2E4C"/>
<path fill-rule="evenodd" clip-rule="evenodd" d="M332.71 276.13C331.482 276.13 330.418 275.066 330.418 273.839V230.703H318.959V235.859C308.613 228.632 293.937 229.025 284.025 236.834C271.591 246.615 269.439 264.63 279.228 277.064C289.017 289.497 307.025 291.649 319.458 281.86C321.422 285.543 325.27 287.999 329.689 287.999H338.611V276.13H332.718H332.71ZM301.77 276.744C292.161 276.744 284.376 268.96 284.376 259.351C284.376 249.741 292.161 241.957 301.77 241.957C311.379 241.957 319.163 249.741 319.163 259.351C319.163 268.96 311.379 276.744 301.77 276.744Z" fill="#1B2E4C"/>
<path fill-rule="evenodd" clip-rule="evenodd" d="M169.458 276.13C168.23 276.13 167.166 275.066 167.166 273.839V230.703H155.707V235.859C145.361 228.632 130.685 229.025 120.773 236.834C108.339 246.615 106.187 264.63 115.976 277.064C125.766 289.497 143.773 291.649 156.206 281.86C158.171 285.543 162.018 287.999 166.438 287.999H175.359V276.13H169.458ZM138.518 276.744C128.909 276.744 121.125 268.96 121.125 259.351C121.125 249.741 128.909 241.957 138.518 241.957C148.127 241.957 155.911 249.741 155.911 259.351C155.911 268.96 148.127 276.744 138.518 276.744Z" fill="#1B2E4C"/>
<path d="M423.353 186.2C425.318 186.2 427.446 187.837 427.446 189.802V205.763L437.923 194.058C439.322 192.634 441.614 192.617 443.038 194.017C444.463 195.417 444.479 197.709 443.079 199.133L430.965 210.756H448.4C450.364 210.756 452.001 212.802 452.001 214.848C452.001 216.895 450.364 218.941 448.4 218.941H432.111L443.57 229.991C444.856 231.513 444.659 233.78 443.137 235.066C441.794 236.195 439.838 236.195 438.496 235.066L427.446 222.788V239.895C427.446 241.859 425.318 243.496 423.353 243.496C421.389 243.496 419.261 241.859 419.261 239.895V223.279L407.638 234.574C406.213 235.974 403.922 235.958 402.522 234.534C401.122 233.109 401.139 230.817 402.563 229.418L413.449 218.941H398.307C396.342 218.941 394.705 216.895 394.705 214.848C394.705 212.802 396.342 210.756 398.307 210.756H414.595L403.136 199.706C401.851 198.183 402.047 195.916 403.57 194.631C404.912 193.501 406.868 193.501 408.211 194.631L419.261 205.272V189.802C419.261 187.837 421.389 186.2 423.353 186.2ZM422.944 221.724C426.971 221.724 430.229 218.466 430.229 214.439C430.229 210.412 426.971 207.154 422.944 207.154C418.917 207.154 415.659 210.412 415.659 214.439C415.659 218.466 418.917 221.724 422.944 221.724Z" fill="url(#paint0_linear_781_1600)"/>
<defs>
<linearGradient id="paint0_linear_781_1600" x1="402.874" y1="195.327" x2="443.963" y2="234.452" gradientUnits="userSpaceOnUse">
<stop offset="0.05" stop-color="#00AF6F"/>
<stop offset="0.4" stop-color="#00A7B6"/>
<stop offset="0.8" stop-color="#285495"/>
<stop offset="1" stop-color="#222A4E"/>
</linearGradient>
</defs>
</svg>
