<svg width="500" height="500" viewBox="0 0 500 500" fill="none" xmlns="http://www.w3.org/2000/svg">
<rect width="500" height="500" fill="#F9FBFB"/>
<path d="M315.87 382.639C307.231 391.311 296.966 398.192 285.662 402.888C274.358 407.583 262.238 410 249.997 410C237.757 410 225.637 407.583 214.333 402.888C203.029 398.192 192.763 391.311 184.125 382.639L117.312 315.919C108.639 307.281 101.758 297.016 97.0626 285.711C92.3672 274.407 89.9502 262.287 89.9502 250.047C89.9502 237.807 92.3672 225.687 97.0626 214.383C101.758 203.079 108.639 192.813 117.312 184.175L184.125 117.361C192.763 108.689 203.029 101.808 214.333 97.1124C225.637 92.417 237.757 90 249.997 90C262.238 90 274.358 92.417 285.662 97.1124C296.966 101.808 307.231 108.689 315.87 117.361L382.683 184.175C391.355 192.813 398.237 203.079 402.932 214.383C407.627 225.687 410.044 237.807 410.044 250.047C410.044 262.287 407.627 274.407 402.932 285.711C398.237 297.016 391.355 307.281 382.683 315.919L315.87 382.733V382.639Z" fill="#ED1D24"/>
<path d="M212.356 344.151C207.65 344.151 202.945 339.446 202.945 334.74C202.945 331.635 204.545 330.035 206.051 328.436C207.65 326.93 210.756 325.33 212.356 325.33C217.061 325.33 221.766 330.035 221.766 334.74C221.766 339.446 217.061 344.151 212.356 344.151Z" fill="white"/>
<path d="M245.762 165.354C240.775 165.354 235.881 168.177 232.588 171.376C224.307 179.281 221.766 191.703 221.766 212.217C221.766 243.93 228.259 329.846 275.405 329.846C293.284 329.846 308.623 311.308 318.222 298.134C319.822 294.934 323.115 293.428 326.503 293.428C328.103 293.428 329.702 293.428 331.396 294.934C333.09 296.534 334.69 298.134 334.69 299.639C334.69 301.239 334.69 304.438 333.09 306.038C309.564 341.327 263.736 362.5 232.588 322.506C202.945 286.088 202.945 227.933 202.945 221.628C202.945 204.219 204.639 171.376 219.413 157.167C226.555 150.447 235.958 146.653 245.762 146.533H247.456C257.243 146.533 267.218 150.768 273.805 157.167C288.579 171.376 287.638 193.114 287.638 214.193C287.638 233.202 283.592 281.854 265.524 301.71C262.983 304.439 260.537 306.509 257.243 306.509C255.643 306.509 253.949 306.415 252.35 304.815C247.362 301.615 247.08 294.746 249.056 291.829C263.924 269.62 268.818 244.212 268.818 212.594C268.818 191.985 267.124 176.176 258.937 169.777C257.243 168.177 254.043 165.354 245.762 165.354Z" fill="#F0F3FA"/>
</svg>
