<svg width="500" height="500" viewBox="0 0 500 500" fill="none" xmlns="http://www.w3.org/2000/svg">
<rect width="500" height="500" fill="#BFD532"/>
<path d="M339.945 263.547L338.734 263.885C337.766 264.17 337.271 263.802 337.251 262.781C337.23 262.454 337.342 262.158 337.584 261.892C337.648 261.812 337.692 261.719 337.713 261.619C337.734 261.518 337.732 261.414 337.705 261.315C337.678 261.217 337.63 261.125 337.56 261.051C337.492 260.975 337.407 260.917 337.311 260.882C335.394 260.166 333.769 260.289 332.438 261.248C331.125 262.209 330.711 261.903 331.195 260.329L335.072 248.102C335.858 246.101 337.948 241.994 341.338 235.782C351.753 216.681 357.949 195.086 359.927 171C364.318 117.372 321.961 109.772 280.938 117.28C257.04 121.672 229.802 131.182 199.223 145.809L195.408 145.749C194.257 145.728 193.55 145.156 193.288 144.033C192.824 142.092 191.684 140.866 189.868 140.356C188.959 140.11 188.283 139.558 187.839 138.701C186.467 136.064 184.519 134.42 181.996 133.767C181.268 133.582 180.644 133.215 180.119 132.663C178.767 131.234 177.111 130.222 175.154 129.629C174.286 129.365 173.791 128.772 173.669 127.853C173.488 126.402 172.781 125.339 171.551 124.665C170.703 124.175 170.036 123.501 169.552 122.642C168.967 121.519 168.776 120.273 168.977 118.904C169.138 117.678 168.613 116.963 167.402 116.759C165.606 116.452 163.911 116.687 162.317 117.464C161.065 118.056 160.973 117.903 162.044 117.004C162.589 116.534 162.538 116.033 161.892 115.502C182.339 110.599 205.369 107.606 230.983 106.523C269.856 104.899 307.762 106.707 344.124 116.912C361.593 121.784 371.341 133.429 373.158 150.928C377.276 190.827 362.017 230.788 339.945 263.547Z" fill="white"/>
<path d="M161.891 115.5C162.537 116.031 162.588 116.532 162.042 117.002C160.972 117.9 161.063 118.054 162.314 117.461C163.909 116.685 165.605 116.45 167.401 116.756C168.612 116.961 169.137 117.676 168.975 118.902C168.773 120.27 168.966 121.516 169.551 122.64C170.035 123.498 170.702 124.172 171.549 124.663C172.78 125.337 173.486 126.399 173.668 127.849C173.79 128.77 174.283 129.361 175.151 129.627C177.11 130.22 178.764 131.231 180.117 132.662C180.642 133.213 181.267 133.581 181.994 133.764C184.518 134.418 186.464 136.063 187.838 138.698C188.281 139.557 188.958 140.108 189.865 140.353C191.682 140.863 192.823 142.09 193.287 144.03C193.549 145.154 194.256 145.726 195.407 145.746L199.222 145.808L149.084 171.856C149.226 169.853 148.943 168.066 148.236 166.493C147.812 165.574 147.126 164.94 146.178 164.593C142.09 163.122 141.727 159.383 139.94 156.932C135.198 150.497 129.253 145.695 122.108 142.528C124.146 134.806 128.94 128.974 136.49 125.031C144.563 120.801 153.03 117.625 161.891 115.5Z" fill="white"/>
<path d="M149.091 171.857L112.033 195.209C111.835 195.338 111.604 195.408 111.368 195.406C111.131 195.406 110.9 195.336 110.699 195.203C110.499 195.071 110.339 194.884 110.237 194.663C110.136 194.44 110.097 194.194 110.126 193.952C112.286 177.322 116.282 160.181 122.116 142.529C129.261 145.696 135.204 150.498 139.948 156.933C141.734 159.384 142.098 163.123 146.185 164.594C147.134 164.941 147.82 165.575 148.244 166.494C148.95 168.067 149.232 169.855 149.091 171.857Z" fill="white"/>
<path d="M134.37 208.354C166.22 190.089 195.375 175.727 221.837 165.267C234.473 160.263 248.54 157.045 264.041 155.614C264.244 155.594 264.365 155.686 264.405 155.89L264.587 156.901C264.617 157.112 264.573 157.325 264.46 157.5C264.349 157.677 264.177 157.801 263.981 157.851C239.518 163.613 215.62 172.458 192.287 184.389C161.789 199.957 134.117 216.178 109.271 233.054C107.051 234.566 105.961 233.973 106.001 231.276L106.062 227.966C106.081 226.885 106.379 225.826 106.926 224.897C107.473 223.967 108.25 223.197 109.18 222.665C117.496 217.966 125.892 213.196 134.37 208.354Z" fill="white"/>
<path d="M263.079 235.933V232.041C263.079 230.978 262.564 230.387 261.534 230.264C260.243 230.121 259.112 229.466 258.144 228.303C254.974 224.421 250.484 219.987 244.67 215.002C235.346 207.035 226.364 198.598 217.725 189.689C217.018 188.975 216.221 188.842 215.334 189.291C213.234 190.313 211.609 190.303 210.458 189.261C230.804 177.779 251.877 168.585 273.675 161.681C275.2 161.202 276.844 161.291 278.31 161.931C279.775 162.573 280.966 163.722 281.668 165.174C284.958 171.977 285.776 179.291 284.12 187.116C280.387 204.787 273.372 221.061 263.079 235.933Z" fill="white"/>
<path d="M210.459 189.262C211.609 190.304 213.234 190.315 215.334 189.294C216.221 188.844 217.019 188.977 217.725 189.692C226.364 198.599 235.346 207.037 244.671 215.005C250.484 219.99 254.975 224.422 258.144 228.304C259.113 229.469 260.242 230.122 261.534 230.266C262.563 230.388 263.079 230.981 263.079 232.042V235.934L246.608 258.918L192.656 201.857C192.449 201.636 192.184 201.48 191.89 201.41C191.597 201.339 191.29 201.357 191.005 201.462C190.723 201.567 190.475 201.753 190.296 201.996C190.115 202.241 190.011 202.534 189.992 202.838C189.952 203.758 189.377 204.135 188.267 203.973C187.378 203.829 187.076 203.329 187.358 202.471L187.691 201.368L210.459 189.262Z" fill="white"/>
<path d="M187.694 201.365L187.361 202.469C187.078 203.326 187.381 203.828 188.268 203.97C189.379 204.134 189.954 203.756 189.995 202.837C190.012 202.532 190.118 202.24 190.297 201.995C190.478 201.75 190.726 201.564 191.008 201.459C191.291 201.356 191.599 201.338 191.892 201.408C192.185 201.478 192.452 201.634 192.659 201.856L246.611 258.917L199.35 309.388L200.016 306.416C200.218 305.496 199.956 304.741 199.229 304.148L195.807 301.329C195 300.655 194.425 299.817 194.082 298.816C193.557 297.242 192.488 296.15 190.872 295.536C189.863 295.149 189.046 294.515 188.42 293.637C187.088 291.757 185.504 290.083 183.667 288.611C180.155 285.833 177.026 282.656 174.282 279.081C172.101 276.261 169.013 275.557 166.893 272.584C165.44 270.561 163.796 268.703 161.959 267.007C159.193 264.494 156.449 261.716 153.724 258.671C153.22 258.099 152.876 257.476 152.695 256.802C152.533 256.21 152.483 255.617 152.543 255.025C152.665 253.737 152.089 253.084 150.818 253.063H149.031C148.021 253.043 147.175 252.665 146.489 251.929C139.929 244.922 132.692 240.785 124.78 239.519L187.694 201.365Z" fill="white"/>
<path d="M390.177 310.923C388.422 308.511 387.534 305.529 387.513 301.975C387.513 300.933 386.999 300.525 385.97 300.748C384.172 301.157 382.882 300.493 382.093 298.757C380.308 294.895 376.341 291.463 372.951 289.134C372.486 288.828 372.304 288.389 372.406 287.817C372.466 287.551 372.537 287.305 372.617 287.081C373 286.059 372.809 285.161 372.042 284.385C370.024 282.341 367.662 280.656 364.957 279.328C363.303 278.532 362.848 277.285 363.595 275.589C363.716 275.303 363.665 275.059 363.444 274.854C363.222 274.629 362.969 274.487 362.687 274.425C362.041 274.261 361.586 274.487 361.325 275.099C360.538 276.979 359.306 277.806 357.63 277.581C370.801 257.692 383.638 237.16 391.54 214.637C391.59 214.485 391.681 214.352 391.804 214.252C391.927 214.153 392.077 214.091 392.232 214.074C392.39 214.059 392.548 214.089 392.688 214.161C392.828 214.234 392.945 214.345 393.023 214.484C393.205 214.769 393.357 215.065 393.477 215.373C393.599 215.658 393.659 215.965 393.659 216.292C394.144 248.254 394.81 279.144 390.177 310.923Z" fill="white"/>
<path d="M199.348 309.389C177.853 330.35 155.529 350.054 132.378 368.504C132.033 368.781 131.63 368.976 131.201 369.073C130.77 369.17 130.324 369.166 129.896 369.063C129.466 368.959 129.067 368.759 128.725 368.476C128.385 368.193 128.111 367.836 127.928 367.43C124.375 359.544 121.489 351.598 119.268 343.589C112.426 318.827 108.097 293.474 106.28 267.529C105.917 262.34 105.907 257.242 106.25 252.237C106.311 251.215 106.775 250.439 107.643 249.907L124.778 239.52C132.69 240.785 139.927 244.923 146.487 251.93C147.173 252.665 148.021 253.044 149.031 253.065H150.816C152.087 253.084 152.663 253.739 152.542 255.026C152.481 255.617 152.532 256.211 152.693 256.804C152.875 257.478 153.218 258.1 153.722 258.672C156.448 261.717 159.193 264.494 161.958 267.008C163.795 268.703 165.44 270.562 166.893 272.585C169.013 275.558 172.101 276.262 174.281 279.082C177.026 282.657 180.154 285.834 183.665 288.612C185.502 290.083 187.087 291.758 188.419 293.638C189.044 294.516 189.863 295.15 190.872 295.538C192.486 296.151 193.556 297.244 194.081 298.816C194.424 299.818 195 300.656 195.806 301.33L199.228 304.15C199.955 304.741 200.216 305.498 200.015 306.417L199.348 309.389Z" fill="white"/>
<path d="M335.073 248.1L331.198 260.327C330.714 261.899 331.127 262.206 332.439 261.246C333.77 260.286 335.396 260.163 337.313 260.878C337.408 260.913 337.494 260.971 337.563 261.047C337.631 261.123 337.681 261.213 337.707 261.312C337.733 261.412 337.737 261.515 337.716 261.616C337.695 261.716 337.651 261.81 337.586 261.89C337.344 262.154 337.233 262.451 337.253 262.777C337.274 263.8 337.767 264.167 338.736 263.881L339.947 263.544C318.573 297.713 292.141 329.277 263.925 357.96C264.873 355.243 265.216 353.118 264.954 351.586C264.752 350.361 263.955 349.645 262.562 349.441C261.512 349.298 260.291 349.339 258.898 349.564C271.049 335.283 283.099 321.023 295.049 306.784C306.452 293.177 319.793 273.615 335.073 248.1Z" fill="white"/>
<path d="M390.178 310.922C387.937 329.432 384.002 351.925 373.284 367.554C366.381 377.637 351.787 382.018 340.131 385.174C331.897 383.234 323.349 378.362 314.487 370.557C313.72 369.904 313.145 369.106 312.762 368.167C311.793 365.776 310.006 364.193 307.404 363.417C306.959 363.294 306.959 363.151 307.404 362.988C307.505 362.947 307.544 362.865 307.524 362.743C307.484 362.354 307.272 362.099 306.888 361.976C304.183 361.159 301.742 360.127 299.562 358.881C298.673 358.392 297.977 357.707 297.473 356.828C296.564 355.234 295.403 354.704 293.991 355.234C317.162 331.005 338.376 305.12 357.631 277.581C359.307 277.806 360.537 276.979 361.324 275.099C361.587 274.486 362.042 274.261 362.687 274.425C362.97 274.486 363.222 274.629 363.444 274.853C363.666 275.058 363.716 275.303 363.595 275.588C362.849 277.285 363.302 278.531 364.958 279.327C367.663 280.656 370.024 282.341 372.043 284.384C372.809 285.161 373.001 286.059 372.618 287.081C372.537 287.305 372.466 287.551 372.406 287.817C372.305 288.388 372.487 288.827 372.95 289.134C376.342 291.463 380.307 294.895 382.094 298.757C382.881 300.493 384.173 301.156 385.969 300.748C386.998 300.523 387.514 300.933 387.514 301.975C387.534 305.529 388.421 308.511 390.178 310.922Z" fill="white"/>
<path d="M263.927 357.96L232.289 390.168C229.988 392.518 227.212 393.692 223.963 393.692H218.756C215.063 393.692 214.557 392.405 217.242 389.83L258.902 349.564C260.295 349.339 261.516 349.298 262.566 349.441C263.957 349.645 264.755 350.361 264.958 351.586C265.219 353.118 264.876 355.243 263.927 357.96Z" fill="white"/>
<path d="M293.994 355.234C295.406 354.703 296.566 355.234 297.475 356.828C297.98 357.706 298.676 358.391 299.564 358.88C301.744 360.127 304.186 361.158 306.891 361.976C307.275 362.098 307.487 362.353 307.527 362.742C307.547 362.865 307.506 362.946 307.405 362.987C306.962 363.151 306.962 363.293 307.405 363.416C310.009 364.193 311.796 365.775 312.765 368.166C313.148 369.106 313.723 369.903 314.49 370.556C323.35 378.361 331.899 383.233 340.134 385.174C313.895 392.038 286.253 394.899 257.208 393.755C255.209 393.672 254.937 392.927 256.39 391.517L293.994 355.234Z" fill="white"/>
</svg>
