<svg width="500" height="500" viewBox="0 0 500 500" fill="none" xmlns="http://www.w3.org/2000/svg">
<rect width="500" height="500" fill="#F0F3FA"/>
<path fill-rule="evenodd" clip-rule="evenodd" d="M197.568 178.12H234.443C234.683 178.12 234.92 178.171 235.139 178.268C235.357 178.366 235.551 178.508 235.708 178.685L236.258 179.326C236.603 179.732 237.046 179.935 237.584 179.935L302.153 179.874C302.412 179.874 302.666 179.949 302.884 180.09C303.103 180.23 303.278 180.43 303.388 180.668L304.181 182.422C304.313 182.719 304.529 182.972 304.802 183.148C305.077 183.325 305.396 183.416 305.721 183.412L311.685 183.397C311.988 183.398 312.287 183.31 312.544 183.146C312.8 182.981 313.004 182.745 313.134 182.467L313.957 180.698C314.211 180.159 314.633 179.89 315.222 179.89L380.767 179.905C381.499 179.905 381.661 180.21 381.255 180.82C377.189 186.858 372.608 192.4 367.515 197.442C367.046 197.902 366.422 198.16 365.777 198.16H252.957C252.346 198.16 251.808 197.956 251.34 197.549L249.845 196.223C249.489 195.907 249.123 195.907 248.748 196.223L237.066 206.318C236.598 206.717 236.259 207.243 236.089 207.835C235.918 208.425 235.923 209.053 236.105 209.642C238.713 218.03 241.137 226.448 242.266 235.293C242.634 238.194 242.035 240.787 241.448 243.327C240.576 247.101 239.731 250.758 242.129 255.133C244.223 258.976 245.768 262.524 246.765 265.778C247.71 268.849 246.668 271.166 243.638 272.732C243.427 272.843 243.194 272.909 242.956 272.928C242.717 272.946 242.477 272.916 242.25 272.838C238.329 271.486 236.086 267.126 234.295 263.645L234.153 263.369C232.826 260.822 230.28 259.617 227.626 258.992C224.851 258.342 221.953 257.695 218.934 257.055C204.477 253.959 197.751 241.363 194.579 227.988C194.131 226.118 193.634 226.102 193.084 227.942C192.464 230.007 191.585 231.872 190.447 233.539C190.342 233.693 190.203 233.821 190.042 233.912C189.881 234.004 189.701 234.058 189.516 234.07C189.33 234.081 189.144 234.051 188.973 233.98C188.801 233.91 188.647 233.801 188.525 233.661C187.274 232.238 186.497 230.784 186.191 229.3C185.52 226.087 184.768 226.077 183.935 229.269C180.808 241.225 174.129 253.365 161.044 256.72C160.515 256.857 159.99 256.999 159.466 257.141C157.541 257.661 155.634 258.176 153.633 258.428C150.217 258.869 146.053 260.257 144.375 263.673C142.698 267.044 140.563 270.383 137.406 272.549C136.976 272.851 136.44 272.973 135.912 272.885C128.243 271.615 133.467 261.035 136.193 255.515C136.643 254.603 137.025 253.829 137.27 253.258C138.322 250.756 138.612 248.789 137.865 246.075C134.555 234.211 138.642 221.263 142.622 209.795C142.874 209.077 142.887 208.298 142.659 207.572C142.431 206.846 141.974 206.213 141.356 205.769C123.987 193.234 112.534 174.522 103.917 154.407C101.432 148.566 97.7106 137.433 101.874 131.867C105.808 126.606 113.189 127.75 118.283 130.265C129.375 135.756 140.736 142.08 152.367 149.237C165.471 157.299 175.786 167.338 183.31 179.356C183.615 179.854 183.965 179.885 184.362 179.447C185.511 178.145 185.866 176.677 185.429 175.04C183.365 167.242 180.31 160.594 176.264 155.093C176.104 154.876 175.891 154.702 175.648 154.586C175.404 154.469 175.136 154.415 174.867 154.427C174.597 154.439 174.334 154.517 174.102 154.655C173.87 154.792 173.675 154.985 173.534 155.215C172.903 156.231 173.041 157.248 173.946 158.266C177.291 162.016 180.162 165.687 182.563 169.275C182.877 169.753 183.065 170.277 183.126 170.847C183.269 172.107 183.706 173.286 184.437 174.384C184.977 175.197 185.007 176.062 184.53 176.977C184.123 177.77 183.797 177.734 183.553 176.87C182.349 172.676 180.641 168.147 177.498 165.021C175.09 162.657 170.286 157.685 172.406 154.01C172.596 153.678 172.859 153.392 173.174 153.174C173.49 152.956 173.85 152.812 174.228 152.749C174.607 152.688 174.994 152.712 175.361 152.819C175.729 152.927 176.069 153.115 176.355 153.369C182.242 158.646 185.75 170.161 187.488 177.389C187.66 178.08 187.492 178.679 186.985 179.188C186.638 179.533 186.659 179.854 187.045 180.149C187.173 180.251 187.324 180.319 187.485 180.349C187.646 180.38 187.81 180.37 187.967 180.323C188.123 180.275 188.265 180.189 188.381 180.074C188.496 179.958 188.583 179.816 188.632 179.66C188.966 178.607 189.304 177.501 189.653 176.361L189.654 176.357L189.655 176.353C192.111 168.328 195.091 158.587 200.709 153.462C201.018 153.182 201.404 152.998 201.822 152.928C203.175 152.724 204.059 152.974 204.477 153.675C205.524 155.443 205.504 157.208 204.416 158.966C203.316 160.748 201.994 162.243 200.673 163.736C199.044 165.578 197.416 167.419 196.211 169.794C195.306 171.583 194.477 173.48 193.725 175.483C193.491 176.112 193.471 176.764 193.664 177.434C193.99 178.513 194.376 178.533 194.824 177.495C195.646 175.594 196.75 173.815 198.133 172.158C204.802 164.197 212.636 157.508 221.633 152.088C222.121 151.794 222.253 151.387 222.03 150.869C219.802 145.821 216.981 136.168 220.824 131.455C226.734 124.215 238.427 130.648 245.664 134.63C246.552 135.118 247.373 135.57 248.107 135.954C248.635 136.239 249.154 136.218 249.662 135.893C254.583 132.721 259.585 130.342 264.668 128.756C272.461 126.331 279.461 130.906 278.653 139.523C278.287 143.437 277.381 147.422 275.938 151.479C275.853 151.712 275.699 151.912 275.493 152.054C275.289 152.196 275.045 152.272 274.794 152.272L224.606 152.241C224.017 152.241 223.483 152.409 223.005 152.744C212.59 160.049 203.775 166.531 196.775 176.596C196.073 177.612 196.338 178.12 197.568 178.12ZM274.946 149.892C277.829 142.527 280.849 130.129 268.42 129.778C263.998 129.655 257.391 133.232 252.608 135.822L252.606 135.823L252.597 135.828C252.039 136.13 251.506 136.418 251.004 136.686C250.918 136.733 250.846 136.801 250.794 136.884C250.742 136.968 250.715 137.064 250.714 137.162C250.711 137.261 250.736 137.357 250.786 137.442C250.834 137.527 250.904 137.598 250.99 137.647L273.147 150.518C273.992 151.016 274.591 150.807 274.946 149.892ZM120.037 132.843C116.458 130.993 112.945 130.042 109.499 129.992C102.789 129.885 100.532 135.603 101.615 141.383C102.377 145.43 103.384 148.983 104.634 152.043C104.743 152.309 104.929 152.537 105.168 152.698C105.407 152.857 105.688 152.944 105.976 152.942L153.358 152.928C154.873 152.928 154.985 152.536 153.694 151.754C142.774 145.104 131.556 138.801 120.037 132.843ZM105.915 155.215C109.331 163.145 113.281 170.831 117.932 177.952C117.97 178.005 118.019 178.047 118.075 178.077C118.131 178.106 118.192 178.122 118.252 178.12L179.619 178.106C179.758 178.104 179.894 178.064 180.011 177.99C180.13 177.916 180.225 177.812 180.288 177.687C180.351 177.564 180.378 177.425 180.368 177.285C180.358 177.148 180.31 177.014 180.228 176.9C174.078 168.483 166.982 161.321 158.939 155.413C158.167 154.839 157.226 154.529 156.256 154.529L106.342 154.544C106.265 154.545 106.189 154.564 106.121 154.602C106.054 154.64 105.996 154.695 105.954 154.761C105.912 154.827 105.887 154.902 105.88 154.983C105.873 155.062 105.885 155.141 105.915 155.215ZM194.045 171.06C195.814 167.115 198.163 163.816 201.091 161.162C202.265 160.095 203.409 158.234 203.943 156.694C204.298 155.636 203.948 154.92 202.89 154.544C202.63 154.453 202.349 154.438 202.081 154.499C201.814 154.562 201.572 154.698 201.381 154.895C197.809 158.521 196.178 162.655 194.458 167.012C193.777 168.739 193.081 170.501 192.246 172.28C192.002 172.809 192.037 173.322 192.353 173.82C192.789 174.511 193.084 174.456 193.237 173.652C193.4 172.768 193.67 171.903 194.045 171.06ZM192.002 176.412L192.185 175.574C192.287 175.065 192.094 174.908 191.605 175.101C191.331 175.203 191.174 175.396 191.133 175.681C190.849 177.45 191.219 179.183 192.246 180.881C192.29 180.951 192.351 181.01 192.425 181.049C192.498 181.089 192.581 181.109 192.662 181.108C192.744 181.107 192.824 181.083 192.892 181.041C192.962 180.998 193.017 180.938 193.054 180.866C193.704 179.626 193.491 178.543 192.414 177.618C192.037 177.291 191.9 176.891 192.002 176.412ZM192.169 184.525L185.841 184.602C185.191 184.602 184.707 184.323 184.392 183.763L182.638 180.621C182.262 179.951 181.682 179.615 180.9 179.615H119.671C119.587 179.612 119.504 179.634 119.432 179.677C119.36 179.72 119.301 179.783 119.261 179.858C119.222 179.934 119.204 180.019 119.209 180.105C119.214 180.192 119.242 180.276 119.29 180.348C123.214 186.111 127.753 191.648 132.908 196.954C133.308 197.369 133.788 197.699 134.32 197.925C134.852 198.15 135.424 198.265 136.003 198.266C171.495 198.256 207.094 198.256 242.8 198.266C244.496 198.266 245.511 197.262 246.566 196.218C246.905 195.882 247.248 195.542 247.619 195.231C247.733 195.135 247.828 195.016 247.895 194.883C247.963 194.748 248.003 194.603 248.012 194.453C248.023 194.303 248.003 194.154 247.954 194.012C247.903 193.87 247.827 193.741 247.726 193.631C243.954 189.482 240.644 185.283 237.798 181.034C237.506 180.597 237.114 180.239 236.654 179.991C236.193 179.744 235.68 179.615 235.159 179.615H196.439C195.901 179.615 195.438 179.808 195.051 180.194C194.177 181.079 193.674 182.111 193.543 183.29C193.45 184.114 192.993 184.525 192.169 184.525ZM187.533 182.574C186.969 182.619 186.481 182.467 186.009 182.147C185.307 181.648 185.073 181.811 185.307 182.635C185.398 182.96 185.602 183.128 185.918 183.138C187.686 183.229 189.47 183.306 191.27 183.367C191.555 183.376 191.697 183.24 191.697 182.955L191.712 182.558C191.722 182.416 191.656 182.345 191.514 182.345C190.172 182.376 188.845 182.452 187.533 182.574ZM235.815 205.281L241.503 200.554C242.114 200.045 242.016 199.791 241.214 199.791L137.697 199.775C136.568 199.775 136.446 200.127 137.331 200.829L142.683 205.097C143.151 205.464 143.471 205.932 143.644 206.501C144.416 209.074 144.03 211.829 142.485 214.766C142.445 214.838 142.426 214.919 142.429 214.999C142.43 215.081 142.454 215.161 142.497 215.232C142.54 215.301 142.6 215.361 142.673 215.402C142.746 215.444 142.828 215.467 142.912 215.468H235.586C236.481 215.468 236.694 215.091 236.227 214.339C234.773 212.011 234.311 209.535 234.839 206.912C234.972 206.252 235.297 205.708 235.815 205.281ZM184.819 222.255C185.155 222.214 185.429 222.316 185.643 222.559C185.825 222.763 185.932 223.002 185.963 223.276C186.238 226.234 187.199 228.985 188.845 231.526C188.909 231.625 188.998 231.705 189.103 231.758C189.208 231.811 189.325 231.836 189.443 231.83C189.559 231.824 189.673 231.787 189.771 231.723C189.871 231.658 189.95 231.57 190.004 231.465C191.417 228.66 192.444 225.767 193.084 222.788C193.103 222.694 193.144 222.605 193.205 222.528C193.267 222.451 193.345 222.389 193.436 222.346C193.74 222.183 194.01 222.189 194.244 222.361C194.64 222.666 194.869 223.063 194.93 223.551C195.245 225.859 195.774 227.933 196.516 229.773C196.629 230.047 196.822 230.283 197.071 230.448C197.321 230.615 197.616 230.702 197.919 230.702H239.842C240.176 230.702 240.304 230.536 240.222 230.2L237.325 217.832C237.244 217.476 237.021 217.298 236.654 217.298H142.728C141.976 217.298 141.509 217.664 141.326 218.396L138.612 229.514C138.418 230.307 138.728 230.702 139.542 230.702H181.114C181.815 230.702 182.252 230.362 182.425 229.682L184.255 222.757C184.326 222.463 184.514 222.295 184.819 222.255ZM176.584 242.461C176.751 242.458 176.916 242.408 177.056 242.317C177.196 242.224 177.308 242.095 177.377 241.942L181.235 233.478C181.297 233.344 181.324 233.195 181.312 233.047C181.301 232.9 181.253 232.757 181.172 232.632C181.092 232.508 180.982 232.406 180.852 232.335C180.721 232.264 180.575 232.227 180.428 232.228H138.733C138.616 232.228 138.499 232.251 138.391 232.296C138.283 232.342 138.185 232.408 138.102 232.492C138.021 232.576 137.956 232.675 137.911 232.785C137.868 232.894 137.847 233.01 137.849 233.128L137.986 241.577C137.991 241.808 138.085 242.029 138.251 242.192C138.416 242.354 138.638 242.445 138.871 242.445L176.584 242.461ZM197.888 232.228C197.805 232.229 197.724 232.25 197.652 232.289C197.579 232.33 197.518 232.386 197.472 232.456C197.426 232.526 197.399 232.605 197.392 232.687C197.384 232.77 197.399 232.853 197.431 232.93L201.213 242.14C201.251 242.23 201.315 242.307 201.397 242.361C201.477 242.415 201.573 242.444 201.67 242.445H240.176C240.311 242.445 240.438 242.392 240.533 242.298C240.627 242.204 240.68 242.076 240.68 241.942L240.817 232.731C240.817 232.597 240.764 232.469 240.669 232.376C240.576 232.281 240.447 232.228 240.314 232.228H197.888ZM167.952 252.618C168.09 252.617 168.222 252.563 168.319 252.464L175.944 244.779C176.017 244.705 176.066 244.611 176.086 244.509C176.105 244.407 176.094 244.303 176.053 244.207C176.011 244.112 175.943 244.031 175.855 243.976C175.768 243.919 175.666 243.892 175.563 243.894L139.923 243.925C139.785 243.925 139.653 243.979 139.556 244.076C139.459 244.174 139.405 244.305 139.405 244.443L139.512 252.114C139.512 252.252 139.565 252.384 139.663 252.481C139.76 252.578 139.892 252.632 140.03 252.632L167.952 252.618ZM203.607 243.925C203.454 243.925 203.304 243.971 203.177 244.056C203.048 244.142 202.949 244.263 202.89 244.405C202.831 244.547 202.817 244.702 202.846 244.854C202.876 245.005 202.95 245.143 203.058 245.252L210.271 252.389C210.417 252.535 210.614 252.617 210.821 252.618H238.332C238.536 252.618 238.731 252.537 238.876 252.395C239.021 252.252 239.105 252.059 239.109 251.855L239.216 244.718C239.218 244.614 239.2 244.512 239.162 244.416C239.123 244.319 239.066 244.232 238.994 244.158C238.922 244.084 238.835 244.025 238.739 243.985C238.645 243.946 238.542 243.925 238.438 243.925H203.607ZM154.029 256.75C156.967 256.373 159.702 255.596 162.234 254.417C162.996 254.061 162.955 253.883 162.112 253.883L139.053 254.035C138.925 254.037 138.8 254.073 138.692 254.14C138.584 254.207 138.498 254.303 138.444 254.417L135.744 260.212C135.722 260.264 135.713 260.321 135.717 260.377C135.722 260.433 135.74 260.487 135.77 260.535C135.799 260.583 135.841 260.623 135.889 260.652C135.938 260.681 135.993 260.697 136.05 260.7L143.049 260.806C143.585 260.817 144.117 260.657 144.574 260.349C147.512 258.387 150.664 257.188 154.029 256.75ZM240.603 254.89C240.34 254.31 239.887 254.015 239.247 254.006L216.6 253.959C215.472 253.949 215.426 254.167 216.463 254.615C218.757 255.593 221.113 256.07 223.479 256.549C226.979 257.258 230.502 257.971 233.878 260.318C234.285 260.605 234.766 260.755 235.251 260.745H242.129C242.891 260.745 243.115 260.4 242.8 259.709L240.603 254.89ZM143.155 263.109C143.212 263.015 143.243 262.907 143.244 262.796C143.245 262.686 143.218 262.578 143.164 262.482C143.109 262.386 143.031 262.306 142.936 262.249C142.84 262.194 142.732 262.164 142.622 262.164L135.15 262.057C135.016 262.054 134.884 262.093 134.774 262.17C134.664 262.247 134.582 262.357 134.54 262.485L132.786 267.623C132.755 267.715 132.746 267.813 132.759 267.908C132.773 268.004 132.808 268.096 132.863 268.176C132.917 268.255 132.99 268.321 133.074 268.369C133.159 268.416 133.253 268.442 133.35 268.447L139.45 268.676C139.561 268.677 139.67 268.651 139.766 268.597C139.862 268.543 139.942 268.465 140 268.37L143.155 263.109ZM244.065 262.56C244.025 262.434 243.946 262.325 243.84 262.248C243.732 262.17 243.603 262.131 243.471 262.133H235.938C235.827 262.134 235.72 262.165 235.627 262.222C235.533 262.278 235.457 262.36 235.405 262.457C235.353 262.553 235.329 262.662 235.334 262.771C235.339 262.882 235.374 262.987 235.434 263.078L238.941 268.34C238.997 268.425 239.075 268.496 239.165 268.544C239.256 268.592 239.357 268.616 239.46 268.615L245.057 268.554C245.153 268.553 245.247 268.53 245.332 268.487C245.417 268.443 245.49 268.381 245.546 268.303C245.603 268.226 245.641 268.136 245.657 268.043C245.672 267.948 245.665 267.852 245.636 267.761L244.065 262.56ZM135.211 270.155C135.149 270.162 135.09 270.183 135.039 270.216C134.987 270.25 134.944 270.295 134.913 270.349C134.882 270.402 134.863 270.462 134.86 270.523C134.856 270.586 134.866 270.647 134.89 270.703C135.134 271.334 135.582 271.634 136.232 271.604C136.369 271.598 136.501 271.549 136.606 271.461C136.712 271.374 136.786 271.255 136.818 271.121C136.849 270.987 136.836 270.847 136.779 270.722C136.723 270.598 136.627 270.495 136.507 270.43C136.1 270.196 135.668 270.103 135.211 270.155Z" fill="black"/>
<path d="M382.685 129.992C389.349 126.789 399.826 127.262 399.872 137.038C399.892 141.276 398.79 146.055 396.563 151.372C396.319 151.952 395.881 152.242 395.252 152.242L343.965 152.272C343.203 152.283 343.147 152.084 343.798 151.677C357.736 142.984 370.699 135.756 382.685 129.992Z" fill="black"/>
<path d="M319.032 154.727C314.426 161.57 311.117 169.825 309.104 179.494C309.054 179.696 308.936 179.85 308.754 179.951C308.601 180.032 308.454 180.048 308.312 179.996C307.996 179.875 307.808 179.651 307.747 179.326C306.222 171.944 302.363 158.311 296.051 153.065C294.82 152.038 293.595 152.054 292.375 153.112C291.511 153.864 291.256 155.241 291.613 157.244C291.704 157.727 291.896 158.189 292.176 158.601C293.284 160.212 294.556 161.632 295.822 163.045C297.781 165.231 299.725 167.402 301.022 170.236C302.618 173.684 303.874 177.268 304.789 180.988C304.941 181.608 305.338 181.913 305.979 181.903L310.919 181.888C311.268 181.889 311.606 181.765 311.874 181.54C312.141 181.313 312.323 180.999 312.384 180.652C313.084 176.748 314.417 173.038 316.379 169.52C317.703 167.155 319.426 165.118 321.15 163.081C322.304 161.717 323.458 160.353 324.491 158.891C325.681 157.234 325.844 155.49 324.979 153.66C324.852 153.391 324.663 153.158 324.426 152.981C324.19 152.802 323.914 152.685 323.623 152.638C321.722 152.313 320.191 153.01 319.032 154.727Z" fill="black"/>
<path d="M223.624 155.184C223.588 155.107 223.573 155.023 223.577 154.938C223.583 154.854 223.61 154.772 223.655 154.701C223.701 154.629 223.764 154.57 223.839 154.529C223.913 154.488 223.997 154.468 224.081 154.468L277.716 154.422C278.407 154.422 279.032 154.63 279.592 155.047C287.806 161.148 294.893 168.412 300.85 176.839C301.247 177.399 301.105 177.679 300.423 177.679L236.373 177.648C235.824 177.648 235.412 177.419 235.138 176.962C230.756 169.875 226.918 162.616 223.624 155.184Z" fill="black"/>
<path d="M383.649 176.962C387.715 170.445 391.574 163.089 395.224 154.895C395.346 154.61 395.253 154.468 394.949 154.468L340.659 154.422C339.977 154.422 339.357 154.605 338.798 154.971C329.902 160.715 322.247 167.933 315.831 176.626C315.313 177.318 315.486 177.663 316.35 177.663H382.383C382.942 177.663 383.364 177.429 383.649 176.962Z" fill="black"/>
<path d="M260.672 214.995C265.295 208.237 260.924 205.142 256.077 201.71L256.074 201.708C255.869 201.562 255.663 201.417 255.457 201.27C254.44 200.559 254.553 200.202 255.793 200.202H363.061C364.048 200.202 364.159 200.513 363.397 201.133C362.899 201.535 362.292 201.962 361.643 202.418C358.895 204.35 355.399 206.809 356.275 210.116C356.732 211.854 357.261 213.496 357.861 215.041C358.095 215.672 357.877 215.986 357.205 215.986L261.206 216.002C261.088 216.003 260.972 215.973 260.871 215.913C260.771 215.852 260.688 215.765 260.633 215.661C260.577 215.558 260.551 215.44 260.558 215.323C260.566 215.205 260.605 215.092 260.672 214.995Z" fill="black"/>
<path d="M302.82 230.383C303.562 228.583 303.958 226.677 304.01 224.664C304.019 224.247 304.233 224.019 304.65 223.978L305.046 223.947C305.117 223.937 305.158 223.963 305.168 224.024C305.87 227.328 306.932 230.327 308.355 233.021C308.441 233.178 308.563 233.31 308.714 233.405C308.864 233.5 309.037 233.555 309.214 233.564C309.392 233.573 309.569 233.537 309.729 233.458C309.888 233.378 310.024 233.26 310.125 233.112C311.944 230.409 313.022 227.46 313.357 224.267C313.377 224.065 313.484 223.922 313.677 223.84C313.809 223.779 313.947 223.769 314.09 223.81C314.283 223.851 314.399 223.967 314.44 224.16C314.908 226.266 315.345 228.294 315.751 230.245C315.874 230.815 316.225 231.099 316.804 231.099L361.517 231.084C361.863 231.084 361.995 230.922 361.914 230.597L358.97 218.534C358.94 218.42 358.873 218.318 358.778 218.247C358.685 218.175 358.57 218.137 358.452 218.137H260.028C259.794 218.137 259.652 218.248 259.601 218.473L256.856 230.611C256.84 230.676 256.838 230.744 256.853 230.81C256.866 230.875 256.895 230.937 256.936 230.99C256.978 231.043 257.03 231.085 257.09 231.115C257.15 231.145 257.216 231.161 257.283 231.161H301.661C302.22 231.161 302.606 230.901 302.82 230.383Z" fill="black"/>
<path d="M256.661 233.401L301.314 233.387C301.391 233.388 301.466 233.408 301.534 233.445C301.602 233.483 301.659 233.537 301.701 233.601C301.743 233.666 301.768 233.739 301.776 233.817C301.783 233.894 301.771 233.971 301.741 234.042L297.913 242.795C297.877 242.88 297.819 242.952 297.742 243.004C297.666 243.056 297.577 243.083 297.486 243.086L256.691 243.07C256.567 243.07 256.447 243.021 256.358 242.932C256.269 242.843 256.219 242.723 256.219 242.597L256.189 233.875C256.189 233.749 256.238 233.629 256.327 233.54C256.415 233.451 256.535 233.401 256.661 233.401Z" fill="black"/>
<path d="M362.054 233.357L317.585 233.341C317.483 233.34 317.383 233.365 317.293 233.413C317.203 233.46 317.127 233.529 317.071 233.615C317.014 233.7 316.981 233.797 316.972 233.899C316.963 234 316.979 234.102 317.02 234.195L320.757 242.72C320.803 242.828 320.88 242.919 320.977 242.984C321.074 243.048 321.188 243.084 321.306 243.086L361.749 243.056C361.903 243.052 362.049 242.99 362.16 242.883C362.27 242.775 362.336 242.63 362.343 242.476L362.663 233.982C362.666 233.9 362.651 233.82 362.621 233.743C362.593 233.667 362.547 233.599 362.491 233.54C362.434 233.483 362.366 233.436 362.29 233.405C362.216 233.372 362.136 233.357 362.054 233.357Z" fill="black"/>
<path d="M289.094 253.547L258.274 253.517C258.146 253.512 258.024 253.461 257.934 253.37C257.842 253.279 257.79 253.157 257.786 253.029L257.664 245.648C257.664 245.514 257.718 245.386 257.811 245.293C257.906 245.198 258.034 245.145 258.167 245.145H296.003C296.102 245.144 296.2 245.171 296.283 245.227C296.366 245.281 296.432 245.359 296.47 245.45C296.51 245.541 296.52 245.642 296.502 245.74C296.484 245.837 296.438 245.927 296.369 245.999L289.46 253.395C289.413 253.444 289.356 253.482 289.294 253.509C289.23 253.535 289.163 253.548 289.094 253.547Z" fill="black"/>
<path d="M360.545 245.191H322.831C322.736 245.192 322.643 245.219 322.564 245.272C322.484 245.325 322.423 245.401 322.386 245.487C322.349 245.574 322.337 245.672 322.355 245.765C322.372 245.859 322.415 245.945 322.48 246.015L329.404 253.365C329.448 253.413 329.504 253.45 329.564 253.477C329.624 253.503 329.688 253.517 329.754 253.517L360.24 253.533C360.366 253.533 360.488 253.484 360.579 253.395C360.67 253.306 360.723 253.186 360.727 253.06L361.033 245.694C361.034 245.628 361.023 245.564 360.999 245.503C360.976 245.441 360.94 245.386 360.895 245.339C360.849 245.293 360.795 245.254 360.735 245.229C360.674 245.204 360.609 245.191 360.545 245.191Z" fill="black"/>
<path d="M283.671 256.155C283.63 256.329 283.523 256.436 283.351 256.475C274.801 258.051 268.736 259.643 265.157 261.249C264.72 261.442 264.264 261.539 263.785 261.539L254.284 261.569C253.97 261.569 253.877 261.433 254.009 261.158L256.603 255.652C256.664 255.53 256.764 255.464 256.907 255.454L283.443 255.271C283.737 255.271 283.85 255.414 283.778 255.698L283.671 256.155Z" fill="black"/>
<path d="M336.74 256.552C338.276 257.04 339.836 257.411 341.422 257.665C345.276 258.306 348.865 259.317 352.188 260.7C354.789 261.779 357.964 261.675 360.975 261.575C362.219 261.534 363.435 261.494 364.571 261.538C364.59 261.539 364.608 261.538 364.625 261.535C364.652 261.531 364.679 261.522 364.703 261.509C364.744 261.488 364.78 261.457 364.805 261.417C364.832 261.377 364.847 261.332 364.851 261.284C364.856 261.236 364.849 261.187 364.831 261.142L362.3 255.82C362.198 255.607 362.03 255.5 361.796 255.5L336.938 255.271C334.01 255.251 333.944 255.678 336.74 256.552Z" fill="black"/>
<path d="M259.795 269.408L251.575 269.453C251.504 269.453 251.434 269.438 251.371 269.407C251.307 269.375 251.252 269.33 251.21 269.273C251.167 269.217 251.137 269.152 251.124 269.083C251.111 269.013 251.113 268.942 251.132 268.874L252.413 264.101C252.44 264.004 252.498 263.919 252.577 263.858C252.658 263.798 252.755 263.765 252.856 263.765L262.341 263.841C262.419 263.843 262.496 263.864 262.563 263.903C262.631 263.943 262.687 263.999 262.727 264.067C262.767 264.134 262.788 264.21 262.791 264.288C262.792 264.366 262.774 264.443 262.738 264.513L260.19 269.164C260.152 269.236 260.096 269.297 260.026 269.341C259.957 269.383 259.876 269.407 259.795 269.408Z" fill="black"/>
<path d="M365.717 263.858L356.277 263.888C356.198 263.89 356.121 263.914 356.054 263.955C355.985 263.996 355.93 264.055 355.892 264.123C355.853 264.193 355.833 264.27 355.834 264.35C355.835 264.429 355.856 264.506 355.895 264.574L358.655 269.119C358.699 269.186 358.756 269.24 358.826 269.278C358.895 269.315 358.973 269.335 359.052 269.332L367.425 269.423C367.499 269.425 367.573 269.407 367.639 269.372C367.705 269.337 367.762 269.287 367.804 269.224C367.846 269.163 367.872 269.092 367.88 269.018C367.889 268.944 367.879 268.868 367.852 268.798L366.144 264.163C366.112 264.074 366.055 263.997 365.978 263.943C365.901 263.888 365.81 263.859 365.717 263.858Z" fill="black"/>
<path d="M253.289 272.015C254.377 271.659 255.434 271.679 256.461 272.077C257.254 272.381 257.264 272.717 256.492 273.083C255.129 273.723 254.005 273.687 253.121 272.976C252.583 272.549 252.638 272.229 253.289 272.015Z" fill="black"/>
<path d="M365.903 272.733C366.319 272.376 366.258 272.158 365.72 272.077C363.991 271.802 362.93 271.762 362.533 271.955C361.476 272.442 361.506 272.869 362.624 273.236C363.905 273.653 364.998 273.485 365.903 272.733Z" fill="black"/>
<path fill-rule="evenodd" clip-rule="evenodd" d="M399.84 313.465C399.367 298.079 392.687 282.187 375.897 278.756C352.945 274.075 338.122 289.4 337.086 311.33L337.037 312.374C336.099 332.157 334.75 360.636 359.518 366.749C382.684 372.484 399.169 357.859 399.84 334.754C400.053 327.648 400.053 320.552 399.84 313.465ZM381.905 336.02C381.28 346.055 376.995 355.174 364.841 352.49C356.759 350.722 354.837 341.403 354.638 334.205C354.405 326.072 354.435 318.244 354.73 310.721C355.035 302.821 357.917 293.503 367.525 292.923C377.712 292.298 381.158 300.991 381.814 309.393C382.464 317.669 382.495 326.544 381.905 336.02Z" fill="#CE181E"/>
<path d="M297.578 292.603C287.497 292.694 285.119 300.244 284.585 308.493C283.955 318.131 283.929 327.816 284.51 337.544C284.83 342.73 285.882 349.318 291.036 351.788C294.716 353.557 298.631 353.786 302.779 352.475C308.757 350.599 309.443 343.615 309.595 338.43C309.616 337.728 309.981 337.378 310.694 337.378L326.385 337.423C327.077 337.423 327.407 337.769 327.377 338.46C326.508 358.529 313.652 369.661 293.568 367.801C274.841 366.063 267.17 350.874 266.636 333.778C266.351 324.313 266.437 315.956 266.895 308.707C267.871 293.03 276.93 279.945 293.537 278.191C314.262 275.995 326.051 287.845 327.438 308.066C327.479 308.595 327.23 308.864 326.691 308.875L310.647 308.89C309.936 308.89 309.575 308.539 309.565 307.837C309.427 299.389 307.842 292.526 297.578 292.603Z" fill="#CE181E"/>
<path d="M219.042 301.113C218.036 309.622 227.964 313.74 234.613 316.195C249.969 321.883 259.12 332.544 255.886 349.822C254.346 358.042 248.063 364.325 240.134 366.551C220.948 371.934 199.309 362.144 199.248 340.031C199.248 339.411 199.558 339.095 200.179 339.086L215.901 339.04C216.182 339.04 216.45 339.148 216.651 339.342C216.85 339.537 216.965 339.801 216.969 340.076C217.162 350.304 222.209 354.656 232.112 353.131C238.96 352.078 239.889 343.31 237.663 338.354C236.371 335.486 233.545 333.169 229.184 331.4L228.327 331.052C221.235 328.18 213.162 324.911 208.063 319.443C196.015 306.557 200.011 285.664 217.731 279.901C236.931 273.648 254.911 282.661 256.481 303.919C256.542 304.661 256.197 305.038 255.445 305.047L239.859 305.093C239.28 305.093 238.98 304.804 238.96 304.225C238.888 302.231 238.492 300.325 237.77 298.505C234.156 289.386 220.232 291.108 219.042 301.113Z" fill="#CE181E"/>
<path d="M118.482 316.164C118.685 316.093 118.837 315.961 118.939 315.768C126.076 303.263 132.883 291.306 139.359 279.899C139.633 279.411 140.055 279.168 140.625 279.168H160.388C161.11 279.168 161.273 279.468 160.876 280.067L137.361 316.21C136.802 317.054 136.756 317.928 137.224 318.833L161.655 366.002C161.686 366.059 161.702 366.124 161.699 366.19C161.697 366.255 161.677 366.32 161.642 366.376C161.607 366.432 161.557 366.48 161.498 366.514C161.439 366.546 161.372 366.564 161.303 366.565L141.906 366.642C141.601 366.642 141.302 366.557 141.046 366.395C140.789 366.232 140.585 366.001 140.457 365.727L125.283 333.748C125.243 333.662 125.182 333.587 125.105 333.531C125.028 333.475 124.938 333.439 124.844 333.427C124.75 333.415 124.654 333.427 124.565 333.462C124.477 333.496 124.398 333.553 124.338 333.626C124.066 333.951 123.777 334.291 123.477 334.644C121.161 337.365 118.212 340.83 118.131 344.056C117.948 351.427 117.887 358.585 117.948 365.529C117.95 365.648 117.928 365.767 117.885 365.878C117.841 365.989 117.777 366.09 117.694 366.176C117.612 366.261 117.514 366.328 117.405 366.374C117.297 366.42 117.181 366.444 117.063 366.444L101.767 366.597C101.588 366.597 101.41 366.561 101.244 366.492C101.079 366.424 100.929 366.324 100.802 366.198C100.676 366.071 100.576 365.921 100.509 365.757C100.442 365.593 100.408 365.416 100.41 365.239L100.425 279.824C100.425 279.642 100.498 279.466 100.627 279.338C100.755 279.21 100.93 279.137 101.112 279.137H117.155C117.724 279.137 118.004 279.417 117.994 279.976L117.902 315.753C117.9 315.823 117.915 315.893 117.946 315.955C117.978 316.019 118.024 316.073 118.082 316.114C118.139 316.154 118.205 316.181 118.275 316.189C118.345 316.198 118.416 316.189 118.482 316.164Z" fill="#CE181E"/>
<path d="M169.971 279.168H185.953C186.442 279.168 186.838 279.564 186.838 280.053V365.91C186.838 366.399 186.442 366.795 185.953 366.795H169.971C169.483 366.795 169.087 366.399 169.087 365.91V280.053C169.087 279.564 169.483 279.168 169.971 279.168Z" fill="#CE181E"/>
</svg>
