<svg width="500" height="500" viewBox="0 0 500 500" fill="none" xmlns="http://www.w3.org/2000/svg">
<rect width="500" height="500" fill="#F9FBFB"/>
<path d="M317.916 250.028L334.892 199.055H308.928L292.429 250.028H308.928H317.916Z" fill="#ED2123"/>
<path d="M308.928 250.027L292.429 300.932H318.513L334.892 250.027H317.916H308.928Z" fill="#066E38"/>
<path d="M213.3 199.172L249.462 268.717L260.147 199.172H285.147L266.942 300.99H242.189L204.321 229.638L194.489 300.99H170.529L186.115 199.172H213.3Z" fill="#066E38"/>
<path d="M400.897 199.055H352.857L336.835 301.002H391.987C393.291 301.002 402.287 299.774 407.344 298.247C446.106 284.46 443.736 237.084 443.736 237.084C442.491 211.904 426.844 203.88 417.491 201.041C414.813 200.231 403.191 199.088 400.897 199.055ZM408.128 217.772C426.187 224.354 422.172 247.683 422.172 247.683C420.04 269.938 405.655 278.925 394.451 281.535C388.491 283.07 384.151 283.026 382.897 283.026H364.027L374.95 216.04H395.935C402.202 216.049 405.579 216.782 408.128 217.772Z" fill="#066E38"/>
<path d="M150.39 271.206C147.627 279.655 140.959 293.29 124.528 297.732C124.528 297.732 90.9491 306.072 71.3715 293.606C71.3715 293.606 57.3022 285.837 58.0271 267.155L58.7006 261.127L68.3956 199H92.6033L82.6184 264.657C82.6184 264.657 81.979 267.991 82.7975 271.453C83.9827 277.106 88.1694 284.116 100.738 284.713C100.738 284.713 124.042 288.054 128.169 259.609L138.265 199.119H163.623L152.444 261.903C152.061 264.061 151.294 268.315 150.39 271.206Z" fill="#066E38"/>
</svg>
