<svg width="500" height="500" viewBox="0 0 500 500" fill="none" xmlns="http://www.w3.org/2000/svg">
<rect width="500" height="500" fill="white"/>
<path d="M277.937 286.957C317.618 288.994 356.397 299.568 391.636 317.961C405.451 302.413 414.371 283.121 417.275 262.509C419.751 242.755 415.861 222.913 405.959 204.488C393.324 182.22 374.697 163.957 352.204 151.782C327.978 137.963 299.156 129.371 268.919 126.802C238.593 124.233 207.914 127.865 180.152 137.255C150.766 146.61 124.68 164.228 105.001 188.012C89.7625 206.543 81.6127 229.909 82.0142 253.917C83.222 278.14 92.8564 301.175 109.245 319.024C118.971 313.178 130.995 307.686 145.495 302.371C175.855 291.197 207.849 285.121 240.185 284.389C241.387 284.38 242.566 284.057 243.605 283.451C244.644 282.845 245.507 281.977 246.108 280.934L265.471 247.893C267.858 243.818 272.013 241.161 276.876 241.161L283.065 241.249C302.869 241.604 320.994 241.87 330.366 230.354C339.207 219.37 327.89 207.146 316.396 206.083C306.671 205.197 294.735 205.374 280.589 206.614C279.016 206.765 277.499 207.284 276.163 208.131C274.827 208.977 273.708 210.127 272.897 211.486L245.666 259.409C243.367 263.306 237.709 267.824 232.935 267.735H194.298C148.766 268.533 126.928 211.929 169.543 185.355C180.506 178.622 199.426 179.597 214.633 180.305L222.767 180.66C223.406 180.691 224.043 180.571 224.627 180.309C225.211 180.048 225.725 179.652 226.127 179.154C226.507 178.656 226.761 178.075 226.869 177.458C226.977 176.841 226.934 176.208 226.746 175.611C223.386 164.272 210.566 162.678 188.375 166.132C182.805 167.018 181.479 164.981 184.308 160.109L190.762 149.125C193.414 144.696 197.304 142.038 202.521 141.33C222.414 138.672 237.709 146.733 248.407 165.424C252.739 173.13 252.828 177.825 248.761 184.38C244.752 190.973 240.414 197.358 235.764 203.514C234.88 204.577 233.642 205.728 232.227 205.728H188.994C178.384 205.817 173.168 213.523 173.61 224.153V224.773C173.345 226.722 173.61 228.759 174.14 230.62C174.848 232.568 175.909 234.34 177.323 235.935C180.368 239.067 184.462 240.96 188.817 241.249L219.496 241.161C225.508 241.072 229.929 239.123 232.935 234.34C234.084 232.568 235.941 229.202 238.682 224.419C243.721 215.295 251.678 201.211 262.553 183.671C263.426 182.279 264.64 181.134 266.079 180.343C267.518 179.552 269.134 179.143 270.775 179.154H312.948C344.423 179.862 367.057 210.157 353.088 239.478C341.329 264.281 317.899 268.444 291.729 267.47C288.767 267.342 285.826 268.015 283.213 269.418C280.6 270.82 278.411 272.901 276.876 275.442L274.224 280.048C271.66 284.389 272.897 286.603 277.937 286.957ZM369.975 338.335C372.715 336.209 375.368 333.994 377.932 331.78C353.53 313.178 322.939 301.131 286.071 295.639C232.581 287.578 172.902 296.967 127.281 328.414C126.749 328.76 126.31 329.232 126.002 329.788C125.694 330.344 125.526 330.967 125.513 331.603C125.518 332.24 125.683 332.866 125.992 333.423C126.3 333.98 126.744 334.451 127.281 334.792C154.323 352.423 184.533 364.608 216.225 370.667C239.654 375.096 262.73 375.096 285.54 370.756C314.805 365.086 343.009 354.279 369.975 338.246V338.335Z" fill="#E31A20"/>
</svg>
