<svg width="500" height="500" viewBox="0 0 500 500" fill="none" xmlns="http://www.w3.org/2000/svg">
<rect width="500" height="500" fill="#0066B3"/>
<path d="M268.96 173.045C263.12 163.845 248.16 169.125 248.16 169.125C258.56 168.885 256.4 176.005 256.4 176.005C254.64 184.005 239.52 190.405 239.52 190.405C223.04 196.565 218.4 189.925 218.4 189.925C214.8 184.805 221.44 177.685 221.44 177.685C229.561 169.546 240.505 164.848 252 164.565C252.32 164.565 253.04 164.565 253.12 164.325C253.12 164.085 252 164.005 252 164.005C244.576 163.905 237.199 165.18 230.24 167.765C213.2 174.245 202.72 186.885 206.96 195.765C211.2 204.725 228.56 206.725 245.76 200.085C258.08 195.285 267.04 187.525 269.36 180.165C269.44 180.165 270.96 176.405 268.96 172.965V173.045Z" fill="#F7941E"/>
<path d="M246 227.848L254 220.008H222V278.888C222 291.688 215.68 305.768 198 308.968V316.008C229.92 313.608 246 299.208 246 282.488V227.848ZM78 300.008V220.008H110L102 228.328V293.528C102 297.048 99.52 300.008 96.24 300.008H78ZM278 300.008V220.008H310L302 228.328V293.528C302 297.048 299.52 300.008 296.24 300.008H278ZM158 228.328L166.32 220.008H134V300.008H192.24C195.44 300.008 198 297.048 198 293.608V292.008H158V228.328ZM398 274.328V220.008H430L422 228.328V293.608C422 297.048 417.84 300.008 414.56 300.008H399.6L358 246.088V293.528C358 296.968 356.08 299.928 352.72 299.928H334V220.088H354.72L398 274.328Z" fill="white"/>
</svg>
