<svg width="500" height="500" viewBox="0 0 500 500" fill="none" xmlns="http://www.w3.org/2000/svg">
<rect width="500" height="500" fill="#F9FBFB"/>
<path d="M334.624 125.334C310.167 125.417 285.794 125.501 261.338 125.501C256.068 125.501 250.715 125.752 245.364 125.501C243.222 125.501 241.082 125.417 238.777 125.417C213.991 125.417 189.041 125.417 163.762 125.417C163.515 125.417 163.35 125.25 163.268 124.998C163.185 124.581 163.268 124.246 163.597 124.078C174.961 116.383 187.23 110.025 200.323 105.173C205.509 103.249 210.862 101.827 216.049 100.154C217.449 99.7361 218.767 100.154 219.344 101.576C220.002 103.166 221.072 104.588 222.391 105.843C224.696 108.018 227.001 110.611 229.636 112.368C233.012 114.709 236.224 115.965 239.929 117.303C241.494 117.888 243.14 118.307 244.705 118.474C260.597 120.482 273.278 114.794 282.583 101.242C283.241 100.238 284.311 99.9034 285.711 100.322C304.074 105.006 320.872 112.618 336.022 123.075C336.764 123.577 337.34 124.163 337.752 124.915C337.917 125.25 337.834 125.417 337.505 125.417C336.517 125.417 335.529 125.166 334.54 125.166L334.624 125.334Z" fill="#E03C25"/>
<path d="M224.691 151.186C230.62 153.613 235.231 155.035 238.69 155.453C242.395 155.87 246.348 156.707 250.053 156.624C270.391 156.456 287.272 148.594 300.529 133.118C302.258 131.11 306.045 131.193 308.598 131.193C322.35 131.11 333.878 131.11 343.265 131.193C345.488 131.193 347.546 132.03 349.276 133.452C356.604 139.559 362.779 146.837 368.956 154.281C371.096 156.875 373.072 159.803 374.802 163.065C374.884 163.233 374.802 163.399 374.637 163.567C374.637 163.567 374.472 163.567 374.391 163.567C373.072 163.316 371.919 163.233 371.014 163.233C359.321 163.233 346.229 163.233 331.736 163.483C330.255 163.483 329.348 163.483 329.101 163.483C313.127 163.483 298.8 163.483 286.037 163.483C236.22 163.734 184.014 163.483 135.02 163.734C132.221 163.734 129.421 163.483 126.703 163.567C126.54 163.567 126.457 163.567 126.375 163.567C126.292 163.567 126.21 163.567 126.127 163.483C125.963 163.483 125.798 163.233 125.88 163.065C125.88 163.065 125.88 162.982 125.88 162.897C129.256 158.883 132.056 154.533 135.431 150.517C140.538 144.41 146.054 138.639 151.901 133.284C153.218 132.113 154.864 131.361 156.594 131.444C171.581 131.444 185.579 131.529 198.589 131.444C199.495 131.444 200.4 131.947 200.812 132.783C201.882 134.791 203.365 136.714 205.34 138.388C212.01 144.327 218.433 148.509 224.527 151.103L224.691 151.186Z" fill="#E03C25"/>
<path d="M224.199 203.804C189.533 204.138 155.691 203.804 121.436 203.804C116.661 203.804 112.296 203.971 108.509 204.305C108.097 204.305 107.768 204.054 107.768 203.636C107.768 203.636 107.768 203.468 107.768 203.385C108.591 199.872 109.661 196.358 111.061 192.845C114.355 184.563 117.896 177.119 121.519 170.593C121.848 170.009 122.343 169.673 123.001 169.673C124.894 169.506 126.706 169.422 128.353 169.506C149.104 169.59 163.925 169.59 172.819 169.506C176.112 169.506 177.512 170.092 180.229 172.267C186.733 177.453 193.568 181.97 200.815 185.735C204.85 187.826 209.213 189.416 213.495 191.005C220.906 193.765 228.729 195.606 236.963 196.526C264.63 199.788 289.827 193.681 312.553 178.373C316.423 175.78 319.883 172.684 323.753 170.175C324.904 169.422 326.223 169.088 327.704 169.088C343.514 169.172 358.665 169.172 373.157 169.088C375.545 169.088 378.592 168.084 380.075 170.844C385.097 180.381 390.203 191.424 393.413 202.13C393.578 202.716 393.25 203.385 392.673 203.553C392.59 203.553 392.426 203.553 392.343 203.553C352.737 203.553 313.213 203.636 273.77 203.804C269.077 203.804 263.724 203.804 257.796 203.971C246.679 204.138 235.069 203.719 224.364 203.887L224.199 203.804Z" fill="#E03C25"/>
<path d="M155.689 210.66C156.101 210.826 156.513 211.078 156.924 211.329C163.677 215.762 170.347 219.443 177.017 222.538C185.004 226.136 193.732 229.816 202.213 232.158C213.412 235.337 223.786 237.428 233.256 238.348C241.984 239.268 252.277 239.353 264.217 238.683C267.429 238.516 270.722 238.18 274.099 237.679C299.213 234.081 323.503 224.629 344.996 210.826C346.642 209.823 348.866 209.489 351.006 209.404C365.416 209.237 379.662 209.237 393.742 209.321C394.977 209.321 395.718 209.823 396.048 211.161C398.435 222.371 399.753 233.412 400 244.372C400 244.957 399.507 245.458 398.93 245.458C385.59 245.458 372.004 245.458 358.334 245.458C353.888 245.458 349.854 244.957 345.159 243.452C332.15 239.185 318.646 238.599 304.73 241.778C300.448 242.782 293.86 245.794 288.014 245.794C270.229 245.709 252.442 245.794 234.738 245.794C225.27 245.794 216.046 245.877 206.907 245.877C172.734 245.877 137.739 245.877 102.002 245.877C101.426 245.877 100.932 245.375 100.932 244.789C101.426 233.497 102.908 222.287 105.296 211.078C105.543 210.074 106.531 209.572 107.519 209.572C122.918 209.655 137.574 209.74 151.408 209.655C152.889 209.655 154.289 209.991 155.772 210.575L155.689 210.66Z" fill="#E03C25"/>
<path d="M103.649 284.106C101.343 273.649 99.367 262.272 100.19 251.566C100.19 251.398 100.273 251.398 100.437 251.398H100.849C100.849 251.398 101.014 251.482 101.014 251.649C100.52 256.417 100.52 260.266 101.014 263.194C105.378 287.452 117.565 306.441 137.409 320.159C148.526 327.856 160.877 332.373 174.381 333.878C190.439 335.635 205.918 332.875 220.658 325.514C234.161 318.821 245.031 309.201 253.429 296.57C253.924 295.818 255.736 292.554 258.947 286.615C267.676 270.47 280.85 259.346 298.554 253.239C305.305 250.897 312.717 249.724 320.868 249.809C332.479 249.809 343.431 252.569 353.723 257.839C370.521 266.539 382.544 281.513 388.8 300C389.542 302.091 388.637 303.931 387.895 305.939C383.695 316.228 378.674 325.597 372.827 334.13C369.697 338.646 366.734 343.081 363.111 347.263C360.887 349.772 358.911 351.948 357.017 353.788C329.185 382.229 292.049 399.462 252.524 400.048C238.196 400.299 225.105 398.876 213.165 395.864C188.462 389.591 164.417 377.294 146.631 359.141C142.185 354.624 138.644 350.777 135.845 347.43C126.128 335.971 118.141 323.004 111.965 308.532C108.754 301.088 105.543 292.304 103.731 284.106H103.649Z" fill="#2241B0"/>
<path d="M393.164 288.709C387.482 274.824 378.672 263.028 366.897 254.412C366.732 254.244 366.649 253.994 366.814 253.826C366.814 253.826 366.814 253.826 366.897 253.743C368.297 252.906 369.696 252.153 371.179 251.652C372.249 251.233 373.896 251.066 376.037 251.066C383.036 251.066 390.447 251.066 398.352 250.982C399.01 250.982 399.587 251.484 399.587 252.153C399.587 264.199 397.199 276.413 393.823 288.626C393.659 289.295 393.412 289.295 393.164 288.626V288.709Z" fill="#E03C25"/>
<path d="M157.171 264.614C172.816 271.139 188.297 275.908 203.695 278.919C210.612 280.257 218.27 281.428 226.668 282.348C233.421 283.101 241.82 283.436 251.866 283.436C252.606 283.436 252.853 283.77 252.689 284.523C252.359 285.694 251.948 286.866 251.454 287.952C250.794 289.291 249.724 289.96 248.243 289.96H122.423C121.435 289.96 120.528 289.375 120.035 288.538C117.153 283.184 114.188 277.831 112.13 272.142C109.742 265.617 108.26 259.009 107.601 252.317C107.601 251.898 107.766 251.732 108.178 251.732C112.789 251.815 117.565 251.732 122.423 251.732C127.61 251.564 131.563 252.066 136.256 254.743C142.021 257.922 148.938 261.267 157.089 264.697L157.171 264.614Z" fill="#E03C25"/>
</svg>
