<svg width="500" height="500" viewBox="0 0 500 500" fill="none" xmlns="http://www.w3.org/2000/svg">
<rect width="500" height="500" fill="white"/>
<path fill-rule="evenodd" clip-rule="evenodd" d="M401.16 328.168C400.429 331.424 398.645 334.348 396.084 336.487C393.523 338.627 390.327 339.862 386.993 340.001H80.4117C73.9118 340.001 69.7451 334.668 71.0785 328.168L101.495 176.835C102.828 170.335 109.078 165.002 116.161 165.002H219.494L158.161 232.918L167.828 190.002H136.161L109.078 315.001H140.745L148.078 280.751L156.245 271.168L167.078 315.001H198.578L180.244 246.918L254.244 165.002H420.076C426.076 165.002 430.243 170.335 428.909 176.835L401.243 328.168H401.16ZM200.828 281.335L212.661 222.835C220.827 191.752 261.827 190.002 261.827 190.002C304.494 189.168 298.494 221.502 298.494 221.502L296.827 231.668H266.827L268.494 221.502C269.91 211.752 257.411 211.752 257.411 211.752C243.661 212.835 243.244 222.835 243.244 222.835L231.077 283.084C228.327 293.751 241.077 292.418 241.077 292.418C253.411 293.251 256.327 281.751 256.327 281.751L259.661 265.001H289.66L285.66 285.334C274.91 316.334 236.494 315.001 236.494 315.001C192.744 315.001 200.828 281.335 200.828 281.335ZM304.077 222.835L292.244 281.335C292.244 281.335 284.077 315.001 327.91 315.001C327.91 315.001 366.327 316.334 377.076 285.334L382.076 265.001H352.077L347.743 281.751C347.743 281.751 344.743 293.251 332.41 292.418C332.41 292.418 319.66 293.751 322.41 283.084L334.66 222.835C334.66 222.835 334.993 212.835 348.827 211.752C348.827 211.752 361.327 211.752 359.91 221.502L357.577 231.668H387.576L389.91 221.502C389.91 221.502 395.826 189.085 353.243 190.002C353.243 190.002 312.16 191.752 304.077 222.835Z" fill="#004098"/>
<path d="M277.076 140H242.243L219.41 165H254.077L277.076 140Z" fill="#E60012"/>
</svg>
