<svg width="500" height="500" viewBox="0 0 500 500" fill="none" xmlns="http://www.w3.org/2000/svg">
<rect width="500" height="500" fill="#F9FBFB"/>
<path d="M223.474 109.411L276.526 82V223.474H347.263C338.775 192.084 315.432 166.884 285.368 155.566V111.621C311.681 118.369 335.527 132.473 354.115 152.282C372.702 172.091 385.262 196.785 390.324 223.474H390.589L418 276.526H276.526V347.263C307.827 338.686 333.116 315.432 344.434 285.368H388.379C381.631 311.681 367.527 335.527 347.718 354.115C327.909 372.702 303.215 385.262 276.526 390.324V390.501L223.474 418V276.526H152.737C161.225 307.827 184.568 333.116 214.632 344.434V388.379C188.319 381.631 164.473 367.527 145.885 347.718C127.298 327.909 114.738 303.215 109.676 276.526H109.411L82 223.474H223.474V152.737C192.084 161.225 166.884 184.568 155.566 214.632H111.621C118.369 188.319 132.473 164.473 152.282 145.885C172.091 127.298 196.785 114.738 223.474 109.676V109.411Z" fill="#D71837"/>
</svg>
