<svg width="500" height="500" viewBox="0 0 500 500" fill="none" xmlns="http://www.w3.org/2000/svg">
<rect width="500" height="500" fill="#00B259"/>
<g clip-path="url(#clip0_589_719)">
<path d="M312.379 91.75L249.981 123.069L187.662 91.75L249.981 210.299L312.379 91.75Z" fill="#FFB71B"/>
<path d="M334.186 183.401L333.231 182.566L377.721 163.862V101.305L300.4 134.255C300.4 134.255 258.536 213.566 257.581 215.396C290.372 219.336 315.005 246.834 315.005 279.944C315.005 315.838 285.835 345.008 249.98 345.008C214.125 345.008 184.955 315.799 184.955 279.944C184.955 246.834 209.549 219.336 242.339 215.396C241.384 213.566 199.56 134.255 199.56 134.255L122.398 101.305V163.862L166.849 182.566L165.894 183.401C137.998 207.756 122 242.934 122 279.944C122 350.54 179.424 408.003 249.98 408.003C320.536 408.003 378 350.54 378 279.944C378 243.014 362.002 207.796 334.146 183.401H334.186Z" fill="#FFB71B"/>
</g>
<defs>
<clipPath id="clip0_589_719">
<rect width="256" height="316.249" fill="white" transform="translate(122 91.75)"/>
</clipPath>
</defs>
</svg>
