<svg width="500" height="500" viewBox="0 0 500 500" fill="none" xmlns="http://www.w3.org/2000/svg">
<rect width="500" height="500" fill="black"/>
<path d="M77.7927 204H70.6969C70.312 204 70 204.312 70 204.697V291.304C70 291.688 70.312 292 70.6969 292H77.7927C78.1776 292 78.4895 291.688 78.4895 291.304V204.697C78.4895 204.312 78.1776 204 77.7927 204Z" fill="#62CF78"/>
<path d="M185.811 232.951C168.072 236.119 168.831 262.031 186.382 263.869C191.893 264.438 196.645 262.602 200.636 258.294C200.953 257.977 201.396 257.977 201.713 258.294L208.745 264.819C209.126 265.199 209.126 265.77 208.809 266.149C205.008 270.457 200.193 273.182 194.364 274.322C176.244 277.933 159.836 267.037 160.025 247.713C160.152 234.978 169.022 224.715 181.63 222.498C185.684 221.8 189.866 221.8 194.11 222.498C200.193 223.511 205.198 226.425 209.189 231.241C209.253 231.304 209.253 231.431 209.189 231.494L201.396 238.717C201.396 238.717 200.953 238.843 200.827 238.717C196.138 233.901 191.133 232 185.748 232.951H185.811Z" fill="white"/>
<path d="M118.342 244.739L139.059 222.882C139.059 222.882 139.249 222.755 139.376 222.755H152.934C152.934 222.755 153.314 223.009 153.314 223.199C153.314 223.262 153.314 223.388 153.187 223.451L132.787 245.499C132.787 245.499 132.66 245.879 132.787 246.006L154.392 273.376C154.392 273.376 154.517 273.755 154.328 273.882C154.265 273.882 154.201 273.946 154.075 273.946H139.882C139.882 273.946 139.63 273.946 139.566 273.819L124.234 255.066C124.234 255.066 123.854 254.876 123.727 255.003L117.899 261.085C117.899 261.085 117.772 261.275 117.772 261.338V273.502C117.772 273.502 117.518 273.882 117.328 273.882H105.544C105.544 273.882 105.164 273.692 105.164 273.502V223.199C105.164 223.199 105.354 222.818 105.544 222.818H117.328C117.328 222.818 117.708 222.945 117.708 223.135V244.485C117.708 244.485 117.835 244.866 118.025 244.866C118.152 244.866 118.215 244.866 118.279 244.739H118.342Z" fill="white"/>
<path d="M235.608 245.373H257.91C257.91 245.373 258.48 245.626 258.48 245.879V255.193C258.48 255.51 258.227 255.762 257.91 255.762H235.672C235.672 255.762 235.101 256.016 235.101 256.333V273.376C235.101 273.376 234.849 273.946 234.532 273.946H222.938C222.938 273.946 222.367 273.755 222.367 273.44V223.324C222.367 223.324 222.621 222.755 222.938 222.755H260.887C260.887 222.755 261.458 222.945 261.458 223.262V232.511C261.458 232.511 261.204 233.082 260.887 233.082H235.672C235.672 233.082 235.101 233.335 235.101 233.651V244.866C235.101 244.866 235.355 245.435 235.608 245.435V245.373Z" fill="white"/>
<path d="M287.308 253.419V263.238C287.308 263.238 287.497 263.682 287.75 263.682H314.423C314.423 263.682 314.867 263.872 314.867 264.126V273.565C314.867 273.565 314.676 274.009 314.423 274.009H275.143C275.143 274.009 274.699 273.819 274.699 273.565V223.199C274.699 223.199 274.889 222.755 275.143 222.755H313.346C313.346 222.755 313.79 222.945 313.79 223.135V232.575C313.79 232.575 313.6 233.018 313.346 233.018H287.687C287.687 233.018 287.244 233.209 287.244 233.462V242.711C287.244 242.711 287.433 243.155 287.687 243.155H310.178C310.178 243.155 310.622 243.345 310.622 243.599V252.595C310.622 252.595 310.432 253.038 310.178 253.038H287.687C287.687 253.038 287.244 253.228 287.244 253.482L287.308 253.419Z" fill="white"/>
<path d="M342.489 263.682H368.971C368.971 263.682 369.477 263.936 369.477 264.189V273.44C369.477 273.44 369.287 273.946 369.035 273.946H330.007C330.007 273.946 329.5 273.692 329.5 273.44V223.262C329.5 223.262 329.754 222.755 330.007 222.755H368.02C368.02 222.755 368.527 222.945 368.527 223.262V232.575C368.527 232.575 368.274 233.082 368.02 233.082H342.489C342.489 233.082 341.982 233.335 341.982 233.589V242.711C341.982 242.965 342.235 243.218 342.489 243.218H365.042C365.042 243.218 365.55 243.409 365.55 243.726V252.532C365.55 252.532 365.296 253.038 365.042 253.038H342.552C342.552 253.038 342.045 253.292 342.045 253.545V263.238C342.045 263.492 342.299 263.745 342.552 263.745L342.489 263.682Z" fill="white"/>
<path d="M384.306 223.578C384.306 223.135 384.687 222.755 385.131 222.755H409.966C424.284 222.882 435.878 233.651 435.878 246.956V250.06C435.878 263.302 424.157 274.072 409.839 274.009H385.004C384.56 273.946 384.18 273.565 384.18 273.122L384.37 223.578H384.306ZM396.915 233.715V263.175C396.915 263.175 397.104 263.619 397.357 263.619H408.065C416.364 263.619 423.144 257.03 423.144 248.984V248.034C423.144 239.924 416.427 233.399 408.065 233.399H397.357C397.357 233.399 396.915 233.589 396.915 233.841V233.715Z" fill="white"/>
</svg>
