<svg width="500" height="500" viewBox="0 0 500 500" fill="none" xmlns="http://www.w3.org/2000/svg">
<rect width="500" height="500" fill="#001F58"/>
<path d="M92.4489 211.412C95.4421 191.05 112.633 176.455 133.083 176.15C146.416 175.964 159.069 175.951 171.042 176.11C171.183 176.11 171.315 176.163 171.439 176.269C171.492 176.321 171.533 176.383 171.56 176.451C171.588 176.52 171.601 176.593 171.598 176.667V196.22C171.598 196.662 171.377 196.879 170.936 196.87C159.899 196.782 148.703 196.759 137.348 196.804C128.854 196.83 123.203 200.599 120.395 208.111C116.792 217.683 122.196 224.841 130.315 229.057C142.09 235.141 153.752 241.444 165.294 247.961C184.896 259.11 184.366 284.284 172.499 301.398C162.989 315.119 148.129 320.408 130.977 319.97C119.752 319.679 108.522 319.657 97.2964 319.904C97.1589 319.912 97.0226 319.876 96.9063 319.802C96.79 319.729 96.6995 319.621 96.6474 319.493C96.6207 319.407 96.603 319.318 96.5944 319.228V300.231C96.5944 299.913 96.7489 299.75 97.058 299.741C105.611 299.436 114.172 299.427 122.726 299.714C131.582 300.024 137.895 299.303 141.665 297.554C154.168 291.721 159.347 273.811 144.831 265.738C136.744 261.256 128.58 256.916 120.342 252.72C110.055 247.453 103.389 243.056 100.343 239.53C93.4908 231.611 90.8595 222.23 92.4489 211.412ZM237.94 197.758V318.91C237.94 319.156 237.842 319.392 237.668 319.566C237.494 319.74 237.259 319.838 237.013 319.838L211.742 319.811C211.62 319.811 211.5 319.787 211.387 319.741C211.275 319.694 211.173 319.626 211.087 319.54C211 319.453 210.932 319.351 210.886 319.239C210.839 319.126 210.815 319.005 210.815 318.883V197.758C210.815 197.512 210.717 197.276 210.543 197.102C210.37 196.928 210.134 196.83 209.888 196.83H176.578C176.456 196.83 176.336 196.806 176.223 196.76C176.111 196.713 176.008 196.645 175.922 196.558C175.836 196.472 175.768 196.37 175.721 196.257C175.675 196.145 175.651 196.024 175.651 195.902L175.624 176.972C175.624 176.726 175.722 176.49 175.896 176.316C176.07 176.142 176.306 176.044 176.551 176.044H272.799C272.921 176.044 273.042 176.068 273.154 176.114C273.267 176.161 273.369 176.229 273.455 176.316C273.541 176.402 273.609 176.504 273.656 176.617C273.702 176.729 273.726 176.85 273.726 176.972L273.673 195.915C273.673 196.162 273.576 196.398 273.402 196.572C273.228 196.746 272.992 196.843 272.746 196.843H238.854C238.732 196.843 238.611 196.867 238.499 196.914C238.386 196.961 238.284 197.029 238.198 197.115C238.112 197.201 238.044 197.304 237.997 197.416C237.951 197.529 237.927 197.65 237.927 197.771M305.473 176.017H280.6C280.451 176.016 280.304 176.043 280.165 176.099C280.027 176.155 279.902 176.238 279.796 176.343C279.69 176.447 279.606 176.572 279.548 176.71C279.491 176.847 279.461 176.995 279.461 177.144V318.685C279.461 319.308 279.965 319.811 280.6 319.811H305.473C305.772 319.811 306.058 319.693 306.27 319.481C306.481 319.27 306.599 318.983 306.599 318.685V177.144C306.599 176.845 306.481 176.559 306.27 176.347C306.058 176.136 305.772 176.017 305.473 176.017ZM409.271 202.226C399.483 197.029 390.503 195.664 379.709 197.493C346.823 203.034 335.591 229.64 340.386 259.905C343.697 280.674 355.697 293.356 376.385 297.951C388.437 300.656 399.43 299.741 409.363 295.207C409.699 295.075 409.867 295.185 409.867 295.539L409.84 315.158C409.849 315.315 409.802 315.47 409.708 315.596C409.606 315.723 409.467 315.815 409.31 315.861C392.446 321.164 375.846 321.371 359.511 316.484C331.274 308.009 315.623 288.19 312.559 257.028C307.513 205.341 342.161 171.921 392.887 176.614C398.582 177.144 404.021 178.713 409.204 181.32C409.646 181.559 409.867 181.921 409.867 182.407L409.84 201.881C409.84 201.984 409.8 202.083 409.729 202.158C409.657 202.232 409.559 202.275 409.456 202.279L409.271 202.226Z" fill="white"/>
</svg>
