<svg width="500" height="500" viewBox="0 0 500 500" fill="none" xmlns="http://www.w3.org/2000/svg">
<rect width="500" height="500" fill="white"/>
<path d="M179.765 195.178C188.864 163.13 205.95 134.266 228.849 110.71V110.66C165.712 120.416 116.276 171.419 109.3 235.062C115.921 228.692 126.032 220.301 139.731 212.313C150.093 206.198 163.539 199.828 179.765 195.178Z" fill="#4987C6"/>
<path d="M147.212 274.792C156.412 280.201 166.117 284.599 176.076 287.986C173.547 275.399 172.234 262.458 172.234 249.164C172.234 235.87 173.497 222.98 176.076 210.444C166.066 213.882 156.412 218.228 147.212 223.636C130.732 233.191 119.814 243.554 114.405 249.214C119.814 254.877 130.732 265.239 147.212 274.792Z" fill="#4987C6"/>
<path d="M109.051 263.117C114.938 329.162 166.539 382.314 232.134 390.904C207.669 366.742 189.421 336.766 179.866 303.302C163.589 298.55 150.093 292.233 139.731 286.166C125.919 278 115.725 269.431 109.051 263.117Z" fill="#4987C6"/>
<path d="M195.233 307.043C205.243 337.12 222.885 364.011 245.934 385.394V310.127C227.13 311.339 210.146 309.925 195.233 307.043Z" fill="#4987C6"/>
<path d="M190.937 292.283C208.326 296.478 226.725 297.893 245.934 296.528V201.9C226.775 200.485 208.326 201.9 190.937 206.097C187.651 219.947 185.831 234.303 185.831 249.164C185.831 264.025 187.651 278.433 190.937 292.283Z" fill="#4987C6"/>
<path d="M195.132 191.437C210.146 188.505 227.13 187.09 245.934 188.304V112.885C222.885 134.317 205.243 161.209 195.132 191.437Z" fill="#4987C6"/>
<path d="M384.161 202.223C384 201.785 383.838 201.34 383.681 200.89L383.731 200.839C366.494 155.295 326.256 120.718 277.174 111.519C305.128 140.686 324.285 177.891 330.604 219.138C337.529 221.413 348.6 223.131 361.186 221.059C366.544 220.249 372.813 218.431 379.333 215.195C381.86 214.033 383.731 212.819 384.945 210.04C386.124 207.591 385.187 205.029 384.161 202.223Z" fill="#4987C6"/>
<path d="M315.338 211C307.251 172.987 287.384 139.119 259.582 113.137V189.567C264.637 190.426 286.222 195.076 315.338 211Z" fill="#4987C6"/>
<path d="M318.119 228.288C290.013 211.202 267.468 205.187 259.582 203.366V294.962C267.468 293.141 289.913 287.126 318.119 270.042C318.928 263.217 319.331 256.089 319.331 249.114C319.331 242.138 318.928 235.163 318.119 228.288Z" fill="#4987C6"/>
<path d="M259.582 308.761V385.091C287.333 359.158 307.251 325.342 315.338 287.38C286.222 303.302 264.637 307.954 259.582 308.761Z" fill="#4987C6"/>
<path d="M273.787 390.195C326.206 381.552 369.021 344.297 385.45 295.165L385.398 295.265C386.208 292.889 386.258 290.058 385.602 288.491C385.046 286.874 382.974 285.054 380.648 283.842C373.672 280.251 366.848 278.28 361.135 277.32C348.549 275.096 337.478 276.916 330.553 279.241C324.033 322.056 303.459 360.524 273.787 390.195Z" fill="#4987C6"/>
<path fill-rule="evenodd" clip-rule="evenodd" d="M249.975 418C342.732 418 417.95 342.782 417.95 250.025C417.95 157.216 342.732 82 249.975 82C157.217 82 82 157.268 82 250.025C82 342.782 157.217 418 249.975 418ZM332.323 264.734C347.891 261.196 370.436 261.701 390.757 273.882C390.757 273.882 395.559 276.562 397.43 280.505C399.25 284.498 398.896 291.119 398.896 291.119C381.053 355.974 321.302 403.794 250.585 403.794C165.764 403.794 96.7646 335.048 96.7646 250.58C96.7646 166.113 165.714 97.3149 250.635 97.3653C321.858 97.3653 381.305 144.83 398.795 210.292C398.795 210.292 400.058 214.488 397.682 218.683C395.358 222.929 390.302 224.85 390.302 224.85C370.133 236.729 347.79 237.285 332.323 233.747C332.728 238.852 332.929 244.009 332.929 249.214C332.929 254.422 332.728 259.577 332.323 264.734Z" fill="#4987C6"/>
</svg>
