<svg width="500" height="500" viewBox="0 0 500 500" fill="none" xmlns="http://www.w3.org/2000/svg">
<rect width="500" height="500" fill="white"/>
<path d="M256.848 84.8852L268.944 101.013L270.864 103.893C275.664 113.493 282.768 122.133 285.936 132.789L287.856 138.837C287.856 138.837 288.336 140.853 288.624 143.253C290.352 150.069 288.624 156.693 288.048 163.413C285.84 175.413 278.832 186.453 272.688 196.725C266.928 204.597 254.352 219.669 254.352 219.669C246.864 210.741 238.896 202.101 231.12 193.557C226.8 185.589 222.288 177.621 218.352 169.269C215.568 159.669 213.072 150.165 213.456 140.757C213.36 140.661 213.744 136.629 213.936 134.997C214.896 131.637 215.472 127.989 217.296 125.109C217.776 123.573 219.792 120.309 220.944 118.965C220.944 118.965 224.592 113.781 225.648 112.533C234.288 101.589 245.808 93.9092 255.888 84.3092C256.368 83.9252 256.56 84.6932 256.848 84.8852ZM140.976 140.373C143.664 141.525 146.64 141.909 149.328 142.965C157.008 143.733 164.304 145.845 171.6 147.765C176.112 149.397 185.04 153.909 185.04 153.909C196.656 160.341 204.528 170.229 212.688 179.349C220.061 189.233 225.292 200.546 228.048 212.565C228.624 216.309 229.872 220.245 230.16 224.085C217.584 227.829 204.72 229.845 192.24 230.229C182.15 228.429 172.422 224.991 163.44 220.053C154.747 213.794 147.183 206.1 141.072 197.301C132.356 182.485 127.319 165.794 126.384 148.629L125.328 139.029L125.424 136.437L129.84 137.301C132.72 138.165 139.632 140.181 140.976 140.373ZM349.584 150.933C349.968 151.029 362.448 153.045 369.744 155.157C370.992 155.349 371.664 155.733 372.816 155.925C379.152 158.133 385.488 160.245 391.92 162.645C390.96 171.285 389.328 179.829 384.048 187.317L383.376 188.277C378.6 195.535 372.394 201.742 365.136 206.517C358.608 210.837 352.08 215.445 344.688 218.517C329.424 225.813 311.376 231.285 294.192 228.501C287.76 227.349 281.04 227.157 274.608 225.717L278.832 208.437C279.6 204.885 282.672 197.877 282.672 197.877C287.472 190.293 289.104 181.749 295.536 174.645C303.515 165.261 313.441 157.727 324.624 152.565C332.674 149.928 341.259 149.367 349.584 150.933ZM176.496 295.413C185.136 292.437 191.088 285.813 197.328 280.053C203.664 274.101 209.04 267.381 214.32 260.469C214.512 260.277 219.216 253.461 221.52 250.869L222 250.101C210.192 245.685 198.672 241.077 186.768 238.197C176.688 235.893 166.8 232.725 156.432 232.533C147.6 232.341 139.056 230.805 129.84 233.013C111 237.951 93.3618 246.672 78 258.645L78.192 259.125C84.8492 268.64 92.2312 277.627 100.272 286.005L107.76 292.821C110.736 294.261 116.976 296.757 116.976 296.757C124.656 300.789 132.912 301.845 141.072 302.517C150.48 301.845 166.608 299.925 176.496 295.317V295.413ZM340.08 232.437C344.496 232.341 347.568 232.917 351.312 233.205C361.872 234.357 372.048 237.909 382.032 242.229C385.566 244.32 388.879 246.765 391.92 249.525C394.8 252.213 397.296 255.093 399.6 257.973C400.368 259.509 402.48 262.677 402.672 263.061C406.608 270.549 410.352 278.421 413.424 286.389L414 287.829C412.272 288.789 410.16 289.077 408.24 289.749C407.952 289.845 402.288 291.477 399.984 292.533C389.307 294.94 378.507 296.767 367.632 298.005C367.344 298.005 360.048 298.677 358.704 298.485C356.688 298.965 354.768 298.581 352.752 298.677C348.528 298.773 339.504 298.101 339.12 297.909C335.366 297.553 331.663 296.78 328.08 295.605L317.712 291.477C315.984 290.709 312.048 288.213 312.048 288.213C309.648 287.157 307.44 285.237 305.328 283.797C301.68 280.917 298.416 277.749 295.728 274.101C291.216 268.341 284.496 255.285 284.4 255.189C293.225 248.046 303.145 242.374 313.776 238.389C317.904 236.661 322.128 235.221 326.352 233.685C330.96 233.109 335.76 231.957 340.176 232.437H340.08ZM322.608 308.469C330.096 318.261 338.064 327.093 340.176 340.533C340.848 344.757 341.712 349.173 341.904 353.301C342.48 358.005 343.056 362.901 343.056 367.509C343.152 374.709 342.576 382.101 342.576 389.397C339.024 388.341 335.568 386.805 332.112 385.557C331.824 385.653 307.824 376.917 307.824 376.917C298.992 373.077 290.16 367.989 282.096 362.325C282.096 362.325 270.768 353.973 267.216 348.789C264.816 345.429 262.608 341.877 260.304 338.421C259.216 336.532 258.408 334.495 257.904 332.373C256.47 327.187 255.823 321.815 255.984 316.437C255.888 314.229 255.984 311.637 256.176 309.141C257.328 298.293 260.016 287.733 263.376 277.173L263.952 274.389C284.4 281.493 308.112 291.765 322.608 308.469ZM238.32 274.677C223.824 280.149 209.904 286.773 195.888 293.205C193.584 294.645 191.088 296.373 188.688 297.717C184.56 302.325 175.248 310.773 175.248 310.773C169.776 316.149 164.304 324.309 164.304 332.661C163.728 340.725 164.592 348.981 165.744 357.141C167.28 365.781 170.16 374.421 172.944 382.965C173.52 385.845 174.384 388.533 174.96 391.413C175.824 391.317 176.976 390.837 178.032 390.741C178.032 390.741 200.688 383.061 210.672 377.397C219.038 373.182 226.453 367.302 232.464 360.117C233.52 359.157 235.536 356.469 235.536 356.469C243.22 345.943 247.477 333.307 247.728 320.277V314.613C247.44 309.909 246.192 305.205 245.808 300.597C244.848 297.909 244.464 295.125 243.6 292.341C242.256 286.581 239.952 280.725 238.32 274.773V274.677Z" fill="#E60000"/>
</svg>
