<svg width="500" height="500" viewBox="0 0 500 500" fill="none" xmlns="http://www.w3.org/2000/svg">
<rect width="500" height="500" fill="#EA5B0C"/>
<path d="M248.841 90.0105C228.611 89.7732 208.534 93.553 189.773 101.131C171.01 108.709 153.935 119.936 139.536 134.161C125.138 148.385 113.699 165.326 105.882 184.004C98.0662 202.681 94.0275 222.725 94 242.975C94 331.689 157.886 373.443 200.697 376.901C248.797 380.752 294.45 355.85 294.45 275.45V236.498H262.047V212.82H336.384V263.72C336.384 324.599 316.401 393.445 222.343 399.178V425C301.62 424.256 406 366.265 406 243.981C406 158.374 337.347 90.0105 249.016 90.0105H248.841ZM203.757 344.645C191.47 341.144 173.672 327.139 173.672 299.522V236.498H150.015V212.82H173.672V167.302H214.733V212.82H243.9V236.498H214.733V285.385C214.733 292.475 214.514 305.299 220.244 311.032C223.281 313.41 227.072 314.616 230.924 314.432C234.777 314.246 238.435 312.683 241.233 310.026L255.881 325.124C239.965 347.446 219.15 349.066 203.757 344.645ZM335.904 194.525H294.843V153.384H335.904V194.525Z" fill="white"/>
</svg>
