<svg width="500" height="500" viewBox="0 0 500 500" fill="none" xmlns="http://www.w3.org/2000/svg">
<rect width="500" height="500" fill="white"/>
<path fill-rule="evenodd" clip-rule="evenodd" d="M369.433 222.962C354.606 237.788 334.498 246.118 313.53 246.118C292.562 246.118 272.453 237.788 257.627 222.962C255.895 221.23 254.252 219.426 252.7 217.557L210.359 254.419L200.773 244.042L200.872 244.141L244.68 205.917C238.046 194.162 234.471 180.795 234.471 167.059C234.471 146.091 242.8 125.982 257.627 111.156C272.453 96.3294 292.562 88 313.53 88C334.498 88 354.606 96.3294 369.433 111.156C384.259 125.982 392.589 146.091 392.589 167.059C392.589 188.026 384.259 208.135 369.433 222.962ZM362.942 167.059C362.942 187.713 346.142 216.471 313.53 216.471C280.918 216.471 264.118 187.713 264.118 167.059C264.118 146.405 281.61 117.647 313.53 117.647C345.351 117.647 362.942 146.405 362.942 167.059Z" fill="#0556AE"/>
<path fill-rule="evenodd" clip-rule="evenodd" d="M195.989 326.495C186.806 332.051 176.205 335.058 165.294 335.058C149.568 335.058 134.487 328.811 123.367 317.692C112.247 306.572 106 291.49 106 275.764C106 260.039 112.247 244.957 123.367 233.837C134.487 222.717 149.568 216.47 165.294 216.47C181.02 216.47 196.102 222.717 207.221 233.837C218.341 244.957 224.588 260.039 224.588 275.764C224.588 291.49 218.341 306.572 207.221 317.692C207.189 317.724 207.157 317.756 207.125 317.788L241.288 354.329L230.714 363.619V363.717L195.989 326.495ZM194.941 275.764C194.941 289.303 184.664 305.313 165.294 305.411C161.39 305.451 157.517 304.711 153.902 303.235C150.287 301.759 147.003 299.577 144.242 296.816C141.481 294.055 139.299 290.771 137.823 287.156C136.347 283.542 135.607 279.669 135.647 275.764C135.647 262.226 145.233 246.315 165.294 246.117C185.256 245.92 194.941 262.226 194.941 275.764Z" fill="#009BCB"/>
<path fill-rule="evenodd" clip-rule="evenodd" d="M259.174 399.59C264.506 399.541 269.611 397.42 273.41 393.677C277.208 389.934 279.403 384.861 279.531 379.529C279.531 370.536 272.811 359.369 259.174 359.369C245.536 359.369 239.113 370.536 239.113 379.529C239.113 388.522 246.327 399.788 259.174 399.59ZM259.174 424C270.968 424 282.279 419.314 290.619 410.975C298.959 402.635 303.644 391.324 303.644 379.529C303.644 367.735 298.959 356.424 290.619 348.084C282.279 339.744 270.968 335.059 259.174 335.059C247.379 335.059 236.068 339.744 227.728 348.084C219.388 356.424 214.703 367.735 214.703 379.529C214.703 391.324 219.388 402.635 227.728 410.975C236.068 419.314 247.379 424 259.174 424Z" fill="#58CC00"/>
</svg>
