<svg width="500" height="500" viewBox="0 0 500 500" fill="none" xmlns="http://www.w3.org/2000/svg">
<rect width="500" height="500" fill="white"/>
<path d="M368.799 131.209C336.352 98.7482 296.577 82 249.473 82C203.423 82 163.648 98.7482 131.192 131.209C98.7456 163.652 82 203.434 82 249.5C82 295.566 98.7456 335.348 131.192 367.8C163.648 400.252 203.414 417 249.473 417C296.577 417 336.352 400.252 368.799 367.8C401.246 335.348 418 295.566 418 249.5C418 203.442 401.254 163.661 368.799 131.2V131.209Z" fill="#C5013D"/>
<path d="M249.263 107.769C210.567 107.769 177.972 122.245 150.789 150.499C123.597 176.656 109.828 210.316 109.828 249.038C109.828 286.715 123.765 320.198 149.913 348.452C178.149 374.618 211.619 388.138 249.263 388.138C287.96 388.138 321.422 374.618 348.614 348.452C375.806 320.198 389.141 287.759 389.141 249.038V240.879H293.991V258.576H376.496C374.409 291.016 360.906 318.022 336.853 341.046C311.748 364.07 282.734 375.494 249.263 375.494C213.715 375.494 184.427 363.105 160.374 337.993C135.269 313.925 122.465 284.618 122.465 249.038C122.465 214.51 135.269 184.336 160.374 159.224C184.427 134.103 213.706 121.281 249.263 121.281H256.232V107.769H249.263ZM240.933 170.09V320.517H293.991V302.82H258.619V170.09H240.933Z" fill="white"/>
<path d="M196.92 214.969C206.882 214.969 214.957 206.893 214.957 196.931C214.957 186.968 206.882 178.892 196.92 178.892C186.959 178.892 178.884 186.968 178.884 196.931C178.884 206.893 186.959 214.969 196.92 214.969Z" fill="white"/>
</svg>
