<svg width="500" height="500" viewBox="0 0 500 500" fill="none" xmlns="http://www.w3.org/2000/svg">
<rect width="500" height="500" fill="#D0303C"/>
<path d="M114.18 166.026C114.18 166.026 119.14 160.1 125.609 153.168C125.609 153.168 170.771 210.112 179.625 220.978C181.889 223.775 226.458 277.952 232.987 284.481C239.537 291.021 287.979 347.089 287.979 347.089L324.017 388.047L316.813 390.371L258.562 323.155C258.562 323.155 234.617 294.824 232.987 293.204C231.367 291.564 203.046 259.45 203.046 259.45C203.046 259.45 175.279 229.489 170.389 224.59C150.771 205.001 114.18 166.016 114.18 166.016V166.026Z" fill="white"/>
<path d="M127.822 150.995C127.822 150.995 135.871 143.691 140.891 139.596C140.891 139.596 172.009 179.407 174.202 181.58C176.365 183.773 199.807 214.8 202.513 217.517C205.23 220.243 235.724 255.627 235.724 255.627L276.188 303.013L343.978 379.857L337.901 382.644L270.041 304.462L229.738 258.716L198.529 223.141L161.133 183.572L127.832 150.995H127.822Z" fill="white"/>
<path d="M143.688 137.483C143.688 137.483 153.598 129.717 158.206 128.057L195.612 175.594L230.794 218.422L265.997 259.44L299.741 297.54L349.109 354.172L362.409 369.635L356.634 373.147L330.959 343.618L293.583 300.81L253.652 255.064L222.434 219.861L185.802 179.95L143.668 137.463L143.688 137.483Z" fill="white"/>
<path d="M161.123 126.236C161.123 126.236 166.908 122.755 177.17 117.734L211.196 161.821L252.576 211.179L293.946 260.185L344.048 317.863L374.532 352.723L379.321 357.502L373.828 361.808L335.325 318.235L285.253 259.46L245.322 214.438L209.395 174.879L161.113 126.246L161.123 126.236Z" fill="white"/>
<path d="M180.289 116.366C180.289 116.366 184.968 114.404 196.9 110.118L235.523 158.188L289.217 221.712L333.867 274.33L378.537 326.233L394.594 343.407L389.543 348.508L360.005 313.899L313.554 260.537L274.357 215.163L229.708 165.442L201.377 136.769L180.279 116.356L180.289 116.366Z" fill="white"/>
<path d="M111.433 169.688C111.433 169.688 83.4645 202.798 84.0078 250.003C85.0038 332.592 162.492 399.526 259.296 399.526C274.227 399.526 288.734 397.957 302.558 394.928C302.558 394.928 143.698 212.225 111.433 169.688Z" fill="white"/>
<path d="M201.296 108.871C219.465 103.438 238.973 100.48 259.296 100.48C319.389 100.48 372.429 126.236 404 165.543V333.487C404 333.487 221.327 122.282 200.058 108.861" fill="white"/>
</svg>
