<svg width="500" height="500" viewBox="0 0 500 500" fill="none" xmlns="http://www.w3.org/2000/svg">
<g clip-path="url(#clip0_38_83)">
<rect width="500" height="500" fill="#F9FBFB"/>
<g clip-path="url(#clip1_38_83)">
<path d="M0 0H500V500H0V0Z" fill="#FAE100"/>
<path fill-rule="evenodd" clip-rule="evenodd" d="M66 185.599V301.983H78.8852V182L66 185.599ZM115.737 216.281L84.4688 256.904L120.548 301.983L130.856 293.413L99.8452 256.904L125.53 223.565L115.737 216.281ZM271.734 216.281L240.38 256.904L276.459 301.983L286.767 293.413L255.843 256.904L281.441 223.565L271.734 216.281ZM220.623 301.983V185.599L233.508 182V301.983H220.623ZM195.54 223.908C189.41 218.618 181.473 215.886 173.377 216.281C168.395 216.281 157.743 219.623 147.263 223.908L151.129 232.65C155.767 231.879 159.289 231.107 162.382 230.336C166.333 229.479 169.511 228.622 172.69 228.622C177.758 228.622 184.544 230.507 186.778 232.65C189.269 234.707 190.557 238.135 190.557 242.934V254.675C182.654 253.218 173.205 252.533 168.567 252.533C161.304 252.17 154.167 254.523 148.551 259.132C142.281 264.531 141.078 269.587 141.078 277.386C141.078 285.014 143.14 291.013 147.263 295.384C151.558 299.755 157.142 301.983 164.186 301.983C173.033 301.983 183.513 300.269 190.557 290.242V301.983H203.443V244.048C203.443 234.792 200.436 228.022 195.54 223.908ZM155.681 276.186C155.681 266.502 163.155 261.96 172.432 261.96C177.844 261.96 186.005 262.56 190.557 263.331V280.214C185.06 287.071 177.586 289.813 167.708 289.813C156.454 290.156 155.681 282.443 155.681 276.272V276.186ZM331.007 216.281C341.487 216.281 349.046 218.423 353.856 222.794C358.667 227.079 362.361 233.764 362.361 243.191V301.983H349.475V289.899C342.431 299.926 331.35 301.983 322.416 301.983C315.372 301.983 309.789 299.497 305.494 295.127C301.138 290.072 298.921 283.527 299.309 276.872C299.309 268.988 300.511 263.845 306.782 258.446C312.373 253.784 319.52 251.397 326.797 251.761C331.436 251.761 341.572 252.447 349.475 253.904V241.991C349.475 237.278 347.5 233.85 345.094 231.707C342.775 229.565 335.989 227.765 331.007 227.765C327.742 227.765 324.65 228.45 320.698 229.479C317.606 230.165 313.998 231.022 309.359 231.707L305.494 222.88C313.711 219.712 322.275 217.526 331.007 216.366V216.281ZM330.749 261.274C321.3 261.274 313.912 265.817 313.912 275.758C313.912 281.929 314.771 289.813 325.938 289.47C335.817 289.47 343.978 286.728 349.475 279.7V262.56C343.269 261.719 337.013 261.29 330.749 261.274ZM452.557 259.132C452.557 282.786 441.39 302.668 413.902 301.983C386.327 301.297 375.246 282.786 375.246 259.132C375.246 235.478 386.07 216.281 413.902 216.281C442.507 216.281 452.557 235.478 452.557 259.132ZM439.672 259.132C439.672 277.986 432.285 293.927 413.902 293.413C395.519 292.813 388.131 277.986 388.131 259.132C388.131 240.277 395.347 224.851 413.902 224.851C432.972 224.851 439.672 240.277 439.672 259.132Z" fill="#1B1800"/>
</g>
</g>
<defs>
<clipPath id="clip0_38_83">
<rect width="500" height="500" fill="white"/>
</clipPath>
<clipPath id="clip1_38_83">
<rect width="500" height="500" fill="white"/>
</clipPath>
</defs>
</svg>
