<svg width="500" height="500" viewBox="0 0 500 500" fill="none" xmlns="http://www.w3.org/2000/svg">
<rect width="500" height="500" fill="white"/>
<path d="M265.742 366.941C215.012 366.941 173.883 305.765 173.883 230.471C173.883 155.176 215.012 94 265.742 94C301.506 94 337.553 124.4 352.706 168.729C340.659 146.141 317.036 131.647 296.236 131.647C259.812 131.647 230.353 175.882 230.353 230.471C230.353 285.059 259.812 329.294 296.236 329.294C317.036 329.294 340.659 314.8 352.706 292.212C337.553 336.541 301.506 366.941 265.742 366.941Z" fill="#013893"/>
<path d="M324.469 395.176C324.469 405.572 294.973 414 258.587 414C222.201 414 192.705 405.572 192.705 395.176C192.705 384.78 222.201 376.353 258.587 376.353C294.973 376.353 324.469 384.78 324.469 395.176Z" fill="#013893"/>
<path d="M227.624 197.529C296.424 197.529 352.235 229.341 371.529 245.247C364 240.824 333.6 231.882 272.235 231.882C195.624 231.882 156.471 263.412 144.612 263.412C132.659 263.412 108 240.165 108 231.882C108 223.506 150.824 197.529 227.624 197.529Z" fill="#269A37"/>
</svg>
