<svg width="500" height="500" viewBox="0 0 500 500" fill="none" xmlns="http://www.w3.org/2000/svg">
<rect width="500" height="500" fill="white"/>
<path d="M302.586 208.971C289.842 211.637 277.751 216.797 267.008 224.153C266.701 224.383 266.471 224.306 266.241 224L255.967 207.207C255.94 207.161 255.926 207.108 255.926 207.054C255.926 207 255.94 206.947 255.967 206.901C255.988 206.871 256.014 206.845 256.044 206.824C268.465 200.537 281.653 196.78 295.608 195.629C325.282 191.336 357.716 195.246 383.785 210.735L384.782 211.425C385.549 212.651 385.242 212.958 383.862 212.575C374.661 209.814 364.923 207.207 355.492 206.134C337.857 204.064 320.221 205.061 302.662 208.971H302.586Z" fill="url(#paint0_linear_781_1960)"/>
<path d="M436.386 229.597C429.993 216.789 419.377 206.579 406.33 200.69C406.023 200.537 405.793 200.69 405.563 200.997L397.588 217.942C397.435 218.249 397.512 218.402 397.742 218.556C407.438 223.405 415.609 230.834 421.358 240.025C425.345 247.539 426.419 255.054 424.425 262.568C419.824 281.2 399.735 292.701 383.097 298.606C382.968 298.651 382.856 298.733 382.774 298.842C382.692 298.952 382.644 299.083 382.637 299.219V299.602C382.637 299.909 382.79 300.139 383.173 300.062C409.243 295.692 437.383 279.36 439.837 250.53C440.463 243.398 439.276 236.224 436.386 229.674V229.597Z" fill="url(#paint1_linear_781_1960)"/>
<path d="M113.197 242.095L111.357 251.143C111.357 251.143 111.357 251.296 111.204 251.296L110.974 251.373H90.4246L90.1945 251.449L90.1179 251.68L84.5972 278.133L84.4439 278.286L84.2138 278.363H72.2524C72.1593 278.342 72.0773 278.287 72.0224 278.209C71.9925 278.136 71.9925 278.053 72.0224 277.979L84.5205 217.252L84.6739 217.099L84.9039 217.022H119.101C119.194 217.043 119.276 217.097 119.331 217.175C119.359 217.206 119.38 217.243 119.393 217.282C119.407 217.322 119.412 217.364 119.408 217.405L117.568 226.376L117.414 226.606H95.5618C95.4721 226.605 95.3847 226.634 95.3146 226.69C95.2446 226.746 95.1964 226.825 95.1785 226.913L92.1881 241.328C92.1846 241.37 92.1896 241.412 92.2027 241.451C92.2159 241.491 92.237 241.527 92.2648 241.558C92.3005 241.606 92.3468 241.645 92.4 241.671C92.4533 241.698 92.512 241.712 92.5715 241.712H112.891C112.938 241.717 112.984 241.734 113.024 241.761C113.064 241.788 113.097 241.823 113.121 241.865C113.148 241.896 113.169 241.933 113.183 241.972C113.196 242.012 113.201 242.053 113.197 242.095Z" fill="#E21F26"/>
<path d="M178.14 241.021C182.511 234.887 188.875 231.974 197.463 232.434C198.383 232.434 198.766 232.894 198.536 233.814L196.543 243.398C196.466 243.705 196.236 243.858 195.853 243.858C188.032 242.555 182.204 244.549 178.37 249.609C176.684 251.986 175.303 255.897 174.23 261.341L170.856 277.826C170.78 278.209 170.55 278.363 170.09 278.363H159.048C158.665 278.363 158.511 278.209 158.588 277.826L168.403 232.817C168.403 232.51 168.633 232.357 168.863 232.357H179.137C179.521 232.357 179.751 232.587 179.674 232.97L177.757 240.945C177.757 241.405 177.757 241.482 178.14 240.945V241.021Z" fill="#E21F26"/>
<path fill-rule="evenodd" clip-rule="evenodd" d="M145.707 249.686C148.544 235.884 128.148 240.791 121.4 243.858C121.351 243.876 121.297 243.876 121.247 243.858L121.17 243.782V243.628L123.011 234.964L123.241 234.734C130.327 232.381 137.876 231.776 145.247 232.97C152.454 234.197 156.365 238.414 157.055 245.622C157.208 247.616 156.595 251.679 155.214 257.89C153.758 264.484 152.607 270.695 151.687 276.599C151.687 276.829 151.534 277.059 151.304 277.289C151.091 277.477 150.821 277.585 150.537 277.596C142.87 278.286 135.202 278.516 127.534 278.286C118.793 277.979 112.353 273.379 112.966 264.484C113.503 255.283 121.094 252.216 129.681 250.913C134.512 250.146 139.649 249.916 145.093 250.146C145.477 250.146 145.63 249.993 145.707 249.686ZM125.464 267.781C128.225 270.848 136.736 270.082 140.876 269.468C141.106 269.468 141.259 269.315 141.413 269.162C141.532 269.033 141.611 268.874 141.643 268.701L144.096 257.353C144.096 257.047 144.096 256.893 143.713 256.817C138.322 256.138 132.849 256.988 127.918 259.27C125.311 260.65 123.011 265.021 125.464 267.705V267.781Z" fill="#E21F26"/>
<path d="M214.715 238.721C216.404 236.65 218.55 234.998 220.984 233.894C223.419 232.79 226.075 232.264 228.746 232.357C234.65 232.434 238.561 235.117 240.631 240.408L240.708 240.561H240.861C240.903 240.571 240.947 240.569 240.987 240.556C241.003 240.55 241.019 240.543 241.033 240.534C241.055 240.521 241.075 240.504 241.091 240.485C243.852 235.347 249.296 232.97 255.2 232.434C263.021 231.744 269.001 236.268 270.075 243.782C270.381 245.775 270.075 248.382 269.385 251.526L263.634 277.826C263.557 278.133 263.327 278.209 263.021 278.056C259.286 275.47 256.085 272.19 253.589 268.395V267.858C254.356 264.791 255.43 259.577 256.886 252.369C257.653 248.766 258.267 244.702 255.123 242.402C251.826 240.025 246.305 242.402 244.235 245.239C242.625 247.539 241.475 250.146 240.785 253.06C239.404 258.81 237.641 267.091 235.417 277.826C235.264 278.209 235.111 278.363 234.727 278.363H223.456C223.363 278.342 223.281 278.287 223.226 278.209C223.192 278.167 223.168 278.117 223.154 278.064C223.141 278.011 223.139 277.956 223.149 277.903L228.9 250.683C229.667 246.695 229.053 241.558 223.839 241.482C216.325 241.482 213.641 248.306 212.184 254.286C211.542 256.792 210.254 262.743 208.229 272.093C207.837 273.903 207.418 275.839 206.971 277.903C206.971 278.209 206.741 278.363 206.357 278.363H195.393C194.856 278.363 194.626 278.133 194.779 277.596L203.98 233.891C203.98 233.507 204.21 233.354 204.594 233.354H214.561C214.633 233.348 214.705 233.358 214.771 233.385C214.838 233.412 214.897 233.454 214.945 233.507C215.034 233.586 215.088 233.696 215.098 233.814L214.331 238.568C214.255 239.028 214.331 239.105 214.715 238.721Z" fill="#E21F26"/>
<path d="M293.384 268.395C298.138 266.401 295.914 262.261 292.541 260.344L283.646 255.667C279.199 253.29 276.285 249.763 276.439 244.932C276.822 235.424 289.09 232.434 297.141 232.357C301.972 232.357 307.109 232.817 312.476 233.891C312.86 233.891 313.013 234.197 312.86 234.581L310.559 242.248C310.513 242.35 310.432 242.432 310.329 242.478C310.182 242.538 310.017 242.538 309.869 242.478C305.005 240.53 299.688 239.998 294.534 240.945C292.694 241.251 291.237 241.788 290.087 242.632C289.809 242.817 289.57 243.055 289.385 243.333C289.2 243.611 289.071 243.923 289.007 244.251C288.943 244.579 288.944 244.917 289.011 245.244C289.078 245.571 289.209 245.882 289.397 246.159C290.24 247.386 291.314 248.306 292.694 248.996C293.243 249.27 293.801 249.545 294.363 249.822C301.331 253.252 308.926 256.992 308.643 264.868C308.413 271.922 302.585 275.986 295.684 277.366C287.263 279.101 278.532 278.572 270.381 275.832C270.228 275.756 270.151 275.602 270.228 275.449L272.528 266.861C272.605 266.631 272.758 266.555 272.988 266.708C280.809 270.388 287.557 270.925 293.384 268.471V268.395Z" fill="#E21F26"/>
<path d="M328.808 267.168C333.639 270.772 341.69 269.622 346.674 267.398C346.697 267.385 346.724 267.377 346.75 267.377C346.764 267.377 346.777 267.379 346.789 267.382C346.802 267.386 346.815 267.391 346.827 267.398L346.904 267.551L345.677 275.986L345.37 276.292C335.019 280.28 320.681 278.899 315.007 268.932C309.026 258.35 313.703 243.475 324.208 236.728C332.91 232.07 343.081 230.97 352.578 233.661C353.345 233.891 353.651 234.351 353.345 235.117L351.044 242.325C350.738 243.092 350.277 243.245 349.587 242.785C348.486 242.041 347.225 241.569 345.907 241.405C335.939 240.101 329.268 243.628 325.971 251.986C324.361 256.28 324.514 263.948 328.808 267.168Z" fill="#E21F26"/>
<path fill-rule="evenodd" clip-rule="evenodd" d="M392.298 271.309C401.345 263.028 403.952 246.926 394.905 238.185H394.981C385.934 229.367 368.758 231.207 359.711 239.411C350.586 247.692 347.979 263.718 357.027 272.535C365.998 281.353 383.173 279.513 392.298 271.309ZM374.202 269.468C372.592 269.545 370.982 269.315 369.602 268.778C366.765 267.551 364.618 264.944 363.851 261.571C363.008 258.197 363.544 254.287 365.231 250.683C366.075 248.843 367.225 247.232 368.528 245.776C369.832 244.395 371.365 243.169 372.899 242.402C374.509 241.558 376.196 241.022 377.806 240.868C379.416 240.792 381.026 241.022 382.407 241.635C383.865 242.277 385.149 243.26 386.15 244.501C387.15 245.741 387.839 247.204 388.157 248.766C389.001 252.14 388.464 256.127 386.777 259.731C385.934 261.494 384.86 263.104 383.48 264.561C382.177 265.941 380.643 267.168 379.109 267.935C377.499 268.778 375.812 269.315 374.202 269.468Z" fill="#E21F26"/>
<path d="M252.132 276.599C258.935 285.088 267.59 291.907 277.435 296.535C287.939 301.519 299.057 304.739 310.635 306.12C318.803 307.369 327.066 307.882 335.325 307.653L354.494 306.35L373.893 302.209C374.276 302.209 374.506 302.286 374.506 302.669L378.34 321.455C378.37 321.529 378.37 321.611 378.34 321.685V321.762H378.11C364.469 324.359 350.528 325.005 336.705 323.678C328.166 323.127 319.697 321.792 311.402 319.691C299.901 317.391 288.936 313.327 278.738 307.577C266.104 301.504 256.299 290.793 251.365 277.673C251.212 277.289 251.288 276.906 251.518 276.599C251.597 276.511 251.707 276.456 251.825 276.446C251.885 276.446 251.943 276.46 251.996 276.487C252.05 276.513 252.096 276.552 252.132 276.599Z" fill="url(#paint2_linear_781_1960)"/>
<defs>
<linearGradient id="paint0_linear_781_1960" x1="255.814" y1="209.124" x2="385.089" y2="209.124" gradientUnits="userSpaceOnUse">
<stop stop-color="#00ADEE"/>
<stop offset="1" stop-color="#007DC4"/>
</linearGradient>
<linearGradient id="paint1_linear_781_1960" x1="411.313" y1="200.614" x2="411.313" y2="299.986" gradientUnits="userSpaceOnUse">
<stop stop-color="#C6D92B"/>
<stop offset="1" stop-color="#73BE44"/>
</linearGradient>
<linearGradient id="paint2_linear_781_1960" x1="374.966" y1="300.446" x2="259.339" y2="290.248" gradientUnits="userSpaceOnUse">
<stop stop-color="#FBAE17"/>
<stop offset="1" stop-color="#E21F26"/>
</linearGradient>
</defs>
</svg>
