<svg width="500" height="500" viewBox="0 0 500 500" fill="none" xmlns="http://www.w3.org/2000/svg">
<rect width="500" height="500" fill="#F10000"/>
<path d="M126.042 250.441C125.904 249.859 125.658 249.809 125.313 250.283C116.393 262.337 107 275.14 97.1143 288.692C95.3205 291.146 91.8806 291.945 89.4363 290.072C88.3226 289.224 87.544 287.786 87.1004 285.765C82.2808 263.893 77.8948 244.211 73.9425 226.737C73.3215 223.986 72.0993 221.483 70.2759 219.226C69.8423 218.684 69.931 217.895 70.4633 217.471C70.68 217.294 70.9561 217.195 71.2419 217.195L95.8528 217.244C96.2569 217.244 96.5033 217.441 96.5919 217.836L104.97 255.418C104.999 255.565 105.108 255.673 105.255 255.713C105.502 255.782 105.689 255.723 105.837 255.536C111.307 248.371 116.551 241.53 121.548 235.025C122.119 234.276 122.307 233.31 122.05 232.403L118.138 218.368C117.911 217.551 118.216 217.136 119.074 217.146L141.664 217.264C142.217 217.264 142.699 217.649 142.817 218.19L150.456 252.046C150.495 252.205 150.654 252.303 150.811 252.273C150.859 252.263 150.899 252.243 150.939 252.205C151.481 251.712 151.964 251.189 152.407 250.628C168.227 230.264 184.381 209.458 200.87 188.189C202.201 186.474 205.197 187.006 207.08 187.272C207.907 187.39 208.489 188.159 208.361 188.987C208.341 189.145 208.292 189.302 208.223 189.441C207.435 191.037 206.567 192.574 205.611 194.043C185.11 225.721 164.55 257.478 143.942 289.323C142.472 291.59 140.255 292.664 137.475 291.57C135.11 290.654 134.509 287.864 134.015 285.657C131.621 274.923 128.969 263.184 126.042 250.441Z" fill="white"/>
<path d="M196.679 229.182C197.428 224.953 195.752 222.183 193.308 218.951C192.962 218.497 193.062 217.847 193.515 217.502C193.693 217.373 193.91 217.295 194.125 217.295C200.995 217.216 208.082 217.166 215.405 217.156C216.658 217.156 217.672 217.325 218.441 217.66C219.299 218.034 219.801 218.941 219.634 219.867L207.737 288.377C207.452 290.062 205.982 291.305 204.267 291.295H188.291C187.453 291.295 186.724 290.703 186.556 289.875C186.32 288.722 186.31 287.53 186.527 286.308C189.681 268.635 193.062 249.594 196.679 229.182Z" fill="white"/>
<path d="M251.333 280.146L304.862 280.116C305.324 280.116 305.591 279.891 305.67 279.437C308.568 262.927 311.455 246.34 314.343 229.663C315.26 224.341 313.791 222.724 311.317 219.196C310.923 218.634 311.062 217.846 311.633 217.451C311.839 217.304 312.096 217.225 312.353 217.225L334.607 217.185C336.885 217.185 337.821 218.29 337.427 220.527L325.6 288.071C325.224 290.21 323.953 291.284 321.775 291.294C286.539 291.363 251.925 291.363 217.95 291.274C212.194 291.254 211.365 284.592 214.815 281.152C232.133 263.854 249.529 246.458 267.004 228.974C267.389 228.589 267.309 228.402 266.768 228.402C256.823 228.382 246.197 228.382 234.902 228.412C232.882 228.412 230.92 228.333 229.028 228.155C228.556 228.116 228.181 227.751 228.122 227.288C227.717 224.232 226.456 221.423 224.347 218.871C224.021 218.477 224.08 217.905 224.475 217.579C224.632 217.451 224.819 217.382 225.017 217.372C226.14 217.324 227.245 217.304 228.339 217.294C250.939 217.185 274.514 217.146 299.066 217.175C300.357 217.175 301.599 217.501 302.812 218.151C305.857 219.778 306.113 224.636 303.935 226.785C287.376 243.068 269.675 260.434 250.83 278.895C249.973 279.732 250.14 280.146 251.333 280.146Z" fill="white"/>
<path d="M376.416 228.403C368.205 228.315 359.493 228.344 350.268 228.473C348.572 228.502 347.055 228.335 345.704 227.979C345.34 227.891 345.053 227.595 344.965 227.23C344.275 224.382 342.846 221.741 340.677 219.306C340.215 218.783 340.253 217.976 340.777 217.512C341.012 217.305 341.318 217.187 341.633 217.187C371.784 217.237 403.382 217.265 436.431 217.295C437.909 217.295 439.318 217.365 440.649 217.502C441.418 217.582 442.009 218.241 441.999 219.02C441.97 221.021 441.782 223.091 441.438 225.21C441.092 227.329 439.86 228.393 437.761 228.393C426.476 228.393 415.298 228.393 404.22 228.383C403.756 228.383 403.363 228.709 403.284 229.162L393.102 288.279C392.758 290.281 391.565 291.276 389.545 291.266C382.733 291.256 376.416 291.345 370.571 291.532C367.634 291.631 366.422 290.241 366.944 287.373C370.344 268.587 373.706 249.171 377.027 229.132C377.106 228.65 376.899 228.413 376.416 228.403Z" fill="white"/>
</svg>
