<svg width="500" height="500" viewBox="0 0 500 500" fill="none" xmlns="http://www.w3.org/2000/svg">
<rect width="500" height="500" fill="#00A3D6"/>
<path d="M240.393 283.071L252.375 231.557L222.505 282.025H210.748L209.328 231.557L193.459 283.071H179.589L201.01 218.884H221.272L222.244 260.828L247.178 218.884H268.318L255.085 283.071H240.393Z" fill="white"/>
<path d="M289.234 229.445C289.234 229.445 292.524 229.445 295.365 229.445C301.253 229.445 306.075 231.445 306.075 237.538C306.075 244.005 300.094 249.239 291.066 249.239C288.43 249.239 286.86 249.052 285.178 248.772L289.234 229.426V229.445ZM263.234 283.071H278.038L282.86 260.024C284.449 260.118 286.542 260.398 289.066 260.398C297.664 260.398 305.963 258.491 311.739 254.398C317.197 250.585 321.29 244.398 321.29 236.398C321.29 230.211 318.468 225.632 313.626 222.79C308.486 219.445 301.234 218.865 294.823 218.865H276.673L263.234 283.071Z" fill="white"/>
<path d="M364.188 218.884H379.963L329.215 283.071H311.664L332.038 258.604L320.412 218.884H335.253L342.225 246.81L364.188 218.884Z" fill="white"/>
<path d="M407.364 213.053C399.626 213.053 392.448 214.585 386.187 217.24L360.897 249.24C360.467 251.632 360.243 254.081 360.243 256.511C360.243 272.959 372.71 285.95 395.028 285.95H395.14C408 285.95 418.953 282.174 426.841 275.688C436.523 267.838 442 255.258 442 242.473C442 225.613 430.018 213.053 407.364 213.053ZM397.289 274.866H397.159C383.775 274.866 377.831 266.959 377.831 256.399C377.831 242.174 388.729 224.156 405.42 224.156C420.056 224.156 424.187 233.165 424.187 242.511C424.187 256.623 413.289 274.866 397.289 274.866Z" fill="white"/>
<path d="M166.377 283.071H182.228L174.041 218.884H154.62L120.078 283.071H136.246L142.845 269.408H165.237L166.396 283.071H166.377ZM147.873 258.978C147.873 258.978 159.873 233.464 161.648 229.557L164.34 258.978H147.873Z" fill="white"/>
<path d="M106.561 242.884C97.9627 239.651 92.2991 237.688 91.4019 233.613C90.5608 229.838 93.9066 226.118 102.991 225.296C115.103 224.398 127.458 229.37 135.533 233.968L142.318 221.352C132.841 215.52 116.785 210.81 100.467 212.267H100.374C83.0281 213.856 68.5234 221.968 71.6449 235.875C73.3458 243.482 80.8598 249.127 93.6449 254.043C100.374 256.623 107.533 259.725 108.411 263.669C109.589 268.959 103.271 272.268 95.8318 272.978H95.6823C83.3645 274.081 70.6916 269.37 61.2337 264.324L54 277.95C63.9066 282.716 78.7664 287.52 96.0001 286.716C103.252 286.511 109.72 285.165 115.009 282.884L128.019 258.716C125.757 252.511 119.439 247.688 106.58 242.866" fill="white"/>
</svg>
