<svg width="500" height="500" viewBox="0 0 500 500" fill="none" xmlns="http://www.w3.org/2000/svg">
<rect width="500" height="500" fill="white"/>
<path d="M136.102 255.333C135.335 255.333 134.109 256.637 134.339 257.327C135.468 261.055 137.58 264.411 140.454 267.041C143.327 269.672 146.856 271.48 150.669 272.277C157.511 273.783 164.637 273.338 171.238 270.993C177.839 268.649 183.649 264.498 188.007 259.013C189.617 257.02 190.691 255.87 190.614 253.187C190.461 250.58 190.614 247.82 190.921 245.06C193.604 221.293 213.002 211.327 234.622 217.767C234.706 217.786 234.793 217.783 234.874 217.756C234.955 217.728 235.027 217.679 235.082 217.613V194.537C235.082 194.153 235.312 194 235.696 194H249.803C250.186 194 250.416 194.23 250.416 194.613V277.873C250.42 278.14 250.35 278.402 250.215 278.632C250.08 278.862 249.884 279.05 249.649 279.177C232.476 288.683 205.411 289.987 194.448 270.053C194.407 269.992 194.355 269.94 194.294 269.9L194.064 269.747C193.988 269.755 193.914 269.78 193.847 269.82C193.781 269.86 193.724 269.913 193.681 269.977C188.821 275.395 182.803 279.65 176.074 282.424C169.344 285.198 162.076 286.42 154.809 286C130.122 285.08 115.708 264.61 121.075 240.46C121.835 236.449 123.401 232.634 125.677 229.245C127.953 225.856 130.892 222.963 134.318 220.742C137.743 218.52 141.583 217.016 145.606 216.321C149.628 215.625 153.751 215.752 157.723 216.693C176.277 220.143 182.87 237.777 180.954 255.333H136.102ZM135.335 244.753L166.847 244.447C166.948 244.447 167.046 244.406 167.118 244.334C167.19 244.263 167.23 244.165 167.23 244.063V243.757C167.164 239.444 165.434 235.323 162.4 232.257C160.894 230.741 159.102 229.54 157.127 228.724C155.153 227.908 153.036 227.493 150.899 227.503C148.776 227.521 146.677 227.964 144.728 228.806C142.779 229.649 141.019 230.875 139.552 232.41C136.545 235.538 134.892 239.725 134.952 244.063V244.37L135.029 244.6L135.335 244.753ZM204.721 250.733C204.721 257.94 206.255 265.3 212.081 269.67C218.368 274.347 226.879 273.657 234.086 270.973C234.699 270.667 235.006 270.207 235.006 269.517V232.027C235.006 231.337 234.699 230.877 234.086 230.647C226.955 227.887 218.445 227.197 212.158 231.873C206.331 236.243 204.721 243.603 204.721 250.733ZM357.677 278.333C352.257 282.929 345.472 285.608 338.375 285.955C331.277 286.301 324.263 284.296 318.422 280.25C318.265 280.138 318.078 280.077 317.885 280.077C317.693 280.077 317.505 280.138 317.348 280.25C308.421 285.464 297.897 287.236 287.754 285.233C272.114 282.55 262.53 274.04 259.08 259.627C257.546 253.263 257.7 247.13 259.54 241.227C266.44 219.3 290.208 212.4 311.368 219.913C311.522 219.913 311.598 220.067 311.675 220.143V231.567H311.445C295.344 224.437 274.72 231.03 274.184 249.737C273.647 269.44 293.811 279.177 311.445 270.897C311.823 270.741 312.144 270.474 312.365 270.13C312.518 269.747 312.672 269.363 312.595 268.98C310.908 243.527 337.359 242.683 356.603 242.913C356.833 242.913 357.063 242.837 357.217 242.683C357.308 242.608 357.382 242.515 357.435 242.409C357.488 242.304 357.518 242.188 357.523 242.07C358.443 223.9 334.906 227.887 323.405 231.72C323.099 231.873 322.945 231.72 322.945 231.413V220.527L323.099 219.99C323.224 219.867 323.385 219.787 323.559 219.76C337.359 216.387 367.414 214.01 372.014 232.333C373.317 237.47 372.934 243.297 372.934 248.433V285.31C372.934 285.77 372.627 286 372.167 286H357.677V278.333ZM356.45 253.8C351.006 253.723 346.636 253.8 343.416 253.877C336.976 254.183 326.319 257.633 329.002 266.143C329.616 268.137 330.919 269.747 332.836 270.973C339.736 275.42 350.24 273.12 356.68 268.903C356.892 268.794 357.076 268.636 357.217 268.443C357.293 268.213 357.677 267.983 357.677 267.677V254.643C357.677 254.03 357.063 253.723 356.45 253.723V253.8ZM89.3339 227.12C92.3814 223.275 96.4167 220.331 101.008 218.603C105.6 216.874 110.575 216.426 115.401 217.307C115.861 217.383 116.168 217.69 116.168 218.227V231.03C116.168 231.413 115.938 231.567 115.555 231.567C111.153 230.831 106.638 231.194 102.411 232.626C98.1837 234.057 94.3762 236.511 91.3273 239.77C90.1006 241.073 89.3339 242.377 89.3339 243.68V285.693C89.3008 285.787 89.238 285.868 89.1551 285.923C89.0721 285.979 88.9734 286.006 88.8739 286H74.3067L74.0767 285.923L74 285.617V217.767C74 217.307 74.23 217 74.7667 217H87.8005C88.3372 217 89.2572 217.69 89.2572 218.227V227.12H89.3339ZM396.931 286.46C396.771 286.447 396.611 286.484 396.474 286.567C396.336 286.649 396.228 286.773 396.165 286.92L396.011 287.227V308.387C396.011 308.77 395.858 309 395.475 309H381.291C380.907 309 380.677 308.77 380.677 308.387V224.053C380.679 223.798 380.752 223.548 380.887 223.331C381.022 223.115 381.215 222.94 381.444 222.827C404.675 212.247 438.179 213.933 441.706 246.363C443.47 261.85 437.336 277.643 422.232 283.853C414.565 286.92 406.668 287.84 396.931 286.46ZM396.931 231.03C396.395 231.183 396.011 231.567 396.011 232.257V272.123C396.011 272.43 396.165 272.66 396.318 272.813L396.855 273.197C403.371 274.883 408.738 274.73 414.642 272.583C424.456 269.287 427.676 259.78 427.522 250.197C427.139 230.57 413.415 227.197 397.008 231.03H396.931Z" fill="#E2100F"/>
</svg>
