<svg width="500" height="500" viewBox="0 0 500 500" fill="none" xmlns="http://www.w3.org/2000/svg">
<rect width="500" height="500" fill="#ED1A30"/>
<path d="M278.274 143.619C271.341 129.117 261.918 122 250.007 122C238.096 122 228.674 129.117 221.741 143.619C215.519 156.608 205.386 179.739 191.341 213.012C187.164 222.709 190.097 230.894 199.875 237.655L200.586 237.922C212.586 241.659 220.763 238.723 225.119 229.026L248.941 176.625C249.207 176.091 249.385 175.735 249.563 175.735L250.007 175.646L250.452 175.735C250.63 175.735 250.807 176.091 251.074 176.625L274.896 229.114C279.341 238.723 287.429 241.659 299.429 238.011L300.051 237.655C309.918 230.983 312.762 222.798 308.674 213.012C299.016 189.675 288.881 166.539 278.274 143.619ZM353.829 296.639C326.273 324.219 288.94 339.343 250.007 339.343C211.163 339.343 173.741 324.219 146.275 296.639L123.342 272.352C115.342 263.722 106.809 263.455 97.7422 271.462L97.2088 271.907C88.4978 280.092 87.6978 289.077 94.72 298.774C131.786 349.485 188.675 380 250.007 380C311.34 380 368.229 349.485 405.206 298.774C412.317 289.077 411.517 280.092 402.806 271.996C402.633 271.813 402.456 271.635 402.273 271.462C393.206 263.455 384.673 263.811 376.673 272.352L353.74 296.639H353.829Z" fill="white"/>
</svg>
