<svg width="500" height="500" viewBox="0 0 500 500" fill="none" xmlns="http://www.w3.org/2000/svg">
<rect width="500" height="500" fill="#F9FBFB"/>
<path d="M171.086 378.504C171.848 378.028 172.039 377.456 171.752 376.885L172.801 370.785L236.159 141.292C239.971 127.569 243.591 114.13 247.307 100.788C248.164 97.6428 250.165 97.071 253.405 98.8818C310.19 131.475 364.022 162.45 414.995 191.803C417.757 193.424 418.616 196.473 417.568 199.237C395.558 258.611 373.74 317.223 352.207 375.073C350.397 380.029 346.491 379.839 341.25 379.839C285.799 380.029 230.347 380.029 174.991 379.934C173.658 379.934 172.324 379.458 171.18 378.504H171.086ZM306.76 280.817L305.521 317.891C305.521 318.939 306.188 319.892 307.141 320.274C309.523 321.036 312.191 321.417 315.144 321.608C315.906 321.608 316.574 321.131 316.764 320.464C317.145 319.321 317.336 318.177 317.336 317.034C318.67 281.581 319.908 245.936 321.052 210.006C321.242 202.572 317.336 196.378 309.809 194.949C305.426 194.09 301.329 195.997 298.948 199.619C276.557 233.356 253.881 267.57 230.824 302.261C229.967 303.596 229.3 305.024 228.728 306.454C228.442 307.313 228.919 308.17 229.681 308.456C229.681 308.456 229.776 308.456 229.871 308.456C233.016 309.123 236.254 309.695 239.685 310.171C242.162 310.457 244.067 309.6 245.402 307.502C252.737 295.971 260.361 284.059 268.268 271.669C268.458 271.287 268.84 271.192 269.22 271.287L306.283 280.437C306.283 280.437 306.57 280.626 306.57 280.817H306.76ZM356.685 257.563C359.639 252.607 362.401 252.036 367.928 252.702C369.357 252.893 370.787 252.227 371.358 250.892C372.31 248.605 371.835 246.223 369.643 244.984C365.641 242.601 362.974 239.932 363.354 234.786C363.64 230.878 363.927 226.875 364.117 222.778C364.117 221.348 363.927 220.109 363.45 218.87C363.26 218.488 362.974 218.297 362.592 218.203C361.259 217.917 360.211 218.488 359.258 220.109C357.257 223.54 355.352 226.875 353.542 230.116C349.92 236.691 346.205 234.499 340.297 234.309C337.535 234.213 336.296 238.026 337.059 240.123C337.439 241.076 338.106 241.838 339.154 242.506C343.633 245.364 346.586 247.651 346.395 253.561C346.205 257.563 346.014 261.757 345.729 266.236C345.729 267.475 345.729 269.571 347.253 269.953C348.587 270.334 349.731 269.857 350.493 268.523C352.589 264.901 354.684 261.28 356.78 257.754L356.685 257.563ZM326.863 320.178C326.388 321.799 327.341 323.514 328.96 323.991C329.151 323.991 329.341 323.991 329.531 324.086L333.819 324.468C335.247 324.562 336.677 323.704 337.059 322.275L349.54 279.96C350.016 278.339 349.063 276.625 347.444 276.148L343.442 275.004C341.823 274.527 340.107 275.481 339.631 277.1L326.863 320.083V320.178Z" fill="#1D7FFA"/>
<path d="M236.156 141.296L172.796 370.788C172.796 369.644 172.51 368.692 171.939 368.024C171.653 367.739 171.557 367.453 171.557 367.167C171.557 353.442 172.034 339.72 172.796 325.995C173.176 318.466 173.463 311.319 173.749 304.551C174.225 290.065 175.177 275.293 175.559 260.998C176.035 243.557 177.178 226.306 177.751 209.056C178.131 196.286 178.703 183.23 179.465 169.792C179.465 169.506 179.465 169.029 179.275 168.362L181.657 117.469C181.657 116.23 182.705 115.277 183.847 115.182C184.991 115.182 186.23 115.372 187.469 116.04C202.904 123.95 217.957 131.575 232.725 138.913C233.392 139.295 234.059 139.675 234.631 140.247C235.297 140.818 235.87 141.2 236.345 141.296H236.156Z" fill="#80C418"/>
<path d="M179.184 168.357C179.375 169.023 179.375 169.5 179.375 169.786C178.707 183.224 178.136 196.281 177.659 209.051C177.088 226.205 175.945 243.456 175.469 260.992C175.087 275.287 174.134 290.06 173.659 304.546C173.468 311.313 173.182 318.556 172.706 325.99C171.943 339.713 171.562 353.437 171.467 367.161C171.467 367.543 171.562 367.827 171.847 368.018C172.515 368.686 172.8 369.544 172.706 370.782L171.658 376.882C170.61 377.264 169.942 376.596 169.562 374.786C158.413 320.081 147.362 265.376 136.405 210.671C136.405 210.48 136.214 210.194 136.119 210.1C135.928 209.909 135.834 209.814 135.643 209.623C135.834 209.623 135.928 209.528 136.023 209.432C136.023 209.432 136.023 209.241 136.023 209.146C132.308 190.943 128.592 172.358 124.686 153.394C124.304 151.582 124.304 150.154 124.686 148.915C124.876 148.342 125.352 148.056 125.925 148.151C127.162 148.342 128.497 148.628 129.926 149.2C146.409 155.49 162.797 161.876 179.089 168.357H179.184Z" fill="#FD992A"/>
<path d="M306.76 280.816C306.76 280.816 306.665 280.436 306.474 280.436L269.411 271.286C269.411 271.286 268.649 271.286 268.458 271.668C260.551 284.057 252.834 295.97 245.592 307.501C244.258 309.599 242.352 310.552 239.876 310.17C236.445 309.79 233.206 309.217 230.062 308.455C229.205 308.264 228.632 307.407 228.823 306.548C228.823 306.548 228.823 306.453 228.823 306.358C229.3 304.834 229.966 303.404 230.919 302.165C253.881 267.474 276.652 233.259 299.043 199.522C301.425 195.901 305.521 193.994 309.905 194.853C317.431 196.282 321.337 202.476 321.147 209.91C320.003 245.84 318.765 281.484 317.431 316.937C317.431 318.081 317.24 319.224 316.86 320.368C316.669 321.13 316.003 321.607 315.239 321.511C312.286 321.321 309.618 320.939 307.237 320.177C306.189 319.891 305.521 318.938 305.616 317.795L306.855 280.721L306.76 280.816ZM277.605 257.466C277.605 257.466 277.414 258.421 277.891 258.705C277.891 258.705 278.082 258.705 278.176 258.801L306.094 266.616C306.094 266.616 307.046 266.425 307.237 265.948C307.237 265.948 307.237 265.854 307.237 265.759L309.143 211.244C309.143 210.768 308.761 210.291 308.284 210.291C307.999 210.291 307.617 210.482 307.522 210.673L277.701 257.371L277.605 257.466Z" fill="white"/>
<path d="M135.736 209.624C135.736 209.624 136.118 209.908 136.213 210.099C136.308 210.29 136.404 210.481 136.498 210.672C147.455 265.376 158.508 320.08 169.655 374.785C170.036 376.501 170.703 377.263 171.751 376.882C172.037 377.454 171.751 377.931 171.084 378.502C169.845 377.931 168.893 376.978 168.322 375.739C139.833 316.936 111.441 258.133 82.9527 199.33C82.4764 198.377 82.1905 197.425 82 196.471C82 195.995 82.1905 195.518 82.7622 195.422C82.8575 195.422 83.048 195.422 83.1433 195.422L135.641 209.719L135.736 209.624Z" fill="#F46060"/>
<path d="M277.606 257.468L307.428 210.768C307.428 210.768 308.285 210.197 308.667 210.482C308.952 210.673 309.047 210.959 309.047 211.245L307.141 265.759C307.141 266.236 306.666 266.616 306.189 266.616C306.189 266.616 306.093 266.616 305.998 266.616L278.082 258.802C278.082 258.802 277.32 258.134 277.415 257.658C277.415 257.658 277.416 257.468 277.511 257.372L277.606 257.468Z" fill="#1D7FFA"/>
<path d="M367.929 252.703C362.402 252.036 359.64 252.703 356.686 257.563C354.59 261.089 352.493 264.711 350.398 268.332C349.635 269.667 348.588 270.144 347.159 269.762C345.729 269.382 345.635 267.284 345.635 266.045C345.92 261.662 346.11 257.372 346.301 253.371C346.587 247.461 343.538 245.173 339.06 242.315C338.011 241.647 337.345 240.885 336.963 239.933C336.201 237.93 337.44 234.023 340.203 234.118C346.206 234.309 349.826 236.407 353.446 229.925C355.258 226.684 357.163 223.349 359.164 219.918C360.117 218.298 361.165 217.726 362.498 218.013C362.88 218.013 363.164 218.298 363.355 218.679C363.832 219.918 364.119 221.157 364.023 222.587C363.832 226.78 363.546 230.783 363.26 234.595C362.88 239.742 365.547 242.411 369.549 244.793C371.74 246.127 372.312 248.415 371.263 250.702C370.692 252.036 369.263 252.607 367.834 252.512L367.929 252.703Z" fill="white"/>
<path d="M326.865 320.175L339.632 277.193C340.108 275.574 341.823 274.62 343.443 275.097L347.444 276.24C349.064 276.717 350.017 278.432 349.54 280.053L337.059 322.367C336.678 323.797 335.249 324.654 333.819 324.559L329.532 324.179C327.818 323.988 326.579 322.558 326.769 320.842C326.769 320.653 326.769 320.462 326.865 320.271V320.175Z" fill="white"/>
</svg>
