<svg width="500" height="500" viewBox="0 0 500 500" fill="none" xmlns="http://www.w3.org/2000/svg">
<rect width="500" height="500" fill="white"/>
<path fill-rule="evenodd" clip-rule="evenodd" d="M210 140H188.4C172.2 140 150 158.7 150 179.8V202.4C150 223.2 172.2 240 188.4 240H210C226.2 240 250 221.1 250 202.4V179.8C250 158.7 226.2 140 210 140ZM178.2 90C157.46 90 137.57 98.2389 122.904 112.904C108.239 127.57 100 147.46 100 168.2V211.8C100 255 135 290 178.2 290H221.8C265 290 300 255 300 211.8V168.2C300 125 265 90 221.8 90H178.2Z" fill="#60AD49"/>
<path d="M210 298.499C210 277.68 218.27 257.713 232.992 242.992C247.714 228.27 267.68 220 288.5 220H321.5C342.319 220 362.286 228.27 377.008 242.992C391.729 257.713 400 277.68 400 298.499V331.499C400 352.319 391.729 372.285 377.008 387.007C362.286 401.729 342.319 409.999 321.5 409.999H288.5C267.68 409.999 247.714 401.729 232.992 387.007C218.27 372.285 210 352.319 210 331.499V298.499Z" fill="#63686C"/>
</svg>
