<svg width="500" height="500" viewBox="0 0 500 500" fill="none" xmlns="http://www.w3.org/2000/svg">
<rect width="500" height="500" fill="#002856"/>
<path d="M115.021 279.999L139.018 220H115.021L103.032 250L115.021 279.999Z" fill="#F5A800"/>
<path d="M103.033 250L91.0262 220H67.03L91.0262 279.999H115.022L103.033 250Z" fill="#009383"/>
<path d="M169.022 220H145.025V279.999H169.022V220Z" fill="white"/>
<path d="M193.024 220H175.013V235.009H193.024V279.999H217.019V235.009H235.012V220H217.019H193.024Z" fill="white"/>
<path d="M241.028 235.009H268.931L241.028 264.991V279.999H295.023V264.991H267.12L295.023 235.009V220H241.028V235.009Z" fill="white"/>
<path d="M397 220C378.776 220 364.016 233.428 364.016 250C364.016 266.571 378.776 280 397 280C415.224 280 430 266.554 430 250C430 233.446 415.224 220 397 220ZM397 264.991C390.374 264.991 385.011 258.277 385.011 250C385.011 241.723 390.339 234.991 397 234.991C403.66 234.991 409.007 241.705 409.007 250C409.007 258.294 403.642 264.991 397 264.991Z" fill="white"/>
<path d="M334.028 261.989L343.015 280H364.08L352.606 257.85C355.236 255.896 357.371 253.355 358.842 250.428C360.314 247.502 361.079 244.27 361.078 240.995C361.073 235.425 358.858 230.085 354.919 226.149C350.978 222.212 345.636 220 340.067 220H304.028V280H325.004V261.989H334.028ZM334.028 246.998H325.004V235.062H334.01C334.798 235.062 335.577 235.217 336.304 235.52C337.032 235.821 337.693 236.264 338.248 236.822C338.805 237.379 339.245 238.041 339.545 238.77C339.844 239.498 339.998 240.278 339.995 241.066C339.981 242.641 339.347 244.148 338.23 245.257C337.112 246.368 335.602 246.993 334.028 246.998Z" fill="white"/>
</svg>
