<svg width="500" height="500" viewBox="0 0 500 500" fill="none" xmlns="http://www.w3.org/2000/svg">
<rect width="500" height="500" fill="white"/>
<path d="M240.447 82.2705C190.467 106 128.937 157.87 133.557 237.145C140.067 346.975 217.557 353.485 249.897 353.485C282.237 353.485 314.472 328.285 314.472 295.315C314.472 260.035 291.582 241.135 271.737 224.755C266.172 220.135 260.817 215.83 256.407 211.315C230.472 185.485 230.472 153.145 256.407 127.315C275.097 108.52 301.557 94.9755 322.032 98.2305C359.012 115.781 388.312 146.229 404.429 183.856C420.546 221.482 422.372 263.699 409.562 302.576C396.753 341.454 370.191 374.317 334.864 394.994C299.537 415.672 257.876 422.74 217.707 414.871C177.537 407.003 141.621 384.74 116.706 352.262C91.791 319.785 79.5901 279.329 82.3951 238.492C85.2001 197.655 102.818 159.247 131.94 130.482C161.062 101.716 199.684 84.5725 240.552 82.2705H240.447Z" fill="url(#paint0_linear_781_2063)"/>
<path d="M288.747 82.0605C201.072 119.546 198.237 160.705 198.237 191.89C198.237 224.23 236.982 275.89 256.407 256.57C264.597 248.275 256.617 237.775 246.117 224.02C231.837 205.12 212.832 180.235 224.067 146.635C231.207 125.216 256.407 101.486 288.642 82.0605H288.747Z" fill="url(#paint1_linear_781_2063)"/>
<path d="M262.812 82.0605C185.322 101.486 147.942 188.11 152.982 237.145C159.597 301.72 217.557 327.55 230.472 308.23C235.302 301.09 230.472 297.415 222.072 291.22C207.687 280.51 182.907 262.03 178.812 204.805C174.717 147.685 225.642 104.216 262.812 82.0605Z" fill="url(#paint2_linear_781_2063)"/>
<defs>
<linearGradient id="paint0_linear_781_2063" x1="152.982" y1="114.4" x2="372.642" y2="353.485" gradientUnits="userSpaceOnUse">
<stop stop-color="#0B2572"/>
<stop offset="0.41" stop-color="#3071B1"/>
<stop offset="1" stop-color="#0D175F"/>
</linearGradient>
<linearGradient id="paint1_linear_781_2063" x1="243.387" y1="82.0605" x2="243.387" y2="260.77" gradientUnits="userSpaceOnUse">
<stop stop-color="#07257F"/>
<stop offset="1" stop-color="#5EB5D0"/>
</linearGradient>
<linearGradient id="paint2_linear_781_2063" x1="207.687" y1="82.0605" x2="207.687" y2="314.53" gradientUnits="userSpaceOnUse">
<stop stop-color="#012283"/>
<stop offset="1" stop-color="#2B62A3"/>
</linearGradient>
</defs>
</svg>
