<svg width="500" height="500" viewBox="0 0 500 500" fill="none" xmlns="http://www.w3.org/2000/svg">
<rect width="500" height="500" fill="#F0F3FA"/>
<path d="M230.823 249.69C201.47 281.234 156.734 327.181 110.141 319.052C83.4403 314.457 80.9648 284.15 92.6352 263.297C98.2046 253.271 105.936 244.609 115.269 237.938C121.634 233.343 122.253 234.138 116.949 240.147C104.129 254.726 97.9399 273.9 116.949 287.154C150.634 310.658 207.306 259.144 229.939 232.901C230.916 231.772 231.482 230.346 231.546 228.854C231.61 227.363 231.169 225.893 230.293 224.684C218.888 209.133 203.504 204.361 183.965 210.016C183.526 209.795 183.111 209.528 182.727 209.221C182.02 208.779 182.197 208.337 183.346 207.896C204.034 199.06 223.131 201.711 240.637 215.406C241.344 215.936 242.14 216.201 243.024 216.025C243.82 216.025 244.527 215.495 244.969 214.788L260.883 192.168C263.359 188.81 263.978 189.252 263.005 193.228C260.7 203.677 255.736 213.355 248.594 221.326C247.887 222.21 247.71 223.094 248.329 223.977L257.612 241.384C258.054 242.179 258.496 242.268 259.027 241.472C288.822 202.329 344.963 151.964 393.944 162.39C401.37 163.981 407.647 167.78 412.687 173.877C437.442 204.273 407.824 246.244 382.273 262.767C377.234 266.125 376.261 264.976 379.267 259.498C395.623 230.251 380.593 199.413 347.262 203.478C314.726 207.454 292.093 228.483 264.42 254.373C255.844 262.325 251.689 269.571 251.777 276.109C252.131 310.393 292.093 307.742 313.489 303.059C316.141 302.441 316.406 302.882 314.019 304.473C291.562 319.494 249.478 323.647 234.625 294.488C234.414 294.097 234.11 293.764 233.741 293.516C233.466 293.32 233.153 293.183 232.823 293.112C232.492 293.042 232.151 293.039 231.82 293.106C231.488 293.172 231.174 293.305 230.896 293.497C230.619 293.69 230.383 293.937 230.204 294.223C224.634 302.794 220.302 309.244 217.208 313.662C212.787 319.847 212.08 319.317 215.086 312.16C218.092 305.18 221.275 298.729 224.546 292.721C228.613 285.564 230.735 278.848 230.735 272.752L233.387 251.104C233.829 247.923 232.945 247.392 230.823 249.69Z" fill="#E10013"/>
</svg>
