<svg width="500" height="500" viewBox="0 0 500 500" fill="none" xmlns="http://www.w3.org/2000/svg">
<rect width="500" height="500" fill="white"/>
<path d="M132.911 222.517C132.657 216.748 131.132 212.628 128.273 210.789C125.413 208.951 119.313 208.444 119.313 208.444H75.7249C75.7249 208.444 80.1727 208.444 80.1092 212.184C80.1092 212.184 62.7627 278.491 62.0638 282.992C61.4284 287.429 65.7491 287.303 65.7491 287.303H84.3664C79.6644 286.795 79.9185 283.119 79.9185 283.119L85.9548 260.298H106.351C110.545 260.298 114.548 260.361 122.173 254.086C129.797 247.81 133.165 228.285 132.911 222.517ZM101.141 247.366L89.1318 247.176L96.566 219.664H107.304C107.304 219.664 114.103 218.903 114.103 224.101C114.167 249.268 101.141 247.366 101.141 247.366Z" fill="#294E9A"/>
<path d="M184.952 275.005C182.093 275.005 181.584 272.089 181.584 272.089L175.675 253.388C181.013 252.691 185.905 252.501 189.527 247.62C192.132 244.133 196.326 230.884 196.326 219.664C196.326 208.507 185.27 208.444 185.27 208.444H139.775C143.778 208.761 143.397 212.501 143.397 212.501C143.397 212.501 127.83 278.491 126.495 283.309C125.161 288.127 128.401 288 128.401 288L146.637 287.62C143.27 286.225 144.223 283.372 144.223 283.372L151.53 253.578H158.646C158.646 253.578 164.937 278.555 165.699 282.421C166.398 286.288 170.973 287.683 170.973 287.683H184.253C186.096 287.683 186.604 285.528 186.604 285.528L190.289 272.406C190.226 272.342 187.811 275.005 184.952 275.005ZM170.656 241.09H154.262L158.964 220.108H173.769C174.976 220.108 179.424 220.361 179.424 227.968C179.361 238.935 170.656 241.09 170.656 241.09Z" fill="#294E9A"/>
<path d="M239.848 208.253C224.344 208.253 216.719 211.93 209.222 220.678C201.343 229.933 195.815 254.085 196.069 262.326C196.323 270.567 197.086 275.385 199.818 279.505C202.931 284.196 213.86 287.492 220.722 287.492C227.521 287.492 237.243 286.288 245.757 281.09C254.844 275.511 259.228 264.481 262.913 246.922C266.599 229.363 265.009 222.833 260.435 215.86C255.86 208.887 239.848 208.253 239.848 208.253ZM234.828 270.947C231.778 274.307 225.869 273.99 223.455 273.99C217.228 273.99 212.526 270.06 212.907 262.833C213.86 242.294 223.264 225.623 228.22 223.214C234.574 220.108 243.915 221.249 245.884 223.848C247.536 226.066 247.981 230.377 247.981 234.561C247.918 238.808 245.185 259.41 234.828 270.947Z" fill="#294E9A"/>
<path d="M305.486 222.454H323.658C326.136 222.454 326.454 219.284 326.454 219.284L329.06 208.064C328.424 209.078 326.582 209.649 326.582 209.649H274.224C271.11 209.649 270.476 210.283 270.03 212.121L267.806 223.848C268.886 222.073 270.602 222.264 270.602 222.264L287.376 222.454C287.376 222.454 273.716 277.984 272.826 282.549C271.936 287.113 274.034 287.366 274.034 287.366H293.668C289.982 287.113 291.38 282.739 291.38 282.739L305.486 222.454Z" fill="#ED7123"/>
<path d="M351.552 219.854H379.574C382.878 219.854 383.576 217.255 383.576 217.255L385.674 208.127L334.904 208C336.81 209.585 336.112 213.388 336.112 213.388C336.112 213.388 320.354 277.984 319.656 283.055C318.956 288.126 323.532 287.429 323.532 287.429C323.532 287.429 362.418 287.556 366.102 287.429C369.788 287.302 370.804 284.577 370.804 284.577L373.41 271.328C373.092 272.913 369.916 273.737 369.916 273.737H339.606C339.606 273.737 343.292 256.114 343.99 252.627C344.69 249.141 348.184 249.838 348.184 249.838H370.614C373.792 249.838 374.108 247.683 374.108 247.683L376.016 237.604H347.804L351.552 219.854Z" fill="#ED7123"/>
<path d="M405.943 208C393.871 208 392.155 215.67 392.155 215.67C384.277 230.124 377.985 263.784 378.431 281.217C378.495 284.64 384.849 287.493 390.757 287.493H423.353C428.247 287.493 429.453 281.027 429.453 281.027L430.915 268.792C428.881 273.483 424.941 273.356 424.941 273.356H404.291C398.509 273.356 398.129 271.264 397.873 269.616C396.413 260.425 403.911 227.271 410.265 220.932H431.805C438.603 220.932 438.603 216.938 438.603 216.938L440.001 208.063H405.943V208Z" fill="#ED7123"/>
</svg>
