<svg width="500" height="500" viewBox="0 0 500 500" fill="none" xmlns="http://www.w3.org/2000/svg">
<rect width="500" height="500" fill="white"/>
<path d="M175.374 194.8C156.015 200.72 124.577 213.039 114.898 229.838C96.6593 261.596 154.895 283.434 173.934 288.634C194.093 294.073 217.131 297.753 242.969 299.593C305.925 304.153 368.001 297.593 429.357 279.834C429.597 279.834 429.757 279.834 429.917 280.314C430.077 280.714 429.997 280.954 429.757 281.114C395.739 294.821 359.99 303.758 323.524 307.672C276.487 313.592 230.73 313.432 186.413 307.112C158.047 303.067 130.504 294.534 104.819 281.834C97.8403 277.984 91.5433 273.011 86.18 267.115C68.1012 248.636 82.9802 227.678 101.859 217.518C124.608 205.137 149.5 197.184 175.214 194.08C175.454 194.08 175.534 194.16 175.614 194.48V194.88L175.534 194.8H175.374Z" fill="#180E5E"/>
<path d="M402.558 272.475C403.118 272.475 403.118 272.555 402.558 272.715C373.2 282.874 344.082 288.714 315.204 290.074C261.127 292.633 215.45 290.234 167.774 274.715C153.375 269.995 133.056 261.516 126.896 245.277C120.977 229.918 144.495 215.279 156.654 210.079C175.422 201.983 195.246 196.596 215.53 194.08C215.678 194.175 215.79 194.315 215.85 194.48V194.56C216.01 195.12 215.85 195.36 215.45 195.52C197.821 199.507 181.19 207.047 166.574 217.678C142.895 235.037 162.014 254.076 180.413 262.795C194.172 269.355 211.611 274.395 232.649 277.914C278.048 286.062 324.51 286.333 370 278.714C379.679 277.114 392.638 272.875 402.558 272.475Z" fill="#180E5E"/>
<path d="M288.485 275.194C349.188 275.194 398.397 256.571 398.397 233.597C398.397 210.624 349.188 192 288.485 192C227.782 192 178.572 210.624 178.572 233.597C178.572 256.571 227.782 275.194 288.485 275.194Z" fill="url(#paint0_linear_781_2157)"/>
<defs>
<linearGradient id="paint0_linear_781_2157" x1="398.477" y1="233.597" x2="178.572" y2="233.597" gradientUnits="userSpaceOnUse">
<stop stop-color="#170E5D"/>
<stop offset="1" stop-color="#00AEEF"/>
</linearGradient>
</defs>
</svg>
