<svg width="500" height="500" viewBox="0 0 500 500" fill="none" xmlns="http://www.w3.org/2000/svg">
<rect width="500" height="500" fill="white"/>
<path d="M320.95 191.819H341.458C376.086 193.533 406.794 204.083 433.577 223.522C434.922 224.485 434.755 225.02 433.073 225.02H415.927C415.03 225.02 414.246 224.699 413.517 224.164C358.996 181.699 277.578 194.979 218.575 219.933C218.407 219.986 218.238 219.933 218.183 219.772C218.183 219.772 218.183 219.451 218.351 219.398C250.514 203.493 284.751 194.283 320.95 191.819Z" fill="#5C9A42"/>
<path d="M222.441 308.183H186.411C150.998 305.666 118.498 295.813 88.8002 278.624C87.4554 277.874 87.5674 277.445 89.1364 277.445H111.55C112.278 277.499 112.951 277.713 113.567 278.088C124.158 285.05 135.532 290.405 147.748 294.099C205.631 311.665 268.277 301.329 324.591 280.712C324.927 280.605 325.264 280.712 325.432 281.033L325.656 281.516C325.656 281.516 325.656 281.569 325.656 281.623C292.988 296.242 258.639 305.077 222.61 308.129L222.441 308.183Z" fill="#5C9A42"/>
<path d="M60 227.753V223.415C62.8577 218.704 66.3319 217.632 70.5344 220.202C79.4438 225.718 66.8362 239.266 60 227.753Z" fill="black"/>
<path d="M60 277.232V240.818H70.7025C71.3749 240.764 71.9353 241.246 71.9353 241.943V276.215C71.9353 277.017 71.543 277.392 70.7025 277.392L60 277.232Z" fill="black"/>
<path d="M137.609 264.273C118.614 270.806 122.032 243.12 139.234 248.904H139.178C139.57 249.064 140.018 248.904 140.187 248.529C141.027 246.87 141.532 245.209 141.644 243.495C141.644 243.388 141.588 243.281 141.475 243.281C132.005 241.14 124.833 242.639 120.014 247.78C116.484 251.528 115.083 255.973 115.812 261.06C117.269 271.02 127.915 271.931 137.273 270.485C138.169 270.324 138.618 269.842 138.674 269.039L138.954 265.237C139.01 264.273 138.561 263.952 137.609 264.273Z" fill="black"/>
<path fill-rule="evenodd" clip-rule="evenodd" d="M177.502 250.938C180.304 258.274 175.037 266.842 165.846 270.055C156.601 273.268 146.851 269.894 144.105 262.504C141.304 255.169 146.571 246.601 155.76 243.387C165.006 240.174 174.757 243.547 177.502 250.938ZM156.488 264.7C160.355 266.575 165.398 264.539 167.808 260.094C170.217 255.65 169.041 250.509 165.174 248.635C161.308 246.761 156.265 248.795 153.855 253.24C151.446 257.685 152.623 262.825 156.488 264.7Z" fill="black"/>
<path d="M233.425 250.67C234.659 239.746 219.81 241.298 214.711 245.904L214.655 245.797C214.094 246.332 213.59 246.278 213.085 245.797C208.378 241.084 202.663 240.923 195.939 245.315C195.21 245.797 194.818 245.582 194.762 244.778V244.083C194.874 243.333 194.538 242.958 193.697 242.958H187.87C187.142 242.958 186.749 243.28 186.638 243.975L183.107 269.358C182.995 270.109 183.332 270.43 184.116 270.43H190.503C191.288 270.43 191.737 270.055 191.848 269.304L194.145 253.508C194.203 252.865 194.538 252.222 194.987 251.687C197.172 249.116 199.357 247.992 201.599 248.153C204.176 248.367 205.297 249.705 204.96 252.169L202.608 269.679V269.786C202.608 270.162 202.944 270.483 203.336 270.483H210.34C210.9 270.483 211.236 270.216 211.293 269.679L213.478 254.418C213.534 254.204 213.59 253.99 213.702 253.776C216.056 249.705 218.577 247.832 221.267 248.153C223.788 248.474 224.909 249.812 224.572 252.222L222.163 269.519V269.626C222.163 270.162 222.612 270.537 223.116 270.537H229.672C230.4 270.537 230.792 270.162 230.904 269.519C231.913 263.093 232.754 256.828 233.425 250.67Z" fill="black"/>
<path fill-rule="evenodd" clip-rule="evenodd" d="M247.885 269.143L246.428 280.281C246.315 281.031 245.923 281.406 245.138 281.406H238.638C237.854 281.406 237.518 281.085 237.629 280.334L242.617 244.242C242.728 243.492 243.178 243.064 244.018 243.064L249.453 242.957C250.07 242.957 250.518 243.225 250.798 243.76C250.91 243.974 250.91 244.188 250.91 244.402C250.91 245.635 251.302 245.849 252.311 245.099C256.401 242.047 263.069 241.725 267.44 243.599C276.069 247.294 273.716 260.628 269.177 265.876C263.854 271.927 257.13 272.838 249.005 268.661C248.333 268.34 247.996 268.5 247.885 269.196V269.143ZM253.656 265.02C257.298 266.304 261.669 263.627 263.461 259.076C265.254 254.47 263.742 249.704 260.099 248.419C256.457 247.133 252.086 249.811 250.293 254.363C248.5 258.969 250.014 263.734 253.656 265.02Z" fill="black"/>
<path fill-rule="evenodd" clip-rule="evenodd" d="M301.34 270.056C310.529 266.79 315.684 258.222 312.882 250.887C310.025 243.55 300.275 240.23 291.086 243.443C281.896 246.709 276.741 255.277 279.543 262.614C282.401 269.949 292.15 273.27 301.34 270.056ZM303.189 260.257C300.723 264.649 295.68 266.629 291.814 264.702C287.948 262.774 286.827 257.633 289.236 253.242C291.702 248.851 296.745 246.87 300.612 248.798C304.477 250.725 305.598 255.866 303.189 260.257Z" fill="black"/>
<path d="M82.254 250.924L82.2402 258.527C82.2393 258.971 82.615 259.331 83.0791 259.332L103.644 259.366C104.108 259.367 104.485 259.009 104.486 258.564L104.499 250.961C104.5 250.516 104.125 250.157 103.661 250.156L83.096 250.122C82.6317 250.121 82.2548 250.479 82.254 250.924Z" fill="black"/>
<path d="M328.124 245.421H324.762V245.475L321.007 270.054H324.37L325.77 261.005C326.275 257.685 326.779 255.435 327.227 254.31C327.676 253.24 328.404 252.115 329.412 251.097C330.421 250.027 331.542 249.223 332.831 248.634C334.119 248.045 335.408 247.777 336.641 247.777C337.874 247.777 338.882 247.992 339.723 248.366C340.563 248.741 341.18 249.276 341.628 249.973C342.076 250.723 342.357 251.579 342.468 252.597C342.581 253.614 342.412 255.542 341.964 258.434L340.171 270.161H343.477L345.382 257.523C345.831 254.364 345.887 251.954 345.495 250.348C345.103 248.741 344.206 247.403 342.805 246.385C341.404 245.368 339.723 244.832 337.818 244.832C334.063 244.779 330.59 246.438 327.451 249.813L328.124 245.421Z" fill="black"/>
<path fill-rule="evenodd" clip-rule="evenodd" d="M373.288 262.346L373.342 262.375C370.604 266.228 367.094 268.129 362.754 268.129C360.119 268.129 357.99 267.218 356.421 265.398C354.853 263.577 354.236 261.167 354.572 258.222L377.659 258.382C378.163 254.26 377.378 251.047 375.193 248.637C373.008 246.227 370.094 244.995 366.339 244.995C362.585 244.995 359.279 246.227 356.365 248.797C353.452 251.368 351.714 254.42 351.155 258.008C350.594 261.595 351.378 264.702 353.508 267.218C355.637 269.735 358.607 271.074 362.473 271.074C367.853 271.128 372.335 268.664 375.866 263.737L373.342 262.375C373.361 262.347 373.381 262.32 373.4 262.292L373.288 262.346ZM374.296 255.651C374.184 253.295 373.344 251.475 371.774 250.136C370.15 248.797 368.188 248.102 365.835 248.102C361.016 248.102 357.486 250.564 355.245 255.544L374.296 255.651Z" fill="black"/>
<path d="M388.976 245.796H385.615V245.849L381.859 270.429H385.221L386.622 261.379C387.127 258.059 387.631 255.81 388.079 254.686C388.528 253.614 389.257 252.49 390.264 251.472C391.273 250.401 392.394 249.598 393.683 249.01C394.971 248.42 396.261 248.152 397.493 248.152C398.726 248.152 399.734 248.366 400.575 248.741C401.416 249.117 402.032 249.652 402.48 250.348C402.928 251.097 403.209 251.955 403.321 252.972C403.433 253.989 403.265 255.917 402.817 258.809L401.023 270.536H404.329L406.234 257.899C406.683 254.739 406.739 252.329 406.347 250.722C405.955 249.117 405.058 247.777 403.657 246.76C402.256 245.742 400.575 245.207 398.669 245.207C394.916 245.153 391.442 246.814 388.304 250.187L388.976 245.796Z" fill="black"/>
<path d="M414.248 270.643L417.61 248.687H413.071L413.464 245.956H418.002L419.459 236.478H422.82L421.364 246.011H426.576L426.183 248.741H420.971L417.61 270.643H414.248Z" fill="black"/>
<path d="M441.535 250.936L444.001 248.847H443.833C441.816 246.598 439.686 245.474 437.501 245.474C435.316 245.474 433.411 246.063 431.898 247.294C430.385 248.526 429.488 249.971 429.209 251.739C428.928 253.505 429.209 254.898 429.993 256.022C430.777 257.094 432.066 258.164 433.859 259.074C435.652 260.039 436.885 260.842 437.614 261.591C438.285 262.342 438.566 263.252 438.398 264.376C438.229 265.501 437.614 266.518 436.549 267.321C435.484 268.179 434.308 268.553 432.963 268.553C431.114 268.5 429.488 267.59 428.031 265.769L425.622 267.965C426.407 269.089 427.416 269.945 428.648 270.589C429.88 271.231 431.225 271.552 432.682 271.552C434.923 271.552 436.828 270.856 438.566 269.463C440.247 268.072 441.256 266.358 441.592 264.269C441.816 262.61 441.535 261.217 440.695 260.093C439.855 258.967 438.566 257.897 436.772 256.933C434.979 255.969 433.747 255.112 433.074 254.416C432.402 253.72 432.123 252.863 432.29 251.899C432.458 250.936 432.963 250.078 433.803 249.436C434.643 248.794 435.596 248.472 436.717 248.472C438.398 248.472 440.023 249.275 441.535 250.936Z" fill="black"/>
</svg>
