<svg width="500" height="500" viewBox="0 0 500 500" fill="none" xmlns="http://www.w3.org/2000/svg">
<rect width="500" height="500" fill="#0B0E54"/>
<path d="M415.685 237.269C415.748 237.109 415.759 236.935 415.717 236.77C415.675 236.604 415.582 236.456 415.451 236.346L418.412 224.616C418.437 224.506 418.5 224.41 418.588 224.342C418.676 224.273 418.786 224.237 418.898 224.24H430.599C430.727 224.24 430.851 224.292 430.942 224.382C431.034 224.474 431.085 224.598 431.085 224.727C431.085 224.727 431.085 224.808 431.085 224.849L428.327 235.576C428.309 235.647 428.306 235.723 428.317 235.795C428.328 235.869 428.353 235.94 428.393 236.003C428.431 236.066 428.482 236.121 428.543 236.164C428.602 236.208 428.67 236.238 428.743 236.254H428.874L439.937 236.204C439.993 236.203 440.048 236.213 440.1 236.233C440.153 236.253 440.2 236.283 440.241 236.321C440.281 236.361 440.314 236.407 440.336 236.457C440.359 236.508 440.371 236.565 440.372 236.619C440.377 236.656 440.377 236.694 440.372 236.731L437.676 247.448C437.544 247.945 437.737 248.189 438.253 248.189H449.284C449.381 248.189 449.474 248.227 449.542 248.295C449.611 248.364 449.649 248.457 449.649 248.553C449.654 248.583 449.654 248.614 449.649 248.644L446.902 259.594C446.845 259.817 446.712 260.014 446.529 260.152C446.344 260.291 446.118 260.362 445.888 260.355H435.242C434.99 260.354 434.746 260.437 434.548 260.592C434.349 260.746 434.208 260.963 434.147 261.207L431.632 271.254C431.572 271.491 431.435 271.701 431.243 271.852C431.049 272.002 430.812 272.084 430.568 272.085H419.932C419.702 272.078 419.477 272.15 419.292 272.288C419.108 272.426 418.976 272.623 418.919 272.846L416.354 283.421C416.331 283.591 416.243 283.746 416.109 283.854C415.976 283.961 415.805 284.013 415.633 283.999H404.298C403.832 283.999 403.66 283.765 403.771 283.309L406.478 272.441C406.528 272.252 406.637 272.085 406.791 271.966C406.946 271.847 407.135 271.781 407.33 271.781H418.655C418.734 271.781 418.81 271.756 418.872 271.709C418.934 271.661 418.979 271.594 419 271.518L421.686 260.781C421.721 260.575 421.833 260.39 421.997 260.262C422.163 260.133 422.371 260.073 422.578 260.092H433.61C433.76 260.104 433.91 260.059 434.031 259.968C434.15 259.876 434.231 259.743 434.258 259.594L437.037 248.806C437.062 248.708 437.046 248.605 436.995 248.518C436.944 248.431 436.86 248.366 436.762 248.34H436.672L425.59 248.421C425.445 248.421 425.307 248.366 425.203 248.265C425.099 248.165 425.037 248.029 425.032 247.884C425.026 247.837 425.026 247.789 425.032 247.743L427.699 237.208C427.831 236.691 427.628 236.437 427.1 236.437H416.739C416.503 236.418 416.268 236.486 416.079 236.63C415.891 236.802 415.754 237.022 415.685 237.269Z" fill="#C70155"/>
<path d="M89.026 236.019H109.476C112.933 236.019 114.789 238.879 113.957 242.295C111.511 252.218 109.091 261.965 106.698 271.535C106.673 271.677 106.598 271.805 106.486 271.894C106.374 271.984 106.233 272.029 106.09 272.022H95.9508C95.383 272.022 95.1701 271.758 95.3019 271.202L102.399 242.813C102.455 242.558 102.41 242.291 102.274 242.068C102.138 241.845 101.921 241.684 101.669 241.616C101.592 241.606 101.513 241.606 101.436 241.616H87.5457C87.3748 241.601 87.2045 241.651 87.0692 241.756C86.9337 241.862 86.8432 242.015 86.8157 242.184L79.4752 271.475C79.4456 271.636 79.3577 271.779 79.2286 271.878C79.0993 271.977 78.938 272.026 78.7756 272.012H68.2819C68.0487 272.012 67.9575 271.9 68.0183 271.668L80.8033 220.558C80.8436 220.399 80.935 220.259 81.0634 220.159C81.1917 220.057 81.3498 220.001 81.5131 220H91.9156C92.2197 220 92.3313 220.142 92.2602 220.436L88.4784 235.319C88.3703 235.786 88.5529 236.019 89.026 236.019Z" fill="white"/>
<path fill-rule="evenodd" clip-rule="evenodd" d="M224.761 257.06C224.462 257.034 224.165 257.126 223.932 257.314C223.7 257.504 223.549 257.776 223.514 258.074L221.78 265.394C221.751 265.511 221.746 265.633 221.765 265.752C221.783 265.871 221.826 265.986 221.889 266.088C221.953 266.191 222.035 266.28 222.133 266.35C222.23 266.421 222.341 266.472 222.459 266.498H246.286C246.435 266.498 246.577 266.557 246.683 266.662C246.79 266.765 246.851 266.907 246.854 267.056C246.858 267.108 246.858 267.158 246.854 267.209L245.667 271.548C245.637 271.697 245.554 271.831 245.432 271.923C245.31 272.015 245.16 272.058 245.008 272.044H214.592C211.337 272.044 209.259 269.682 210.09 266.246C212.287 257.046 214.723 247.204 217.4 236.722C217.427 236.562 217.513 236.419 217.641 236.319C217.768 236.22 217.928 236.172 218.089 236.184H247.493C252.116 236.184 253.809 238.678 252.724 243.048C251.639 247.418 250.533 251.98 249.429 256.603C249.397 256.738 249.321 256.859 249.212 256.946C249.104 257.031 248.969 257.079 248.831 257.08L224.761 257.06ZM228.137 241.629C227.995 241.629 227.857 241.677 227.744 241.766C227.632 241.854 227.552 241.977 227.519 242.115L225.491 250.226C225.475 250.308 225.475 250.393 225.492 250.477C225.509 250.559 225.541 250.636 225.588 250.707C225.635 250.776 225.696 250.835 225.766 250.882C225.837 250.928 225.915 250.961 225.997 250.976H238.722C238.866 250.976 239.006 250.928 239.119 250.84C239.234 250.752 239.315 250.629 239.351 250.49L241.267 242.379C241.306 242.215 241.28 242.041 241.193 241.897C241.105 241.753 240.964 241.649 240.801 241.608H240.648L228.137 241.629Z" fill="white"/>
<path d="M264.928 266.397C264.733 266.32 264.556 266.203 264.411 266.052C264.288 265.928 264.198 265.774 264.153 265.605C264.107 265.437 264.104 265.258 264.147 265.088L269.734 242.317C269.781 242.118 269.895 241.942 270.055 241.815C270.214 241.688 270.412 241.619 270.616 241.617H292.718C292.885 241.629 293.051 241.579 293.182 241.477C293.313 241.373 293.402 241.224 293.429 241.059L294.443 236.792C294.445 236.774 294.446 236.757 294.446 236.739C294.446 236.719 294.445 236.699 294.443 236.679C294.443 236.545 294.389 236.416 294.294 236.322C294.199 236.226 294.071 236.173 293.936 236.173H260.294C260.117 236.173 259.944 236.232 259.804 236.343C259.664 236.453 259.566 236.608 259.524 236.781C257.328 245.798 254.914 255.599 252.286 266.183C252.084 266.857 252.044 267.568 252.167 268.259C252.289 268.951 252.573 269.604 252.994 270.167C253.414 270.73 253.961 271.187 254.59 271.5C255.218 271.814 255.912 271.975 256.614 271.973H286.361C286.458 271.977 286.553 271.947 286.63 271.888C286.706 271.828 286.758 271.744 286.778 271.648L288.065 266.863L288.067 266.854C288.068 266.849 288.068 266.843 288.068 266.838L288.069 266.83C288.069 266.82 288.069 266.81 288.068 266.8C288.068 266.796 288.067 266.793 288.067 266.789C288.066 266.787 288.066 266.784 288.065 266.782C288.065 266.742 288.057 266.703 288.042 266.667C288.026 266.63 288.003 266.598 287.976 266.571C287.969 266.564 287.962 266.558 287.955 266.552C287.944 266.544 287.933 266.536 287.921 266.529C287.907 266.521 287.892 266.514 287.877 266.508C287.84 266.493 287.801 266.486 287.761 266.488C278.926 266.481 271.401 266.45 265.182 266.397C265.098 266.412 265.012 266.412 264.928 266.397Z" fill="white"/>
<path fill-rule="evenodd" clip-rule="evenodd" d="M322.323 242.386C322.236 242.241 322.116 242.119 321.97 242.032C321.825 241.946 321.66 241.897 321.491 241.89H299.024C298.955 241.89 298.886 241.876 298.821 241.849C298.799 241.839 298.778 241.828 298.758 241.816C298.719 241.793 298.683 241.765 298.651 241.732C298.603 241.682 298.565 241.622 298.54 241.556C298.538 241.551 298.536 241.546 298.534 241.54C298.531 241.531 298.528 241.522 298.526 241.512C298.52 241.493 298.516 241.474 298.513 241.454C298.508 241.421 298.505 241.387 298.506 241.353C298.502 241.316 298.502 241.279 298.506 241.242L299.663 236.781C299.688 236.619 299.773 236.473 299.9 236.372C300.028 236.27 300.189 236.22 300.352 236.232H329.562C333.171 236.232 335.524 238.26 334.632 242.316C332.327 252.083 329.961 261.904 327.534 271.779C327.51 271.885 327.452 271.978 327.366 272.045C327.282 272.112 327.175 272.146 327.068 272.144H297.2C293.904 272.144 291.521 270.117 292.343 266.557C293.633 261.049 294.877 255.754 296.074 250.67C296.098 250.57 296.155 250.481 296.236 250.416C296.317 250.353 296.416 250.317 296.52 250.315H320.295C320.504 250.315 320.705 250.245 320.869 250.116C321.032 249.987 321.148 249.808 321.198 249.606C321.675 247.72 322.121 245.814 322.556 243.877C322.62 243.627 322.632 243.364 322.593 243.108C322.552 242.851 322.46 242.607 322.323 242.386ZM306.669 256.298C306.56 256.299 306.455 256.337 306.371 256.405C306.286 256.473 306.228 256.567 306.203 256.672L304.073 265.899C304.06 265.961 304.059 266.026 304.07 266.089C304.082 266.152 304.106 266.212 304.141 266.265C304.175 266.319 304.221 266.365 304.273 266.402C304.326 266.438 304.385 266.463 304.448 266.476H316.716C316.826 266.497 316.939 266.479 317.037 266.425C317.135 266.371 317.211 266.286 317.253 266.183L319.281 256.885C319.297 256.823 319.299 256.758 319.289 256.695C319.278 256.63 319.255 256.569 319.222 256.516C319.187 256.461 319.143 256.413 319.091 256.376C319.068 256.36 319.044 256.346 319.019 256.334C318.987 256.318 318.952 256.306 318.917 256.298H306.669Z" fill="white"/>
<path d="M415.715 236.767C415.673 236.601 415.58 236.453 415.449 236.344L341.791 236.171C341.638 236.159 341.485 236.204 341.363 236.297C341.242 236.391 341.159 236.527 341.132 236.678C339.956 241.348 338.692 246.358 337.34 251.704C336.457 255.243 338.81 257.443 342.146 257.382C347.938 257.246 353.521 257.246 358.895 257.382C360.02 257.412 360.466 257.98 360.223 259.085L358.804 265.655C358.773 265.895 358.65 266.113 358.461 266.262C358.271 266.413 358.03 266.482 357.79 266.456H334.552C334.284 266.456 334.024 266.549 333.816 266.719C333.61 266.888 333.468 267.126 333.417 267.389L332.636 271.303C332.534 271.819 332.747 272.073 333.275 272.073L368.699 272.002C368.783 272 368.864 271.972 368.929 271.921C368.995 271.869 369.042 271.799 369.064 271.718C370.348 266.411 371.525 261.346 372.592 256.52C373.495 252.494 370.849 250.467 367.107 250.589C361.207 250.784 355.36 250.74 349.567 250.456C349.507 250.456 349.507 250.436 349.507 250.386C350.035 247.48 350.711 244.604 351.535 241.768C351.544 241.709 351.575 241.655 351.622 241.618C351.67 241.581 351.728 241.562 351.788 241.565H388.258C388.953 241.565 389.216 241.903 389.048 242.579L381.951 271.242C381.818 271.758 382.022 272.012 382.559 272.012H392.779C392.923 272.024 393.067 271.983 393.181 271.894C393.296 271.806 393.373 271.677 393.397 271.535L400.555 242.224C400.588 242.071 400.672 241.934 400.794 241.836C400.917 241.738 401.068 241.686 401.224 241.687L414.08 241.636C414.232 241.647 414.382 241.6 414.502 241.506C414.622 241.413 414.703 241.278 414.73 241.129L415.683 237.267C415.746 237.108 415.758 236.933 415.715 236.767Z" fill="white"/>
<path fill-rule="evenodd" clip-rule="evenodd" d="M154.013 236.638C157.344 238.421 156.711 240.972 155.923 244.145L155.869 244.364C153.544 253.787 151.27 262.911 149.046 271.739C149.025 271.818 148.979 271.887 148.916 271.936C148.851 271.986 148.771 272.012 148.69 272.012H117.26C114.026 272.012 112.323 269.214 113.103 266.031C115.557 256.047 117.98 246.297 120.373 236.78C120.4 236.613 120.49 236.463 120.623 236.36C120.757 236.256 120.925 236.207 121.093 236.222H152.198C152.828 236.213 153.451 236.356 154.013 236.638ZM124.844 264.874C124.761 265.21 124.815 265.566 124.994 265.863C125.172 266.158 125.461 266.372 125.797 266.456C125.901 266.471 126.007 266.471 126.111 266.456H137.873C138.167 266.454 138.452 266.354 138.682 266.169C138.912 265.985 139.074 265.729 139.14 265.443L144.706 243.188C144.789 242.852 144.735 242.496 144.556 242.199C144.378 241.904 144.089 241.69 143.753 241.606C143.649 241.591 143.542 241.591 143.439 241.606H131.708C131.414 241.608 131.128 241.708 130.898 241.893C130.668 242.077 130.507 242.333 130.441 242.619L124.844 264.874Z" fill="white"/>
<path d="M180.836 241.764C180.839 241.793 180.838 241.823 180.83 241.85L173.388 271.477C173.385 271.5 173.384 271.523 173.384 271.546C173.385 271.56 173.386 271.574 173.388 271.587C173.388 271.714 173.439 271.835 173.527 271.925C173.617 272.014 173.738 272.064 173.865 272.064L184.004 272.004C184.103 272.01 184.202 271.98 184.281 271.918C184.359 271.856 184.412 271.767 184.43 271.669L191.648 242.631C191.705 242.302 191.884 242.007 192.148 241.805C192.414 241.602 192.746 241.505 193.077 241.536L197.944 241.607C198.045 241.592 198.148 241.592 198.249 241.607C198.423 241.647 198.589 241.722 198.734 241.827C198.88 241.932 199.004 242.065 199.098 242.217C199.192 242.37 199.256 242.539 199.283 242.717C199.312 242.895 199.304 243.075 199.263 243.25L192.165 271.425C192.16 271.459 192.16 271.493 192.165 271.527C192.164 271.583 192.174 271.638 192.194 271.689C192.214 271.741 192.245 271.788 192.283 271.827C192.323 271.868 192.368 271.899 192.419 271.92C192.47 271.942 192.525 271.952 192.581 271.952H202.963C203.105 271.952 203.242 271.903 203.352 271.815C203.462 271.727 203.54 271.604 203.571 271.466C205.903 261.855 208.313 252.054 210.801 242.063C211.682 238.515 209.462 236.183 206.126 236.183C192.135 236.142 177.992 236.142 163.695 236.183C163.539 236.182 163.388 236.235 163.265 236.33C163.142 236.426 163.055 236.559 163.016 236.711L154.398 271.182C154.393 271.236 154.393 271.291 154.398 271.344C154.398 271.523 154.468 271.694 154.593 271.821C154.719 271.949 154.889 272.021 155.067 272.024H165.206C165.304 272.023 165.398 271.989 165.476 271.928C165.552 271.868 165.608 271.784 165.632 271.689L173.033 241.78C173.041 241.722 173.07 241.67 173.116 241.634C173.161 241.598 173.219 241.582 173.277 241.586H180.668C180.696 241.592 180.724 241.604 180.746 241.621C180.77 241.638 180.79 241.659 180.806 241.684C180.814 241.697 180.82 241.71 180.825 241.724C180.83 241.737 180.833 241.75 180.836 241.764Z" fill="white"/>
</svg>
