<svg width="500" height="500" viewBox="0 0 500 500" fill="none" xmlns="http://www.w3.org/2000/svg">
<rect width="500" height="500" fill="#0A2267"/>
<path d="M263.716 242.209V254.174H271.729V300.439C271.729 311.607 277.098 314 287.996 314L299.774 313.841V300.998H295.688C293.044 300.998 291.762 299.402 291.762 295.893V254.174H300.736V242.209H263.716ZM239.678 242.209C225.495 242.209 215.639 247.314 215.639 265.341V293.021C215.639 308.735 226.537 314 239.678 314C253.7 314 262.755 308.656 263.716 293.021V265.341C263.716 249.388 255.864 242.129 239.678 242.129V242.209ZM243.684 295.653C243.444 298.844 243.043 301.476 239.598 301.476C236.152 301.476 235.912 298.924 235.671 295.893V261.672C235.671 258.242 235.671 254.573 239.598 254.573C243.684 254.573 243.684 258.561 243.684 262.071V295.653ZM410.352 252.26C412.436 246.277 417.243 242.209 425.497 242.209C433.91 242.209 440 246.835 440 255.769V314H419.807V263.906C419.807 260.874 418.686 258.083 415 258.083C411.474 258.083 409.871 260.476 409.871 263.906V314H389.999V263.906C389.999 260.715 388.878 258.083 385.192 258.083C381.185 258.083 380.144 260.316 379.903 263.906V314H359.871V242.209H379.903V252.579H380.144C383.269 246.038 388.157 242.209 395.849 242.209C404.262 242.209 408.429 246.676 410.112 252.26H410.352ZM330.223 242.209C315.64 242.209 303.781 247.154 303.781 264.544V293.739C303.781 309.214 316.041 314 329.182 314C345.849 314 355.624 308.416 355.624 295.813V285.603H335.592V293.26C335.592 297.329 333.589 301.397 329.262 301.397C325.255 301.397 323.653 297.089 323.653 293.26V278.104H355.704V261.752C355.704 247.154 344.166 242.129 330.223 242.209ZM335.672 266.139H323.653V263.985C323.653 259.199 323.973 254.892 329.262 254.892C334.23 254.892 335.672 259.518 335.672 261.911V266.139ZM180.863 234.232C196.088 234.232 207.626 237.502 207.626 253.376C207.626 261.911 203.46 268.851 190.479 270.925V271.085C202.498 271.484 206.905 276.589 207.306 282.093C207.466 283.768 207.546 286.241 207.546 289.033V314H187.594V286.081C187.434 279.939 184.87 277.945 177.979 277.546H171.568V314H151.536V234.232H180.863ZM171.568 266.139H176.937C183.347 266.139 187.594 261.672 187.594 256.248C187.594 248.83 183.588 246.197 176.456 246.197H171.568V266.139Z" fill="white"/>
<path d="M312 194.348L272.116 214.37V234.232L312 214.21V194.348Z" fill="#EE3338"/>
<path d="M76.7768 197.826H63.9911V186H56V217.536H63.9911V205.71H76.7768V217.536H84.688V186H76.6969M227.808 193.884H239.795V201.768H225.89V195.619C226.05 194.278 226.37 193.884 227.728 193.884H227.808ZM219.657 187.813C218.139 189.311 218.059 191.44 218.059 192.701V217.536H225.89V209.652H239.795V217.536H247.786V186H225.331C223.173 186 221.176 186.315 219.737 187.813H219.657ZM171.551 186H147.897V217.536H155.729V193.884H169.633C171.072 193.884 171.231 194.042 171.311 195.54V217.536H179.143V192.701C179.143 191.44 179.063 189.311 177.464 187.813C175.866 186.315 173.789 186 171.551 186ZM135.911 207.997C135.911 209.494 135.751 209.573 134.472 209.652H122.805V186H115.134V217.536H137.109C139.107 217.536 141.025 217.221 142.384 215.723C143.822 214.225 143.902 212.096 143.902 210.835V186H135.911M205.833 207.997C205.753 209.416 205.833 209.573 204.235 209.652H191.848V193.884H204.235C205.673 193.884 205.673 193.963 205.833 195.461V207.997ZM213.824 192.701C213.744 191.44 213.664 189.311 212.226 187.813C210.627 186.315 208.63 186 206.472 186H183.857V217.536H206.472C208.63 217.536 210.627 217.221 212.146 215.723C213.664 214.225 213.744 212.096 213.744 210.835M99.9509 198.93L93.3184 186H85.567L95.9554 205.868V217.536H103.946V205.868L114.255 186H106.743M255.777 217.536H263.768V186H255.777V217.536Z" fill="white"/>
</svg>
