<svg width="500" height="500" viewBox="0 0 500 500" fill="none" xmlns="http://www.w3.org/2000/svg">
<rect width="500" height="500" fill="#555352"/>
<path d="M399.249 142H343.448C343.034 142 342.697 142.338 342.697 142.758V178.288C342.697 178.707 343.034 179.047 343.448 179.047H399.249C399.663 179.047 399.998 178.707 399.998 178.288V142.758C399.998 142.338 399.663 142 399.249 142Z" fill="#E69C37"/>
<path d="M253.376 273.609C244.166 267.326 233.348 265.918 222.532 266.026C203.358 266.134 184.08 266.134 164.694 266.026C139.525 265.81 119.711 257.143 105.251 240.029C94.005 226.379 91.5408 206.664 96.3612 189.658C103.644 163.984 121.316 148.602 149.484 143.403C153.448 142.645 160.088 142.32 169.515 142.32C220.496 142.104 271.477 141.994 322.46 142.104C323.423 142.104 323.851 142.536 323.851 143.511V177.634C323.851 178.608 323.423 179.041 322.46 179.041C283.152 179.041 238.274 179.041 187.722 179.041C181.51 179.041 176.369 180.017 172.085 181.966C161.802 186.625 155.162 200.164 159.446 211.106C165.872 228.005 180.01 231.254 196.718 231.146C215.141 230.93 234.313 230.93 254.127 231.146C262.267 231.146 270.62 231.58 278.225 233.637C307.787 241.22 322.995 259.31 323.851 287.799C324.28 302.206 321.603 314.772 315.606 325.388C309.072 337.088 299.647 345.861 287.222 351.711C278.762 355.72 269.978 357.777 261.089 357.777C211.82 357.777 161.267 357.777 109.427 357.777C108.464 357.777 108.036 357.235 108.036 356.261V320.73C108.036 319.756 108.571 319.214 109.535 319.214C149.592 319.214 189.543 319.214 229.386 319.214C235.384 319.214 241.381 318.022 247.379 315.855C253.805 313.472 257.983 309.681 260.125 304.373C263.98 294.732 263.017 279.999 253.699 273.609H253.376Z" fill="white"/>
<path d="M399.141 196.922H343.448C343.034 196.922 342.697 197.26 342.697 197.68V357.242C342.697 357.659 343.034 358 343.448 358H399.141C399.555 358 399.892 357.659 399.892 357.242V197.68C399.892 197.26 399.555 196.922 399.141 196.922Z" fill="white"/>
</svg>
