<svg width="500" height="500" viewBox="0 0 500 500" fill="none" xmlns="http://www.w3.org/2000/svg">
<rect width="500" height="500" fill="#303884"/>
<path d="M426 249.997C426 319.352 347.199 375.573 250 375.573C152.801 375.573 74 319.352 74 249.997C74 180.641 152.801 124.42 250 124.42C347.199 124.42 426 180.641 426 249.997ZM263.645 142C263.645 138.045 260.449 134.849 256.494 134.849C252.541 134.849 249.345 138.045 249.345 142C249.345 145.954 252.541 149.151 256.494 149.151C260.449 149.151 263.645 145.954 263.645 142ZM289.503 142.103C289.503 138.086 286.265 134.849 282.25 134.849C278.233 134.849 274.996 138.086 274.996 142.103C274.996 146.118 278.233 149.355 282.25 149.355C286.265 149.355 289.503 146.118 289.503 142.103ZM264.608 166.648C264.608 162.57 261.31 159.272 257.232 159.272C253.156 159.272 249.857 162.57 249.857 166.648C249.857 170.726 253.156 174.023 257.232 174.023C261.31 174.023 264.608 170.726 264.608 166.648ZM246.332 250.426C246.332 205.72 210.087 169.475 165.381 169.475C120.674 169.475 84.4288 205.72 84.4288 250.426C84.4288 295.133 120.674 331.378 165.381 331.378C210.087 331.378 246.332 295.133 246.332 250.426ZM271.207 225.164C266.739 241.146 262.252 256.922 257.766 272.472C256.433 277.084 253.381 279.316 248.607 279.152C248.3 279.152 248.156 279.296 248.176 279.603V280.258C248.217 280.648 248.423 280.832 248.791 280.832H276.575C276.984 280.812 277.189 280.608 277.189 280.198V279.542C277.169 279.193 276.882 278.906 276.533 278.906C275.427 278.928 274.423 278.804 273.522 278.538C271.411 277.903 270.182 275.689 270.776 273.538L284.565 224.632C284.749 223.976 285.159 223.669 285.835 223.73C293.231 224.242 296.674 228.032 296.162 235.142C296.14 235.388 296.223 235.634 296.407 235.818C296.551 235.982 296.756 236.085 296.981 236.105C297.555 236.166 297.923 235.921 298.067 235.368L301.939 220.984C302.206 220.001 301.837 219.509 300.813 219.509H256.29C255.491 219.509 254.979 219.899 254.753 220.677L251.086 233.687C250.083 237.232 250.718 237.559 252.97 234.63C257.663 228.544 261.801 224.098 270.059 223.71C271.104 223.669 271.492 224.16 271.207 225.164ZM320.42 246.514C320.133 246.473 319.929 246.227 319.969 245.94V245.857L325.994 223.914C326.158 223.34 326.69 222.911 327.305 222.889C336.095 222.582 347.22 222.685 347.466 234.67C347.466 234.753 347.507 234.814 347.569 234.834C347.753 234.917 347.958 234.999 348.142 235.06C348.532 235.244 349.003 235.06 349.167 234.67C349.187 234.63 349.207 234.569 349.227 234.527L352.588 220.964C352.814 220.001 352.444 219.529 351.461 219.529L306.407 219.468C306.078 219.468 305.914 219.632 305.934 219.939V220.594C305.956 221.066 306.344 221.455 306.836 221.455C311.324 221.476 312.962 223.75 311.712 228.257C307.614 243.154 303.558 257.721 299.522 271.961C298.271 276.447 295.362 278.865 290.835 279.213C290.322 279.255 290.056 279.542 290.077 280.054V280.566C290.077 280.73 290.179 280.812 290.322 280.812H339.168C339.557 280.812 339.927 280.566 340.07 280.177L345.519 265.076C345.582 264.892 345.642 264.688 345.663 264.482C345.766 263.643 345.171 263.58 343.88 264.298C343.696 264.401 343.552 264.523 343.429 264.666C335.952 273.744 326.526 277.862 315.196 277.001C313.495 276.878 312.204 275.404 312.327 273.681C312.327 273.477 312.369 273.293 312.43 273.087L318.413 251.083C318.597 250.366 319.068 250.018 319.826 250.038C325.952 250.263 335.315 250.099 332.632 259.852C332.468 260.406 332.673 260.671 333.247 260.651H334.005C334.23 260.61 334.353 260.507 334.415 260.303L340.582 237.846C340.725 237.294 340.541 236.925 340.028 236.7C339.516 236.494 339.147 236.638 338.942 237.151C335.952 244.321 329.763 247.436 320.4 246.514H320.42ZM376.868 244.935C378.445 238.892 380.105 232.97 381.888 227.213C383.014 223.504 385.555 221.496 389.51 221.189C389.817 221.168 390.062 220.923 390.103 220.616L390.165 220.001C390.206 219.612 390.042 219.427 389.652 219.448L362.792 219.529C362.484 219.529 362.218 219.775 362.218 220.103C362.218 220.186 362.218 220.267 362.258 220.349L362.505 220.944C362.567 221.066 362.648 221.148 362.771 221.189L366.152 221.989C368.016 222.418 369.185 224.304 368.754 226.168C368.754 226.209 368.754 226.229 368.734 226.271C364.575 242.108 360.272 257.68 355.846 272.986C354.658 277.104 351.872 279.132 347.466 279.091C347.323 279.091 347.22 279.152 347.159 279.296L346.892 279.911C346.625 280.525 346.831 280.832 347.507 280.832H374.9C375.248 280.812 375.434 280.628 375.412 280.279V279.623C375.372 279.193 375.147 278.989 374.716 278.989C370.066 279.049 368.323 276.878 369.45 272.432C371.13 265.855 373.18 258.192 375.618 249.403C375.966 248.111 376.356 248.111 376.765 249.383C379.265 257.353 381.477 264.974 383.424 272.248C384.427 276.038 382.994 278.354 379.101 279.193C378.752 279.255 378.568 279.46 378.507 279.767C378.364 280.485 378.671 280.832 379.387 280.832H403.728C403.974 280.812 404.179 280.608 404.158 280.341C404.158 280.198 404.077 280.074 403.974 279.993C400.06 277.513 397.581 274.603 396.558 271.263C393.382 260.917 390.41 251.267 387.644 242.313C387.399 241.555 387.563 240.899 388.157 240.346C395.943 233.053 404.2 223.218 414.874 221.087C414.997 221.066 415.1 221.005 415.181 220.902C415.345 220.677 415.408 220.431 415.345 220.144C415.244 219.694 414.854 219.387 414.403 219.387L393.894 219.571C393.505 219.571 393.238 219.755 393.135 220.144C392.911 220.923 393.218 221.395 394.017 221.579C396.004 222.009 396.987 223.279 396.967 225.39C396.967 226.373 396.536 227.295 395.84 227.972L377.769 245.469C376.847 246.35 376.54 246.186 376.868 244.935Z" fill="white"/>
<path d="M233.403 219.428L234.427 218.609C235.923 217.44 236.497 217.788 236.149 219.653C235.185 224.899 234.099 229.98 232.85 234.917C231.805 239.036 230.945 238.995 230.227 234.794C229.039 227.766 226.006 222.44 218.529 222.05C199.945 221.128 185.173 260.898 196.625 272.986C204.944 281.775 217.688 275.22 224.306 266.798C224.49 266.573 224.696 266.553 224.92 266.696L225.515 267.085C225.802 267.27 225.863 267.495 225.699 267.802C218.877 279.747 207.403 284.972 194.269 281.203C182.242 277.739 177.201 265.61 178.841 253.623C182.12 229.672 205.518 212.461 228.711 220.267C230.31 220.801 232.071 220.493 233.403 219.428Z" fill="white"/>
<path d="M111.374 261.901C119.591 252.026 127.725 242.129 135.777 232.232C137.457 230.184 138.707 227.972 139.506 225.615C139.73 224.939 139.649 224.181 139.259 223.607C138.501 222.46 137.395 221.763 135.961 221.517C135.45 221.435 135.163 221.128 135.1 220.616C135.1 220.411 135.121 220.227 135.223 220.083C135.428 219.755 135.715 219.592 136.105 219.592L181.323 219.489C181.426 219.489 181.507 219.551 181.57 219.652L181.815 220.267C182 220.718 181.857 220.964 181.386 221.005C176.776 221.415 173.866 223.811 172.636 228.217C168.211 243.973 164.031 259.401 160.076 274.46C159.625 276.182 160.65 277.944 162.392 278.395C162.494 278.415 162.577 278.435 162.678 278.455L166.264 279.05C166.653 279.112 166.859 279.337 166.92 279.727C166.96 280.014 166.96 280.279 166.92 280.546C166.899 280.73 166.797 280.812 166.612 280.812H137.765C137.641 280.812 137.579 280.73 137.579 280.608V280.095C137.579 279.583 137.866 279.296 138.379 279.256C143.112 278.886 146.083 276.591 147.271 272.371C151.348 257.926 155.549 242.58 159.872 226.353C160.282 224.796 159.544 223.156 158.11 222.439C153.458 220.124 149.32 221.189 145.693 225.595C130.183 244.424 114.981 262.885 100.065 280.976C97.9131 283.578 96.9093 283.189 97.0526 279.808C97.7083 263.11 98.3435 245.449 98.9786 226.844C99.0605 224.14 98.1591 221.702 95.1266 221.538C94.3686 221.496 93.9384 221.108 93.8154 220.37C93.7744 220.083 93.8563 219.879 94.0613 219.755C94.2457 219.652 94.4301 219.592 94.6349 219.592C102.175 219.529 110.002 219.489 118.095 219.428C118.464 219.428 118.792 219.673 118.873 220.042C118.893 220.227 118.873 220.411 118.832 220.595C118.792 220.738 118.689 220.821 118.525 220.841C114.407 221.312 112.235 223.977 111.969 228.832C111.374 240.408 110.903 251.308 110.514 261.553C110.473 262.557 110.76 262.659 111.395 261.901H111.374Z" fill="white"/>
</svg>
