<svg width="500" height="500" viewBox="0 0 500 500" fill="none" xmlns="http://www.w3.org/2000/svg">
<rect width="500" height="500" fill="#0082FF"/>
<path d="M150.782 331.834H91.1992L173.68 160.053H233.263L150.782 331.834Z" fill="white"/>
<path d="M397.429 178.954C394.078 168.519 385.319 162.61 378.911 160.053C374.825 158.407 371.709 157.907 371.709 157.907C368.387 157.349 364.948 157.055 361.45 157.055C347.37 157.055 334.672 161.758 325.442 169.371C320.886 173.133 316.771 178.219 314.184 183.186L319.21 186.802C320.004 185.391 322.473 182.158 323.473 181.041C328.675 175.456 333.908 172.722 340.08 173.339C352.162 174.544 346.43 187.302 346.43 187.302L277.029 331.805H337.67L389.963 217.46C396.518 201.352 401.603 191.887 397.429 178.924V178.954Z" fill="white"/>
<path d="M212.626 363.845C204.455 354.027 199.957 342.416 197.665 333.363L197.606 333.039C194.314 316.226 198.252 301.528 201.162 292.798L201.368 292.357C202.485 289.506 203.308 287.36 203.984 286.155L209.246 273.956L209.422 274.015L256.13 173.809C259.893 164.491 267.006 136.361 237.406 120.194C195.313 97.2368 146.871 125.073 122.297 157.789C105.189 180.57 101.309 206.32 101.309 213.139C101.309 235.273 115.389 243.269 115.507 243.416C117.712 247.325 113.038 249.441 111.421 248.383C111.068 248.177 95.9596 240.388 94.9014 216.843C94.6369 210.788 94.6368 203.527 96.7532 195.267C103.926 162.669 125.619 135.067 154.984 117.343C156.777 116.255 158.57 115.197 160.392 114.227L161.215 113.815C173.208 107.437 186.113 103.116 199.252 101.205C233.555 96.2668 268.887 106.408 291.962 133.451C300.134 143.004 304.749 152.44 307.041 161.317C311.392 178.042 307.365 191.946 303.955 200.294C302.72 203.321 301.75 206.114 301.016 207.349L265.86 280.6C265.86 280.6 258.981 294.856 254.043 305.938C252.338 309.965 247.988 321.958 248.605 336.596C250.339 350.558 257.012 368.283 276.765 377.837C312.185 394.944 368.094 379.394 390.639 336.949C395.783 327.278 402.867 309.377 402.867 293.357C402.867 270.635 391.962 260.288 391.874 260.112C389.669 256.085 394.314 253.968 395.989 255.056C396.283 255.262 411.568 272.281 408.364 304.233C404.69 331.188 391.257 363.433 355.719 383.304C353.896 384.362 352.162 385.479 350.31 386.508L349.546 386.919C337.553 393.474 322.562 397.296 309.422 399.089C304.954 399.706 300.31 400 295.607 400C265.713 400 232.556 387.772 212.626 363.874" fill="white"/>
</svg>
