<svg width="500" height="500" viewBox="0 0 500 500" fill="none" xmlns="http://www.w3.org/2000/svg">
<rect width="500" height="500" fill="#0A50A1"/>
<path fill-rule="evenodd" clip-rule="evenodd" d="M241.965 278.911C242.619 279.243 243.298 279.539 244.004 279.806C248.6 281.539 253.654 282.852 259.164 283.747C264.7 284.642 269.643 285.287 273.992 285.687C281.375 286.362 288.473 286.096 295.285 284.886C297.16 284.555 298.956 284.027 300.682 283.299C302.557 282.508 304.007 281.32 305.041 279.733C305.063 279.702 305.088 279.694 305.124 279.716C305.137 279.724 305.145 279.734 305.146 279.746C305.147 279.752 305.145 279.76 305.141 279.767C303.916 281.935 302.306 283.798 300.311 285.355C295.589 289.043 289.282 290.832 283.193 290.961C277.718 291.078 271.828 290.966 266.44 290.153C258.555 288.96 251.352 286.953 243.937 284.886C242.178 284.396 240.406 283.902 238.611 283.415C235.586 282.598 232.903 282.137 230.552 282.03C225.212 281.785 219.697 283.067 214.482 284.452C214.119 284.552 214.028 284.435 214.214 284.108L217.27 278.76C217.334 278.648 217.292 278.507 217.179 278.443L217.135 278.424C205.29 274.884 199.404 263.449 198.88 251.7C198.517 243.598 200.503 236.16 205.848 230.033C212.752 222.122 222.083 219.54 232.569 220.065C242.939 220.585 252.071 225.137 256.845 234.52C259.991 240.712 260.273 248.709 258.978 255.498C257.961 260.829 255.374 265.962 251.755 270.148C249.045 273.279 245.709 276.493 241.961 278.545C241.861 278.601 241.822 278.726 241.879 278.824C241.9 278.863 241.93 278.894 241.965 278.911ZM247.15 233.72C243.186 226.716 235.797 223.352 227.808 223.473C219.044 223.602 211.679 228.111 208.96 236.594C207.397 241.478 206.952 246.645 207.618 252.095C208.943 262.946 214.521 274.359 226.674 276.054C237.005 277.496 245.96 273.034 249.327 262.885C251.837 255.318 251.894 247.406 249.5 239.15C248.994 237.408 248.21 235.601 247.15 233.72Z" fill="white"/>
<path d="M354.511 276.895C354.52 277.106 354.494 277.308 354.43 277.51C354.381 277.669 354.273 277.755 354.105 277.772C350.94 278.091 348.076 278.233 345.509 278.203C337.481 278.096 329.423 278.023 321.329 277.984C318.399 277.966 314.651 278.043 310.085 278.211C309.986 278.211 309.934 278.164 309.934 278.065L309.942 275.935C309.942 275.793 310.011 275.725 310.155 275.729C311.751 275.742 313.396 275.617 315.088 275.354C316.927 275.062 317.209 273.875 317.265 272.236C317.356 269.779 317.403 267.323 317.417 264.866C317.464 255.53 317.46 245.205 317.403 233.89C317.391 231.507 317.282 229.123 317.079 226.744C316.819 223.737 313.297 223.913 311.029 224.205C309.552 224.395 308.761 225.217 308.648 226.666C308.164 232.815 308.192 238.984 308.219 245.149V245.15C308.24 249.787 308.261 254.421 308.064 259.045C307.991 260.727 307.826 262.517 307.575 264.414C305.956 276.632 293.418 279.997 282.901 279.386C275.384 278.951 267.307 276.391 264.784 268.802C264.551 268.101 264.347 267.038 264.17 265.618C263.858 263.11 263.802 260.348 263.797 257.862C263.785 250.126 263.763 242.392 263.728 234.651C263.719 232.47 263.646 230.014 263.508 227.273C263.439 225.969 263.174 224.821 261.785 224.4C260.323 223.959 258.608 223.924 257.041 223.892L257.04 223.892C256.831 223.888 256.625 223.883 256.423 223.878C256.211 223.875 256.103 223.763 256.103 223.551V221.741C256.103 221.521 256.214 221.414 256.435 221.426C263.854 221.749 271.263 221.753 278.66 221.435C278.872 221.426 278.98 221.529 278.976 221.741L278.945 223.586C278.941 223.754 278.803 223.887 278.634 223.887C277.335 223.878 275.911 223.965 274.358 224.146C272.865 224.322 272.004 224.89 271.778 225.84C271.345 227.692 271.339 229.772 271.333 231.769C271.332 232.226 271.331 232.679 271.324 233.124C271.216 240.679 271.177 248.174 271.202 255.603C271.216 258.74 271.384 261.614 271.713 264.22C272.627 271.448 279.084 273.849 285.753 274.21C292.826 274.593 301.585 272.881 303.48 265.128C304.411 261.307 304.472 257.362 304.511 253.461C304.597 244.878 304.523 236.837 304.294 229.343C304.263 228.426 304.208 227.493 304.117 226.542C303.917 224.382 301.961 224.129 300.213 224.012C299.14 223.939 298.088 223.895 297.054 223.883C296.851 223.883 296.751 223.78 296.751 223.578V221.658C296.76 221.47 296.854 221.379 297.045 221.392C300.988 221.641 304.849 221.714 308.622 221.611C311.496 221.532 314.374 221.55 317.237 221.568C319.043 221.579 320.844 221.59 322.632 221.577C330.098 221.526 337.459 221.418 344.721 221.25C347.885 221.182 351.041 221.37 354.217 221.68C354.351 221.693 354.447 221.814 354.434 221.948C354.434 221.965 354.43 221.982 354.42 221.999C353.922 223.388 353.607 224.73 353.473 226.03C353.196 228.672 352.95 231.261 352.737 233.804C352.72 234.002 352.611 234.1 352.408 234.097L350.223 234.058C350.08 234.058 350.007 233.985 350.007 233.843C349.985 231.382 349.807 229.093 349.482 226.972C349.418 226.564 349.183 226.296 348.773 226.171C346.959 225.63 345.059 225.264 343.072 225.079C336.944 224.515 331.517 224.661 325.631 224.967C325.47 224.976 325.389 225.058 325.389 225.217L325.263 246.913C325.263 247.103 325.359 247.201 325.549 247.213C329.5 247.403 333.313 247.472 336.988 247.425C339.385 247.394 341.562 247.218 343.518 246.904C344.233 246.788 344.652 246.345 344.77 245.579C345.025 243.961 345.232 242.309 345.396 240.619C345.418 240.382 345.553 240.27 345.791 240.275L347.531 240.304C347.786 240.304 347.911 240.438 347.899 240.692C347.673 246.616 347.669 252.492 347.885 258.313C347.89 258.472 347.811 258.555 347.647 258.555H345.258C345.12 258.555 345.05 258.486 345.047 258.348C345.008 256.76 344.9 255.13 344.731 253.465C344.601 252.178 343.93 251.434 342.718 251.232C341.346 251 339.896 250.862 338.372 250.814C334.092 250.677 329.804 250.733 325.497 250.978C325.389 250.982 325.303 251.073 325.303 251.18C325.271 257.982 325.281 264.693 325.32 271.314C325.323 272.171 325.367 273.022 325.45 273.875C325.462 274.021 325.544 274.098 325.696 274.107C331.508 274.43 337.187 274.52 342.731 274.378C345.293 274.313 347.673 273.956 349.868 273.298C350.365 273.148 350.682 272.821 350.82 272.317C351.495 269.865 352.135 267.245 352.737 264.461C352.771 264.307 352.871 264.229 353.031 264.229L357.269 264.242C357.402 264.242 357.51 264.349 357.515 264.478C357.576 265.911 357.675 267.43 357.819 269.03C358 271.053 359.173 272.222 360.951 273.169C364.279 274.937 367.746 275.879 371.347 275.991C380.83 276.288 388.577 269.762 386.517 259.742C385.746 255.999 382.448 253.891 378.813 253.473C374.675 252.995 370.481 252.411 366.227 251.719C363.92 251.344 361.714 250.565 359.606 249.382C355.07 246.84 352.876 240.963 353.62 235.976C354.508 230.001 357.706 225.659 363.206 222.945C371.001 219.103 380.285 219.723 388.382 222.553C388.482 222.588 388.59 222.532 388.625 222.433C388.633 222.407 388.637 222.382 388.633 222.36L388.529 221.194C388.507 220.953 388.62 220.838 388.863 220.846C395.389 221.112 401.475 221.292 407.122 221.387C413.133 221.491 422.007 221.319 433.748 220.872C433.93 220.867 434.011 220.953 433.999 221.134C433.64 225.294 433.444 229.463 433.424 233.644C433.424 233.92 433.285 234.058 433.007 234.061L431.338 234.079C431.09 234.079 430.956 233.959 430.939 233.714C430.762 231.356 430.506 228.886 430.165 226.301C430.086 225.694 429.745 225.367 429.143 225.315C424.607 224.941 420.007 224.786 415.337 224.851C415.194 224.851 415.111 224.924 415.081 225.061C414.981 225.535 414.934 226.008 414.93 226.486C414.9 239.233 414.904 252.734 414.943 266.982C414.943 268.948 415.047 270.782 415.25 272.48C415.428 273.965 416.284 274.786 417.821 274.946C419.28 275.101 420.734 275.178 422.175 275.178C422.405 275.178 422.517 275.29 422.517 275.518L422.503 277.367C422.503 277.592 422.392 277.699 422.166 277.696C414.981 277.51 407.746 277.523 400.462 277.725C400.215 277.73 400.094 277.609 400.098 277.364L400.12 275.522C400.12 275.298 400.306 275.118 400.531 275.122C402.767 275.213 406.624 275.281 407.113 273.457C407.434 272.261 407.598 270.902 407.611 269.383C407.733 254.648 407.728 239.882 407.603 225.079C407.603 224.967 407.512 224.876 407.399 224.873C403.205 224.778 399.124 224.847 395.165 225.075C394.579 225.109 393.879 225.2 393.061 225.342C392.914 225.367 392.78 225.44 392.68 225.552C392.416 225.84 392.255 226.185 392.2 226.576C391.857 228.835 391.585 231.192 391.386 233.649C391.359 233.963 391.187 234.117 390.871 234.114L387.798 234.079C387.542 234.079 387.417 233.951 387.413 233.697C387.4 232.114 387.331 230.534 387.214 228.96C387.071 227.02 383.552 225.139 381.661 224.425C375.715 222.188 367.314 222.609 363.216 228.353C361.198 231.18 360.523 234.552 361.189 238.481C361.942 242.929 366.73 244.434 370.707 244.985C374.883 245.566 379.016 246.173 383.098 246.796C389.56 247.786 394.38 251.615 394.787 258.433C395.086 263.386 393.445 267.744 389.862 271.509C384.57 277.062 377.419 279.39 369.759 279.459C364.479 279.506 359.493 278.586 354.806 276.688C354.599 276.606 354.499 276.676 354.511 276.895Z" fill="white"/>
<path d="M129.751 263.256C129.755 252.845 129.716 241.754 129.638 229.986C129.638 229.75 129.721 229.716 129.881 229.893C130.638 230.715 131.404 231.587 132.17 232.504C140.081 241.947 147.989 251.365 155.888 260.752C157.663 262.86 159.376 264.966 161.086 267.066C163.853 270.466 166.612 273.855 169.608 277.229C170.044 277.724 170.572 278.069 171.183 278.258C172.68 278.722 174.16 279.169 175.619 279.596C175.645 279.605 175.67 279.605 175.697 279.605C175.844 279.605 175.965 279.484 175.965 279.337C175.943 275.807 175.912 272.224 175.881 268.621C175.762 254.945 175.642 240.984 176.026 228.512C176.056 227.483 176.195 226.515 176.433 225.599C176.926 223.728 181.41 223.925 183.033 224.114C184.893 224.334 185.755 225.204 185.859 227.113C185.958 228.912 186.019 230.603 186.049 232.181C186.27 244.365 186.243 257.349 185.98 271.133C185.941 272.966 185.863 275.109 183.565 275.422C181.96 275.642 180.453 275.741 179.037 275.719C178.817 275.715 178.705 275.822 178.696 276.042L178.627 277.896C178.618 278.133 178.73 278.245 178.964 278.237C186.171 277.922 193.377 277.905 200.578 278.193C200.73 278.198 200.799 278.129 200.799 277.978V276.029C200.799 275.819 200.695 275.715 200.483 275.715C198.735 275.719 197.159 275.607 195.761 275.38C193.615 275.027 193.576 272.639 193.548 270.918C193.547 270.855 193.546 270.794 193.545 270.733C193.307 255.973 193.311 242.33 193.554 229.806C193.571 228.808 193.627 227.754 193.727 226.644C193.853 225.165 194.71 224.334 196.288 224.158C197.826 223.981 199.25 223.891 200.556 223.882C200.717 223.882 200.794 223.804 200.794 223.65L200.816 221.723C200.821 221.52 200.717 221.421 200.514 221.435C195.034 221.71 188.17 221.843 179.916 221.838C172.749 221.835 167.819 221.752 165.128 221.593H165.114C164.981 221.589 164.872 221.696 164.872 221.826L164.864 223.675C164.859 223.835 164.942 223.912 165.106 223.912C166.773 223.874 168.928 223.951 170.542 224.579C171.239 224.85 171.62 225.474 171.684 226.459C171.914 230.005 172.035 233.64 172.035 237.366C172.04 247.626 172.048 257.542 172.062 267.119C172.062 267.528 171.922 267.58 171.65 267.274C168.893 264.233 166.336 261.32 163.973 258.537C157.086 250.413 149.412 241.177 140.96 230.822C139.204 228.667 137.525 226.483 135.85 224.302C135.193 223.446 134.536 222.592 133.875 221.74C133.793 221.637 133.668 221.576 133.538 221.576C126.773 221.645 119.996 221.667 113.197 221.645C112.237 221.642 111.254 221.611 110.264 221.581C108.875 221.538 107.471 221.495 106.094 221.525C105.952 221.529 105.874 221.601 105.874 221.744L105.839 223.624C105.835 223.767 105.952 223.882 106.094 223.882C107.358 223.882 108.782 223.972 110.366 224.153C111.842 224.316 112.945 224.928 113.067 226.365C113.287 229.037 113.413 231.91 113.439 234.982C113.504 242.326 113.495 249.433 113.422 256.304C113.391 259.105 113.119 261.853 112.604 264.555C111.686 269.369 108.388 272.114 103.679 273.375C99.4596 274.506 95.0754 274.571 90.531 273.568C85.7702 272.519 82.1824 269.615 81.399 264.675C81.0485 262.503 80.8667 259.539 80.8537 255.792C80.806 245.914 80.8667 236.965 81.0355 228.95C81.0365 228.903 81.0375 228.855 81.0385 228.805C81.0634 227.566 81.1106 225.217 82.3252 224.614C83.338 224.114 85.2293 223.887 87.9992 223.925C88.2502 223.93 88.38 223.804 88.3844 223.555L88.4276 221.74C88.432 221.529 88.328 221.425 88.116 221.438C80.858 221.757 73.6087 221.752 66.3766 221.43C66.1559 221.417 66.0434 221.52 66.0391 221.74L66.0001 223.551C65.9958 223.784 66.1083 223.895 66.342 223.895C67.6663 223.877 69.1292 223.972 70.7306 224.179C72.3276 224.382 73.1758 225.289 73.2754 226.902C73.3403 227.973 73.3837 228.98 73.4009 229.918C73.5871 239.62 73.6563 249.549 73.6087 259.706C73.5957 262.529 73.8078 265.136 74.2493 267.532C75.2013 272.665 79.2264 276.305 84.2641 277.883C90.8686 279.952 97.512 280.026 104.194 278.107C110.756 276.222 115.477 271.43 116.451 264.714C116.823 262.146 117.014 259.935 117.018 258.081C117.044 249.846 117.087 241.754 117.152 233.799C117.174 231.23 117.299 228.842 117.529 226.627C117.663 225.297 118.347 224.511 119.58 224.265C121.337 223.908 123.147 223.887 124.644 225.031C125.644 225.797 126.15 226.804 126.15 228.051C126.185 241.496 126.176 252.853 126.124 262.125C126.107 265.089 126.025 268.083 125.882 271.108C125.877 271.198 125.874 271.295 125.87 271.399C125.82 272.651 125.736 274.764 124.445 275.168C122.869 275.666 120.956 275.705 119.307 275.739L119.212 275.741C119.07 275.746 118.992 275.819 118.987 275.965L118.944 277.893C118.94 278.09 119.035 278.185 119.234 278.176C125.332 277.905 131.162 277.896 136.723 278.15C136.901 278.159 136.987 278.077 136.987 277.9V275.965C136.987 275.802 136.905 275.719 136.741 275.719C134.949 275.737 133.313 275.595 131.837 275.298C130.846 275.095 130.296 274.497 130.179 273.499C129.894 271.008 129.751 267.593 129.751 263.256Z" fill="white"/>
</svg>
