<svg width="500" height="500" viewBox="0 0 500 500" fill="none" xmlns="http://www.w3.org/2000/svg">
<rect width="500" height="500" fill="#F9FBFB"/>
<path d="M358.136 149.727C378.136 149.727 391.318 127.545 395.409 116.455C395.409 132.818 385.955 190.636 317.682 190.636C249.5 190.636 238.864 154.545 190.136 154.545C141.5 154.545 113.045 206.909 113.045 247.364C113.045 287.909 148.5 331 250.227 331C351.773 331 385.955 303.455 385.955 270.727C385.955 244.545 367.318 238.273 358.045 238.364C312.773 238.364 310.227 307.455 222.864 307.455C155.591 307.455 142.136 255.273 143.773 226.182C143.842 225.265 144.255 224.409 144.93 223.785C145.604 223.161 146.49 222.816 147.409 222.818C149.591 222.818 151.227 224.545 151.409 226.545C153.864 249.455 178.591 264.273 215.682 232.273C239.597 212.081 269.838 200.918 301.136 200.727C376.955 200.727 395.591 247.364 395.409 270.727C395.409 343.455 345.045 400 256.5 400C167.864 400 104.5 340 104.5 247.364C104.5 154.909 161.409 100 236.5 100C311.591 100 332.864 149.727 358.045 149.727H358.136Z" fill="url(#paint0_linear_40_807)"/>
<path d="M104.5 248.182V247.364C104.5 154.909 161.409 100 236.5 100C284.045 100 310.045 120 329.136 134.545C340.045 143 348.864 149.727 358.045 149.727C378.227 149.727 391.318 127.545 395.409 116.455C395.409 132.818 385.955 190.636 317.682 190.636C280.682 190.636 260.682 180.091 242.227 170.364C226.773 162.182 212.409 154.545 190.136 154.545C141.5 154.545 113.045 206.909 113.045 247.364V247.727L104.5 248.182Z" fill="url(#paint1_linear_40_807)"/>
<path d="M391.773 250.999C394.409 258.271 395.409 265.18 395.409 270.726C395.409 343.453 345.045 399.999 256.5 399.999C167.864 399.999 104.5 339.999 104.5 247.362V246.453L113.045 245.453V247.362C113.045 287.908 148.5 330.999 250.227 330.999C351.773 330.999 385.955 303.453 385.955 270.726C385.955 265.999 385.318 261.908 384.227 258.362L391.773 251.089V250.999Z" fill="url(#paint2_linear_40_807)"/>
<defs>
<linearGradient id="paint0_linear_40_807" x1="143.591" y1="241.273" x2="407.955" y2="241.273" gradientUnits="userSpaceOnUse">
<stop stop-color="#1157A5"/>
<stop offset="0.8" stop-color="#76C5DC"/>
<stop offset="1" stop-color="#68C2B6"/>
</linearGradient>
<linearGradient id="paint1_linear_40_807" x1="109.864" y1="248.182" x2="401.591" y2="135.636" gradientUnits="userSpaceOnUse">
<stop stop-color="#C9CB40"/>
<stop offset="0.36" stop-color="#FF9A00"/>
<stop offset="1" stop-color="#FF581B"/>
</linearGradient>
<linearGradient id="paint2_linear_40_807" x1="99.2273" y1="275.544" x2="402.591" y2="275.544" gradientUnits="userSpaceOnUse">
<stop stop-color="#C4CA3E"/>
<stop offset="0.21" stop-color="#60B72D"/>
<stop offset="0.72" stop-color="#159C6C"/>
<stop offset="1" stop-color="#75C8C2"/>
</linearGradient>
</defs>
</svg>
