<svg width="500" height="500" viewBox="0 0 500 500" fill="none" xmlns="http://www.w3.org/2000/svg">
<rect width="500" height="500" fill="white"/>
<path d="M322.054 128.318C319.452 124.792 316.141 121.849 312.333 119.679C265.53 103.48 224.578 109.06 189.656 136.327C176.092 146.77 165.279 160.361 158.154 175.924C151.254 190.518 148.099 206.601 148.973 222.72C149.873 239.099 154.913 253.678 164.004 266.636C174.175 280.863 188.33 291.76 204.687 297.954C233.374 309.057 264.937 310.324 294.422 301.553C303.602 298.996 313.407 299.983 321.893 304.317C330.38 308.651 336.926 316.016 340.235 324.951C348.965 349.969 339.605 368.328 311.973 379.937C293.571 388.041 273.66 392.151 253.553 391.996C233.446 391.841 213.6 387.424 195.326 379.037C176.737 371.45 160.019 359.915 146.328 345.232C132.636 330.548 122.299 313.066 116.031 293.994C106.339 266.673 105.395 237.013 113.331 209.131C121.058 180.973 137.428 155.95 160.134 137.587C195.776 108.34 239.159 98.1707 290.282 107.17C309.723 110.59 327.544 117.699 343.655 128.588C362.196 141.187 373.267 155.586 376.957 172.144C379.401 184.044 377.518 196.426 371.647 207.061C366.227 217.954 357.873 227.118 347.525 233.519C316.891 253.063 280.253 260.951 244.289 255.747C234.882 254.382 226.317 249.571 220.257 242.248C216.883 238.76 214.35 234.546 212.853 229.93C211.355 225.313 210.933 220.416 211.617 215.611C214.137 199.232 227.008 188.793 250.319 184.473C277.681 179.254 299.192 169.625 314.853 155.316C318.994 151.626 321.874 147.397 323.674 142.807C325.924 137.047 325.474 132.188 322.054 128.408V128.318Z" fill="#F02D31"/>
</svg>
