<svg width="500" height="500" viewBox="0 0 500 500" fill="none" xmlns="http://www.w3.org/2000/svg">
<rect width="500" height="500" fill="white"/>
<path d="M406.296 233.385C412.913 244.29 419.586 254.773 425.749 265.547C433.406 278.933 430.466 293.687 418.96 302.176C414.686 305.33 409.88 306.98 404.642 307.012C389.274 307.109 373.903 307.182 358.538 306.968C351.384 306.869 346.083 303.349 343.486 296.487C341.097 290.175 342.654 284.576 347.201 279.77C350.25 276.547 354.121 275.209 358.523 275.217C367.683 275.234 376.842 275.216 386.002 275.204C388.813 275.2 391.158 274.16 389.326 271.088C382.675 259.935 375.7 248.976 368.908 238.043C366.43 238.803 366.012 240.628 365.189 242.036C355.391 258.779 345.534 275.489 335.909 292.332C330.187 302.347 322.498 307.761 310.297 307.269C293.402 306.589 276.459 307.034 259.538 307.131C249.131 307.192 241.285 302.944 236.106 293.893C234.306 290.747 233.313 287.395 233.318 283.702C233.359 258.086 233.299 232.47 233.354 206.854C233.374 197.685 239.644 190.924 248.317 190.422C258.555 189.829 266.039 195.45 266.635 205.296C267.291 216.124 267.034 227.011 267.031 237.872C267.029 247.337 266.772 256.802 266.735 266.267C266.712 271.869 268.078 273.261 273.493 273.296C281.876 273.349 290.261 273.193 298.642 273.326C304.699 273.422 308.908 270.831 311.989 265.681C324.813 244.235 337.727 222.842 350.663 201.463C356.526 191.774 366.573 188.057 376.099 191.854C380.96 193.792 384.191 197.432 386.844 201.767C393.246 212.225 399.696 222.653 406.296 233.385Z" fill="#0B1D41"/>
<path d="M155.086 233.359C166.206 235.04 172.477 241.888 171.898 251.262C171.286 261.18 163.997 267.366 152.83 267.386C140.268 267.408 127.705 267.367 115.143 267.4C109.597 267.414 108.234 268.765 108.179 274.22C108.126 279.493 108.205 284.767 108.144 290.039C108.035 299.483 101.215 306.926 92.2641 307.448C83.085 307.982 74.7883 301.195 74.4142 291.575C73.8724 277.64 73.8574 263.652 74.3972 249.717C74.7869 239.658 82.1509 233.395 92.3108 233.358C113.093 233.282 133.875 233.343 155.086 233.359Z" fill="#0B1D41"/>
<path d="M188.017 207.02C189.159 191.559 204.921 186.415 214.717 193.359C219.194 196.533 221.796 200.829 221.81 206.31C221.887 235.038 221.914 263.767 221.807 292.495C221.777 300.526 215.245 307.475 207.456 308.383C198.62 309.412 190.737 304.192 188.749 295.879C188.283 293.932 187.977 291.893 187.974 289.896C187.937 262.41 187.965 234.924 188.017 207.02Z" fill="#0B1D41"/>
<path d="M74.5123 210.69C73.7315 199.361 81.0196 191.408 91.9485 191.386C115.378 191.337 138.809 191.342 162.239 191.391C172.206 191.412 179.703 198.544 179.886 207.987C180.067 217.365 172.739 225.207 162.861 225.295C138.968 225.509 115.07 225.477 91.1762 225.286C82.5244 225.217 76.7198 219.879 74.5123 210.69Z" fill="#CF152C"/>
</svg>
