<svg width="500" height="500" viewBox="0 0 500 500" fill="none" xmlns="http://www.w3.org/2000/svg">
<rect width="500" height="500" fill="#F9FBFB"/>
<path d="M205.35 253.609C200.98 214.184 243.35 182.359 299.4 183.119C355.355 183.784 405.61 216.274 409.885 255.699C414.16 295.219 372.55 326.949 315.835 326.284C259.12 325.524 209.625 293.794 205.255 253.609H205.35ZM420.62 266.339C415.585 216.939 358.87 176.754 293.605 176.754C228.245 176.754 180.175 215.514 185.21 264.914C190.245 314.314 246.96 354.499 312.225 354.499C377.585 354.499 425.655 315.644 420.62 266.339Z" fill="#FAB585"/>
<path d="M322.295 355.165C289.995 388.32 238.98 391.075 207.44 361.53C175.805 331.89 176.565 281.16 208.865 248.67C241.165 216.275 292.18 212.76 323.815 242.305C355.355 271.945 354.595 322.105 322.295 355.165ZM203.165 247.15C165.83 285.245 165.165 344.525 201.74 378.25C238.315 412.165 297.88 409.315 335.215 371.315C372.55 333.22 373.975 273.94 337.4 240.215C300.73 206.3 240.5 209.15 203.165 247.15Z" fill="#F99A6C"/>
<path d="M197.18 123.839C263.965 99.1393 329.99 123.839 344.43 179.604C358.68 235.274 317.07 299.494 250.38 324.099C183.595 348.799 117.57 324.099 103.13 268.429C88.8801 212.759 130.49 148.539 197.18 123.839ZM135.43 145.024C66.6501 198.699 48.6001 276.884 96.1001 319.159C143.505 361.529 238.22 352.409 307.19 298.734C376.065 245.154 394.02 166.874 346.615 124.599C299.21 82.3243 204.495 91.4443 135.62 145.024H135.43Z" fill="#EC7529"/>
</svg>
