<svg width="500" height="500" viewBox="0 0 500 500" fill="none" xmlns="http://www.w3.org/2000/svg">
<rect width="500" height="500" fill="white"/>
<path d="M235.45 114.025C235.45 114.025 179.172 205.069 150.548 249.996C147.773 245.18 144.672 240.455 141.558 235.709C133.342 223.187 125.035 210.526 122.387 195.703C115.857 159.144 139.96 123.123 176.194 115.485C176.194 115.485 182.66 114.208 184.846 114.025C185.538 113.968 187.621 114.025 187.621 114.025H235.45Z" fill="#3377FE"/>
<path d="M267.712 114.026H400.79L324.427 237.423C324.259 237.667 323.619 238.111 323.421 238.111H191.189L267.712 114.026Z" fill="#3377FE"/>
<path d="M176.319 261.898C174.488 264.218 172.925 266.746 171.368 269.264C170.916 269.993 170.465 270.722 170.008 271.445C147.832 306.538 125.853 341.883 104.189 377.294C103.832 377.878 103.467 378.461 103.101 379.046C101.694 381.297 100.272 383.572 99.1992 385.983H231.827L309.136 261.898H176.319Z" fill="#3377FE"/>
<path d="M264.54 385.979L349.192 250.012V250.014L369.819 282.901C394.255 328.05 364.154 382.165 313.524 386L264.54 385.979Z" fill="#3377FE"/>
</svg>
