<svg width="500" height="500" viewBox="0 0 500 500" fill="none" xmlns="http://www.w3.org/2000/svg">
<rect width="500" height="500" fill="white"/>
<path d="M260.435 208.258H275.043V216.606H258.348V210.094C258.515 208.675 258.849 208.258 260.435 208.258ZM251.837 201.83C250.167 203.333 250.083 205.67 250 207.006V233.301H258.348V224.954H275.043V233.301H283.391V199.91H258.181C255.76 199.91 253.506 200.244 251.837 201.83ZM66.3478 212.432H83.0435V199.91H91.3913V233.301H83.0435V220.78H66.3478V233.301H58V199.91H66.3478V212.432ZM124.783 199.91L112.261 220.947V233.301H103.913V220.947L91.3913 199.91H99.6557L108.087 213.601L116.518 199.91H124.783ZM124.783 199.91H133.13V224.954H147.99C149.576 224.954 149.659 224.787 149.826 223.201V199.91H158.174V226.206C158.174 227.625 158.09 229.879 156.337 231.381C154.668 232.968 152.414 233.301 150.077 233.301H124.783V199.91ZM111.259 249.997C104.915 249.997 99.7391 255.423 99.7391 262.101V287.98C99.7391 294.658 104.163 299.249 111.51 300.084H146.403C153.833 299.249 158.174 294.658 158.174 287.98V268.446H119.774V280.968H145.986V284.056C145.986 286.895 143.649 289.148 140.81 289.232H116.769C116.089 289.232 115.416 289.098 114.788 288.838C114.16 288.578 113.59 288.197 113.109 287.716C112.628 287.235 112.247 286.665 111.987 286.037C111.727 285.409 111.593 284.736 111.593 284.056V266.192C111.593 263.27 114.097 260.849 116.852 260.849H158.174V249.997H111.259ZM271.37 283.722C271.37 286.561 269.117 288.814 266.195 288.814H242.153C240.795 288.815 239.491 288.281 238.523 287.328C237.554 286.376 236.999 285.08 236.977 283.722V267.027C236.894 263.688 239.315 261.183 242.403 261.183H266.195C269.117 261.183 271.37 263.521 271.37 266.359V283.722ZM271.704 249.997H236.81C229.464 250.832 225.04 255.423 225.04 262.101V287.98C225.791 295.576 229.631 299.333 237.061 300.084H271.704C279.635 299.667 283.475 294.658 283.475 287.98V262.101C283.475 255.423 278.8 250.832 271.788 249.997H271.704ZM375.217 300.084H362.696V249.997H375.217V300.084ZM341.158 249.997L320.957 286.728L300.755 249.997H286.814L314.362 300.084H327.551L355.099 249.997H341.158ZM178.376 249.997V289.232H216.609V300.084H166.522V249.997H178.376ZM421.548 268.362H430.23C437.158 268.78 442 271.535 442 280.467V287.98C442 297.162 437.158 299.667 430.23 300.084H383.565V289.065H426.64C426.64 289.065 429.061 289.399 428.977 286.227V283.555C428.977 280.634 426.807 280.801 426.807 280.801H393.917C391.412 280.55 383.398 279.465 383.565 269.03V262.185C383.565 252.835 388.741 249.997 395.753 249.997H442V260.849H399.843C399.843 260.849 396.755 260.599 396.755 263.354C396.767 264.3 396.767 265.246 396.755 266.192C396.755 268.696 400.177 268.279 400.177 268.279H421.548V268.362ZM166.522 199.91H191.816C194.153 199.91 196.407 200.244 198.077 201.83C199.746 203.333 199.83 205.67 199.913 207.006V233.301H191.565V210.011C191.565 208.425 191.231 208.341 189.729 208.258H174.87V233.301H166.522V199.91ZM233.304 223.618V209.844C233.137 208.341 233.054 208.258 231.551 208.258H216.609V224.954H231.551C233.221 224.954 233.221 224.703 233.221 223.618H233.304ZM239.816 201.83C241.485 203.416 241.652 205.67 241.652 207.006V226.206C241.652 227.541 241.569 229.795 239.816 231.381C238.146 232.968 235.892 233.301 233.471 233.301H208.261V199.91H233.471C235.976 199.91 238.146 200.244 239.816 201.83ZM300.087 233.301H291.739V199.91H300.087V233.301Z" fill="#234781"/>
</svg>
