<svg width="500" height="500" viewBox="0 0 500 500" fill="none" xmlns="http://www.w3.org/2000/svg">
<rect width="500" height="500" fill="white"/>
<path d="M259.879 86.1861C259.887 86.2909 259.887 86.3962 259.879 86.5011V86.9211C246.228 103.407 223.652 114.642 203.176 103.407C202.966 103.317 202.785 103.172 202.651 102.987C202.513 102.757 202.407 102.51 202.336 102.252V101.727L202.441 101.097C213.781 80.8308 238.983 78.6257 259.354 85.556C259.564 85.556 259.669 85.661 259.774 85.8711V86.1861H259.879Z" fill="#6C8939"/>
<path d="M320.571 110.547C324.246 110.127 324.351 109.287 320.886 107.922C309.578 103.381 298.375 98.5849 287.284 93.5364C275.104 87.8661 275.629 85.976 288.754 87.7611C310.911 90.5962 333.592 101.622 356.693 120.733C356.812 120.832 356.897 120.968 356.935 121.119C356.972 121.269 356.961 121.429 356.903 121.573C356.903 121.783 356.693 121.888 356.588 121.993C356.417 122.049 356.233 122.049 356.063 121.993C345.037 119.578 337.687 117.478 329.181 124.093C319.726 131.761 307.729 135.585 295.58 134.803C294.11 134.698 293.69 133.963 294.11 132.703C299.36 119.158 308.18 111.807 320.571 110.547ZM156.343 122.938C155.188 114.537 159.493 94.9014 172.619 101.307C179.864 104.772 182.489 111.282 180.809 120.733C179.234 129.238 179.234 136.903 180.914 143.624C181.229 144.779 180.704 145.409 179.549 145.409C161.488 145.829 151.303 146.144 148.888 146.459C140.172 147.299 124.106 144.359 124.211 133.858C124.316 121.468 146.578 121.363 154.663 124.408C155.923 124.828 156.553 124.408 156.343 122.938Z" fill="#799C3D"/>
<path d="M255.992 159.9C255.047 159.9 254.627 160.425 254.627 161.37V174.39C254.627 174.915 254.837 175.44 255.152 175.86C255.572 176.28 255.992 176.49 256.517 176.49H306.605C309.125 176.49 310.385 177.75 310.49 180.376V181.951C310.49 185.311 309.02 186.991 305.87 186.991H187.424C184.799 186.991 183.434 185.626 183.434 182.791V181.111C183.434 179.956 183.959 178.695 184.799 177.855C185.202 177.424 185.69 177.08 186.232 176.845C186.774 176.61 187.358 176.49 187.949 176.49H237.511C238.981 176.49 239.611 175.65 239.611 174.075V162.105C239.611 160.635 238.981 159.9 237.511 159.9H211.26C210.267 159.873 209.29 159.645 208.388 159.23C207.485 158.815 206.676 158.221 206.01 157.484C204.554 155.952 203.729 153.928 203.7 151.814V129.973C203.7 128.923 203.49 127.873 202.965 127.138L198.344 120.208C197.925 119.556 197.685 118.805 197.648 118.031C197.611 117.256 197.779 116.486 198.134 115.797C198.464 115.115 198.972 114.535 199.604 114.117C200.229 113.71 200.958 113.491 201.704 113.487H285.394C286.083 113.506 286.76 113.676 287.376 113.984C287.993 114.293 288.535 114.732 288.964 115.272C289.407 115.847 289.72 116.51 289.883 117.217C290.047 117.924 290.055 118.657 289.909 119.368C289.384 121.993 288.439 123.988 285.289 123.988H221.13C219.765 123.988 218.505 125.458 218.505 126.928V147.404C218.505 149.084 219.87 149.924 221.445 149.924H282.453C284.554 149.924 286.024 150.974 286.654 153.179L286.969 155.069C286.654 158.219 285.184 159.9 282.558 159.9H255.992ZM386.514 153.284C388.322 158.162 388.895 163.412 388.181 168.565C387.466 173.718 385.486 178.613 382.419 182.815C379.351 187.016 375.29 190.392 370.599 192.642C365.909 194.891 360.734 195.944 355.537 195.706C349.447 195.601 349.237 194.446 354.907 192.346C366.983 187.726 371.708 171.45 367.403 160.32C363.202 148.979 349.027 139.634 336.846 143.939C331.071 145.829 330.546 144.884 334.956 140.789C338.839 137.267 343.524 134.749 348.603 133.454C353.682 132.159 359.001 132.127 364.095 133.359C369.19 134.591 373.906 137.051 377.832 140.524C381.758 143.997 384.774 148.378 386.618 153.284H386.514Z" fill="#47632D"/>
<path d="M315.633 162.315C318.888 162.315 321.514 159.69 321.514 156.435C321.514 154.847 320.883 153.325 319.761 152.202C318.638 151.08 317.116 150.449 315.528 150.449C313.941 150.449 312.418 151.08 311.296 152.202C310.174 153.325 309.543 154.847 309.543 156.435C309.648 159.69 312.273 162.315 315.633 162.315Z" fill="#6C8939"/>
<path d="M151.198 154.963C159.598 157.378 166.318 162.838 171.569 171.239V172.079C171.49 172.295 171.342 172.48 171.149 172.604C162.118 177.014 153.508 178.064 145.107 175.754C136.455 173.133 129.154 167.262 124.736 159.373C124.664 159.267 124.616 159.145 124.598 159.018C124.58 158.891 124.591 158.761 124.631 158.638C124.672 158.503 124.74 158.378 124.83 158.27C124.92 158.162 125.031 158.073 125.156 158.008C133.133 153.717 142.446 152.628 151.198 154.963ZM344.302 177.749C349.762 177.749 354.173 173.444 354.173 168.089C354.173 162.733 349.762 158.428 344.302 158.428C341.73 158.428 339.262 159.443 337.434 161.251C335.605 163.06 334.564 165.517 334.537 168.089C334.537 173.339 338.842 177.749 344.302 177.749Z" fill="#47632D"/>
<path d="M128.2 178.906C125.05 176.281 123.475 175.021 121.375 169.245C120.994 168.101 120.259 167.108 119.275 166.41C103.524 154.86 94.0736 174.18 92.4985 186.361C91.0155 194.54 92.1445 202.978 95.7254 210.479C99.3063 217.98 105.158 224.164 112.449 228.153C112.674 228.136 112.89 228.058 113.075 227.929C113.26 227.8 113.406 227.623 113.5 227.418C113.605 227.208 113.605 226.893 113.5 226.683C108.249 207.467 114.13 193.081 130.93 183.631C131.98 183.001 131.98 182.266 131.14 181.531C129.985 180.481 129.04 179.536 128.095 178.906H128.2ZM114.13 179.221C114.13 180.056 113.798 180.857 113.207 181.448C112.616 182.039 111.815 182.371 110.979 182.371C110.557 182.385 110.136 182.314 109.742 182.162C109.347 182.01 108.987 181.78 108.684 181.486C108.38 181.192 108.139 180.84 107.974 180.451C107.809 180.062 107.724 179.643 107.724 179.221C107.724 177.436 109.089 176.071 110.874 176.071C112.66 176.071 114.025 177.436 114.025 179.221H114.13Z" fill="#6C8939"/>
<path d="M394.072 209.357C392.287 202.531 390.712 192.976 398.272 190.036C400.372 189.196 402.472 189.826 404.677 191.926C406.882 194.026 408.352 195.916 409.087 197.806C417.278 218.387 419.798 239.598 416.753 261.439C416.228 265.114 415.598 265.114 414.863 261.439C411.503 244.323 404.572 230.463 385.461 227.208C377.691 225.948 372.126 224.687 372.756 216.077C372.756 214.712 373.281 213.347 374.226 212.297C375.066 211.247 376.326 210.512 377.691 210.197C381.891 208.937 386.931 209.147 392.707 210.617C393.967 210.932 394.387 210.512 394.072 209.357Z" fill="#799C3D"/>
<path d="M158.336 224.477C170.516 228.572 178.602 224.687 185.847 216.391C189.207 212.401 190.047 212.926 188.262 217.861C180.282 239.913 151.195 246.948 132.504 232.562C128.612 229.949 125.69 226.125 124.19 221.683C122.691 217.241 122.697 212.429 124.209 207.991C130.929 184.89 162.536 192.555 160.331 214.921C160.331 215.971 159.911 217.021 159.386 217.966L157.286 221.537C156.446 223.007 156.866 223.952 158.336 224.477Z" fill="#6C8939"/>
<path d="M274.16 241.908C277.423 239.604 280.108 236.575 282.003 233.059C283.898 229.542 284.951 225.634 285.081 221.642C285.081 213.976 281.195 206.731 274.16 201.271C266.517 195.689 257.267 192.741 247.804 192.87C237.828 192.87 228.378 196.02 221.342 201.271C218.065 203.585 215.372 206.631 213.477 210.167C211.581 213.703 210.535 217.631 210.422 221.642C210.422 229.202 214.412 236.552 221.342 241.908C228.378 247.368 237.828 250.308 247.804 250.308C257.674 250.308 267.23 247.368 274.16 241.908ZM271.22 221.642C271.22 231.827 260.719 240.018 247.699 240.018C234.783 240.018 224.283 231.722 224.388 221.537C224.388 211.456 234.888 203.161 247.804 203.266C260.719 203.266 271.22 211.456 271.22 221.642Z" fill="#47632D"/>
<path d="M88.8253 236.028C92.6055 236.028 95.7557 232.983 95.7557 229.308C95.7557 225.528 92.6055 222.482 88.8253 222.482C87.0151 222.482 85.2791 223.202 83.9991 224.482C82.7191 225.762 82 227.498 82 229.308C82 232.983 85.1502 236.028 88.8253 236.028ZM104.051 266.165C101.876 260.142 98.8721 254.452 95.1256 249.259C94.5852 248.419 94.3618 247.413 94.4956 246.424C94.6161 245.524 95.0649 244.702 95.7557 244.113L95.8607 244.008C96.1908 243.726 96.5758 243.515 96.9914 243.388C97.407 243.262 97.8443 243.223 98.2758 243.273C98.7192 243.331 99.1451 243.483 99.5253 243.719C99.9055 243.954 100.231 244.268 100.481 244.639C104.156 249.889 108.041 255.769 112.031 261.964C112.451 262.699 113.082 263.014 113.922 263.014C114.351 263.045 114.775 262.909 115.107 262.635C115.439 262.362 115.654 261.971 115.707 261.544L115.602 260.704C111.821 250.729 107.831 242.013 109.196 237.918C109.381 237.321 109.74 236.793 110.226 236.4C110.712 236.008 111.304 235.768 111.926 235.713C112.537 235.635 113.157 235.732 113.714 235.992C114.272 236.253 114.744 236.665 115.077 237.183C118.752 243.483 121.692 250.099 123.687 257.344C126.732 268.16 119.487 271.73 115.917 279.92C114.342 283.49 115.602 286.536 119.592 289.056H119.802C121.249 289.52 122.815 289.445 124.212 288.846C125.629 288.204 126.779 287.091 127.467 285.696C131.457 277.82 133.768 258.814 149.203 258.709C154.034 258.709 154.874 260.389 151.408 263.854C142.378 273.2 145.108 278.555 145.003 290.106C144.583 313.102 122.637 317.722 105.731 307.327C95.2408 300.652 87.3201 290.622 83.2601 278.87C83.1042 278.442 83.0916 277.975 83.2242 277.54C83.3568 277.104 83.6273 276.724 83.9951 276.455L85.2552 275.615C85.5068 275.445 85.7909 275.329 86.0895 275.274C86.3882 275.219 86.695 275.226 86.9907 275.295C87.2865 275.364 87.5648 275.493 87.8082 275.675C88.0516 275.856 88.2549 276.086 88.4053 276.35C91.3455 281.285 93.2355 284.015 94.0756 284.435C100.481 288.111 101.426 286.641 96.9107 280.235L84.6251 263.014C84.4807 262.797 84.4073 262.54 84.4151 262.279V259.444C84.4151 258.905 84.5747 258.378 84.8736 257.93C85.1726 257.481 85.5977 257.131 86.0952 256.924C86.6066 256.707 87.1721 256.651 87.7162 256.763C88.2604 256.876 88.7572 257.152 89.1404 257.554C94.3906 262.909 98.3808 267.005 100.901 269.84C104.786 274.145 105.836 272.99 104.051 266.165Z" fill="#799C3D"/>
<path d="M193.725 243.589L194.46 244.009C194.693 244.114 194.88 244.301 194.985 244.534C205.485 268.895 189.945 292.941 169.259 306.277H168.419C168.303 306.225 168.196 306.154 168.104 306.067L167.684 305.647C162.118 281.916 167.684 253.879 192.36 243.589C192.675 243.484 192.885 243.379 193.095 243.484H193.725V243.589Z" fill="#47632D"/>
<path d="M299.674 263.644C315.845 272.674 336.321 269.944 348.397 255.559C354.141 248.668 357.207 239.938 357.034 230.969C356.86 222 353.458 213.394 347.452 206.731C346.087 205.156 341.466 201.166 333.486 194.866C332.436 194.026 331.386 194.131 330.546 195.181L328.656 197.176C322.776 203.476 316.265 210.406 319.73 219.752C320.885 222.902 324.246 225.842 327.606 228.677C332.961 233.193 338.316 237.708 333.486 243.378C328.761 248.943 323.301 244.743 317.735 240.228C314.375 237.603 310.91 234.978 307.445 234.348C297.469 232.773 291.694 240.333 286.549 247.158L284.869 249.363C284.134 250.413 284.134 251.463 285.184 252.303C292.954 258.814 297.784 262.594 299.674 263.644ZM307.76 248.943C307.76 251.043 305.975 252.724 303.875 252.724C303.356 252.738 302.839 252.647 302.356 252.458C301.872 252.27 301.431 251.986 301.059 251.623C300.687 251.261 300.392 250.828 300.19 250.35C299.988 249.871 299.884 249.357 299.884 248.838C299.884 246.738 301.67 245.058 303.875 245.058C305.975 245.058 307.76 246.738 307.76 248.838V248.943Z" fill="#6C8939"/>
<path d="M382.314 244.743C386.094 245.058 387.459 249.678 386.514 258.499V259.024L386.724 259.234H386.934L387.459 259.129C394.284 253.248 399.01 251.778 401.32 254.614C403.735 257.449 401.32 261.649 394.284 267.214L393.969 267.634V267.949L394.179 268.159L394.599 268.369C403.63 268.999 408.04 271.204 407.62 274.88C407.305 278.555 402.685 279.815 393.654 278.87L393.129 278.975L393.024 279.185L392.919 279.395C392.919 279.605 392.919 279.71 393.129 279.92C399.01 286.64 400.48 291.26 397.645 293.57C394.809 295.881 390.504 293.57 384.834 286.64C384.729 286.43 384.519 286.43 384.414 286.43H383.889L383.679 286.955C383.049 295.881 380.844 300.186 377.064 299.871C373.388 299.451 372.023 294.83 373.073 286.01C373.073 285.8 373.073 285.59 372.863 285.485L372.758 285.38H372.023C365.093 291.26 360.473 292.73 358.058 289.895C355.748 287.165 358.058 282.86 365.093 277.295C365.173 277.251 365.242 277.191 365.296 277.119C365.351 277.047 365.389 276.963 365.408 276.875V276.665L365.303 276.455L364.778 276.245C355.748 275.51 351.442 273.304 351.757 269.734C352.072 266.059 356.798 264.694 365.828 265.639H366.248L366.458 265.324V265.114L366.353 264.694C360.473 257.869 359.003 253.353 361.838 251.043C364.673 248.628 368.978 250.938 374.648 257.869C374.648 258.079 374.858 258.184 375.068 258.184H375.278L375.488 257.974L375.699 257.554C376.434 248.628 378.639 244.428 382.314 244.743ZM284.134 300.396C286.046 296.846 287.046 292.877 287.046 288.845C287.046 284.813 286.046 280.844 284.134 277.295C282.025 273.442 279.127 270.079 275.629 267.424C271.775 264.492 267.44 262.253 262.818 260.809C257.927 259.264 252.826 258.485 247.697 258.499C237.302 258.499 227.326 261.649 219.871 267.424C216.42 269.858 213.581 273.06 211.577 276.776C209.572 280.493 208.458 284.625 208.32 288.845C208.32 296.931 212.521 304.596 219.871 310.266C227.221 315.937 237.302 319.192 247.697 319.192C252.947 319.192 257.988 318.352 262.818 316.882C267.543 315.306 271.953 313.101 275.629 310.266C279.199 307.431 282.139 304.071 284.029 300.396H284.134ZM272.793 288.845C272.793 299.766 261.663 308.586 247.802 308.691C234.047 308.691 222.811 299.766 222.811 288.845C222.811 277.925 233.942 269.104 247.697 268.999C261.558 268.999 272.793 277.82 272.793 288.845ZM356.168 319.087C360.35 322.442 364.153 326.245 367.508 330.427C372.233 337.778 370.238 340.508 361.628 338.408C342.727 333.892 311.015 316.567 301.565 299.766C301.349 299.368 301.215 298.93 301.172 298.479C301.129 298.029 301.178 297.574 301.315 297.142C301.452 296.711 301.676 296.311 301.971 295.968C302.267 295.625 302.629 295.345 303.035 295.145C303.581 294.848 304.198 294.703 304.82 294.725C310.385 294.935 316.266 296.511 322.461 299.346C322.899 299.542 323.387 299.596 323.857 299.502C324.328 299.408 324.757 299.17 325.086 298.821C339.787 282.965 360.788 295.356 355.327 316.252C355.012 317.302 355.327 318.352 356.168 319.087Z" fill="#47632D"/>
<path d="M386.411 340.508C386.178 340.403 385.991 340.216 385.886 339.983C382.838 332.075 383.027 323.286 386.411 315.517C389.771 308.166 395.862 302.496 404.472 298.716C404.709 298.627 404.97 298.627 405.207 298.716C405.522 298.926 405.627 299.136 405.732 299.346C408.777 308.271 408.672 316.357 405.207 323.812C401.952 331.162 395.862 336.833 387.146 340.508C387.032 340.564 386.906 340.593 386.779 340.593C386.651 340.593 386.526 340.564 386.411 340.508ZM127.679 331.372C131.249 326.122 136.604 322.972 143.639 321.922C144.844 321.717 146.084 321.914 147.165 322.483C148.247 323.053 149.111 323.963 149.625 325.072C149.953 325.833 150.097 326.66 150.045 327.487C150.045 329.062 149.31 330.637 148.155 332.317C138.284 345.548 131.984 357.519 136.709 372.324C137.444 374.425 136.709 374.95 134.819 373.795C117.808 363.819 101.217 344.708 105.732 323.917C105.956 322.905 106.415 321.959 107.072 321.156C107.728 320.354 108.565 319.717 109.513 319.297C116.128 316.357 121.273 320.242 125.053 330.952C125.683 332.842 126.628 333.053 127.679 331.372Z" fill="#6C8939"/>
<path d="M260.508 336.203V377.365C260.508 382.195 257.357 385.24 252.422 386.5H252.002C246.227 385.87 243.392 382.93 243.392 377.47V335.678C243.384 335.124 243.157 334.595 242.762 334.208C242.422 333.882 241.972 333.695 241.502 333.683H191.204C188.369 333.683 187.004 332.212 187.004 329.272V327.802C187.004 324.967 188.369 323.497 191.204 323.497H307.97C311.33 323.497 313.01 325.282 313.01 328.747C313.01 329.272 313.01 329.797 312.695 330.427C312.387 331.352 311.8 332.159 311.015 332.738C310.262 333.322 309.343 333.653 308.39 333.683H262.293C260.718 333.683 260.508 334.523 260.508 336.203Z" fill="#47632D"/>
<path d="M324.878 372.22C321.728 365.815 320.678 360.354 321.413 355.839C321.728 354.684 322.253 353.739 323.093 352.794C330.758 345.444 340.944 361.194 347.454 361.929C359.406 363.403 371.475 360.33 381.266 353.319C385.151 350.589 385.676 351.219 382.946 354.999C368.665 374.95 342.204 402.461 314.062 394.376C298.312 389.861 289.281 374.845 289.281 358.884C289.281 339.983 307.342 338.933 313.642 354.789C316.373 361.929 319.103 370.54 323.723 373.27C325.193 374.11 325.613 373.795 324.773 372.22H324.878Z" fill="#799C3D"/>
<path d="M187.317 373.9C185.688 370.517 184.816 366.821 184.762 363.067C184.707 359.313 185.472 355.592 187.002 352.164C187.128 351.851 187.327 351.574 187.583 351.354C187.839 351.135 188.144 350.981 188.472 350.904C188.79 350.803 189.127 350.778 189.455 350.833C189.784 350.888 190.095 351.02 190.362 351.219C200.863 358.989 203.488 369.28 198.448 382.3C197.923 383.665 198.343 384.611 199.498 385.451L213.568 393.326C213.67 393.38 213.787 393.399 213.901 393.38C214.015 393.361 214.12 393.305 214.198 393.221C214.243 393.182 214.279 393.133 214.303 393.079C214.328 393.024 214.341 392.966 214.341 392.906C214.341 392.846 214.328 392.787 214.303 392.733C214.279 392.679 214.243 392.63 214.198 392.591C211.11 389.637 208.897 385.887 207.803 381.755C206.71 377.623 206.779 373.27 208.003 369.175C208.083 368.876 208.228 368.599 208.428 368.363C208.628 368.127 208.877 367.938 209.158 367.81C209.437 367.679 209.742 367.611 210.051 367.611C210.359 367.611 210.664 367.679 210.943 367.81C240.66 380.41 220.394 425.353 189.207 409.812C188.983 409.716 188.782 409.572 188.619 409.391C188.456 409.21 188.334 408.995 188.262 408.762C188.213 408.525 188.216 408.28 188.271 408.045C188.325 407.809 188.43 407.588 188.577 407.397C193.197 400.991 199.603 397.526 207.898 397.106C209.578 397.106 209.788 396.581 208.318 395.636L197.293 388.391C196.944 388.146 196.537 387.998 196.113 387.961C195.689 387.924 195.263 388 194.878 388.181C182.907 394.166 173.351 398.786 161.696 388.706C160.646 387.866 160.646 387.026 161.696 386.186C167.156 380.725 174.717 378.52 184.272 379.675C186.582 379.99 186.687 379.465 184.902 378.31C179.862 374.95 179.022 373.06 171.566 370.855C166.308 369.623 161.621 366.65 158.266 362.418C154.911 358.186 153.085 352.944 153.085 347.544C152.98 346.179 153.61 345.444 154.976 345.654C166.526 347.019 173.876 351.954 177.027 360.774C179.442 367.495 182.487 372.22 186.162 374.845C187.737 376 188.157 375.685 187.317 373.9Z" fill="#6C8939"/>
<path d="M262.084 403.825C258.303 385.974 281.3 378.624 287.495 393.85C298.73 421.361 246.963 429.972 240.348 395.005C240.243 394.165 240.558 393.745 241.398 393.85C242.133 393.85 242.553 394.06 242.763 394.48C246.018 402.46 251.898 406.24 260.404 405.82C260.645 405.806 260.882 405.743 261.098 405.635C261.315 405.527 261.507 405.375 261.664 405.19C261.83 405.008 261.953 404.791 262.026 404.555C262.099 404.319 262.118 404.07 262.084 403.825Z" fill="#47632D"/>
</svg>
