<svg width="500" height="500" viewBox="0 0 500 500" fill="none" xmlns="http://www.w3.org/2000/svg">
<rect width="500" height="500" fill="#F9FBFB"/>
<path d="M315.87 382.639C307.231 391.311 296.966 398.192 285.662 402.888C274.358 407.583 262.238 410 249.997 410C237.757 410 225.637 407.583 214.333 402.888C203.029 398.192 192.763 391.311 184.125 382.639L117.312 315.919C108.639 307.281 101.758 297.016 97.0626 285.711C92.3672 274.407 89.9502 262.287 89.9502 250.047C89.9502 237.807 92.3672 225.687 97.0626 214.383C101.758 203.079 108.639 192.813 117.312 184.175L184.125 117.361C192.763 108.689 203.029 101.808 214.333 97.1124C225.637 92.417 237.757 90 249.997 90C262.238 90 274.358 92.417 285.662 97.1124C296.966 101.808 307.231 108.689 315.87 117.361L382.683 184.175C391.355 192.813 398.237 203.079 402.932 214.383C407.627 225.687 410.044 237.807 410.044 250.047C410.044 262.287 407.627 274.407 402.932 285.711C398.237 297.016 391.355 307.281 382.683 315.919L315.87 382.733V382.639Z" fill="#ED1D24"/>
<path d="M212.356 344.149C207.65 344.149 202.945 339.444 202.945 334.738C202.945 331.633 204.545 330.033 206.051 328.434C207.65 326.928 210.756 325.328 212.356 325.328C217.061 325.328 221.766 330.033 221.766 334.738C221.766 339.444 217.061 344.149 212.356 344.149Z" fill="white"/>
<path d="M245.762 165.352C240.775 165.352 235.881 168.175 232.588 171.375C224.307 179.279 221.766 191.701 221.766 212.215C221.766 243.928 228.259 329.844 275.405 329.844C293.284 329.844 308.623 311.306 318.222 298.132C319.822 294.932 323.115 293.426 326.503 293.426C328.103 293.426 329.702 293.426 331.396 294.932C333.09 296.532 334.69 298.132 334.69 299.637C334.69 301.237 334.69 304.437 333.09 306.036C309.564 341.325 263.736 362.498 232.588 322.504C202.945 286.086 202.945 227.931 202.945 221.626C202.945 204.217 204.639 171.375 219.413 157.165C226.555 150.446 235.958 146.651 245.762 146.531H247.456C257.243 146.531 267.218 150.766 273.805 157.165C288.579 171.375 287.638 193.112 287.638 214.192C287.638 233.2 283.592 281.852 265.524 301.708C262.983 304.437 260.537 306.507 257.243 306.507C255.643 306.507 253.949 306.413 252.35 304.813C247.362 301.613 247.08 294.744 249.056 291.827C263.924 269.618 268.818 244.21 268.818 212.592C268.818 191.983 267.124 176.174 258.937 169.775C257.243 168.175 254.043 165.352 245.762 165.352Z" fill="#F0F3FA"/>
</svg>
