<svg width="500" height="500" viewBox="0 0 500 500" fill="none" xmlns="http://www.w3.org/2000/svg">
<rect width="500" height="500" fill="white"/>
<path d="M418 250C418 342.795 342.815 418 250.044 418C157.273 418 82 342.795 82 250C82 157.204 157.185 82 249.956 82C342.727 82 417.911 157.204 417.911 250H418ZM279.238 366.984C244.943 372.174 210.21 366.545 187.962 339.102C175.475 323.709 168.001 304.887 165.539 282.72C163.779 267.504 169.056 253.079 174.331 239.005C177.146 231.529 170.463 224.404 164.395 221.325C162.9 220.534 162.284 218.688 163.077 217.192C163.252 216.84 163.515 216.577 163.779 216.313C166.417 213.938 168.441 211.123 170.023 207.868C176.882 193.179 191.655 190.364 206.164 193.97C223.488 198.369 226.477 226.164 226.477 240.5C226.477 250.177 229.116 260.908 236.853 266.8C243.712 271.989 250.66 272.342 257.783 267.855C272.555 258.533 268.775 241.733 262.178 228.89C257.255 219.39 252.418 209.715 247.845 199.952C239.668 182.713 219.618 177.61 227.092 153.774C232.281 137.149 249.604 132.577 265.344 132.488C290.054 132.313 310.72 136.623 333.583 147.969C348.532 155.358 362.688 163.538 376.144 172.509C378.957 174.357 379.397 173.917 377.637 171.102C359.962 143.57 336.66 123.78 307.729 111.642C232.018 79.801 147.248 115.248 113.305 188.078C103.457 209.188 99.4109 233.113 99.7622 256.685C99.7622 257.213 100.202 257.653 100.73 257.653H144.346C148.655 257.653 150.853 259.852 150.941 264.162L151.117 271.11C151.205 276.299 148.655 278.939 143.467 278.939H104.248C103.192 278.939 102.753 279.467 103.017 280.522L105.743 291.868C105.919 292.66 106.358 293.012 107.15 293.012C117.966 293.012 129.309 293.012 141.18 293.012C146.457 293.012 150.414 295.474 153.227 300.4C153.316 300.577 153.931 301.632 154.987 303.479C157.8 308.493 156.305 311.043 150.59 311.043H113.569C113.569 311.043 113.129 311.308 113.042 311.57C113.042 311.57 113.042 311.747 113.042 311.835C131.068 349.305 158.504 375.34 195.437 389.854C269.037 418.793 353.367 384.577 385.816 313.418C386.607 311.659 386.08 311.043 384.234 311.483L383.354 311.659C381.77 312.01 380.363 313.154 379.748 314.649C374.56 326.524 367.174 338.047 357.589 349.218C355.302 351.944 350.73 352.824 348.532 349.745C348.092 349.129 347.915 348.425 347.915 347.722V317.113C347.915 313.505 346.068 311.659 342.464 311.659H248.9C247.405 311.659 246.087 310.515 245.911 308.933C245.911 308.493 245.911 308.053 245.911 307.7C246.263 305.325 247.669 304.094 250.131 304.094C264.818 304.094 278.974 303.919 292.692 303.743C296.209 303.743 299.024 302.688 301.135 300.664C306.41 295.474 311.862 294.332 319.337 294.243C341.409 294.243 365.59 294.243 391.971 294.243C393.115 294.243 393.817 293.715 394.081 292.66L397.512 278.41C397.774 277.355 397.336 276.828 396.281 276.828H325.053C320.656 276.828 319.072 274.804 320.481 270.583L321.974 265.92C323.382 261.61 326.284 259.412 330.857 259.412H398.478C399.358 259.412 400.061 258.708 400.061 257.829C400.853 238.918 398.214 220.358 392.235 202.239C391.444 199.864 391.092 197.402 388.629 196.082C357.5 179.105 326.02 172.597 294.187 176.732C286.448 177.699 279.151 179.898 272.292 183.24C257.255 190.453 264.465 206.989 273.083 215.344C279.502 221.678 286.097 228.538 292.78 236.015C297.177 240.853 300.166 245.778 301.837 250.615C305.267 260.643 306.763 276.828 294.803 282.018C289.263 284.392 282.931 285.799 275.809 286.328C265.344 287.03 254.88 287.734 244.416 288.263C233.073 288.878 219.002 293.364 214.254 304.974C200.272 339.894 256.024 358.277 279.414 364.962C282.58 365.841 282.493 366.545 279.238 367.073V366.984ZM203.966 219.743C203.966 215.697 200.625 212.354 196.579 212.354C192.535 212.354 189.193 215.697 189.193 219.743C189.193 223.789 192.535 227.132 196.579 227.132C200.625 227.132 203.966 223.789 203.966 219.743Z" fill="#3366FF"/>
</svg>
