<svg width="500" height="500" viewBox="0 0 500 500" fill="none" xmlns="http://www.w3.org/2000/svg">
<rect width="500" height="500" fill="white"/>
<path fill-rule="evenodd" clip-rule="evenodd" d="M352.351 147.633H116V383.985H352.351V147.633ZM179.633 347.623V233.083C179.633 228.72 182.451 215.811 188.723 215.811C197.086 215.811 210.177 248.446 216.813 264.9C218.358 268.718 219.54 271.718 220.267 273.081L220.449 273.627C228.085 289.626 236.175 306.534 243.811 319.442C251.174 331.806 261.538 347.623 276.991 347.623C304.535 347.623 315.989 324.715 315.989 298.534V183.995H288.718V298.534C288.718 308.352 284.264 312.17 282.809 313.534C282.649 313.643 282.497 313.765 282.355 313.897C281.627 314.806 279.537 314.988 278.718 314.17C275.509 310.461 272.677 306.441 270.264 302.171C262.263 287.943 254.863 273.385 248.084 258.536L247.902 257.991C240.77 242.393 232.976 227.108 224.54 212.175C217.176 199.812 206.813 183.995 191.36 183.995C166.179 183.995 152.362 209.175 152.362 233.083V347.623H179.633Z" fill="#1D428C"/>
<path fill-rule="evenodd" clip-rule="evenodd" d="M392.807 257.992C399.443 258.265 403.17 256.72 405.17 254.629C407.079 252.629 408.533 248.902 407.897 242.357C406.689 233.828 403.98 225.58 399.897 217.994C386.868 194.008 369.871 172.4 349.627 154.088C330.008 134.999 307.332 119.329 282.539 107.727C274.601 104.02 266.082 101.713 257.359 100.909C250.723 100.637 246.996 102.182 244.996 104.273C243.087 106.273 241.632 110 242.269 116.545C242.814 122.999 245.45 131.271 250.268 140.907C263.298 164.894 280.295 186.501 300.538 204.813C323.719 226.63 347.809 242.63 367.626 251.175C377.625 255.447 386.171 257.72 392.807 257.992ZM295.084 210.449C342.354 254.993 394.261 277.173 410.897 260.083C427.441 242.902 402.442 192.996 355.081 148.452C307.811 103.909 255.904 81.7284 239.269 98.8185C222.724 115.999 247.723 165.906 295.084 210.449Z" fill="#D9D9D9"/>
<path d="M288.72 120.362C298.761 120.362 306.901 112.222 306.901 102.181C306.901 92.1399 298.761 84 288.72 84C278.679 84 270.539 92.1399 270.539 102.181C270.539 112.222 278.679 120.362 288.72 120.362Z" fill="#378AC4"/>
<path d="M379.622 274.899C389.663 274.899 397.803 266.759 397.803 256.718C397.803 246.677 389.663 238.537 379.622 238.537C369.581 238.537 361.441 246.677 361.441 256.718C361.441 266.759 369.581 274.899 379.622 274.899Z" fill="#378AC4"/>
</svg>
