<svg width="500" height="500" viewBox="0 0 500 500" fill="none" xmlns="http://www.w3.org/2000/svg">
<rect width="500" height="500" fill="white"/>
<path fill-rule="evenodd" clip-rule="evenodd" d="M106.009 206.225C140.618 191.435 192.233 182 250 182C353.827 182 438 212.43 438 250C438 287.57 353.827 318 250 318C146.173 318 62 287.57 62 250C66.6145 220.08 123.442 209.88 178.047 209.88C254.187 209.88 316.74 231.47 316.74 262.07C316.74 278.39 295.889 291.225 264.015 300.66C315.544 300.66 351.178 274.905 351.178 251.02C351.178 218.465 291.189 193.815 204.196 193.815C168.305 193.815 132.756 199.34 106.009 206.225ZM257.093 250H250V284H271.364V278.05H257.093V250ZM234.875 250H241.455V271.76C241.455 274.225 240.942 276.35 239.831 278.22C238.805 280.005 237.267 281.45 235.387 282.47C233.422 283.49 231.115 284 228.636 284C226.073 284 223.851 283.49 221.885 282.47C220.031 281.499 218.49 280.025 217.442 278.22C216.327 276.251 215.766 274.019 215.818 271.76V250H222.398V271.165C222.398 272.44 222.655 273.545 223.167 274.565C223.673 275.567 224.457 276.404 225.426 276.976C226.396 277.549 227.51 277.833 228.636 277.795C229.918 277.795 231.029 277.455 231.969 276.945C232.824 276.35 233.678 275.585 234.105 274.565C234.618 273.545 234.96 272.44 234.96 271.165V250H234.875ZM209.58 276.18C210.862 273.63 211.545 270.57 211.545 267C211.545 263.43 210.862 260.285 209.58 257.82C208.408 255.406 206.556 253.383 204.251 251.995C201.945 250.607 199.284 249.914 196.591 250C193.899 249.925 191.243 250.622 188.939 252.009C186.636 253.396 184.783 255.413 183.602 257.82C182.32 260.37 181.636 263.43 181.636 267C181.636 270.57 182.32 273.63 183.602 276.18C184.791 278.58 186.646 280.592 188.948 281.978C191.249 283.363 193.901 284.065 196.591 284C199.28 284.065 201.932 283.363 204.234 281.978C206.536 280.592 208.391 278.58 209.58 276.18ZM203.684 261.05C204.367 262.75 204.709 264.705 204.709 267C204.709 269.295 204.367 271.25 203.684 272.95C203.125 274.417 202.144 275.689 200.864 276.605C199.667 277.455 198.3 277.795 196.591 277.795C195.077 277.846 193.585 277.43 192.318 276.605C191.041 275.685 190.061 274.415 189.498 272.95C188.769 271.052 188.421 269.031 188.473 267C188.473 264.705 188.815 262.75 189.498 261.05C190.061 259.585 191.041 258.315 192.318 257.395C193.515 256.545 194.882 256.205 196.591 256.205C198.3 256.205 199.667 256.63 200.864 257.395C202.06 258.245 203 259.52 203.684 261.05ZM156 284V250H177.364V255.95H162.665V264.025H177.364V269.975H162.665V278.05H177.364V284H156ZM138.824 256.97C139.764 257.65 140.276 258.67 140.447 259.945H147.027C147.022 258.092 146.468 256.282 145.434 254.74C144.401 253.198 142.934 251.993 141.216 251.275C139.507 250.425 137.371 250 134.978 250C132.585 250 130.449 250.425 128.655 251.275C126.775 252.125 125.236 253.23 124.211 254.76C123.185 256.29 122.673 257.99 122.673 260.03C122.673 262.495 123.527 264.365 125.065 265.81C126.604 267.255 128.74 268.36 131.475 269.04L135.064 269.89L138.055 270.91C138.909 271.25 139.507 271.76 139.849 272.185C140.362 272.695 140.533 273.29 140.533 274.055C140.552 274.82 140.311 275.568 139.849 276.18C139.313 276.841 138.603 277.341 137.798 277.625C136.843 277.982 135.828 278.156 134.807 278.135C133.611 278.135 132.585 277.965 131.645 277.625C130.76 277.275 129.991 276.686 129.424 275.925C128.839 275.103 128.512 274.127 128.484 273.12H121.818C121.75 275.162 122.312 277.177 123.426 278.893C124.541 280.61 126.157 281.947 128.056 282.725C129.936 283.575 132.329 284 134.893 284C137.456 284 139.764 283.575 141.644 282.81C143.524 281.96 144.976 280.855 145.916 279.41C146.942 277.88 147.455 276.095 147.455 274.055C147.455 272.695 147.198 271.505 146.685 270.4C146.224 269.369 145.555 268.443 144.72 267.68C143.865 266.83 142.84 266.15 141.644 265.64C140.381 265.082 139.063 264.655 137.713 264.365L134.807 263.685C134.141 263.527 133.484 263.328 132.842 263.09C132.242 262.871 131.669 262.586 131.133 262.24C130.69 261.952 130.312 261.575 130.022 261.135C129.748 260.643 129.629 260.08 129.68 259.52C129.68 258.84 129.936 258.16 130.278 257.65C130.733 257.035 131.356 256.563 132.073 256.29C132.842 256.035 133.782 255.865 134.893 255.865C136.602 255.865 137.884 256.205 138.824 256.97Z" fill="#31AE56"/>
</svg>
