<svg width="500" height="500" viewBox="0 0 500 500" fill="none" xmlns="http://www.w3.org/2000/svg">
<rect width="500" height="500" fill="#0166FF"/>
<path d="M355.102 100.017C379.528 100.012 399.979 119.587 399.958 144.395C399.944 160.931 399.958 178.224 399.992 196.272C400 199.767 399.893 202.594 399.674 204.756C397.912 222.091 388.768 237.471 374.698 247.87C373.242 248.945 373.06 251.119 374.595 252.245C388.672 262.541 397.831 277.978 399.644 295.24C399.889 297.564 400.004 300.435 399.992 303.86C399.932 319.515 399.932 336.099 399.997 353.602C400.009 356.928 399.854 359.665 399.532 361.815C397.817 373.288 392.432 382.729 383.383 390.142C377.379 395.059 370.456 398.161 362.622 399.449C360.384 399.82 357.787 400.004 354.844 400C284.872 399.965 214.876 399.958 144.856 399.979C142.187 399.979 139.888 399.841 137.959 399.566C118.762 396.833 103.597 381.487 100.502 362.484C100.172 360.435 100.005 358.398 100.005 356.382C100.009 286.013 100.004 215.259 100 144.107C100 130.652 106.385 118.241 116.648 109.909C123.365 104.456 131.032 101.276 139.648 100.36C141.911 100.12 144.584 100 147.658 100C218.121 100.025 287.269 100.03 355.102 100.017ZM355.372 149.045C355.372 146.596 353.388 144.61 350.938 144.61H148.938C146.489 144.61 144.503 146.596 144.503 149.045V350.95C144.503 353.4 146.489 355.386 148.938 355.386H350.938C353.388 355.386 355.372 353.4 355.372 350.95V149.045Z" fill="white"/>
</svg>
