<svg width="500" height="500" viewBox="0 0 500 500" fill="none" xmlns="http://www.w3.org/2000/svg">
<rect width="500" height="500" fill="white"/>
<path d="M270.929 200.65L373.265 124.14C373.354 124.074 373.456 124.029 373.565 124.011C373.673 123.991 373.786 123.999 373.891 124.032C373.996 124.065 374.092 124.122 374.17 124.2C374.249 124.276 374.309 124.371 374.344 124.474L395.98 184.502C396.035 184.659 396.034 184.833 395.971 184.989C395.909 185.147 395.792 185.276 395.642 185.352L323.008 222.935C322.919 222.985 322.82 223.015 322.72 223.022C322.619 223.03 322.517 223.016 322.423 222.98L271.064 201.859C270.949 201.813 270.848 201.735 270.773 201.636C270.698 201.535 270.652 201.418 270.638 201.295C270.625 201.171 270.644 201.046 270.695 200.932C270.746 200.82 270.827 200.722 270.929 200.65Z" fill="#2196ED"/>
<path d="M131.475 132.375L249.538 200.71C249.853 200.89 250.086 201.184 250.186 201.53C250.287 201.878 250.248 202.25 250.077 202.57L219.724 259.863C219.56 260.176 219.284 260.415 218.95 260.53C218.617 260.647 218.251 260.632 217.927 260.49L96.8099 205.974C96.6419 205.897 96.4919 205.788 96.3674 205.653C96.2414 205.516 96.1454 205.359 96.0824 205.185C96.0194 205.012 95.9926 204.829 96.0014 204.645C96.0104 204.462 96.0569 204.282 96.1349 204.115L129.498 132.979C129.581 132.804 129.699 132.646 129.846 132.519C129.993 132.391 130.166 132.295 130.352 132.238C130.539 132.181 130.734 132.165 130.928 132.187C131.121 132.211 131.309 132.274 131.475 132.375Z" fill="#2D5AA5"/>
<path d="M230.246 411.263V282.274C230.246 282.164 230.271 282.056 230.319 281.957C230.367 281.86 230.438 281.774 230.525 281.707C230.612 281.639 230.712 281.593 230.82 281.572C230.928 281.549 231.039 281.552 231.144 281.579L279.785 294.525C279.939 294.565 280.077 294.654 280.175 294.78C280.272 294.906 280.325 295.06 280.325 295.219L280.37 381.831C280.37 381.953 280.338 382.071 280.28 382.178C280.22 382.283 280.136 382.373 280.032 382.436L231.347 411.89C231.237 411.959 231.11 411.997 230.979 412C230.85 412.003 230.721 411.97 230.609 411.905C230.495 411.841 230.402 411.746 230.339 411.634C230.274 411.521 230.243 411.392 230.246 411.263Z" fill="#2196ED"/>
</svg>
