<svg width="500" height="500" viewBox="0 0 500 500" fill="none" xmlns="http://www.w3.org/2000/svg">
<rect width="500" height="500" fill="#358B44"/>
<path d="M58 213.685C58 205.515 68.5395 201 75.3617 201H440.979C441.653 201 441.98 201.328 442 202.021C442 230.74 442 259.145 442 287.237C442 295.121 430.031 299.022 423.924 299.022C315.559 299.022 193.803 299.022 58.6536 299.022C58.4856 299.022 58.3246 298.956 58.2058 298.837C58.0872 298.718 58.0205 298.558 58.0205 298.389C58.0068 270.651 58 242.417 58 213.685ZM264.644 234.866L275.879 216.483C276.86 214.889 276.41 214.093 274.531 214.093H267.709C266.357 214.059 265.022 214.391 263.846 215.057C262.669 215.723 261.695 216.695 261.03 217.872L229.575 269.283C228.287 271.326 228.86 272.327 231.331 272.122L238.275 271.529C239.503 271.451 240.691 271.071 241.735 270.422C242.78 269.774 243.646 268.877 244.26 267.812L257.128 246.856C258.187 244.963 259.74 243.392 261.621 242.312C263.503 241.233 265.643 240.685 267.811 240.729H273.694C278.677 240.647 279.862 242.729 277.247 246.979L263.276 269.609C262.316 271.162 262.745 271.918 264.564 271.898L272.386 271.796C273.427 271.811 274.453 271.55 275.361 271.04C276.268 270.531 277.025 269.791 277.555 268.895C282.552 260.969 287.317 253.221 291.852 245.65C300.757 230.618 272.08 234.396 265.299 235.806C264.298 236.009 264.135 235.683 264.644 234.866ZM373.758 236.909V235.459C373.764 235.317 373.741 235.176 373.688 235.045C373.635 234.914 373.555 234.796 373.452 234.699C373.348 234.601 373.227 234.528 373.092 234.484C372.958 234.437 372.816 234.422 372.675 234.437C366.078 234.437 362.136 234.641 359.235 239.502C353.095 249.756 346.899 260.017 340.648 270.284C339.975 271.387 340.281 271.939 341.567 271.918L349.881 271.775C350.745 271.753 351.59 271.515 352.34 271.084C353.089 270.652 353.718 270.041 354.17 269.303L368.345 246.038C369.314 244.45 370.667 243.131 372.281 242.207C373.896 241.282 375.718 240.78 377.578 240.749H379.784C383.522 240.749 384.441 242.26 382.582 245.508L368.693 269.447C367.733 271.08 368.223 271.918 370.123 271.918H376.25C377.412 271.953 378.561 271.666 379.571 271.089C380.579 270.513 381.41 269.668 381.969 268.649L395.348 246.304C396.298 244.576 397.706 243.144 399.418 242.167C401.131 241.191 403.08 240.707 405.05 240.768H407.276C411.13 240.768 412.076 242.417 410.115 245.712L396.022 269.467C394.817 271.509 395.389 272.388 397.738 272.142C399.612 271.952 401.493 271.856 403.375 271.857C404.728 271.845 406.054 271.486 407.228 270.812C408.401 270.14 409.382 269.178 410.074 268.017L424.618 243.894C425 243.259 425.254 242.556 425.365 241.824C425.475 241.091 425.441 240.345 425.261 239.625C425.083 238.907 424.766 238.23 424.326 237.634C423.885 237.038 423.332 236.535 422.698 236.153L422.269 235.929C416.365 233.028 404.295 234.335 398.515 236.99C398.204 237.169 397.852 237.264 397.493 237.264C397.135 237.264 396.781 237.169 396.472 236.99C394.984 235.885 393.267 235.13 391.446 234.784C385.51 234.203 379.521 235.029 373.963 237.195C373.933 237.218 373.898 237.23 373.86 237.23C373.823 237.23 373.788 237.218 373.758 237.195V236.909ZM168.911 243.281L168.298 245.508C168.162 246.098 168.264 246.718 168.582 247.234C168.898 247.749 169.405 248.119 169.994 248.265C170.163 248.284 170.334 248.284 170.504 248.265H179.001C179.329 248.288 179.654 248.201 179.925 248.016C180.195 247.83 180.396 247.557 180.492 247.244L182.677 241.381C182.796 241.045 182.835 240.686 182.792 240.332C182.75 239.977 182.627 239.638 182.433 239.339C177.918 232.436 161.313 234.274 154.634 235.254C141.725 237.174 134.535 246.161 128.55 257.477C127.476 259.488 126.666 261.631 126.14 263.849C123.137 277.024 154 272.265 159.106 270.815C161.978 270.025 164.65 268.63 166.938 266.724C169.228 264.818 171.084 262.446 172.383 259.765C173.036 258.539 172.669 257.927 171.28 257.947H162.845C162.17 257.945 161.506 258.11 160.911 258.427C160.316 258.743 159.807 259.204 159.434 259.765C155.157 266.097 149.03 267.867 141.05 265.076C140.527 264.885 140.097 264.502 139.846 264.004C139.595 263.508 139.544 262.933 139.702 262.399V262.052C142.07 257.297 144.852 252.758 148.015 248.489C153.101 241.525 159.372 239.094 167.684 241.3C167.898 241.346 168.099 241.434 168.277 241.559C168.455 241.684 168.606 241.844 168.72 242.029C168.835 242.215 168.911 242.421 168.944 242.636C168.976 242.851 168.964 243.071 168.911 243.281ZM222.895 242.832L222.324 245.712C222.215 246.272 222.333 246.852 222.65 247.327C222.968 247.802 223.459 248.131 224.019 248.245H224.447H232.618C233.004 248.263 233.388 248.171 233.725 247.979C234.061 247.788 234.335 247.504 234.517 247.162C235.577 245.349 236.232 243.328 236.437 241.238C236.546 240.032 236.217 238.827 235.513 237.841C234.809 236.855 233.775 236.155 232.597 235.867C223.673 233.753 214.376 233.753 205.452 235.867C192.972 238.665 187.069 249.408 181.268 260.112C178.265 265.728 180.839 270.897 187.069 271.877C195.77 273.358 204.688 272.982 213.235 270.774C216.115 269.974 218.794 268.571 221.092 266.66C223.393 264.748 225.26 262.37 226.572 259.683C227.204 258.499 226.837 257.927 225.51 257.947H217.034C216.272 257.943 215.521 258.129 214.847 258.485C214.174 258.842 213.599 259.358 213.173 259.989C209.278 265.899 203.341 267.656 195.362 265.259C195.051 265.165 194.76 265.012 194.508 264.805C194.257 264.601 194.049 264.347 193.895 264.06C193.74 263.774 193.645 263.46 193.613 263.136C193.581 262.812 193.613 262.486 193.707 262.175C193.747 262.05 193.794 261.927 193.85 261.808C196.263 256.877 199.157 252.197 202.49 247.836C207.535 241.076 213.805 239.156 221.955 241.279C222.136 241.285 222.312 241.337 222.467 241.428C222.623 241.518 222.753 241.646 222.846 241.801C222.94 241.955 222.993 242.13 223.002 242.311C223.01 242.49 222.974 242.669 222.895 242.832ZM308.029 254.495C318.759 254.495 329.442 254.495 340.076 254.495C340.803 254.505 341.52 254.321 342.151 253.963C342.783 253.603 343.308 253.082 343.672 252.452C348.164 244.997 350.228 236.255 338.259 234.805C324.39 233.109 306.538 235.356 297.694 247.367C294.07 252.141 291.134 257.401 288.972 262.992C286.806 268.772 293.69 271.611 298.205 272.081C312.502 273.593 329.68 272.756 338.749 260.214C339.3 259.438 339.116 258.989 338.177 258.825C331.028 257.613 326.045 258.702 323.225 262.093C318.895 267.24 310.072 267.629 304.638 265.076C304.26 264.898 303.921 264.648 303.641 264.338C303.361 264.03 303.144 263.669 303.004 263.276C302.863 262.883 302.801 262.466 302.823 262.05C302.844 261.632 302.947 261.224 303.126 260.848L303.249 260.602L306.191 255.537C306.372 255.212 306.64 254.943 306.965 254.76C307.289 254.576 307.656 254.485 308.029 254.495ZM99.8111 259.152V237.644C99.8111 235.316 98.6876 234.376 96.4205 234.825L91.886 235.683C90.6935 235.817 89.6 236.41 88.8375 237.337C88.0749 238.263 87.703 239.45 87.8008 240.647C87.7055 248.735 87.7055 256.967 87.8008 265.34C87.7772 266.382 88.123 267.4 88.7773 268.21C89.4316 269.022 90.352 269.576 91.3754 269.773C92.2127 269.957 92.3965 270.407 91.9473 271.141C88.6111 276.466 84.1175 278.692 78.4664 277.82C78.3363 277.787 78.2008 277.78 78.0677 277.797C77.9346 277.817 77.8065 277.861 77.6908 277.929C77.575 277.998 77.4739 278.089 77.3932 278.196C77.3125 278.303 77.2538 278.426 77.2205 278.556L75.1779 284.296C74.9736 284.889 75.1779 285.236 75.8111 285.317C80.9837 286.156 86.2874 285.558 91.143 283.588C95.9987 281.617 100.22 278.35 103.345 274.144C113.966 260.909 123.43 248.612 131.736 237.256C132.819 235.785 132.451 235.07 130.634 235.09H123.586C122.604 235.062 121.629 235.269 120.744 235.696C119.859 236.122 119.09 236.756 118.5 237.541L100.894 259.54C100.179 260.459 99.8111 260.337 99.8111 259.152Z" fill="white"/>
<path d="M332.908 247.262C332.696 247.612 332.396 247.903 332.038 248.103C331.681 248.304 331.276 248.407 330.865 248.405H312.381C311.38 248.405 311.175 247.996 311.768 247.2C316.344 240.909 324.227 239.52 331.417 241.276C331.891 241.38 332.33 241.605 332.688 241.932C333.047 242.258 333.313 242.673 333.46 243.135C333.698 243.818 333.771 244.547 333.675 245.264C333.58 245.98 333.317 246.665 332.908 247.262Z" fill="white"/>
</svg>
