<svg width="500" height="500" viewBox="0 0 500 500" fill="none" xmlns="http://www.w3.org/2000/svg">
<rect width="500" height="500" fill="white"/>
<path d="M127.367 275.439C126.638 276.943 125.465 278.187 124.005 279.003C122.546 279.818 120.871 280.166 119.208 279.998C117.834 279.84 116.52 279.351 115.377 278.574C114.234 277.797 113.296 276.754 112.643 275.536C111.991 274.317 111.643 272.959 111.63 271.577C111.617 270.194 111.939 268.83 112.568 267.599L131.127 228.56C131.852 227.069 133.013 225.835 134.456 225.02C135.899 224.205 137.557 223.85 139.207 224C140.871 224.161 142.448 224.82 143.732 225.89C145.016 226.96 145.948 228.392 146.407 230C147.127 232.16 146.887 234.48 145.847 236.4L127.287 275.439H127.367ZM111.288 217.12C110.325 216.546 109.251 216.181 108.138 216.048C107.024 215.916 105.895 216.019 104.824 216.351C103.753 216.683 102.764 217.236 101.92 217.975C101.077 218.714 100.398 219.622 99.9282 220.64L85.6886 251.279L71.689 220.88C71.188 219.869 70.4918 218.966 69.6406 218.225C68.7894 217.483 67.7999 216.918 66.7292 216.56C65.666 216.237 64.5467 216.141 63.4441 216.279C62.3416 216.417 61.2803 216.785 60.3294 217.36C58.4094 218.48 56.9695 220.4 56.3295 222.72C55.6895 224.96 56.0095 227.44 57.0495 229.52L78.2488 275.279C79.2679 277.316 81.0505 278.869 83.2087 279.598C84.2664 279.933 85.3826 280.042 86.4851 279.918C87.5876 279.794 88.6517 279.44 89.6085 278.878L90.0085 278.638C91.4484 277.838 92.5684 276.559 93.2884 274.959L114.728 229.36C115.768 227.2 116.008 224.8 115.368 222.48C114.769 220.248 113.337 218.33 111.368 217.12H111.288ZM276.403 266.559L255.204 220.72C254.203 218.698 252.452 217.148 250.324 216.4C249.266 216.065 248.15 215.956 247.047 216.08C245.945 216.204 244.881 216.559 243.924 217.12L243.524 217.36C242.084 218.16 240.884 219.44 240.164 220.96L218.805 266.719C217.685 268.799 217.445 271.199 218.085 273.519C218.725 275.759 220.165 277.678 222.085 278.878C223.521 279.731 225.189 280.112 226.853 279.968C228.517 279.825 230.095 279.164 231.364 278.078C232.244 277.278 232.964 276.399 233.444 275.359L247.684 244.719L261.683 275.119C262.702 277.156 264.485 278.709 266.643 279.438C267.706 279.767 268.826 279.865 269.929 279.727C271.033 279.589 272.094 279.218 273.043 278.638C275.043 277.518 276.483 275.599 277.043 273.359C277.763 271.039 277.523 268.559 276.403 266.559Z" fill="black"/>
<path d="M219.604 219.52C218.648 218.978 217.592 218.634 216.5 218.51C215.408 218.386 214.302 218.484 213.249 218.797C212.195 219.111 211.216 219.634 210.37 220.336C209.524 221.038 208.828 221.903 208.325 222.88L194.085 252.399L181.125 225.36C180.485 223.68 179.686 222.16 178.646 220.72C176.886 218.96 175.126 218.48 171.446 217.92C163.846 216.88 162.486 211.92 161.686 208.881C161.407 207.537 161.247 206.172 161.206 204.801C161.212 202.305 160.488 199.863 159.123 197.773C157.759 195.684 155.813 194.039 153.526 193.041C151.24 192.043 148.707 191.754 146.254 192.211C143.801 192.667 141.542 193.848 139.767 195.601C137.98 197.358 136.749 199.6 136.225 202.05C135.701 204.5 135.907 207.05 136.818 209.383C137.73 211.717 139.306 213.732 141.352 215.178C143.397 216.625 145.822 217.439 148.326 217.52C153.286 218.08 160.646 215.28 162.566 222.56C162.999 223.764 163.186 225.043 163.117 226.32C163.049 227.598 162.725 228.849 162.166 230L144.247 267.039C143.19 269.035 142.942 271.36 143.552 273.534C144.163 275.708 145.586 277.564 147.526 278.718C148.486 279.274 149.548 279.628 150.649 279.759C151.75 279.89 152.866 279.796 153.929 279.481C154.992 279.167 155.98 278.639 156.832 277.93C157.684 277.221 158.383 276.346 158.886 275.359L172.726 246.559L186.565 275.519C187.341 276.992 188.54 278.2 190.009 278.984C191.478 279.768 193.149 280.094 194.805 279.918C195.925 279.838 196.965 279.518 198.005 278.958L198.325 278.718C199.765 277.918 200.885 276.718 201.685 275.279L222.964 231.28C224.038 229.267 224.288 226.915 223.661 224.721C223.034 222.527 221.58 220.662 219.604 219.52Z" fill="url(#paint0_radial_781_2750)"/>
<path d="M423.04 240H411.36V224H400V279.998H411.36V247.839H420.56C422.877 247.578 425.205 248.239 427.039 249.679C427.679 250.319 428.079 251.119 428.319 252.079C428.559 253.599 428.639 255.119 428.639 256.719V279.998H439.999V254.479C439.839 243.439 433.439 239.68 423.04 240ZM374.641 240.879C372.561 241.439 370.641 242.479 369.041 243.919C365.281 247.439 363.281 252.719 363.281 259.919C363.121 265.119 364.881 270.319 368.081 274.318C369.681 276.318 371.681 277.838 374.001 278.798C376.881 279.678 379.921 280.078 382.961 279.998H397.12V271.999H385.921C379.121 272.159 373.121 267.519 373.841 259.999C373.281 252.799 377.681 247.999 384.641 247.999H397.04V240H382.961C380.161 240 377.361 240.24 374.641 240.879ZM328.002 224H286.164C285.581 224.039 285.013 224.194 284.491 224.455C283.969 224.716 283.504 225.078 283.124 225.52C282.311 226.452 281.857 227.643 281.844 228.88C281.844 230.08 282.244 231.28 283.044 232.24C283.844 233.2 284.884 233.76 286.004 233.84H300.963V279.838H312.003V233.84H328.002V224ZM333.602 241.599C331.202 242.719 329.122 244.559 327.602 246.799C325.202 250.559 323.922 254.959 324.002 259.519C324.002 266.959 326.242 272.559 330.802 276.318C332.402 277.598 334.242 278.558 336.162 279.118C338.562 279.758 340.962 280.078 343.362 279.918H357.202V271.999H344.562C342.162 272.239 339.842 271.039 337.762 269.759C337.016 269.088 336.417 268.271 336.002 267.359C335.598 266.286 335.408 265.145 335.442 263.999H357.202V255.999H335.442C335.442 253.919 336.242 251.599 337.602 250.079C339.362 248.879 341.442 247.759 343.522 247.999H357.281V240H342.722C339.604 239.892 336.498 240.437 333.602 241.599Z" fill="black"/>
<defs>
<radialGradient id="paint0_radial_781_2750" cx="0" cy="0" r="1" gradientUnits="userSpaceOnUse" gradientTransform="translate(147.206 202.881) scale(69.9737 70.812)">
<stop offset="0.12" stop-color="#C2D500"/>
<stop offset="0.34" stop-color="#A2C50D"/>
<stop offset="0.79" stop-color="#64A825"/>
<stop offset="1" stop-color="#4C9C2E"/>
</radialGradient>
</defs>
</svg>
