<svg width="500" height="500" viewBox="0 0 500 500" fill="none" xmlns="http://www.w3.org/2000/svg">
<rect width="500" height="500" fill="#4876EF"/>
<path fill-rule="evenodd" clip-rule="evenodd" d="M364.006 200.008C374.948 201.993 375.254 214.972 364.694 217.491C351.15 219.018 349.62 199.55 363.929 200.008H364.006ZM357.119 260.093C357.119 265.742 358.802 270.018 365.842 268.338C368.291 267.116 369.515 264.979 369.515 261.848V229.478C369.362 224.897 366.99 222.683 362.246 222.912C358.879 223.675 357.195 225.584 357.119 228.867V260.093ZM101.23 230.699C106.281 231.081 118.065 232.99 117.759 239.479C117.453 244.442 112.249 245.968 107.428 244.06C102.608 242.075 96.4094 240.853 91.8181 242.533C88.7572 243.754 87.992 245.663 89.8285 248.488C90.4407 249.557 92.1241 250.32 94.8789 250.778L96.8685 251.084C106.357 252.763 118.907 254.901 119.825 265.589C120.437 272.69 117.3 277.958 110.489 281.469C99.6233 285.287 89.2163 284.752 79.192 279.943C76.3607 278.568 74.6772 277.041 74.2181 275.362C73.0703 271.697 76.5902 266.582 81.5642 268.567C89.1398 271.621 95.032 273.911 102.761 272.232C107.352 271.239 108.27 265.971 103.985 264.215C100.31 262.946 96.5154 262.051 92.6598 261.543C82.2529 259.863 72.9937 253.298 75.9781 242.915C78.8859 232.761 90.2876 229.707 101.23 230.699ZM182.573 280.782C184.409 283.225 187.317 283.684 191.373 282.08C192.294 281.551 193.051 280.78 193.564 279.852C194.077 278.923 194.325 277.872 194.281 276.812L194.357 250.32C194.357 241.846 198.719 242.457 203.387 243.144C206.677 243.602 210.121 244.136 212.416 241.464C215.171 238.334 213.717 233.6 209.891 232.15C203.004 229.554 191.908 229.859 186.016 234.669C184.413 236.296 183.158 238.232 182.33 240.358C181.501 242.485 181.115 244.757 181.195 247.037V273.759C181.195 277.118 181.655 279.408 182.573 280.782ZM316.256 282.691C313.195 283.836 311.053 284.218 309.752 283.836C306.232 282.767 304.395 280.172 304.395 276.202V251.465C304.395 241.998 293.988 241.159 287.407 244.823C287.128 244.962 286.89 245.173 286.719 245.434C286.576 245.664 286.497 245.927 286.489 246.197C286.506 255.537 286.506 264.877 286.489 274.217C286.489 278.263 286.489 281.393 282.969 283.149C281.328 283.97 279.433 284.127 277.679 283.586C275.925 283.045 274.448 281.849 273.557 280.248C273.063 278.932 272.854 277.527 272.945 276.125V239.632C272.945 234.593 287.025 231.234 291.004 230.852C298.274 229.859 304.548 231.463 309.981 235.738C310.287 236.043 310.67 236.043 311.053 235.738C319.47 229.936 331.714 228.638 341.126 233.677C347.247 236.96 349.314 244.671 349.39 251.236V277.347C349.16 286.203 335.846 286.203 335.769 276.812V254.519C335.769 250.855 335.463 248.259 334.621 246.885C331.79 241.617 323.908 242.304 319.011 244.671C318.693 244.818 318.426 245.058 318.246 245.358C318.074 245.631 317.994 245.952 318.016 246.274C318.858 258.413 318.246 270.552 316.256 282.691ZM412.98 273.071C412.98 279.332 413.515 284.371 421.014 283.913C425.912 282.462 426.065 278.645 425.988 273.835L425.759 250.931C425.682 234.364 413.133 229.172 398.593 230.852C392.907 231.209 387.393 232.938 382.524 235.891C380.228 237.341 380.152 239.174 380.075 241.693L380.152 277.652C380.305 285.745 392.625 286.585 392.931 277.347C393.007 275.285 393.084 264.902 393.007 246.197C393.003 245.883 393.097 245.575 393.275 245.315C393.453 245.055 393.707 244.857 394.002 244.747C400.813 241.846 412.98 241.388 412.98 251.847V273.071ZM160.228 231.615C158.131 231.169 156.011 230.838 153.877 230.623C148.827 230.394 131.533 230.623 131.15 237.799C130.768 246.121 138.879 243.907 144.388 242.457L145.383 242.227C147.143 241.769 149.975 241.693 154.03 241.998C155.561 241.998 156.938 242.609 158.009 243.525C159.157 244.518 159.999 245.739 160.305 247.114L160.841 249.175C161.606 252.076 160.381 253.145 157.397 252.229C144.695 248.793 125.335 252.763 127.783 269.559C130.155 286.585 153.035 285.516 164.973 281.469C167.268 280.706 173.161 278.416 173.39 275.82C173.543 271.163 173.543 261.848 173.161 247.953C173.008 239.555 168.646 234.135 160.228 231.615ZM159.387 261.085C155.087 259.843 150.563 259.582 146.148 260.322C138.343 262.23 138.496 271.544 146.455 273.071C150.893 273.911 155.255 273.377 159.693 271.392C159.995 271.293 160.262 271.107 160.458 270.857C160.63 270.584 160.71 270.263 160.688 269.941V262.765C160.668 262.395 160.532 262.04 160.298 261.752C160.064 261.464 159.745 261.258 159.387 261.161V261.085ZM245.856 282.767C240.956 283.349 235.989 282.96 231.241 281.622C219.15 278.11 215.094 263.07 224.736 255.206C230.705 250.473 242.107 250.167 249.223 252C252.207 252.763 253.279 251.771 252.59 248.946L252.131 246.808C251.366 243.983 249.529 242.304 246.468 241.922C241.112 241.159 237.668 241.922 233.46 242.915L231.776 243.296C227.185 244.212 222.594 243.296 223.129 238.028C223.435 235.204 225.042 233.371 227.95 232.531C231.516 231.533 235.191 230.969 238.893 230.852C251.442 229.63 264.374 233.448 264.91 247.419C265.293 256.81 265.369 265.437 265.14 273.148C265.14 275.514 264.91 276.812 262.538 278.034C257.411 280.706 251.825 282.309 245.78 282.767H245.856ZM252.361 265.666L252.437 269.788C252.437 270.17 252.207 270.476 251.825 270.552C246.086 272.842 232.694 274.827 232.388 266.2C232.082 257.42 245.627 258.871 251.519 260.703C251.901 260.856 252.131 261.085 252.208 261.467L252.361 265.666Z" fill="white"/>
</svg>
