<svg width="500" height="500" viewBox="0 0 500 500" fill="none" xmlns="http://www.w3.org/2000/svg">
<rect width="500" height="500" fill="#2E3886"/>
<path fill-rule="evenodd" clip-rule="evenodd" d="M180.641 254.853C179.728 254.853 179.443 255.243 179.728 256.133L185.606 273.596C186.061 275.042 187.089 275.543 188.572 275.153L191.825 274.264C193.194 273.875 193.593 274.264 192.966 275.543C191.711 278.046 190.683 280.937 189.942 284.163C189.599 285.665 188.231 286.777 186.575 286.777H176.248C173.395 286.777 170.885 284.83 170.256 282.105C169.832 280.417 169.412 278.75 168.998 277.103L168.997 277.1C167.349 270.551 165.781 264.322 164.322 258.413C163.638 255.632 161.869 254.464 159.13 254.91C157.818 255.132 156.791 256.078 156.505 257.301C154.679 264.697 152.739 272.484 150.629 280.603C150.172 282.383 150.057 284.44 150.8 286.165C150.913 286.444 150.8 286.721 150.514 286.833H150.343C145.322 286.777 140.073 286.833 134.595 286.999C134.081 286.999 133.625 286.833 133.283 286.444C132.94 286.11 132.769 285.553 132.883 285.053C138.589 262.362 143.895 240.506 148.86 219.482C149.316 217.536 148.86 216.09 148.232 214.254C148.06 213.699 148.232 213.42 148.86 213.476C150.112 213.583 151.312 213.638 152.46 213.691L152.626 213.699C161.356 213.81 171.169 213.81 182.011 213.699C189.2 213.643 198.843 213.699 198.843 223.375C198.843 231.162 197.588 238.503 194.963 245.399C192.509 251.85 187.717 254.91 180.756 254.853H180.641ZM181.84 237.558C183.438 233.887 184.236 225.155 178.131 224.71C174.251 224.432 169.686 224.432 164.494 224.71C163.98 224.71 163.638 224.989 163.524 225.489L159.529 242.563C159.358 243.286 159.815 243.954 160.557 244.12H160.842C161.956 244.12 163.082 244.114 164.216 244.108C166.511 244.095 168.841 244.083 171.169 244.12C176.305 244.12 179.9 241.951 181.84 237.558Z" fill="white"/>
<path fill-rule="evenodd" clip-rule="evenodd" d="M94.4812 262.973C92.5412 269.313 90.8864 275.598 89.5171 281.826C89.2318 283.217 89.5171 284.496 90.5441 285.664C90.7723 285.942 90.7153 286.276 90.487 286.498C90.373 286.61 90.2017 286.665 90.0877 286.665L74.8529 286.387C73.2553 286.387 72 285.108 72 283.551C72 283.328 72 283.105 72.1141 282.939C77.5347 261.471 83.0124 240.393 88.6041 219.649C89.0605 217.869 88.8894 216.09 87.9765 214.254C87.8052 213.865 87.9765 213.642 88.3758 213.642C100.986 213.642 113.311 213.697 125.464 213.81C132.083 213.81 136.248 216.145 137.96 220.65C139.329 224.209 139.615 227.88 138.873 231.606C136.191 245.565 131.798 262.139 113.254 261.638C107.662 261.471 101.956 261.526 96.1358 261.638C95.3371 261.638 94.6523 262.194 94.4241 262.917L94.4812 262.973ZM108.86 249.793C119.587 249.959 121.698 236.167 121.584 228.102C121.584 225.098 118.218 224.32 115.707 224.32H105.665C105.094 224.32 104.638 224.654 104.523 225.211L97.9047 249.125C97.9047 249.125 98.0187 249.681 98.304 249.736H98.4182C100.606 249.736 102.842 249.783 105.127 249.832C106.357 249.858 107.602 249.884 108.86 249.904V249.793Z" fill="white"/>
<path fill-rule="evenodd" clip-rule="evenodd" d="M199.071 267.866C200.041 276.208 201.981 281.659 211.054 284.606H211.11C220.925 287.776 231.195 287.164 241.808 282.715C248.541 279.934 253.391 274.985 256.472 267.866C259.953 259.802 262.464 249.791 264.004 237.723C265.146 228.602 261.55 218.48 251.507 215.699C242.607 213.196 233.877 213.196 225.318 215.755C207.288 221.094 201.753 242.894 199.243 258.689C198.729 261.637 198.672 264.696 199.071 267.866ZM214.762 262.86C215.618 252.961 220.582 229.325 232.222 226.488V226.433C236.444 225.431 245.003 224.931 246.772 229.825C247.971 233.05 248.313 236.221 247.971 239.28C246.601 250.792 243.177 260.58 237.699 268.756C234.79 273.094 230.339 274.874 224.234 274.206C217.33 273.427 214.191 269.646 214.762 262.86Z" fill="white"/>
<path d="M390.506 272.487C391.818 273.042 393.13 273.321 394.5 273.376C397.353 273.46 400.249 273.46 403.173 273.46C406.098 273.46 409.05 273.46 412.017 273.544C414.927 273.654 417.494 272.876 419.606 271.374C420.405 270.819 420.748 270.985 420.576 271.931L420.544 272.147C420.098 275.077 419.651 278.008 419.15 280.94C418.636 284.166 416.354 286.668 412.874 286.668H384.23C380.122 286.668 371.734 286.057 371.22 281.107C370.992 279.272 370.992 277.381 371.106 275.434C372.304 256.859 375.842 240.062 381.661 225.158C383.888 219.43 386.912 213.868 394.044 213.478C400.377 213.089 411.276 212.923 426.795 213.034C428.735 213.034 429.535 213.98 429.021 215.814C428.764 216.872 428.492 217.931 428.221 218.989L428.22 218.994L428.219 218.996C427.949 220.049 427.679 221.102 427.423 222.155C426.966 223.935 425.369 225.158 423.486 225.158C417.095 225.213 410.363 225.269 403.23 225.325C400.492 225.325 398.836 227.493 397.98 229.774C393.587 241.119 390.678 252.52 389.308 263.921C389.022 266.425 389.137 268.983 389.65 271.485C389.765 271.931 390.049 272.32 390.506 272.487Z" fill="#EF6E18"/>
<path d="M343.086 240.338C343.372 240.449 343.715 240.505 343.999 240.505C351.246 240.727 358.835 240.727 366.765 240.505C368.192 240.505 368.762 241.116 368.534 242.507L367.507 248.569C367.165 250.794 365.796 251.906 363.513 251.906H342.23C340.461 251.906 338.865 253.074 338.522 254.798L334.527 272.65C334.414 273.262 334.813 273.93 335.44 274.041H359.975C361.457 274.041 362.825 273.675 364.233 273.299L364.234 273.299C364.562 273.212 364.891 273.123 365.226 273.039C365.453 272.984 365.739 273.096 365.796 273.373V273.485C365.796 277.267 364.94 286.554 359.576 286.61C346.944 286.718 333.518 286.618 319.196 286.511H319.195L317.524 286.499C316.669 286.499 315.926 286.054 315.47 285.331C315.013 284.608 314.9 283.885 315.071 283.162C319.921 262.529 325.227 240.95 330.933 218.481C331.332 216.924 331.275 215.479 330.705 214.032C330.419 213.365 330.705 213.031 331.39 213.031L376.636 213.254C377.892 213.254 378.292 213.865 377.95 214.977L376.009 221.484C375.496 223.209 373.898 224.376 372.072 224.376H346.338C345.825 224.432 345.369 224.821 345.254 225.322L342.459 239.338C342.401 239.782 342.63 240.172 343.03 240.282L343.086 240.338Z" fill="#EF6E18"/>
<path d="M269.654 227.158C274.391 226.824 279.297 226.824 284.433 227.047V226.992C284.889 227.047 285.06 227.27 284.945 227.659L270.909 283.997C270.51 285.61 271.137 286.444 272.85 286.444L287.456 286.722C288.027 286.778 288.37 286.5 288.483 285.943C292.592 266.478 297.157 247.124 302.064 227.936C302.235 227.213 302.748 226.881 303.49 226.881L318.553 227.102C319.98 227.102 321.235 226.158 321.578 224.822L323.802 216.202C324.145 214.867 323.689 214.367 322.319 214.644C320.722 214.978 319.067 215.146 317.355 215.146H271.822C270.168 215.146 268.798 216.314 268.57 217.926L267.543 224.933C267.315 226.491 268 227.27 269.654 227.158Z" fill="#EF6E18"/>
</svg>
