<svg width="500" height="500" viewBox="0 0 500 500" fill="none" xmlns="http://www.w3.org/2000/svg">
<rect width="500" height="500" fill="#D0303C"/>
<path d="M114.18 166.026C114.18 166.026 119.14 160.1 125.609 153.168C125.609 153.168 170.772 210.112 179.625 220.977C181.889 223.774 226.458 277.952 232.987 284.481C239.537 291.02 287.98 347.089 287.98 347.089L324.017 388.046L316.814 390.37L258.562 323.155C258.562 323.155 234.617 294.823 232.987 293.204C231.368 291.564 203.047 259.45 203.047 259.45C203.047 259.45 175.279 229.489 170.389 224.589C150.771 205.001 114.18 166.016 114.18 166.016V166.026Z" fill="white"/>
<path d="M127.822 150.996C127.822 150.996 135.871 143.692 140.891 139.598C140.891 139.598 172.009 179.408 174.202 181.581C176.365 183.774 199.807 214.802 202.513 217.518C205.23 220.245 235.724 255.628 235.724 255.628L276.188 303.015L343.978 379.859L337.901 382.645L270.041 304.463L229.738 258.717L198.529 223.142L161.133 183.573L127.832 150.996H127.822Z" fill="white"/>
<path d="M143.688 137.484C143.688 137.484 153.598 129.717 158.206 128.057L195.612 175.594L230.794 218.422L265.997 259.44L299.741 297.54L349.109 354.172L362.409 369.636L356.634 373.147L330.959 343.618L293.583 300.81L253.652 255.064L222.434 219.861L185.802 179.95L143.668 137.463L143.688 137.484Z" fill="white"/>
<path d="M161.123 126.236C161.123 126.236 166.908 122.755 177.17 117.734L211.196 161.821L252.576 211.179L293.946 260.185L344.048 317.863L374.532 352.724L379.321 357.502L373.828 361.808L335.325 318.235L285.253 259.46L245.322 214.438L209.395 174.879L161.113 126.246L161.123 126.236Z" fill="white"/>
<path d="M180.289 116.367C180.289 116.367 184.968 114.405 196.9 110.119L235.523 158.189L289.217 221.713L333.867 274.331L378.537 326.234L394.594 343.408L389.543 348.509L360.005 313.9L313.554 260.538L274.357 215.164L229.708 165.443L201.377 136.77L180.279 116.357L180.289 116.367Z" fill="white"/>
<path d="M111.433 169.688C111.433 169.688 83.4645 202.797 84.0078 250.003C85.0038 332.591 162.492 399.526 259.296 399.526C274.227 399.526 288.734 397.956 302.558 394.928C302.558 394.928 143.698 212.224 111.433 169.688Z" fill="white"/>
<path d="M201.296 108.871C219.466 103.438 238.973 100.48 259.296 100.48C319.389 100.48 372.429 126.236 404 165.543V333.488C404 333.488 221.327 122.282 200.058 108.861" fill="white"/>
</svg>
