<svg width="500" height="500" viewBox="0 0 500 500" fill="none" xmlns="http://www.w3.org/2000/svg">
<rect width="500" height="500" fill="#00529E"/>
<path fill-rule="evenodd" clip-rule="evenodd" d="M316.091 248.637H329.135L320.349 203.477H308.891V224.566L310.946 220.751L313.378 233.177H308.891V242.579H315.191L316.091 248.637Z" fill="white"/>
<path fill-rule="evenodd" clip-rule="evenodd" d="M277.969 248.678L283.435 211.657L284.644 203.477H283.435H269.478L267.342 218.629H254.313L256.435 203.477H241.27L241.364 203.597L234.928 248.678H250.068L252.499 230.799H265.542L262.802 248.678H277.969Z" fill="white"/>
<path fill-rule="evenodd" clip-rule="evenodd" d="M308.823 203.477H305.854L283.434 246.502L282.212 248.637H283.434H296.451L299.5 242.579H308.823V233.177H304.645L308.89 224.686V224.566L308.823 224.686V203.477Z" fill="white"/>
<path fill-rule="evenodd" clip-rule="evenodd" d="M377.356 248.637L382.179 212.866L383.698 203.477H382.179L370.747 203.557L367.121 229.013L354.373 203.557H341.344L334.681 248.637H347.71L351.042 225.291L364.313 248.637H377.356Z" fill="white"/>
<path fill-rule="evenodd" clip-rule="evenodd" d="M380.984 248.637H382.179H395.223L398.246 242.579H407.649H414.043L415.265 248.637H428L419.201 203.477H407.689V224.686L409.812 220.751L412.229 233.177H407.649H403.404L407.649 224.686V203.477H404.626L382.179 246.22L380.984 248.637Z" fill="white"/>
<path fill-rule="evenodd" clip-rule="evenodd" d="M283.957 331.76C203.036 331.76 137.536 294.148 137.536 247.737C137.536 201.325 203.022 163.754 283.957 163.754C323.677 163.754 359.759 173.157 386.127 187.934C353.996 166.709 305.53 153.383 251.542 153.383C154.516 153.451 76 196.785 76 249.9C76 303.256 154.462 346.617 251.488 346.617C327.869 346.617 392.736 319.63 416.997 282.34C394.362 311.436 343.075 331.76 283.957 331.76Z" fill="white"/>
<path fill-rule="evenodd" clip-rule="evenodd" d="M288.551 279.036L291.48 263.184L291.721 261.977H291.48H284.897L280.505 271.971L279.766 261.977H273.184L270.014 279.036H274.407L276.609 266.368L277.577 278.794L281.231 279.036L286.657 266.597L284.455 279.036H288.551Z" fill="white"/>
<path fill-rule="evenodd" clip-rule="evenodd" d="M360.89 266.625C360.984 266.033 360.947 265.428 360.783 264.851C360.621 264.277 360.326 263.748 359.923 263.306C359.527 262.861 359.036 262.512 358.485 262.286C357.932 262.059 357.336 261.958 356.739 261.99H352.856V265.403H354.321C354.541 265.38 354.762 265.413 354.966 265.496C355.168 265.578 355.348 265.707 355.49 265.873C355.637 266.035 355.739 266.235 355.785 266.45C355.839 266.666 355.839 266.892 355.785 267.109C355.649 267.589 355.363 268.014 354.966 268.318C354.58 268.617 354.111 268.79 353.622 268.814H352.897V274.672L354.604 279.063H360.46L358.256 273.449C358.256 273.449 357.774 271.5 356.067 271.245C357.233 271.02 358.309 270.466 359.17 269.648C360.016 268.822 360.612 267.774 360.89 266.625Z" fill="white"/>
<path fill-rule="evenodd" clip-rule="evenodd" d="M350.155 268.879L350.652 265.467H352.841V262.055H346.984L344.298 276.683L343.801 279.128H348.932L350.141 272.304H351.377C351.377 272.304 352.102 272.049 352.345 273.513L352.841 274.736V268.879H350.155Z" fill="white"/>
<path fill-rule="evenodd" clip-rule="evenodd" d="M367.191 278.944L370.172 261.844H364.987L362.3 277.453V277.48L362.072 278.944H362.3H367.191Z" fill="white"/>
<path fill-rule="evenodd" clip-rule="evenodd" d="M314.048 277.48L313.819 278.944H314.048H318.923L321.06 266.707H326.701L327.71 261.844H321.906H316.721H311.147L310.434 266.707H315.888L314.048 277.453V277.48Z" fill="white"/>
<path fill-rule="evenodd" clip-rule="evenodd" d="M392.296 261.844L389.622 277.453V277.48L389.381 278.944H389.622H391.167H392.766H394.499H402.29L403.029 275.062H395.17L397.481 261.844H392.296Z" fill="white"/>
<path fill-rule="evenodd" clip-rule="evenodd" d="M343.263 265.726L344.016 261.844H334.788H329.602L326.325 278.944H329.602H331.2H340.724L341.477 275.062H332.02L332.638 272.121H342.042L342.779 268.238H333.444L333.968 265.726H343.263Z" fill="white"/>
<path fill-rule="evenodd" clip-rule="evenodd" d="M308.985 279.036L306.486 261.977H300.494L290.743 279.036H296.116L297.459 275.852H303.491V279.036H308.985ZM303.021 272.642H299.421L303.021 266.059V272.642Z" fill="white"/>
<path fill-rule="evenodd" clip-rule="evenodd" d="M387.057 279.036L384.558 261.977H378.567L368.842 279.036H374.214L375.558 275.852H381.59V279.036H387.057ZM381.052 272.642H377.452L381.052 266.059V272.642Z" fill="white"/>
<path fill-rule="evenodd" clip-rule="evenodd" d="M414.514 261.574C407.421 261.574 406.817 265.765 406.817 266.705C406.817 267.645 406.642 271.179 413.01 271.797C413.01 271.797 414.971 271.958 414.904 273.69C414.836 275.423 413.681 275.92 412.217 275.813C410.363 275.665 409.531 275.142 409.531 272.965H405.124C404.939 274.321 405.072 275.7 405.513 276.994C406.239 278.621 409.195 279.238 412.499 279.238C415.804 279.238 420.089 276.39 420.196 272.253C420.304 268.115 414.394 268.063 414.394 268.063C414.394 268.063 411.491 268.236 411.491 266.06C411.491 263.884 416.126 263.374 416.005 266.45H421.043C421.043 266.45 421.66 261.574 414.514 261.574Z" fill="white"/>
</svg>
