<svg width="500" height="500" viewBox="0 0 500 500" fill="none" xmlns="http://www.w3.org/2000/svg">
<rect width="500" height="500" fill="#0261A1"/>
<path d="M125.1 320.675C125.083 334.7 129.451 348.382 137.595 359.801C145.74 371.221 157.25 379.809 170.517 384.361C183.783 388.913 198.143 389.203 211.582 385.189C225.022 381.175 236.87 373.059 245.468 361.977C246.924 360.117 248.28 358.177 249.527 356.17C258.775 352.515 266.709 346.162 272.298 337.938C277.889 329.713 280.874 319.998 280.87 310.054V222.728C280.87 209.583 286.092 196.977 295.387 187.682C304.681 178.388 317.289 173.166 330.433 173.166C343.577 173.166 356.185 178.388 365.479 187.682C374.774 196.977 379.996 209.583 379.996 222.728V212.108C379.996 194.269 372.909 177.159 360.295 164.545C347.68 151.93 330.571 144.843 312.732 144.843C294.893 144.843 277.783 151.93 265.169 164.545C252.554 177.159 245.468 194.269 245.468 212.108V357.54C238.071 359.745 230.261 360.193 222.661 358.845C215.061 357.499 207.881 354.397 201.692 349.785C195.502 345.173 190.476 339.179 187.013 332.282C183.55 325.384 181.745 317.772 181.743 310.054V304.035L125.1 320.675Z" fill="white"/>
<path d="M270.249 144.843C282.634 144.843 292.671 134.804 292.671 122.422C292.671 110.039 282.634 100 270.249 100C257.867 100 247.829 110.039 247.829 122.422C247.829 134.804 257.867 144.843 270.249 144.843Z" fill="#DB3B56"/>
</svg>
