<svg width="500" height="500" viewBox="0 0 500 500" fill="none" xmlns="http://www.w3.org/2000/svg">
<rect width="500" height="500" fill="#F36F20"/>
<path d="M84 300.557V302.263L84.3176 302.784C84.4766 303.073 84.7364 303.217 85.0686 303.217L103.681 303.189C104.331 303.189 104.793 302.9 105.068 302.336L122.886 266.561C122.958 266.417 123.074 266.3 123.218 266.229C123.594 266.026 124.041 266.17 124.229 266.547L142.235 302.277C142.524 302.842 143.088 303.189 143.694 303.189L163.664 303.217C164.458 303.217 164.675 302.871 164.285 302.162L134.337 247.734C134.149 247.387 134.149 246.982 134.323 246.635L162.206 195.055C162.581 194.361 162.379 194 161.585 194H142.524C141.412 194 140.604 194.506 140.113 195.504L124.099 228.025C124.041 228.141 123.94 228.242 123.825 228.3C123.536 228.444 123.161 228.328 123.016 228.025L106.829 194.723C106.613 194.275 106.165 194 105.66 194L85.4007 194.029C85.2995 194.029 85.1985 194.058 85.1118 194.101C84.8231 194.26 84.7075 194.636 84.8664 194.925L112.764 246.548C113.009 246.982 113.009 247.416 112.764 247.864L84 300.557Z" fill="white"/>
<path d="M174.35 194H192.083C192.513 194 192.862 194.35 192.862 194.781V302.422C192.862 302.854 192.513 303.203 192.083 303.203H174.35C173.92 303.203 173.57 302.854 173.57 302.422V194.781C173.57 194.35 173.92 194 174.35 194Z" fill="white"/>
<path d="M230.794 194.028H213.409C212.906 194.028 212.499 194.435 212.499 194.939V302.291C212.499 302.793 212.906 303.202 213.409 303.202H230.794C231.297 303.202 231.705 302.793 231.705 302.291V194.939C231.705 194.435 231.297 194.028 230.794 194.028Z" fill="white"/>
<path d="M251.847 194H269.983C270.27 194 270.503 194.233 270.503 194.52V302.682C270.503 302.971 270.27 303.203 269.983 303.203H251.847C251.559 303.203 251.326 302.971 251.326 302.682V194.52C251.326 194.233 251.559 194 251.847 194Z" fill="white"/>
<path fill-rule="evenodd" clip-rule="evenodd" d="M378.874 228.59C385.314 222.344 393.516 220.737 403.48 223.789C413.862 226.97 418.54 237.266 419.363 247.446C420.057 255.862 420.187 264.856 419.739 274.443C419.479 279.923 418.569 284.868 416.996 289.279C412.476 301.932 400.188 305.864 387.914 303.218C383.986 302.38 380.824 299.936 378.009 297.174C377.142 296.321 376.737 296.509 376.81 297.724L377.056 302.077C377.098 302.654 376.651 303.147 376.073 303.189H360.16C359.756 303.189 359.439 302.872 359.439 302.467V195.1C359.439 194.377 359.8 194.016 360.522 194.016H376.622C377.127 194.016 377.546 194.435 377.546 194.941V228.025C377.561 229.255 377.994 229.443 378.874 228.59ZM401.502 254.213C401.127 249.051 399.149 242.428 393.545 240.852C386.181 238.77 379.987 242.327 378.585 249.875C377.228 257.091 377.085 265.217 378.153 274.269C378.933 280.849 382.153 285.967 389.575 285.997C398.542 286.026 401.127 278.637 401.573 271.247C401.935 265.536 401.906 259.853 401.502 254.213Z" fill="white"/>
<path fill-rule="evenodd" clip-rule="evenodd" d="M301.622 303.347C309.837 304.707 318.776 304.128 324.711 297.36H324.725C325.389 296.594 325.794 296.725 325.938 297.722C326.125 299.024 326.097 300.325 325.88 301.64C325.865 301.713 325.865 301.785 325.865 301.858C325.865 302.609 326.458 303.203 327.194 303.203H342.269C342.977 303.203 343.324 302.84 343.324 302.133C343.396 284.477 343.396 266.806 343.324 249.107C343.222 226 324.176 220.403 304.639 222.862C297.506 223.744 291.658 227.012 287.081 232.651C286.677 233.158 286.691 233.634 287.123 234.112L297.42 245.333C297.824 245.767 298.214 245.752 298.574 245.275C302.965 239.664 309.462 237.929 318.053 240.069C325.404 241.906 325.576 249.064 325.071 255.281C325.042 255.658 324.711 255.946 324.335 255.933C317.881 255.7 311.527 255.7 305.289 255.946C292.611 256.438 283.918 265.259 283.543 277.869C283.197 289.971 288.77 301.206 301.622 303.347ZM315.137 287.427C307.686 288.323 300.177 286.241 301.101 277.073C301.607 271.997 306.011 269.423 310.79 269.467C315.671 269.51 320.177 269.496 324.306 269.395H324.363C324.87 269.423 325.259 269.842 325.23 270.349C325.19 271.304 325.195 272.279 325.199 273.257C325.216 277.209 325.234 281.211 322.328 284.144C320.523 285.966 318.126 287.064 315.137 287.427Z" fill="white"/>
</svg>
