<svg width="500" height="500" viewBox="0 0 500 500" fill="none" xmlns="http://www.w3.org/2000/svg">
<rect width="500" height="500" fill="white"/>
<g clip-path="url(#clip0_589_2687)">
<path d="M82.5511 232.173C90.2348 232.173 96.8897 235.365 100.513 238.286L108.25 228.06C101.597 222.921 92.3451 220 82.3352 220C62.3705 220 48.25 232.931 48.25 249.972C48.25 267.014 62.3705 280 82.3352 280C92.7769 280 102.137 276.971 108.847 271.451L100.784 261.496L100.353 261.875C96.7267 264.743 90.1268 267.825 82.5511 267.825C70.215 267.825 61.0179 260.683 61.0179 249.97C61.0179 239.258 70.2171 232.171 82.5511 232.171V232.173ZM214.781 232.173C222.518 232.173 229.12 235.365 232.744 238.286L240.48 228.06C233.825 222.921 224.573 220 214.566 220C194.601 220 180.48 232.931 180.48 249.972C180.48 267.014 194.601 280 214.566 280C225.007 280 234.367 276.971 241.077 271.451L233.015 261.496L232.583 261.875C228.957 264.743 222.357 267.825 214.781 267.825C202.445 267.825 193.303 260.683 193.303 249.97C193.303 239.258 202.447 232.171 214.781 232.171V232.173ZM339.112 267.827C326.397 267.827 317.526 260.469 317.526 249.972C317.526 239.476 326.399 232.173 339.112 232.173C351.825 232.173 360.645 239.531 360.645 249.972C360.645 260.414 351.772 267.827 339.112 267.827ZM339.112 220C319.2 220 304.214 232.876 304.214 249.972C304.214 267.069 319.2 280 339.11 280C359.02 280 373.953 267.124 373.953 249.972C373.953 232.821 358.967 220 339.112 220ZM416.912 267.827C404.197 267.827 395.325 260.469 395.325 249.972C395.325 239.476 404.199 232.173 416.914 232.173C429.629 232.173 438.447 239.531 438.447 249.972C438.447 260.414 429.574 267.827 416.914 267.827H416.912ZM416.912 220C397.002 220 382.016 232.876 382.016 249.972C382.016 267.069 397.002 280 416.912 280C436.821 280 451.755 267.124 451.755 249.972C451.755 232.821 436.768 220 416.912 220Z" fill="#585856"/>
<path d="M308.003 221.242H290.041L261.418 247.915V221.242H248.866V278.484H261.418V251.488L290.796 278.539H308.921L277.162 249.269L308.003 221.242ZM160.244 255.327C160.244 260.414 157.323 267.719 143.906 267.719C128.377 267.719 128.214 257.438 128.214 255.327V221.242H115.607V257.709C115.607 267.501 124.157 280 143.903 280C163.65 280 172.794 267.232 172.794 257.709V221.242H160.242V255.327H160.244Z" fill="#585856"/>
</g>
<defs>
<clipPath id="clip0_589_2687">
<rect width="403.505" height="60" fill="white" transform="translate(48.25 220)"/>
</clipPath>
</defs>
</svg>
