<svg width="500" height="500" viewBox="0 0 500 500" fill="none" xmlns="http://www.w3.org/2000/svg">
<rect width="500" height="500" fill="white"/>
<path d="M403.952 200.365C403.952 228.937 380.725 252.071 352.039 252.071C323.352 252.071 300.173 228.937 300.173 200.365C300.173 171.794 323.4 148.66 352.039 148.66C380.676 148.66 403.952 171.794 403.952 200.365Z" fill="#8A2432"/>
<path d="M100 351.188C150.141 351.188 159.575 310.216 159.575 269.482L159.671 269.53V149.09C109.482 149.09 100.096 190.064 100.096 230.75L100 351.188Z" fill="#002D5D"/>
<path d="M166.948 149.09C217.136 149.09 226.523 190.064 226.523 230.798H226.475L226.571 351.237C176.429 351.237 167.043 310.264 167.043 269.53L166.948 149.09Z" fill="#002D5D"/>
<path d="M404 351.332C403.664 312.695 399.114 272.247 354.385 263.327C312.673 254.981 301.945 236.95 300.221 226.218V269.432C300.221 310.024 309.464 351.332 359.892 351.332H404Z" fill="#002D5D"/>
<path d="M233.993 230.798C233.993 190.11 243.379 149.09 293.521 149.09L293.425 269.53C293.425 310.264 284.133 351.237 233.993 351.237V230.798Z" fill="#002D5D"/>
</svg>
