<svg width="500" height="500" viewBox="0 0 500 500" fill="none" xmlns="http://www.w3.org/2000/svg">
<rect width="500" height="500" fill="#EF3225"/>
<path d="M258.994 218.437C258.936 218.429 258.877 218.434 258.821 218.453C258.765 218.47 258.716 218.501 258.674 218.543C258.633 218.584 258.601 218.635 258.583 218.691C258.564 218.747 258.559 218.806 258.567 218.864V227.832C258.572 227.947 258.621 228.055 258.704 228.134C258.787 228.214 258.897 228.259 259.012 228.259H329.043C329.102 228.251 329.161 228.255 329.217 228.273C329.272 228.292 329.323 228.323 329.365 228.364C329.406 228.406 329.437 228.457 329.456 228.513C329.474 228.568 329.48 228.628 329.47 228.686V238.081C329.47 238.371 329.317 238.508 329.027 238.508H258.994C258.884 238.511 258.78 238.559 258.704 238.638C258.627 238.718 258.585 238.824 258.585 238.935V248.33C258.585 248.442 258.63 248.551 258.71 248.631C258.79 248.711 258.898 248.757 259.012 248.757H329.043C329.102 248.747 329.161 248.753 329.217 248.771C329.272 248.79 329.323 248.821 329.365 248.862C329.406 248.904 329.437 248.955 329.456 249.01C329.474 249.066 329.48 249.125 329.47 249.184V258.15C329.467 258.279 329.412 258.4 329.32 258.489C329.227 258.58 329.104 258.629 328.976 258.629C307.716 258.629 285.51 258.629 262.359 258.629C251.256 258.629 246.696 252.667 246.628 242.026C246.628 234.271 246.714 227.439 246.885 221.529C247.312 210.034 255.647 207.95 265.52 208.001C290.196 208.172 311.382 208.229 329.078 208.172C329.138 208.163 329.201 208.169 329.259 208.188C329.317 208.208 329.371 208.24 329.415 208.283C329.46 208.326 329.494 208.377 329.516 208.435C329.537 208.493 329.545 208.555 329.539 208.615V218.01C329.539 218.125 329.495 218.235 329.415 218.318C329.335 218.402 329.227 218.45 329.112 218.454L258.994 218.437Z" fill="white"/>
<path d="M70.668 219.291V247.901C70.6506 248.017 70.6608 248.136 70.6976 248.247C70.7345 248.359 70.7969 248.461 70.8799 248.544C70.9629 248.627 71.0643 248.689 71.1758 248.725C71.2873 248.762 71.4059 248.773 71.522 248.755H141.128C141.185 248.747 141.244 248.751 141.3 248.77C141.355 248.788 141.406 248.82 141.448 248.862C141.489 248.903 141.521 248.953 141.539 249.009C141.558 249.064 141.563 249.124 141.555 249.182V258.15C141.555 258.44 141.417 258.577 141.128 258.577C118.489 258.577 96.4831 258.577 75.1091 258.577C66.3636 258.577 58.7284 253.795 59.0188 244.605C59.2009 238.581 59.2009 232.465 59.0188 226.26C58.6259 213.74 64.3992 208.444 76.6805 208.513C98.5442 208.58 120.026 208.615 141.128 208.615C141.193 208.603 141.261 208.607 141.323 208.627C141.387 208.646 141.446 208.681 141.492 208.729C141.539 208.775 141.575 208.833 141.594 208.897C141.614 208.96 141.618 209.028 141.606 209.093V218.01C141.606 218.127 141.558 218.24 141.475 218.324C141.392 218.407 141.28 218.453 141.161 218.453H71.522C71.4075 218.437 71.2906 218.447 71.1807 218.483C71.0706 218.519 70.9704 218.58 70.8877 218.661C70.8051 218.742 70.7422 218.841 70.7041 218.95C70.6659 219.059 70.6536 219.176 70.668 219.291Z" fill="white"/>
<path d="M223.549 227.724V209.139C223.549 208.999 223.606 208.864 223.704 208.766C223.804 208.666 223.938 208.61 224.079 208.61H234.993C235.134 208.61 235.268 208.666 235.368 208.766C235.467 208.864 235.523 208.999 235.523 209.139V258.043C235.523 258.183 235.467 258.318 235.368 258.417C235.268 258.517 235.134 258.572 234.993 258.572H224.079C223.938 258.572 223.804 258.517 223.704 258.417C223.606 258.318 223.549 258.183 223.549 258.043V239.032C223.549 238.891 223.493 238.757 223.394 238.657C223.295 238.557 223.16 238.502 223.02 238.502H165.149C165.009 238.502 164.874 238.557 164.774 238.657C164.676 238.757 164.62 238.891 164.62 239.032V258.043C164.62 258.183 164.564 258.318 164.465 258.417C164.365 258.517 164.231 258.572 164.09 258.572H153.176C153.035 258.572 152.901 258.517 152.801 258.417C152.701 258.318 152.646 258.183 152.646 258.043V209.123C152.646 208.983 152.701 208.848 152.801 208.748C152.901 208.65 153.035 208.594 153.176 208.594H164.073C164.213 208.594 164.348 208.65 164.448 208.748C164.547 208.848 164.602 208.983 164.602 209.123V227.724C164.602 227.794 164.616 227.863 164.643 227.927C164.67 227.991 164.709 228.049 164.758 228.099C164.807 228.147 164.866 228.186 164.93 228.214C164.994 228.24 165.062 228.254 165.132 228.254H223.003C223.073 228.255 223.144 228.243 223.211 228.218C223.277 228.192 223.337 228.154 223.388 228.105C223.439 228.055 223.48 227.995 223.507 227.93C223.534 227.865 223.549 227.795 223.549 227.724Z" fill="white"/>
<path d="M351.98 208.608H341.082C340.789 208.608 340.552 208.846 340.552 209.137V258.058C340.552 258.35 340.789 258.587 341.082 258.587H351.98C352.272 258.587 352.509 258.35 352.509 258.058V209.137C352.509 208.846 352.272 208.608 351.98 208.608Z" fill="white"/>
<path d="M376.843 248.322H442.708C442.747 248.316 442.787 248.32 442.825 248.333C442.863 248.346 442.897 248.366 442.925 248.395C442.953 248.423 442.975 248.458 442.988 248.496C443 248.534 443.003 248.574 442.997 248.613V258.11C442.994 258.223 442.947 258.328 442.868 258.408C442.788 258.487 442.683 258.533 442.57 258.537C421.732 258.708 399.72 258.668 376.536 258.417C368.166 258.338 363.89 253.993 363.707 245.385C363.491 234.977 363.451 222.884 363.588 209.105C363.576 209.039 363.579 208.972 363.599 208.908C363.62 208.844 363.654 208.786 363.701 208.74C363.749 208.692 363.806 208.658 363.87 208.638C363.934 208.618 364 208.614 364.067 208.626H375.135C375.193 208.618 375.253 208.622 375.308 208.641C375.364 208.659 375.414 208.691 375.455 208.733C375.497 208.774 375.529 208.824 375.547 208.881C375.566 208.937 375.57 208.996 375.562 209.053V247.041C375.536 247.216 375.551 247.394 375.606 247.561C375.662 247.728 375.755 247.88 375.88 248.005C376.005 248.129 376.156 248.223 376.324 248.278C376.491 248.333 376.669 248.348 376.843 248.322Z" fill="white"/>
<path d="M217.514 279.6C216.703 281.172 216.343 282.938 216.476 284.703C216.609 286.466 217.228 288.159 218.266 289.592C222.434 295.058 227.666 295.627 233.964 291.301C234.493 290.941 234.749 291.078 234.714 291.728L234.629 293.948C234.618 294.202 234.542 294.449 234.407 294.664C234.272 294.88 234.085 295.057 233.86 295.178C214.952 305.631 203.747 275.449 224.005 270.718C225.635 270.314 227.33 270.244 228.989 270.511C230.647 270.778 232.234 271.377 233.655 272.271C233.915 272.416 234.134 272.619 234.298 272.866C234.462 273.112 234.564 273.396 234.595 273.69L234.834 275.585C234.954 276.559 234.629 276.764 233.826 276.217C227.096 271.708 221.659 272.836 217.514 279.6Z" fill="white"/>
<path d="M421.255 291.536C425.07 294.951 429.414 295.077 434.288 291.912C435.638 291.04 436.134 291.381 435.774 292.92C435.739 293.054 435.731 293.195 435.752 293.333C435.772 293.471 435.82 293.603 435.894 293.722C436.003 293.921 436.031 294.153 435.975 294.373C435.918 294.591 435.779 294.781 435.587 294.9C419.702 304.979 405.525 281.936 420.897 272.508C422.928 271.203 425.282 270.489 427.696 270.447C430.109 270.405 432.486 271.036 434.562 272.268C434.977 272.465 435.326 272.777 435.565 273.168C435.805 273.56 435.925 274.013 435.912 274.472C435.909 274.922 435.88 275.373 435.826 275.821C435.712 276.641 435.319 276.795 434.647 276.283C423.596 267.52 411.571 282.893 421.255 291.536Z" fill="white"/>
<path d="M68.6941 281.212H77.8153C77.9693 281.212 78.1171 281.272 78.226 281.382C78.3349 281.491 78.3961 281.638 78.3961 281.792V283.603C78.3875 283.752 78.3231 283.894 78.2156 283.998C78.108 284.102 77.9652 284.163 77.8153 284.166H68.7624C68.6084 284.166 68.4606 284.228 68.3518 284.336C68.2429 284.445 68.1817 284.593 68.1817 284.748V293.39C68.1857 293.54 68.2458 293.683 68.3502 293.79C68.4547 293.898 68.5956 293.962 68.7453 293.97L78.4644 294.141C78.5407 294.144 78.6157 294.161 78.6854 294.192C78.755 294.224 78.8177 294.268 78.8702 294.324C78.9225 294.38 78.9634 294.445 78.9904 294.516C79.0176 294.587 79.0304 294.663 79.028 294.739V296.448C79.0194 296.595 78.9544 296.735 78.8463 296.836C78.7384 296.938 78.5956 296.995 78.4473 296.994L65.8586 297.097C65.7824 297.097 65.7068 297.081 65.6364 297.053C65.5659 297.023 65.5019 296.981 65.4479 296.926C65.3941 296.873 65.3512 296.809 65.3221 296.739C65.2929 296.668 65.2778 296.593 65.2778 296.516V271.526C65.2778 271.372 65.339 271.225 65.4479 271.116C65.5569 271.007 65.7046 270.945 65.8586 270.945H78.3448C78.4989 270.945 78.6466 271.007 78.7555 271.116C78.8643 271.225 78.9255 271.372 78.9255 271.526V273.234C78.9174 273.382 78.8554 273.52 78.7514 273.625C78.6474 273.728 78.5088 273.791 78.3619 273.798H68.8649C68.7109 273.798 68.5631 273.859 68.4542 273.969C68.3454 274.078 68.2842 274.225 68.2842 274.379V280.46C68.2581 280.536 68.2482 280.617 68.255 280.697C68.2619 280.778 68.2852 280.855 68.3238 280.926C68.3623 280.996 68.4152 281.059 68.4789 281.108C68.5427 281.156 68.6159 281.192 68.6941 281.212Z" fill="white"/>
<path d="M120.303 294.019L126.178 294.208C126.325 294.213 126.464 294.273 126.566 294.379C126.668 294.484 126.725 294.625 126.725 294.771V296.326C126.725 296.476 126.666 296.619 126.56 296.725C126.454 296.83 126.311 296.89 126.161 296.89L116.886 297.043C116.737 297.043 116.594 296.983 116.488 296.878C116.382 296.772 116.323 296.629 116.323 296.479V271.507C116.327 271.361 116.389 271.222 116.494 271.12C116.599 271.018 116.74 270.961 116.886 270.961H119.175C119.325 270.961 119.468 271.02 119.574 271.126C119.68 271.231 119.739 271.375 119.739 271.524V293.456C119.739 293.531 119.754 293.603 119.782 293.672C119.81 293.741 119.852 293.802 119.904 293.854C119.956 293.907 120.019 293.948 120.087 293.977C120.155 294.005 120.229 294.019 120.303 294.019Z" fill="white"/>
<path d="M166.317 284.762V293.49C166.317 293.64 166.377 293.783 166.484 293.889C166.589 293.994 166.733 294.054 166.882 294.054L176.361 294.173C176.505 294.177 176.64 294.233 176.744 294.331C176.849 294.428 176.913 294.561 176.926 294.704V296.308C176.928 296.383 176.915 296.457 176.889 296.525C176.863 296.595 176.822 296.658 176.773 296.713C176.722 296.766 176.661 296.81 176.594 296.84C176.526 296.871 176.452 296.887 176.379 296.89L163.414 297.026C163.265 297.026 163.121 296.967 163.015 296.861C162.91 296.756 162.851 296.612 162.851 296.463V271.524C162.851 271.375 162.91 271.231 163.015 271.126C163.121 271.02 163.265 270.961 163.414 270.961H176.395C176.545 270.961 176.688 271.02 176.794 271.126C176.9 271.231 176.959 271.375 176.959 271.524V273.386C176.947 273.528 176.883 273.66 176.779 273.758C176.674 273.856 176.538 273.912 176.395 273.915H166.915C166.766 273.915 166.622 273.975 166.517 274.08C166.411 274.186 166.352 274.329 166.352 274.479V280.611C166.352 280.76 166.411 280.904 166.517 281.009C166.622 281.116 166.766 281.175 166.915 281.175H176.088C176.162 281.177 176.235 281.194 176.303 281.224C176.371 281.255 176.431 281.297 176.482 281.352C176.533 281.405 176.572 281.469 176.598 281.538C176.624 281.608 176.637 281.682 176.635 281.755L176.446 283.463C176.43 283.601 176.363 283.728 176.259 283.819C176.156 283.91 176.022 283.96 175.883 283.959H166.95C166.8 283.959 166.657 284.018 166.551 284.124C166.446 284.229 166.386 284.373 166.386 284.522L166.317 284.762Z" fill="white"/>
<path d="M278.024 273.978H272.899C272.746 273.978 272.597 273.917 272.488 273.807C272.379 273.698 272.319 273.551 272.319 273.397V271.689C272.319 271.535 272.379 271.387 272.488 271.279C272.597 271.17 272.746 271.108 272.899 271.108H287.504C287.657 271.108 287.805 271.17 287.914 271.279C288.023 271.387 288.084 271.535 288.084 271.689L288.033 273.379C288.028 273.526 287.968 273.665 287.862 273.767C287.756 273.869 287.615 273.926 287.469 273.926H282.344C282.191 273.926 282.043 273.988 281.934 274.097C281.825 274.206 281.764 274.353 281.764 274.507V296.353C281.764 296.508 281.703 296.656 281.594 296.765C281.486 296.873 281.337 296.935 281.183 296.935H279.475C279.326 296.926 279.185 296.861 279.08 296.754C278.976 296.646 278.916 296.504 278.912 296.353V274.507C278.912 274.353 278.85 274.206 278.741 274.097C278.632 273.988 278.485 273.926 278.331 273.926L278.024 273.978Z" fill="white"/>
<path d="M327.741 287.187V295.728C327.76 295.899 327.743 296.071 327.691 296.235C327.639 296.398 327.553 296.548 327.439 296.676C327.324 296.803 327.184 296.905 327.027 296.975C326.869 297.044 326.7 297.079 326.529 297.078H325.521C324.752 297.078 324.36 296.804 324.36 296.019V273.813C324.36 271.337 325.572 270.295 328.015 270.688L332.61 271.508C333.402 271.586 334.172 271.822 334.873 272.2C335.574 272.579 336.193 273.093 336.694 273.713C337.194 274.333 337.566 275.046 337.789 275.811C338.011 276.576 338.08 277.377 337.99 278.17C338.06 279.759 337.607 281.329 336.701 282.638C335.793 283.945 334.483 284.92 332.968 285.412C332.302 285.668 332.183 286.077 332.592 286.642L339.271 296.053C339.327 296.132 339.367 296.221 339.389 296.314C339.411 296.408 339.414 296.505 339.398 296.601C339.382 296.696 339.348 296.787 339.297 296.869C339.246 296.951 339.178 297.022 339.1 297.078C339.011 297.135 338.913 297.175 338.809 297.198C338.285 297.3 337.746 297.3 337.221 297.198C336.749 297.121 336.299 296.946 335.899 296.684C335.498 296.422 335.158 296.079 334.898 295.677L328.886 286.88C328.117 285.788 327.741 285.906 327.741 287.187ZM327.741 274.429V282.183C327.741 282.342 327.804 282.494 327.917 282.606C328.028 282.718 328.181 282.781 328.339 282.781H328.784C332.012 282.781 334.642 281.073 334.642 278.768V277.845C334.642 275.624 332.012 273.831 328.784 273.831H328.339C328.181 273.831 328.028 273.894 327.917 274.005C327.804 274.118 327.741 274.27 327.741 274.429Z" fill="white"/>
<path d="M378.591 270.905H376.814C376.361 270.905 375.995 271.273 375.995 271.725V296.254C375.995 296.707 376.361 297.073 376.814 297.073H378.591C379.044 297.073 379.411 296.707 379.411 296.254V271.725C379.411 271.273 379.044 270.905 378.591 270.905Z" fill="white"/>
<path d="M327.741 274.462C327.741 274.304 327.804 274.151 327.917 274.04C328.028 273.927 328.181 273.864 328.339 273.864H328.784C332.012 273.864 334.642 275.572 334.642 277.879V278.801C334.642 281.021 332.012 282.816 328.784 282.816H328.339C328.181 282.816 328.028 282.753 327.917 282.64C327.804 282.527 327.741 282.375 327.741 282.218V274.462Z" fill="#EF3225"/>
</svg>
