<svg width="500" height="500" viewBox="0 0 500 500" fill="none" xmlns="http://www.w3.org/2000/svg">
<rect width="500" height="500" fill="#575656"/>
<path d="M216.691 132.98C216.691 132.98 114.807 184.745 101.803 222.871C88.7993 260.997 148.765 263.284 197.088 249.656C245.411 236.028 290.549 224.468 290.549 224.468C290.549 224.468 243.807 222.481 221.018 194.731C199.591 168.589 216.691 132.98 216.691 132.98Z" fill="#CECECE"/>
<path d="M197.086 249.657L290.547 224.469C290.547 224.469 373.532 198.133 394.959 227.641C416.386 257.149 362.582 306.421 362.582 306.421C362.582 306.421 320.409 345.696 288.713 367.022C288.713 367.022 306.736 322.542 281.213 287.576C255.909 252.955 197.086 249.657 197.086 249.657Z" fill="url(#paint0_linear_430_416)"/>
<defs>
<linearGradient id="paint0_linear_430_416" x1="197.086" y1="290.334" x2="400.001" y2="290.334" gradientUnits="userSpaceOnUse">
<stop stop-color="#BF0620"/>
<stop offset="1" stop-color="#F11440"/>
</linearGradient>
</defs>
</svg>
