<svg width="500" height="500" viewBox="0 0 500 500" fill="none" xmlns="http://www.w3.org/2000/svg">
<rect width="500" height="500" fill="#F4591C"/>
<path d="M62.3908 277.71H48V222.011H62.3908V277.71ZM83.6471 277.71H69.9163V222.011H82.3268L104.375 257.967L103.715 222.011H117.578V277.71H105.035L83.119 244.762L83.6471 277.71ZM140.022 277.71H126.159V222.011H138.57L160.618 257.967L160.09 222.011H173.953V277.71H161.41L139.362 244.762L140.022 277.71ZM209.732 278.756C201.282 278.756 194.285 276.926 188.608 271.304C182.931 265.812 180.026 259.013 180.026 250.776C180.026 242.539 182.931 235.609 188.608 230.118C194.285 224.626 201.414 221.75 209.732 221.75C218.182 221.75 225.311 224.496 231.12 230.118C236.929 235.74 239.834 242.539 239.834 250.645C239.834 258.752 236.929 265.551 231.12 271.173C225.311 276.926 218.182 278.756 209.732 278.756ZM209.864 234.433C205.375 234.433 201.81 236.002 198.774 239.139C195.869 242.277 194.417 246.069 194.417 250.645C194.417 255.352 195.869 259.275 198.906 262.413C201.942 265.551 205.639 267.12 210.128 267.12C214.485 267.12 218.05 265.551 220.954 262.413C223.859 259.275 225.311 255.483 225.311 250.907C225.311 246.2 223.859 242.408 220.822 239.27C217.918 236.002 214.221 234.433 209.864 234.433ZM274.293 266.989C280.366 266.989 284.855 263.982 287.892 257.706H303.075C301.49 264.243 298.058 269.604 292.776 273.526C287.495 277.579 281.422 278.625 274.425 278.625C266.107 278.625 259.11 276.664 253.301 271.042C247.492 265.42 244.587 258.621 244.587 250.515C244.587 242.408 247.492 235.609 253.169 230.118C258.846 224.626 265.975 221.75 274.293 221.75C285.251 221.75 293.701 226.195 299.378 235.217C301.358 238.224 302.546 241.231 303.075 244.108H287.892C286.835 241.101 284.987 238.747 282.478 237.048C279.97 235.348 277.197 234.433 274.161 234.433C269.804 234.433 266.239 236.002 263.335 239.139C260.43 242.277 258.978 246.069 258.978 250.645C258.978 255.221 260.43 259.144 263.335 262.282C266.371 265.42 269.936 266.989 274.293 266.989ZM339.778 277.71H308.356V222.011H339.778V235.217H322.218V243.716H339.25V256.398H322.218V265.42H339.778V277.71ZM384.007 277.71L381.234 270.519H361.562L358.525 277.71H342.946L365.787 222.011H377.273L399.718 277.71H384.007ZM371.596 240.185L365.655 259.144H377.405L371.596 240.185ZM418.069 277.71H404.207V222.011H416.617L438.797 257.967L438.137 222.011H452V277.71H439.458L417.541 244.892L418.069 277.71Z" fill="white"/>
</svg>
