<svg width="500" height="500" viewBox="0 0 500 500" fill="none" xmlns="http://www.w3.org/2000/svg">
<rect width="500" height="500" fill="white"/>
<path d="M110.974 218.094C109.845 218.094 108.726 218.316 107.683 218.748C106.639 219.181 105.691 219.814 104.892 220.613C104.094 221.412 103.46 222.36 103.028 223.403C102.596 224.447 102.373 225.565 102.373 226.695C102.373 227.824 102.596 228.943 103.028 229.986C103.46 231.03 104.094 231.978 104.892 232.777C105.691 233.576 106.639 234.209 107.683 234.641C108.726 235.074 109.845 235.296 110.974 235.296C113.22 235.242 115.355 234.312 116.924 232.705C118.493 231.098 119.371 228.941 119.371 226.695C119.371 224.449 118.493 222.292 116.924 220.685C115.355 219.078 113.22 218.148 110.974 218.094ZM110.974 230.386C109.994 230.386 109.053 229.997 108.359 229.305C107.665 228.612 107.274 227.673 107.271 226.692C107.272 225.711 107.663 224.77 108.358 224.077C109.052 223.384 109.993 222.994 110.974 222.994C111.954 222.998 112.892 223.389 113.584 224.082C114.277 224.775 114.667 225.713 114.67 226.692C114.67 228.73 113.007 230.386 110.974 230.386ZM311.862 226.189C311.867 226.256 312.026 233.104 312.074 238.628V265.983L285.121 225.658H277.726L277.759 226.209C277.764 226.326 278.392 238.054 278.392 245.289V257.768C278.392 265.581 277.764 276.748 277.759 276.861L277.724 277.412H284.52L284.505 276.871C284.5 276.798 284.255 269.414 284.255 262.9V237.782L311.071 277.162L311.226 277.412H317.969V245.296C318.024 239.768 318.583 226.331 318.59 226.201L318.613 225.655H311.849L311.862 226.189ZM146.584 249.9C143.808 248.498 141.574 247.596 139.327 246.531C137.678 245.764 136.056 244.943 134.461 244.069C131.621 242.538 129.982 240.982 129.982 237.59C129.982 233.291 133.317 230.483 139.643 230.433H139.855C143.519 230.433 146.442 231.244 149.13 232.077C152.09 232.967 153.492 233.309 153.546 233.321L154.192 233.483V226.914L153.781 226.827C153.716 226.81 147.222 225.396 140.925 225.396C135.394 225.396 131.459 226.615 128.127 228.912C124.798 231.289 123.054 234.605 123.087 238.496C123.087 246.808 129.878 249.75 137.07 252.97L139.885 254.222C145.352 256.608 149.329 258.771 149.294 263.963C149.28 270.688 143.606 273.085 137.596 273.085C133.424 273.085 129.426 271.853 126.498 270.955C126.045 270.809 125.589 270.67 125.132 270.536C124.385 270.305 123.623 270.124 122.852 269.995L122.251 269.913V276.265L122.556 276.407C122.618 276.432 123.197 276.694 124.583 276.973C124.795 277.013 129.79 278.005 137.232 278.005C141.11 278.005 145.913 277.449 150.342 274.771C154.559 272.227 156.783 268.317 156.783 263.461C156.841 255.765 152.003 252.643 146.584 249.9ZM89.1534 231.865L89.1834 231.299C89.3106 229.014 89.2831 226.443 89.2831 226.418L89.2781 225.897H81.6745V236.052L74.6045 235.89V242.005L81.6745 241.88V268.584C81.6745 273.08 84.1459 275.155 86.2107 276.095C88.8492 277.367 92.2583 277.507 94.595 277.507C96.0738 277.507 99.4529 277.247 99.5976 277.24L100.081 277.205V271.559H99.029C98.4978 271.559 97.6349 271.631 96.6798 271.743C95.4354 271.861 94.4354 271.908 93.6324 271.866C91.1036 271.758 90.1435 271.023 89.4702 269.955C88.6921 268.688 88.6472 267.003 88.6422 265.412V241.875L100.081 242.005V235.895L88.939 236.057C89.0138 234.533 89.0911 233.109 89.1534 231.865ZM64.098 232.039L64.1404 231.301C64.2751 229.027 64.2377 226.423 64.2377 226.403L64.2277 225.884H56.0155L56.0055 226.393C56.0055 226.423 55.9632 229.027 56.1128 231.296C56.2923 234.693 56.5667 239.84 56.649 245.424V257.848C56.5667 263.429 56.2998 268.397 56.1128 272.023C55.9632 274.277 56.0055 276.883 56.0055 276.908L56.0155 277.419H64.2252L64.2352 276.908C64.2352 276.883 64.2751 274.277 64.1379 272.028L64.0955 271.245C63.9085 267.771 63.6491 263.017 63.5992 257.86V245.436C63.6491 240.266 63.9085 235.513 64.098 232.039ZM216.578 257.763V245.279C216.578 238.556 217.209 226.331 217.216 226.209L217.244 225.658H209.316V247.321H184.58V225.658H176.649L176.674 226.209C176.679 226.328 177.32 238.169 177.32 245.279V257.763C177.32 265.205 176.679 276.748 176.674 276.866L176.647 277.412H184.58V253.277H209.316V277.412H217.246L217.216 276.866C217.209 276.748 216.578 265.394 216.578 257.763ZM459.456 272.033C451.733 272.292 444.628 272.432 436.862 272.452C436.599 267.559 436.447 262.66 436.406 257.761V245.281C436.431 239.418 436.76 233.999 436.935 231.084C437.069 228.797 437.007 226.194 437.007 226.164L436.994 225.655H428.762L428.755 226.166C428.755 226.199 428.725 228.8 428.845 231.084C429.017 233.994 429.341 239.406 429.403 245.279V257.751C429.343 263.658 429.019 269.085 428.845 272.008C428.725 274.262 428.755 276.868 428.755 276.898L428.822 277.414H460V272.013L459.456 272.033ZM411.328 226.176C411.328 226.209 411.478 229.63 411.478 235.516V255.082C411.478 267.828 407.969 272.636 399.006 272.636C389.54 272.636 385.505 268.818 385.505 256.601V235.523C385.552 230.094 385.669 226.209 385.672 226.171L385.689 225.635H377.684L377.724 226.191C377.729 226.259 378.183 233.351 378.183 240.389V256.419C378.183 275.454 388.816 277.893 398.076 277.893C410.909 277.893 417.286 272.215 417.286 256.267V240.389C417.286 233.984 417.735 226.264 417.74 226.186L417.772 225.635H411.306L411.328 226.176ZM357.746 249.573C365.232 247.329 366.863 242.91 366.863 237.059C366.863 234.373 365.701 225.62 350.795 225.62L331.955 225.618L331.987 226.174C331.994 226.291 332.668 237.92 332.628 243.633V260.449C332.67 266.085 331.994 276.756 331.987 276.868L331.952 277.429H349.474C361.649 277.429 368.629 272.222 368.629 263.152C368.629 255.449 364.973 250.9 357.746 249.573ZM339.93 232.209C339.955 231.812 339.975 231.224 339.99 230.722H347.925C359.327 230.722 359.327 236.428 359.327 238.301C359.327 240.995 358.758 247.239 346.533 247.239H339.93V232.209ZM349.474 272.272L347.548 272.287C345.995 272.297 343.905 272.312 342.209 272.312C341.077 272.312 340.409 272.302 340.012 272.297C339.998 271.556 339.971 270.815 339.93 270.075V252.077H345.875C356.865 252.077 360.803 255.204 360.803 262.544C360.803 263.539 360.486 272.272 349.474 272.272ZM259.581 250.967C258.394 248.204 248.965 226.109 248.965 226.109L248.833 225.79H246.691L223.71 277.454H231.087L231.192 277.07C231.204 277.013 232.673 271.571 237.808 259.608H255.317C255.99 261.217 258.868 268.122 258.868 268.137C261.534 274.192 262.357 277.045 262.364 277.075L262.472 277.454H271.355L271.003 276.704C270.966 276.636 267.537 269.384 259.581 250.967ZM249.898 254.765H239.825L246.616 238.678L253.304 254.765H249.898Z" fill="black"/>
</svg>
