<svg width="500" height="500" viewBox="0 0 500 500" fill="none" xmlns="http://www.w3.org/2000/svg">
<rect width="500" height="500" fill="#444444"/>
<path d="M92.0847 259.544C88.4475 268.247 79.1958 271.228 70.5255 268.951C63.0341 266.978 58.862 260.373 58.1562 252.812C56.9154 239.577 63.0341 227.956 77.6758 229.075C89.2464 229.959 94.163 239.312 93.9536 249.987C93.8839 253.533 93.2635 256.718 92.0847 259.544ZM84.6941 241.887C82.8173 236.854 77.0088 234.498 72.2394 236.643C65.7639 239.562 65.0427 248.484 66.5084 254.675C67.4855 258.816 70.5177 262.455 74.8839 262.76C86.2606 263.567 87.6799 249.901 84.6941 241.887Z" fill="white"/>
<path d="M442 257.377V260.899C440.954 265.431 438.371 268.17 434.253 269.117C428.84 270.37 422.039 269.704 417.727 265.838C417.487 265.626 417.479 265.399 417.704 265.164L419.076 263.749C419.27 263.544 419.487 263.529 419.712 263.693C423.047 266.111 426.924 267.113 431.345 266.699C436.897 266.174 441.062 261.423 438.51 256C436.185 251.03 430.647 251.335 426.149 249.84C420.449 247.938 417.96 244.151 418.665 238.46C419.147 234.578 421.418 232.042 425.474 230.845C430.514 229.365 435.339 230.125 439.953 233.122C440.271 233.326 440.372 233.757 440.163 234.085C440.116 234.164 440.054 234.226 439.977 234.281C439.628 234.531 439.325 234.844 439.077 235.22C438.806 235.635 438.472 235.697 438.069 235.408C434.913 233.177 431.182 232.52 426.863 233.436C419.138 235.087 419.828 244.752 426.808 247.078C432.935 249.12 440.829 248.94 442 257.377Z" fill="white"/>
<path d="M112.489 261.931C114.373 262.659 116.358 262.76 118.46 262.236C121.741 261.406 122.935 258.809 122.927 255.592C122.888 247.452 122.873 239.344 122.873 231.274C122.873 230.906 123.051 230.727 123.416 230.727H130.31C130.644 230.727 130.814 230.899 130.814 231.235C130.884 240.542 130.868 248.838 130.775 256.108C130.759 257.658 130.488 259.27 129.953 260.938C127.34 269.178 118.739 270.705 111.31 269.218C103.772 267.708 101.058 261.783 101.127 254.441C101.197 247.045 101.213 239.258 101.166 231.086C101.166 230.844 101.275 230.727 101.515 230.727H108.696C108.859 230.727 108.945 230.82 108.945 230.985C108.913 238.67 108.913 246.536 108.945 254.59C108.96 257.884 109.456 260.757 112.489 261.931Z" fill="white"/>
<path d="M154.487 237.669V268.99C154.487 269.148 154.355 269.28 154.2 269.28L146.824 269.265C146.67 269.265 146.538 269.132 146.538 268.975V237.669C146.538 237.513 146.406 237.379 146.251 237.379H135.773C135.618 237.387 135.486 237.253 135.486 237.097V231.016C135.486 230.86 135.618 230.727 135.773 230.727H165.25C165.406 230.727 165.538 230.86 165.538 231.016V237.09C165.538 237.246 165.406 237.379 165.25 237.379H154.773C154.619 237.379 154.487 237.513 154.487 237.669Z" fill="white"/>
<path d="M180.797 230.75H173.367C173.222 230.75 173.105 230.87 173.105 231.017V269.024C173.105 269.17 173.222 269.289 173.367 269.289H180.797C180.943 269.289 181.061 269.17 181.061 269.024V231.017C181.061 230.87 180.943 230.75 180.797 230.75Z" fill="white"/>
<path d="M199.269 243.045V269.022C199.269 269.163 199.161 269.272 199.021 269.272H192.15C192.01 269.272 191.902 269.163 191.902 269.022V230.976C191.902 230.836 192.01 230.727 192.15 230.727H200.131C200.223 230.734 200.301 230.789 200.347 230.867L214.143 256.139C214.213 256.257 214.361 256.304 214.477 256.241C214.555 256.194 214.609 256.108 214.609 256.015L214.578 230.985C214.578 230.844 214.686 230.734 214.826 230.734H221.705C221.844 230.727 221.953 230.836 221.953 230.976V269.038C221.953 269.178 221.844 269.288 221.705 269.288L214.26 269.249C214.166 269.249 214.089 269.202 214.043 269.123L199.735 242.929C199.665 242.811 199.517 242.764 199.401 242.827C199.323 242.873 199.277 242.952 199.269 243.045Z" fill="white"/>
<path d="M239.609 233.716V247.694C239.609 247.835 239.718 247.945 239.858 247.945H255.453C255.592 247.945 255.702 248.062 255.702 248.203V250.434C255.702 250.574 255.592 250.684 255.453 250.684H239.865C239.726 250.684 239.618 250.793 239.618 250.935V269.03C239.618 269.171 239.508 269.28 239.369 269.28L237.152 269.265C237.011 269.265 236.903 269.155 236.903 269.015V230.976C236.903 230.836 237.011 230.727 237.152 230.727H258.175C258.314 230.727 258.423 230.836 258.423 230.976V233.216C258.423 233.356 258.314 233.466 258.175 233.466H239.865C239.726 233.466 239.609 233.575 239.609 233.716Z" fill="white"/>
<path d="M266.009 256.68C266.078 263.888 270.538 267.793 277.417 267.113C283.985 266.464 286.048 261.485 285.986 255.334C285.9 247.155 285.893 239.078 285.971 231.11C285.971 230.868 286.095 230.751 286.335 230.751H288.281C288.53 230.742 288.731 230.946 288.74 231.196C288.816 239.75 288.863 248.134 288.871 256.344C288.871 261.195 287.398 265.68 283.172 268.193C279.611 270.306 274.641 270.533 270.694 269.046C265.079 266.932 263.148 261.681 263.202 255.632C263.28 247.327 263.28 239.117 263.209 230.984C263.209 230.828 263.28 230.751 263.442 230.751H265.776C265.916 230.751 265.986 230.812 265.977 230.954C265.916 240.025 265.924 248.595 266.009 256.68Z" fill="white"/>
<path d="M307.854 233.716V269.03C307.854 269.171 307.746 269.28 307.606 269.28L305.388 269.265C305.249 269.265 305.14 269.155 305.14 269.015V233.716C305.14 233.575 305.032 233.466 304.892 233.466H293.942C293.802 233.466 293.694 233.356 293.694 233.216L293.709 230.976C293.709 230.836 293.817 230.727 293.958 230.727H319.06C319.2 230.727 319.308 230.836 319.308 230.976L319.27 233.216C319.27 233.356 319.161 233.466 319.022 233.466H308.102C307.963 233.466 307.854 233.575 307.854 233.716Z" fill="white"/>
<path d="M336.606 267.152C342.647 267.496 347.176 263.762 347.183 257.446C347.191 248.61 347.198 239.844 347.191 231.149C347.191 230.867 347.323 230.727 347.61 230.727H349.68C349.982 230.743 350.13 230.89 350.123 231.188C350.038 238.037 350.053 245.746 350.17 254.308C350.208 257.721 349.89 260.398 349.2 262.338C347.036 268.436 340.824 270.744 334.767 269.781C327.694 268.654 324.415 263.106 324.469 256.28C324.531 247.866 324.538 239.43 324.484 230.962C324.484 230.813 324.562 230.734 324.709 230.734H327.028C327.121 230.734 327.168 230.773 327.175 230.867C327.268 238.311 327.268 245.628 327.183 252.805C327.09 260.138 328.144 266.675 336.606 267.152Z" fill="white"/>
<path d="M361.555 251.271V269.076C361.555 269.187 361.47 269.273 361.361 269.273H358.639C358.514 269.273 358.453 269.202 358.453 269.069V230.945C358.453 230.812 358.554 230.71 358.686 230.71C362.603 230.773 366.696 230.757 370.947 230.664C373.746 230.601 375.91 230.906 377.422 231.579C381.85 233.56 383.083 238.381 382.37 242.896C381.734 246.888 379.477 249.401 375.592 250.425C375.344 250.496 375.196 250.762 375.266 251.013C375.266 251.029 375.274 251.044 375.281 251.06L382.269 268.826C382.385 269.124 382.292 269.273 381.974 269.273H379.732C379.43 269.273 379.159 269.085 379.051 268.803L372.125 251.115C372.016 250.825 371.807 250.685 371.496 250.685H362.136C361.749 250.685 361.555 250.88 361.555 251.271ZM361.555 233.763V247.647C361.555 247.812 361.686 247.945 361.849 247.945H372.909C376.6 247.945 379.593 245.095 379.593 241.582V239.828C379.593 236.315 376.6 233.465 372.909 233.465H361.849C361.686 233.465 361.555 233.598 361.555 233.763Z" fill="white"/>
<path d="M393.354 233.756V247.656C393.354 247.812 393.486 247.945 393.641 247.945H408.965C409.12 247.952 409.252 248.085 409.252 248.243V250.395C409.245 250.551 409.113 250.684 408.958 250.684H393.641C393.486 250.684 393.354 250.818 393.354 250.974V266.244C393.354 266.4 393.486 266.533 393.641 266.533H412.067C412.222 266.533 412.354 266.666 412.354 266.822V268.983C412.362 269.139 412.23 269.272 412.076 269.272H390.733C390.578 269.272 390.446 269.139 390.446 268.983V231.016C390.446 230.86 390.578 230.727 390.733 230.727H411.881C412.036 230.727 412.168 230.86 412.168 231.016L412.152 233.176C412.152 233.333 412.02 233.466 411.866 233.466H393.641C393.486 233.466 393.354 233.598 393.354 233.756Z" fill="white"/>
</svg>
