<svg width="500" height="500" viewBox="0 0 500 500" fill="none" xmlns="http://www.w3.org/2000/svg">
<rect width="500" height="500" fill="white"/>
<path d="M357.648 248.785C357.648 257.448 355.078 265.916 350.265 273.12C345.452 280.323 338.611 285.938 330.608 289.253C322.604 292.568 313.796 293.436 305.3 291.746C296.803 290.056 288.998 285.884 282.873 279.758C276.746 273.632 272.575 265.827 270.884 257.33C269.194 248.834 270.063 240.027 273.378 232.022C276.692 224.018 282.305 217.177 289.51 212.364C296.713 207.551 305.183 204.982 313.846 204.982C325.462 204.982 336.604 209.598 344.817 217.811C353.033 226.027 357.648 237.167 357.648 248.785Z" fill="#0067AF"/>
<path d="M228.042 249.889C228.35 225.7 208.99 205.841 184.801 205.533C160.611 205.225 140.752 224.583 140.445 248.774C140.137 272.963 159.495 292.821 183.684 293.13C207.875 293.438 227.734 274.078 228.042 249.889Z" fill="#D6001C"/>
<path d="M128.348 250.077C128.348 238.057 132.157 226.348 139.229 216.629C146.301 206.91 156.272 199.682 167.707 195.984V137.113H90V362.029H167.821V303.888C156.404 300.233 146.438 293.059 139.347 283.392C132.256 273.727 128.406 262.064 128.348 250.077Z" fill="#A2A3A6"/>
<path d="M288.878 198.852V137H211.059V199.526C223.864 206.153 233.688 217.384 238.554 230.959H261.045C265.767 217.027 275.758 205.502 288.878 198.852Z" fill="#A2A3A6"/>
<path d="M211.059 300.459V362.31H288.878V298.771C282.263 295.429 276.373 290.813 271.549 285.187C266.724 279.561 263.059 273.037 260.765 265.99H239.678C237.467 273.363 233.795 280.216 228.877 286.137C223.959 292.059 217.899 296.93 211.059 300.459Z" fill="#A2A3A6"/>
<path d="M332.18 137.113V196.21C343.135 200.016 352.635 207.141 359.356 216.592C366.079 226.044 369.691 237.355 369.691 248.953C369.691 260.552 366.079 271.862 359.356 281.314C352.635 290.765 343.135 297.89 332.18 301.696V362.423H410.001V137.507L332.18 137.113Z" fill="#A2A3A6"/>
</svg>
