<svg width="500" height="500" viewBox="0 0 500 500" fill="none" xmlns="http://www.w3.org/2000/svg">
<rect width="500" height="500" fill="black"/>
<path d="M305.847 252.59C305.057 251.848 304.54 250.862 304.378 249.79C304.525 248.693 305.043 247.68 305.847 246.92L393.317 147.17C394.437 145.56 394.227 144.93 392.337 144.93H329.359C325.421 144.77 321.492 145.414 317.811 146.822C314.13 148.23 310.774 150.373 307.947 153.12L268.061 196.24H267.361C263.372 159 258.334 121.27 252.036 84.59C251.906 83.8668 251.526 83.212 250.964 82.739C250.402 82.2661 249.692 82.0046 248.957 82C248.242 82.0449 247.561 82.3222 247.018 82.7897C246.475 83.2572 246.099 83.8893 245.948 84.59C239.721 120.85 234.752 158.16 230.624 194.77H229.924C205.153 167.4 179.332 139.82 152.951 113.92C152.384 113.499 151.697 113.272 150.991 113.272C150.286 113.272 149.599 113.499 149.032 113.92C148.501 114.374 148.132 114.988 147.981 115.67C147.829 116.351 147.904 117.064 148.192 117.7C164.777 150.67 183.18 183.71 201.444 215.7L201.094 216.12C164.987 208.49 127.969 201.42 91.5121 195.89C90.8137 195.793 90.1032 195.934 89.4942 196.289C88.8852 196.645 88.413 197.194 88.1533 197.85C87.3836 200.09 89.7627 201.42 89.7627 201.42C122.511 218.29 156.659 234.39 190.388 249.44V250C156.659 265.12 122.511 281.15 89.8327 298.02C89.2175 298.364 88.7289 298.897 88.4392 299.539C88.1494 300.182 88.0737 300.901 88.2233 301.59C88.496 302.251 88.981 302.803 89.6019 303.158C90.2228 303.513 90.9441 303.651 91.6521 303.55C128.039 298.02 165.196 290.95 201.374 283.39L201.724 283.88C183.32 315.94 165.057 349.05 148.542 381.88C148.22 382.503 148.131 383.221 148.292 383.904C148.452 384.587 148.852 385.19 149.418 385.604C149.984 386.018 150.679 386.216 151.378 386.162C152.078 386.108 152.735 385.806 153.231 385.31C179.471 359.34 205.293 331.83 230.204 304.39H230.694C234.822 341.21 239.721 378.73 246.018 415.2C246.125 415.928 246.472 416.6 247.005 417.108C247.537 417.615 248.225 417.929 248.957 418C249.68 417.979 250.373 417.711 250.921 417.239C251.469 416.767 251.838 416.122 251.966 415.41C258.264 378.87 263.232 341.21 267.361 304.32V303.2H267.851L305.847 344.36C310.312 349.636 316.518 353.138 323.341 354.23C325.902 354.702 328.507 354.89 331.109 354.79H392.057C393.947 354.79 394.157 354.16 393.037 352.55L305.847 252.59Z" fill="url(#paint0_linear_781_3042)"/>
<defs>
<linearGradient id="paint0_linear_781_3042" x1="88.0134" y1="250" x2="394.017" y2="250" gradientUnits="userSpaceOnUse">
<stop stop-color="#4AC1F1"/>
<stop offset="0.24" stop-color="#00B4ED"/>
<stop offset="0.52" stop-color="#0097E0"/>
<stop offset="0.78" stop-color="#007ECA"/>
<stop offset="1" stop-color="#0072BF"/>
</linearGradient>
</defs>
</svg>
