<svg width="500" height="500" viewBox="0 0 500 500" fill="none" xmlns="http://www.w3.org/2000/svg">
<rect width="500" height="500" fill="white"/>
<path d="M392.182 160.756C370.124 125.156 335.387 99.245 294.978 88.2479V88.1491C264.326 79.5647 231.853 79.9762 201.429 89.3345C200.935 89.5321 200.737 89.8285 201.133 90.3224C230.227 130.995 247.183 179.089 250.031 229.016C250.13 230.596 250.525 230.695 251.414 229.411C264.453 208.963 285.692 191.083 309.894 186.44C335.875 181.5 355.928 189.798 370.153 211.432C371.931 214.198 373.709 217.063 375.388 220.026C379.932 230.004 383.094 238.697 384.872 246.105C391.687 275.086 394.348 304.887 392.774 334.616C392.577 338.963 391.787 340.247 391.787 340.247C408.723 313.393 417.745 282.307 417.815 250.558C417.884 218.809 409 187.684 392.182 160.756Z" fill="url(#paint0_linear_781_3053)"/>
<path d="M192.736 407.322C192.968 407.451 193.198 407.583 193.427 407.717C228.674 363.067 258.547 314.428 282.432 262.8C292.706 240.475 325.008 208.172 350.89 231.584C364.72 244.13 371.437 266.356 374.401 284.631C378.082 307.12 379.472 329.925 378.549 352.694C378.385 356.757 378.056 358.72 378.056 358.72C356.036 384.599 326.703 403.212 293.911 412.116C261.119 421.019 226.401 419.795 194.316 408.606C193.724 408.31 193.131 408.013 192.736 407.322Z" fill="url(#paint1_linear_781_3053)"/>
<path d="M172.487 103.562C176.241 109.489 179.896 115.613 183.156 122.034C205.58 165.796 212.198 217.46 205.58 265.963C200.75 310.156 185.295 352.522 160.534 389.444C159.447 391.024 154.607 389.444 128.232 365.34C103.007 339.199 87.1649 305.43 83.1858 269.322C79.2141 236.264 85.2716 202.776 100.572 173.205C116.3 142.724 140.89 117.721 171.104 101.487C171.104 101.487 172.109 102.713 172.487 103.562Z" fill="url(#paint2_linear_781_3053)"/>
<defs>
<linearGradient id="paint0_linear_781_3053" x1="214.567" y1="249.958" x2="400.974" y2="318.218" gradientUnits="userSpaceOnUse">
<stop stop-color="#028FD4"/>
<stop offset="0.56" stop-color="#017DC5"/>
<stop offset="1" stop-color="#0F6FB9"/>
</linearGradient>
<linearGradient id="paint1_linear_781_3053" x1="214.567" y1="249.958" x2="400.974" y2="318.218" gradientUnits="userSpaceOnUse">
<stop stop-color="#028FD4"/>
<stop offset="0.56" stop-color="#017DC5"/>
<stop offset="1" stop-color="#0F6FB9"/>
</linearGradient>
<linearGradient id="paint2_linear_781_3053" x1="214.567" y1="249.958" x2="400.974" y2="318.218" gradientUnits="userSpaceOnUse">
<stop stop-color="#028FD4"/>
<stop offset="0.56" stop-color="#017DC5"/>
<stop offset="1" stop-color="#0F6FB9"/>
</linearGradient>
</defs>
</svg>
