<svg width="500" height="500" viewBox="0 0 500 500" fill="none" xmlns="http://www.w3.org/2000/svg">
<rect width="500" height="500" fill="#F9FBFB"/>
<path fill-rule="evenodd" clip-rule="evenodd" d="M75.8925 212H119.331L115.811 220.08C115.012 222 113.172 223.28 111.172 223.28H82.2124C81.6227 223.288 81.0538 223.499 80.602 223.878C80.1501 224.257 79.8429 224.78 79.7324 225.36L76.4525 242.319C78.5325 239.119 82.2124 238.319 83.8123 238.239H109.012L105.732 245.999C104.932 247.999 103.092 249.199 101.012 249.199H77.8125C77.2252 249.229 76.6661 249.46 76.229 249.853C75.792 250.246 75.5037 250.778 75.4125 251.359L73.4926 260.959C73.1726 262.559 74.3726 264.159 76.0525 264.159H105.012C108.212 264.159 110.612 267.199 110.052 270.558L109.012 275.998H67.6527C62.8529 275.998 59.253 271.438 60.1329 266.399L68.2927 218.64C68.5618 216.795 69.4859 215.109 70.8961 213.89C72.3063 212.671 74.1083 212 75.9725 212H75.8925ZM152.371 244.479L162.37 237.839C160.608 234.986 158.182 232.6 155.298 230.887C152.415 229.174 149.16 228.183 145.811 228C126.131 228 114.212 241.199 114.212 254.799C114.212 265.199 121.811 275.998 135.251 275.998C146.051 275.998 156.05 267.359 159.65 263.039L151.091 258.559C147.091 262.559 142.291 265.759 136.051 265.759C129.651 265.759 124.531 258.559 126.451 251.599C128.451 244.639 134.451 238.399 142.371 238.399C148.691 238.399 151.731 242.399 152.371 244.479ZM205.329 268.239C194.529 277.998 178.93 278.638 170.29 269.679C161.73 260.719 163.49 245.519 174.29 235.759C185.01 226 200.689 225.36 209.249 234.319C217.809 243.279 216.049 258.479 205.249 268.239H205.329ZM198.529 261.119C192.45 266.639 183.65 266.959 178.85 261.919C174.05 256.879 175.01 248.319 181.09 242.879C187.09 237.359 195.889 237.039 200.769 242.079C205.569 247.119 204.529 255.679 198.529 261.119Z" fill="#0E87D4"/>
<path fill-rule="evenodd" clip-rule="evenodd" d="M216.367 275.998L226.207 217.6C226.767 214.4 229.407 212 232.527 212H259.886C264.926 212 275.086 215.36 275.086 228.72C275.086 245.359 260.126 251.999 252.686 251.999H238.207C236.677 252.001 235.199 252.55 234.039 253.548C232.88 254.546 232.116 255.926 231.887 257.439L229.487 271.518C229.318 272.729 228.729 273.842 227.822 274.661C226.915 275.48 225.748 275.954 224.527 275.998H216.367ZM234.127 245.199L237.807 222.96H256.206C258.366 223.04 262.606 224.64 262.606 230.4C262.606 237.599 256.526 240.799 253.166 240.799H239.967C238.687 240.799 235.727 241.759 234.127 245.199ZM321.164 269.679C329.724 278.638 345.324 277.998 356.124 268.239C366.923 258.479 368.683 243.279 360.123 234.319C351.564 225.36 335.884 226 325.084 235.759C314.365 245.519 312.525 260.719 321.084 269.679H321.164ZM329.644 261.919C334.444 266.959 343.244 266.639 349.324 261.119C355.404 255.679 356.364 247.119 351.564 242.079C346.764 237.039 337.964 237.359 331.884 242.879C325.884 248.319 324.844 256.879 329.644 261.919ZM273.726 275.998L281.406 232.319C281.61 231.125 282.226 230.039 283.146 229.251C284.067 228.462 285.234 228.019 286.445 228H294.125L292.845 234.639C294.045 232.399 298.205 228 305.245 228H321.644L317.165 236.879C316.754 237.724 316.119 238.44 315.329 238.948C314.538 239.456 313.624 239.736 312.685 239.759H302.685C296.445 239.759 291.085 244.479 290.045 250.959L286.685 272.638C286.552 273.565 286.091 274.412 285.387 275.029C284.683 275.645 283.781 275.989 282.845 275.998H273.726Z" fill="#023E9A"/>
<path fill-rule="evenodd" clip-rule="evenodd" d="M406.764 275.998L412.444 245.119C412.483 244.808 412.635 244.522 412.871 244.316C413.107 244.109 413.41 243.997 413.724 243.999H418.523C419.083 243.999 419.643 244.479 419.723 245.119L423.723 268.799L436.603 244.719C436.706 244.508 436.864 244.329 437.062 244.202C437.259 244.075 437.488 244.005 437.723 243.999H442.683C443.483 243.999 444.123 244.799 443.963 245.599L438.363 275.998H434.923C434.123 275.998 433.563 275.198 433.723 274.398L437.483 251.679L424.603 275.998H420.443L416.283 251.679L412.044 274.878C412.007 275.176 411.866 275.451 411.647 275.656C411.427 275.861 411.143 275.982 410.844 275.998H406.844H406.764ZM393.724 275.998H382.204C381.633 275.973 381.074 275.826 380.564 275.567C380.054 275.308 379.606 274.942 379.25 274.494C378.893 274.047 378.637 273.529 378.498 272.974C378.359 272.419 378.341 271.841 378.444 271.278L382.764 247.279C383.084 245.359 384.684 243.999 386.524 243.999H397.964C401.164 243.999 405.404 245.919 405.404 251.119C405.404 255.279 401.004 258.399 398.764 259.439C403.484 259.439 404.524 263.199 404.524 265.039C404.524 272.398 397.324 275.438 393.724 275.998ZM388.284 249.919C388.323 249.608 388.475 249.322 388.711 249.116C388.947 248.909 389.251 248.797 389.564 248.799H395.964C398.604 248.799 400.444 251.359 399.644 253.919C399.433 254.737 398.958 255.462 398.292 255.983C397.627 256.504 396.809 256.79 395.964 256.799H389.804C388.781 256.85 387.812 257.277 387.084 257.999L388.284 249.999V249.919ZM385.084 269.679L386.444 262.639C386.498 262.356 386.646 262.099 386.863 261.91C387.081 261.721 387.356 261.612 387.644 261.599H396.044C397.004 261.759 398.924 262.719 398.924 265.759C398.924 269.439 395.164 271.358 393.404 271.358H386.284C385.484 271.358 384.844 270.558 385.004 269.759L385.084 269.679Z" fill="#FD5F07"/>
</svg>
