<svg width="500" height="500" viewBox="0 0 500 500" fill="none" xmlns="http://www.w3.org/2000/svg">
<rect width="500" height="500" fill="#E60013"/>
<path d="M82.0003 237.257C82.0003 241.453 82.6694 245.71 84.2506 249.724C91.6091 267.907 110.218 279.036 133.753 269.549C139.409 267.299 296.066 204.235 296.066 204.235C296.066 204.235 234.34 360.527 232.09 366.365C223.089 388.745 233.853 409.057 252.28 415.868C256.355 417.328 260.551 418.057 264.747 417.996C279.647 417.875 292.904 409.118 299.35 391.482C300.384 388.806 377.436 177.051 379.199 171.942C380.173 168.962 381.997 161.847 381.997 156.982C381.997 146.522 378.105 136.609 370.625 129.19C363.266 121.831 353.536 118 343.197 118C338.211 118 334.075 118.912 327.872 120.919C324.163 122.075 125.3 196.085 108.333 202.471C91.305 208.796 81.9395 222.357 82.0003 237.257Z" fill="white"/>
</svg>
