<svg width="500" height="500" viewBox="0 0 500 500" fill="none" xmlns="http://www.w3.org/2000/svg">
<rect width="500" height="500" fill="#F9FBFB"/>
<path d="M328.375 140.667C333.212 139.803 337.964 139.716 342.801 140.667C361.979 144.04 369.666 162.11 370.876 179.574C371.653 190.9 370.272 202.4 367.853 213.726C367.853 213.812 367.853 213.986 368.025 213.986H392.558C392.99 213.986 393.25 213.812 393.336 213.38C395.409 201.102 395.927 188.307 394.372 176.029C391.781 156.921 382.71 138.333 363.878 130.897C349.453 125.191 333.126 127.612 318.873 133.146C318.527 133.232 318.183 133.232 317.923 133.146C302.546 124.845 284.147 126.92 268.252 133.146C267.906 133.318 267.474 133.232 267.13 133.146C246.397 122.165 221.605 129.427 202.515 140.235C183.25 151.129 166.319 166.605 151.98 184.07C144.292 193.408 137.381 203.264 131.161 213.64C131.161 213.812 131.161 213.986 131.247 214.072C131.247 214.072 131.334 214.072 131.421 214.072C133.58 214.072 135.653 214.072 137.813 214.072C138.245 214.072 138.59 213.898 138.85 213.466C145.932 202.572 153.707 192.37 162.259 182.946C173.489 170.582 186.274 159.343 200.614 150.956C214.435 142.828 232.662 136.257 248.298 142.828C248.298 142.828 248.384 142.916 248.384 143.002C232.317 153.032 218.064 165.913 205.71 180.439C196.813 190.814 188.866 201.88 181.868 213.64V213.812C183.942 213.812 186.015 213.898 188.088 213.898C188.692 213.898 189.298 213.726 189.643 213.206C199.232 198.335 210.116 185.021 222.383 173.09C232.23 163.492 243.633 154.674 255.899 148.275C256.331 148.103 256.677 148.103 257.023 148.449C262.119 153.29 265.488 160.034 267.302 166.865C267.474 167.469 267.648 168.075 267.302 168.507C254.086 181.908 242.596 196.866 232.749 213.294C232.576 213.64 232.663 213.812 233.007 213.812C235.081 213.812 237.154 213.812 239.401 213.812C239.831 213.812 240.177 213.64 240.437 213.206C248.816 200.151 258.318 188.221 268.943 177.327C268.943 177.239 269.203 177.239 269.289 177.327C269.289 177.327 269.289 177.413 269.289 177.499C270.325 189.603 269.116 201.794 266.438 213.552C266.438 213.726 266.438 213.812 266.612 213.812H291.316C291.316 213.812 291.835 213.64 291.835 213.38C293.909 200.497 294.599 187.701 292.699 174.732C292.008 169.631 290.712 164.703 289.071 159.948C288.985 159.689 289.071 159.429 289.243 159.256C294.427 155.365 299.869 151.82 305.657 148.709C306.089 148.449 306.433 148.275 306.865 148.189C307.211 148.103 307.557 148.189 307.816 148.449C316.541 157.353 319.823 169.804 320.255 182.254C320.601 192.802 319.305 203.092 317.145 213.466C317.145 213.726 317.145 213.898 317.491 213.898H342.024C342.024 213.898 342.455 213.726 342.543 213.466C344.529 201.448 345.22 189.603 343.838 177.585C342.283 163.925 337.619 150.87 328.288 140.926C328.288 140.926 328.288 140.754 328.288 140.667H328.375ZM403.357 273.816C403.011 275.285 402.751 276.755 402.407 278.225C402.407 278.571 402.407 278.743 402.839 278.743H410.44C410.44 278.743 410.699 278.743 410.699 278.571L416.314 252.286C416.314 252.286 416.314 252.027 416.141 252.027H398.001C398.001 252.027 397.827 252.027 397.741 252.2L396.014 260.155C396.014 260.155 396.014 260.414 396.187 260.414H406.12C406.12 260.414 406.294 260.501 406.294 260.673C405.516 264.564 403.269 267.763 399.642 269.665C395.755 271.654 390.14 272.086 386.512 269.405C380.378 264.824 383.402 252.806 385.993 247.013C388.758 240.701 394.026 235.686 401.283 236.292C405.516 236.637 408.539 240.096 408.625 244.246C408.625 244.332 408.625 244.418 408.799 244.418H417.524C417.524 244.418 417.868 244.332 417.868 244.16C418.906 235.514 413.722 228.769 405.17 227.645C396.877 226.608 389.362 229.375 383.661 235.34C378.478 240.787 375.54 247.617 374.072 255.054C372.691 262.316 372.777 270.097 377.614 275.631C379.515 277.792 381.846 279.263 384.611 279.867C390.659 281.251 396.1 280.041 401.024 276.495C401.888 275.89 402.665 275.026 403.269 273.988C403.529 273.642 403.529 273.642 403.443 273.988L403.357 273.816ZM98.1627 248.569C98.1627 248.569 97.6443 248.829 97.8172 248.395L102.05 228.683C102.05 228.683 102.05 228.423 101.877 228.423H93.2389C93.2389 228.423 92.8933 228.511 92.8933 228.769L82.2681 278.571C82.2681 278.571 82.2681 279.003 82.6136 279.003H91.0792C91.0792 279.003 91.4247 279.003 91.5111 278.743L94.9665 262.662C95.0529 262.143 95.312 261.711 95.7439 261.278L100.495 256.955H100.668L109.306 278.571C109.306 278.571 109.652 279.003 109.911 279.003H121.141C121.141 279.003 121.4 278.829 121.4 278.657C121.4 278.657 121.4 278.657 121.4 278.571L108.874 249.521C108.874 249.521 108.874 249.001 109.047 248.829L130.643 228.857C130.643 228.857 130.989 228.337 130.471 228.337C127.015 228.337 123.559 228.337 120.191 228.337C119.586 228.337 119.068 228.511 118.636 228.943C111.725 235.6 104.987 242.171 98.4218 248.483L98.1627 248.569ZM161.741 262.316C160.531 267.849 156.644 271.221 150.857 271.135C145.502 271.049 143.946 266.466 144.896 261.884C147.229 250.903 149.561 239.837 151.894 228.683C151.894 228.597 151.894 228.423 151.72 228.423H142.651C142.651 228.423 142.477 228.423 142.477 228.597C140.146 239.663 137.813 250.731 135.481 261.624C134.962 264.218 134.703 266.725 134.962 269.319C136.171 281.51 152.066 282.115 160.359 277.792C165.196 275.285 168.652 270.789 170.38 265.688C171.07 263.786 171.675 261.538 172.193 258.945C174.353 248.655 176.512 238.627 178.587 228.769C178.587 228.597 178.587 228.423 178.327 228.337H169.43C169.43 228.337 169.17 228.337 169.17 228.511C166.751 240.009 164.418 251.249 162 262.23L161.741 262.316ZM220.223 241.047L212.276 278.571C212.276 278.571 212.276 278.829 212.448 278.917H220.482C220.482 278.917 220.827 278.829 220.827 278.657L231.452 228.683C231.452 228.683 231.452 228.423 231.28 228.337H218.496C218.496 228.337 218.15 228.511 218.064 228.683L202.515 266.034C202.255 266.639 202.169 266.639 202.169 266.034V228.683C202.169 228.683 202.082 228.423 201.91 228.423H188.866C188.866 228.423 188.52 228.511 188.52 228.683L177.981 278.571C177.981 278.571 177.981 278.917 178.241 279.003H186.101C186.101 279.003 186.533 278.829 186.62 278.657L194.654 240.96C194.912 239.75 194.998 239.75 194.998 240.96L194.74 278.743C194.74 278.743 194.912 279.089 195.085 279.089H203.291C203.291 279.089 203.897 278.829 204.069 278.571L220.05 241.133C220.395 240.269 220.482 240.269 220.309 241.133L220.223 241.047ZM254.604 250.211C254.604 250.211 254.518 250.125 254.518 250.039C252.876 242.69 251.235 235.514 249.766 228.511C249.766 228.423 249.68 228.337 249.594 228.337H239.055C239.055 228.337 238.709 228.423 238.795 228.683C241.732 238.799 244.756 249.001 247.693 259.377C247.78 259.723 247.78 260.068 247.693 260.414C246.397 266.466 245.101 272.518 243.806 278.657C243.806 278.829 243.806 278.917 243.978 278.917H252.617C252.617 278.917 253.049 278.743 253.049 278.571C254.258 272.864 255.554 266.985 256.849 260.933C257.023 260.327 257.195 259.723 257.627 259.117C264.624 248.829 271.535 238.627 278.272 228.683C278.272 228.683 278.272 228.511 278.272 228.423C278.272 228.423 278.273 228.423 278.186 228.423H268.339C268.339 228.423 268.08 228.423 267.993 228.597L254.862 250.211C254.862 250.211 254.776 250.211 254.69 250.211H254.604ZM304.447 268.455C304.447 268.455 304.706 268.541 304.706 268.713L305.311 278.657C305.311 278.657 305.397 278.917 305.57 278.917H315.072C315.072 278.917 315.332 278.743 315.332 278.657L310.234 228.597C310.234 228.597 310.148 228.337 309.976 228.337H299.609C299.609 228.337 299.437 228.337 299.351 228.511L272.744 278.571C272.744 278.571 272.744 278.829 272.83 278.917C272.83 278.917 272.83 278.917 272.916 278.917H282.073C282.073 278.917 282.247 278.917 282.333 278.743L287.603 268.541C287.603 268.541 287.775 268.369 287.861 268.369H304.36L304.447 268.455ZM353.599 263.094L343.751 228.597C343.751 228.597 343.579 228.337 343.319 228.337H333.99C333.99 228.337 333.732 228.423 333.732 228.597L323.106 278.743C323.106 278.743 323.106 278.917 323.279 279.003H331.313C331.313 279.003 331.744 278.829 331.831 278.657L339.26 243.64C339.346 243.036 339.518 243.036 339.692 243.64L349.799 278.743C349.799 278.743 350.144 279.175 350.403 279.175H358.868C358.868 279.175 359.214 279.003 359.214 278.829L369.84 228.769C369.84 228.769 369.84 228.511 369.666 228.511H361.719C361.719 228.511 361.287 228.683 361.287 228.857C359.042 239.491 356.882 249.779 354.723 259.809C354.463 261.019 354.205 262.143 353.945 263.266C353.945 263.266 353.859 263.354 353.772 263.354C353.772 263.354 353.772 263.354 353.686 263.266L353.599 263.094ZM248.212 357.162C248.212 357.162 248.038 357.076 248.212 356.989C256.591 351.802 264.451 345.836 271.967 339.093C288.121 324.48 302.115 307.189 313.431 288.599C313.517 288.427 313.431 288.253 313.258 288.167C313.171 288.167 312.999 288.167 312.913 288.167C303.324 288.167 293.909 288.167 284.666 288.167C284.147 288.167 283.629 288.167 283.283 288.687C273.436 303.384 262.032 316.699 248.988 328.631C240.263 336.671 230.158 344.02 219.532 349.641C219.272 349.727 219.014 349.641 218.754 349.553C217.458 348.257 216.163 346.787 214.867 345.144C214.695 344.972 214.781 344.626 214.867 344.452C233.699 328.631 249.507 309.695 262.551 288.599C262.637 288.427 262.551 288.253 262.465 288.167C262.465 288.167 262.378 288.167 262.292 288.167C253.049 288.167 243.892 288.167 234.649 288.167C233.439 288.167 232.921 288.081 232.317 288.945C225.665 298.889 217.978 308.485 209.425 317.737C208.561 318.687 207.611 319.553 206.746 320.503C206.746 320.503 206.574 320.503 206.488 320.503C206.488 320.503 206.488 320.503 206.488 320.417C205.452 310.041 206.488 299.147 208.475 288.859C208.475 288.513 208.302 288.253 208.043 288.167C208.043 288.167 208.043 288.167 207.956 288.167H204.933C204.933 288.167 204.501 288.253 204.501 288.513C202.601 300.099 202.255 311.684 203.551 323.01C203.551 323.53 203.551 323.876 203.119 324.222C192.839 334.25 181.61 342.982 168.998 349.641C168.738 349.813 168.393 349.727 168.133 349.553C162.864 344.626 159.495 337.795 157.682 330.705C154.139 317.131 155.175 302.347 157.854 288.687C157.854 288.427 157.768 288.253 157.508 288.167C157.508 288.167 157.508 288.167 157.422 288.167H154.313C154.313 288.167 153.881 288.341 153.794 288.599C152.844 294.306 152.238 300.877 152.066 308.313C151.72 323.53 154.745 339.611 162.95 352.32C162.95 352.32 162.95 352.493 162.95 352.58C149.475 358.373 132.889 361.139 120.277 351.888C109.047 343.588 105.246 328.631 104.814 315.402C104.641 309.437 104.814 303.902 105.592 298.801C105.937 295.949 106.455 292.577 107.06 288.773C107.06 288.513 106.887 288.253 106.628 288.253H103.691C103.691 288.253 103.173 288.427 103.087 288.773C100.495 304.508 100.495 321.627 105.16 336.931C110.602 354.914 123.041 368.402 141.787 371.774C144.464 372.206 147.488 372.466 150.857 372.466C159.841 372.466 168.911 370.391 177.636 367.105C178.067 366.932 178.759 367.018 179.105 367.191C192.666 374.368 208.475 373.59 223.074 368.921C224.714 368.402 226.27 367.883 227.825 367.278C228.515 367.018 229.293 366.932 229.984 367.278C247.261 376.356 267.734 372.466 284.666 364.77C300.041 357.767 314.295 347.306 326.734 335.548C340.814 322.146 353.254 306.583 364.224 288.687C364.224 288.513 364.224 288.341 364.138 288.341C364.138 288.341 364.052 288.341 363.966 288.341C354.463 288.341 345.048 288.341 335.718 288.341C335.027 288.341 334.422 288.427 333.99 289.031C323.365 304.768 311.531 318.429 298.573 329.927C284.406 342.55 267.474 353.876 248.816 357.421C248.644 357.421 248.384 357.421 248.212 357.421V357.162Z" fill="white"/>
<path d="M328.375 140.67C328.375 140.67 328.201 140.756 328.201 140.844C337.53 150.786 342.195 163.841 343.75 177.502C345.132 189.52 344.528 201.366 342.455 213.383C342.455 213.642 342.195 213.815 341.937 213.815H317.403C317.403 213.815 316.971 213.642 317.057 213.383C319.304 203.008 320.6 192.806 320.168 182.171C319.736 169.808 316.453 157.271 307.728 148.365C307.47 148.106 307.124 148.019 306.778 148.106C306.346 148.279 305.914 148.452 305.569 148.624C299.781 151.738 294.339 155.281 289.156 159.172C288.984 159.346 288.897 159.604 288.984 159.864C290.711 164.619 291.921 169.548 292.611 174.649C294.512 187.618 293.821 200.414 291.747 213.296C291.747 213.556 291.488 213.729 291.229 213.729H266.524C266.524 213.729 266.264 213.642 266.264 213.469C268.942 201.71 270.152 189.52 269.115 177.416C269.115 177.329 269.029 177.243 268.855 177.243C268.855 177.243 268.769 177.243 268.683 177.243C258.058 188.137 248.556 200.154 240.176 213.124C239.917 213.469 239.572 213.642 239.139 213.729C236.98 213.729 234.82 213.729 232.747 213.729C232.401 213.729 232.315 213.556 232.489 213.21C242.336 196.697 253.824 181.826 267.042 168.424C267.473 167.992 267.215 167.3 267.042 166.781C265.228 159.95 261.859 153.207 256.762 148.365C256.417 148.019 256.071 148.019 255.639 148.192C243.373 154.503 232.057 163.409 222.122 173.006C209.856 184.937 198.972 198.253 189.383 213.124C189.037 213.642 188.433 213.902 187.828 213.815C185.754 213.815 183.681 213.815 181.608 213.729C181.608 213.729 181.436 213.729 181.436 213.556C188.433 201.798 196.379 190.73 205.278 180.356C217.716 165.831 231.883 152.948 247.951 142.918C247.951 142.918 248.037 142.745 247.951 142.659C232.315 136.089 214.089 142.659 200.267 150.786C186.014 159.172 173.229 170.412 161.912 182.776C153.361 192.2 145.586 202.402 138.502 213.296C138.244 213.642 137.898 213.902 137.466 213.902C135.307 213.902 133.147 213.902 131.074 213.902C130.901 213.902 130.814 213.729 130.814 213.642C130.814 213.642 130.814 213.556 130.814 213.469C136.948 203.094 143.944 193.238 151.633 183.9C165.973 166.521 182.904 150.96 202.167 140.066C221.258 129.258 246.05 121.995 266.783 132.975C267.128 133.148 267.56 133.148 267.905 132.975C283.8 126.75 302.114 124.675 317.576 132.975C317.921 133.148 318.267 133.148 318.526 132.975C332.78 127.442 349.106 125.021 363.532 130.727C382.364 138.25 391.521 156.752 394.026 175.859C395.667 188.05 395.063 200.932 392.99 213.21C392.99 213.642 392.644 213.902 392.212 213.902H367.678C367.678 213.902 367.42 213.729 367.42 213.642C369.838 202.316 371.221 190.904 370.443 179.49C369.234 162.026 361.546 143.955 342.368 140.584C337.618 139.72 332.78 139.72 327.943 140.584L328.375 140.67ZM277.58 140.93C280.691 144.215 283.368 148.019 285.528 151.996C285.528 152.083 285.701 152.17 285.873 152.083C290.366 148.711 294.684 145.685 299.003 143.005C299.003 143.005 299.089 142.918 299.177 142.832V142.659C294.858 140.844 290.366 139.978 285.873 139.978C283.11 139.978 280.345 140.152 277.754 140.584C277.666 140.584 277.58 140.67 277.58 140.756C277.58 140.756 277.58 140.756 277.58 140.844V140.93Z" fill="#E3BC00"/>
<path d="M285.53 151.995C283.371 147.932 280.692 144.127 277.583 140.928C277.583 140.928 277.583 140.755 277.583 140.669C277.583 140.669 277.583 140.669 277.669 140.669C280.346 140.236 283.025 140.063 285.79 140.063C290.281 140.063 294.687 140.928 299.092 142.743C299.092 142.743 299.178 142.831 299.092 142.917C299.092 142.917 299.092 143.089 298.92 143.089C294.601 145.77 290.281 148.796 285.79 152.167C285.702 152.167 285.53 152.167 285.444 152.167L285.53 151.995Z" fill="white"/>
<path d="M403.182 273.733C402.576 274.769 401.886 275.548 400.936 276.239C396.012 279.87 390.57 280.995 384.522 279.612C381.758 279.006 379.426 277.622 377.526 275.375C372.688 269.842 372.602 262.059 373.983 254.797C375.366 247.362 378.39 240.531 383.572 235.085C389.274 229.032 396.789 226.266 405.081 227.39C413.634 228.514 418.817 235.344 417.781 243.903C417.781 244.077 417.607 244.163 417.435 244.163H408.71C408.71 244.163 408.538 244.077 408.538 243.989C408.538 239.84 405.513 236.382 401.194 236.036C393.939 235.517 388.669 240.531 385.905 246.756C383.4 252.463 380.289 264.567 386.423 269.15C389.964 271.829 395.666 271.397 399.553 269.409C403.182 267.594 405.427 264.308 406.205 260.417C406.205 260.331 406.205 260.244 406.032 260.244H396.098C396.098 260.244 395.838 260.072 395.838 259.985L397.567 252.031C397.567 252.031 397.653 251.857 397.825 251.857H415.967C415.967 251.857 416.225 251.944 416.225 252.117L410.611 278.4C410.611 278.4 410.525 278.574 410.351 278.574H402.75C402.75 278.574 402.232 278.4 402.318 278.054C402.663 276.585 403.009 275.115 403.268 273.645C403.354 273.213 403.268 273.213 403.095 273.645L403.182 273.733Z" fill="#E11C2B"/>
<path d="M98.1652 248.57C104.73 242.173 111.468 235.688 118.379 229.03C118.811 228.598 119.329 228.426 119.934 228.426C123.303 228.426 126.758 228.426 130.214 228.426C130.732 228.426 130.818 228.598 130.386 228.944L108.79 248.916C108.79 248.916 108.531 249.348 108.618 249.608L121.143 278.658C121.143 278.658 121.143 278.918 120.97 279.004C120.97 279.004 120.97 279.004 120.884 279.004H109.654C109.654 279.004 109.136 278.918 109.05 278.658L100.411 257.044C100.411 257.044 100.325 256.957 100.238 257.044L95.4873 261.366C95.4873 261.366 94.7962 262.231 94.7098 262.749L91.2545 278.832C91.2545 278.832 91.0818 279.178 90.8226 279.178H82.357C82.357 279.178 81.925 279.004 82.0114 278.658L92.6367 228.858C92.6367 228.858 92.8094 228.512 92.9822 228.512H101.621C101.621 228.512 101.88 228.598 101.793 228.772L97.5605 248.484C97.4741 249.002 97.5605 249.002 97.9061 248.656L98.1652 248.57Z" fill="#E11C2B"/>
<path d="M150.856 271.136C156.73 271.223 160.53 267.938 161.74 262.317C164.159 251.337 166.492 240.098 168.911 228.598C168.911 228.426 168.997 228.426 169.169 228.426H178.066C178.066 228.426 178.412 228.598 178.412 228.772C176.339 238.542 174.266 248.57 172.02 258.946C171.502 261.539 170.897 263.787 170.205 265.689C168.478 270.79 164.936 275.287 160.186 277.794C151.893 282.117 135.998 281.512 134.788 269.32C134.529 266.727 134.788 264.219 135.307 261.626C137.639 250.732 139.971 239.666 142.304 228.598C142.304 228.512 142.39 228.426 142.476 228.426H151.547C151.547 228.426 151.805 228.512 151.805 228.684C149.474 239.752 147.142 250.818 144.809 261.885C143.859 266.468 145.413 271.05 150.769 271.136H150.856Z" fill="#E11C2B"/>
<path d="M220.222 241.132C220.394 240.18 220.308 240.18 219.962 241.132L203.981 278.569C203.981 278.569 203.549 279.088 203.204 279.088H194.998C194.998 279.088 194.652 279.001 194.652 278.828L194.91 241.046C194.91 239.834 194.824 239.834 194.566 241.046L186.531 278.742C186.531 278.742 186.273 279.174 186.013 279.174H178.153C178.153 279.174 177.807 279.001 177.807 278.828L188.346 228.941C188.346 228.941 188.518 228.682 188.692 228.682H201.736C201.736 228.682 201.994 228.768 201.994 228.941V266.291C201.994 266.897 202.081 266.983 202.34 266.291L217.889 228.941C217.889 228.941 218.148 228.595 218.321 228.595H231.106C231.106 228.595 231.364 228.682 231.364 228.854L220.74 278.828C220.74 278.828 220.567 279.174 220.394 279.174H212.36C212.36 279.174 212.102 279.001 212.102 278.915L220.048 241.392L220.222 241.132Z" fill="#E11C2B"/>
<path d="M254.607 250.3H254.78L267.911 228.684C267.911 228.684 268.169 228.512 268.255 228.512H278.104C278.104 228.512 278.276 228.598 278.276 228.684C278.276 228.684 278.276 228.684 278.276 228.772C271.538 238.714 264.714 248.916 257.631 259.204C257.285 259.724 257.025 260.329 256.853 261.02C255.557 267.073 254.348 272.952 253.052 278.658C253.052 278.918 252.793 279.004 252.62 279.004H243.982C243.982 279.004 243.723 278.832 243.723 278.744C245.019 272.693 246.314 266.64 247.61 260.502C247.61 260.156 247.61 259.81 247.61 259.464C244.673 249.09 241.65 238.8 238.713 228.772C238.713 228.512 238.713 228.426 238.971 228.426H249.511C249.511 228.426 249.683 228.426 249.683 228.598C251.151 235.515 252.793 242.691 254.434 250.126C254.434 250.126 254.434 250.3 254.52 250.3H254.607Z" fill="#E11C2B"/>
<path d="M304.451 268.542H287.951C287.951 268.542 287.778 268.542 287.692 268.628L282.422 278.832C282.422 278.832 282.25 279.004 282.163 279.004H273.007C273.007 279.004 272.748 278.918 272.748 278.744C272.748 278.744 272.748 278.744 272.748 278.658L299.353 228.598C299.353 228.598 299.527 228.426 299.613 228.426H309.979C309.979 228.426 310.238 228.512 310.238 228.684L315.335 278.744C315.335 278.744 315.248 279.004 315.076 279.004H305.573C305.573 279.004 305.315 278.918 305.315 278.744L304.709 268.802C304.709 268.802 304.623 268.542 304.451 268.542ZM292.357 259.638C292.357 259.638 292.357 259.81 292.357 259.896H303.5C303.5 259.896 303.673 259.896 303.673 259.81L302.29 240.184C302.29 240.184 302.29 240.011 302.118 240.011C302.118 240.011 302.032 240.011 301.946 240.098L292.097 259.638H292.357Z" fill="#E11C2B"/>
<path d="M353.598 263.182C353.598 263.182 353.685 263.269 353.772 263.269C353.772 263.269 353.772 263.269 353.858 263.182C354.116 262.058 354.376 260.934 354.636 259.724C356.795 249.695 358.954 239.406 361.2 228.771C361.2 228.599 361.46 228.425 361.632 228.425H369.579C369.579 228.425 369.839 228.512 369.839 228.685L359.214 278.745C359.214 278.745 359.041 279.005 358.868 279.005H350.403C350.403 279.005 349.884 278.918 349.798 278.659L339.691 243.556C339.517 242.951 339.345 242.951 339.259 243.556L331.83 278.573C331.83 278.573 331.571 279.005 331.312 279.005H323.278C323.278 279.005 323.105 278.918 323.105 278.745L333.731 228.599C333.731 228.599 333.903 228.339 333.989 228.339H343.319C343.319 228.339 343.664 228.339 343.751 228.599L353.598 263.096V263.182Z" fill="#E11C2B"/>
<path d="M292.357 259.637L302.213 240.097C302.213 240.097 302.385 240.011 302.473 240.097C302.473 240.097 302.473 240.097 302.559 240.269L303.943 259.895C303.943 259.895 303.943 260.069 303.769 260.069H292.615C292.615 260.069 292.443 259.983 292.443 259.895L292.357 259.637Z" fill="white"/>
<path d="M248.212 357.249C248.212 357.249 248.644 357.249 248.816 357.249C267.476 353.79 284.407 342.378 298.574 329.755C311.531 318.169 323.366 304.595 333.992 288.859C334.422 288.255 335.028 288.167 335.719 288.167C345.048 288.255 354.464 288.255 363.966 288.167C364.14 288.167 364.226 288.255 364.226 288.427C364.226 288.427 364.226 288.513 364.226 288.599C353.254 306.497 340.728 322.06 326.735 335.461C314.382 347.219 300.129 357.767 284.666 364.684C267.734 372.379 247.175 376.27 229.985 367.191C229.294 366.846 228.517 366.932 227.825 367.191C226.27 367.797 224.716 368.315 223.075 368.835C208.476 373.59 192.667 374.282 179.105 367.105C178.759 366.932 177.982 366.846 177.636 367.019C168.825 370.305 159.842 372.379 150.857 372.379C147.488 372.379 144.465 372.12 141.787 371.688C123.042 368.315 110.603 354.828 105.161 336.844C100.496 321.541 100.496 304.508 103.087 288.687C103.087 288.341 103.347 288.167 103.692 288.167H106.629C106.629 288.167 107.147 288.341 107.147 288.599C106.543 292.404 106.024 295.776 105.679 298.629C104.988 303.73 104.729 309.263 104.901 315.23C105.333 328.457 109.134 343.502 120.364 351.715C132.89 360.967 149.561 358.199 163.038 352.407C163.038 352.407 163.124 352.234 163.038 352.234C154.917 339.525 151.808 323.444 152.154 308.227C152.326 300.791 152.844 294.22 153.881 288.513C153.881 288.255 154.14 288.081 154.399 288.081H157.509C157.509 288.081 157.942 288.255 157.942 288.513C157.942 288.513 157.942 288.513 157.942 288.599C155.263 302.26 154.227 317.045 157.768 330.619C159.582 337.709 162.951 344.452 168.221 349.467C168.479 349.727 168.825 349.727 169.085 349.554C181.697 342.896 192.927 334.164 203.206 324.134C203.551 323.788 203.725 323.444 203.639 322.924C202.342 311.512 202.601 300.013 204.589 288.427C204.589 288.167 204.761 288.081 205.02 288.081H208.044C208.044 288.081 208.648 288.341 208.562 288.687C208.562 288.687 208.562 288.687 208.562 288.773C206.576 299.061 205.539 309.955 206.576 320.331C206.576 320.417 206.662 320.503 206.748 320.503C206.748 320.503 206.748 320.503 206.834 320.503C207.784 319.553 208.648 318.687 209.513 317.737C218.15 308.485 225.752 298.889 232.404 288.945C233.009 288.081 233.613 288.167 234.737 288.167C243.98 288.167 253.223 288.167 262.379 288.167C262.552 288.167 262.724 288.341 262.724 288.427C262.724 288.427 262.724 288.513 262.724 288.599C249.766 309.696 233.959 328.631 215.041 344.452C214.868 344.626 214.782 344.885 215.041 345.144C216.251 346.787 217.546 348.257 218.928 349.554C219.1 349.727 219.446 349.813 219.706 349.641C230.33 344.108 240.351 336.671 249.162 328.631C262.206 316.699 273.608 303.384 283.457 288.687C283.802 288.167 284.234 288.167 284.839 288.167C294.082 288.167 303.498 288.167 313.087 288.167C313.173 288.167 313.345 288.167 313.431 288.167C313.691 288.167 313.691 288.341 313.605 288.599C302.288 307.189 288.295 324.48 272.14 339.093C264.625 345.836 256.764 351.802 248.385 356.989C248.212 357.076 248.212 357.163 248.385 357.163L248.212 357.249ZM197.332 357.335C202.947 356.384 208.13 354.656 213.486 352.494C213.572 352.494 213.658 352.32 213.572 352.234L211.067 348.083C211.067 348.083 210.721 347.911 210.635 347.997C206.316 351.37 201.824 354.396 197.332 357.163C196.987 357.335 197.073 357.421 197.332 357.335Z" fill="#E3BC00"/>
<path d="M213.484 352.583C208.128 354.745 202.944 356.474 197.33 357.426C196.984 357.426 196.898 357.426 197.33 357.252C201.822 354.486 206.227 351.46 210.633 348.088C210.806 348.002 210.979 348.002 211.151 348.088L213.656 352.238C213.656 352.238 213.656 352.411 213.656 352.497L213.484 352.583Z" fill="white"/>
</svg>
