<svg width="500" height="500" viewBox="0 0 500 500" fill="none" xmlns="http://www.w3.org/2000/svg">
<rect width="500" height="500" fill="#4EB856"/>
<path d="M309.97 311.938L326.282 224.78C329.8 211.187 343.954 184 372.02 184H426.474C429.113 184 430.712 186.799 429.512 189.197L426.554 194.715C420.557 205.909 409.122 207.988 396.648 207.988H378.257C366.023 207.988 356.987 220.462 353.789 239.973H406.643C409.202 239.973 410.801 242.372 409.682 244.691L407.763 248.609C402.006 260.443 390.171 263.962 377.377 263.962H349.471L340.835 311.938H309.97ZM287.741 212.146C296.057 214.785 303.573 205.03 308.051 199.113L309.09 197.833C310.69 195.754 309.97 191.596 307.571 190.637C295.662 186.26 283.076 184.013 270.389 184C194.186 184 197.864 265.001 198.104 270.598V270.838C198.104 272.198 200.503 311.938 243.682 311.938C251.344 312.292 259.001 311.119 266.206 308.488C273.412 305.857 280.023 301.821 285.655 296.613C291.287 291.405 295.827 285.13 299.013 278.152C302.199 271.174 303.967 263.632 304.213 255.965C304.213 239.173 297.256 232.217 293.818 231.977H273.827C258.635 231.977 252.238 246.93 250.878 255.965H272.548C272.548 273.397 263.992 287.95 249.039 287.95C230.328 287.95 230.168 264.761 230.088 254.686V254.206C230.088 213.266 253.437 200.952 287.741 212.146ZM78.5612 293.947L100.95 205.51C104.149 192.876 115.264 184 127.977 184H176.834C183.95 184.8 198.024 191.596 198.024 212.386C198.024 233.176 178.433 241.492 168.598 243.172C175.874 245.33 190.347 254.766 190.347 274.516C190.347 299.305 161.561 311.938 147.488 311.938H92.0747C89.9018 311.902 87.7657 311.372 85.8283 310.387C83.8909 309.403 82.2032 307.99 80.8931 306.256C79.5831 304.522 78.685 302.512 78.2671 300.38C77.8492 298.247 77.9224 296.047 78.4812 293.947H78.5612ZM128.857 207.988L123.819 231.977H145.809C158.603 231.977 162.041 224.141 162.121 220.223C162.121 210.787 155.724 208.148 152.526 207.988H128.857ZM117.982 263.962L113.185 287.95H138.692C152.686 287.95 156.284 280.114 156.364 276.196C156.364 266.76 149.487 264.121 145.969 263.962H118.062H117.982Z" fill="white"/>
</svg>
