<svg width="500" height="500" viewBox="0 0 500 500" fill="none" xmlns="http://www.w3.org/2000/svg">
<rect width="500" height="500" fill="#E1002A"/>
<path d="M203.79 159.281C190.034 161.801 169.634 173.953 169.697 195.426C169.748 214.918 186.147 226.738 186.199 252.307C186.282 271.53 175.387 284.469 163.602 291.655C168.37 291.24 173.573 290.97 179.316 290.96C191.361 290.929 198.617 292.049 199.063 292.121L260.802 218.464C245.151 195.759 225.893 175.767 203.79 159.281Z" fill="white"/>
<path d="M256.122 359.08C263.893 347.255 264.865 328.418 265.528 309.227C266.252 291.338 270.07 277.867 294.532 277.784C299.954 277.763 305.118 278.503 314.462 278.472C350.296 278.315 373.692 266.24 388.24 258.312C358.512 239.767 315.114 220.805 261.265 218.68C257.746 228.369 230.47 302.632 228.4 308.623C228.711 308.987 233.491 314.228 239.462 324.459C246.274 335.337 251.862 346.956 256.122 359.08Z" fill="white"/>
<path d="M125.379 298.31C122.25 298.331 120.701 296.311 120.264 292.792C119.869 289.304 104.391 151.408 102.073 130.534C101.751 127.483 100.971 121.892 100.961 119.893C100.961 116.687 103.102 115 105.639 115C112.978 114.969 152.957 124.089 195.379 153.043C183.154 156.395 161.044 168.774 161.148 194.406C161.221 217.092 177.905 229.575 177.988 252.334C178.123 289.346 134.433 298.3 125.379 298.31ZM259.693 368.773C260.358 370.491 260.982 371.928 261.616 372.937C262.593 374.551 263.861 375.29 265.42 375.28C266.647 375.204 267.848 374.889 268.955 374.353C272.219 372.896 401.491 314.312 420.981 305.556C423.809 304.234 429.162 301.902 430.929 300.892C432.759 299.882 433.601 298.393 433.601 296.884C433.587 296.007 433.328 295.152 432.853 294.416C430.41 290.574 417.905 277.654 396.99 263.537C380.399 272.428 354.474 286.191 315.909 286.347C306.449 286.347 304.318 285.744 297.863 285.764C279.038 285.827 274.339 293.677 273.643 309.741C273.539 312.771 273.476 316.852 273.3 321.34C272.707 335.707 270.961 355.509 259.682 368.773H259.693Z" fill="white"/>
</svg>
