<svg width="500" height="500" viewBox="0 0 500 500" fill="none" xmlns="http://www.w3.org/2000/svg">
<rect width="500" height="500" fill="white"/>
<path d="M82 249.56C82 324.32 140.718 384.8 213.045 384.8L283.608 313.148V267.2H216.405V315.5H213.045C195.83 315.191 179.44 308.066 167.471 295.688C155.503 283.311 148.933 266.691 149.203 249.476C149.203 220.496 165.919 195.8 191.204 186.98V116C128.538 126.08 82 182.108 82 249.56Z" fill="#003B71"/>
<path d="M417.998 251.24C417.998 176.48 359.364 116 286.953 116L216.391 172.532V233.6H283.593V185.3H286.953C322.235 185.3 350.796 214.868 350.796 251.24C350.796 280.22 334.079 304.916 308.794 313.736V384.8C371.544 374.552 417.998 318.692 417.998 251.24Z" fill="#00B2E3"/>
</svg>
