<svg width="500" height="500" viewBox="0 0 500 500" fill="none" xmlns="http://www.w3.org/2000/svg">
<rect width="500" height="500" fill="#164194"/>
<path d="M270.316 267.522C270.316 249.236 241.139 249.988 241.139 237.291C241.139 233.077 245.428 231.065 250.902 231.065C259.763 231.065 265.501 236.651 265.501 236.651V225.722C265.501 225.722 260.252 223.031 251.749 223.031C234.518 223.031 229.627 231.722 229.701 238.927C229.701 255.2 258.879 256.912 258.879 268.706C258.879 274.482 253.367 276.438 246.5 276.438C237.301 276.438 227.953 269.232 227.953 269.232L229.834 281.066C229.834 281.066 237.301 284.526 246.011 284.526C261.493 284.526 270.316 278.149 270.316 267.503V267.522Z" fill="white"/>
<path d="M345.885 274.141C345.79 277.903 347.427 281.026 350.305 282.005V283.001H333.45V282.005C336.534 280.857 338.003 278.167 337.984 274.104V233.32C337.984 229.351 336.855 226.754 333.525 225.306V224.328H347.84C347.84 224.328 348.33 226.397 349.666 228.109L379.256 266.354V233.659C379.256 228.823 377.902 226.623 375.137 225.268V224.309H391.841V225.287C388.85 226.529 387.307 229.087 387.364 233.207V285.277C383.433 284.676 378.861 282.419 374.986 277.621L345.866 239.942V274.141H345.885Z" fill="white"/>
<path d="M451.981 252.96H436.97V253.938C439.227 254.992 440.563 256.817 440.563 260.56V275.873C440.563 275.873 436.518 277.303 430.874 277.303C415.092 277.303 406.344 265.941 406.344 253.431C406.344 240.921 415.788 231.496 429.614 231.496C438.925 231.496 445.096 236.951 445.096 236.951V225.364C445.096 225.364 437.91 223.727 431.251 223.727C407.811 223.727 395.226 236.463 395.038 254.917C394.888 270.437 404.575 284.921 430.517 284.883C440.863 284.883 451.624 282.419 451.624 282.419C451.624 282.419 450.965 280.614 450.965 279.316V257.419C450.965 254.39 452 252.96 452 252.96H451.981Z" fill="white"/>
<path d="M309.747 224.328V225.213C311.534 226.021 313.246 227.789 313.208 232.925V265.525C313.208 271.038 308.129 275.684 301.395 276.343C292.892 277.151 287.361 272.599 287.361 261.839V231.156C287.361 228.259 288.602 226.172 290.653 225.306V224.328H273.46V225.306C275.698 226.228 276.902 228.768 276.902 231.589V263.587C276.902 277.433 285.33 284.563 298.686 284.3C304.065 284.186 309.22 282.174 313.133 278.674V283.039H327.355V282.043C324.759 280.932 323.555 278.995 323.555 274.517V233.357C323.536 227.921 324.721 226.51 326.998 225.287V224.309H309.747V224.328Z" fill="white"/>
<path d="M132.105 257.512C132.105 259.412 132.105 273.746 132.105 273.746C132.105 279.032 131.24 280.48 128.757 281.985V283.002H146.046V282.061C143.863 280.442 142.527 278.694 142.603 274.254V257.455L164.142 224.328H146.986V225.305C150.391 226.981 150.278 230.517 148.679 233.169L138.615 248.576L126.161 227.996C124.769 225.626 123.227 224.328 119.502 224.328H108.422C111.959 225.795 115.062 229.2 117.094 232.793L132.105 257.531V257.512Z" fill="white"/>
<path d="M91.06 254.99V274.273C91.1352 278.994 89.9501 281.101 87.3352 282.023V283.039H105.056V282.099C103.231 281.158 101.406 279.954 101.406 274.028V233.244C101.406 228.278 102.497 226.51 105.018 225.288V224.328H87.2976V225.305C89.9501 226.529 91.06 228.015 91.06 232.906V247.202H62.0148V232.906C61.9771 228.015 63.1058 226.529 65.777 225.305V224.328H48.0188V225.288C50.5583 226.51 51.6495 228.278 51.6495 233.244V273.991C51.6495 279.897 49.8435 281.139 48 282.042V283.039H65.7018V282.042C63.1058 281.139 61.9395 279.013 61.996 274.292V254.99H91.0412H91.06Z" fill="white"/>
<path d="M223.759 253.241C223.759 271.432 209.03 284.638 191.647 284.638C174.265 284.638 159.856 271.959 159.856 253.693C159.838 236.744 174.229 222.56 192.532 223.01C210.836 222.936 223.759 237.195 223.759 253.26V253.241ZM170.993 252.941C170.993 264.735 179.175 276.888 192.099 276.888C205.022 276.888 212.623 267.52 212.623 254.953C212.623 242.387 204.948 230.761 191.911 230.761C178.875 230.761 170.993 240.204 170.993 252.941Z" fill="white"/>
</svg>
