<svg width="500" height="500" viewBox="0 0 500 500" fill="none" xmlns="http://www.w3.org/2000/svg">
<rect width="500" height="500" fill="#00984B"/>
<path d="M250.011 102C261.112 101.958 271.824 106.087 280.023 113.57C288.223 121.053 293.312 131.343 294.283 142.402C294.854 146.322 294.389 150.324 292.933 154.009C292.936 154.246 293.033 154.473 293.203 154.639C293.315 154.694 293.438 154.724 293.563 154.729C313.449 157.968 335.495 163.277 351.692 176.324C390.564 207.637 375.717 260.366 356.101 299.417C342.153 326.951 325.327 353.406 305.71 378.96C305.203 379.625 304.464 380.075 303.641 380.22L255.59 389.938C255.482 389.966 255.368 389.968 255.259 389.945C255.15 389.921 255.047 389.873 254.96 389.803C254.873 389.733 254.803 389.644 254.756 389.542C254.709 389.441 254.687 389.33 254.69 389.218L254.78 388.768C283.575 343.778 365.729 198.909 292.213 159.948C292.094 159.866 291.952 159.823 291.808 159.823C291.664 159.823 291.522 159.866 291.403 159.948L291.223 160.308C280.355 184.375 266.607 207.036 250.281 227.793H249.741C233.229 206.95 219.328 184.166 208.349 159.948C208.176 159.878 207.982 159.878 207.809 159.948C134.293 198.999 216.447 343.778 245.332 388.768C245.421 388.901 245.468 389.058 245.468 389.218C245.468 389.378 245.421 389.535 245.332 389.668C245.239 389.813 245.097 389.92 244.932 389.97C244.767 390.019 244.59 390.008 244.432 389.938L196.471 380.22C195.68 380.054 194.977 379.606 194.492 378.96C175.154 354.157 158.249 327.55 144.011 299.507C124.215 260.456 109.458 207.727 148.33 176.324C164.527 163.367 186.483 157.968 206.459 154.729C206.678 154.68 206.87 154.552 206.999 154.369C207.049 154.255 207.074 154.133 207.074 154.009C207.074 153.885 207.049 153.763 206.999 153.649C205.559 150.14 205.2 145.731 205.739 142.402C206.73 131.351 211.825 121.073 220.02 113.594C228.216 106.115 238.916 101.979 250.011 102Z" fill="white"/>
</svg>
