<svg width="500" height="500" viewBox="0 0 500 500" fill="none" xmlns="http://www.w3.org/2000/svg">
<rect width="500" height="500" fill="#80419B"/>
<path d="M216.412 290.822C236.573 292.761 253.365 299.678 266.788 311.57C284.594 327.349 290.064 353.434 282.616 375.878C273.372 403.66 247.203 415.332 220.236 403.261C199.687 394.051 180.335 374.997 175.247 352.453C171.921 337.956 174.864 322.526 181.265 309.093C181.321 308.981 181.353 308.86 181.361 308.734C181.369 308.609 181.351 308.484 181.309 308.366C181.268 308.248 181.203 308.14 181.117 308.048C181.033 307.956 180.931 307.881 180.816 307.83C180.664 307.748 180.491 307.713 180.317 307.73C171.613 308.446 163.019 310.148 154.697 312.801C143.541 316.309 136.675 325.137 128.961 333.168C127.185 334.997 125.172 336.58 122.976 337.873C120.831 339.12 120.399 338.688 121.663 336.542C124.909 331.066 127.952 325.802 130.789 320.748C134.192 314.696 137.424 310.452 140.483 308.013C154.032 297.189 172.155 292.218 189.927 290.589C190.721 290.533 191.493 290.294 192.183 289.894C192.871 289.494 193.459 288.941 193.901 288.278C197.567 282.981 201.641 277.978 206.088 273.314C206.153 273.253 206.205 273.178 206.24 273.096C206.276 273.012 206.295 272.924 206.295 272.833C206.295 272.742 206.276 272.653 206.24 272.57C206.205 272.488 206.153 272.413 206.088 272.35C206.031 272.293 205.963 272.248 205.888 272.217C175.745 259.333 144.689 239.848 123.591 214.177C109.808 197.385 99.9159 175.206 102.376 153.526C106.25 119.494 140.765 106.975 170.541 107.623C209.429 108.471 224.791 139.329 222.863 174.674C221.931 189.924 218.685 204.942 213.236 219.216C211.212 224.693 208.575 229.925 205.372 234.81C205.017 235.336 204.469 235.701 203.847 235.826C203.224 235.95 202.577 235.824 202.047 235.474C201.779 235.302 201.548 235.076 201.371 234.809C201.193 234.544 201.073 234.244 201.016 233.929C199.915 228.374 200.572 222.616 202.895 217.453C210.509 200.029 217.676 182.538 219.671 164.25C221.532 147.116 216.545 134.03 204.708 124.997C180.135 106.509 126.767 114.573 126.932 152.546C127.155 161.318 129.08 169.962 132.601 178C145.293 206.685 164.201 228.964 189.329 244.836C198.121 250.422 207.237 255.486 216.628 259.998C217.016 260.188 217.452 260.256 217.879 260.193C218.307 260.13 218.704 259.941 219.023 259.649C250.724 230.473 289.098 209.516 330.78 198.616C330.886 198.589 330.986 198.541 331.074 198.476C331.16 198.409 331.235 198.328 331.29 198.233C331.346 198.138 331.382 198.034 331.398 197.926C331.412 197.818 331.406 197.708 331.379 197.601C331.358 197.533 331.331 197.465 331.295 197.402C315.867 170.585 291.943 147.841 266.721 130.7C266.005 130.276 265.416 129.668 265.014 128.941C264.611 128.213 264.408 127.392 264.427 126.56C264.44 126.069 264.608 125.594 264.907 125.202C265.206 124.812 265.619 124.525 266.09 124.382C274.403 121.722 285.642 128.34 292.691 133.061C315.602 148.54 334.887 168.19 343.632 194.293C343.748 194.708 344.022 195.061 344.395 195.278C344.767 195.496 345.208 195.56 345.627 195.457C357.779 193.052 370.284 193.052 382.436 195.457C414.474 202.108 425.114 225.782 421.24 255.442C420.891 258.086 420.11 258.236 418.896 255.858C404.382 227.877 379.494 206.596 347.555 205.066C347.428 205.06 347.302 205.078 347.183 205.121C347.063 205.162 346.952 205.229 346.859 205.313C346.764 205.398 346.688 205.501 346.634 205.616C346.579 205.73 346.548 205.854 346.542 205.981C346.534 206.053 346.534 206.125 346.542 206.197C350.299 227.212 347.223 250.04 334.738 266.614C324.762 279.782 307.87 286.932 291.511 288.644C268.716 291.038 245.872 286.832 224.076 279.284C223.948 279.238 223.808 279.236 223.679 279.278C223.549 279.32 223.439 279.404 223.361 279.516C220.884 283.324 218.54 287.065 216.345 290.705L216.327 290.764L216.345 290.822H216.412ZM308.435 274.013C326.723 266.914 340.739 248.293 340.24 228.242C339.915 220.768 338.302 213.405 335.468 206.48C335.364 206.136 335.138 205.842 334.831 205.656C334.524 205.469 334.159 205.401 333.806 205.465C307.77 208.109 281.735 222.274 260.77 239.514C250.953 247.678 241.848 256.66 233.553 266.365C233.424 266.496 233.352 266.672 233.352 266.856C233.352 267.04 233.424 267.216 233.553 267.346C233.615 267.406 233.688 267.452 233.769 267.48C256.812 276.806 285.126 283.041 308.435 274.013ZM267.902 346.252C253.903 326.417 232.489 310.856 208.365 307.68C208.108 307.648 207.847 307.701 207.623 307.83C207.397 307.958 207.22 308.157 207.119 308.396C196.993 331.672 192.853 358.156 210.443 378.954C225.656 397.011 248.565 407.684 268.85 390.46C282.815 378.538 277.328 359.585 267.902 346.252Z" fill="white"/>
</svg>
