<svg width="500" height="500" viewBox="0 0 500 500" fill="none" xmlns="http://www.w3.org/2000/svg">
<rect width="500" height="500" fill="white"/>
<path fill-rule="evenodd" clip-rule="evenodd" d="M222.361 192.4H199.82C199.34 192.4 199.149 191.92 199.149 191.44V173.881C199.149 173.497 199.34 173.209 199.724 173.209H241.737C242.408 173.209 242.696 173.593 242.696 174.265V223.201C242.696 223.585 242.696 223.969 242.504 224.257C242.377 224.583 242.181 224.878 241.929 225.12C223.224 243.256 201.642 252.563 176.224 249.301C123.468 242.584 101.023 175.992 132.293 132.524C138.132 124.032 146.02 117.153 155.226 112.523C164.431 107.893 174.656 105.664 184.952 106.041C208.74 106.041 227.157 116.98 240.394 138.953V139.433C240.394 139.529 240.394 139.721 240.202 139.817L227.732 149.7C227.445 149.892 227.253 149.892 227.061 149.604C224.16 143.901 220.144 138.839 215.25 134.719C210.356 130.598 204.685 127.502 198.573 125.616C166.92 116.212 139.391 138.857 137.185 173.305C136.423 181.323 137.316 189.412 139.807 197.07C142.299 204.729 146.336 211.794 151.669 217.828C169.605 236.443 206.151 237.978 222.937 216.484C223.323 215.993 223.527 215.382 223.512 214.757V193.455C223.512 192.592 223.128 192.4 222.361 192.4ZM342.164 177.431H358.47C359.142 177.431 359.43 177.719 359.334 178.391C357.189 188.49 352.723 197.952 346.289 206.025C346.141 206.013 346.003 205.945 345.905 205.834C331.423 191.89 317.161 177.719 303.125 163.326C296.794 156.897 291.902 147.781 295.547 138.953C299.768 128.686 313.292 127.535 321.733 132.908C324.899 134.923 327.68 137.898 330.078 141.928C330.558 142.696 331.229 142.887 331.997 142.312L341.972 134.923C342.74 134.348 342.931 133.676 342.356 132.908C339.587 128.176 335.735 124.168 331.116 121.215C326.497 118.263 321.243 116.449 315.786 115.924C291.615 113.334 273.678 128.206 278.378 153.347C279.049 156.609 280.968 160.063 282.79 163.326L283.462 164.573C283.749 165.053 283.653 165.533 283.174 165.725C274.221 170.667 267.395 178.725 263.99 188.37C255.165 216.868 274.925 237.403 302.933 239.993C317.413 241.613 331.956 237.554 343.507 228.671C344.466 227.999 345.234 228.095 346.097 228.863L353.291 235.963C354.442 237.115 355.785 237.69 357.415 237.69H375.736C377.175 237.69 377.366 237.211 376.407 236.251L357.799 217.924C357.223 217.348 357.127 216.676 357.607 216.005C358.738 214.243 359.922 212.515 361.156 210.823C370.958 197.263 375.954 180.817 375.352 164.093C375.352 163.614 375.16 163.614 374.681 163.614H342.26C341.78 163.614 341.493 163.614 341.493 164.093V176.855C341.493 176.951 341.493 177.143 341.684 177.239L342.164 177.431ZM334.299 216.772L293.917 177.047C293.784 176.93 293.614 176.862 293.437 176.855H292.958C268.498 189.713 275.692 221.474 302.549 225.504C308.108 226.367 313.781 226.124 319.246 224.79C324.71 223.457 329.858 221.058 334.395 217.732L334.491 217.444C334.514 217.325 334.509 217.202 334.475 217.085C334.442 216.968 334.382 216.861 334.299 216.772ZM199.149 375.385C164.809 384.309 136.801 360.992 136.801 326.736C136.801 292.384 164.809 269.163 199.149 278.087C205.53 279.73 211.485 282.721 216.614 286.858C221.743 290.996 225.927 296.185 228.883 302.076C228.979 302.364 229.267 302.46 229.459 302.268L242.408 292.672C242.696 292.48 242.792 292.288 242.6 292.001C237.571 283.189 230.523 275.698 222.035 270.143C213.547 264.588 203.862 261.128 193.777 260.048C151.764 255.25 118.001 284.324 118.001 326.736C118.001 369.148 151.669 398.126 193.777 393.424C203.862 392.344 213.547 388.884 222.035 383.329C230.523 377.774 237.571 370.283 242.6 361.471C242.792 361.184 242.696 360.992 242.408 360.8L229.459 351.204C229.267 351.012 228.979 351.108 228.883 351.396C225.927 357.287 221.743 362.476 216.614 366.614C211.485 370.752 205.53 373.742 199.149 375.385ZM352.044 349.765C356.944 344.863 360.831 339.044 363.482 332.64C366.134 326.235 367.499 319.371 367.499 312.439C367.499 305.507 366.134 298.642 363.482 292.238C360.831 285.834 356.944 280.014 352.044 275.113C347.144 270.211 341.327 266.323 334.925 263.67C328.523 261.017 321.661 259.652 314.731 259.652C307.802 259.652 300.94 261.017 294.538 263.67C288.136 266.323 282.319 270.211 277.419 275.113C267.523 285.012 261.963 298.439 261.963 312.439C261.963 326.439 267.523 339.866 277.419 349.765C287.315 359.665 300.736 365.226 314.731 365.226C328.726 365.226 342.148 359.665 352.044 349.765ZM350.509 312.343C350.76 317.192 350.022 322.043 348.34 326.598C346.658 331.153 344.067 335.318 340.724 338.84C337.382 342.361 333.358 345.166 328.898 347.082C324.437 348.998 319.634 349.986 314.779 349.986C309.925 349.986 305.121 348.998 300.661 347.082C296.2 345.166 292.176 342.361 288.834 338.84C285.491 335.318 282.9 331.153 281.218 326.598C279.536 322.043 278.798 317.192 279.049 312.343C279.524 303.184 283.495 294.556 290.144 288.241C296.792 281.925 305.611 278.404 314.779 278.404C323.947 278.404 332.766 281.925 339.415 288.241C346.063 294.556 350.035 303.184 350.509 312.343ZM267.539 378.647H361.923C362.307 378.647 362.691 378.935 362.691 379.319V393.328C362.691 393.712 362.307 394 361.923 394H267.539C267.155 394 266.772 393.712 266.772 393.328V379.319C266.772 378.935 267.155 378.647 267.539 378.647Z" fill="black"/>
</svg>
