<svg width="500" height="500" viewBox="0 0 500 500" fill="none" xmlns="http://www.w3.org/2000/svg">
<rect width="500" height="500" fill="#F9FBFB"/>
<path d="M99.9167 225H68L50 275H82C107.417 275 112.917 263.083 117.667 250C122.333 236.917 125.333 225 99.9167 225ZM79.75 266.667H75.4167L86.5833 233.333H91C99.5 233.333 99.8333 236.5 95 250C90.0833 263.5 88.3333 266.667 79.75 266.667ZM289.25 239.833L289.667 238.667C290.75 235.833 289.667 233.333 285.333 233.333C280.583 233.333 277.583 235.583 276.75 237.75C275.25 241.75 281.25 243.25 288.083 245C297.417 247.25 308.417 250 304.667 260.167C300.75 270.417 288.417 275 268.833 275C250.5 275 241.583 271.417 245.25 261.417L246.417 258.333H267.917L267 260.833C265.417 265 267.833 266.667 272.167 266.667C276.667 266.667 280.083 264.5 281.083 261.833C282.583 257.833 276.75 256.333 270.083 254.667C261.167 252.417 250.75 249.75 254.417 240C258.083 230.333 269.25 225 288 225C307.333 225 313.917 229.5 310 239.833H289.167H289.25ZM365.75 225H337.5L298.333 275H322.167L327.583 266.667H345.417L344.5 275H368.333L365.667 225H365.75ZM347.833 235.25H348.083L346.417 258.333H332L347.833 235.25ZM414.417 225H389.417L371.083 275H392.083L403.333 244.167H403.583L407.25 275H431.75L450 225H429.083L417.833 255.833H417.583L414.417 225ZM247.25 250C254 232 248.917 225 226.083 225C203.333 225 192.917 232 186.083 250C179.333 268 184.417 275 207.25 275C230 275 240.417 268 247.25 250ZM224.25 250C219.25 263 217.25 266.667 210.417 266.667C203.583 266.667 204.25 263 209.083 250C214.083 237 216.083 233.333 222.917 233.333C229.75 233.333 229.167 237 224.25 250ZM162 225C184.75 225 189.917 232 183.083 250C176.25 268 165.833 275 143.083 275C120.333 275 115.167 268 122 250C128.75 232 139.25 225 162 225ZM146.333 266.667C153.167 266.667 155.167 263 160.083 250C165 237 165.583 233.333 158.75 233.333C151.917 233.333 149.917 237 145 250C140.083 263 139.5 266.667 146.333 266.667Z" fill="#1F5AA3"/>
</svg>
