<svg width="500" height="500" viewBox="0 0 500 500" fill="none" xmlns="http://www.w3.org/2000/svg">
<rect width="500" height="500" fill="white"/>
<path d="M274.021 280.372V234.797C274.021 233.742 274.166 233.725 274.453 234.737L287.412 280.408C287.429 280.505 287.482 280.59 287.559 280.65C287.637 280.71 287.734 280.739 287.832 280.732H297.559C297.654 280.739 297.749 280.712 297.825 280.655C297.901 280.597 297.953 280.514 297.972 280.42L311.525 234.726C311.818 233.725 311.968 233.748 311.968 234.791V280.414C311.963 280.457 311.966 280.5 311.98 280.54C311.993 280.581 312.017 280.617 312.046 280.648C312.076 280.678 312.113 280.701 312.154 280.715C312.195 280.728 312.237 280.732 312.281 280.726H325.287C325.327 280.731 325.368 280.729 325.407 280.716C325.445 280.703 325.481 280.682 325.509 280.654C325.538 280.624 325.56 280.59 325.573 280.552C325.587 280.513 325.592 280.472 325.586 280.432V219.566C325.585 219.493 325.556 219.424 325.504 219.372C325.452 219.322 325.383 219.291 325.311 219.29H305.384C305.306 219.29 305.23 219.316 305.168 219.362C305.106 219.409 305.059 219.473 305.036 219.548L293.289 258.658C293.088 259.318 292.889 259.318 292.689 258.658L281.008 219.464C280.996 219.411 280.966 219.364 280.924 219.331C280.881 219.299 280.828 219.282 280.774 219.284H266.226C266.137 219.284 266.05 219.249 265.986 219.186C265.922 219.124 265.886 219.038 265.884 218.949L265.65 184.462C265.65 184.385 265.674 184.311 265.721 184.25C265.768 184.189 265.834 184.145 265.908 184.126L335.853 166.682C335.878 166.675 335.902 166.674 335.928 166.678C335.953 166.681 335.976 166.689 335.998 166.702C336.02 166.715 336.04 166.732 336.054 166.753C336.069 166.773 336.081 166.795 336.086 166.82V166.868L337.022 333.053C337.022 333.086 337.016 333.12 337.003 333.15C336.989 333.181 336.97 333.209 336.947 333.232C336.922 333.256 336.894 333.275 336.862 333.287C336.832 333.299 336.798 333.305 336.765 333.304H336.705L266.868 315.866C266.78 315.853 266.7 315.806 266.646 315.735C266.591 315.665 266.565 315.577 266.574 315.488L266.34 281.145C266.331 281.093 266.335 281.039 266.35 280.987C266.367 280.935 266.394 280.89 266.431 280.851C266.469 280.812 266.514 280.783 266.566 280.765C266.616 280.748 266.67 280.743 266.723 280.75H273.644C273.695 280.757 273.747 280.752 273.796 280.736C273.845 280.718 273.89 280.691 273.926 280.655C273.963 280.618 273.991 280.574 274.007 280.525C274.024 280.475 274.028 280.424 274.021 280.372Z" fill="#0188CC"/>
<path d="M249.006 171.183V328.822C249.006 328.886 248.98 328.947 248.935 328.991C248.89 329.037 248.829 329.062 248.765 329.062L169.994 320.331C169.933 320.326 169.878 320.299 169.838 320.253C169.797 320.209 169.776 320.151 169.778 320.09V179.914C169.776 179.854 169.797 179.795 169.838 179.751C169.878 179.706 169.933 179.678 169.994 179.674L248.742 170.942C248.773 170.94 248.805 170.942 248.836 170.952C248.865 170.961 248.894 170.975 248.918 170.995C248.942 171.016 248.963 171.041 248.978 171.068C248.993 171.096 249.002 171.126 249.006 171.158V171.183ZM216.198 219.48C216.198 219.448 216.193 219.418 216.182 219.389C216.17 219.36 216.153 219.334 216.131 219.312C216.109 219.29 216.083 219.273 216.054 219.262C216.025 219.25 215.995 219.245 215.963 219.245H202.843C202.812 219.245 202.782 219.25 202.753 219.262C202.724 219.273 202.698 219.29 202.676 219.312C202.654 219.334 202.636 219.36 202.626 219.389C202.614 219.418 202.608 219.448 202.609 219.48V280.525C202.608 280.556 202.614 280.586 202.626 280.616C202.636 280.644 202.654 280.671 202.676 280.692C202.698 280.714 202.724 280.732 202.753 280.742C202.782 280.754 202.812 280.76 202.843 280.759H215.963C215.995 280.76 216.025 280.754 216.054 280.742C216.083 280.732 216.109 280.714 216.131 280.692C216.153 280.671 216.17 280.644 216.182 280.616C216.193 280.586 216.198 280.556 216.198 280.525V219.48Z" fill="#1B569A"/>
<path d="M109.445 230.79C109.414 230.822 109.396 230.864 109.395 230.908L109.335 250.835C109.336 250.879 109.354 250.92 109.385 250.952C109.417 250.982 109.459 251.001 109.503 251.002H118.42C123.643 251.021 127.906 247.027 127.906 242.092V239.765C127.924 234.806 123.703 230.77 118.48 230.77L109.562 230.74C109.518 230.741 109.477 230.76 109.445 230.79Z" fill="#0F325C"/>
<path fill-rule="evenodd" clip-rule="evenodd" d="M160.7 175.343H73V324.658L160.7 324.641C160.741 324.646 160.783 324.641 160.822 324.627C160.862 324.614 160.897 324.59 160.925 324.561C160.955 324.532 160.977 324.496 160.99 324.457C161.003 324.417 161.006 324.376 161.001 324.335V175.642C161.003 175.623 161.004 175.604 161.003 175.586C161.001 175.564 160.997 175.542 160.99 175.521C160.977 175.481 160.955 175.446 160.927 175.417C160.897 175.387 160.861 175.366 160.822 175.353C160.783 175.34 160.741 175.337 160.7 175.343ZM120.619 262.426C116.933 262.509 113.335 262.509 109.825 262.426C109.762 262.416 109.698 262.421 109.637 262.442C109.577 262.462 109.522 262.496 109.477 262.542C109.433 262.588 109.4 262.644 109.381 262.705C109.362 262.766 109.358 262.83 109.37 262.893V280.398C109.377 280.446 109.372 280.496 109.357 280.543C109.341 280.59 109.315 280.632 109.28 280.668C109.245 280.702 109.202 280.729 109.155 280.744C109.109 280.759 109.059 280.764 109.01 280.757H96.087C96.0431 280.763 95.9984 280.759 95.9564 280.745C95.9144 280.73 95.8763 280.706 95.8449 280.676C95.8136 280.644 95.7899 280.605 95.7757 280.564C95.7615 280.522 95.7573 280.477 95.7632 280.433V219.586C95.7585 219.544 95.7632 219.5 95.7771 219.46C95.7912 219.42 95.814 219.384 95.844 219.355C95.8739 219.324 95.9103 219.302 95.9503 219.288C95.9903 219.274 96.0329 219.269 96.075 219.274C107.541 219.169 115.98 219.192 121.393 219.339C123.789 219.432 126.165 219.804 128.475 220.449C140.918 223.777 143.61 236.334 141.403 247.434C139.298 258.036 130.592 262.162 120.619 262.426Z" fill="#0F325C"/>
<path d="M425 162.152H424.772L363.625 188.4C363.564 188.425 363.512 188.467 363.476 188.522C363.441 188.576 363.421 188.641 363.421 188.705V222.766C363.414 222.789 363.414 222.815 363.421 222.839C363.442 222.857 363.47 222.869 363.499 222.869C363.527 222.869 363.556 222.857 363.577 222.839C373.843 215.361 388.45 217.687 398.789 223.924C398.811 223.939 398.831 223.956 398.848 223.976C398.858 223.988 398.867 224 398.876 224.013C398.898 224.048 398.913 224.088 398.92 224.129C398.927 224.17 398.927 224.213 398.918 224.254C398.908 224.295 398.891 224.334 398.867 224.368L391.97 234.268C391.946 234.315 391.911 234.356 391.868 234.388C391.825 234.42 391.776 234.441 391.723 234.451C391.67 234.461 391.616 234.458 391.564 234.444C391.513 234.43 391.466 234.404 391.425 234.37C387.946 231.929 383.803 230.61 379.552 230.592C375.954 230.567 370.85 232.044 371.156 236.72C371.421 240.732 376.103 242.658 379.366 243.766C379.61 243.849 379.855 243.932 380.101 244.015C388.07 246.708 397.402 249.861 398.879 259.441C402.207 281.035 378.838 285.935 363.745 278.853C363.499 278.739 363.378 278.816 363.378 279.086V311.3C363.378 311.366 363.398 311.429 363.435 311.485C363.471 311.539 363.523 311.581 363.583 311.607L424.749 337.853H425V162.152Z" fill="#01B6ED"/>
<path d="M373.718 254.42C370.256 253.175 366.78 251.924 363.787 249.667C363.517 249.468 363.384 249.534 363.39 249.871V264.088C363.39 264.19 363.415 264.29 363.46 264.38C363.506 264.471 363.573 264.549 363.654 264.61C368.656 268.364 375.93 270.858 381.956 268.616C386.418 266.96 387.047 261.671 383.239 258.901C380.374 256.815 377.052 255.62 373.718 254.42Z" fill="#01B6ED"/>
</svg>
