<svg width="500" height="500" viewBox="0 0 500 500" fill="none" xmlns="http://www.w3.org/2000/svg">
<rect width="500" height="500" fill="white"/>
<path d="M316 234.002V218.002H260V234.002H278.72V282.002H297.28V234.002H316ZM372 218.002V234.002H324V218.002H372ZM372 242.002V258.002H324V242.002H372ZM372 266.002V282.002H324V266.002H372ZM60 218.002H76V247.762L96.16 218.002H116L92.4 250.002L116 282.002H96.16L76 252.242V282.002H60V218.002ZM444 257.922C442.157 264.861 438.061 270.991 432.356 275.349C426.65 279.708 419.659 282.048 412.48 282.002C408.246 282.034 404.048 281.231 400.124 279.64C396.2 278.049 392.628 275.701 389.612 272.729C386.596 269.758 384.195 266.221 382.546 262.322C380.896 258.422 380.031 254.236 380 250.002C380 232.402 394.56 218.002 412.48 218.002C427.68 218.002 440.48 228.242 444 242.082H425.92C424.173 239.015 421.46 236.612 418.204 235.247C414.949 233.882 411.334 233.632 407.921 234.536C404.509 235.439 401.491 237.446 399.338 240.244C397.185 243.041 396.018 246.472 396.018 250.002C396.018 253.532 397.185 256.963 399.338 259.761C401.491 262.558 404.509 264.565 407.921 265.469C411.334 266.373 414.949 266.123 418.204 264.758C421.46 263.393 424.173 260.99 425.92 257.922H444ZM225.04 218.002C230.324 217.703 235.585 218.894 240.225 221.44C244.864 223.986 248.695 227.784 251.28 232.402L239.04 238.162C237.68 235.762 234.24 230.882 225.04 230.882C220.48 230.882 214.4 231.842 214.4 236.482C214.4 242.482 225.6 242.882 228.16 243.362C239.76 245.202 252 250.722 252 263.362C252 277.042 237.36 282.002 225.04 282.002C212.24 282.002 201.84 276.002 196 265.362L208.16 259.442C211.68 265.842 217.2 269.122 225.04 269.122C229.04 269.122 237.12 268.482 237.12 262.962C237.12 257.442 230.16 256.722 225.76 256.002C214.96 254.242 199.04 249.842 199.04 237.042C199.04 223.522 212.4 218.002 225.04 218.002Z" fill="#002B81"/>
<path d="M154.4 210C152 210.08 149.52 210.4 147.2 210.96L148.56 216.08C150.48 215.68 152.4 215.36 154.4 215.28V210ZM157.6 215.28V210C160.024 210.101 162.434 210.422 164.8 210.96L163.44 216.08C161.493 215.644 159.513 215.376 157.52 215.28H157.6ZM154.4 217.28C152.56 217.44 150.8 217.68 149.04 218.08L150.56 223.52L154.4 223.04V217.28ZM157.6 223.04V217.28C159.44 217.44 161.2 217.68 162.96 218.08L161.44 223.52C160.147 223.265 158.837 223.105 157.52 223.04H157.6ZM154.4 225.44C153.36 225.52 152.24 225.68 151.2 225.92L152.56 231.2L154.4 230.96V225.44ZM157.6 230.96V225.44C158.64 225.52 159.76 225.68 160.8 225.92L159.44 231.2C158.804 231.088 158.164 231.008 157.52 230.96H157.6ZM164.16 232.72C163.613 232.426 163.053 232.159 162.48 231.92L163.84 226.72L166.96 227.92L164.16 232.72ZM168.4 235.44C167.914 235.015 167.407 234.614 166.88 234.24L169.6 229.52C170.56 230.16 171.44 230.8 172.24 231.52L168.4 235.44ZM171.76 239.12L170.56 237.6L174.48 233.76C175.2 234.56 175.84 235.44 176.48 236.4L171.68 239.12H171.76ZM174 243.52C173.787 242.949 173.547 242.388 173.28 241.84L178.08 239.04L179.28 242.16L174 243.52ZM175.04 248.4L174.8 246.56L180.08 245.12L180.56 248.4H175.04ZM174.8 253.44L175.04 251.52H180.56L180.08 254.88L174.8 253.44ZM173.28 258.24L174.08 256.48L179.28 257.84L178.08 260.96L173.28 258.16V258.24ZM170.56 262.4L171.76 260.88L176.48 263.6C175.873 264.524 175.205 265.406 174.48 266.24L170.56 262.4ZM166.88 265.76L168.4 264.56L172.24 268.48C171.44 269.2 170.56 269.84 169.6 270.48L166.88 265.68V265.76ZM162.48 268L164.16 267.28L166.96 272.08L163.84 273.28L162.48 268ZM157.52 269.04L159.44 268.8L160.88 274.08L157.52 274.56V269.04ZM152.56 268.8L154.4 269.04V274.56C153.36 274.48 152.24 274.32 151.2 274.08L152.56 268.8ZM147.76 267.28L149.52 268.08L148.16 273.28L145.04 272.08L147.84 267.28H147.76ZM143.6 264.56L145.12 265.76L142.4 270.48C141.476 269.873 140.594 269.205 139.76 268.48L143.6 264.56ZM140.24 260.88L141.44 262.4L137.52 266.24C136.795 265.406 136.127 264.524 135.52 263.6L140.32 260.88H140.24ZM138 256.48L138.72 258.16L133.92 260.96C133.449 259.949 133.048 258.906 132.72 257.84L138 256.48ZM136.96 251.52L137.2 253.44L131.92 254.88C131.683 253.772 131.522 252.65 131.44 251.52H136.96ZM137.2 246.56C137.09 247.169 137.01 247.783 136.96 248.4H131.44C131.52 247.36 131.68 246.24 131.92 245.2L137.2 246.56ZM138.72 241.76L137.92 243.52L132.72 242.16L133.92 239.04L138.72 241.84V241.76ZM141.44 237.6L140.24 239.12L135.52 236.4C136.16 235.44 136.8 234.56 137.52 233.76L141.44 237.6ZM145.12 234.24L143.6 235.44L139.76 231.52C140.56 230.8 141.44 230.16 142.4 229.52L145.12 234.32V234.24ZM149.52 232L147.84 232.72L145.04 227.92L148.16 226.72L149.52 232ZM147.52 224.32L146 218.8C144.32 219.36 142.64 220.08 141.04 220.88L143.84 225.84L147.52 224.32ZM141.12 227.44L138.32 222.48C136.72 223.44 135.36 224.56 134 225.76L138 229.76L141.2 227.36L141.12 227.44ZM135.84 232L131.84 228C130.56 229.36 129.44 230.8 128.48 232.32L133.44 235.2C134.16 234.08 134.96 233.04 135.84 232ZM131.84 237.84L126.88 235.04C126.08 236.64 125.36 238.24 124.8 240L130.4 241.52C130.8 240.24 131.28 239.04 131.84 237.84ZM129.52 244.56L124 243.04C123.68 244.8 123.44 246.56 123.28 248.48H129.04C129.04 247.12 129.28 245.84 129.52 244.48V244.56ZM129.04 251.52H123.28C123.44 253.44 123.68 255.2 124.08 256.96L129.52 255.44C129.265 254.147 129.105 252.837 129.04 251.52ZM130.32 258.48L124.8 260C125.36 261.68 126.08 263.36 126.88 264.96L131.84 262.16L130.32 258.48ZM133.44 264.88L128.48 267.68C129.44 269.28 130.56 270.64 131.76 272L135.76 268C134.883 266.994 134.08 265.924 133.36 264.8L133.44 264.88ZM138 270.16L134 274.16C135.36 275.44 136.8 276.56 138.32 277.52L141.2 272.56C140.076 271.84 139.006 271.037 138 270.16ZM143.84 274.16L141.04 279.12C142.64 279.92 144.24 280.64 146 281.2L147.52 275.6C146.259 275.212 145.029 274.73 143.84 274.16ZM150.56 276.48L149.04 282C150.8 282.32 152.56 282.56 154.4 282.72V276.96C153.11 276.892 151.827 276.732 150.56 276.48ZM157.52 276.96V282.72C159.44 282.56 161.2 282.32 162.96 281.92L161.44 276.48C160.16 276.72 158.88 276.88 157.52 276.96ZM164.48 275.68L166 281.2C167.68 280.64 169.36 279.92 170.96 279.12L168.16 274.16L164.48 275.68ZM170.88 272.56L173.68 277.52C175.28 276.56 176.64 275.44 178 274.24L174 270.24L170.8 272.64L170.88 272.56ZM176.16 267.92L180.16 272C181.44 270.64 182.56 269.2 183.52 267.68L178.56 264.8C177.84 265.92 177.04 266.96 176.16 268V267.92ZM180.16 262.16L185.12 264.96C185.92 263.36 186.64 261.76 187.2 260L181.6 258.48C181.2 259.76 180.72 260.96 180.16 262.16ZM182.48 255.44L188 256.96C188.32 255.2 188.56 253.44 188.72 251.52H182.96C182.88 252.88 182.72 254.16 182.48 255.52V255.44ZM182.96 248.4H188.72C188.602 246.594 188.334 244.802 187.92 243.04L182.48 244.56L182.96 248.4ZM181.68 241.52L187.2 240C186.645 238.292 185.949 236.633 185.12 235.04L180.16 237.84L181.68 241.52ZM178.56 235.12L183.52 232.32C182.548 230.792 181.451 229.347 180.24 228L176.24 232L178.64 235.2L178.56 235.12ZM173.92 229.84L178 225.84C176.64 224.56 175.2 223.44 173.68 222.48L170.8 227.44C171.92 228.16 172.96 228.96 174 229.84H173.92ZM168.16 225.84L170.96 220.88C169.36 220.08 167.76 219.36 166 218.8L164.48 224.4C165.76 224.8 166.96 225.28 168.16 225.84ZM166.56 216.88C168.4 217.52 170.24 218.24 172 219.2L174.64 214.56C172.465 213.419 170.188 212.481 167.84 211.76L166.48 216.88H166.56ZM177.36 216.08L174.72 220.72C176.32 221.84 177.92 223.04 179.44 224.4L183.2 220.64C181.36 218.96 179.44 217.44 177.36 216.16V216.08ZM185.36 222.8L181.6 226.56C182.96 228 184.16 229.6 185.28 231.36L189.84 228.64C188.56 226.56 187.04 224.64 185.36 222.8ZM191.44 231.36L186.8 234C187.76 235.76 188.48 237.6 189.12 239.52L194.24 238.16C193.44 235.76 192.56 233.52 191.44 231.36ZM195.04 241.12L189.92 242.56C190.32 244.48 190.64 246.4 190.72 248.4H196C195.899 245.976 195.577 243.566 195.04 241.2V241.12ZM196 251.52H190.72C190.64 253.6 190.32 255.52 189.92 257.44L195.04 258.88C195.587 256.462 195.909 253.998 196 251.52ZM194.24 261.92L189.12 260.48C188.48 262.4 187.76 264.24 186.8 266L191.44 268.64C192.56 266.48 193.52 264.24 194.24 261.84V261.92ZM189.84 271.36L185.28 268.72C184.16 270.32 182.96 271.92 181.6 273.44L185.36 277.2C187.04 275.36 188.56 273.44 189.84 271.36ZM183.2 279.36L179.44 275.6C178 276.96 176.4 278.16 174.64 279.28L177.36 283.84C179.44 282.56 181.36 281.04 183.2 279.36ZM174.64 285.44L172 280.8C170.24 281.76 168.4 282.48 166.48 283.12L167.84 288.24C170.24 287.44 172.48 286.64 174.64 285.44ZM164.88 289.04L163.44 283.92C161.52 284.32 159.6 284.64 157.52 284.72V290C159.998 289.909 162.462 289.587 164.88 289.04ZM154.48 290V284.72C152.4 284.64 150.48 284.32 148.56 283.92L147.12 289.04C149.52 289.6 151.92 289.84 154.4 290H154.48ZM144.08 288.24L145.52 283.12C143.616 282.508 141.769 281.732 140 280.8L137.36 285.44C139.52 286.56 141.76 287.52 144.16 288.24H144.08ZM134.64 283.84L137.28 279.28C135.68 278.16 134.08 276.96 132.56 275.6L128.8 279.36C130.64 281.04 132.56 282.56 134.64 283.84ZM126.64 277.2L130.4 273.44C129.037 271.95 127.805 270.344 126.72 268.64L122.16 271.36C123.44 273.44 124.96 275.36 126.64 277.2ZM120.56 268.64L125.2 266C124.268 264.231 123.492 262.384 122.88 260.48L117.76 261.84C118.56 264.24 119.36 266.48 120.56 268.64ZM116.96 258.88L122.08 257.44C121.644 255.493 121.376 253.513 121.28 251.52H116C116.091 253.998 116.413 256.462 116.96 258.88ZM116 248.4H121.28C121.36 246.32 121.68 244.4 122.08 242.48L116.96 241.04C116.4 243.44 116.16 245.84 116 248.32V248.4ZM117.76 238L122.88 239.44C123.52 237.52 124.24 235.68 125.2 233.92L120.56 231.28C119.44 233.44 118.48 235.68 117.76 238.08V238ZM122.16 228.56L126.72 231.2C127.84 229.6 129.04 228 130.4 226.48L126.64 222.72C124.96 224.56 123.44 226.48 122.16 228.56ZM128.8 220.56L132.56 224.32C134 222.96 135.6 221.76 137.36 220.64L134.64 216.08C132.56 217.36 130.64 218.88 128.8 220.56ZM137.36 214.48L140 219.12C141.76 218.16 143.6 217.44 145.52 216.8L144.16 211.68C141.76 212.48 139.52 213.36 137.36 214.48Z" fill="url(#paint0_linear_781_3327)"/>
<defs>
<linearGradient id="paint0_linear_781_3327" x1="128.96" y1="219.52" x2="181.04" y2="279.04" gradientUnits="userSpaceOnUse">
<stop stop-color="#0D2A7B"/>
<stop offset="0.53" stop-color="#C62336"/>
<stop offset="1" stop-color="#005C36"/>
</linearGradient>
</defs>
</svg>
