<svg width="500" height="500" viewBox="0 0 500 500" fill="none" xmlns="http://www.w3.org/2000/svg">
<rect width="500" height="500" fill="white"/>
<path fill-rule="evenodd" clip-rule="evenodd" d="M288.509 231.213C280.434 239.957 276.396 251.771 276.396 266.682C276.396 281.519 280.434 293.333 288.509 302.103C296.583 310.871 307.507 315.255 321.204 315.255C334.901 315.255 345.824 310.845 353.949 302.103C362.073 293.359 366.135 281.544 366.135 266.682C366.135 251.821 362.073 240.006 353.949 231.238C345.824 222.47 334.926 218.086 321.204 218.086C307.482 218.086 296.583 222.47 288.509 231.213ZM302.405 290.312C297.922 284.689 295.667 276.813 295.667 266.682C295.667 256.502 297.922 248.626 302.405 243.027C306.887 237.43 313.08 234.631 321.229 234.631C329.378 234.631 335.718 237.43 340.252 243.053C344.784 248.65 347.038 256.552 347.038 266.682C347.038 276.813 344.784 284.689 340.252 290.312C335.718 295.935 329.304 298.733 321.229 298.733C313.154 298.733 306.887 295.935 302.405 290.312Z" fill="#111B3D"/>
<path fill-rule="evenodd" clip-rule="evenodd" d="M104.67 220.463H126.492L159.583 312.678H139.768L133.527 293.704H97.9331L91.8894 312.678H72L104.67 220.463ZM115.643 238.941L102.936 278.199H128.424L115.643 238.941Z" fill="#111B3D"/>
<path d="M169.043 312.678V220.463H196.958L215.211 290.633L233.218 220.463H261.257V312.678H243.548V238.297L224.921 312.678H205.602L186.727 238.297V312.678H169.043Z" fill="#111B3D"/>
<path d="M418.231 164.811C409.982 164.811 403.32 171.499 403.32 179.771C403.32 180.167 403.32 180.563 403.369 180.96C403.369 180.96 403.369 180.96 403.369 181.035C403.369 181.207 403.393 181.356 403.418 181.53C403.616 184.155 403.567 194.731 389.522 192.428C388.681 192.279 387.838 192.206 386.972 192.206C378.723 192.206 372.061 198.892 372.061 207.166C372.061 212.417 374.761 217.023 378.847 219.698C379.145 219.897 379.466 220.07 379.764 220.243C392.149 227.971 385.51 237.904 383.726 240.182C383.603 240.332 383.504 240.456 383.381 240.604C383.355 240.629 383.33 240.653 383.33 240.653C381.349 243.18 380.161 246.375 380.161 249.842C380.161 258.091 386.848 264.803 395.072 264.803C403.294 264.803 409.982 258.116 409.982 249.842C409.982 244.046 406.688 239.018 401.857 236.541C401.857 236.541 401.759 236.492 401.709 236.468C401.585 236.393 401.437 236.344 401.313 236.269C388.358 229.878 396.409 219.129 398.168 216.999C398.266 216.875 398.39 216.751 398.489 216.627C400.62 214.051 401.882 210.733 401.882 207.141C401.882 206.497 401.833 205.853 401.759 205.209C401.759 205.209 401.759 205.209 401.759 205.134C401.734 204.936 401.709 204.763 401.684 204.565C401.337 201.815 400.817 191.19 414.887 194.31C415.976 194.558 417.091 194.707 418.255 194.707C426.503 194.707 433.166 188.019 433.166 179.747C433.166 171.473 426.479 164.785 418.255 164.785L418.231 164.811Z" fill="url(#paint0_linear_781_3336)"/>
<path d="M345.058 208.773C353.293 208.773 359.969 202.074 359.969 193.812C359.969 185.55 353.293 178.852 345.058 178.852C336.822 178.852 330.147 185.55 330.147 193.812C330.147 202.074 336.822 208.773 345.058 208.773Z" fill="url(#paint1_linear_781_3336)"/>
<path d="M440 222.57C440 230.818 433.312 237.53 425.089 237.53C416.865 237.53 410.178 230.842 410.178 222.57C410.178 214.296 416.865 207.609 425.089 207.609C433.312 207.609 440 214.296 440 222.57Z" fill="url(#paint2_linear_781_3336)"/>
<path d="M394.049 166.961C394.049 175.209 387.361 181.922 379.138 181.922C370.914 181.922 364.227 175.234 364.227 166.961C364.227 158.688 370.914 152 379.138 152C387.361 152 394.049 158.688 394.049 166.961Z" fill="url(#paint3_linear_781_3336)"/>
<defs>
<linearGradient id="paint0_linear_781_3336" x1="382.414" y1="190.57" x2="428.931" y2="237.086" gradientUnits="userSpaceOnUse">
<stop stop-color="#2DBCED"/>
<stop offset="0.31" stop-color="#2AB3E2"/>
<stop offset="0.35" stop-color="#2AB2E1"/>
<stop offset="0.48" stop-color="#24A3D4"/>
<stop offset="0.72" stop-color="#147DB4"/>
<stop offset="1" stop-color="#004989"/>
</linearGradient>
<linearGradient id="paint1_linear_781_3336" x1="334.481" y1="183.236" x2="355.61" y2="204.363" gradientUnits="userSpaceOnUse">
<stop stop-color="#F2E633"/>
<stop offset="0.09" stop-color="#E8E345"/>
<stop offset="0.37" stop-color="#CCDC7F"/>
<stop offset="0.44" stop-color="#B1D691"/>
<stop offset="0.57" stop-color="#82CDB1"/>
<stop offset="0.7" stop-color="#5DC5CB"/>
<stop offset="0.81" stop-color="#42C0DD"/>
<stop offset="0.92" stop-color="#32BDE9"/>
<stop offset="1" stop-color="#2DBCED"/>
</linearGradient>
<linearGradient id="paint2_linear_781_3336" x1="414.513" y1="212.018" x2="435.64" y2="233.121" gradientUnits="userSpaceOnUse">
<stop stop-color="#2DBCED"/>
<stop offset="0.31" stop-color="#2AB3E2"/>
<stop offset="0.35" stop-color="#2AB2E1"/>
<stop offset="0.48" stop-color="#24A3D4"/>
<stop offset="0.72" stop-color="#147DB4"/>
<stop offset="1" stop-color="#004989"/>
</linearGradient>
<linearGradient id="paint3_linear_781_3336" x1="368.562" y1="156.385" x2="389.689" y2="177.513" gradientUnits="userSpaceOnUse">
<stop stop-color="#F2E633"/>
<stop offset="0.09" stop-color="#E8E345"/>
<stop offset="0.37" stop-color="#CCDC7F"/>
<stop offset="0.44" stop-color="#B1D691"/>
<stop offset="0.57" stop-color="#82CDB1"/>
<stop offset="0.7" stop-color="#5DC5CB"/>
<stop offset="0.81" stop-color="#42C0DD"/>
<stop offset="0.92" stop-color="#32BDE9"/>
<stop offset="1" stop-color="#2DBCED"/>
</linearGradient>
</defs>
</svg>
