<svg width="500" height="500" viewBox="0 0 500 500" fill="none" xmlns="http://www.w3.org/2000/svg">
<rect width="500" height="500" fill="#193B6B"/>
<path d="M323.204 233.899C316.504 235.775 310.111 238.61 304.223 242.318C299.441 245.57 296.683 249.085 296.155 252.635V253.039V329.145C299.319 328.389 302.324 327.598 305.172 326.718C311.872 324.842 318.265 322.006 324.153 318.299C325.96 317.106 327.612 315.695 329.075 314.099V232.301C327.001 232.81 325.049 233.337 323.204 233.899Z" fill="#54AFB5"/>
<path d="M327.316 164H163.859H162.699C142.148 164.995 122.712 173.64 108.213 188.237C98.6301 197.861 91.5524 209.688 87.5989 222.68C83.6453 235.673 82.9367 249.437 85.5347 262.768C88.1328 276.099 93.9585 288.588 102.502 299.145C111.045 309.703 122.047 318.005 134.541 323.327C144.724 327.655 155.677 329.879 166.741 329.865H237.677V360.94C240.841 359.991 243.865 358.953 246.695 357.847C252.795 355.577 258.551 352.472 263.796 348.619C265.792 347.259 267.673 345.736 269.42 344.067C269.983 343.521 270.509 342.977 271.003 342.415V231.932H165.616H165.212C163.592 231.853 161.988 232.284 160.624 233.161C158.957 233.924 157.44 234.977 156.143 236.273C154.047 238.368 152.617 241.036 152.036 243.941C151.455 246.848 151.745 249.86 152.873 252.601C154.001 255.341 155.915 257.687 158.373 259.341C160.832 260.996 163.725 261.885 166.688 261.899H237.907C237.907 262.285 237.748 262.655 237.696 263.041V263.551V297.491H166.724C156.804 297.467 147.112 294.523 138.857 289.024C130.601 283.527 124.149 275.717 120.305 266.573C115.167 254.408 114.98 240.716 119.785 228.416C124.592 216.115 134.011 206.176 146.036 200.716C151.808 198.104 158.023 196.613 164.351 196.323H164.772H347.809C354.375 196.063 360.808 194.391 366.668 191.419C375.185 187.307 383.175 182.185 390.467 176.163C392.657 174.428 394.825 172.671 396.969 170.889C399.583 168.885 401.943 166.572 404 164C398.991 164.228 332.36 164 327.316 164Z" fill="white"/>
<path d="M392.876 253.199C386.093 255.355 379.688 258.558 373.893 262.69C369.113 266.346 366.353 270.301 365.827 274.326V274.782V360.554C368.989 359.71 372.013 358.795 374.843 357.829C381.624 355.67 388.028 352.469 393.825 348.338C395.655 346.971 397.308 345.383 398.747 343.61V251.389C396.672 251.969 394.721 252.566 392.876 253.199Z" fill="#E6634D"/>
<path d="M364.771 248.942C365.351 246.41 365.842 243.844 366.528 241.331C366.97 239.784 367.559 238.283 368.287 236.848C368.48 236.48 369.234 236.287 369.762 236.199C370.289 236.111 371.062 236.199 371.66 236.199C372.258 236.199 372.733 235.742 372.802 235.408C372.805 235.159 372.754 234.914 372.654 234.687C372.554 234.459 372.406 234.256 372.222 234.09C371.545 233.499 370.828 232.952 370.079 232.455C372.364 232.139 374.315 231.33 376.353 232.296C376.611 232.468 376.908 232.572 377.216 232.6C377.524 232.627 377.835 232.578 378.119 232.456C378.403 232.334 378.652 232.143 378.844 231.9C379.036 231.658 379.165 231.371 379.218 231.067C379.781 229.555 380.325 228.272 382.329 229.748C383.964 230.96 385.844 231.77 387.603 232.894C390.239 234.652 392.769 236.41 395.405 238.167C396.252 238.663 396.934 239.394 397.372 240.27C397.808 241.147 397.98 242.132 397.867 243.106L392.137 239.239C390.958 238.499 389.556 238.204 388.18 238.407C386.804 238.61 385.545 239.298 384.632 240.347C384.55 240.623 384.538 240.915 384.597 241.196C384.654 241.479 384.781 241.742 384.965 241.963C386.196 242.983 387.566 243.81 389.025 244.811C388.868 245.55 389.025 246.884 388.428 247.219C387.176 247.875 385.84 248.355 384.456 248.643C382.611 249.187 381.766 248.238 381.38 246.551C381.158 246.018 380.9 245.502 380.607 245.004C380.168 243.896 379.569 243.686 378.656 244.495C378.493 244.652 378.302 244.778 378.093 244.863C373.805 246.287 372.68 250.031 371.555 253.739C371.028 255.498 370.781 257.255 370.272 258.907C369.893 259.72 369.421 260.487 368.866 261.192L367.986 259.066L367.178 260.823H366.826L366.177 258.028L365.192 258.274C365.192 256.359 365.192 254.566 365.192 252.772C365.104 251.959 364.951 251.155 364.736 250.364L364.771 248.942Z" fill="white"/>
<path d="M322.833 208.1C322.464 213.038 323.957 217.608 325.241 222.372C325.684 224.461 325.556 226.632 324.869 228.654C324.183 230.677 322.963 232.477 321.339 233.866C319.809 235.308 316.647 236.15 318.949 239.402C319.336 239.965 318.649 240.702 317.736 240.844C316.543 241.138 315.368 241.508 314.221 241.95C310.705 242.9 310.108 246.257 308.333 248.612C307.577 249.596 307.296 250.528 305.784 249.632C304.905 249.333 303.988 249.161 303.06 249.122C298.859 248.156 298.508 247.838 301.303 244.676C305.503 240.034 305.713 234.129 307.56 228.698C308.983 224.516 310.301 220.314 313.94 217.362C314.564 216.81 314.991 216.07 315.152 215.253C316.013 211 318.228 208.362 322.833 208.1Z" fill="white"/>
</svg>
