<svg width="500" height="500" viewBox="0 0 500 500" fill="none" xmlns="http://www.w3.org/2000/svg">
<rect width="500" height="500" fill="black"/>
<path fill-rule="evenodd" clip-rule="evenodd" d="M106.186 246.331C106.007 246.299 106.009 246.27 106.186 246.243C110.516 245.628 113.704 243.175 113.699 238.516V232.952C113.696 230.011 112.941 227.021 110.326 225.468C108.454 224.361 105.944 224.005 103.776 224.005C90.973 223.998 77.7536 223.998 64.1172 224.005L64.0698 224.008L64.0296 224.034L64.0045 224.074L64 224.122V269.951L64.002 269.963L64.0088 269.976L64.0196 269.983L64.0326 269.986C76.385 270.005 88.7391 270.005 101.095 269.986C101.884 269.985 102.793 269.935 103.819 269.84C108.005 269.455 112.605 268.033 113.753 263.435C113.927 262.753 114.019 262.052 114.026 261.347C114.05 259.053 114.05 256.823 114.026 254.653C113.981 250.56 111.362 247.489 107.338 246.572C106.951 246.484 106.567 246.403 106.186 246.331ZM74.5421 242.351V231.591L74.5476 231.561L74.5645 231.536L74.59 231.518L74.6201 231.513H100.267C102.214 231.513 103.792 232.764 103.792 234.31V239.632C103.792 241.176 102.219 242.429 100.267 242.429H74.6201L74.565 242.406L74.5421 242.351ZM74.5307 261.557L74.5502 250.076L74.5769 250.011L74.6412 249.985L100.342 250.03C102.406 250.033 104.073 251.507 104.073 253.323L104.063 258.413C104.063 260.23 102.386 261.693 100.322 261.693L74.6217 261.648L74.5578 261.62L74.5307 261.557Z" fill="white"/>
<path d="M137.208 262.901C137.164 262.901 137.121 262.892 137.081 262.875L137.048 262.849L137.034 262.809V232.427C137.034 232.392 137.02 232.359 136.995 232.334C136.971 232.309 136.937 232.295 136.902 232.295H127.826L127.794 232.298L127.767 232.315L127.75 232.342L127.747 232.373V269.859C127.747 269.885 127.758 269.911 127.777 269.93C127.795 269.948 127.82 269.959 127.847 269.959H166.452L166.513 269.933L166.538 269.87V262.995C166.538 262.984 166.534 262.971 166.528 262.959C166.521 262.942 166.512 262.928 166.512 262.928L166.446 262.901H137.208Z" fill="white"/>
<path d="M179.211 232.359L182.452 269.892L182.448 269.917L182.436 269.938L182.415 269.953L182.392 269.96H173.371L173.324 269.941L173.305 269.895L176.558 232.363L176.58 232.319L176.624 232.302H179.15L179.191 232.319L179.211 232.359Z" fill="white"/>
<path d="M218.102 269.861V239.238L218.11 239.184L218.139 239.136L218.185 239.105L218.241 239.098H236.241L236.274 239.095L236.303 239.078L236.32 239.05L236.324 239.017V232.43L236.32 232.396L236.304 232.367L236.276 232.348L236.242 232.342C235.812 232.311 235.33 232.295 234.8 232.295C220.271 232.302 205.603 232.302 190.794 232.295L190.769 232.297L190.748 232.311L190.735 232.332L190.733 232.357V239.007L190.757 239.066L190.816 239.092H208.788L208.837 239.095L208.88 239.122L208.907 239.165L208.91 239.214V269.878L208.934 269.937L208.993 269.961H218.003L218.044 269.958L218.078 269.936L218.1 269.901L218.102 269.861Z" fill="white"/>
<path d="M255.956 262.941L255.946 262.968L255.956 262.994H283.843L283.877 262.997L283.906 263.014L283.923 263.043L283.926 263.076V269.909L283.923 269.927L283.913 269.944L283.898 269.954L283.879 269.956H241.551L241.509 269.948L241.473 269.925L241.449 269.888L241.441 269.847V266.182C241.438 266.083 241.457 265.986 241.495 265.894C241.532 265.803 241.589 265.721 241.662 265.653C250.663 256.891 259.724 248.093 268.845 239.257C268.965 239.143 268.942 239.089 268.777 239.094H244.323L244.289 239.092L244.26 239.074L244.241 239.045L244.238 239.011V232.381L244.241 232.347L244.258 232.319L244.287 232.302L244.321 232.299H283.816C283.845 232.299 283.873 232.311 283.893 232.331C283.902 232.34 283.91 232.351 283.916 232.363C283.922 232.377 283.926 232.391 283.926 232.406C283.957 233.549 283.965 234.65 283.948 235.71C283.947 235.879 283.884 236.042 283.773 236.168C283.497 236.493 283.193 236.812 282.865 237.125C274.024 245.583 265.125 254.11 256.17 262.706C256.092 262.779 256.021 262.858 255.956 262.941Z" fill="white"/>
<path d="M311.411 269.893L322.339 243.55C322.377 243.46 322.414 243.462 322.452 243.558L333.207 269.878C333.216 269.904 333.234 269.927 333.257 269.943C333.263 269.947 333.268 269.95 333.273 269.953C333.279 269.956 333.285 269.958 333.292 269.96C333.295 269.961 333.298 269.962 333.302 269.963C333.305 269.963 333.308 269.964 333.312 269.964C333.316 269.965 333.321 269.965 333.326 269.965C333.33 269.965 333.334 269.965 333.338 269.965H339.488L339.53 269.952L339.555 269.917L351.381 232.386V232.366L351.376 232.342L351.362 232.32L351.341 232.306L351.315 232.303H349.656L349.594 232.318L349.552 232.366L336.702 258.402L336.692 258.416L336.655 258.431L336.618 258.416C336.597 258.396 336.579 258.374 336.562 258.351C336.562 258.351 333.093 249.696 326.175 232.415C326.162 232.382 326.14 232.354 326.111 232.334C326.107 232.332 326.104 232.33 326.1 232.328L326.095 232.324C326.087 232.32 326.079 232.317 326.071 232.314C326.053 232.306 326.033 232.303 326.012 232.303H319.881L319.819 232.32L319.779 232.371L309.285 258.361L309.246 258.404L309.22 258.413L309.195 258.41L309.173 258.397L309.158 258.376L299.387 232.421C299.374 232.387 299.351 232.358 299.322 232.337C299.294 232.315 299.26 232.304 299.223 232.303H289.831C289.759 232.303 289.737 232.337 289.763 232.405L304.981 269.864C304.991 269.894 305.011 269.921 305.037 269.938C305.05 269.946 305.063 269.952 305.076 269.957C305.093 269.962 305.11 269.964 305.128 269.964H311.31L311.371 269.943L311.411 269.893Z" fill="white"/>
<path fill-rule="evenodd" clip-rule="evenodd" d="M361.752 269.997H352.643L352.623 269.993L352.606 269.981L352.595 269.964L352.592 269.944V269.919L374.909 232.325L374.928 232.306L374.953 232.299H383.727L383.752 232.305L383.77 232.324L406.433 269.918L406.439 269.957L406.416 269.99H396.152L396.126 269.982L396.107 269.963L391.413 261.755L391.394 261.735L391.368 261.729H366.534L366.507 261.735L366.487 261.755L361.797 269.967L361.778 269.988L361.752 269.997ZM370.496 254.744L370.491 254.793L370.521 254.83H387.539L387.585 254.811L387.603 254.766L387.595 254.736L378.958 239.282L378.92 239.251L378.871 239.255L378.846 239.282L370.496 254.744Z" fill="white"/>
<path d="M427.563 269.855V253.003C427.563 252.987 427.564 252.972 427.567 252.957C427.57 252.935 427.576 252.914 427.584 252.893C427.598 252.859 427.62 252.828 427.646 252.803L447.95 232.415C448.031 232.332 448.013 232.291 447.898 232.291H437.539C437.377 232.291 437.221 232.352 437.1 232.462C436.859 232.681 436.619 232.916 436.379 233.167C432.17 237.512 428.126 241.696 424.243 245.714C424.092 245.873 423.941 246.038 423.79 246.214L423.776 246.227L423.717 246.267L423.647 246.281L423.576 246.267L423.517 246.227C419.306 241.822 415.153 237.472 411.06 233.178C410.682 232.78 410.47 232.568 410.427 232.539C410.2 232.383 409.93 232.298 409.655 232.298H397.888L397.87 232.301L397.855 232.311L397.841 232.344L397.855 232.378C403.888 238.49 410.008 244.662 416.213 250.892C417.002 251.689 417.699 252.411 418.307 253.062C418.341 253.1 418.36 253.147 418.358 253.198V269.827L418.363 269.882L418.392 269.93L418.44 269.96L418.496 269.965L427.46 269.958C427.486 269.958 427.513 269.947 427.533 269.928C427.539 269.922 427.544 269.915 427.548 269.908C427.551 269.903 427.553 269.899 427.555 269.894C427.56 269.882 427.563 269.868 427.563 269.855Z" fill="white"/>
</svg>
