<svg width="500" height="500" viewBox="0 0 500 500" fill="none" xmlns="http://www.w3.org/2000/svg">
<rect width="500" height="500" fill="white"/>
<circle cx="250" cy="250" r="76" fill="#438BFF"/>
<circle cx="361" cy="250" r="76" fill="#2C5BF2"/>
<circle cx="139" cy="250" r="76" fill="#24E0A6"/>
<path d="M305.5 301.92C318.215 288.334 326 270.076 326 249.999C326 229.923 318.215 211.664 305.5 198.078C292.785 211.664 285 229.923 285 249.999C285 270.076 292.785 288.334 305.5 301.92Z" fill="#0049DB"/>
<path d="M194.5 301.92C207.215 288.334 215 270.076 215 249.999C215 229.923 207.215 211.664 194.5 198.078C181.785 211.664 174 229.923 174 249.999C174 270.076 181.785 288.334 194.5 301.92Z" fill="#3A68F9"/>
</svg>
