<svg width="500" height="500" viewBox="0 0 500 500" fill="none" xmlns="http://www.w3.org/2000/svg">
<rect width="500" height="500" fill="#F9FBFB"/>
<path d="M84.5774 280.005C81.0535 280.14 77.5398 279.545 74.2565 278.258C70.9732 276.971 67.9913 275.019 65.4977 272.526C63.0041 270.032 61.0526 267.05 59.7656 263.767C58.4786 260.484 57.8839 256.97 58.0187 253.446C58.0187 233.607 71.2181 216.008 92.0171 216.008C102.017 216.008 109.536 219.688 114.016 226.247L106.656 231.047C103.057 226.087 98.1768 224.007 91.6171 224.007C76.9778 224.007 66.0183 239.767 66.0183 253.446C66.0183 263.925 75.6179 272.005 86.0174 272.005C91.8571 272.005 96.8168 269.765 101.217 265.445L105.056 272.325C99.4567 277.365 92.0171 280.005 84.5774 280.005ZM95.7769 270.565L100.177 256.006H90.0172V248.006H109.776L104.976 272.325L95.7769 270.565ZM114.016 280.005L115.376 272.165L142.175 248.646C146.414 244.806 151.294 240.247 151.294 234.007C151.294 229.207 148.254 226.007 141.615 226.007C136.495 226.007 131.695 228.407 128.095 232.807L120.976 226.407C126.095 219.608 134.575 216.008 143.055 216.008C152.814 216.008 162.014 221.848 162.014 232.407C162.014 241.687 155.934 248.886 149.214 254.646L126.335 274.645L123.936 272.165H157.214L155.774 280.005H114.016ZM204.252 279.685C201.052 279.685 198.252 278.965 195.852 277.605C193.439 276.086 191.564 273.847 190.492 271.205C189.292 268.405 188.732 264.805 188.892 260.726C188.892 254.886 189.772 249.846 191.452 245.526C193.052 241.207 195.372 237.927 198.332 235.607C201.292 233.207 204.892 232.007 208.971 232.007C212.171 232.007 215.051 232.807 217.611 234.407C220.171 236.007 222.171 238.407 223.691 241.447C225.291 244.486 226.011 248.086 226.011 252.406C226.011 256.406 225.451 260.006 224.411 263.286C223.291 266.645 221.771 269.525 219.771 271.925C217.771 274.325 215.451 276.325 212.811 277.685C210.171 279.045 207.371 279.685 204.252 279.685ZM178.013 296.004L188.492 232.007H197.132L195.452 243.206L193.052 255.526L191.692 268.005L187.052 296.004H178.013ZM203.532 270.405C206.172 270.405 208.411 269.605 210.411 268.165C212.411 266.645 214.011 264.645 215.131 262.006C216.331 259.366 216.891 256.406 216.891 252.966C216.891 249.366 216.011 246.486 214.171 244.406C212.411 242.327 209.851 241.207 206.651 241.207C204.092 241.207 201.852 242.007 199.772 243.526C197.772 244.966 196.172 246.966 195.052 249.606C193.852 252.246 193.292 255.206 193.292 258.726C193.292 262.326 194.172 265.125 196.012 267.205C197.772 269.285 200.332 270.405 203.532 270.405ZM251.929 280.005C248.329 280.005 245.21 279.205 242.49 277.445C239.787 275.664 237.628 273.173 236.25 270.245C233.191 262.162 233.42 253.202 236.89 245.286C238.73 241.207 241.37 237.927 244.65 235.607C247.929 233.207 251.769 232.007 256.009 232.007C259.609 232.007 262.809 232.807 265.449 234.567C268.168 236.167 270.248 238.567 271.848 241.687C274.865 249.777 274.636 258.72 271.208 266.645C269.288 270.725 266.649 274.005 263.369 276.405C260.089 278.805 256.249 280.005 251.929 280.005ZM252.489 270.645C255.049 270.645 257.209 269.845 259.129 268.405C260.969 266.885 262.489 264.805 263.609 262.166C264.729 259.526 265.209 256.566 265.209 253.046C265.209 249.446 264.409 246.646 262.729 244.486C261.86 243.43 260.757 242.591 259.507 242.036C258.257 241.48 256.895 241.224 255.529 241.287C253.049 241.287 250.889 242.087 248.889 243.606C247.05 245.046 245.53 247.126 244.41 249.766C243.29 252.326 242.81 255.366 242.81 258.886C242.81 262.566 243.61 265.445 245.29 267.525C247.05 269.605 249.449 270.645 252.489 270.645ZM289.687 280.005L282.008 232.007H290.887L297.287 274.405H292.807L313.606 232.007H322.006L328.646 274.405H324.166L344.805 232.007H354.004L330.725 280.005H321.126L314.726 242.487H317.686L299.127 280.005H289.687ZM380.963 280.005C377.123 280.005 373.763 279.205 370.963 277.445C368.133 275.698 365.836 273.208 364.324 270.245C362.724 267.125 362.004 263.525 362.004 259.366C362.004 254.086 362.964 249.366 364.884 245.286C366.6 241.426 369.304 238.087 372.723 235.607C376.163 233.207 379.923 232.007 384.243 232.007C387.843 232.007 390.962 232.807 393.602 234.407C396.242 236.087 398.322 238.407 399.762 241.607C401.282 244.646 402.002 248.246 402.002 252.566C401.992 254.791 401.805 257.011 401.442 259.206H368.644L369.764 251.926H397.202L393.522 254.326C393.925 251.837 393.733 249.287 392.962 246.886C392.344 245.032 391.136 243.43 389.523 242.327C387.923 241.287 386.003 240.727 383.843 240.727C381.123 240.727 378.883 241.527 376.883 243.126C374.963 244.486 373.443 246.646 372.403 249.366C371.363 252.086 370.803 255.206 370.803 258.886C370.803 262.646 371.683 265.605 373.523 267.685C375.283 269.685 378.163 270.725 381.923 270.725C384.068 270.721 386.19 270.286 388.163 269.445C390.083 268.645 391.762 267.365 393.042 265.845L396.802 273.525C394.802 275.685 392.402 277.285 389.603 278.405C386.803 279.445 384.003 280.005 380.963 280.005ZM410.002 280.005L418.161 232.007H427.281L424.961 246.086L424.161 242.087C426.001 238.327 428.401 235.687 431.361 234.247C434.24 232.727 437.76 232.007 442 232.007L440.24 242.567C439.876 242.462 439.499 242.409 439.12 242.407C437.234 242.169 435.319 242.346 433.509 242.927C431.698 243.507 430.037 244.476 428.641 245.766C426.081 248.006 424.481 251.686 423.681 256.646L419.601 280.005H410.002Z" fill="#26368F"/>
<path d="M142.015 192.01C110.016 192.01 78.018 202.649 66.0186 208.009C80.6578 205.369 116.416 200.009 142.015 200.009C174.013 200.009 214.011 216.009 246.01 216.009C271.609 216.009 326.006 205.369 350.005 200.009C330.006 202.649 281.208 208.009 246.01 208.009C202.012 208.009 182.013 192.01 142.015 192.01Z" fill="#EE1A20"/>
</svg>
