<svg width="500" height="500" viewBox="0 0 500 500" fill="none" xmlns="http://www.w3.org/2000/svg">
<rect width="500" height="500" fill="white"/>
<path d="M237.595 252.961C236.759 252.969 235.932 253.142 235.163 253.472C234.394 253.801 233.698 254.28 233.115 254.881C232.506 255.49 232.023 256.214 231.694 257.01C231.364 257.806 231.195 258.659 231.195 259.521V283.44C231.195 285.2 231.915 286.8 233.115 288.08C234.315 289.277 235.941 289.949 237.635 289.949C239.33 289.949 240.955 289.277 242.155 288.08C243.349 286.832 244.009 285.167 243.995 283.44V259.441C243.987 258.159 243.604 256.908 242.893 255.842C242.183 254.776 241.175 253.941 239.995 253.441C239.235 253.122 238.419 252.959 237.595 252.961Z" fill="#FF142D"/>
<path d="M269.595 210C268.759 210.008 267.932 210.181 267.163 210.511C266.394 210.84 265.698 211.319 265.115 211.92C263.893 213.156 263.203 214.822 263.195 216.56V240.559C263.275 242.239 263.995 243.839 265.195 245.039C266.374 246.183 267.953 246.822 269.595 246.822C271.238 246.822 272.816 246.183 273.995 245.039C275.209 243.856 275.925 242.253 275.995 240.559V216.56C275.979 214.823 275.291 213.16 274.075 211.92C272.893 210.714 271.283 210.024 269.595 210Z" fill="#FF142D"/>
<path d="M443.992 262.879C443.992 259.359 443.992 255.839 443.592 252.319C442.792 244.639 439.432 239.199 433.512 236.159C425.992 232.32 414.152 233.439 409.192 240.639L408.552 241.519L407.912 239.839C406.792 236.879 404.713 235.199 402.153 235.199C401.833 235.199 401.353 235.199 401.033 235.359C397.833 235.919 395.993 238.239 395.993 241.999V283.278C395.993 287.438 398.393 289.998 402.073 289.998C402.869 290.028 403.663 289.894 404.406 289.605C405.149 289.316 405.825 288.878 406.392 288.318C407.574 286.914 408.175 285.111 408.072 283.278V259.439C408.072 258.159 408.152 256.879 408.392 255.599C409.592 248.719 415.512 245.759 420.952 245.999C422.347 245.984 423.729 246.261 425.011 246.812C426.292 247.363 427.444 248.176 428.392 249.199C430.422 251.301 431.542 254.117 431.512 257.039L431.592 272.399V282.398C431.592 283.678 431.752 284.958 432.152 286.158C433.112 289.038 435.992 290.478 439.352 289.758C441.992 289.198 444.152 286.558 443.992 283.678V262.879Z" fill="#040435"/>
<path d="M101.999 247.919L101.199 247.439L101.999 246.879C106.799 243.679 109.439 238.239 109.439 231.84C109.439 218.8 99.6791 210.08 85.1195 210.08C73.1197 210.08 63.8399 217.04 62.08 227.44C61.9617 227.856 61.9077 228.287 61.92 228.72C61.92 232.16 65.1199 234.239 68.1598 234.239C69.4394 234.346 70.7139 233.982 71.7446 233.216C72.7753 232.45 73.4917 231.335 73.7597 230.08C74.7197 225.04 79.1996 221.84 85.1995 221.84C92.3993 221.84 97.3592 226 97.3592 232C97.3592 238.479 91.9193 241.919 81.5995 241.919C78.0796 241.919 76.2396 244.879 76.2396 247.839C76.1586 249.361 76.6754 250.853 77.6796 251.999C78.1874 252.56 78.8037 253.012 79.4912 253.329C80.1786 253.645 80.9231 253.819 81.6795 253.839H85.2795C91.9993 254.319 99.2791 257.679 99.2791 265.839C99.2791 273.359 93.9193 277.999 85.1995 277.999C78.1596 277.999 73.3597 274.719 71.6797 268.719C71.3762 267.506 70.6758 266.43 69.69 265.662C68.7042 264.894 67.4897 264.477 66.2399 264.479C64.6399 264.479 63.0399 265.039 61.92 266.079C61.3312 266.637 60.8586 267.306 60.5291 268.047C60.1996 268.789 60.0198 269.588 60 270.399C60 273.599 64.3999 289.998 85.1195 289.998C101.119 289.998 111.519 280.558 111.519 265.919C111.519 258.159 107.999 251.599 101.919 247.919H101.999Z" fill="#040435"/>
<path d="M237.596 210C236.76 210.008 235.933 210.181 235.164 210.511C234.395 210.84 233.699 211.319 233.116 211.92C231.894 213.156 231.204 214.822 231.196 216.56V240.479C231.196 242.159 231.916 243.839 233.116 245.039C234.316 246.236 235.941 246.908 237.636 246.908C239.331 246.908 240.956 246.236 242.156 245.039C243.33 243.811 243.989 242.179 243.996 240.479V216.48C243.981 214.782 243.323 213.153 242.156 211.92C241.561 211.313 240.852 210.831 240.069 210.502C239.286 210.172 238.446 210.001 237.596 210Z" fill="#040435"/>
<path d="M202.396 234C201.54 234.002 200.693 234.181 199.908 234.525C199.124 234.87 198.418 235.371 197.836 236C196.633 237.306 195.975 239.024 195.996 240.8V283.199C195.996 285.039 196.636 286.719 197.836 287.999C198.42 288.624 199.126 289.122 199.91 289.463C200.695 289.803 201.541 289.979 202.396 289.979C203.251 289.979 204.097 289.803 204.882 289.463C205.666 289.122 206.372 288.624 206.956 287.999C208.159 286.692 208.818 284.975 208.796 283.199V240.8C208.796 239.013 208.109 237.294 206.876 236C206.303 235.381 205.611 234.885 204.841 234.541C204.071 234.197 203.239 234.013 202.396 234Z" fill="#040435"/>
<path d="M202.396 228.24C203.669 228.238 204.912 227.856 205.966 227.143C207.021 226.431 207.839 225.42 208.316 224.24C208.676 223.357 208.837 222.405 208.787 221.453C208.737 220.5 208.477 219.57 208.027 218.73C207.576 217.889 206.945 217.159 206.179 216.59C205.413 216.021 204.531 215.629 203.596 215.44C202.348 215.203 201.058 215.343 199.89 215.842C198.722 216.34 197.728 217.175 197.036 218.24C196.193 219.479 195.812 220.974 195.958 222.465C196.104 223.956 196.769 225.349 197.836 226.4C198.431 227.007 199.14 227.489 199.923 227.819C200.706 228.148 201.547 228.319 202.396 228.32V228.24Z" fill="#040435"/>
<path d="M306.394 234C305.537 234.002 304.69 234.181 303.906 234.525C303.121 234.87 302.416 235.371 301.834 236C300.631 237.306 299.972 239.024 299.994 240.8V283.199C299.994 285.039 300.634 286.719 301.834 287.999C302.418 288.624 303.124 289.122 303.908 289.463C304.693 289.803 305.539 289.979 306.394 289.979C307.249 289.979 308.095 289.803 308.88 289.463C309.664 289.122 310.37 288.624 310.954 287.999C312.157 286.692 312.815 284.975 312.794 283.199V240.8C312.794 239.013 312.106 237.294 310.874 236C310.301 235.381 309.609 234.885 308.839 234.541C308.069 234.197 307.237 234.013 306.394 234Z" fill="#040435"/>
<path d="M306.394 229.52C307.667 229.518 308.909 229.136 309.964 228.423C311.018 227.711 311.837 226.7 312.314 225.52C312.674 224.637 312.835 223.685 312.785 222.733C312.735 221.78 312.475 220.85 312.024 220.01C311.573 219.169 310.943 218.438 310.177 217.87C309.411 217.301 308.529 216.909 307.594 216.72C306.346 216.483 305.056 216.623 303.888 217.122C302.72 217.62 301.726 218.455 301.034 219.52C300.191 220.759 299.81 222.254 299.956 223.745C300.102 225.236 300.767 226.629 301.834 227.68C302.435 228.272 303.148 228.74 303.93 229.056C304.713 229.371 305.55 229.529 306.394 229.52Z" fill="#040435"/>
<path fill-rule="evenodd" clip-rule="evenodd" d="M351.993 234C344.567 234 337.445 236.95 332.194 242.201C326.943 247.452 323.994 254.573 323.994 261.999C323.994 269.425 326.943 276.547 332.194 281.798C337.445 287.049 344.567 289.999 351.993 289.999C359.419 289.999 366.541 287.049 371.791 281.798C377.042 276.547 379.992 269.425 379.992 261.999C379.992 254.573 377.042 247.452 371.791 242.201C366.541 236.95 359.419 234 351.993 234ZM351.993 277.279C349.888 277.431 347.774 277.148 345.784 276.447C343.793 275.746 341.968 274.643 340.423 273.205C338.878 271.768 337.646 270.027 336.803 268.092C335.96 266.158 335.525 264.07 335.525 261.959C335.525 259.849 335.96 257.761 336.803 255.826C337.646 253.892 338.878 252.151 340.423 250.714C341.968 249.276 343.793 248.173 345.784 247.472C347.774 246.771 349.888 246.488 351.993 246.64C355.865 246.92 359.487 248.655 362.131 251.497C364.775 254.34 366.245 258.078 366.245 261.959C366.245 265.841 364.775 269.579 362.131 272.421C359.487 275.263 355.865 276.999 351.993 277.279Z" fill="#040435"/>
<path fill-rule="evenodd" clip-rule="evenodd" d="M152.157 232.88C141.197 232.88 136.798 239.12 136.798 239.12V216.48C136.798 214.783 136.123 213.155 134.923 211.955C133.723 210.755 132.095 210.08 130.398 210.08C128.7 210.08 127.073 210.755 125.872 211.955C124.672 213.155 123.998 214.783 123.998 216.48V282.559C124.005 284.05 124.527 285.492 125.474 286.644C126.421 287.795 127.736 288.584 129.198 288.879C130.656 289.167 132.169 288.932 133.471 288.215C134.774 287.498 135.781 286.345 136.318 284.959L136.718 284.079L137.358 284.879C140.478 288.399 147.037 289.999 152.237 289.999C157.933 290.135 163.534 288.532 168.294 285.401C173.054 282.271 176.746 277.763 178.877 272.479C180.317 268.981 181.054 265.233 181.045 261.45C181.036 257.667 180.282 253.923 178.826 250.431C177.37 246.94 175.241 243.769 172.559 241.101C169.877 238.432 166.696 236.319 163.197 234.88C159.715 233.486 155.988 232.806 152.237 232.88H152.157ZM152.157 277.039C149.098 277.039 146.107 276.126 143.57 274.415C141.033 272.705 139.065 270.276 137.918 267.439C136.757 264.58 136.457 261.445 137.054 258.418C137.651 255.391 139.119 252.604 141.277 250.4C143.442 248.218 146.208 246.732 149.222 246.132C152.235 245.531 155.36 245.844 158.195 247.029C161.03 248.215 163.447 250.22 165.136 252.787C166.825 255.354 167.71 258.367 167.677 261.439C167.677 265.519 165.997 269.519 163.117 272.479C160.157 275.359 156.317 277.039 152.157 277.039Z" fill="#040435"/>
<path d="M267.169 253.667C267.939 253.351 268.763 253.192 269.595 253.199V253.119C271.283 253.143 272.893 253.833 274.075 255.039C275.29 256.279 275.978 257.942 275.995 259.679V283.678C275.925 285.372 275.209 286.975 273.995 288.158C272.816 289.302 271.238 289.941 269.595 289.941C267.952 289.941 266.374 289.302 265.195 288.158C263.995 286.958 263.275 285.358 263.195 283.678V259.679C263.203 257.941 263.892 256.275 265.115 255.039C265.701 254.449 266.4 253.983 267.169 253.667Z" fill="#040435"/>
</svg>
