<svg width="500" height="500" viewBox="0 0 500 500" fill="none" xmlns="http://www.w3.org/2000/svg">
<rect width="500" height="500" fill="#008CFF"/>
<path d="M165.539 212.141C144.638 212.141 127.688 229.091 127.688 249.992C127.688 270.892 144.638 287.843 165.539 287.843C186.439 287.843 203.39 270.892 203.39 249.992C203.39 229.091 186.439 212.141 165.539 212.141ZM165.539 271.869C153.462 271.869 143.661 262.079 143.661 249.992C143.661 237.904 153.451 228.114 165.539 228.114C177.626 228.114 187.416 237.904 187.416 249.992C187.416 262.079 177.626 271.869 165.539 271.869Z" fill="white"/>
<path d="M74.378 233.285C74.378 224.526 97.3721 224.418 102.342 235.668L115.267 228.208C111.714 219.706 98.8105 212.148 86.0468 212.148C70.9536 212.148 58.0933 220.049 58.0933 233.811C58.0933 249.527 76.2137 253.606 83.7603 255.442C91.3069 257.278 101.355 258.866 101.355 265.093C101.355 270.857 94.8386 273.036 87.6248 273.036C78.5109 273.036 71.4367 269.977 68.3451 262.903L56 270.031C59.8109 281.023 72.3277 287.851 87.2706 287.851C106.733 287.851 117.564 278.876 117.564 264.449C117.564 253.027 107.602 245.738 95.4935 242.796C84.6942 240.177 74.378 238.663 74.378 233.285Z" fill="white"/>
<path d="M272.189 258.247C269.001 266.405 261.916 271.901 252.63 271.901C240.532 271.901 231.128 262.09 231.128 249.992C231.128 237.893 240.532 228.082 252.63 228.082C261.476 228.082 268.743 233.009 272.2 240.556L286.445 232.344C280.401 220.235 267.187 212.141 252.63 212.141C231.73 212.141 214.779 229.091 214.779 249.992C214.779 270.892 231.73 287.843 252.63 287.843C267.616 287.843 280.401 279.126 286.477 266.48L272.189 258.247Z" fill="white"/>
<path d="M339.217 214.039H321.247L292.091 285.866H310.533L330.253 234.425L350.542 285.866H368.995L339.217 214.039Z" fill="white"/>
<path d="M428.821 259.634L430.206 258.807C437.27 254.578 441.327 247.364 441.327 239.012C441.327 224.338 430.517 214.086 415.048 214.086H380.354V285.902H396.681V262.897H412.472L425.751 285.902H444L428.832 259.634H428.821ZM414.072 248.813H396.67V229.147H414.072C420.523 229.147 424.86 233.087 424.86 238.959C424.86 244.83 420.523 248.813 414.072 248.813Z" fill="white"/>
</svg>
