<svg width="500" height="500" viewBox="0 0 500 500" fill="none" xmlns="http://www.w3.org/2000/svg">
<rect width="500" height="500" fill="white"/>
<path d="M99.9082 260.357H91.9079C91.4278 260.331 90.9734 260.132 90.6279 259.798C90.4352 259.626 90.2793 259.418 90.1693 259.184C90.0593 258.951 89.9976 258.698 89.9879 258.44V251.013C89.9879 250.215 90.3879 249.975 91.1879 249.975H113.109C113.509 249.975 113.989 250.135 113.989 250.534V274.573C113.989 274.733 113.669 274.892 113.589 275.052C108.486 278.432 102.688 280.625 96.6234 281.468C90.5583 282.311 84.3809 281.783 78.5475 279.924C62.3869 274.333 55.0267 257.402 59.1068 241.03C60.2357 235.803 62.827 231.001 66.5796 227.185C70.3323 223.368 75.0925 220.692 80.3076 219.467C86.0524 217.814 92.1144 217.582 97.969 218.793C103.824 220.003 109.295 222.62 113.909 226.416V226.815L110.229 232.405C108.309 235.2 106.788 235.28 103.828 233.763C99.1885 230.83 93.686 229.562 88.2278 230.169C63.427 232.725 68.7872 280.483 100.068 269.062C100.237 269.01 100.383 268.903 100.484 268.758C100.586 268.614 100.636 268.44 100.628 268.264V261.076C100.628 260.597 100.388 260.357 99.9082 260.357ZM171.911 260.357H163.91C163.43 260.331 162.976 260.132 162.63 259.798C162.438 259.626 162.282 259.418 162.172 259.184C162.062 258.951 162 258.698 161.99 258.44V251.013C161.99 250.215 162.39 249.975 163.19 249.975H185.111C185.511 249.975 185.991 250.055 185.991 250.454V274.573C185.991 274.733 185.671 274.892 185.591 275.052C180.489 278.432 174.691 280.625 168.626 281.468C162.561 282.311 156.383 281.783 150.55 279.924C134.389 274.333 127.029 257.402 131.109 241.03C132.238 235.803 134.829 231.001 138.582 227.185C142.335 223.368 147.095 220.692 152.31 219.467C158.055 217.814 164.117 217.582 169.971 218.793C175.826 220.003 181.297 222.62 185.911 226.416V226.815L182.231 232.405C180.311 235.2 178.791 235.28 175.831 233.763C171.191 230.83 165.689 229.562 160.23 230.169C135.429 232.725 140.79 280.483 172.071 269.062C172.239 269.01 172.386 268.903 172.487 268.758C172.588 268.614 172.639 268.44 172.631 268.264V261.076C172.631 260.597 172.391 260.277 171.911 260.277V260.357ZM229.993 269.621C232.873 269.621 235.273 268.982 237.193 267.705C242.073 264.51 241.993 259.798 241.993 253.968V218.829C241.993 218.349 242.153 218.11 242.633 218.11H257.354C257.514 218.11 257.594 218.11 257.754 218.27L257.834 218.589L257.994 248.937C258.38 254.871 257.675 260.826 255.914 266.507C251.513 276.809 241.513 282 229.993 282C218.472 282 208.392 276.809 204.152 266.507C202.365 260.83 201.633 254.876 201.992 248.937C202.095 238.715 202.175 228.492 202.232 218.27C202.281 218.214 202.343 218.17 202.413 218.142C202.482 218.115 202.557 218.103 202.632 218.11H217.272C217.752 218.11 218.072 218.349 218.072 218.829L217.992 253.968C217.992 259.798 217.992 264.43 222.792 267.705C224.713 268.982 227.113 269.621 229.993 269.621ZM401.839 248.378L401.679 248.538C401.633 248.594 401.608 248.665 401.608 248.737C401.608 248.81 401.633 248.88 401.679 248.937L401.839 249.097L405.199 250.295C412.239 253.01 415.039 258.84 413.679 266.107C411.599 276.489 401.679 281.441 390.878 281.84C381.278 281.938 371.677 281.938 362.077 281.84L361.997 281.681V218.589C361.997 218.19 362.157 218.03 362.557 218.03L389.518 218.11C399.919 218.27 410.799 221.783 412.159 232.645C413.199 240.312 409.759 245.583 401.839 248.378ZM377.998 229.61L378.078 244.465C378.078 244.624 378.078 244.704 378.238 244.864L378.558 244.944H388.958C391.038 244.944 392.958 244.145 394.558 242.947C395.249 242.386 395.807 241.68 396.194 240.88C396.581 240.079 396.788 239.204 396.798 238.315V235.68C396.78 234.816 396.561 233.969 396.158 233.204C395.754 232.376 395.182 231.642 394.478 231.048C392.869 229.821 390.903 229.148 388.878 229.131H378.478L378.158 229.291C378.065 229.373 378.008 229.487 377.998 229.61ZM377.998 255.486L378.158 270.18C378.145 270.267 378.153 270.356 378.181 270.439C378.208 270.522 378.255 270.598 378.318 270.66L378.558 270.739H390.478C392.601 270.686 394.638 269.895 396.238 268.503C397.038 267.784 397.598 266.906 397.998 266.107C398.425 265.209 398.644 264.226 398.639 263.232V261.954C398.609 260.976 398.373 260.015 397.946 259.134C397.518 258.254 396.909 257.473 396.158 256.843C394.508 255.448 392.4 254.709 390.238 254.767L378.638 254.847C378.453 254.862 378.281 254.948 378.158 255.086L377.998 255.246V255.486ZM441.44 218.03H426.559C426.239 218.03 425.999 218.27 425.999 218.589V281.361C425.999 281.681 426.239 281.92 426.559 281.92H441.44C441.76 281.92 442 281.681 442 281.361V218.589C442 218.27 441.76 218.03 441.44 218.03ZM309.995 259.239H310.155L310.235 259C316.076 247.02 322.556 234.162 329.676 220.426C331.116 217.71 332.236 218.11 335.516 218.03C339.116 218.03 342.477 218.03 345.437 218.27C345.837 218.27 345.997 218.429 345.997 218.829V281.361C345.997 281.76 345.837 281.92 345.437 281.92H333.516C333.116 281.92 332.876 281.681 332.876 281.281V244.704C332.876 243.905 332.876 242.867 333.116 241.51C333.276 239.832 332.956 239.753 332.156 241.27C328.716 248.058 323.356 258.52 315.996 272.496C314.796 274.812 312.556 275.371 309.995 275.371C307.435 275.371 305.195 274.812 303.995 272.496C298.55 262.118 293.163 251.709 287.835 241.27C287.035 239.673 286.715 239.832 286.875 241.51L287.115 244.704V281.281C287.115 281.681 286.875 281.92 286.475 281.92H274.554C274.154 281.92 273.994 281.76 273.994 281.361V218.829C273.994 218.429 274.154 218.27 274.554 218.27C277.514 218.03 280.874 217.95 284.475 218.03C287.675 218.11 288.875 217.71 290.315 220.426C297.089 233.254 303.651 246.194 309.995 259.239Z" fill="#4F4F4F"/>
</svg>
