<svg width="500" height="500" viewBox="0 0 500 500" fill="none" xmlns="http://www.w3.org/2000/svg">
<rect width="500" height="500" fill="#003378"/>
<path d="M305.579 268.817C314.869 268.817 320.044 270.11 320.161 276.343C320.161 279.753 317.927 283.752 315.34 285.633C309.695 289.985 304.638 290.455 278.06 290.455H146.584L171.985 184.38H128.12C125.18 184.38 124.122 185.203 123.181 188.731L99.0731 288.103C94.4867 307.86 104.718 325.97 127.532 325.97H187.861C203.149 325.97 223.612 309.271 231.844 293.865C232.314 293.042 232.549 292.454 232.902 291.749C232.902 291.749 233.02 291.513 233.137 291.749C231.844 297.276 227.257 316.797 226.434 320.09C225.493 324.206 227.61 325.853 229.609 325.853H294.524C349.561 325.853 370.964 299.628 372.846 268.229C373.904 250.589 362.732 239.181 331.098 239.181H306.872C298.288 239.181 289.35 236.359 289.35 229.303C289.35 222.247 298.993 216.249 311.929 216.249H370.964C370.964 216.249 376.139 195.552 377.197 191.201C378.491 185.791 376.844 184.145 372.846 184.145H299.816C257.363 184.145 238.429 212.486 238.429 232.713C238.429 252.941 254.776 268.581 296.876 268.581H305.461L305.579 268.817Z" fill="white"/>
<path d="M334.273 166.857H451.756L391.309 197.904C391.309 197.904 393.779 187.79 394.485 184.733C395.19 181.557 394.249 179.088 389.663 178.147C385.194 177.206 334.273 166.857 334.273 166.857Z" fill="#E6003E"/>
</svg>
