<svg width="500" height="500" viewBox="0 0 500 500" fill="none" xmlns="http://www.w3.org/2000/svg">
<rect width="500" height="500" fill="#FEEB60"/>
<path d="M374.997 199.95C378.929 187.621 386.973 177.016 397.783 169.908V169.487C384.783 145.684 366.216 125.382 343.67 110.315C321.124 95.2481 295.267 85.8637 268.308 82.9635C241.349 80.0633 214.089 83.7335 188.856 93.6605C163.622 103.587 141.166 119.476 123.403 139.97C106.995 158.635 94.9779 180.741 88.2361 204.664C81.4943 228.587 80.1993 253.718 84.4465 278.207C85.2865 283.984 86.9666 289.447 89.4867 294.804C93.4769 302.892 101.667 302.052 105.238 294.174C106.498 291.653 107.338 288.922 108.073 286.085C108.703 283.039 111.223 266.757 115.633 237.135C117.411 218.832 122.952 201.093 131.909 185.034C138.314 174.109 151.44 165.076 164.671 167.807C186.932 172.639 196.697 197.114 201.213 218.122C203.628 229.677 206.883 250.266 211.083 280.098C211.923 286.295 213.708 291.758 216.333 296.695C219.483 302.262 226.204 301.632 229.354 296.064C231.349 292.598 232.504 289.762 232.819 287.871C234.919 276.947 237.334 261.61 239.96 241.652C242.585 222.219 246.68 203.206 255.71 187.03C267.471 166.651 290.782 159.718 308.213 178.521C319.764 191.126 325.644 210.979 328.374 227.891C330.474 240.497 333.099 257.724 336.249 279.783C337.3 286.19 338.77 291.548 340.87 295.749C344.545 303.102 353.05 301.737 355.781 294.384C357.881 288.291 359.561 281.674 360.506 274.636L361.766 265.497C364.811 242.492 367.541 221.379 374.997 199.95ZM263.166 288.711C258.86 307.094 248.885 329.678 227.359 331.989C196.172 335.561 184.517 303.838 179.896 278.522C176.851 262.136 173.911 244.908 171.076 227.051C170.398 221.235 168.616 215.602 165.826 210.454C161.835 203.942 155.955 207.093 153.33 212.45C151.545 216.127 150.285 220.118 149.655 224.53C148.185 233.774 145.77 248.9 142.199 269.699C138.209 292.808 130.754 325.477 105.028 331.674C104.809 331.721 104.606 331.822 104.436 331.966C104.265 332.11 104.133 332.294 104.05 332.501C103.967 332.709 103.936 332.933 103.96 333.155C103.984 333.377 104.062 333.59 104.187 333.775C126.659 371.275 158.37 396.801 199.217 410.141C227.845 419.22 258.382 420.458 287.65 413.724C316.917 406.99 343.846 392.531 365.632 371.853C387.417 351.175 403.264 325.033 411.523 296.148C419.781 267.264 420.149 236.693 412.588 207.618C412.142 207.077 411.527 206.7 410.843 206.548C410.158 206.396 409.442 206.477 408.808 206.778C403.558 209.194 402.088 215.706 400.828 221.169C399.883 224.95 397.048 241.232 392.427 270.119C389.592 286.926 385.497 303.628 376.677 316.863C374.118 320.807 370.778 324.184 366.863 326.784C362.947 329.384 358.539 331.153 353.913 331.98C349.286 332.807 344.539 332.675 339.966 331.593C335.392 330.51 331.089 328.5 327.324 325.687C314.933 316.443 308.423 294.909 305.273 279.678C302.033 263.737 299.337 247.692 297.188 231.568C296.422 225.371 294.978 219.277 292.882 213.395C291.097 208.669 286.162 203.942 281.542 208.669C276.291 213.921 274.926 222.744 273.876 230.728C270.936 251.841 267.366 271.169 263.166 288.711Z" fill="#A451F7"/>
</svg>
