<svg width="500" height="500" viewBox="0 0 500 500" fill="none" xmlns="http://www.w3.org/2000/svg">
<rect width="500" height="500" fill="white"/>
<path d="M250 100C251.32 100.204 252.573 100.718 253.656 101.5L398.945 190.562C400.351 191.406 400.351 192.25 398.945 193.094L353.484 221.031C352.668 221.538 351.726 221.806 350.766 221.806C349.805 221.806 348.863 221.538 348.047 221.031C315.549 200.793 282.865 180.855 250 161.219C217.132 180.849 184.448 200.788 151.953 221.031C151.156 221.534 150.236 221.808 149.294 221.825C148.353 221.841 147.424 221.599 146.61 221.125L101.055 193.281C99.6485 192.344 99.6485 191.406 101.055 190.656C154.015 158.125 202.382 128.406 246.344 101.594C247.938 100.469 249.156 100 250 100ZM203.601 249.062L249.531 221.969C249.674 221.886 249.835 221.843 250 221.843C250.165 221.843 250.326 221.886 250.469 221.969L296.399 249.156C296.555 249.247 296.684 249.377 296.773 249.533C296.863 249.69 296.91 249.867 296.91 250.047C296.91 250.227 296.863 250.404 296.773 250.56C296.684 250.717 296.555 250.847 296.399 250.938L250.469 278.031C250.326 278.114 250.165 278.157 250 278.157C249.835 278.157 249.674 278.114 249.531 278.031L203.601 250.844C203.445 250.753 203.316 250.623 203.227 250.467C203.137 250.31 203.09 250.133 203.09 249.953C203.09 249.773 203.137 249.596 203.227 249.44C203.316 249.283 203.445 249.153 203.601 249.062ZM250.469 338.594L250 338.687H249.531C218.599 320.125 186.073 300.25 151.953 278.875C151.137 278.368 150.195 278.1 149.234 278.1C148.274 278.1 147.332 278.368 146.516 278.875L101.055 306.813C99.6485 307.75 99.6485 308.5 101.055 309.438L246.344 398.5C247.938 399.438 249.156 400 250 400C251.353 399.811 252.639 399.296 253.749 398.5L398.945 309.438C400.351 308.5 400.351 307.656 398.945 306.813L353.484 278.969C352.668 278.462 351.726 278.194 350.766 278.194C349.805 278.194 348.863 278.462 348.047 278.969C313.928 300.25 281.495 320.125 250.562 338.594H250.469Z" fill="#070606"/>
</svg>
