<svg width="500" height="500" viewBox="0 0 500 500" fill="none" xmlns="http://www.w3.org/2000/svg">
<rect width="500" height="500" fill="#0432C9"/>
<path d="M241.819 61C254.228 61.0449 266.238 65.3905 275.8 73.296C285.363 81.2015 291.886 92.1776 294.259 104.353C295.737 112.334 295.244 120.61 292.977 128.493C320.577 137.557 344.727 155.096 361.78 178.447C378.816 201.796 387.997 229.948 388 258.847C388 334.518 326.196 396 250 396C173.805 396 112 334.518 112 258.847C111.936 232.476 119.517 206.652 133.827 184.497C148.136 162.342 168.562 144.806 192.632 134.01V133.813C205.598 127.29 216.199 116.878 222.951 104.034C229.702 91.1893 232.267 76.556 230.286 62.1824C234.032 61.4926 237.777 61 241.72 61H241.819ZM250 185.935C240.395 185.909 230.879 187.775 221.996 191.425C213.112 195.075 205.035 200.438 198.225 207.209C191.415 213.979 186.006 222.024 182.306 230.884C178.606 239.745 176.689 249.246 176.663 258.847C176.663 278.159 184.45 296.682 198.152 310.279C211.942 323.95 230.578 331.62 250 331.62C269.422 331.62 288.058 323.95 301.849 310.279C308.647 303.547 314.046 295.536 317.734 286.709C321.422 277.882 323.326 268.413 323.337 258.847C323.337 218.647 290.513 185.935 250 185.935Z" fill="white"/>
</svg>
