<svg width="500" height="500" viewBox="0 0 500 500" fill="none" xmlns="http://www.w3.org/2000/svg">
<rect width="500" height="500" fill="white"/>
<path fill-rule="evenodd" clip-rule="evenodd" d="M342.4 180.544C342.4 186.402 331.9 198.202 331.9 198.202C331.9 198.202 321.4 186.402 321.4 180.628C321.4 174.77 326.104 170 331.9 170C337.696 170 342.4 174.686 342.4 180.544ZM82 329V211.842H130.72C137.834 211.842 144.659 214.652 149.697 219.656C154.736 224.66 157.578 231.45 157.6 238.537V269.082C157.6 272.583 156.903 276.049 155.548 279.28C154.193 282.51 152.208 285.44 149.707 287.9C147.206 290.36 144.241 292.301 140.981 293.61C137.722 294.919 134.234 295.571 130.72 295.526H103V329H82ZM103 228.579H121.144C129.712 228.579 136.6 236.027 136.6 245.232V262.053C136.6 271.258 129.712 278.706 121.144 278.706H103V228.495V228.579ZM174.4 211.842V266.404C174.355 274.069 177.363 281.439 182.764 286.898C188.165 292.357 195.518 295.46 203.212 295.526H250V211.842H229V278.789H209.008C201.784 278.789 195.4 271.844 195.4 264.563V211.842H174.4ZM308.8 211.842H295.696C291.879 211.864 288.104 212.635 284.586 214.11C281.069 215.585 277.877 217.737 275.194 220.441C272.51 223.145 270.388 226.35 268.948 229.871C267.508 233.392 266.778 237.162 266.8 240.964V295.526H288.304V242.805C288.304 235.525 294.184 228.579 301.492 228.579H308.8V211.842ZM321.4 211.842V295.526H342.4V211.842H321.4ZM418 295.526H404.896C397.135 295.416 389.735 292.244 384.319 286.707C378.902 281.169 375.91 273.717 376 265.986V228.579H359.2V211.842H376V186.737H397.504V211.842H418V228.579H397.504V264.145C397.504 271.509 403.384 278.789 410.692 278.789H418V295.526Z" fill="#003DA6"/>
</svg>
