<svg width="500" height="500" viewBox="0 0 500 500" fill="none" xmlns="http://www.w3.org/2000/svg">
<rect width="500" height="500" fill="white"/>
<path d="M104 192.36V163.591L386.453 108.186C390.187 107.44 392 108.932 392 112.768V125.34C392.005 126.741 391.655 128.12 390.984 129.349C390.313 130.578 389.341 131.619 388.16 132.373C305.541 182.26 243.641 260.165 213.76 351.863C210.987 359.961 208.213 359.961 205.547 351.863C188.641 302.187 156.273 259.215 113.173 229.226C111.948 228.401 110.908 227.331 110.118 226.084C109.329 224.837 108.807 223.439 108.587 221.98L104 192.36ZM368.747 385H344.747L222.613 377.648C219.627 377.435 218.773 376.05 219.947 373.386C253.013 297.736 305.92 240.2 378.56 201.097C379.416 200.671 380.37 200.484 381.323 200.553C382.276 200.622 383.193 200.946 383.978 201.49C384.763 202.035 385.387 202.78 385.785 203.648C386.183 204.516 386.34 205.475 386.24 206.424L368.747 385ZM196.267 376.263C199.467 376.476 200.533 375.091 199.36 372.001C180.907 324.054 152.533 289.319 114.347 267.69C114.176 267.581 113.983 267.511 113.782 267.485C113.581 267.458 113.377 267.476 113.184 267.537C112.991 267.598 112.813 267.7 112.664 267.837C112.515 267.974 112.397 268.142 112.32 268.329C112.252 268.573 112.252 268.831 112.32 269.075L122.453 369.231C122.547 369.922 122.871 370.562 123.375 371.046C123.879 371.529 124.531 371.829 125.227 371.895L196.267 376.263Z" fill="#B01116"/>
</svg>
