<svg width="500" height="500" viewBox="0 0 500 500" fill="none" xmlns="http://www.w3.org/2000/svg">
<rect width="500" height="500" fill="#1E1E1E"/>
<path d="M111.928 322.004H109.389C108.991 321.855 108.792 321.706 108.792 321.557C108.792 267.154 108.792 212.653 108.792 158.101C108.792 157.554 109.091 157.255 109.638 157.255H111.828C112.425 157.206 112.724 157.505 112.724 158.101C112.873 207.228 112.873 259.937 112.774 316.181C112.774 317.873 112.824 319.616 112.923 321.308C112.923 321.557 112.824 321.706 112.624 321.755L111.878 322.004H111.928Z" fill="#E5883D"/>
<path d="M298.427 195.28C309.326 199.112 309.675 212.551 309.775 222.007C309.775 222.257 309.576 222.455 309.327 222.505H290.862C290.862 222.505 290.662 222.406 290.662 222.306C290.662 219.021 290.612 215.935 290.513 213.098C290.363 209.514 288.622 207.822 285.337 208.07C279.562 208.469 280.21 217.079 281.454 220.863C281.902 222.355 282.997 223.7 284.59 224.944C290.314 229.323 295.938 233.455 301.314 238.183C307.037 243.261 310.272 249.034 311.069 255.505C312.761 269.739 311.069 285.816 293.749 288.305C284.49 289.649 272.147 288.803 266.523 279.893C264.78 277.106 263.536 273.672 262.939 270.536C261.993 265.309 261.694 259.984 262.093 254.608C262.093 254.509 262.192 254.459 262.291 254.459H280.608C280.857 254.459 281.006 254.608 281.006 254.857C281.006 259.287 281.006 263.668 281.105 267.998C281.105 270.934 282.549 273.523 285.735 273.821C292.106 274.369 292.752 267.45 292.404 262.771C292.155 259.338 291.16 256.549 289.368 254.409C287.626 252.27 285.087 249.93 281.753 247.392C276.377 243.31 271.699 239.527 267.617 236.093C261.545 230.917 260.898 222.107 261.545 214.392C262.391 204.637 265.726 196.672 276.228 194.234C283.943 192.442 291.359 192.84 298.576 195.379L298.427 195.28Z" fill="#818284"/>
<path d="M140.454 201.605C140.007 202.948 139.758 204.292 139.758 205.635C139.758 228.333 139.758 251.725 139.758 275.716C139.758 280.047 141.748 283.929 146.676 284.078C147.572 284.078 148.021 284.576 147.97 285.472V285.87C147.921 286.616 147.522 287.015 146.726 287.015H117.559C117.559 287.015 117.211 286.865 117.161 286.716C117.061 286.069 116.962 285.422 116.962 284.775C116.912 255.111 116.962 225.247 116.962 195.083C116.962 194.835 117.161 194.586 117.46 194.586C127.165 194.736 136.423 194.785 145.283 194.636C146.029 194.636 146.726 194.736 147.473 194.934C147.672 194.985 147.771 195.083 147.871 195.283C148.17 196.08 147.821 197.026 146.875 197.224C143.889 197.772 141.55 198.518 140.454 201.704V201.605Z" fill="#E5883D"/>
<path d="M81.2232 280.494C82.1191 278.404 82.3181 276.015 82.3181 273.775C82.3181 252.124 82.3181 230.423 82.3181 208.772C82.3181 206.532 82.1191 204.392 81.7208 202.351C80.9743 198.569 77.8884 197.324 74.5038 196.975C74.3047 196.975 74.1554 196.826 74.1056 196.627C73.4586 194.537 75.9472 194.586 77.1418 194.586C86.2005 194.586 95.3089 194.586 104.467 194.586C104.716 194.586 104.915 194.786 104.915 195.034C104.915 225.047 104.915 254.811 104.915 284.327C104.915 285.124 104.915 285.921 104.816 286.767C104.816 286.916 104.666 287.015 104.567 287.015L75.0513 286.865C74.6033 286.865 74.2549 286.518 74.2549 286.07H74.1554V285.124C74.1554 284.626 74.4043 284.327 74.902 284.278C77.5897 283.978 80.0286 283.083 81.1734 280.494H81.2232Z" fill="#E5883D"/>
<path d="M225.369 218.425C226.314 217.181 227.31 216.036 228.355 214.892C232.486 210.462 240.102 209.317 245.826 210.511C247.468 210.86 248.862 211.457 249.957 212.254C252.644 214.244 254.287 218.474 254.735 221.71C255.233 225.393 255.481 229.425 255.481 233.805C255.481 251.673 255.481 269.144 255.481 286.116C255.481 286.614 255.084 286.962 254.635 286.962H236.318C236.318 286.962 236.02 286.813 236.02 286.614C235.97 284.424 235.921 282.433 235.921 280.592C235.921 265.012 235.871 248.787 235.921 231.913C235.921 228.18 235.921 222.855 230.545 223.055C226.414 223.204 225.169 227.136 225.12 230.52C224.971 248.538 224.92 267.004 225.071 286.017C225.071 286.465 224.722 286.863 224.224 286.863H205.808C205.459 286.863 205.261 286.664 205.261 286.316V212.203C205.261 211.806 205.559 211.457 205.957 211.457H224.622C225.02 211.457 225.369 211.806 225.369 212.254C225.369 212.254 225.369 212.254 225.369 212.303L224.92 218.176C224.92 218.674 225.02 218.723 225.319 218.325L225.369 218.425Z" fill="#E5883D"/>
<path d="M395.688 218.824C399.72 211.956 406.638 209.616 414.253 210.264C419.281 210.661 422.565 213.2 424.158 217.929C425.8 222.806 426 228.579 426 233.706C426 244.158 426 261.679 426 286.217C426 286.566 425.701 286.864 425.352 286.864H406.886C406.488 286.864 406.289 286.666 406.289 286.267C406.289 267.104 406.289 248.588 406.289 230.819C406.289 229.476 406.189 228.132 405.94 226.787C405.493 224 402.954 222.856 400.416 223.154C394.941 223.851 395.29 230.571 395.29 234.801C395.239 251.426 395.239 268.647 395.29 286.366C395.29 286.666 395.041 286.864 394.791 286.864H376.027C376.027 286.864 375.679 286.715 375.679 286.515C375.729 263.321 375.729 240.077 375.679 216.684C375.679 215.191 375.679 213.697 375.828 212.105C375.828 211.905 375.978 211.807 376.176 211.807L395.14 211.707C395.439 211.707 395.688 211.956 395.688 212.254L395.29 218.724C395.29 219.372 395.389 219.421 395.737 218.875L395.688 218.824Z" fill="#818284"/>
<path d="M178.227 280.392C178.227 280.392 178.077 280.143 177.978 280.143C177.879 280.143 177.828 280.143 177.779 280.243C173.947 285.916 168.82 288.554 162.4 288.255C156.775 287.957 152.594 285.468 151.051 279.695C149.508 273.921 149.807 267.799 149.907 262.075C149.956 257.695 150.802 252.768 154.933 250.328C161.055 246.744 168.173 244.754 174.344 241.718C176.385 240.722 177.48 238.981 177.58 236.541C177.679 234.053 178.277 225.143 175.439 223.799C173.698 223.004 171.906 223.053 169.965 223.999C169.268 224.347 168.87 224.845 168.72 225.642C167.725 230.221 168.273 235.446 168.222 240.275C168.222 240.524 168.073 240.673 167.825 240.673C163.743 240.673 159.762 240.673 155.929 240.673C153.988 240.673 152.096 240.971 150.105 240.673C149.956 240.673 149.807 240.524 149.807 240.324C149.807 237.835 149.807 235.397 149.956 233.057C150.105 228.827 151.051 224.745 152.793 220.813C155.332 214.99 161.852 211.456 167.874 210.76C173.349 210.112 178.326 210.261 182.856 211.157C191.467 212.949 195.448 218.574 196.643 227.085C197.14 230.618 197.389 234.003 197.389 237.338C197.389 253.663 197.389 269.989 197.389 286.265C197.389 286.763 197.14 287.011 196.643 287.011H179.471C178.874 287.011 178.575 286.713 178.575 286.116L178.326 280.441L178.227 280.392ZM172.155 254.41C170.363 255.704 168.969 257.546 168.571 259.686C168.023 262.523 167.874 265.659 168.123 269.093C168.422 273.175 169.915 275.913 174.742 275.464C176.833 275.265 177.63 272.478 177.63 270.735C177.679 264.813 177.679 258.342 177.63 251.374C177.63 251.274 177.63 251.174 177.53 251.076C177.38 250.926 177.182 250.876 177.033 251.025C175.29 252.171 173.647 253.315 172.155 254.46V254.41Z" fill="#E5883D"/>
<path d="M348.001 280.043C348.051 279.346 347.901 279.296 347.503 279.894C343.82 285.667 338.046 288.206 331.427 288.405C323.712 288.603 319.083 283.478 317.988 276.259C317.54 273.323 317.291 270.536 317.291 267.799C317.291 248.735 317.291 230.07 317.291 211.854C317.291 211.605 317.49 211.455 317.69 211.455C323.961 211.605 330.232 211.605 336.454 211.455C336.653 211.455 336.802 211.555 336.802 211.754C336.902 214.044 336.951 216.533 336.951 219.269C336.852 242.862 336.852 259.885 337.002 270.386C337.051 274.369 340.535 276.41 344.119 274.966C348.25 273.323 347.752 267.948 347.802 264.166C347.852 246.844 347.901 229.473 347.901 212.103C347.901 211.754 348.15 211.506 348.498 211.506H367.313C367.313 211.506 367.562 211.655 367.562 211.804V286.314C367.562 286.613 367.313 286.811 367.015 286.811H348.001C347.652 286.811 347.454 286.662 347.503 286.265L347.952 279.992L348.001 280.043Z" fill="#818284"/>
</svg>
