<svg width="500" height="500" viewBox="0 0 500 500" fill="none" xmlns="http://www.w3.org/2000/svg">
<rect width="500" height="500" fill="white"/>
<path d="M144.434 286.488V254.715C144.434 237.88 158.134 224.18 174.971 224.18H176.786V232.652H174.971C162.801 232.652 152.903 242.547 152.903 254.715V286.49L144.434 286.488Z" fill="#4F9C64"/>
<path d="M200.505 244.125H192.035V286.494H200.505V244.125Z" fill="#4F9C64"/>
<path d="M394.298 286.488C386.777 286.462 380.656 280.321 380.656 272.81C380.656 267.677 383.533 263.023 388.164 260.651L431.048 242.273C432.533 241.419 433.531 239.675 433.531 237.86C433.531 234.983 431.192 232.649 428.32 232.649H384.049V224.18H428.361C435.887 224.21 442 230.352 442 237.862C442 242.991 439.126 247.645 434.487 250.007L391.564 268.415C390.085 269.29 389.134 270.974 389.134 272.805C389.134 274.2 389.672 275.51 390.654 276.493C391.647 277.477 392.952 278.023 394.342 278.023H441.734V286.488H394.298Z" fill="#4F9C64"/>
<path d="M333.814 286.488C327.791 286.488 322.052 283.68 318.308 278.939C314.58 283.683 308.833 286.488 302.813 286.488C291.935 286.488 283.086 277.641 283.086 266.754L283.091 224.18H291.563V266.751C291.563 272.954 296.62 278.011 302.815 278.011C309.021 278.011 314.069 272.954 314.069 266.751L314.085 224.18H322.554L322.565 266.751C322.565 272.954 327.611 278.011 333.817 278.011C340.022 278.011 345.068 272.954 345.068 266.751L345.079 224.18H353.551V266.751C353.546 277.641 344.694 286.488 333.814 286.488Z" fill="#4F9C64"/>
<path d="M372.188 224.18H363.713V286.488H372.188V224.18Z" fill="#4F9C64"/>
<path d="M134.267 244.125H94.3164V252.597H134.267V244.125Z" fill="#4F9C64"/>
<path d="M96.1275 210.227C75.1059 210.227 58 227.335 58 248.367C58 269.388 75.1059 286.492 96.1275 286.492C112.162 286.492 126.693 276.099 132.034 261.068H123.198C118.308 271.599 107.89 278.317 96.1275 278.317C79.6113 278.317 66.1773 264.883 66.1773 248.369C66.1773 231.846 79.6087 218.409 96.1275 218.409C107.884 218.409 118.305 225.12 123.195 235.653H132.032C126.696 220.617 112.164 210.227 96.1275 210.227Z" fill="#4F9C64"/>
<path d="M241.795 286.492C224.638 286.492 210.676 272.532 210.676 255.37C210.676 238.213 224.635 224.255 241.795 224.255C250.311 224.255 258.437 227.756 264.307 233.91V210.227H272.917V255.37C272.92 272.532 258.952 286.492 241.795 286.492ZM241.795 232.861C229.387 232.861 219.289 242.959 219.289 255.367C219.289 267.778 229.384 277.876 241.795 277.876C254.206 277.876 264.307 267.778 264.307 255.367C264.307 242.962 254.206 232.861 241.795 232.861Z" fill="#4F9C64"/>
<path d="M192.038 215.004C186.75 218.645 184.414 223.209 184.414 228.023C184.414 229.374 184.65 230.661 185.063 231.869L192.038 224.892V215.004Z" fill="#4F9C64"/>
<path d="M206.934 210C206.934 210 199.436 210.736 193.73 213.941V223.201L206.934 210Z" fill="#A1BC4D"/>
<path d="M185.781 233.547C187.769 237.311 191.717 239.883 196.271 239.883C202.246 239.883 207.175 235.463 208 229.719H189.607L185.781 233.547Z" fill="#006158"/>
<path d="M208.132 228.03V228.024V211.203L191.301 228.03H208.132Z" fill="#14785C"/>
</svg>
