<svg width="500" height="500" viewBox="0 0 500 500" fill="none" xmlns="http://www.w3.org/2000/svg">
<rect width="500" height="500" fill="#002751"/>
<path d="M420.655 170.234H362.757L283.782 257.861L352.136 333.76H409.994L341.68 257.902L420.655 170.234Z" fill="white"/>
<path d="M184.633 368H238.718L299.937 300.056L272.874 270L184.633 368Z" fill="#C12833"/>
<path d="M317.61 136L245.812 215.712L272.833 245.728L371.695 136H317.61Z" fill="#C12833"/>
<path d="M237.939 238.184C237.775 237.364 237.652 236.544 237.487 235.724C236.257 229.738 234.33 223.997 231.87 218.543C231.501 217.723 231.132 216.903 230.722 216.083C217.395 189.184 189.717 170.609 158.39 170.281H142.727H100V216.083H158.759C163.352 216.083 167.739 216.985 171.758 218.543C179.999 221.783 186.765 227.933 190.743 235.724C191.153 236.544 191.563 237.364 191.932 238.184C193.695 242.408 194.679 247.082 194.679 251.962C194.679 267.215 185.166 280.173 171.758 285.421C167.739 286.98 163.352 287.882 158.759 287.882H140.266V238.184H100.082L100 333.766H160.235C190.825 332.74 217.682 314.288 230.763 287.882C231.173 287.062 231.542 286.241 231.911 285.421C236.544 275.211 239.128 263.935 239.128 252.044C239.128 247.328 238.718 242.695 237.939 238.225" fill="white"/>
</svg>
