<svg width="500" height="500" viewBox="0 0 500 500" fill="none" xmlns="http://www.w3.org/2000/svg">
<rect width="500" height="500" fill="white"/>
<path d="M350.279 220.356C343.082 231.062 337.414 241.948 333.365 253.105C324.819 276.801 321.325 302.023 323.109 327.15C324.008 341.185 324.728 352.251 325.088 360.259C325.268 364.757 324.548 369.796 322.929 375.554C322.929 361.878 319.33 350.092 312.312 340.196C296.837 318.243 270.656 300.339 246.634 289.183C246.211 288.968 245.842 288.66 245.554 288.283L244.025 286.394C247.279 264.243 252.456 242.417 259.5 221.165C259.459 220.854 259.31 220.568 259.08 220.354C258.85 220.141 258.553 220.014 258.24 219.996C236.286 218.857 214.644 214.304 194.092 206.5C170.865 197.689 151.366 181.175 138.85 159.716C135.971 154.768 135.881 152.158 132.552 148.2C132.192 139.563 133.452 132.995 136.241 128.406C144.698 114.911 155.854 109.693 169.62 112.932C181.766 115.811 195.441 127.327 205.968 132.725C247.624 154.048 292.069 146.67 335.524 130.746C342.173 128.241 349.435 127.863 356.307 129.666C371.782 133.625 385.098 149.01 383.928 165.564C383.644 173.964 380.645 182.045 375.381 188.596C366.564 199.213 357.567 209.019 350.189 220.356H350.279Z" fill="#F04D22"/>
<path d="M194.091 206.5C192.562 228.092 188.693 248.786 182.755 268.579C182.633 268.97 182.599 269.384 182.655 269.789C182.712 270.195 182.856 270.584 183.08 270.928C183.303 271.271 183.599 271.561 183.948 271.777C184.296 271.993 184.687 272.13 185.094 272.178C204.978 274.247 224.141 279.195 242.675 287.113C243.125 287.293 243.575 287.203 243.935 287.023C244.115 286.843 244.205 286.573 244.025 286.393L245.554 288.282C245.824 288.642 246.274 288.912 246.634 289.182C270.656 300.338 296.837 318.242 312.312 340.195C319.472 350.575 323.187 362.945 322.928 375.553C317.8 391.208 307.183 399.305 290.989 399.845C272.005 400.565 261.839 391.208 249.063 379.152C216.674 348.562 181.046 327.509 135.161 331.468C123.825 332.368 117.167 332.637 114.828 332.188C111.802 331.576 108.926 330.373 106.366 328.649C103.805 326.924 101.61 324.712 99.9048 322.138C98.2001 319.564 97.0196 316.68 96.4309 313.649C95.8422 310.619 95.8569 307.502 96.474 304.477C98.2734 294.4 104.211 288.552 109.97 281.175C129.313 256.253 141.639 225.213 138.85 193.184C137.509 178.093 135.407 163.079 132.552 148.199C135.881 152.158 135.971 154.767 138.85 159.715C151.365 181.174 170.865 197.688 194.091 206.5Z" fill="#6D6359"/>
</svg>
