<svg width="500" height="500" viewBox="0 0 500 500" fill="none" xmlns="http://www.w3.org/2000/svg">
<rect width="500" height="500" fill="white"/>
<path d="M236.765 236.006C239.654 236.006 241.996 233.673 241.996 230.794C241.996 227.915 239.654 225.582 236.765 225.582C233.876 225.582 231.535 227.915 231.535 230.794C231.535 233.673 233.876 236.006 236.765 236.006Z" fill="black"/>
<path d="M356.229 236.006C359.118 236.006 361.459 233.673 361.459 230.794C361.459 227.915 359.118 225.582 356.229 225.582C353.34 225.582 350.998 227.915 350.998 230.794C350.998 233.673 353.34 236.006 356.229 236.006Z" fill="black"/>
<path d="M344.359 261.741V269.234C344.359 269.234 344.266 269.467 344.126 269.467H316.292C316.292 269.467 316.059 269.374 316.059 269.234V230.979C316.059 230.979 316.152 230.746 316.292 230.746H325.259C325.259 230.746 325.492 230.839 325.492 230.979V261.276C325.492 261.276 325.585 261.508 325.725 261.508H344.173C344.173 261.508 344.406 261.601 344.406 261.741H344.359Z" fill="black"/>
<path d="M410.022 269.467H401.522C401.522 269.467 401.289 269.374 401.289 269.234V230.979C401.289 230.979 401.382 230.746 401.522 230.746H410.022C410.022 230.746 410.256 230.839 410.256 230.979V247.454C410.256 247.454 410.349 247.687 410.489 247.687C410.536 247.687 410.629 247.687 410.676 247.594L417.073 240.892C417.073 240.892 417.167 240.799 417.261 240.799H427.021C427.021 240.799 427.254 240.892 427.254 241.032C427.254 241.078 427.254 241.172 427.208 241.218L416.327 252.619C416.327 252.619 416.233 252.806 416.327 252.899L428.282 269.048C428.282 269.048 428.329 269.28 428.282 269.374C428.282 269.374 428.189 269.42 428.142 269.42H418.101C418.101 269.42 417.961 269.42 417.914 269.327L410.769 259.694C410.769 259.694 410.536 259.554 410.442 259.647C410.396 259.647 410.349 259.74 410.349 259.833V269.187C410.349 269.187 410.256 269.42 410.116 269.42L410.022 269.467Z" fill="black"/>
<path d="M111.419 269.282H48.2335C48.2335 269.282 48 269.189 48 269.049V261.742C48 261.742 48.0934 261.51 48.2335 261.51H106.376C106.376 261.51 106.516 261.51 106.562 261.417L125.476 231.074C125.476 231.074 125.616 230.98 125.663 230.98H136.544C136.544 230.98 136.777 231.074 136.777 231.214V254.064C136.777 254.064 136.871 254.297 137.011 254.297C137.104 254.297 137.151 254.297 137.198 254.204L151.582 231.074C151.582 231.074 151.722 230.98 151.768 230.98H163.397C163.397 230.98 163.63 231.074 163.63 231.214V269.282C163.63 269.282 163.537 269.515 163.397 269.515H154.57C154.57 269.515 154.337 269.421 154.337 269.282V244.756C154.337 244.756 154.244 244.524 154.104 244.524C154.01 244.524 153.964 244.524 153.917 244.617L138.459 269.375C138.459 269.375 138.319 269.468 138.272 269.468H127.624C127.624 269.468 127.391 269.375 127.391 269.236V244.709C127.391 244.709 127.297 244.477 127.157 244.477C127.064 244.477 127.017 244.477 126.97 244.57L111.653 269.142C111.653 269.142 111.513 269.236 111.466 269.236L111.419 269.282Z" fill="black"/>
<path d="M216.866 247.691C216.866 253.647 216.866 257.649 216.913 259.697C216.959 261.373 217.847 262.211 219.482 262.257C221.256 262.304 222.237 262.351 222.33 262.351C222.937 262.257 223.218 262.536 223.218 263.095V268.633C223.218 269.145 222.937 269.424 222.377 269.424C218.968 269.517 215.979 269.424 213.317 269.145C207.433 268.494 207.619 262.723 207.713 258.162C207.806 252.671 207.806 249.18 207.806 247.784C207.806 247.505 207.666 247.365 207.386 247.365H203.884C203.276 247.365 202.996 247.086 202.996 246.481V241.501C202.996 240.896 203.276 240.617 203.884 240.617H207.479C207.479 240.617 207.806 240.524 207.806 240.291V233.73C207.806 233.73 207.899 233.543 207.993 233.543H216.493C216.493 233.543 216.819 233.683 216.819 233.915V240.291C216.819 240.524 216.959 240.663 217.194 240.663H223.03C223.03 240.663 223.218 240.756 223.218 240.85V247.225C223.218 247.225 223.171 247.412 223.03 247.412H217.194C217.194 247.412 216.866 247.505 216.866 247.737V247.691Z" fill="black"/>
<path d="M200.105 256.298C200.105 263.79 194.08 269.886 186.561 269.933H183.011C175.493 269.98 169.375 263.976 169.328 256.483V253.831C169.328 246.338 175.353 240.242 182.871 240.196H186.421C193.94 240.149 200.058 246.152 200.105 253.644V256.298ZM190.951 252.714C190.951 249.55 188.382 246.99 185.207 246.99H184.272C181.097 246.99 178.528 249.55 178.528 252.714V257.461C178.528 260.625 181.097 263.185 184.272 263.185H185.207C188.382 263.185 190.951 260.625 190.951 257.461V252.714Z" fill="black"/>
<path d="M286.034 257.691C287.061 263.88 294.066 264.718 298.456 261.414C298.643 261.275 298.877 261.228 299.11 261.321L305.368 263.601C305.368 263.601 305.601 263.833 305.554 263.973C305.554 263.973 305.554 264.02 305.508 264.067C301.772 268.953 296.821 270.349 290.797 269.93C284.259 269.511 279.075 265.602 277.487 259.459C275.806 252.711 277.44 247.359 282.391 243.45C286.314 240.333 292.198 239.168 296.821 240.471C304.153 242.519 308.03 249.594 307.516 256.946C307.516 257.132 307.376 257.226 307.189 257.226H286.36C286.08 257.226 285.94 257.365 285.987 257.645L286.034 257.691ZM286.267 252.152H299.25C299.25 252.152 299.343 252.06 299.343 252.014C299.343 248.941 296.401 246.521 292.852 246.568H292.712C289.116 246.568 286.22 249.035 286.22 252.014C286.22 252.014 286.22 252.152 286.314 252.152H286.267Z" fill="black"/>
<path d="M376.116 244.151C376.116 244.151 376.584 243.687 377.564 242.802C380.459 240.057 384.569 239.498 388.493 240.429C392.882 241.499 394.61 245.873 394.657 249.829C394.75 254.622 394.75 261.045 394.704 269.143C394.704 269.375 394.564 269.469 394.33 269.469H386.157C385.877 269.469 385.737 269.329 385.737 269.05C385.737 267.7 385.737 262.441 385.737 253.367C385.737 251.319 385.457 247.642 383.028 247.083C377.751 245.873 375.976 249.643 375.883 254.064C375.789 258.718 375.789 263.744 375.883 269.143C375.883 269.282 375.743 269.422 375.603 269.422H367.103C367.103 269.422 366.916 269.329 366.916 269.235V240.987C366.916 240.754 367.009 240.614 367.243 240.614H374.342C374.622 240.614 374.763 240.754 374.856 240.987C375.323 242.43 375.603 243.453 375.743 243.966C375.743 244.059 375.883 244.198 375.976 244.198C376.069 244.198 376.116 244.198 376.116 244.106V244.151Z" fill="black"/>
<path d="M226.633 247.27V241.081C226.633 241.081 226.774 240.801 226.914 240.801H240.97C240.97 240.801 241.25 240.941 241.25 241.081V269.189C241.25 269.189 241.11 269.468 240.97 269.468H232.47C232.47 269.468 232.19 269.329 232.19 269.189V247.782C232.19 247.782 232.05 247.503 231.91 247.503H226.867C226.867 247.503 226.586 247.363 226.586 247.223L226.633 247.27Z" fill="black"/>
<path d="M259.931 259.882C259.931 259.882 259.977 259.882 260.025 259.882C260.072 259.882 260.119 259.789 260.165 259.696L266.143 241.128C266.143 241.128 266.376 240.848 266.563 240.848H275.203C275.203 240.848 275.436 240.941 275.436 241.081C275.436 241.081 275.436 241.128 275.436 241.173L265.162 269.143C265.162 269.143 264.928 269.423 264.742 269.469H259.977C258.39 269.469 256.802 269.469 255.214 269.469C254.981 269.469 254.841 269.376 254.794 269.19L244.566 241.173C244.566 241.173 244.566 240.894 244.706 240.848C244.706 240.848 244.753 240.848 244.8 240.848H253.44C253.44 240.848 253.766 240.988 253.86 241.173L259.791 259.742C259.791 259.742 259.837 259.882 259.931 259.929C259.931 259.929 259.977 259.929 260.025 259.929L259.931 259.882Z" fill="black"/>
<path d="M351.648 247.922C351.648 247.642 351.508 247.503 351.274 247.503H346.277C346.277 247.503 346.137 247.456 346.137 247.363V240.987C346.137 240.987 346.137 240.801 346.277 240.801H360.288C360.288 240.801 360.661 240.987 360.661 241.22V269.189C360.661 269.329 360.521 269.468 360.381 269.468H351.974C351.694 269.468 351.601 269.329 351.601 269.049V247.922H351.648Z" fill="black"/>
<path d="M447.572 261.324H432.721C432.489 261.324 432.301 261.512 432.301 261.743V268.91C432.301 269.141 432.489 269.329 432.721 269.329H447.572C447.804 269.329 447.993 269.141 447.993 268.91V261.743C447.993 261.512 447.804 261.324 447.572 261.324Z" fill="#03B2E2"/>
</svg>
