<svg width="500" height="500" viewBox="0 0 500 500" fill="none" xmlns="http://www.w3.org/2000/svg">
<rect width="500" height="500" fill="white"/>
<path d="M250 94.5591C251.665 94.5591 253.262 93.8975 254.439 92.7199C255.616 91.5422 256.278 89.945 256.278 88.2795C256.278 86.6141 255.616 85.0169 254.439 83.8392C253.262 82.6616 251.665 82 250 82C248.335 82 246.738 82.6616 245.561 83.8392C244.384 85.0169 243.722 86.6141 243.722 88.2795C243.722 89.945 244.384 91.5422 245.561 92.7199C246.738 93.8975 248.335 94.5591 250 94.5591ZM208.088 100.043C209.73 100.043 211.304 99.3904 212.465 98.2293C213.626 97.0682 214.278 95.4935 214.278 93.8515C214.278 92.2096 213.626 90.6348 212.465 89.4738C211.304 88.3127 209.73 87.6604 208.088 87.6604C206.447 87.6604 204.873 88.3127 203.712 89.4738C202.551 90.6348 201.899 92.2096 201.899 93.8515C201.899 95.4935 202.551 97.0682 203.712 98.2293C204.873 99.3904 206.447 100.043 208.088 100.043ZM298.013 93.8515C298.013 95.4935 297.361 97.0682 296.2 98.2293C295.039 99.3904 293.465 100.043 291.823 100.043C290.182 100.043 288.607 99.3904 287.447 98.2293C286.286 97.0682 285.634 95.4935 285.634 93.8515C285.634 92.2096 286.286 90.6348 287.447 89.4738C288.607 88.3127 290.182 87.6604 291.823 87.6604C293.465 87.6604 295.039 88.3127 296.2 89.4738C297.361 90.6348 298.013 92.2096 298.013 93.8515ZM231.343 119.058C232.771 119.058 234.186 118.777 235.505 118.23C236.825 117.683 238.024 116.882 239.033 115.872C240.043 114.862 240.844 113.662 241.391 112.343C241.938 111.023 242.219 109.608 242.219 108.18C242.219 106.751 241.938 105.336 241.391 104.016C240.844 102.697 240.043 101.497 239.033 100.487C238.024 99.477 236.825 98.6757 235.505 98.129C234.186 97.5823 232.771 97.3009 231.343 97.3009C228.459 97.3009 225.692 98.447 223.653 100.487C221.613 102.527 220.467 105.294 220.467 108.18C220.467 111.065 221.613 113.832 223.653 115.872C225.692 117.912 228.459 119.058 231.343 119.058ZM279.533 108.268C279.669 109.773 279.49 111.29 279.007 112.722C278.525 114.154 277.749 115.47 276.73 116.586C275.711 117.701 274.471 118.592 273.089 119.202C271.706 119.812 270.212 120.127 268.701 120.127C267.19 120.127 265.696 119.812 264.314 119.202C262.931 118.592 261.691 117.701 260.672 116.586C259.653 115.47 258.877 114.154 258.395 112.722C257.912 111.29 257.733 109.773 257.869 108.268C258.114 105.563 259.361 103.048 261.365 101.217C263.37 99.3848 265.986 98.3692 268.701 98.3692C271.416 98.3692 274.033 99.3848 276.037 101.217C278.041 103.048 279.288 105.563 279.533 108.268ZM169.006 116.14C170.66 116.14 172.245 115.483 173.414 114.313C174.583 113.144 175.24 111.558 175.24 109.904C175.24 108.25 174.583 106.664 173.414 105.495C172.245 104.326 170.66 103.669 169.006 103.669C167.365 103.669 165.79 104.321 164.63 105.482C163.469 106.643 162.817 108.218 162.817 109.86C162.817 111.502 163.469 113.077 164.63 114.238C165.79 115.399 167.365 116.051 169.006 116.051V116.14ZM337.095 109.948C337.095 111.602 336.438 113.188 335.269 114.357C334.1 115.527 332.514 116.184 330.861 116.184C329.208 116.184 327.622 115.527 326.453 114.357C325.284 113.188 324.627 111.602 324.627 109.948C324.627 108.295 325.284 106.709 326.453 105.539C327.622 104.37 329.208 103.713 330.861 103.713C332.514 103.713 334.1 104.37 335.269 105.539C336.438 106.709 337.095 108.295 337.095 109.948ZM195.267 128.699C196.772 128.835 198.289 128.656 199.72 128.173C201.152 127.691 202.467 126.915 203.583 125.896C204.698 124.876 205.589 123.636 206.199 122.253C206.808 120.87 207.123 119.375 207.123 117.864C207.123 116.353 206.808 114.858 206.199 113.476C205.589 112.093 204.698 110.852 203.583 109.833C202.467 108.813 201.152 108.038 199.72 107.555C198.289 107.073 196.772 106.894 195.267 107.03C192.564 107.274 190.049 108.522 188.218 110.526C186.387 112.531 185.371 115.149 185.371 117.864C185.371 120.58 186.387 123.197 188.218 125.202C190.049 127.207 192.564 128.454 195.267 128.699ZM315.608 117.908C315.608 119.331 315.328 120.74 314.784 122.055C314.24 123.369 313.442 124.563 312.436 125.569C311.43 126.576 310.236 127.374 308.922 127.918C307.608 128.463 306.199 128.743 304.777 128.743C303.354 128.743 301.946 128.463 300.632 127.918C299.318 127.374 298.124 126.576 297.118 125.569C296.112 124.563 295.314 123.369 294.77 122.055C294.225 120.74 293.945 119.331 293.945 117.908C293.945 115.035 295.086 112.279 297.118 110.247C299.149 108.215 301.904 107.074 304.777 107.074C307.65 107.074 310.405 108.215 312.436 110.247C314.467 112.279 315.608 115.035 315.608 117.908ZM253.36 114.636C260.434 114.636 265.916 119.677 267.242 127.018C267.596 129.229 268.303 130.379 269.011 130.556C269.895 130.556 270.779 129.671 271.752 127.549C274.935 120.916 281.566 117.466 288.375 119.235C295.183 121.092 299.251 127.372 298.632 134.801C298.366 137.012 298.632 138.339 299.516 138.693C300.223 138.958 301.373 138.251 302.876 136.57C307.651 130.821 314.901 129.229 321.002 132.767C323.389 134.182 325.246 136.039 326.307 138.339C325.896 135.652 326.505 132.908 328.015 130.647C329.526 128.387 331.827 126.774 334.467 126.126C337.107 125.479 339.893 125.843 342.278 127.148C344.662 128.453 346.472 130.604 347.35 133.176C348.228 135.749 348.112 138.558 347.023 141.049C345.934 143.54 343.953 145.533 341.468 146.636C338.984 147.738 336.177 147.87 333.6 147.006C331.023 146.141 328.863 144.343 327.545 141.965C328.164 144.619 327.899 147.537 326.838 150.456C326.131 152.579 326.042 153.905 326.749 154.347C327.368 154.878 328.695 154.524 330.552 153.198C336.653 148.952 344.08 149.306 349.12 154.259C351.065 156.293 352.303 158.681 352.834 161.246C353.275 158.59 354.686 156.192 356.793 154.516C358.9 152.841 361.554 152.006 364.241 152.174C366.927 152.342 369.456 153.501 371.338 155.426C373.22 157.351 374.322 159.906 374.429 162.597C374.537 165.287 373.643 167.922 371.921 169.991C370.198 172.061 367.77 173.418 365.105 173.8C362.441 174.182 359.729 173.562 357.495 172.06C355.261 170.558 353.663 168.281 353.011 165.668C352.657 168.145 351.773 170.533 350.181 172.832C348.855 174.69 348.413 175.928 349.032 176.635C349.474 177.255 350.8 177.255 352.922 176.459C359.996 173.982 367.069 176.193 370.606 182.296C372.109 184.949 372.64 187.779 372.375 190.521C373.544 188.089 375.576 186.179 378.075 185.162C380.574 184.145 383.361 184.093 385.896 185.016C388.431 185.939 390.533 187.772 391.793 190.159C393.052 192.545 393.38 195.314 392.713 197.929C392.045 200.544 390.43 202.817 388.181 204.307C385.932 205.798 383.209 206.399 380.542 205.993C377.875 205.588 375.453 204.206 373.748 202.115C372.042 200.024 371.175 197.373 371.314 194.678C370.341 196.801 368.838 198.835 366.893 200.515C365.124 202.019 364.417 203.169 364.682 203.876C365.036 204.672 366.274 204.938 368.573 204.761C376 204.142 382.278 208.122 384.135 214.932C385.019 218.47 384.577 222.007 382.985 225.014C384.654 222.751 387.135 221.221 389.907 220.747C392.679 220.274 395.527 220.892 397.852 222.474C400.178 224.055 401.801 226.476 402.381 229.228C402.961 231.981 402.452 234.851 400.961 237.236C399.471 239.622 397.115 241.337 394.387 242.022C391.66 242.707 388.773 242.308 386.333 240.91C383.892 239.512 382.089 237.223 381.3 234.523C380.511 231.823 380.798 228.922 382.101 226.43C380.462 228.665 378.267 230.433 375.735 231.559C373.701 232.532 372.728 233.417 372.817 234.213C372.994 235.097 374.143 235.716 376.354 236.07C383.693 237.397 388.733 242.969 388.733 249.956C388.733 257.031 383.693 262.603 376.354 263.842C374.143 264.284 372.994 264.903 372.817 265.699C372.817 266.583 373.701 267.468 375.735 268.352C378.299 269.59 380.333 271.271 381.836 273.217C381.076 271.565 380.745 269.747 380.875 267.933C381.005 266.12 381.592 264.368 382.58 262.842C383.568 261.315 384.926 260.063 386.527 259.202C388.128 258.341 389.921 257.898 391.739 257.916C393.577 257.917 395.385 258.384 396.994 259.274C398.603 260.164 399.96 261.447 400.939 263.004C401.917 264.561 402.485 266.34 402.59 268.176C402.694 270.012 402.332 271.844 401.536 273.502C400.741 275.16 399.538 276.589 398.041 277.655C396.543 278.722 394.8 279.392 392.974 279.602C391.147 279.812 389.298 279.555 387.597 278.856C385.897 278.157 384.401 277.039 383.251 275.605C384.665 278.435 385.019 281.707 384.135 284.98C382.278 291.878 376 295.858 368.573 295.239C366.274 295.062 365.036 295.328 364.682 296.124C364.417 296.92 365.124 297.981 366.804 299.485C368.838 301.165 370.341 303.111 371.225 305.234V304.791C371.246 302.128 372.243 299.565 374.027 297.587C375.811 295.61 378.258 294.356 380.905 294.063C383.552 293.77 386.214 294.459 388.387 295.998C390.56 297.538 392.093 299.821 392.695 302.416C393.297 305.01 392.927 307.736 391.654 310.075C390.381 312.415 388.295 314.206 385.79 315.11C383.285 316.013 380.535 315.966 378.063 314.977C375.59 313.988 373.566 312.126 372.375 309.744C372.64 312.397 372.021 315.139 370.606 317.704C367.069 323.807 359.996 326.018 352.922 323.541C350.8 322.745 349.474 322.657 348.943 323.365C348.413 324.072 348.855 325.31 350.181 327.168C351.684 329.29 352.568 331.59 352.922 333.978C353.699 331.416 355.386 329.228 357.665 327.824C359.944 326.42 362.657 325.899 365.294 326.358C367.93 326.817 370.308 328.224 371.979 330.316C373.649 332.407 374.498 335.037 374.364 337.71C374.231 340.384 373.124 342.916 371.253 344.83C369.382 346.744 366.876 347.907 364.207 348.101C361.538 348.295 358.89 347.505 356.762 345.881C354.635 344.257 353.175 341.911 352.657 339.285C352.126 341.673 350.888 343.884 349.12 345.741C344.08 350.694 336.564 351.048 330.552 346.802C328.695 345.476 327.368 345.033 326.749 345.564C326.042 346.095 326.131 347.421 326.838 349.544C327.899 352.463 328.164 355.381 327.634 358.123C328.986 355.798 331.158 354.061 333.724 353.255C336.29 352.448 339.064 352.629 341.504 353.763C343.943 354.896 345.871 356.901 346.909 359.382C347.948 361.864 348.022 364.644 347.117 367.178C346.213 369.711 344.394 371.815 342.019 373.078C339.644 374.34 336.883 374.669 334.278 374C331.673 373.332 329.411 371.714 327.936 369.464C326.462 367.214 325.881 364.494 326.307 361.838C325.158 363.961 323.389 365.818 321.002 367.145C314.813 370.682 307.562 369.09 302.787 363.43C301.373 361.661 300.223 361.042 299.427 361.307C298.72 361.661 298.366 362.988 298.543 365.199C299.251 372.628 295.183 378.908 288.375 380.677C281.566 382.534 274.935 379.085 271.752 372.363C270.867 370.329 269.983 369.356 269.099 369.444C268.215 369.621 267.596 370.771 267.242 372.982C265.916 380.323 260.434 385.364 253.36 385.364C246.286 385.364 240.804 380.323 239.478 372.982C239.036 370.771 238.417 369.621 237.621 369.444C236.737 369.444 235.853 370.329 234.968 372.363C231.785 379.085 225.154 382.534 218.345 380.677C211.448 378.908 207.469 372.628 208.088 365.199C208.265 362.899 208 361.661 207.204 361.307C206.408 361.042 205.347 361.749 203.844 363.43C199.069 369.09 191.819 370.682 185.629 367.233C179.528 363.695 177.318 356.62 179.794 349.544C180.589 347.421 180.678 346.095 179.971 345.564C179.263 345.122 178.025 345.476 176.168 346.802C170.067 351.048 162.64 350.694 157.6 345.653C152.648 340.7 152.295 333.27 156.539 327.079C157.865 325.31 158.219 323.984 157.688 323.365C157.246 322.657 155.92 322.745 153.709 323.541C146.724 326.018 139.562 323.718 136.025 317.616C132.577 311.513 134.257 304.261 139.827 299.485C141.596 297.981 142.303 296.831 141.949 296.124C141.684 295.239 140.358 295.062 138.147 295.239C130.72 295.858 124.442 291.79 122.585 284.98C120.817 278.17 124.177 271.536 130.897 268.441C133.019 267.468 133.992 266.583 133.815 265.787C133.815 264.903 132.577 264.284 130.278 263.842C123.027 262.603 117.987 257.031 117.987 249.956C117.987 242.88 123.027 237.397 130.366 236.07C132.577 235.716 133.726 235.097 133.903 234.301C133.903 233.417 133.019 232.532 130.897 231.559C124.177 228.375 120.817 221.83 122.585 214.932C124.354 208.122 130.72 204.142 138.147 204.761C140.358 204.938 141.684 204.672 141.949 203.876C142.303 203.08 141.596 201.931 139.827 200.515C134.168 195.739 132.577 188.399 136.114 182.296C139.651 176.193 146.724 173.894 153.798 176.459C155.92 177.255 157.246 177.343 157.688 176.635C158.219 175.928 157.865 174.69 156.539 172.832C152.295 166.73 152.648 159.3 157.688 154.259C162.64 149.306 170.067 148.952 176.257 153.198C178.025 154.524 179.263 154.967 179.971 154.347C180.678 153.817 180.589 152.579 179.794 150.367C177.318 143.38 179.528 136.305 185.629 132.767C191.819 129.229 199.069 130.821 203.844 136.482C205.347 138.251 206.497 138.958 207.204 138.604C208.088 138.339 208.265 137.012 208.088 134.801C207.469 127.372 211.448 121.092 218.345 119.235C225.154 117.466 231.785 120.827 234.968 127.549C235.853 129.671 236.737 130.644 237.621 130.467C238.505 130.467 239.036 129.229 239.389 126.93C240.804 119.677 246.286 114.636 253.36 114.636ZM184.745 209.89C184.114 210.244 183.587 210.757 183.214 211.377C182.842 211.998 182.638 212.705 182.623 213.428V286.572C182.62 287.299 182.816 288.013 183.19 288.637C183.564 289.261 184.102 289.77 184.745 290.109C193.853 295.328 203.491 300.458 213.217 305.676C226.126 312.663 239.213 319.65 251.238 326.725C251.945 327.168 252.653 327.345 253.272 327.345C253.979 327.345 254.686 327.168 255.394 326.725C276.349 314.343 297.482 302.226 318.703 290.198C319.411 289.756 319.941 289.313 320.295 288.694C320.627 288.038 320.78 287.306 320.737 286.572V213.428C320.764 212.724 320.612 212.024 320.295 211.394C319.908 210.76 319.358 210.24 318.703 209.89C297.498 197.892 276.395 185.715 255.394 173.363C254.757 172.965 254.023 172.75 253.272 172.744C252.551 172.766 251.849 172.98 251.238 173.363C239.301 180.35 226.303 187.337 213.394 194.236C203.667 199.543 193.941 204.672 184.745 209.89ZM173.869 136.482C173.869 139.367 172.724 142.134 170.684 144.174C168.644 146.214 165.878 147.36 162.994 147.36C160.109 147.36 157.343 146.214 155.303 144.174C153.264 142.134 152.118 139.367 152.118 136.482C152.118 133.597 153.264 130.829 155.303 128.789C157.343 126.749 160.109 125.603 162.994 125.603C165.878 125.603 168.644 126.749 170.684 128.789C172.724 130.829 173.869 133.597 173.869 136.482ZM141.684 135.597C141.684 137.239 141.032 138.814 139.871 139.975C138.711 141.136 137.136 141.788 135.495 141.788C133.853 141.788 132.279 141.136 131.118 139.975C129.957 138.814 129.305 137.239 129.305 135.597C129.305 133.955 129.957 132.381 131.118 131.219C132.279 130.058 133.853 129.406 135.495 129.406C137.136 129.406 138.711 130.058 139.871 131.219C141.032 132.381 141.684 133.955 141.684 135.597ZM364.328 141.965C365.993 141.965 367.59 141.304 368.768 140.126C369.945 138.948 370.606 137.351 370.606 135.686C370.606 134.02 369.945 132.423 368.768 131.245C367.59 130.068 365.993 129.406 364.328 129.406C362.663 129.406 361.067 130.068 359.889 131.245C358.712 132.423 358.051 134.02 358.051 135.686C358.051 137.351 358.712 138.948 359.889 140.126C361.067 141.304 362.663 141.965 364.328 141.965ZM147.432 162.838C147.568 164.343 147.389 165.86 146.906 167.292C146.424 168.724 145.648 170.04 144.629 171.156C143.61 172.271 142.37 173.163 140.987 173.772C139.605 174.382 138.111 174.697 136.6 174.697C135.089 174.697 133.595 174.382 132.213 173.772C130.83 173.163 129.59 172.271 128.571 171.156C127.552 170.04 126.776 168.724 126.294 167.292C125.811 165.86 125.632 164.343 125.768 162.838C126.013 160.134 127.26 157.618 129.264 155.787C131.268 153.955 133.885 152.939 136.6 152.939C139.315 152.939 141.932 153.955 143.936 155.787C145.94 157.618 147.187 160.134 147.432 162.838ZM116.042 169.118C116.147 169.987 116.065 170.868 115.804 171.704C115.543 172.539 115.108 173.31 114.527 173.965C113.946 174.62 113.233 175.144 112.435 175.503C111.637 175.862 110.772 176.047 109.897 176.047C109.022 176.047 108.157 175.862 107.358 175.503C106.56 175.144 105.847 174.62 105.266 173.965C104.686 173.31 104.25 172.539 103.989 171.704C103.728 170.868 103.647 169.987 103.752 169.118C103.932 167.614 104.657 166.229 105.79 165.225C106.922 164.22 108.383 163.665 109.897 163.665C111.411 163.665 112.872 164.22 114.004 165.225C115.136 166.229 115.862 167.614 116.042 169.118ZM390.059 175.309C391.701 175.309 393.275 174.656 394.436 173.495C395.596 172.334 396.248 170.76 396.248 169.118C396.248 167.476 395.596 165.901 394.436 164.74C393.275 163.579 391.701 162.927 390.059 162.927C388.417 162.927 386.843 163.579 385.682 164.74C384.522 165.901 383.869 167.476 383.869 169.118C383.869 170.76 384.522 172.334 385.682 173.495C386.843 174.656 388.417 175.309 390.059 175.309ZM128.686 195.209C128.822 196.714 128.644 198.231 128.161 199.663C127.679 201.095 126.903 202.411 125.884 203.526C124.865 204.642 123.625 205.533 122.242 206.143C120.86 206.752 119.366 207.067 117.855 207.067C116.344 207.067 114.85 206.752 113.467 206.143C112.085 205.533 110.845 204.642 109.826 203.526C108.806 202.411 108.031 201.095 107.548 199.663C107.066 198.231 106.887 196.714 107.023 195.209C107.268 192.504 108.515 189.989 110.519 188.157C112.523 186.326 115.14 185.31 117.855 185.31C120.57 185.31 123.186 186.326 125.191 188.157C127.195 189.989 128.442 192.504 128.686 195.209ZM99.8611 208.21C99.8611 209.852 99.2089 211.427 98.0482 212.588C96.8874 213.749 95.3131 214.401 93.6716 214.401C92.03 214.401 90.4557 213.749 89.295 212.588C88.1342 211.427 87.4821 209.852 87.4821 208.21C87.4821 206.568 88.1342 204.993 89.295 203.832C90.4557 202.671 92.03 202.019 93.6716 202.019C95.3131 202.019 96.8874 202.671 98.0482 203.832C99.2089 204.993 99.8611 206.568 99.8611 208.21ZM406.152 214.401C406.964 214.401 407.769 214.241 408.52 213.93C409.271 213.619 409.953 213.163 410.528 212.588C411.103 212.013 411.559 211.33 411.87 210.579C412.181 209.828 412.341 209.023 412.341 208.21C412.341 207.397 412.181 206.592 411.87 205.841C411.559 205.09 411.103 204.407 410.528 203.832C409.953 203.257 409.271 202.801 408.52 202.49C407.769 202.179 406.964 202.019 406.152 202.019C404.51 202.019 402.936 202.671 401.775 203.832C400.614 204.993 399.962 206.568 399.962 208.21C399.962 209.852 400.614 211.427 401.775 212.588C402.936 213.749 404.51 214.401 406.152 214.401ZM119.137 231.294C119.137 234.191 117.986 236.969 115.938 239.018C113.891 241.066 111.113 242.217 108.217 242.217C105.321 242.217 102.543 241.066 100.495 239.018C98.4473 236.969 97.2968 234.191 97.2968 231.294C97.2968 228.397 98.4473 225.619 100.495 223.57C102.543 221.522 105.321 220.371 108.217 220.371C111.113 220.371 113.891 221.522 115.938 223.57C117.986 225.619 119.137 228.397 119.137 231.294ZM94.3789 250.044C94.3789 251.686 93.7268 253.261 92.5661 254.422C91.4053 255.583 89.831 256.235 88.1895 256.235C86.5479 256.235 84.9736 255.583 83.8129 254.422C82.6521 253.261 82 251.686 82 250.044C82 248.402 82.6521 246.828 83.8129 245.666C84.9736 244.505 86.5479 243.853 88.1895 243.853C89.831 243.853 91.4053 244.505 92.5661 245.666C93.7268 246.828 94.3789 248.402 94.3789 250.044ZM411.722 256.412C413.387 256.412 414.984 255.751 416.161 254.573C417.339 253.395 418 251.798 418 250.133C418 248.467 417.339 246.87 416.161 245.692C414.984 244.515 413.387 243.853 411.722 243.853C410.057 243.853 408.46 244.515 407.283 245.692C406.106 246.87 405.444 248.467 405.444 250.133C405.444 251.798 406.106 253.395 407.283 254.573C408.46 255.751 410.057 256.412 411.722 256.412ZM119.048 268.794C119.048 271.68 117.903 274.447 115.863 276.487C113.823 278.527 111.057 279.673 108.173 279.673C105.288 279.673 102.522 278.527 100.482 276.487C98.4427 274.447 97.2968 271.68 97.2968 268.794C97.2968 265.921 98.438 263.165 100.469 261.133C102.501 259.101 105.256 257.96 108.128 257.96C111.001 257.96 113.756 259.101 115.788 261.133C117.819 263.165 118.96 265.921 118.96 268.794H119.048ZM99.6842 291.79C99.6842 293.408 99.0414 294.961 97.8973 296.105C96.7531 297.25 95.2013 297.893 93.5832 297.893C91.9651 297.893 90.4132 297.25 89.2691 296.105C88.1249 294.961 87.4821 293.408 87.4821 291.79C87.4821 290.171 88.1249 288.619 89.2691 287.475C90.4132 286.33 91.9651 285.687 93.5832 285.687C95.2013 285.687 96.7531 286.33 97.8973 287.475C99.0414 288.619 99.6842 290.171 99.6842 291.79ZM406.063 297.981C407.705 297.981 409.279 297.329 410.44 296.168C411.6 295.007 412.253 293.432 412.253 291.79C412.253 290.148 411.6 288.573 410.44 287.412C409.279 286.251 407.705 285.599 406.063 285.599C404.422 285.599 402.847 286.251 401.687 287.412C400.526 288.573 399.874 290.148 399.874 291.79C399.874 293.432 400.526 295.007 401.687 296.168C402.847 297.329 404.422 297.981 406.063 297.981ZM128.598 304.614C128.734 306.119 128.555 307.636 128.073 309.068C127.59 310.501 126.815 311.816 125.796 312.932C124.776 314.048 123.536 314.939 122.154 315.548C120.771 316.158 119.277 316.473 117.766 316.473C116.256 316.473 114.761 316.158 113.379 315.548C111.996 314.939 110.756 314.048 109.737 312.932C108.718 311.816 107.943 310.501 107.46 309.068C106.978 307.636 106.799 306.119 106.935 304.614C107.179 301.91 108.426 299.395 110.43 297.563C112.435 295.731 115.051 294.716 117.766 294.716C120.481 294.716 123.098 295.731 125.102 297.563C127.106 299.395 128.353 301.91 128.598 304.614ZM115.954 330.794C116.105 331.682 116.061 332.593 115.825 333.463C115.588 334.332 115.164 335.14 114.583 335.829C114.002 336.518 113.278 337.071 112.461 337.451C111.644 337.831 110.754 338.028 109.853 338.028C108.952 338.028 108.061 337.831 107.244 337.451C106.427 337.071 105.703 336.518 105.122 335.829C104.541 335.14 104.117 334.332 103.88 333.463C103.644 332.593 103.6 331.682 103.752 330.794C103.998 329.354 104.745 328.047 105.862 327.105C106.978 326.162 108.392 325.646 109.853 325.646C111.313 325.646 112.727 326.162 113.844 327.105C114.96 328.047 115.708 329.354 115.954 330.794ZM389.971 336.985C391.612 336.985 393.186 336.333 394.347 335.172C395.508 334.011 396.16 332.436 396.16 330.794C396.16 329.152 395.508 327.577 394.347 326.416C393.186 325.255 391.612 324.603 389.971 324.603C388.329 324.603 386.755 325.255 385.594 326.416C384.433 327.577 383.781 329.152 383.781 330.794C383.781 332.436 384.433 334.011 385.594 335.172C386.755 336.333 388.329 336.985 389.971 336.985ZM147.255 336.985C147.255 339.87 146.109 342.637 144.069 344.677C142.03 346.717 139.263 347.864 136.379 347.864C133.495 347.864 130.728 346.717 128.689 344.677C126.649 342.637 125.503 339.87 125.503 336.985C125.503 334.1 126.649 331.333 128.689 329.293C130.728 327.252 133.495 326.106 136.379 326.106C139.263 326.106 142.03 327.252 144.069 329.293C146.109 331.333 147.255 334.1 147.255 336.985ZM173.604 363.341C173.604 366.215 172.463 368.971 170.432 371.003C168.4 373.034 165.645 374.176 162.773 374.176C159.9 374.176 157.145 373.034 155.114 371.003C153.082 368.971 151.941 366.215 151.941 363.341C151.941 360.468 153.082 357.712 155.114 355.68C157.145 353.648 159.9 352.507 162.773 352.507C165.645 352.507 168.4 353.648 170.432 355.68C172.463 357.712 173.604 360.468 173.604 363.341ZM141.596 364.226C141.7 365.095 141.619 365.976 141.358 366.812C141.097 367.647 140.662 368.418 140.081 369.073C139.5 369.728 138.787 370.252 137.989 370.611C137.191 370.97 136.326 371.156 135.451 371.156C134.575 371.156 133.71 370.97 132.912 370.611C132.114 370.252 131.401 369.728 130.82 369.073C130.239 368.418 129.804 367.647 129.543 366.812C129.282 365.976 129.201 365.095 129.305 364.226C129.486 362.723 130.211 361.338 131.343 360.333C132.476 359.328 133.937 358.773 135.451 358.773C136.964 358.773 138.425 359.328 139.558 360.333C140.69 361.338 141.415 362.723 141.596 364.226ZM364.24 370.594C365.905 370.594 367.502 369.932 368.679 368.755C369.856 367.577 370.518 365.98 370.518 364.314C370.518 362.649 369.856 361.052 368.679 359.874C367.502 358.696 365.905 358.035 364.24 358.035C362.575 358.035 360.978 358.696 359.801 359.874C358.624 361.052 357.962 362.649 357.962 364.314C357.962 365.98 358.624 367.577 359.801 368.755C360.978 369.932 362.575 370.594 364.24 370.594ZM205.966 382.003C205.966 384.888 204.82 387.655 202.781 389.696C200.741 391.736 197.975 392.882 195.091 392.882C192.206 392.882 189.44 391.736 187.4 389.696C185.361 387.655 184.215 384.888 184.215 382.003C184.215 379.118 185.361 376.351 187.4 374.311C189.44 372.271 192.206 371.125 195.091 371.125C197.975 371.125 200.741 372.271 202.781 374.311C204.82 376.351 205.966 379.118 205.966 382.003ZM304.556 392.97C307.428 392.97 310.184 391.829 312.215 389.797C314.246 387.765 315.387 385.009 315.387 382.136C315.387 379.262 314.246 376.507 312.215 374.475C310.184 372.443 307.428 371.301 304.556 371.301C301.683 371.301 298.928 372.443 296.897 374.475C294.865 376.507 293.724 379.262 293.724 382.136C293.724 385.009 294.865 387.765 296.897 389.797C298.928 391.829 301.683 392.97 304.556 392.97ZM241.954 391.732C242.09 393.237 241.911 394.754 241.428 396.186C240.946 397.618 240.17 398.934 239.151 400.05C238.132 401.165 236.892 402.056 235.51 402.666C234.127 403.276 232.633 403.591 231.122 403.591C229.611 403.591 228.117 403.276 226.735 402.666C225.352 402.056 224.112 401.165 223.093 400.05C222.074 398.934 221.298 397.618 220.816 396.186C220.333 394.754 220.154 393.237 220.291 391.732C220.535 389.028 221.782 386.512 223.786 384.681C225.791 382.849 228.407 381.833 231.122 381.833C233.837 381.833 236.454 382.849 238.458 384.681C240.462 386.512 241.709 389.028 241.954 391.732ZM268.48 402.611C269.985 402.747 271.501 402.568 272.933 402.085C274.365 401.603 275.68 400.827 276.795 399.808C277.911 398.788 278.802 397.548 279.411 396.165C280.021 394.782 280.335 393.287 280.335 391.776C280.335 390.265 280.021 388.77 279.411 387.388C278.802 386.005 277.911 384.764 276.795 383.745C275.68 382.726 274.365 381.95 272.933 381.467C271.501 380.985 269.985 380.806 268.48 380.942C265.776 381.186 263.262 382.434 261.43 384.439C259.599 386.443 258.584 389.061 258.584 391.776C258.584 394.492 259.599 397.109 261.43 399.114C263.262 401.119 265.776 402.366 268.48 402.611ZM337.006 389.963C337.006 391.617 336.35 393.203 335.181 394.372C334.011 395.542 332.426 396.198 330.773 396.198C329.119 396.198 327.534 395.542 326.365 394.372C325.196 393.203 324.539 391.617 324.539 389.963C324.539 388.309 325.196 386.723 326.365 385.554C327.534 384.385 329.119 383.728 330.773 383.728C332.426 383.728 334.011 384.385 335.181 385.554C336.35 386.723 337.006 388.309 337.006 389.963ZM169.006 396.154C170.648 396.154 172.222 395.502 173.383 394.341C174.544 393.18 175.196 391.605 175.196 389.963C175.196 388.321 174.544 386.746 173.383 385.585C172.222 384.424 170.648 383.772 169.006 383.772C167.365 383.772 165.79 384.424 164.63 385.585C163.469 386.746 162.817 388.321 162.817 389.963C162.817 391.605 163.469 393.18 164.63 394.341C165.79 395.502 167.365 396.154 169.006 396.154ZM214.189 406.148C214.189 407.79 213.537 409.365 212.377 410.526C211.216 411.687 209.642 412.34 208 412.34C206.358 412.34 204.784 411.687 203.623 410.526C202.463 409.365 201.811 407.79 201.811 406.148C201.811 404.507 202.463 402.932 203.623 401.771C204.784 400.61 206.358 399.957 208 399.957C209.642 399.957 211.216 400.61 212.377 401.771C213.537 402.932 214.189 404.507 214.189 406.148ZM291.735 412.34C292.548 412.34 293.352 412.179 294.103 411.868C294.854 411.557 295.537 411.101 296.111 410.526C296.686 409.951 297.142 409.269 297.453 408.518C297.764 407.767 297.924 406.962 297.924 406.148C297.924 405.335 297.764 404.53 297.453 403.779C297.142 403.028 296.686 402.346 296.111 401.771C295.537 401.196 294.854 400.74 294.103 400.429C293.352 400.117 292.548 399.957 291.735 399.957C290.093 399.957 288.519 400.61 287.358 401.771C286.197 402.932 285.545 404.507 285.545 406.148C285.545 407.79 286.197 409.365 287.358 410.526C288.519 411.687 290.093 412.34 291.735 412.34ZM256.189 411.72C256.189 413.386 255.528 414.983 254.351 416.161C253.173 417.338 251.577 418 249.912 418C248.247 418 246.65 417.338 245.472 416.161C244.295 414.983 243.634 413.386 243.634 411.72C243.634 410.055 244.295 408.458 245.472 407.28C246.65 406.103 248.247 405.441 249.912 405.441C251.577 405.441 253.173 406.103 254.351 407.28C255.528 408.458 256.189 410.055 256.189 411.72Z" fill="#27B7CA"/>
</svg>
