<svg width="500" height="500" viewBox="0 0 500 500" fill="none" xmlns="http://www.w3.org/2000/svg">
<rect width="500" height="500" fill="white"/>
<path d="M249.859 90C255.977 91.8823 260.024 96.3056 262.188 103.364C263.653 113.062 262.653 122.973 259.282 132.183C255.91 141.394 250.275 149.607 242.895 156.068C227.688 169.118 210.82 180.099 192.732 188.725C207.971 157.141 224.007 125.948 240.824 95.1762C241.766 93.6704 244.024 91.9764 247.789 90H249.859Z" fill="#00E600"/>
<path d="M262.187 103.367L307.832 190.328L107.559 239.267L192.731 188.728C213.436 178.376 230.188 167.553 242.894 156.165C250.288 149.695 255.933 141.466 259.305 132.238C262.677 123.01 263.668 113.08 262.187 103.367Z" fill="#06038D"/>
<path d="M307.926 190.325C336.537 207.171 364.771 223.641 392.628 239.828C399.687 244.063 403.546 250.745 396.393 257.333C393.758 259.78 391.123 261.098 388.676 261.663L191.037 309.755C161.58 292.438 132.687 275.591 104.359 259.216C99.3707 256.392 97.8649 251.875 99.8413 245.757C100.5 243.405 103.135 241.24 107.559 239.169L307.832 190.23L307.926 190.325Z" fill="#00E600"/>
<path d="M388.675 261.66C374.276 270.507 348.018 286.13 309.714 308.435C307.361 309.846 306.044 311.07 305.856 312.199C292.134 318.648 279.03 326.334 266.704 335.163C254.807 342.856 245.444 353.889 239.788 366.879C237.059 373.467 235.835 383.161 236.023 395.772L191.037 309.752L388.675 261.754V261.66Z" fill="#06038D"/>
<path d="M305.856 312.203C290.908 341.984 275.756 371.662 260.399 401.234C258.329 405.375 255.599 408.011 252.305 409.328C248.635 410.834 245.341 409.799 242.329 406.317C239.58 403.25 237.469 399.667 236.118 395.776C235.835 383.165 237.059 373.471 239.788 366.883C245.444 353.893 254.807 342.86 266.705 335.167C279.03 326.338 292.135 318.652 305.856 312.203Z" fill="#00E600"/>
</svg>
