<svg width="500" height="500" viewBox="0 0 500 500" fill="none" xmlns="http://www.w3.org/2000/svg">
<rect width="500" height="500" fill="white"/>
<path d="M180.805 208.531C159.961 193.538 127.597 159.894 113.975 144.992C110.958 246.654 162.246 282.035 188.21 287.063C155.572 266.036 144.876 223.433 143.688 204.783C151.001 216.028 158.498 223.433 195.707 249.58C225.419 270.607 237.762 313.21 240.23 331.86C251.384 287.063 243.887 268.322 236.573 257.077C229.076 245.923 206.769 227.181 180.805 208.531Z" fill="url(#paint0_linear_781_3529)"/>
<path d="M132.534 264.575C121.197 264.575 111.689 257.079 106.478 253.422C104.01 259.639 111.049 272.072 128.785 272.072C146.613 272.072 148.624 279.569 151.092 283.317C150.91 277.009 143.87 264.575 132.534 264.575Z" fill="url(#paint1_linear_781_3529)"/>
<path d="M351.675 130C265.554 130 221.672 189.79 210.518 219.686C225.42 197.927 266.012 167.94 286.033 167.94C270.948 180.557 259.703 204.51 261.44 234.405C267.84 342.832 236.573 348.318 203.113 348.318C169.652 348.318 147.345 331.861 143.688 313.211C140.671 298.218 157.31 294.47 165.904 294.47C124.306 279.568 108.947 300.686 106.479 313.211C103.553 367.059 172.577 378.03 206.038 376.75C321.231 373.093 294.261 278.928 298.01 215.48C301.026 164.558 335.584 138.685 351.675 130Z" fill="url(#paint2_linear_781_3529)"/>
<path d="M425.999 212.277C351.672 200.3 315.743 237.144 307.149 257.074C324.977 242.172 356.609 233.395 370.231 230.927C351.405 246.709 337.717 267.75 330.919 291.357C322.051 324.269 282.374 363.033 262.535 376.746C286.031 373.089 336.862 356.999 351.672 315.127C366.574 273.256 407.44 228.458 425.999 212.277Z" fill="url(#paint3_linear_781_3529)"/>
<defs>
<linearGradient id="paint0_linear_781_3529" x1="266.011" y1="129.999" x2="266.011" y2="376.84" gradientUnits="userSpaceOnUse">
<stop stop-color="#93C41B"/>
<stop offset="1" stop-color="#088F3E"/>
</linearGradient>
<linearGradient id="paint1_linear_781_3529" x1="266.011" y1="130.001" x2="266.011" y2="376.843" gradientUnits="userSpaceOnUse">
<stop stop-color="#93C41B"/>
<stop offset="1" stop-color="#088F3E"/>
</linearGradient>
<linearGradient id="paint2_linear_781_3529" x1="266.012" y1="130" x2="266.012" y2="376.842" gradientUnits="userSpaceOnUse">
<stop stop-color="#93C41B"/>
<stop offset="1" stop-color="#088F3E"/>
</linearGradient>
<linearGradient id="paint3_linear_781_3529" x1="266.009" y1="129.996" x2="266.009" y2="376.838" gradientUnits="userSpaceOnUse">
<stop stop-color="#93C41B"/>
<stop offset="1" stop-color="#088F3E"/>
</linearGradient>
</defs>
</svg>
