<svg width="500" height="500" viewBox="0 0 500 500" fill="none" xmlns="http://www.w3.org/2000/svg">
<rect width="500" height="500" fill="#0A4D93"/>
<path d="M116.071 178.57C71.7139 178.57 35.7139 210.49 35.7139 249.945C35.7139 289.392 71.7139 321.427 116.071 321.427C160.428 321.427 196.428 289.392 196.428 249.945C196.428 210.49 160.428 178.57 116.071 178.57Z" fill="white"/>
<path d="M125.849 277.358C126.313 276.912 125.733 276.823 127.009 276.787H142.858V258.93L113.331 258.956L93.1611 303.573H113.313L125.84 277.358H125.849Z" fill="#0A4D93"/>
<path d="M146.196 205.874C143.884 205.927 141.303 206.767 138.598 208.588C131.821 213.16 121.919 232.981 120.026 241.07C122.16 241.07 138.866 240.936 139.491 241.07L146.535 227.624L178.178 296.954C178.223 296.919 178.241 296.874 178.294 296.847C178.723 296.579 179.223 296.338 179.634 296.044C179.678 295.999 179.705 295.99 179.75 295.936C182.384 292.597 187.964 284.079 189.366 282.231C190.812 280.303 190.33 280.061 189.25 277.927C188.517 276.466 187.808 274.993 187.125 273.508C185.717 270.462 184.339 267.402 182.991 264.329C177.669 252.267 172.544 239.749 166.66 227.963C162.553 219.731 156.214 205.642 146.196 205.874Z" fill="#0A4D93"/>
<path d="M223.215 294.614C223.482 292.472 223.215 280.704 223.215 276.9C223.215 269.686 223.92 258.909 232.161 258.927C240.42 258.954 241.081 269.704 241.072 276.9V294.641H258.929C259.188 292.088 258.929 280.972 258.929 276.9C258.929 269.48 259.777 259.248 267.857 258.927C276.366 258.588 276.786 269.704 276.786 276.9V294.641H294.625V269.954C294.625 262.257 295.206 254.436 291.652 248.355C288.732 243.355 282.598 240.132 274.152 241.07C268.081 241.748 262.634 245.257 258.929 249.998C253.902 245.302 249.509 241.4 242.161 241.07C229.5 240.498 225.054 248.222 223.215 249.284V241.07H205.375L205.357 294.641L223.215 294.614ZM321.429 272.302L323.527 274.48L338.866 290.32C339.911 291.543 342.348 294.498 343.018 294.641H366.072C365.786 293.927 354.331 281.498 352.795 279.748C350.563 277.213 348.268 274.811 346.054 272.293C344.786 270.864 339.92 265.98 339.366 264.748C340.223 264.195 366.072 241.07 366.072 241.07H343.036C341.679 241.07 340.84 242.052 338.527 244.507C337.447 245.668 322.313 258.355 321.473 258.927C321.277 258.829 321.393 209.98 321.393 205.355H303.59L303.572 294.641L321.429 294.498V272.302C321.429 272.257 321.402 272.284 321.429 272.302Z" fill="white"/>
<path d="M383.929 267.859C383.929 255.198 401.089 255.537 401.786 267.341C402.482 279.144 383.929 280.519 383.929 267.859ZM391.036 241.144C355.634 243.376 358.804 296.894 394.723 294.573C430.063 292.287 426.893 238.885 391.036 241.144ZM446.429 250.001V241.073H428.571V294.644H446.429V265.716C446.429 257.859 456.446 255.126 464.286 258.93V241.073C458.804 240.144 452.241 242.242 448.482 246.376C447.813 247.1 446.446 250.001 446.429 250.001Z" fill="white"/>
</svg>
