<svg width="500" height="500" viewBox="0 0 500 500" fill="none" xmlns="http://www.w3.org/2000/svg">
<g clip-path="url(#clip0_40_1041)">
<rect width="500" height="500" fill="#F9FBFB"/>
<path d="M0 0H500V500H0V0Z" fill="url(#paint0_linear_40_1041)"/>
<path d="M355.391 290.546C347.669 280.871 341.729 273.977 341.729 255.374V193.633C341.729 167.587 339.947 143.206 320.669 125.359C305.216 111.202 279.791 106 259.721 106C217.276 106 179.35 123.154 170.098 169.288C169.315 174.517 173.167 176.731 176.272 177.478L216.502 181.168C220.354 181.168 222.676 177.451 223.459 173.725C226.528 158.092 240.478 144.943 255.914 144.943C264.41 144.943 281.159 153.457 281.159 171.313V193.633C256.436 193.633 228.85 195.299 207.241 204.218C181.771 214.658 160 234.656 160 266.66C160 307.583 191.68 329.948 225.628 329.948C254.195 329.948 269.756 322.55 292.121 300.959C299.078 311.399 303.38 318.779 316.493 329.939C319.598 331.46 323.45 331.46 325.745 329.219C333.458 322.505 346.913 308.402 355.382 301.715C359.243 298.718 358.487 294.272 355.382 290.555L355.391 290.546ZM281.159 232.586C281.159 247.463 278.225 284.588 240.424 284.588C220.993 284.588 220.579 261.791 220.579 261.791C220.579 232.577 251.828 222.839 281.15 222.839V232.577L281.159 232.586Z" fill="white"/>
<path d="M368.739 359.252C336.789 380.808 288.927 394.002 250.154 394.002C194.66 394.002 145.259 373.86 107.252 342.575C104.228 339.785 107.252 337.013 110.312 338.399C151.352 359.954 197.72 372.447 249.38 372.447C284.355 372.447 328.446 365.489 364.167 351.593C369.477 350.207 374.049 355.778 368.739 359.252ZM380.142 344.645C376.335 339.785 353.538 342.575 343.647 343.259C340.587 343.259 339.849 341.162 342.873 339.101C360.36 327.266 389.997 330.731 393.048 334.916C396.081 339.101 392.283 366.2 375.57 378.72C373.275 380.808 370.251 379.395 371.763 377.334C375.561 368.963 383.94 349.523 380.133 344.636L380.142 344.645Z" fill="#FFB300"/>
</g>
<defs>
<linearGradient id="paint0_linear_40_1041" x1="500" y1="0" x2="500" y2="500" gradientUnits="userSpaceOnUse">
<stop stop-color="#1A1E21"/>
<stop offset="1" stop-color="#141516"/>
</linearGradient>
<clipPath id="clip0_40_1041">
<rect width="500" height="500" fill="white"/>
</clipPath>
</defs>
</svg>
