<svg width="500" height="500" viewBox="0 0 500 500" fill="none" xmlns="http://www.w3.org/2000/svg">
<rect width="500" height="500" fill="#CC092F"/>
<path d="M392.73 322.38C366.31 374.38 312.32 410 250 410C187.68 410 133.69 374.37 107.27 322.38C111.19 320.45 115.29 318.57 119.47 317.33C125.621 315.408 132.219 315.457 138.34 317.47C143.8 319.3 148.73 322.42 153.58 325.49L155.09 326.45H155.11C165.18 332.81 176.61 340 191.13 340C212.67 340 227.79 327.1 232.62 304.62C238.58 276.448 244.373 248.241 250 220C250 220 263.65 287.2 267.38 304.62C272.21 327.11 287.34 340 308.88 340C323.41 340 334.82 332.8 344.9 326.46L344.92 326.45L346.42 325.49C351.28 322.42 356.2 319.3 361.67 317.46C367.87 315.38 374.28 315.48 380.53 317.33C384.71 318.57 388.81 320.46 392.73 322.38ZM402.26 299.3C398.558 297.502 394.796 295.831 390.98 294.29C372.68 286.98 355.92 289.43 339.13 299.63C339.13 299.63 333.01 303.38 331.18 304.53L331.06 304.61C323.28 309.5 315.94 314.11 308.88 314.11C302.11 314.11 295.45 312.3 292.63 299.17C288.23 278.69 277.51 228.37 272.83 203.44C270.08 188.79 268.57 180.89 267.01 175.53C264.25 166.1 259.21 160.98 252.04 160.16C252.04 160.16 250.91 160 250 160C249.1 160 247.85 160.18 247.85 160.18C240.75 161.03 235.74 166.16 233 175.53C231.43 180.9 229.92 188.79 227.18 203.43C222.5 228.36 211.78 278.69 207.38 299.17C204.56 312.3 197.9 314.12 191.13 314.12C184.07 314.12 176.73 309.5 168.94 304.61L168.83 304.53C167 303.38 160.87 299.63 160.87 299.63C144.08 289.43 127.32 286.98 109.03 294.29C105.17 295.83 101.37 297.56 97.7401 299.3C92.5955 283.373 89.9837 266.737 90.0001 250C90.0001 161.63 161.63 90 250 90C338.37 90 410 161.63 410 250C410 267.2 407.28 283.77 402.26 299.3Z" fill="white"/>
</svg>
