<svg width="500" height="500" viewBox="0 0 500 500" fill="none" xmlns="http://www.w3.org/2000/svg">
<rect width="500" height="500" fill="#06060A"/>
<path d="M105.638 275.93C99.8734 275.93 96 273.113 96 266.313V225.93H104.294V264.263C104.294 266.321 105.024 267.696 107.944 267.696C108.69 267.696 108.881 267.63 109.362 267.63V275.455C107.67 275.788 107.338 275.93 105.638 275.93ZM129.176 249.246C123.487 249.246 120.882 254.163 120.882 259.246C120.882 264.346 123.478 269.271 129.176 269.271C134.858 269.271 137.471 264.346 137.471 259.255C137.471 254.171 134.85 249.246 129.176 249.246ZM129.176 275.93C119.456 275.93 112.588 268.905 112.588 259.255C112.588 249.613 119.472 242.588 129.176 242.588C138.881 242.588 145.765 249.613 145.765 259.255C145.765 268.905 138.889 275.93 129.176 275.93ZM165.571 249.246C159.881 249.246 157.277 254.163 157.277 259.246C157.277 264.346 159.873 269.271 165.571 269.271C171.261 269.271 173.865 264.346 173.865 259.255C173.865 254.171 171.253 249.246 165.571 249.246ZM165.571 275.93C155.85 275.93 148.983 268.905 148.983 259.255C148.983 249.613 155.867 242.588 165.571 242.588C175.275 242.588 182.159 249.613 182.159 259.255C182.159 268.905 175.283 275.93 165.571 275.93ZM228.706 275.93V255.73C228.706 251.721 227.478 249.405 223.232 249.405C218.438 249.405 216.265 254.096 216.265 258.155V275.93H207.971V255.73C207.971 251.721 206.818 249.405 202.563 249.405C197.769 249.405 195.529 254.096 195.529 258.155V275.93H187.235V242.596H195.529V247.905C197.479 244.905 200.265 242.596 204.935 242.596C209.862 242.596 213.229 244.596 214.987 247.905C217.086 244.53 220.86 242.596 225.604 242.596C233.085 242.596 237 247.213 237 253.98V275.93H228.706Z" fill="white"/>
<path d="M260.695 248.164C256.679 248.164 252.414 251.205 252.248 255.526H268.811C268.67 250.981 265.167 248.164 260.695 248.164ZM277.034 261.069H252.248C252.099 265.531 256.637 269.212 260.836 269.212C263.867 269.212 267.875 268.198 268.811 265.024H276.214C275.991 266.91 274.533 269.42 273.15 270.865C270.086 274.04 265.565 275.311 260.977 275.311C256.024 275.311 252.414 273.79 249.565 271.422C245.954 268.381 244 263.919 244 258.75C244 253.698 245.739 249.195 249.217 246.087C251.925 243.652 255.826 242.073 260.761 242.073C266.119 242.073 270.989 243.96 273.978 247.915C276.628 251.388 277.241 254.978 277.117 258.933C277.117 258.933 277.034 260.396 277.034 261.069ZM335.194 248.181C331.169 248.181 326.913 251.23 326.747 255.543H343.31C343.161 250.998 339.658 248.181 335.194 248.181ZM351.525 261.085H326.747C326.598 265.547 331.136 269.228 335.326 269.228C338.357 269.228 342.366 268.215 343.31 265.041H350.705C350.481 266.927 349.032 269.436 347.641 270.882C344.577 274.056 340.063 275.328 335.467 275.328C330.523 275.328 326.913 273.815 324.064 271.439C320.445 268.398 318.499 263.935 318.499 258.767C318.499 253.715 320.238 249.211 323.716 246.104C326.424 243.669 330.325 242.09 335.26 242.09C340.61 242.09 345.479 243.976 348.477 247.932C351.127 251.405 351.74 254.995 351.608 258.95C351.608 258.95 351.525 260.412 351.525 261.085ZM304.222 275.328V255.435C304.222 251.646 302.748 249.336 298.268 249.336C295.286 249.336 293.324 251.081 292.181 253.449C290.955 256 290.773 259.365 290.773 262.124V275.328H282.492V242.09H290.773V247.159C292.868 243.727 296.57 242.107 300.636 242.107C308.155 242.107 312.503 246.968 312.503 253.698V275.328H304.222ZM373.578 250.109C367.615 250.109 364.046 253.491 364.046 258.792V275.311H355.765V242.073H364.046V247.574C365.669 243.794 369.719 242.073 373.859 242.073C374.729 242.073 375.599 242.148 376.485 242.265V250.424C375.531 250.226 374.552 250.12 373.578 250.109ZM396.095 248.089C392.236 248.089 389.867 250.724 389.867 254.321C389.867 257.919 392.236 260.944 396.095 260.944C399.962 260.944 402.331 257.919 402.331 254.321C402.331 250.724 399.962 248.089 396.095 248.089ZM397.66 276.823H391.018C390.104 277.048 389.291 277.577 388.714 278.324C388.137 279.071 387.828 279.991 387.838 280.936C387.838 285.174 393.387 285.556 396.716 285.556C400.095 285.556 406.057 285.365 406.057 280.936C406.057 276.823 400.84 276.823 397.66 276.823ZM397.047 291.93C392.774 291.93 388.244 291.597 384.584 289.163C381.884 287.359 380.311 284.983 380.311 281.842C380.311 278.934 381.81 276.308 384.509 275.028C383.467 274.474 382.592 273.65 381.975 272.642C381.357 271.634 381.02 270.478 380.998 269.295C380.998 266.47 382.348 264.218 385.197 262.548C384.068 261.501 383.172 260.227 382.565 258.81C381.959 257.393 381.656 255.864 381.677 254.321C381.677 246.361 388.178 242.057 396.095 242.057C399.01 242.057 401.784 242.838 404.095 244.101C405.577 241.209 408.285 239.93 411.274 239.93C411.813 239.93 413.03 239.93 413.568 240.063V246.295C413.361 246.295 413.105 246.212 412.889 246.212C410.927 246.212 409.163 246.743 408.624 248.364C409.784 250.142 410.446 252.136 410.446 254.388C410.446 262.033 404.095 266.977 396.095 266.977C393.503 266.977 391.333 266.445 389.577 265.871C388.766 266.312 388.65 266.918 388.65 268.007C388.65 270.001 390.753 270.458 392.509 270.458H398.331C401.859 270.458 406.463 270.516 409.784 272.71C412.823 274.704 414.049 277.521 414.049 280.745C414.049 289.553 404.898 291.93 397.047 291.93ZM436.69 283.155C435.075 287.742 432.384 291.93 426.694 291.93C424.663 291.935 422.642 291.635 420.699 291.041V283.62C422.761 284.036 423.324 284.351 425.063 284.351C425.891 284.397 426.71 284.164 427.39 283.688C428.07 283.212 428.571 282.521 428.814 281.726L430.694 277.097L417.875 242.073H426.156L434.437 267.002L442.719 242.073H451L436.69 283.155Z" fill="#66B360"/>
<path d="M71.5413 267.596C67.2925 267.596 63.6213 265.846 63.25 261.163V253.846H70.6997C75.229 253.846 79.75 256.13 79.75 261.121C79.75 265.68 75.856 267.596 71.5413 267.596ZM71.5413 234.263C75.3693 234.263 78.166 236.396 78.166 239.846C78.166 244.371 75.4435 246.296 70.6997 246.296H68.6867V246.28H63.25V234.263H71.5413ZM80.047 249.971C84.436 248.438 87.0265 244.021 87.0265 239.646C87.0265 231.33 80.3275 225.938 71.5413 225.938L55 225.93V261.155C55.3052 270.138 62.5487 275.93 71.467 275.93C80.608 275.93 88 270.888 88 261.263C88 256.271 85.0712 251.355 80.047 249.971Z" fill="white"/>
</svg>
