<svg width="500" height="500" viewBox="0 0 500 500" fill="none" xmlns="http://www.w3.org/2000/svg">
<rect width="500" height="500" fill="white"/>
<path d="M139.844 279.35C134.024 281.919 127.341 283.214 119.753 283.214C112.834 283.214 106.453 282.113 100.611 279.911C94.7473 277.709 89.6814 274.579 85.3701 270.542C81.0802 266.505 77.6958 261.67 75.2599 256.036C72.824 250.401 71.5952 244.206 71.5952 237.427C71.5952 230.498 72.8455 224.216 75.3246 218.582C77.8036 212.947 81.2527 208.155 85.6287 204.204C90.0048 200.254 95.1569 197.21 101.042 195.073C106.949 192.957 113.308 191.878 120.12 191.878C126.436 191.878 132.644 192.957 138.766 195.116C144.867 197.275 149.825 200.448 153.619 204.615L138.96 218.819C136.934 216.121 134.283 214.135 131.006 212.818C127.729 211.522 124.345 210.853 120.896 210.853C117.102 210.853 113.631 211.522 110.462 212.882C107.293 214.221 104.577 216.077 102.314 218.452C100.05 220.827 98.2611 223.611 97.0108 226.849C95.7389 230.066 95.1138 233.606 95.1138 237.449C95.1138 241.356 95.7389 244.961 97.0108 248.221C98.2826 251.481 100.029 254.287 102.249 256.618C104.469 258.95 107.164 260.763 110.268 262.058C113.394 263.375 116.8 264.023 120.508 264.023C124.798 264.023 128.549 263.203 131.76 261.583C134.972 259.943 137.538 257.827 139.478 255.215L154.525 268.923C150.537 273.305 145.665 276.781 139.844 279.35Z" fill="#41669B"/>
<path d="M166.898 280.882V194.209H227.042V211.846H187.744V228.253H224.908V245.026H187.744V263.008H229.327V280.882H166.898Z" fill="#87B049"/>
<path d="M310.834 279.35C305.013 281.919 298.331 283.214 290.743 283.214C283.844 283.214 277.442 282.113 271.6 279.911C265.737 277.709 260.671 274.579 256.359 270.542C252.07 266.505 248.685 261.67 246.249 256.036C243.813 250.401 242.584 244.206 242.584 237.427C242.584 230.498 243.835 224.216 246.314 218.582C248.793 212.947 252.242 208.155 256.618 204.204C260.994 200.254 266.146 197.21 272.031 195.073C277.938 192.957 284.297 191.878 291.109 191.878C297.425 191.878 303.634 192.957 309.756 195.116C315.856 197.275 320.814 200.448 324.608 204.615L309.95 218.819C307.923 216.121 305.272 214.135 301.995 212.818C298.719 211.522 295.334 210.853 291.885 210.853C288.091 210.853 284.62 211.522 281.452 212.882C278.283 214.221 275.567 216.077 273.303 218.452C271.04 220.827 269.25 223.611 268 226.849C266.728 230.066 266.103 233.606 266.103 237.449C266.103 241.356 266.728 244.961 268 248.221C269.272 251.481 271.018 254.287 273.238 256.618C275.48 258.95 278.153 260.763 281.258 262.058C284.383 263.375 287.789 264.023 291.497 264.023C295.787 264.023 299.538 263.203 302.75 261.583C305.94 259.943 308.527 257.827 310.467 255.215L325.514 268.923C321.547 273.305 316.654 276.781 310.834 279.35Z" fill="#41669B"/>
<path d="M406.503 237.19C406.503 233.434 405.878 229.936 404.606 226.655C403.334 223.396 401.588 220.589 399.368 218.258C397.126 215.926 394.431 214.091 391.284 212.753C388.136 211.415 384.644 210.724 380.85 210.724C377.056 210.724 373.607 211.393 370.481 212.753C367.356 214.091 364.661 215.948 362.397 218.258C360.112 220.589 358.366 223.374 357.159 226.655C355.93 229.915 355.327 233.434 355.327 237.19C355.327 241.119 355.952 244.724 357.224 248.027C358.496 251.329 360.242 254.179 362.462 256.532C364.704 258.907 367.377 260.763 370.481 262.102C373.607 263.44 377.056 264.109 380.85 264.109C384.644 264.109 388.093 263.44 391.219 262.102C394.345 260.763 397.039 258.907 399.303 256.532C401.588 254.157 403.356 251.329 404.606 248.027C405.878 244.702 406.503 241.097 406.503 237.19ZM429.633 237.19C429.633 244.055 428.405 250.315 425.969 255.992C423.533 261.67 420.127 266.527 415.794 270.564C411.461 274.601 406.287 277.731 400.316 279.933C394.345 282.135 387.835 283.236 380.85 283.236C373.866 283.236 367.399 282.135 361.449 279.933C355.499 277.731 350.369 274.601 346.036 270.564C341.703 266.527 338.297 261.67 335.861 255.992C333.425 250.315 332.196 244.055 332.196 237.19C332.196 230.26 333.425 224 335.861 218.409C338.297 212.818 341.703 208.069 346.036 204.14C350.369 200.211 355.521 197.21 361.449 195.073C367.399 192.957 373.866 191.9 380.85 191.9C387.835 191.9 394.323 192.957 400.316 195.073C406.309 197.189 411.461 200.211 415.794 204.14C420.127 208.069 423.533 212.818 425.969 218.409C428.426 223.978 429.633 230.239 429.633 237.19Z" fill="#41669B"/>
<path d="M79.0969 324.359V300.7H95.5233V305.514H84.7879V310.004H94.9412V314.58H84.7879V319.481H96.1484V324.359H79.0969Z" fill="#87B049"/>
<path d="M119.257 324.359L109.427 308.903H109.32L109.47 324.359H103.736V300.7H110.462L120.249 316.156H120.357L120.227 300.7H125.961V324.359H119.257Z" fill="#87B049"/>
<path d="M146.786 324.359H140.879L131.653 300.7H138.271L143.919 317.473H144.07L149.696 300.7H156.206L146.786 324.359Z" fill="#87B049"/>
<path d="M167.825 300.7H161.897V324.359H167.825V300.7Z" fill="#87B049"/>
<path d="M189.403 307.953C189.403 307.392 189.274 306.938 189.037 306.593C188.8 306.248 188.477 305.989 188.11 305.794C187.722 305.6 187.291 305.471 186.817 305.406C186.342 305.341 185.89 305.298 185.437 305.298H182.29V310.803H185.092C185.588 310.803 186.084 310.759 186.58 310.695C187.097 310.608 187.55 310.479 187.959 310.284C188.369 310.09 188.714 309.788 188.972 309.421C189.274 309.054 189.403 308.557 189.403 307.953ZM189.641 324.359L184.338 314.969H182.333V324.359H176.577V300.7H185.89C187.054 300.7 188.196 300.808 189.317 301.045C190.438 301.283 191.43 301.671 192.314 302.232C193.198 302.794 193.909 303.528 194.426 304.434C194.944 305.341 195.224 306.485 195.224 307.845C195.224 309.443 194.771 310.803 193.887 311.882C192.982 312.983 191.753 313.76 190.158 314.213L196.539 324.338H189.641V324.359Z" fill="#87B049"/>
<path d="M222.278 312.443C222.278 311.429 222.105 310.457 221.76 309.572C221.415 308.687 220.941 307.91 220.338 307.284C219.734 306.658 219.001 306.14 218.139 305.773C217.276 305.406 216.328 305.211 215.293 305.211C214.258 305.211 213.31 305.406 212.469 305.773C211.629 306.14 210.874 306.636 210.27 307.284C209.645 307.91 209.171 308.687 208.826 309.572C208.503 310.457 208.33 311.429 208.33 312.443C208.33 313.522 208.503 314.494 208.848 315.401C209.193 316.307 209.667 317.084 210.292 317.732C210.896 318.38 211.629 318.876 212.491 319.243C213.353 319.61 214.28 319.804 215.315 319.804C216.349 319.804 217.298 319.632 218.139 319.243C218.979 318.876 219.734 318.38 220.338 317.732C220.963 317.084 221.437 316.307 221.782 315.401C222.127 314.494 222.278 313.501 222.278 312.443ZM228.594 312.443C228.594 314.321 228.249 316.027 227.602 317.581C226.934 319.135 226.007 320.452 224.821 321.553C223.636 322.654 222.235 323.496 220.596 324.1C218.958 324.705 217.19 325.007 215.293 325.007C213.375 325.007 211.629 324.705 209.99 324.1C208.373 323.496 206.972 322.654 205.787 321.553C204.601 320.452 203.674 319.135 203.006 317.581C202.338 316.027 202.014 314.321 202.014 312.443C202.014 310.543 202.338 308.838 203.006 307.305C203.674 305.773 204.601 304.477 205.787 303.42C206.972 302.362 208.373 301.52 209.99 300.937C211.607 300.354 213.375 300.074 215.293 300.074C217.212 300.074 218.979 300.354 220.596 300.937C222.235 301.52 223.636 302.34 224.821 303.42C226.007 304.477 226.934 305.794 227.602 307.305C228.249 308.838 228.594 310.543 228.594 312.443Z" fill="#87B049"/>
<path d="M251.703 324.359L241.873 308.903H241.765L241.916 324.359H236.182V300.7H242.908L252.716 316.156H252.803L252.673 300.7H258.407V324.359H251.703Z" fill="#87B049"/>
<path d="M289.277 324.359L289.406 307.629H289.32L282.961 324.359H278.822L272.656 307.629H272.549L272.678 324.359H267.116V300.7H275.523L281.085 315.876H281.214L286.539 300.7H295.075V324.359H289.277Z" fill="#87B049"/>
<path d="M303.763 324.359V300.7H320.189V305.514H309.454V310.004H319.607V314.58H309.454V319.481H320.814V324.359H303.763Z" fill="#87B049"/>
<path d="M343.923 324.359L334.093 308.903H333.986L334.136 324.359H328.402V300.7H335.128L344.915 316.156H345.023L344.893 300.7H350.627V324.359H343.923Z" fill="#87B049"/>
<path d="M369.792 305.578V324.359H363.906V305.578H357.008V300.7H376.69V305.578H369.792Z" fill="#87B049"/>
<path d="M391.025 307.025L387.921 315.142H394.065L391.025 307.025ZM397.579 324.359L395.682 319.718H386.218L384.429 324.359H378.005L388.244 300.7H393.979L404.11 324.359H397.579Z" fill="#87B049"/>
<path d="M409.844 324.359V300.7H415.794V319.394H425.236V324.359H409.844Z" fill="#87B049"/>
</svg>
