<svg width="500" height="500" viewBox="0 0 500 500" fill="none" xmlns="http://www.w3.org/2000/svg">
<g clip-path="url(#clip0_40_996)">
<rect width="500" height="500" fill="white"/>
<path d="M406.88 227.14H250V284.56H340.44C327.22 321.81 291.78 346 250 346C237.393 346.001 224.909 343.519 213.261 338.695C201.613 333.871 191.029 326.8 182.115 317.885C173.2 308.97 166.129 298.387 161.305 286.739C156.481 275.091 153.999 262.607 154 250C154 196.97 196.97 154 250 154C273.499 153.982 296.178 162.639 313.69 178.31L358.94 133.06C330.38 106.44 292.16 90 250 90C161.63 90 90 161.63 90 250C90 338.37 161.63 410 250 410C338.37 410 410 338.37 410 250C410 241.35 408.91 237.3 406.88 227.14Z" fill="#FFC107"/>
<path d="M108.44 175.53L161.04 214.09C175.24 178.88 209.68 154 250 154C273.5 153.982 296.179 162.639 313.69 178.31L358.94 133.06C330.38 106.44 292.16 90 250 90C188.53 90 135.25 124.69 108.44 175.53Z" fill="#FF3D00"/>
<path d="M250 410C291.31 410 328.88 394.19 357.28 368.47L307.75 326.57C291.144 339.188 270.857 346.014 250 346C208.37 346 173.06 319.47 159.751 282.44L107.561 322.63C134.031 374.43 187.81 410 250 410Z" fill="#4CAF50"/>
<path d="M406.88 227.14H250V284.56H340.44C334.09 302.46 322.56 315.31 307.72 326.56H307.75L357.28 368.46C353.78 371.64 410 330 410 250C410 239.28 408.91 237.3 406.88 227.14Z" fill="#4285F4"/>
</g>
<defs>
<clipPath id="clip0_40_996">
<rect width="500" height="500" fill="white"/>
</clipPath>
</defs>
</svg>
