<svg width="500" height="500" viewBox="0 0 500 500" fill="none" xmlns="http://www.w3.org/2000/svg">
<g clip-path="url(#clip0_40_998)">
<rect width="500" height="500" fill="#F9FBFB"/>
<mask id="mask0_40_998" style="mask-type:luminance" maskUnits="userSpaceOnUse" x="89" y="142" width="322" height="216">
<path d="M89.2861 142.857H410.715V357.143H89.2861V142.857Z" fill="white"/>
</mask>
<g mask="url(#mask0_40_998)">
<path fill-rule="evenodd" clip-rule="evenodd" d="M254.429 187.964C254.399 188 254.369 188.035 254.34 188.071C228.724 155.33 207.295 142.857 181.652 142.857C129.358 142.857 89.2861 211.125 89.2861 283.411C89.2861 328.625 111.09 357.143 147.616 357.143C173.911 357.143 192.813 344.714 226.429 285.768C226.429 285.768 240.366 261.08 250 243.982V243.303L254.429 187.964ZM148.929 322.25C164.099 322.25 173.536 312.661 200.795 269.803C200.795 269.803 213.179 250.071 233.616 218.562C212.099 187.625 198.018 177.875 181.188 177.875C150.108 177.875 124.027 231.536 124.027 283.982C124.027 308.5 133.313 322.259 148.938 322.259L148.929 322.25Z" fill="url(#paint0_linear_40_998)"/>
<path fill-rule="evenodd" clip-rule="evenodd" d="M250.134 243.946L254.464 191.964L254.143 187.812L254.348 188.071C273.009 162.768 293.607 142.857 319.964 142.857C369.723 142.857 410.696 206.411 410.714 282.08C410.714 328.241 390.911 357.143 355.33 357.143C324.321 357.143 307.205 339.661 276.518 288.125L260.75 261.527C257.257 255.634 253.715 249.771 250.125 243.937L250.134 243.946ZM284.804 232.875L303.643 264.393C333.116 311.973 340.527 322.25 356.054 322.277C372.25 322.277 380.071 308.375 380.071 284.437C380.071 221.625 352.384 170.5 317.759 170.5C301.098 170.5 287.089 183.616 270.107 209.911C275.158 217.467 280.058 225.123 284.804 232.875Z" fill="url(#paint1_linear_40_998)"/>
<path d="M254.348 188.071C273.009 162.768 293.607 142.857 319.964 142.857C369.723 142.857 410.697 206.411 410.714 282.08L380.063 284.437C380.063 221.625 352.384 170.5 317.759 170.5C301.098 170.5 287.089 183.616 270.107 209.911L250.072 243.848C242.196 257.824 234.315 271.798 226.429 285.768C192.813 344.714 173.911 357.143 147.616 357.143L148.938 322.259C164.107 322.259 173.545 312.661 200.804 269.803C200.804 269.803 213.188 250.071 233.625 218.562L254.348 188.071Z" fill="url(#paint2_linear_40_998)"/>
<path d="M284.804 232.875C243.947 166.214 216.733 142.857 181.644 142.857L181.197 177.875C204.179 177.875 221.992 196.044 260.733 261.509L263.108 265.491L284.804 232.875Z" fill="#0466E0"/>
</g>
</g>
<defs>
<linearGradient id="paint0_linear_40_998" x1="174.108" y1="160.714" x2="227.679" y2="272.321" gradientUnits="userSpaceOnUse">
<stop stop-color="#0064E0"/>
<stop offset="1" stop-color="#0082FB"/>
</linearGradient>
<linearGradient id="paint1_linear_40_998" x1="379.464" y1="285.714" x2="285.714" y2="250" gradientUnits="userSpaceOnUse">
<stop stop-color="#0181FA"/>
<stop offset="1" stop-color="#0967DF"/>
</linearGradient>
<linearGradient id="paint2_linear_40_998" x1="200.893" y1="258.928" x2="437.5" y2="267.857" gradientUnits="userSpaceOnUse">
<stop stop-color="#0082FB"/>
<stop offset="1" stop-color="#0180F9"/>
</linearGradient>
<clipPath id="clip0_40_998">
<rect width="500" height="500" fill="white"/>
</clipPath>
</defs>
</svg>
