<svg width="500" height="500" viewBox="0 0 500 500" fill="none" xmlns="http://www.w3.org/2000/svg">
<rect width="500" height="500" fill="#0F3F74"/>
<path d="M247.254 273.701C229.77 273.701 214.08 263.734 214.08 249.8C214.08 235.856 229.77 225.88 247.379 225.88C255.034 225.88 262.184 227.821 269.959 232.173L264.478 239.24C259.496 236.821 253.629 235.373 247.379 235.373C239.977 235.373 231.429 239.533 231.429 249.8C231.429 260.06 239.852 264.218 247.379 264.218C253.629 264.218 259.623 262.96 264.725 260.729L270.216 268.185C263.711 271.677 255.797 273.701 247.254 273.701Z" fill="white"/>
<path fill-rule="evenodd" clip-rule="evenodd" d="M313.824 249.618C313.824 235.676 329.522 225.7 347.13 225.7C364.733 225.7 380.431 235.676 380.431 249.618C380.431 263.552 364.733 273.521 347.13 273.521C329.522 273.521 313.824 263.552 313.824 249.618ZM347.13 235.191C339.723 235.191 331.181 239.348 331.181 249.618C331.181 259.878 339.723 264.035 347.13 264.035C354.534 264.035 363.081 259.878 363.081 249.618C363.081 239.348 354.534 235.191 347.13 235.191Z" fill="white"/>
<path d="M387.518 272.367H403.963V243.902C403.963 240.057 406.938 235.535 412.261 235.506C415.978 235.535 419.545 238.088 419.545 241.327L419.512 272.367H436V240.447C436 232.041 427.021 225.024 416.306 225.024C416.203 225.024 416.1 225.036 415.994 225.039C415.889 225.036 415.788 225.024 415.685 225.024C411.259 225.024 407.056 226.32 403.625 228.492C403.596 228.369 402.671 225.318 387.518 225.318V272.367Z" fill="white"/>
<path d="M190.062 272.367H206.172V226.868H190.062V272.367Z" fill="white"/>
<path d="M277.898 272.366H294.015V244.775C294.015 240.418 299.115 236.929 304.603 236.929C307.286 236.929 309.811 237.467 311.931 238.41V226.445C310.032 226.154 307.979 225.995 306.169 225.995C301.848 225.995 297.516 227.253 293.97 229.364C293.706 228.828 291.73 226.284 277.898 226.284V272.366Z" fill="white"/>
<path d="M159.327 254.232L159.322 272.369H175.82V239.251C171.042 244.2 165.53 249.24 159.327 254.232Z" fill="white"/>
<path d="M175.819 239.252C193.988 220.441 201.515 202.955 195.655 194.54C189.541 185.749 170.544 189.31 145.921 202.369C144.818 202.91 143.842 203.482 143.123 203.982C141.931 204.809 142.626 205.413 143.504 205.093C144.403 204.766 145.429 204.369 146.587 203.799C165.044 195.013 179.442 193.436 185.072 199.57C193.648 208.909 176.083 239.518 145.669 262.162C141.61 265.184 135.345 269.609 131.264 272.066C130.988 272.237 130.715 272.405 130.449 272.578C129.372 273.287 128.411 273.946 127.655 274.54C126.919 275.115 127.061 276.029 128.389 275.454C129.197 275.108 130.18 274.584 131.225 273.939C131.463 273.795 131.695 273.663 131.942 273.511C136.527 270.717 143.336 265.999 147.987 262.739C151.987 259.935 155.768 257.088 159.326 254.232C165.528 249.24 171.041 244.198 175.819 239.252Z" fill="white"/>
<path d="M94.8336 295.996H111.332V278.835C115.844 276.161 120.409 273.228 124.895 270.155C125.905 269.46 126.799 268.767 127.446 268.173C128.516 267.192 127.744 266.687 126.919 267.125C126.07 267.572 125.068 268.181 123.982 268.873C98.4972 285.233 81.2917 290.225 74.9355 281.567C69.4162 274.052 78.4625 259.522 94.8336 243.114V281.201C99.4802 279.619 104.968 277.094 111.329 273.545L111.327 238.206L114.955 245.956C118.932 254.516 126.152 259.633 135.33 259.633C144.505 259.633 151.722 254.516 155.7 245.956L159.33 238.206L159.328 247.223C165.231 241.476 170.271 235.739 174.092 230.189C174.569 229.504 174.526 228.927 174.267 228.292C171.723 222.964 166.31 219.292 160.018 219.292C153.794 219.292 148.39 222.916 145.8 228.155L138.897 242.851C138.183 244.285 136.869 245.078 135.33 245.078C133.795 245.078 132.474 244.285 131.76 242.851L124.857 228.155C123.543 225.491 121.498 223.247 118.99 221.685C124.039 217.662 128.945 214.069 133.778 211.126C134.877 210.458 135.778 209.787 136.536 209.205C137.281 208.633 137.145 207.719 135.814 208.279C135.004 208.621 133.956 209.138 132.908 209.777C127.969 212.781 122.924 215.851 118.098 219.16C117.513 219.559 116.935 219.963 116.355 220.364C114.581 219.672 112.655 219.292 110.639 219.292C101.895 219.292 94.8336 226.383 94.8336 235.159V237.343C71.5285 258.199 59.2933 278.852 65.6854 288.047C70.38 294.791 81.5099 293.233 94.8336 287.424V295.996Z" fill="white"/>
</svg>
