<svg width="500" height="500" viewBox="0 0 500 500" fill="none" xmlns="http://www.w3.org/2000/svg">
<rect width="500" height="500" fill="#006225"/>
<path d="M204.595 227.79V267.599L202.879 268.065C202.492 268.188 192.826 270.811 172.406 270.737C152.349 270.737 142.321 268.188 141.91 268.09L140.17 267.624V227.79H153.171C153.171 227.79 153.123 253.455 153.098 257.255C159.236 257.892 165.568 258.211 172.406 258.211C181.903 258.211 188.355 257.721 191.642 257.377V227.79H202.299H204.595Z" fill="white"/>
<path d="M219.601 231.906C220.012 231.808 230.041 229.259 249.953 229.259C269.865 229.259 279.942 231.808 280.377 231.906L282.117 232.372L282.19 241.957L282.214 245.094L279.338 244.359C279.241 244.334 268.56 241.687 249.953 241.687C241.35 241.687 235.019 242.153 230.814 242.618V258.944C234.149 259.287 240.504 259.753 249.953 259.753C269.068 259.753 279.169 257.13 279.266 257.106L282.117 256.346V269.191L280.329 269.632C279.918 269.73 269.624 272.206 250.001 272.206C230.283 272.132 220.012 269.657 219.577 269.558L217.789 269.117L217.862 232.372L219.601 231.906Z" fill="white"/>
<path fill-rule="evenodd" clip-rule="evenodd" d="M298.475 232.004C298.886 231.882 308.528 229.259 328.972 229.259C348.981 229.259 359.009 231.808 359.42 231.906L361.184 232.372V269.191L359.396 269.632C358.961 269.73 348.667 272.206 328.972 272.206C309.036 272.132 298.959 269.657 298.548 269.558L296.76 269.117V232.47L298.475 232.004ZM348.353 241.54C344.027 240.976 337.623 240.412 328.9 240.412C318.267 240.412 311.694 241.197 309.519 241.491L309.447 260.145C311.815 260.415 318.919 261.199 328.9 261.199C337.72 261.199 344.027 260.636 348.256 260.145L348.353 241.54Z" fill="white"/>
<path d="M113.756 229.531H128.038V271.522H113.78C113.78 271.522 113.756 260.222 113.756 258.31C111.388 256.422 105.202 251.936 93.6991 247.818C87.1987 245.489 80.0457 243.847 76.9043 243.283V272.209H64V229.703L66.2715 229.678C66.6823 229.678 76.4693 229.752 96.1398 235.341C104.114 237.621 109.31 239.827 113.756 242.278C113.756 237.939 113.756 231.934 113.756 231.934V229.531Z" fill="white"/>
<path fill-rule="evenodd" clip-rule="evenodd" d="M372.879 232.102C373.314 231.98 383.609 229.259 403.521 229.259C423.409 229.259 433.606 231.98 434.017 232.102L435.322 232.446V253.478L433.993 253.796C433.8 253.846 430.296 254.728 423.626 255.439C431.214 258.454 435.032 261.224 435.25 261.371L435.999 261.935L435.951 272.206H422.708C422.708 272.206 422.708 268.284 422.732 267.058C420.34 265.71 413.38 262.67 403.182 260.513C394.555 258.675 386.75 258.601 383.512 258.65V271.495H371.574V232.446L372.879 232.102ZM423.336 241.564C419.808 240.903 386.243 241.148 384.068 241.491V250.267C384.068 250.267 419.808 250.683 423.336 250.095V241.564Z" fill="white"/>
</svg>
