<svg width="500" height="500" viewBox="0 0 500 500" fill="none" xmlns="http://www.w3.org/2000/svg">
<rect width="500" height="500" fill="#76B900"/>
<path d="M99.6004 234.655C99.6004 234.655 133.567 190.504 200 185.894V167.55C126.418 172.904 62 231.6 62 231.6C62 231.6 98.7816 325.854 200 334.52V317.344C125.728 308.871 99.6004 234.636 99.6004 234.636V234.655ZM200 283.212V298.935C143.862 289.864 127.587 236.945 127.587 236.945C127.587 236.945 155.233 208.388 200 204V222.722C199.963 222.722 200.028 222.722 200 222.722C176.503 220.164 157.367 240.073 157.367 240.073C157.367 240.073 168.352 273.57 200 283.212ZM200 139.6V167.55C202.162 167.393 203.625 167.274 205.796 167.2C289.452 164.642 343.962 231.25 343.962 231.25C343.962 231.25 281.356 300.278 216.137 300.278C210.157 300.278 205.253 299.781 200 298.935V317.344C204.499 317.859 208.464 318.181 213.322 318.181C274.014 318.181 317.907 290.066 360.411 256.799C367.458 261.923 396.31 274.371 402.234 279.817C361.828 310.499 267.638 335.229 214.251 335.229C209.099 335.229 204.867 334.944 200 334.52V360.4H430V139.6H200ZM200 204V185.904C202.134 185.766 203.597 185.664 205.796 185.6C265.955 183.889 305.423 232.106 305.423 232.106C305.423 232.106 264.115 286.8 218.4 286.8C211.822 286.8 205.308 284.831 200 283.212V222.722C223.423 225.298 227.434 234.682 241.52 255.962L272.827 232.023C272.827 232.023 247.748 204 209.2 204C205.014 204 203.938 203.623 200 204Z" fill="white"/>
</svg>
