<svg width="500" height="500" viewBox="0 0 500 500" fill="none" xmlns="http://www.w3.org/2000/svg">
<rect width="500" height="500" fill="white"/>
<path d="M349.356 221.222H272.667C263.222 221.222 255.667 214.894 255.667 207.056C255.667 199.217 263.222 192.889 272.667 192.889H349.45C358.894 192.889 366.45 199.217 366.45 207.056C366.45 214.894 358.894 221.222 349.45 221.222H349.356ZM306.667 300.933V252.861C306.667 243.417 312.994 235.672 320.833 235.672C328.672 235.672 335 243.322 335 252.861V300.933C335 310.378 328.672 318.122 320.833 318.122C312.994 318.122 306.667 310.378 306.667 300.933ZM259.444 154.167V106.189C259.444 96.7444 265.772 89 273.611 89C281.45 89 287.778 96.65 287.778 106.189V154.261C287.778 163.706 281.45 171.45 273.611 171.45C265.772 171.45 259.444 163.611 259.444 154.167ZM259.444 391.694V315.194C259.444 305.75 265.772 298.1 273.611 298.1C281.45 298.1 287.778 305.656 287.778 315.289V391.694C287.778 401.139 281.45 408.883 273.611 408.883C265.772 408.883 259.444 401.139 259.444 391.694ZM212.222 213.478V165.406C212.222 155.961 218.55 148.217 226.389 148.217C234.228 148.217 240.556 155.867 240.556 165.406V213.478C240.556 222.922 234.228 230.667 226.389 230.667C218.55 230.667 212.222 222.922 212.222 213.478ZM212.222 344.944V320.106C212.222 310.661 218.55 302.917 226.389 302.917C234.228 302.917 240.556 310.567 240.556 320.106V344.944C240.556 354.389 234.228 362.133 226.389 362.133C218.55 362.133 212.222 354.389 212.222 344.85V344.944ZM367.111 230.667H403C412.444 230.667 420 236.994 420 244.833C420 252.672 412.444 259 403 259H367.111C357.761 259 350.111 252.672 350.111 244.833C350.111 236.994 357.667 230.667 367.111 230.667ZM97 230.667H132.889C142.239 230.667 149.889 236.994 149.889 244.833C149.889 252.672 142.333 259 132.889 259H97C87.5556 259 80 252.578 80 244.833C80 236.994 87.5556 230.667 97 230.667ZM165 300.933V252.861C165 243.417 171.328 235.672 179.167 235.672C187.006 235.672 193.333 243.322 193.333 252.861V300.933C193.333 310.378 187.006 318.122 179.167 318.122C171.328 318.122 165 310.378 165 300.933ZM254.722 287.333C260.984 287.333 266.99 284.846 271.418 280.418C275.846 275.99 278.333 269.984 278.333 263.722C278.333 257.46 275.846 251.455 271.418 247.027C266.99 242.599 260.984 240.111 254.722 240.111C248.46 240.111 242.455 242.599 238.027 247.027C233.599 251.455 231.111 257.46 231.111 263.722C231.111 269.984 233.599 275.99 238.027 280.418C242.455 284.846 248.46 287.333 254.722 287.333Z" fill="#E20177"/>
<path d="M396.389 221.222C398.249 221.222 400.092 220.856 401.81 220.144C403.529 219.432 405.091 218.388 406.406 217.073C407.722 215.757 408.765 214.195 409.477 212.477C410.189 210.758 410.556 208.916 410.556 207.055C410.556 205.195 410.189 203.353 409.477 201.634C408.765 199.915 407.722 198.353 406.406 197.038C405.091 195.723 403.529 194.679 401.81 193.967C400.092 193.255 398.249 192.889 396.389 192.889C392.632 192.889 389.028 194.381 386.372 197.038C383.715 199.695 382.222 203.298 382.222 207.055C382.222 210.813 383.715 214.416 386.372 217.073C389.028 219.729 392.632 221.222 396.389 221.222Z" fill="#009DDC"/>
<path d="M226.389 410.111C230.146 410.111 233.75 408.619 236.406 405.962C239.063 403.305 240.556 399.702 240.556 395.944C240.556 392.187 239.063 388.584 236.406 385.927C233.75 383.27 230.146 381.778 226.389 381.778C222.632 381.778 219.029 383.27 216.372 385.927C213.715 388.584 212.222 392.187 212.222 395.944C212.222 399.702 213.715 403.305 216.372 405.962C219.029 408.619 222.632 410.111 226.389 410.111Z" fill="#54B948"/>
<path d="M179.167 221.222C181.027 221.222 182.869 220.856 184.588 220.144C186.307 219.432 187.869 218.388 189.184 217.073C190.5 215.757 191.543 214.195 192.255 212.477C192.967 210.758 193.333 208.916 193.333 207.055C193.333 205.195 192.967 203.353 192.255 201.634C191.543 199.915 190.5 198.353 189.184 197.038C187.869 195.723 186.307 194.679 184.588 193.967C182.869 193.255 181.027 192.889 179.167 192.889C175.409 192.889 171.806 194.381 169.149 197.038C166.493 199.695 165 203.298 165 207.055C165 210.813 166.493 214.416 169.149 217.073C171.806 219.729 175.409 221.222 179.167 221.222Z" fill="#1B4298"/>
</svg>
