<svg width="500" height="500" viewBox="0 0 500 500" fill="none" xmlns="http://www.w3.org/2000/svg">
<rect width="500" height="500" fill="#F80000"/>
<path d="M221.302 258.418H248L232.993 235.709L207.087 274.99H195.295L226.807 227.806C227.521 226.842 228.455 226.062 229.531 225.531C230.606 224.999 231.793 224.732 232.993 224.751C234.167 224.732 235.329 224.992 236.382 225.51C237.436 226.028 238.351 226.789 239.053 227.73L270.683 274.99H258.9L253.976 266.834H226.958L221.302 258.418ZM340.583 266.616V224.751H332.167V270.226C332.167 271.455 332.672 272.65 333.623 273.559C334.574 274.477 335.862 274.99 337.276 274.99H383.618L391.083 266.616H340.583ZM177.359 258.872C187.072 258.872 197.5 250.792 197.5 241.5C197.5 232.208 187.072 224.751 177.359 224.751H138.583V274.998H147V233.126H176.694C181.34 233.126 187.619 234.834 187.619 241.5C187.619 248.166 181.34 250.127 176.694 250.127L151.899 250.094L178.352 274.99H192.888L172.789 258.864H177.359V258.872ZM72.0075 274.982C57.6571 274.998 46 263.888 46 250.127C46 236.391 57.6571 225.231 72.0075 225.231L104.159 225.189C118.518 225.189 130.167 236.349 130.167 250.094C130.167 263.83 118.518 274.956 104.159 274.956L72.0075 274.982ZM103.477 266.169C112.778 266.169 120.311 258.982 120.311 250.085C120.311 241.189 112.778 233.959 103.477 233.959L72.6724 234.001C63.372 234.001 55.8391 241.222 55.8391 250.119C55.8391 259.015 63.372 266.211 72.6724 266.211L103.477 266.169ZM297.423 275.251C283.064 275.251 270.683 263.872 270.683 250.127C270.683 236.391 283.055 225.483 297.423 225.483L327.487 225.231L321.629 234.009L298.088 234.262C288.787 234.262 280.53 241.231 280.53 250.127C280.53 259.024 288.787 266.472 298.088 266.472L328.312 266.22L322.42 274.99L297.423 275.251ZM413.926 266.22C406.242 266.22 399.719 261.288 397.733 254.495H440.489L446.381 245.717H397.733C399.719 238.967 406.233 233.126 413.926 233.126H443.267L449.2 224.751H413.253C398.886 224.751 387.22 236.391 387.22 250.127C387.22 263.872 398.886 274.99 413.253 274.99H444.108L450 266.211L413.926 266.22Z" fill="white"/>
</svg>
