<svg width="500" height="500" viewBox="0 0 500 500" fill="none" xmlns="http://www.w3.org/2000/svg">
<rect width="500" height="500" fill="#EE3943"/>
<path d="M377.225 108.89C382.469 106.738 387.826 104.576 393.182 102.443C391.019 101.039 388.593 100 385.803 100H113.812C106.18 100 100 106.233 100 113.916V259.091C147.851 217.418 262 156.646 377.225 108.89Z" fill="white"/>
<path d="M375.841 115.461C301.253 146.385 241.431 185.785 240.625 203.093C239.247 231.513 348.559 207.604 400 212.47V113.896C400 111.27 399.072 108.926 397.816 106.816C390.434 109.552 383.108 112.434 375.841 115.461ZM250 315.61C250.094 291.297 147.906 311.738 100 306.234V386.065C100 393.754 106.187 399.998 113.837 399.998H133.591C202.534 368.662 249.184 332.488 250 315.61ZM146.875 399.998H386.144C393.775 399.998 400 393.763 400 386.065V259.352C351.503 298.677 242.847 357.589 146.875 399.998Z" fill="white"/>
</svg>
