<svg width="500" height="500" viewBox="0 0 500 500" fill="none" xmlns="http://www.w3.org/2000/svg">
<rect width="500" height="500" fill="#215299"/>
<path fill-rule="evenodd" clip-rule="evenodd" d="M77.8717 234.362H61.8496V224.026H105.556V234.362H89.5336V279.922H77.8717V234.362ZM107.998 224.026H147.87V234.362H119.66V246.311H145.532V255.892H119.66V269.586H148.395V279.896H107.998V224.026ZM152.834 224.026H181.569C191.129 224.026 197.144 231.003 197.144 239.464C197.144 245.999 194.623 250.998 188.713 253.497V253.653C194.439 255.215 196.094 261.073 196.461 266.748C196.724 270.289 196.619 276.824 198.72 280H186.953C185.561 276.485 185.745 271.044 185.141 266.566C184.353 260.735 182.173 258.131 176.263 258.131H164.575V280H152.834V224.026ZM164.575 249.358H177.471C182.698 249.358 185.561 247.04 185.561 241.339C185.561 235.924 182.698 233.607 177.471 233.607H164.575V249.358ZM220.127 224.026H232.156L252.092 279.922H239.905L235.886 267.425H215.95L211.774 279.922H199.928L220.127 224.026ZM218.997 258.287H232.839L226.141 237.798H225.958L218.997 258.287ZM276.046 224.026C289.888 224.026 300.237 233.06 300.237 251.649C300.237 267.842 292.305 279.896 276.046 279.896H253.038V224.026H276.046ZM264.752 269.56H275.18C281.982 269.56 288.523 265.186 288.523 252.768C288.523 241.495 284.767 234.258 273.105 234.258H264.752V269.56ZM314.184 258.105L294.616 224H307.828L320.278 246.051L332.649 224H345.703L325.951 258.47V279.896H314.184V258.105ZM347.463 224H359.125L381.398 261.464H381.582V224H392.561V279.896H380.794L358.599 242.432H358.415V279.896H347.463V224ZM397.525 224H437.396V234.336H409.266V246.311H435.138V255.866H409.266V269.56H438.001V279.896H397.525V224Z" fill="white"/>
</svg>
