<svg width="500" height="500" viewBox="0 0 500 500" fill="none" xmlns="http://www.w3.org/2000/svg">
<rect width="500" height="500" fill="#E60012"/>
<path d="M133.882 226.323V216.867L113.983 217.053C111.452 217.053 111.597 216.512 111.597 213.236L111.809 200.311L101.755 200.14C98.6678 207.036 94.8339 211.588 92.6532 212.484L74 220.674V226.504L80.9817 226.675C84.0818 226.675 85.3536 226.504 85.3536 230.144V268.484C85.3536 280.127 91.7299 288.674 108.193 289.058C120.567 289.401 128.078 283.939 133.35 278.837L131.906 273.929C129.693 275.408 127.904 276.673 124.951 276.673C110.902 276.673 111.28 265.754 111.28 256.125V230.149C111.28 226.324 111.597 226.324 114.181 226.324L133.882 226.323ZM172.605 288.139C188.688 287.392 204.188 283.945 204.188 268.493C204.188 257.255 191.795 250.136 178.653 244.503C170.226 241.048 158.012 235.97 158.012 231.948C158.012 227.24 167.313 218.134 176.255 225.406L191.795 238.331L198.921 236.854L194.919 217.612C191.249 217.784 188.694 217.976 175.345 215.766C158.904 213.419 139.376 221.612 139.376 236.854C139.376 247.075 154.188 254.144 165.886 258.864C172.262 261.585 183.598 265.6 183.598 271.772C183.598 277.734 172.985 279.409 166.972 279.409C156.743 279.409 145.404 265.759 145.404 265.759H138.674L142.317 286.147C143.563 285.039 148.173 285.199 149.087 285.593C152.349 286.836 164.207 288.679 172.605 288.139ZM213.687 268.673C213.687 279.95 210.779 285.936 201.632 286.464L201.857 288.305C217.144 288.132 232.725 288.305 247.655 287.962L247.826 287.011C240.925 287.011 235.6 279.744 235.6 270.696V240.324C235.6 232.846 244.733 228.125 250.941 228.679C260.587 229.581 265.911 235.748 265.911 241.226V271.04C265.911 280.133 263.174 285.758 256.057 286.291V287.966H298.038V286.685C291.827 285.934 287.458 280.284 287.458 271.765V240.464C287.458 233.777 293.295 229.226 303.72 229.056C312.854 228.871 318.32 235.61 318.32 241.98V270.309C318.32 279.951 315.404 285.938 308.118 286.689V287.97C323.446 288.14 336.032 288.14 351.174 287.97V287.019C343.16 287.019 340.431 281.77 340.431 270.706V239.406C340.431 229.053 334.768 216.684 318.877 216.684C308.118 216.684 300.21 221.919 295.706 223.449C292.593 224.663 290.393 226.14 289.652 226.14C288.226 226.14 286.59 225.23 284.551 223.054C280.709 219.014 273.792 216.684 266.468 216.684C257.148 216.684 247.83 221.919 243.429 223.449C242.913 223.594 239.64 225.23 239.243 225.23C238.527 225.23 235.6 225.23 235.6 224.887C235.6 216.143 236.156 220.495 235.797 214.323H229.752C227.955 214.323 224.812 217.607 221.168 219.018C216.779 220.878 208.013 220.685 204.396 221.603V227.778L213.856 229.585V241.594L213.687 268.673ZM394.046 215.946C367.02 215.946 346.38 229.947 346.38 254.333C346.38 274.883 365.177 289.399 390.388 289.399C409.572 289.399 425.449 275.59 430 266.86C430 264.155 427.272 263.041 424.729 263.041C420.33 269.767 407.922 274.883 402.828 274.668C372.319 273.573 367.39 261.399 367.02 248.685C366.45 234.865 381.446 222.849 394.23 223.786C401.69 224.305 404.272 236.46 410.818 240.844C412.87 241.972 417.595 241.761 420.713 241.226C423.086 240.844 429.444 239.401 429.444 233.945C429.444 229.41 423.785 224.304 418.343 221.033C412.87 218.515 400.616 215.946 394.046 215.946Z" fill="white"/>
</svg>
