<svg width="500" height="500" viewBox="0 0 500 500" fill="none" xmlns="http://www.w3.org/2000/svg">
<rect width="500" height="500" fill="white"/>
<path d="M342.961 180.33L337.466 185.463L343.694 206.271L325.467 196.188L319.148 201.229L339.481 212.687L317.774 230.653L312.187 222.77L319.88 216.354L314.293 209.021L306.508 215.529L300.28 206.912L307.973 200.496L302.386 192.613L263.002 226.345L300.921 257.144L307.973 248.528C312.828 248.528 316.4 252.836 318.506 257.144L311.454 265.76L315.667 269.427C324.826 260.719 337.374 255.036 350.014 255.036C376.667 255.036 397 277.218 397 304.534C397 313.15 394.893 323.142 389.947 331.116L397 336.8C397 341.841 392.054 347.524 387.2 348.991L380.147 343.216C373.517 350.132 364.943 354.869 355.562 356.8C346.181 358.73 336.436 357.763 327.617 354.025C318.797 350.288 311.321 343.958 306.177 335.872C301.034 327.787 298.466 318.329 298.814 308.751C298.814 300.226 301.562 290.876 305.226 282.993L300.28 279.327L293.227 288.768C288.281 288.035 284.068 284.46 282.694 279.418L289.747 271.535L258.148 244.219V287.301H268.772C270.146 289.41 270.879 291.609 270.879 293.718C270.879 295.918 270.146 298.759 268.772 300.959H258.239V305.909C281.412 310.217 301.012 330.383 301.012 354.766C300.805 366.723 296.409 378.229 288.592 387.275C280.775 396.321 270.033 402.333 258.239 404.264V412.88C255.78 414.27 253.004 415 250.179 415C247.355 415 244.579 414.27 242.119 412.88V404.264C230.341 402.422 219.614 396.415 211.883 387.333C204.153 378.251 199.932 366.696 199.987 354.766C199.987 330.383 218.306 310.217 242.119 306.642V300.959H230.945C229.502 298.826 228.765 296.293 228.839 293.718C228.839 290.968 229.48 288.768 230.945 286.568H242.119V243.486L209.879 270.802L216.932 278.685C216.279 281.102 214.934 283.275 213.062 284.936C211.191 286.597 208.874 287.674 206.399 288.035L199.346 278.685L195.133 282.993C199.346 290.876 202.186 299.493 202.186 308.842C202.331 315.14 201.228 321.404 198.94 327.273C196.652 333.141 193.225 338.498 188.855 343.032C184.486 347.567 179.262 351.19 173.485 353.692C167.708 356.193 161.493 357.524 155.199 357.607C148.807 357.604 142.48 356.33 136.584 353.86C130.688 351.389 125.34 347.771 120.853 343.216L113.8 348.991C109.587 347.524 104.641 341.841 104 336.8L111.053 331.025C106.587 322.866 104.166 313.744 104 304.442C104 277.218 124.333 254.944 150.986 254.944C163.626 254.944 176.265 260.719 185.333 269.335L189.546 266.494L182.494 257.877C183.959 253.569 188.172 249.994 193.027 249.261L200.079 257.877L237.906 227.078L198.614 193.346L193.118 201.229L200.72 207.646L195.225 215.529L187.44 209.112L181.852 216.262L188.172 221.304L182.494 229.187L161.428 211.221L181.12 199.763L175.533 194.721L157.214 204.804L162.893 185.463L157.306 180.422L150.254 202.604L128.546 184.73L134.133 177.58L141.827 183.997L148.239 176.847L140.453 169.605L146.04 162.456L153.826 168.23L159.321 161.081L142.56 148.156C143.934 142.381 147.506 138.073 153.093 134.498L242.119 209.112V159.614H232.96V168.964H223.893V159.614H214.734V168.964H205.666V140.915L226.732 150.264V142.381L207.04 133.765L226.732 125.882V118.732L205.666 127.349V98.6579H214.825V108.741H223.984V98.6579H233.052V108.741H242.211V86.4666C244.959 85.7333 247.706 85 250.546 85C253.294 85 256.133 85.7333 258.239 86.4666V209.112L347.266 134.498C352.212 138.165 355.692 142.381 357.799 148.156L341.038 161.722L346.533 168.964L354.319 163.189L359.906 170.339L352.212 177.58L357.799 184.73L365.493 178.313L371.171 185.463L349.373 203.338L343.144 180.422L342.961 180.33ZM161.519 315.35C161.519 323.233 167.106 328.275 174.159 329.008L162.893 337.625C158.766 335.853 155.211 332.969 152.624 329.296C150.037 325.622 148.519 321.303 148.239 316.817C148.239 313.975 148.88 312.509 149.612 310.401H147.506C136.973 310.401 128.546 300.318 126.44 290.235L138.347 280.977V284.551C138.347 290.968 144.666 296.743 150.986 296.743C157.947 296.743 164.267 290.968 164.267 283.818C164.267 275.202 157.947 269.427 149.612 269.427C134.133 269.427 118.746 285.193 118.746 305.359C118.746 311.042 120.12 316.817 122.227 321.858L129.279 316.084C134.133 318.192 137.614 323.233 139.079 328.917L132.027 334.691C138.729 340.236 147.145 343.281 155.841 343.308C174.159 343.308 188.172 328.275 188.172 315.35C188.172 307.467 183.226 301.051 175.533 301.051C167.106 302.426 161.519 308.201 161.519 315.35ZM256.774 344.041C256.774 351.191 262.453 356.966 269.505 356.966C274.359 356.966 276.466 354.857 280.038 351.924V367.049C276.643 369.082 272.725 370.07 268.772 369.89C261.079 369.89 254.759 367.69 250.546 360.54C246.333 367.69 239.372 369.89 231.586 369.89C228.106 369.89 223.893 369.157 220.412 367.049V351.741C223.893 355.407 225.999 356.782 230.945 356.782C237.906 356.782 243.493 351.007 243.493 343.949C243.493 336.708 239.372 330.933 231.586 330.933C218.306 330.933 212.719 343.858 212.719 356.049C212.692 364.325 215.521 372.357 220.728 378.786C225.935 385.216 233.199 389.65 241.295 391.339V382.723C244.134 381.256 246.974 381.256 249.08 381.256C251.828 381.256 254.576 381.256 257.507 382.723V391.339C272.894 389.139 286.175 372.64 286.175 356.141C286.175 343.949 281.32 331.025 267.307 331.025C261.628 330.383 256.774 336.8 256.774 343.949V344.041ZM336.825 284.46C336.825 290.968 343.786 297.476 350.105 297.476C356.425 297.476 362.745 291.701 362.745 285.193V281.618L373.919 290.968C371.812 302.426 362.012 311.775 350.838 311.134C351.479 313.242 351.479 315.35 351.479 317.55C351.479 326.167 344.518 335.425 336.825 338.358L326.292 329.008C333.253 328.275 338.931 323.233 338.931 315.35C338.931 307.467 332.52 302.517 325.559 302.517C317.865 302.517 312.919 308.934 312.919 316.817C312.919 326.167 324.185 344.774 345.892 344.774C354.319 344.774 362.745 341.933 369.065 336.158L362.012 330.475C363.478 324.7 366.958 319.659 371.812 317.55L378.865 323.233C381.613 318.192 383.078 312.509 383.078 306.734C383.078 290.968 371.171 270.894 352.212 270.894C343.786 270.894 336.825 275.935 336.825 284.551V284.46Z" fill="black"/>
</svg>
